ISO-10303-21;
HEADER;

/* File generated by Shapr3D Version 26.123.11423.0 */

FILE_DESCRIPTION(('HOOPS Exchange Step'),'2;1');

FILE_NAME('C:\\Users\\Nalani\\AppData\\Local\\Packages\\Shapr3D.Shapr3D_j403pzjkqtqbj\\TempState\\export\\temp_export',
'2026-08-03T16:12:05+08:00',
('Nalani'),
('Shapr3D Limited'),
'HOOPS Exchange 2026.3',
'Shapr3D',
'Authorized');

FILE_SCHEMA( ('AP242_MANAGED_MODEL_BASED_3D_ENGINEERING_MIM_LF {1 0 10303 442 1 1 4}') );

ENDSEC;

DATA;
#3=(NAMED_UNIT(*)PLANE_ANGLE_UNIT()SI_UNIT($,.RADIAN.));
#4=PLANE_ANGLE_MEASURE_WITH_UNIT(PLANE_ANGLE_MEASURE(0.0174532925),#3);
#5=(CONVERSION_BASED_UNIT('DEGREE',#4)NAMED_UNIT(#6)PLANE_ANGLE_UNIT());
#6=DIMENSIONAL_EXPONENTS(0.,0.,0.,0.,0.,0.,0.);
#7=(NAMED_UNIT(*)SI_UNIT($,.STERADIAN.)SOLID_ANGLE_UNIT());
#8=(LENGTH_UNIT()NAMED_UNIT(*)SI_UNIT(.MILLI.,.METRE.));
#9=UNCERTAINTY_MEASURE_WITH_UNIT(LENGTH_MEASURE(1.000000E-05),#8,'DISTANCE_ACCURACY_VALUE','Maximum Tolerance applied to model');
#10=(GEOMETRIC_REPRESENTATION_CONTEXT(3)GLOBAL_UNCERTAINTY_ASSIGNED_CONTEXT((#9))GLOBAL_UNIT_ASSIGNED_CONTEXT((#8,#5,#7))REPRESENTATION_CONTEXT('','1.2*0.4'));
#12=CARTESIAN_POINT('',(0.,0.,0.));
#13=DIRECTION('',(0.,0.,1.));
#14=DIRECTION('',(1.,0.,0.));
#15=AXIS2_PLACEMENT_3D('',#12,#13,#14);
#27=CARTESIAN_POINT('',(-5.664367374,-6.390777439,1.993519684));
#28=DIRECTION('',(0.,1.,-0.));
#29=DIRECTION('',(-1.,0.,0.));
#30=AXIS2_PLACEMENT_3D('',#27,#28,#29);
#31=CYLINDRICAL_SURFACE('',#30,0.8);
#32=CARTESIAN_POINT('',(-6.464367374,-6.265777439,1.993519684));
#33=VERTEX_POINT('',#32);
#34=CARTESIAN_POINT('',(-5.664367374,-6.265777439,1.993519684));
#35=DIRECTION('',(-0.,-1.,0.));
#36=DIRECTION('',(-1.,0.,0.));
#37=AXIS2_PLACEMENT_3D('',#34,#35,#36);
#38=CIRCLE('',#37,0.8);
#39=EDGE_CURVE('',#33,#33,#38,.T.);
#40=ORIENTED_EDGE('',*,*,#39,.T.);
#41=EDGE_LOOP('',(#40));
#42=FACE_BOUND('',#41,.T.);
#43=CARTESIAN_POINT('',(-6.464367374,-6.215777439,1.993519684));
#44=VERTEX_POINT('',#43);
#45=CARTESIAN_POINT('',(-5.664367374,-6.215777439,1.993519684));
#46=DIRECTION('',(0.,1.,-0.));
#47=DIRECTION('',(-1.,0.,0.));
#48=AXIS2_PLACEMENT_3D('',#45,#46,#47);
#49=CIRCLE('',#48,0.8);
#50=EDGE_CURVE('',#44,#44,#49,.T.);
#51=ORIENTED_EDGE('',*,*,#50,.T.);
#52=EDGE_LOOP('',(#51));
#53=FACE_BOUND('',#52,.T.);
#54=ADVANCED_FACE('',(#42,#53),#31,.F.);
#55=CARTESIAN_POINT('',(-5.664367374,-6.390777439,1.993519684));
#56=DIRECTION('',(0.,1.,-0.));
#57=DIRECTION('',(-1.,0.,0.));
#58=AXIS2_PLACEMENT_3D('',#55,#56,#57);
#59=CYLINDRICAL_SURFACE('',#58,1.05);
#60=CARTESIAN_POINT('',(-6.714367374,-6.265777439,1.993519684));
#61=VERTEX_POINT('',#60);
#62=CARTESIAN_POINT('',(-5.664367374,-6.265777439,1.993519684));
#63=DIRECTION('',(0.,1.,-0.));
#64=DIRECTION('',(-1.,0.,0.));
#65=AXIS2_PLACEMENT_3D('',#62,#63,#64);
#66=CIRCLE('',#65,1.05);
#67=EDGE_CURVE('',#61,#61,#66,.T.);
#68=ORIENTED_EDGE('',*,*,#67,.T.);
#69=EDGE_LOOP('',(#68));
#70=FACE_BOUND('',#69,.T.);
#71=CARTESIAN_POINT('',(-6.714367374,-6.215777439,1.993519684));
#72=VERTEX_POINT('',#71);
#73=CARTESIAN_POINT('',(-5.664367374,-6.215777439,1.993519684));
#74=DIRECTION('',(-0.,-1.,0.));
#75=DIRECTION('',(-1.,0.,0.));
#76=AXIS2_PLACEMENT_3D('',#73,#74,#75);
#77=CIRCLE('',#76,1.05);
#78=EDGE_CURVE('',#72,#72,#77,.T.);
#79=ORIENTED_EDGE('',*,*,#78,.T.);
#80=EDGE_LOOP('',(#79));
#81=FACE_BOUND('',#80,.T.);
#82=ADVANCED_FACE('',(#70,#81),#59,.T.);
#83=CARTESIAN_POINT('',(-6.464367374,-6.265777439,1.993519684));
#84=CARTESIAN_POINT('',(-6.464367374,-6.265777439,1.88881402));
#85=CARTESIAN_POINT('',(-6.422712871,-6.265777439,1.679402694));
#86=CARTESIAN_POINT('',(-6.24477989,-6.265777439,1.413107168));
#87=CARTESIAN_POINT('',(-5.978484364,-6.265777439,1.235174186));
#88=CARTESIAN_POINT('',(-5.664367374,-6.265777439,1.172692432));
#89=CARTESIAN_POINT('',(-5.350250384,-6.265777439,1.235174186));
#90=CARTESIAN_POINT('',(-5.083954858,-6.265777439,1.413107168));
#91=CARTESIAN_POINT('',(-4.906021877,-6.265777439,1.679402694));
#92=CARTESIAN_POINT('',(-4.843540123,-6.265777439,1.993519684));
#93=CARTESIAN_POINT('',(-4.906021877,-6.265777439,2.307636674));
#94=CARTESIAN_POINT('',(-5.083954858,-6.265777439,2.573932199));
#95=CARTESIAN_POINT('',(-5.350250384,-6.265777439,2.751865181));
#96=CARTESIAN_POINT('',(-5.664367374,-6.265777439,2.814346935));
#97=CARTESIAN_POINT('',(-5.978484364,-6.265777439,2.751865181));
#98=CARTESIAN_POINT('',(-6.24477989,-6.265777439,2.573932199));
#99=CARTESIAN_POINT('',(-6.422712871,-6.265777439,2.307636674));
#100=CARTESIAN_POINT('',(-6.464367374,-6.265777439,2.098225347));
#101=CARTESIAN_POINT('',(-6.464367374,-6.265777439,1.993519684));
#102=CARTESIAN_POINT('',(-6.464367374,-6.284527439,1.993519684));
#103=CARTESIAN_POINT('',(-6.464367374,-6.284527439,1.88881402));
#104=CARTESIAN_POINT('',(-6.422712871,-6.284527439,1.679402694));
#105=CARTESIAN_POINT('',(-6.24477989,-6.284527439,1.413107168));
#106=CARTESIAN_POINT('',(-5.978484364,-6.284527439,1.235174186));
#107=CARTESIAN_POINT('',(-5.664367374,-6.284527439,1.172692432));
#108=CARTESIAN_POINT('',(-5.350250384,-6.284527439,1.235174186));
#109=CARTESIAN_POINT('',(-5.083954858,-6.284527439,1.413107168));
#110=CARTESIAN_POINT('',(-4.906021877,-6.284527439,1.679402694));
#111=CARTESIAN_POINT('',(-4.843540123,-6.284527439,1.993519684));
#112=CARTESIAN_POINT('',(-4.906021877,-6.284527439,2.307636674));
#113=CARTESIAN_POINT('',(-5.083954858,-6.284527439,2.573932199));
#114=CARTESIAN_POINT('',(-5.350250384,-6.284527439,2.751865181));
#115=CARTESIAN_POINT('',(-5.664367374,-6.284527439,2.814346935));
#116=CARTESIAN_POINT('',(-5.978484364,-6.284527439,2.751865181));
#117=CARTESIAN_POINT('',(-6.24477989,-6.284527439,2.573932199));
#118=CARTESIAN_POINT('',(-6.422712871,-6.284527439,2.307636674));
#119=CARTESIAN_POINT('',(-6.464367374,-6.284527439,2.098225347));
#120=CARTESIAN_POINT('',(-6.464367374,-6.284527439,1.993519684));
#121=CARTESIAN_POINT('',(-6.464367374,-6.303277439,1.993519684));
#122=CARTESIAN_POINT('',(-6.464367374,-6.303277439,1.88881402));
#123=CARTESIAN_POINT('',(-6.422712871,-6.303277439,1.679402694));
#124=CARTESIAN_POINT('',(-6.24477989,-6.303277439,1.413107168));
#125=CARTESIAN_POINT('',(-5.978484364,-6.303277439,1.235174186));
#126=CARTESIAN_POINT('',(-5.664367374,-6.303277439,1.172692432));
#127=CARTESIAN_POINT('',(-5.350250384,-6.303277439,1.235174186));
#128=CARTESIAN_POINT('',(-5.083954858,-6.303277439,1.413107168));
#129=CARTESIAN_POINT('',(-4.906021877,-6.303277439,1.679402694));
#130=CARTESIAN_POINT('',(-4.843540123,-6.303277439,1.993519684));
#131=CARTESIAN_POINT('',(-4.906021877,-6.303277439,2.307636674));
#132=CARTESIAN_POINT('',(-5.083954858,-6.303277439,2.573932199));
#133=CARTESIAN_POINT('',(-5.350250384,-6.303277439,2.751865181));
#134=CARTESIAN_POINT('',(-5.664367374,-6.303277439,2.814346935));
#135=CARTESIAN_POINT('',(-5.978484364,-6.303277439,2.751865181));
#136=CARTESIAN_POINT('',(-6.24477989,-6.303277439,2.573932199));
#137=CARTESIAN_POINT('',(-6.422712871,-6.303277439,2.307636674));
#138=CARTESIAN_POINT('',(-6.464367374,-6.303277439,2.098225347));
#139=CARTESIAN_POINT('',(-6.464367374,-6.303277439,1.993519684));
#140=CARTESIAN_POINT('',(-6.476867374,-6.349110772,1.993519684));
#141=CARTESIAN_POINT('',(-6.476867374,-6.349110772,1.887177994));
#142=CARTESIAN_POINT('',(-6.43456202,-6.349110772,1.674494616));
#143=CARTESIAN_POINT('',(-6.253848835,-6.349110772,1.404038222));
#144=CARTESIAN_POINT('',(-5.983392442,-6.349110772,1.223325038));
#145=CARTESIAN_POINT('',(-5.664367374,-6.349110772,1.159867006));
#146=CARTESIAN_POINT('',(-5.345342306,-6.349110772,1.223325038));
#147=CARTESIAN_POINT('',(-5.074885913,-6.349110772,1.404038222));
#148=CARTESIAN_POINT('',(-4.894172728,-6.349110772,1.674494616));
#149=CARTESIAN_POINT('',(-4.830714697,-6.349110772,1.993519684));
#150=CARTESIAN_POINT('',(-4.894172728,-6.349110772,2.312544751));
#151=CARTESIAN_POINT('',(-5.074885913,-6.349110772,2.583001145));
#152=CARTESIAN_POINT('',(-5.345342306,-6.349110772,2.763714329));
#153=CARTESIAN_POINT('',(-5.664367374,-6.349110772,2.827172361));
#154=CARTESIAN_POINT('',(-5.983392442,-6.349110772,2.763714329));
#155=CARTESIAN_POINT('',(-6.253848835,-6.349110772,2.583001145));
#156=CARTESIAN_POINT('',(-6.43456202,-6.349110772,2.312544751));
#157=CARTESIAN_POINT('',(-6.476867374,-6.349110772,2.099861373));
#158=CARTESIAN_POINT('',(-6.476867374,-6.349110772,1.993519684));
#159=CARTESIAN_POINT('',(-6.506034041,-6.378277439,1.993519684));
#160=CARTESIAN_POINT('',(-6.506034041,-6.378277439,1.8833606));
#161=CARTESIAN_POINT('',(-6.462210032,-6.378277439,1.663042434));
#162=CARTESIAN_POINT('',(-6.275009708,-6.378277439,1.382877349));
#163=CARTESIAN_POINT('',(-5.994844624,-6.378277439,1.195677025));
#164=CARTESIAN_POINT('',(-5.664367374,-6.378277439,1.129941013));
#165=CARTESIAN_POINT('',(-5.333890124,-6.378277439,1.195677025));
#166=CARTESIAN_POINT('',(-5.05372504,-6.378277439,1.382877349));
#167=CARTESIAN_POINT('',(-4.866524715,-6.378277439,1.663042434));
#168=CARTESIAN_POINT('',(-4.800788703,-6.378277439,1.993519684));
#169=CARTESIAN_POINT('',(-4.866524715,-6.378277439,2.323996933));
#170=CARTESIAN_POINT('',(-5.05372504,-6.378277439,2.604162018));
#171=CARTESIAN_POINT('',(-5.333890124,-6.378277439,2.791362342));
#172=CARTESIAN_POINT('',(-5.664367374,-6.378277439,2.857098354));
#173=CARTESIAN_POINT('',(-5.994844624,-6.378277439,2.791362342));
#174=CARTESIAN_POINT('',(-6.275009708,-6.378277439,2.604162018));
#175=CARTESIAN_POINT('',(-6.462210032,-6.378277439,2.323996933));
#176=CARTESIAN_POINT('',(-6.506034041,-6.378277439,2.103678767));
#177=CARTESIAN_POINT('',(-6.506034041,-6.378277439,1.993519684));
#178=CARTESIAN_POINT('',(-6.551867374,-6.390777439,1.993519684));
#179=CARTESIAN_POINT('',(-6.551867374,-6.390777439,1.877361838));
#180=CARTESIAN_POINT('',(-6.50565691,-6.390777439,1.645046148));
#181=CARTESIAN_POINT('',(-6.308262508,-6.390777439,1.349624549));
#182=CARTESIAN_POINT('',(-6.01284091,-6.390777439,1.152230148));
#183=CARTESIAN_POINT('',(-5.664367374,-6.390777439,1.082914452));
#184=CARTESIAN_POINT('',(-5.315893838,-6.390777439,1.152230148));
#185=CARTESIAN_POINT('',(-5.020472239,-6.390777439,1.349624549));
#186=CARTESIAN_POINT('',(-4.823077838,-6.390777439,1.645046148));
#187=CARTESIAN_POINT('',(-4.753762142,-6.390777439,1.993519684));
#188=CARTESIAN_POINT('',(-4.823077838,-6.390777439,2.341993219));
#189=CARTESIAN_POINT('',(-5.020472239,-6.390777439,2.637414818));
#190=CARTESIAN_POINT('',(-5.315893838,-6.390777439,2.83480922));
#191=CARTESIAN_POINT('',(-5.664367374,-6.390777439,2.904124916));
#192=CARTESIAN_POINT('',(-6.01284091,-6.390777439,2.83480922));
#193=CARTESIAN_POINT('',(-6.308262508,-6.390777439,2.637414818));
#194=CARTESIAN_POINT('',(-6.50565691,-6.390777439,2.341993219));
#195=CARTESIAN_POINT('',(-6.551867374,-6.390777439,2.109677529));
#196=CARTESIAN_POINT('',(-6.551867374,-6.390777439,1.993519684));
#197=CARTESIAN_POINT('',(-6.570617374,-6.390777439,1.993519684));
#198=CARTESIAN_POINT('',(-6.570617374,-6.390777439,1.874907799));
#199=CARTESIAN_POINT('',(-6.523430633,-6.390777439,1.637684031));
#200=CARTESIAN_POINT('',(-6.321865927,-6.390777439,1.336021131));
#201=CARTESIAN_POINT('',(-6.020203027,-6.390777439,1.134456425));
#202=CARTESIAN_POINT('',(-5.664367374,-6.390777439,1.063676313));
#203=CARTESIAN_POINT('',(-5.308531721,-6.390777439,1.134456425));
#204=CARTESIAN_POINT('',(-5.006868821,-6.390777439,1.336021131));
#205=CARTESIAN_POINT('',(-4.805304115,-6.390777439,1.637684031));
#206=CARTESIAN_POINT('',(-4.734524003,-6.390777439,1.993519684));
#207=CARTESIAN_POINT('',(-4.805304115,-6.390777439,2.349355336));
#208=CARTESIAN_POINT('',(-5.006868821,-6.390777439,2.651018236));
#209=CARTESIAN_POINT('',(-5.308531721,-6.390777439,2.852582942));
#210=CARTESIAN_POINT('',(-5.664367374,-6.390777439,2.923363054));
#211=CARTESIAN_POINT('',(-6.020203027,-6.390777439,2.852582942));
#212=CARTESIAN_POINT('',(-6.321865927,-6.390777439,2.651018236));
#213=CARTESIAN_POINT('',(-6.523430633,-6.390777439,2.349355336));
#214=CARTESIAN_POINT('',(-6.570617374,-6.390777439,2.112131568));
#215=CARTESIAN_POINT('',(-6.570617374,-6.390777439,1.993519684));
#216=CARTESIAN_POINT('',(-6.589367374,-6.390777439,1.993519684));
#217=CARTESIAN_POINT('',(-6.589367374,-6.390777439,1.87245376));
#218=CARTESIAN_POINT('',(-6.541204355,-6.390777439,1.630321914));
#219=CARTESIAN_POINT('',(-6.335469345,-6.390777439,1.322417712));
#220=CARTESIAN_POINT('',(-6.027565144,-6.390777439,1.116682702));
#221=CARTESIAN_POINT('',(-5.664367374,-6.390777439,1.044438174));
#222=CARTESIAN_POINT('',(-5.301169604,-6.390777439,1.116682702));
#223=CARTESIAN_POINT('',(-4.993265403,-6.390777439,1.322417712));
#224=CARTESIAN_POINT('',(-4.787530393,-6.390777439,1.630321914));
#225=CARTESIAN_POINT('',(-4.715285865,-6.390777439,1.993519684));
#226=CARTESIAN_POINT('',(-4.787530393,-6.390777439,2.356717453));
#227=CARTESIAN_POINT('',(-4.993265403,-6.390777439,2.664621655));
#228=CARTESIAN_POINT('',(-5.301169604,-6.390777439,2.870356665));
#229=CARTESIAN_POINT('',(-5.664367374,-6.390777439,2.942601193));
#230=CARTESIAN_POINT('',(-6.027565144,-6.390777439,2.870356665));
#231=CARTESIAN_POINT('',(-6.335469345,-6.390777439,2.664621655));
#232=CARTESIAN_POINT('',(-6.541204355,-6.390777439,2.356717453));
#233=CARTESIAN_POINT('',(-6.589367374,-6.390777439,2.114585607));
#234=CARTESIAN_POINT('',(-6.589367374,-6.390777439,1.993519684));
#235=B_SPLINE_SURFACE_WITH_KNOTS('',5,3,((#83,#84,#85,#86,#87,#88,#89,#90,#91,#92,#93,#94,#95,#96,#97,#98,#99,#100,#101),(#102,#103,#104,#105,#106,#107,#108,#109,#110,#111,#112,#113,#114,#115,#116,#117,#118,#119,#120),(#121,#122,#123,#124,#125,#126,#127,#128,#129,#130,#131,#132,#133,#134,#135,#136,#137,#138,#139),(#140,#141,#142,#143,#144,#145,#146,#147,#148,#149,#150,#151,#152,#153,#154,#155,#156,#157,#158),(#159,#160,#161,#162,#163,#164,#165,#166,#167,#168,#169,#170,#171,#172,#173,#174,#175,#176,#177),(#178,#179,#180,#181,#182,#183,#184,#185,#186,#187,#188,#189,#190,#191,#192,#193,#194,#195,#196),(#197,#198,#199,#200,#201,#202,#203,#204,#205,#206,#207,#208,#209,#210,#211,#212,#213,#214,#215),(#216,#217,#218,#219,#220,#221,#222,#223,#224,#225,#226,#227,#228,#229,#230,#231,#232,#233,#234)),.UNSPECIFIED.,.F.,.T.,.U.,(6,2,6),(4,1,1,1,1,1,1,1,1,1,1,1,1,1,1,1,4),(0.,0.5,1.),(3.141592654,3.534291735,3.926990817,4.319689899,4.71238898,5.105088062,5.497787144,5.890486225,6.283185307,6.675884389,7.068583471,7.461282552,7.853981634,8.246680716,8.639379797,9.032078879,9.424777961),.UNSPECIFIED.);
#236=ORIENTED_EDGE('',*,*,#39,.F.);
#237=EDGE_LOOP('',(#236));
#238=FACE_BOUND('',#237,.T.);
#239=CARTESIAN_POINT('',(-6.589367374,-6.390777439,1.993519684));
#240=VERTEX_POINT('',#239);
#241=CARTESIAN_POINT('',(-6.589367374,-6.390777439,1.993519684));
#242=CARTESIAN_POINT('',(-6.589367374,-6.390777439,2.114585607));
#243=CARTESIAN_POINT('',(-6.565285865,-6.390777439,2.23565153));
#244=CARTESIAN_POINT('',(-6.518955941,-6.390777439,2.347501859));
#245=CARTESIAN_POINT('',(-6.472626018,-6.390777439,2.459352187));
#246=CARTESIAN_POINT('',(-6.404047682,-6.390777439,2.561986921));
#247=CARTESIAN_POINT('',(-6.318441147,-6.390777439,2.647593456));
#248=CARTESIAN_POINT('',(-6.232834611,-6.390777439,2.733199991));
#249=CARTESIAN_POINT('',(-6.130199877,-6.390777439,2.801778328));
#250=CARTESIAN_POINT('',(-6.018349549,-6.390777439,2.848108251));
#251=CARTESIAN_POINT('',(-5.90649922,-6.390777439,2.894438174));
#252=CARTESIAN_POINT('',(-5.785433297,-6.390777439,2.918519684));
#253=CARTESIAN_POINT('',(-5.664367374,-6.390777439,2.918519684));
#254=CARTESIAN_POINT('',(-5.543301451,-6.390777439,2.918519684));
#255=CARTESIAN_POINT('',(-5.422235527,-6.390777439,2.894438174));
#256=CARTESIAN_POINT('',(-5.310385199,-6.390777439,2.848108251));
#257=CARTESIAN_POINT('',(-5.19853487,-6.390777439,2.801778328));
#258=CARTESIAN_POINT('',(-5.095900137,-6.390777439,2.733199991));
#259=CARTESIAN_POINT('',(-5.010293601,-6.390777439,2.647593456));
#260=CARTESIAN_POINT('',(-4.924687066,-6.390777439,2.561986921));
#261=CARTESIAN_POINT('',(-4.856108729,-6.390777439,2.459352187));
#262=CARTESIAN_POINT('',(-4.809778806,-6.390777439,2.347501859));
#263=CARTESIAN_POINT('',(-4.763448883,-6.390777439,2.23565153));
#264=CARTESIAN_POINT('',(-4.739367374,-6.390777439,2.114585607));
#265=CARTESIAN_POINT('',(-4.739367374,-6.390777439,1.993519684));
#266=CARTESIAN_POINT('',(-4.739367374,-6.390777439,1.87245376));
#267=CARTESIAN_POINT('',(-4.763448883,-6.390777439,1.751387837));
#268=CARTESIAN_POINT('',(-4.809778806,-6.390777439,1.639537509));
#269=CARTESIAN_POINT('',(-4.856108729,-6.390777439,1.52768718));
#270=CARTESIAN_POINT('',(-4.924687066,-6.390777439,1.425052446));
#271=CARTESIAN_POINT('',(-5.010293601,-6.390777439,1.339445911));
#272=CARTESIAN_POINT('',(-5.095900137,-6.390777439,1.253839376));
#273=CARTESIAN_POINT('',(-5.19853487,-6.390777439,1.185261039));
#274=CARTESIAN_POINT('',(-5.310385199,-6.390777439,1.138931116));
#275=CARTESIAN_POINT('',(-5.422235527,-6.390777439,1.092601193));
#276=CARTESIAN_POINT('',(-5.543301451,-6.390777439,1.068519684));
#277=CARTESIAN_POINT('',(-5.664367374,-6.390777439,1.068519684));
#278=CARTESIAN_POINT('',(-5.785433297,-6.390777439,1.068519684));
#279=CARTESIAN_POINT('',(-5.90649922,-6.390777439,1.092601193));
#280=CARTESIAN_POINT('',(-6.018349549,-6.390777439,1.138931116));
#281=CARTESIAN_POINT('',(-6.130199877,-6.390777439,1.185261039));
#282=CARTESIAN_POINT('',(-6.232834611,-6.390777439,1.253839376));
#283=CARTESIAN_POINT('',(-6.318441147,-6.390777439,1.339445911));
#284=CARTESIAN_POINT('',(-6.404047682,-6.390777439,1.425052446));
#285=CARTESIAN_POINT('',(-6.472626018,-6.390777439,1.52768718));
#286=CARTESIAN_POINT('',(-6.518955941,-6.390777439,1.639537509));
#287=CARTESIAN_POINT('',(-6.565285865,-6.390777439,1.751387837));
#288=CARTESIAN_POINT('',(-6.589367374,-6.390777439,1.87245376));
#289=CARTESIAN_POINT('',(-6.589367374,-6.390777439,1.993519684));
#290=B_SPLINE_CURVE_WITH_KNOTS('',3,(#241,#242,#243,#244,#245,#246,#247,#248,#249,#250,#251,#252,#253,#254,#255,#256,#257,#258,#259,#260,#261,#262,#263,#264,#265,#266,
#267,#268,#269,#270,#271,#272,#273,#274,#275,#276,#277,#278,#279,#280,#281,#282,#283,#284,#285,#286,#287,#288,#289),.UNSPECIFIED.,.T.,.F.,(4,3,3,3,3,3,3,3,3,3,3,3,3,3,3,3,4),(0.,0.0625,0.125,0.1875,0.25,0.3125,0.375,0.4375,0.5,0.5625,0.625,0.6875,0.75,0.8125,0.875,0.9375,1.),.UNSPECIFIED.);
#291=EDGE_CURVE('',#240,#240,#290,.T.);
#292=ORIENTED_EDGE('',*,*,#291,.F.);
#293=EDGE_LOOP('',(#292));
#294=FACE_BOUND('',#293,.T.);
#295=ADVANCED_FACE('',(#238,#294),#235,.T.);
#296=CARTESIAN_POINT('',(-6.589367374,-6.390777439,1.993519684));
#297=CARTESIAN_POINT('',(-6.589367374,-6.390777439,1.87245376));
#298=CARTESIAN_POINT('',(-6.541204355,-6.390777439,1.630321914));
#299=CARTESIAN_POINT('',(-6.335469345,-6.390777439,1.322417712));
#300=CARTESIAN_POINT('',(-6.027565144,-6.390777439,1.116682702));
#301=CARTESIAN_POINT('',(-5.664367374,-6.390777439,1.044438174));
#302=CARTESIAN_POINT('',(-5.301169604,-6.390777439,1.116682702));
#303=CARTESIAN_POINT('',(-4.993265403,-6.390777439,1.322417712));
#304=CARTESIAN_POINT('',(-4.787530393,-6.390777439,1.630321914));
#305=CARTESIAN_POINT('',(-4.715285865,-6.390777439,1.993519684));
#306=CARTESIAN_POINT('',(-4.787530393,-6.390777439,2.356717453));
#307=CARTESIAN_POINT('',(-4.993265403,-6.390777439,2.664621655));
#308=CARTESIAN_POINT('',(-5.301169604,-6.390777439,2.870356665));
#309=CARTESIAN_POINT('',(-5.664367374,-6.390777439,2.942601193));
#310=CARTESIAN_POINT('',(-6.027565144,-6.390777439,2.870356665));
#311=CARTESIAN_POINT('',(-6.335469345,-6.390777439,2.664621655));
#312=CARTESIAN_POINT('',(-6.541204355,-6.390777439,2.356717453));
#313=CARTESIAN_POINT('',(-6.589367374,-6.390777439,2.114585607));
#314=CARTESIAN_POINT('',(-6.589367374,-6.390777439,1.993519684));
#315=CARTESIAN_POINT('',(-6.608117374,-6.390777439,1.993519684));
#316=CARTESIAN_POINT('',(-6.608117374,-6.390777439,1.869999721));
#317=CARTESIAN_POINT('',(-6.558978078,-6.390777439,1.622959797));
#318=CARTESIAN_POINT('',(-6.349072763,-6.390777439,1.308814294));
#319=CARTESIAN_POINT('',(-6.03492726,-6.390777439,1.09890898));
#320=CARTESIAN_POINT('',(-5.664367374,-6.390777439,1.025200035));
#321=CARTESIAN_POINT('',(-5.293807487,-6.390777439,1.09890898));
#322=CARTESIAN_POINT('',(-4.979661984,-6.390777439,1.308814294));
#323=CARTESIAN_POINT('',(-4.76975667,-6.390777439,1.622959797));
#324=CARTESIAN_POINT('',(-4.696047726,-6.390777439,1.993519684));
#325=CARTESIAN_POINT('',(-4.76975667,-6.390777439,2.36407957));
#326=CARTESIAN_POINT('',(-4.979661984,-6.390777439,2.678225073));
#327=CARTESIAN_POINT('',(-5.293807487,-6.390777439,2.888130387));
#328=CARTESIAN_POINT('',(-5.664367374,-6.390777439,2.961839332));
#329=CARTESIAN_POINT('',(-6.03492726,-6.390777439,2.888130387));
#330=CARTESIAN_POINT('',(-6.349072763,-6.390777439,2.678225073));
#331=CARTESIAN_POINT('',(-6.558978078,-6.390777439,2.36407957));
#332=CARTESIAN_POINT('',(-6.608117374,-6.390777439,2.117039646));
#333=CARTESIAN_POINT('',(-6.608117374,-6.390777439,1.993519684));
#334=CARTESIAN_POINT('',(-6.626867374,-6.390777439,1.993519684));
#335=CARTESIAN_POINT('',(-6.626867374,-6.390777439,1.867545682));
#336=CARTESIAN_POINT('',(-6.5767518,-6.390777439,1.61559768));
#337=CARTESIAN_POINT('',(-6.362676182,-6.390777439,1.295210876));
#338=CARTESIAN_POINT('',(-6.042289377,-6.390777439,1.081135257));
#339=CARTESIAN_POINT('',(-5.664367374,-6.390777439,1.005961897));
#340=CARTESIAN_POINT('',(-5.28644537,-6.390777439,1.081135257));
#341=CARTESIAN_POINT('',(-4.966058566,-6.390777439,1.295210876));
#342=CARTESIAN_POINT('',(-4.751982948,-6.390777439,1.61559768));
#343=CARTESIAN_POINT('',(-4.676809587,-6.390777439,1.993519684));
#344=CARTESIAN_POINT('',(-4.751982948,-6.390777439,2.371441687));
#345=CARTESIAN_POINT('',(-4.966058566,-6.390777439,2.691828491));
#346=CARTESIAN_POINT('',(-5.28644537,-6.390777439,2.90590411));
#347=CARTESIAN_POINT('',(-5.664367374,-6.390777439,2.98107747));
#348=CARTESIAN_POINT('',(-6.042289377,-6.390777439,2.90590411));
#349=CARTESIAN_POINT('',(-6.362676182,-6.390777439,2.691828491));
#350=CARTESIAN_POINT('',(-6.5767518,-6.390777439,2.371441687));
#351=CARTESIAN_POINT('',(-6.626867374,-6.390777439,2.119493685));
#352=CARTESIAN_POINT('',(-6.626867374,-6.390777439,1.993519684));
#353=CARTESIAN_POINT('',(-6.672700707,-6.378277439,1.993519684));
#354=CARTESIAN_POINT('',(-6.672700707,-6.378277439,1.86154692));
#355=CARTESIAN_POINT('',(-6.620198678,-6.378277439,1.597601394));
#356=CARTESIAN_POINT('',(-6.395928982,-6.378277439,1.261958075));
#357=CARTESIAN_POINT('',(-6.060285663,-6.378277439,1.03768838));
#358=CARTESIAN_POINT('',(-5.664367374,-6.378277439,0.958935335));
#359=CARTESIAN_POINT('',(-5.268449085,-6.378277439,1.03768838));
#360=CARTESIAN_POINT('',(-4.932805766,-6.378277439,1.261958075));
#361=CARTESIAN_POINT('',(-4.70853607,-6.378277439,1.597601394));
#362=CARTESIAN_POINT('',(-4.629783026,-6.378277439,1.993519684));
#363=CARTESIAN_POINT('',(-4.70853607,-6.378277439,2.389437973));
#364=CARTESIAN_POINT('',(-4.932805766,-6.378277439,2.725081292));
#365=CARTESIAN_POINT('',(-5.268449085,-6.378277439,2.949350987));
#366=CARTESIAN_POINT('',(-5.664367374,-6.378277439,3.028104032));
#367=CARTESIAN_POINT('',(-6.060285663,-6.378277439,2.949350987));
#368=CARTESIAN_POINT('',(-6.395928982,-6.378277439,2.725081292));
#369=CARTESIAN_POINT('',(-6.620198678,-6.378277439,2.389437973));
#370=CARTESIAN_POINT('',(-6.672700707,-6.378277439,2.125492447));
#371=CARTESIAN_POINT('',(-6.672700707,-6.378277439,1.993519684));
#372=CARTESIAN_POINT('',(-6.701867374,-6.349110772,1.993519684));
#373=CARTESIAN_POINT('',(-6.701867374,-6.349110772,1.857729526));
#374=CARTESIAN_POINT('',(-6.647846691,-6.349110772,1.586149212));
#375=CARTESIAN_POINT('',(-6.417089855,-6.349110772,1.240797202));
#376=CARTESIAN_POINT('',(-6.071737845,-6.349110772,1.010040367));
#377=CARTESIAN_POINT('',(-5.664367374,-6.349110772,0.929009342));
#378=CARTESIAN_POINT('',(-5.256996903,-6.349110772,1.010040367));
#379=CARTESIAN_POINT('',(-4.911644893,-6.349110772,1.240797202));
#380=CARTESIAN_POINT('',(-4.680888057,-6.349110772,1.586149212));
#381=CARTESIAN_POINT('',(-4.599857032,-6.349110772,1.993519684));
#382=CARTESIAN_POINT('',(-4.680888057,-6.349110772,2.400890155));
#383=CARTESIAN_POINT('',(-4.911644893,-6.349110772,2.746242165));
#384=CARTESIAN_POINT('',(-5.256996903,-6.349110772,2.976999));
#385=CARTESIAN_POINT('',(-5.664367374,-6.349110772,3.058030025));
#386=CARTESIAN_POINT('',(-6.071737845,-6.349110772,2.976999));
#387=CARTESIAN_POINT('',(-6.417089855,-6.349110772,2.746242165));
#388=CARTESIAN_POINT('',(-6.647846691,-6.349110772,2.400890155));
#389=CARTESIAN_POINT('',(-6.701867374,-6.349110772,2.129309841));
#390=CARTESIAN_POINT('',(-6.701867374,-6.349110772,1.993519684));
#391=CARTESIAN_POINT('',(-6.714367374,-6.303277439,1.993519684));
#392=CARTESIAN_POINT('',(-6.714367374,-6.303277439,1.8560935));
#393=CARTESIAN_POINT('',(-6.659695839,-6.303277439,1.581241134));
#394=CARTESIAN_POINT('',(-6.426158801,-6.303277439,1.231728257));
#395=CARTESIAN_POINT('',(-6.076645923,-6.303277439,0.998191218));
#396=CARTESIAN_POINT('',(-5.664367374,-6.303277439,0.916183916));
#397=CARTESIAN_POINT('',(-5.252088825,-6.303277439,0.998191218));
#398=CARTESIAN_POINT('',(-4.902575947,-6.303277439,1.231728257));
#399=CARTESIAN_POINT('',(-4.669038909,-6.303277439,1.581241134));
#400=CARTESIAN_POINT('',(-4.587031606,-6.303277439,1.993519684));
#401=CARTESIAN_POINT('',(-4.669038909,-6.303277439,2.405798233));
#402=CARTESIAN_POINT('',(-4.902575947,-6.303277439,2.75531111));
#403=CARTESIAN_POINT('',(-5.252088825,-6.303277439,2.988848149));
#404=CARTESIAN_POINT('',(-5.664367374,-6.303277439,3.070855451));
#405=CARTESIAN_POINT('',(-6.076645923,-6.303277439,2.988848149));
#406=CARTESIAN_POINT('',(-6.426158801,-6.303277439,2.75531111));
#407=CARTESIAN_POINT('',(-6.659695839,-6.303277439,2.405798233));
#408=CARTESIAN_POINT('',(-6.714367374,-6.303277439,2.130945867));
#409=CARTESIAN_POINT('',(-6.714367374,-6.303277439,1.993519684));
#410=CARTESIAN_POINT('',(-6.714367374,-6.284527439,1.993519684));
#411=CARTESIAN_POINT('',(-6.714367374,-6.284527439,1.8560935));
#412=CARTESIAN_POINT('',(-6.659695839,-6.284527439,1.581241134));
#413=CARTESIAN_POINT('',(-6.426158801,-6.284527439,1.231728257));
#414=CARTESIAN_POINT('',(-6.076645923,-6.284527439,0.998191218));
#415=CARTESIAN_POINT('',(-5.664367374,-6.284527439,0.916183916));
#416=CARTESIAN_POINT('',(-5.252088825,-6.284527439,0.998191218));
#417=CARTESIAN_POINT('',(-4.902575947,-6.284527439,1.231728257));
#418=CARTESIAN_POINT('',(-4.669038909,-6.284527439,1.581241134));
#419=CARTESIAN_POINT('',(-4.587031606,-6.284527439,1.993519684));
#420=CARTESIAN_POINT('',(-4.669038909,-6.284527439,2.405798233));
#421=CARTESIAN_POINT('',(-4.902575947,-6.284527439,2.75531111));
#422=CARTESIAN_POINT('',(-5.252088825,-6.284527439,2.988848149));
#423=CARTESIAN_POINT('',(-5.664367374,-6.284527439,3.070855451));
#424=CARTESIAN_POINT('',(-6.076645923,-6.284527439,2.988848149));
#425=CARTESIAN_POINT('',(-6.426158801,-6.284527439,2.75531111));
#426=CARTESIAN_POINT('',(-6.659695839,-6.284527439,2.405798233));
#427=CARTESIAN_POINT('',(-6.714367374,-6.284527439,2.130945867));
#428=CARTESIAN_POINT('',(-6.714367374,-6.284527439,1.993519684));
#429=CARTESIAN_POINT('',(-6.714367374,-6.265777439,1.993519684));
#430=CARTESIAN_POINT('',(-6.714367374,-6.265777439,1.8560935));
#431=CARTESIAN_POINT('',(-6.659695839,-6.265777439,1.581241134));
#432=CARTESIAN_POINT('',(-6.426158801,-6.265777439,1.231728257));
#433=CARTESIAN_POINT('',(-6.076645923,-6.265777439,0.998191218));
#434=CARTESIAN_POINT('',(-5.664367374,-6.265777439,0.916183916));
#435=CARTESIAN_POINT('',(-5.252088825,-6.265777439,0.998191218));
#436=CARTESIAN_POINT('',(-4.902575947,-6.265777439,1.231728257));
#437=CARTESIAN_POINT('',(-4.669038909,-6.265777439,1.581241134));
#438=CARTESIAN_POINT('',(-4.587031606,-6.265777439,1.993519684));
#439=CARTESIAN_POINT('',(-4.669038909,-6.265777439,2.405798233));
#440=CARTESIAN_POINT('',(-4.902575947,-6.265777439,2.75531111));
#441=CARTESIAN_POINT('',(-5.252088825,-6.265777439,2.988848149));
#442=CARTESIAN_POINT('',(-5.664367374,-6.265777439,3.070855451));
#443=CARTESIAN_POINT('',(-6.076645923,-6.265777439,2.988848149));
#444=CARTESIAN_POINT('',(-6.426158801,-6.265777439,2.75531111));
#445=CARTESIAN_POINT('',(-6.659695839,-6.265777439,2.405798233));
#446=CARTESIAN_POINT('',(-6.714367374,-6.265777439,2.130945867));
#447=CARTESIAN_POINT('',(-6.714367374,-6.265777439,1.993519684));
#448=B_SPLINE_SURFACE_WITH_KNOTS('',5,3,((#296,#297,#298,#299,#300,#301,#302,#303,#304,#305,#306,#307,#308,#309,#310,#311,#312,#313,#314),(#315,#316,#317,#318,#319,#320,#321,#322,#323,#324,#325,#326,#327,#328,#329,#330,#331,#332,#333),(#334,#335,#336,#337,#338,#339,#340,#341,#342,#343,#344,#345,#346,#347,#348,#349,#350,#351,#352),(#353,#354,#355,#356,#357,#358,#359,#360,#361,#362,#363,#364,#365,#366,#367,#368,#369,#370,#371),(#372,#373,#374,#375,#376,#377,#378,#379,#380,#381,#382,#383,#384,#385,#386,#387,#388,#389,#390),(#391,#392,#393,#394,#395,#396,#397,#398,#399,#400,#401,#402,#403,#404,#405,#406,#407,#408,#409),(#410,#411,#412,#413,#414,#415,#416,#417,#418,#419,#420,#421,#422,#423,#424,#425,#426,#427,#428),(#429,#430,#431,#432,#433,#434,#435,#436,#437,#438,#439,#440,#441,#442,#443,#444,#445,#446,#447)),.UNSPECIFIED.,.F.,.T.,.U.,(6,2,6),(4,1,1,1,1,1,1,1,1,1,1,1,1,1,1,1,4),(0.,0.5,1.),(3.141592654,3.534291735,3.926990817,4.319689899,4.71238898,5.105088062,5.497787144,5.890486225,6.283185307,6.675884389,7.068583471,7.461282552,7.853981634,8.246680716,8.639379797,9.032078879,9.424777961),.UNSPECIFIED.);
#449=ORIENTED_EDGE('',*,*,#67,.F.);
#450=EDGE_LOOP('',(#449));
#451=FACE_BOUND('',#450,.T.);
#452=ORIENTED_EDGE('',*,*,#291,.T.);
#453=EDGE_LOOP('',(#452));
#454=FACE_BOUND('',#453,.T.);
#455=ADVANCED_FACE('',(#451,#454),#448,.T.);
#456=CARTESIAN_POINT('',(-6.589367374,-6.090777439,1.993519684));
#457=CARTESIAN_POINT('',(-6.589367374,-6.090777439,1.87245376));
#458=CARTESIAN_POINT('',(-6.541204355,-6.090777439,1.630321914));
#459=CARTESIAN_POINT('',(-6.335469345,-6.090777439,1.322417712));
#460=CARTESIAN_POINT('',(-6.027565144,-6.090777439,1.116682702));
#461=CARTESIAN_POINT('',(-5.664367374,-6.090777439,1.044438174));
#462=CARTESIAN_POINT('',(-5.301169604,-6.090777439,1.116682702));
#463=CARTESIAN_POINT('',(-4.993265403,-6.090777439,1.322417712));
#464=CARTESIAN_POINT('',(-4.787530393,-6.090777439,1.630321914));
#465=CARTESIAN_POINT('',(-4.715285865,-6.090777439,1.993519684));
#466=CARTESIAN_POINT('',(-4.787530393,-6.090777439,2.356717453));
#467=CARTESIAN_POINT('',(-4.993265403,-6.090777439,2.664621655));
#468=CARTESIAN_POINT('',(-5.301169604,-6.090777439,2.870356665));
#469=CARTESIAN_POINT('',(-5.664367374,-6.090777439,2.942601193));
#470=CARTESIAN_POINT('',(-6.027565144,-6.090777439,2.870356665));
#471=CARTESIAN_POINT('',(-6.335469345,-6.090777439,2.664621655));
#472=CARTESIAN_POINT('',(-6.541204355,-6.090777439,2.356717453));
#473=CARTESIAN_POINT('',(-6.589367374,-6.090777439,2.114585607));
#474=CARTESIAN_POINT('',(-6.589367374,-6.090777439,1.993519684));
#475=CARTESIAN_POINT('',(-6.570617374,-6.090777439,1.993519684));
#476=CARTESIAN_POINT('',(-6.570617374,-6.090777439,1.874907799));
#477=CARTESIAN_POINT('',(-6.523430633,-6.090777439,1.637684031));
#478=CARTESIAN_POINT('',(-6.321865927,-6.090777439,1.336021131));
#479=CARTESIAN_POINT('',(-6.020203027,-6.090777439,1.134456425));
#480=CARTESIAN_POINT('',(-5.664367374,-6.090777439,1.063676313));
#481=CARTESIAN_POINT('',(-5.308531721,-6.090777439,1.134456425));
#482=CARTESIAN_POINT('',(-5.006868821,-6.090777439,1.336021131));
#483=CARTESIAN_POINT('',(-4.805304115,-6.090777439,1.637684031));
#484=CARTESIAN_POINT('',(-4.734524003,-6.090777439,1.993519684));
#485=CARTESIAN_POINT('',(-4.805304115,-6.090777439,2.349355336));
#486=CARTESIAN_POINT('',(-5.006868821,-6.090777439,2.651018236));
#487=CARTESIAN_POINT('',(-5.308531721,-6.090777439,2.852582942));
#488=CARTESIAN_POINT('',(-5.664367374,-6.090777439,2.923363054));
#489=CARTESIAN_POINT('',(-6.020203027,-6.090777439,2.852582942));
#490=CARTESIAN_POINT('',(-6.321865927,-6.090777439,2.651018236));
#491=CARTESIAN_POINT('',(-6.523430633,-6.090777439,2.349355336));
#492=CARTESIAN_POINT('',(-6.570617374,-6.090777439,2.112131568));
#493=CARTESIAN_POINT('',(-6.570617374,-6.090777439,1.993519684));
#494=CARTESIAN_POINT('',(-6.551867374,-6.090777439,1.993519684));
#495=CARTESIAN_POINT('',(-6.551867374,-6.090777439,1.877361838));
#496=CARTESIAN_POINT('',(-6.50565691,-6.090777439,1.645046148));
#497=CARTESIAN_POINT('',(-6.308262508,-6.090777439,1.349624549));
#498=CARTESIAN_POINT('',(-6.01284091,-6.090777439,1.152230148));
#499=CARTESIAN_POINT('',(-5.664367374,-6.090777439,1.082914452));
#500=CARTESIAN_POINT('',(-5.315893838,-6.090777439,1.152230148));
#501=CARTESIAN_POINT('',(-5.020472239,-6.090777439,1.349624549));
#502=CARTESIAN_POINT('',(-4.823077838,-6.090777439,1.645046148));
#503=CARTESIAN_POINT('',(-4.753762142,-6.090777439,1.993519684));
#504=CARTESIAN_POINT('',(-4.823077838,-6.090777439,2.341993219));
#505=CARTESIAN_POINT('',(-5.020472239,-6.090777439,2.637414818));
#506=CARTESIAN_POINT('',(-5.315893838,-6.090777439,2.83480922));
#507=CARTESIAN_POINT('',(-5.664367374,-6.090777439,2.904124916));
#508=CARTESIAN_POINT('',(-6.01284091,-6.090777439,2.83480922));
#509=CARTESIAN_POINT('',(-6.308262508,-6.090777439,2.637414818));
#510=CARTESIAN_POINT('',(-6.50565691,-6.090777439,2.341993219));
#511=CARTESIAN_POINT('',(-6.551867374,-6.090777439,2.109677529));
#512=CARTESIAN_POINT('',(-6.551867374,-6.090777439,1.993519684));
#513=CARTESIAN_POINT('',(-6.506034041,-6.103277439,1.993519684));
#514=CARTESIAN_POINT('',(-6.506034041,-6.103277439,1.8833606));
#515=CARTESIAN_POINT('',(-6.462210032,-6.103277439,1.663042434));
#516=CARTESIAN_POINT('',(-6.275009708,-6.103277439,1.382877349));
#517=CARTESIAN_POINT('',(-5.994844624,-6.103277439,1.195677025));
#518=CARTESIAN_POINT('',(-5.664367374,-6.103277439,1.129941013));
#519=CARTESIAN_POINT('',(-5.333890124,-6.103277439,1.195677025));
#520=CARTESIAN_POINT('',(-5.05372504,-6.103277439,1.382877349));
#521=CARTESIAN_POINT('',(-4.866524715,-6.103277439,1.663042434));
#522=CARTESIAN_POINT('',(-4.800788703,-6.103277439,1.993519684));
#523=CARTESIAN_POINT('',(-4.866524715,-6.103277439,2.323996933));
#524=CARTESIAN_POINT('',(-5.05372504,-6.103277439,2.604162018));
#525=CARTESIAN_POINT('',(-5.333890124,-6.103277439,2.791362342));
#526=CARTESIAN_POINT('',(-5.664367374,-6.103277439,2.857098354));
#527=CARTESIAN_POINT('',(-5.994844624,-6.103277439,2.791362342));
#528=CARTESIAN_POINT('',(-6.275009708,-6.103277439,2.604162018));
#529=CARTESIAN_POINT('',(-6.462210032,-6.103277439,2.323996933));
#530=CARTESIAN_POINT('',(-6.506034041,-6.103277439,2.103678767));
#531=CARTESIAN_POINT('',(-6.506034041,-6.103277439,1.993519684));
#532=CARTESIAN_POINT('',(-6.476867374,-6.132444105,1.993519684));
#533=CARTESIAN_POINT('',(-6.476867374,-6.132444105,1.887177994));
#534=CARTESIAN_POINT('',(-6.43456202,-6.132444105,1.674494616));
#535=CARTESIAN_POINT('',(-6.253848835,-6.132444105,1.404038222));
#536=CARTESIAN_POINT('',(-5.983392442,-6.132444105,1.223325038));
#537=CARTESIAN_POINT('',(-5.664367374,-6.132444105,1.159867006));
#538=CARTESIAN_POINT('',(-5.345342306,-6.132444105,1.223325038));
#539=CARTESIAN_POINT('',(-5.074885913,-6.132444105,1.404038222));
#540=CARTESIAN_POINT('',(-4.894172728,-6.132444105,1.674494616));
#541=CARTESIAN_POINT('',(-4.830714697,-6.132444105,1.993519684));
#542=CARTESIAN_POINT('',(-4.894172728,-6.132444105,2.312544751));
#543=CARTESIAN_POINT('',(-5.074885913,-6.132444105,2.583001145));
#544=CARTESIAN_POINT('',(-5.345342306,-6.132444105,2.763714329));
#545=CARTESIAN_POINT('',(-5.664367374,-6.132444105,2.827172361));
#546=CARTESIAN_POINT('',(-5.983392442,-6.132444105,2.763714329));
#547=CARTESIAN_POINT('',(-6.253848835,-6.132444105,2.583001145));
#548=CARTESIAN_POINT('',(-6.43456202,-6.132444105,2.312544751));
#549=CARTESIAN_POINT('',(-6.476867374,-6.132444105,2.099861373));
#550=CARTESIAN_POINT('',(-6.476867374,-6.132444105,1.993519684));
#551=CARTESIAN_POINT('',(-6.464367374,-6.178277439,1.993519684));
#552=CARTESIAN_POINT('',(-6.464367374,-6.178277439,1.88881402));
#553=CARTESIAN_POINT('',(-6.422712871,-6.178277439,1.679402694));
#554=CARTESIAN_POINT('',(-6.24477989,-6.178277439,1.413107168));
#555=CARTESIAN_POINT('',(-5.978484364,-6.178277439,1.235174186));
#556=CARTESIAN_POINT('',(-5.664367374,-6.178277439,1.172692432));
#557=CARTESIAN_POINT('',(-5.350250384,-6.178277439,1.235174186));
#558=CARTESIAN_POINT('',(-5.083954858,-6.178277439,1.413107168));
#559=CARTESIAN_POINT('',(-4.906021877,-6.178277439,1.679402694));
#560=CARTESIAN_POINT('',(-4.843540123,-6.178277439,1.993519684));
#561=CARTESIAN_POINT('',(-4.906021877,-6.178277439,2.307636674));
#562=CARTESIAN_POINT('',(-5.083954858,-6.178277439,2.573932199));
#563=CARTESIAN_POINT('',(-5.350250384,-6.178277439,2.751865181));
#564=CARTESIAN_POINT('',(-5.664367374,-6.178277439,2.814346935));
#565=CARTESIAN_POINT('',(-5.978484364,-6.178277439,2.751865181));
#566=CARTESIAN_POINT('',(-6.24477989,-6.178277439,2.573932199));
#567=CARTESIAN_POINT('',(-6.422712871,-6.178277439,2.307636674));
#568=CARTESIAN_POINT('',(-6.464367374,-6.178277439,2.098225347));
#569=CARTESIAN_POINT('',(-6.464367374,-6.178277439,1.993519684));
#570=CARTESIAN_POINT('',(-6.464367374,-6.197027439,1.993519684));
#571=CARTESIAN_POINT('',(-6.464367374,-6.197027439,1.88881402));
#572=CARTESIAN_POINT('',(-6.422712871,-6.197027439,1.679402694));
#573=CARTESIAN_POINT('',(-6.24477989,-6.197027439,1.413107168));
#574=CARTESIAN_POINT('',(-5.978484364,-6.197027439,1.235174186));
#575=CARTESIAN_POINT('',(-5.664367374,-6.197027439,1.172692432));
#576=CARTESIAN_POINT('',(-5.350250384,-6.197027439,1.235174186));
#577=CARTESIAN_POINT('',(-5.083954858,-6.197027439,1.413107168));
#578=CARTESIAN_POINT('',(-4.906021877,-6.197027439,1.679402694));
#579=CARTESIAN_POINT('',(-4.843540123,-6.197027439,1.993519684));
#580=CARTESIAN_POINT('',(-4.906021877,-6.197027439,2.307636674));
#581=CARTESIAN_POINT('',(-5.083954858,-6.197027439,2.573932199));
#582=CARTESIAN_POINT('',(-5.350250384,-6.197027439,2.751865181));
#583=CARTESIAN_POINT('',(-5.664367374,-6.197027439,2.814346935));
#584=CARTESIAN_POINT('',(-5.978484364,-6.197027439,2.751865181));
#585=CARTESIAN_POINT('',(-6.24477989,-6.197027439,2.573932199));
#586=CARTESIAN_POINT('',(-6.422712871,-6.197027439,2.307636674));
#587=CARTESIAN_POINT('',(-6.464367374,-6.197027439,2.098225347));
#588=CARTESIAN_POINT('',(-6.464367374,-6.197027439,1.993519684));
#589=CARTESIAN_POINT('',(-6.464367374,-6.215777439,1.993519684));
#590=CARTESIAN_POINT('',(-6.464367374,-6.215777439,1.88881402));
#591=CARTESIAN_POINT('',(-6.422712871,-6.215777439,1.679402694));
#592=CARTESIAN_POINT('',(-6.24477989,-6.215777439,1.413107168));
#593=CARTESIAN_POINT('',(-5.978484364,-6.215777439,1.235174186));
#594=CARTESIAN_POINT('',(-5.664367374,-6.215777439,1.172692432));
#595=CARTESIAN_POINT('',(-5.350250384,-6.215777439,1.235174186));
#596=CARTESIAN_POINT('',(-5.083954858,-6.215777439,1.413107168));
#597=CARTESIAN_POINT('',(-4.906021877,-6.215777439,1.679402694));
#598=CARTESIAN_POINT('',(-4.843540123,-6.215777439,1.993519684));
#599=CARTESIAN_POINT('',(-4.906021877,-6.215777439,2.307636674));
#600=CARTESIAN_POINT('',(-5.083954858,-6.215777439,2.573932199));
#601=CARTESIAN_POINT('',(-5.350250384,-6.215777439,2.751865181));
#602=CARTESIAN_POINT('',(-5.664367374,-6.215777439,2.814346935));
#603=CARTESIAN_POINT('',(-5.978484364,-6.215777439,2.751865181));
#604=CARTESIAN_POINT('',(-6.24477989,-6.215777439,2.573932199));
#605=CARTESIAN_POINT('',(-6.422712871,-6.215777439,2.307636674));
#606=CARTESIAN_POINT('',(-6.464367374,-6.215777439,2.098225347));
#607=CARTESIAN_POINT('',(-6.464367374,-6.215777439,1.993519684));
#608=B_SPLINE_SURFACE_WITH_KNOTS('',5,3,((#456,#457,#458,#459,#460,#461,#462,#463,#464,#465,#466,#467,#468,#469,#470,#471,#472,#473,#474),(#475,#476,#477,#478,#479,#480,#481,#482,#483,#484,#485,#486,#487,#488,#489,#490,#491,#492,#493),(#494,#495,#496,#497,#498,#499,#500,#501,#502,#503,#504,#505,#506,#507,#508,#509,#510,#511,#512),(#513,#514,#515,#516,#517,#518,#519,#520,#521,#522,#523,#524,#525,#526,#527,#528,#529,#530,#531),(#532,#533,#534,#535,#536,#537,#538,#539,#540,#541,#542,#543,#544,#545,#546,#547,#548,#549,#550),(#551,#552,#553,#554,#555,#556,#557,#558,#559,#560,#561,#562,#563,#564,#565,#566,#567,#568,#569),(#570,#571,#572,#573,#574,#575,#576,#577,#578,#579,#580,#581,#582,#583,#584,#585,#586,#587,#588),(#589,#590,#591,#592,#593,#594,#595,#596,#597,#598,#599,#600,#601,#602,#603,#604,#605,#606,#607)),.UNSPECIFIED.,.F.,.T.,.U.,(6,2,6),(4,1,1,1,1,1,1,1,1,1,1,1,1,1,1,1,4),(0.,0.5,1.),(3.141592654,3.534291735,3.926990817,4.319689899,4.71238898,5.105088062,5.497787144,5.890486225,6.283185307,6.675884389,7.068583471,7.461282552,7.853981634,8.246680716,8.639379797,9.032078879,9.424777961),.UNSPECIFIED.);
#609=ORIENTED_EDGE('',*,*,#50,.F.);
#610=EDGE_LOOP('',(#609));
#611=FACE_BOUND('',#610,.T.);
#612=CARTESIAN_POINT('',(-6.589367374,-6.090777439,1.993519684));
#613=VERTEX_POINT('',#612);
#614=CARTESIAN_POINT('',(-6.589367374,-6.090777439,1.993519684));
#615=CARTESIAN_POINT('',(-6.589367374,-6.090777439,1.87245376));
#616=CARTESIAN_POINT('',(-6.565285865,-6.090777439,1.751387837));
#617=CARTESIAN_POINT('',(-6.518955941,-6.090777439,1.639537509));
#618=CARTESIAN_POINT('',(-6.472626018,-6.090777439,1.52768718));
#619=CARTESIAN_POINT('',(-6.404047682,-6.090777439,1.425052446));
#620=CARTESIAN_POINT('',(-6.318441147,-6.090777439,1.339445911));
#621=CARTESIAN_POINT('',(-6.232834611,-6.090777439,1.253839376));
#622=CARTESIAN_POINT('',(-6.130199877,-6.090777439,1.185261039));
#623=CARTESIAN_POINT('',(-6.018349549,-6.090777439,1.138931116));
#624=CARTESIAN_POINT('',(-5.90649922,-6.090777439,1.092601193));
#625=CARTESIAN_POINT('',(-5.785433297,-6.090777439,1.068519684));
#626=CARTESIAN_POINT('',(-5.664367374,-6.090777439,1.068519684));
#627=CARTESIAN_POINT('',(-5.543301451,-6.090777439,1.068519684));
#628=CARTESIAN_POINT('',(-5.422235527,-6.090777439,1.092601193));
#629=CARTESIAN_POINT('',(-5.310385199,-6.090777439,1.138931116));
#630=CARTESIAN_POINT('',(-5.19853487,-6.090777439,1.185261039));
#631=CARTESIAN_POINT('',(-5.095900137,-6.090777439,1.253839376));
#632=CARTESIAN_POINT('',(-5.010293601,-6.090777439,1.339445911));
#633=CARTESIAN_POINT('',(-4.924687066,-6.090777439,1.425052446));
#634=CARTESIAN_POINT('',(-4.856108729,-6.090777439,1.52768718));
#635=CARTESIAN_POINT('',(-4.809778806,-6.090777439,1.639537509));
#636=CARTESIAN_POINT('',(-4.763448883,-6.090777439,1.751387837));
#637=CARTESIAN_POINT('',(-4.739367374,-6.090777439,1.87245376));
#638=CARTESIAN_POINT('',(-4.739367374,-6.090777439,1.993519684));
#639=CARTESIAN_POINT('',(-4.739367374,-6.090777439,2.114585607));
#640=CARTESIAN_POINT('',(-4.763448883,-6.090777439,2.23565153));
#641=CARTESIAN_POINT('',(-4.809778806,-6.090777439,2.347501859));
#642=CARTESIAN_POINT('',(-4.856108729,-6.090777439,2.459352187));
#643=CARTESIAN_POINT('',(-4.924687066,-6.090777439,2.561986921));
#644=CARTESIAN_POINT('',(-5.010293601,-6.090777439,2.647593456));
#645=CARTESIAN_POINT('',(-5.095900137,-6.090777439,2.733199991));
#646=CARTESIAN_POINT('',(-5.19853487,-6.090777439,2.801778328));
#647=CARTESIAN_POINT('',(-5.310385199,-6.090777439,2.848108251));
#648=CARTESIAN_POINT('',(-5.422235527,-6.090777439,2.894438174));
#649=CARTESIAN_POINT('',(-5.543301451,-6.090777439,2.918519684));
#650=CARTESIAN_POINT('',(-5.664367374,-6.090777439,2.918519684));
#651=CARTESIAN_POINT('',(-5.785433297,-6.090777439,2.918519684));
#652=CARTESIAN_POINT('',(-5.90649922,-6.090777439,2.894438174));
#653=CARTESIAN_POINT('',(-6.018349549,-6.090777439,2.848108251));
#654=CARTESIAN_POINT('',(-6.130199877,-6.090777439,2.801778328));
#655=CARTESIAN_POINT('',(-6.232834611,-6.090777439,2.733199991));
#656=CARTESIAN_POINT('',(-6.318441147,-6.090777439,2.647593456));
#657=CARTESIAN_POINT('',(-6.404047682,-6.090777439,2.561986921));
#658=CARTESIAN_POINT('',(-6.472626018,-6.090777439,2.459352187));
#659=CARTESIAN_POINT('',(-6.518955941,-6.090777439,2.347501859));
#660=CARTESIAN_POINT('',(-6.565285865,-6.090777439,2.23565153));
#661=CARTESIAN_POINT('',(-6.589367374,-6.090777439,2.114585607));
#662=CARTESIAN_POINT('',(-6.589367374,-6.090777439,1.993519684));
#663=B_SPLINE_CURVE_WITH_KNOTS('',3,(#614,#615,#616,#617,#618,#619,#620,#621,#622,#623,#624,#625,#626,#627,#628,#629,#630,#631,#632,#633,#634,#635,#636,#637,#638,#639,
#640,#641,#642,#643,#644,#645,#646,#647,#648,#649,#650,#651,#652,#653,#654,#655,#656,#657,#658,#659,#660,#661,#662),.UNSPECIFIED.,.T.,.F.,(4,3,3,3,3,3,3,3,3,3,3,3,3,3,3,3,4),(0.,0.0625,0.125,0.1875,0.25,0.3125,0.375,0.4375,0.5,0.5625,0.625,0.6875,0.75,0.8125,0.875,0.9375,1.),.UNSPECIFIED.);
#664=EDGE_CURVE('',#613,#613,#663,.T.);
#665=ORIENTED_EDGE('',*,*,#664,.F.);
#666=EDGE_LOOP('',(#665));
#667=FACE_BOUND('',#666,.T.);
#668=ADVANCED_FACE('',(#611,#667),#608,.T.);
#669=CARTESIAN_POINT('',(-6.714367374,-6.215777439,1.993519684));
#670=CARTESIAN_POINT('',(-6.714367374,-6.215777439,1.8560935));
#671=CARTESIAN_POINT('',(-6.659695839,-6.215777439,1.581241134));
#672=CARTESIAN_POINT('',(-6.426158801,-6.215777439,1.231728257));
#673=CARTESIAN_POINT('',(-6.076645923,-6.215777439,0.998191218));
#674=CARTESIAN_POINT('',(-5.664367374,-6.215777439,0.916183916));
#675=CARTESIAN_POINT('',(-5.252088825,-6.215777439,0.998191218));
#676=CARTESIAN_POINT('',(-4.902575947,-6.215777439,1.231728257));
#677=CARTESIAN_POINT('',(-4.669038909,-6.215777439,1.581241134));
#678=CARTESIAN_POINT('',(-4.587031606,-6.215777439,1.993519684));
#679=CARTESIAN_POINT('',(-4.669038909,-6.215777439,2.405798233));
#680=CARTESIAN_POINT('',(-4.902575947,-6.215777439,2.75531111));
#681=CARTESIAN_POINT('',(-5.252088825,-6.215777439,2.988848149));
#682=CARTESIAN_POINT('',(-5.664367374,-6.215777439,3.070855451));
#683=CARTESIAN_POINT('',(-6.076645923,-6.215777439,2.988848149));
#684=CARTESIAN_POINT('',(-6.426158801,-6.215777439,2.75531111));
#685=CARTESIAN_POINT('',(-6.659695839,-6.215777439,2.405798233));
#686=CARTESIAN_POINT('',(-6.714367374,-6.215777439,2.130945867));
#687=CARTESIAN_POINT('',(-6.714367374,-6.215777439,1.993519684));
#688=CARTESIAN_POINT('',(-6.714367374,-6.197027439,1.993519684));
#689=CARTESIAN_POINT('',(-6.714367374,-6.197027439,1.8560935));
#690=CARTESIAN_POINT('',(-6.659695839,-6.197027439,1.581241134));
#691=CARTESIAN_POINT('',(-6.426158801,-6.197027439,1.231728257));
#692=CARTESIAN_POINT('',(-6.076645923,-6.197027439,0.998191218));
#693=CARTESIAN_POINT('',(-5.664367374,-6.197027439,0.916183916));
#694=CARTESIAN_POINT('',(-5.252088825,-6.197027439,0.998191218));
#695=CARTESIAN_POINT('',(-4.902575947,-6.197027439,1.231728257));
#696=CARTESIAN_POINT('',(-4.669038909,-6.197027439,1.581241134));
#697=CARTESIAN_POINT('',(-4.587031606,-6.197027439,1.993519684));
#698=CARTESIAN_POINT('',(-4.669038909,-6.197027439,2.405798233));
#699=CARTESIAN_POINT('',(-4.902575947,-6.197027439,2.75531111));
#700=CARTESIAN_POINT('',(-5.252088825,-6.197027439,2.988848149));
#701=CARTESIAN_POINT('',(-5.664367374,-6.197027439,3.070855451));
#702=CARTESIAN_POINT('',(-6.076645923,-6.197027439,2.988848149));
#703=CARTESIAN_POINT('',(-6.426158801,-6.197027439,2.75531111));
#704=CARTESIAN_POINT('',(-6.659695839,-6.197027439,2.405798233));
#705=CARTESIAN_POINT('',(-6.714367374,-6.197027439,2.130945867));
#706=CARTESIAN_POINT('',(-6.714367374,-6.197027439,1.993519684));
#707=CARTESIAN_POINT('',(-6.714367374,-6.178277439,1.993519684));
#708=CARTESIAN_POINT('',(-6.714367374,-6.178277439,1.8560935));
#709=CARTESIAN_POINT('',(-6.659695839,-6.178277439,1.581241134));
#710=CARTESIAN_POINT('',(-6.426158801,-6.178277439,1.231728257));
#711=CARTESIAN_POINT('',(-6.076645923,-6.178277439,0.998191218));
#712=CARTESIAN_POINT('',(-5.664367374,-6.178277439,0.916183916));
#713=CARTESIAN_POINT('',(-5.252088825,-6.178277439,0.998191218));
#714=CARTESIAN_POINT('',(-4.902575947,-6.178277439,1.231728257));
#715=CARTESIAN_POINT('',(-4.669038909,-6.178277439,1.581241134));
#716=CARTESIAN_POINT('',(-4.587031606,-6.178277439,1.993519684));
#717=CARTESIAN_POINT('',(-4.669038909,-6.178277439,2.405798233));
#718=CARTESIAN_POINT('',(-4.902575947,-6.178277439,2.75531111));
#719=CARTESIAN_POINT('',(-5.252088825,-6.178277439,2.988848149));
#720=CARTESIAN_POINT('',(-5.664367374,-6.178277439,3.070855451));
#721=CARTESIAN_POINT('',(-6.076645923,-6.178277439,2.988848149));
#722=CARTESIAN_POINT('',(-6.426158801,-6.178277439,2.75531111));
#723=CARTESIAN_POINT('',(-6.659695839,-6.178277439,2.405798233));
#724=CARTESIAN_POINT('',(-6.714367374,-6.178277439,2.130945867));
#725=CARTESIAN_POINT('',(-6.714367374,-6.178277439,1.993519684));
#726=CARTESIAN_POINT('',(-6.701867374,-6.132444105,1.993519684));
#727=CARTESIAN_POINT('',(-6.701867374,-6.132444105,1.857729526));
#728=CARTESIAN_POINT('',(-6.647846691,-6.132444105,1.586149212));
#729=CARTESIAN_POINT('',(-6.417089855,-6.132444105,1.240797202));
#730=CARTESIAN_POINT('',(-6.071737845,-6.132444105,1.010040367));
#731=CARTESIAN_POINT('',(-5.664367374,-6.132444105,0.929009342));
#732=CARTESIAN_POINT('',(-5.256996903,-6.132444105,1.010040367));
#733=CARTESIAN_POINT('',(-4.911644893,-6.132444105,1.240797202));
#734=CARTESIAN_POINT('',(-4.680888057,-6.132444105,1.586149212));
#735=CARTESIAN_POINT('',(-4.599857032,-6.132444105,1.993519684));
#736=CARTESIAN_POINT('',(-4.680888057,-6.132444105,2.400890155));
#737=CARTESIAN_POINT('',(-4.911644893,-6.132444105,2.746242165));
#738=CARTESIAN_POINT('',(-5.256996903,-6.132444105,2.976999));
#739=CARTESIAN_POINT('',(-5.664367374,-6.132444105,3.058030025));
#740=CARTESIAN_POINT('',(-6.071737845,-6.132444105,2.976999));
#741=CARTESIAN_POINT('',(-6.417089855,-6.132444105,2.746242165));
#742=CARTESIAN_POINT('',(-6.647846691,-6.132444105,2.400890155));
#743=CARTESIAN_POINT('',(-6.701867374,-6.132444105,2.129309841));
#744=CARTESIAN_POINT('',(-6.701867374,-6.132444105,1.993519684));
#745=CARTESIAN_POINT('',(-6.672700707,-6.103277439,1.993519684));
#746=CARTESIAN_POINT('',(-6.672700707,-6.103277439,1.86154692));
#747=CARTESIAN_POINT('',(-6.620198678,-6.103277439,1.597601394));
#748=CARTESIAN_POINT('',(-6.395928982,-6.103277439,1.261958075));
#749=CARTESIAN_POINT('',(-6.060285663,-6.103277439,1.03768838));
#750=CARTESIAN_POINT('',(-5.664367374,-6.103277439,0.958935335));
#751=CARTESIAN_POINT('',(-5.268449085,-6.103277439,1.03768838));
#752=CARTESIAN_POINT('',(-4.932805766,-6.103277439,1.261958075));
#753=CARTESIAN_POINT('',(-4.70853607,-6.103277439,1.597601394));
#754=CARTESIAN_POINT('',(-4.629783026,-6.103277439,1.993519684));
#755=CARTESIAN_POINT('',(-4.70853607,-6.103277439,2.389437973));
#756=CARTESIAN_POINT('',(-4.932805766,-6.103277439,2.725081292));
#757=CARTESIAN_POINT('',(-5.268449085,-6.103277439,2.949350987));
#758=CARTESIAN_POINT('',(-5.664367374,-6.103277439,3.028104032));
#759=CARTESIAN_POINT('',(-6.060285663,-6.103277439,2.949350987));
#760=CARTESIAN_POINT('',(-6.395928982,-6.103277439,2.725081292));
#761=CARTESIAN_POINT('',(-6.620198678,-6.103277439,2.389437973));
#762=CARTESIAN_POINT('',(-6.672700707,-6.103277439,2.125492447));
#763=CARTESIAN_POINT('',(-6.672700707,-6.103277439,1.993519684));
#764=CARTESIAN_POINT('',(-6.626867374,-6.090777439,1.993519684));
#765=CARTESIAN_POINT('',(-6.626867374,-6.090777439,1.867545682));
#766=CARTESIAN_POINT('',(-6.5767518,-6.090777439,1.61559768));
#767=CARTESIAN_POINT('',(-6.362676182,-6.090777439,1.295210876));
#768=CARTESIAN_POINT('',(-6.042289377,-6.090777439,1.081135257));
#769=CARTESIAN_POINT('',(-5.664367374,-6.090777439,1.005961897));
#770=CARTESIAN_POINT('',(-5.28644537,-6.090777439,1.081135257));
#771=CARTESIAN_POINT('',(-4.966058566,-6.090777439,1.295210876));
#772=CARTESIAN_POINT('',(-4.751982948,-6.090777439,1.61559768));
#773=CARTESIAN_POINT('',(-4.676809587,-6.090777439,1.993519684));
#774=CARTESIAN_POINT('',(-4.751982948,-6.090777439,2.371441687));
#775=CARTESIAN_POINT('',(-4.966058566,-6.090777439,2.691828491));
#776=CARTESIAN_POINT('',(-5.28644537,-6.090777439,2.90590411));
#777=CARTESIAN_POINT('',(-5.664367374,-6.090777439,2.98107747));
#778=CARTESIAN_POINT('',(-6.042289377,-6.090777439,2.90590411));
#779=CARTESIAN_POINT('',(-6.362676182,-6.090777439,2.691828491));
#780=CARTESIAN_POINT('',(-6.5767518,-6.090777439,2.371441687));
#781=CARTESIAN_POINT('',(-6.626867374,-6.090777439,2.119493685));
#782=CARTESIAN_POINT('',(-6.626867374,-6.090777439,1.993519684));
#783=CARTESIAN_POINT('',(-6.608117374,-6.090777439,1.993519684));
#784=CARTESIAN_POINT('',(-6.608117374,-6.090777439,1.869999721));
#785=CARTESIAN_POINT('',(-6.558978078,-6.090777439,1.622959797));
#786=CARTESIAN_POINT('',(-6.349072763,-6.090777439,1.308814294));
#787=CARTESIAN_POINT('',(-6.03492726,-6.090777439,1.09890898));
#788=CARTESIAN_POINT('',(-5.664367374,-6.090777439,1.025200035));
#789=CARTESIAN_POINT('',(-5.293807487,-6.090777439,1.09890898));
#790=CARTESIAN_POINT('',(-4.979661984,-6.090777439,1.308814294));
#791=CARTESIAN_POINT('',(-4.76975667,-6.090777439,1.622959797));
#792=CARTESIAN_POINT('',(-4.696047726,-6.090777439,1.993519684));
#793=CARTESIAN_POINT('',(-4.76975667,-6.090777439,2.36407957));
#794=CARTESIAN_POINT('',(-4.979661984,-6.090777439,2.678225073));
#795=CARTESIAN_POINT('',(-5.293807487,-6.090777439,2.888130387));
#796=CARTESIAN_POINT('',(-5.664367374,-6.090777439,2.961839332));
#797=CARTESIAN_POINT('',(-6.03492726,-6.090777439,2.888130387));
#798=CARTESIAN_POINT('',(-6.349072763,-6.090777439,2.678225073));
#799=CARTESIAN_POINT('',(-6.558978078,-6.090777439,2.36407957));
#800=CARTESIAN_POINT('',(-6.608117374,-6.090777439,2.117039646));
#801=CARTESIAN_POINT('',(-6.608117374,-6.090777439,1.993519684));
#802=CARTESIAN_POINT('',(-6.589367374,-6.090777439,1.993519684));
#803=CARTESIAN_POINT('',(-6.589367374,-6.090777439,1.87245376));
#804=CARTESIAN_POINT('',(-6.541204355,-6.090777439,1.630321914));
#805=CARTESIAN_POINT('',(-6.335469345,-6.090777439,1.322417712));
#806=CARTESIAN_POINT('',(-6.027565144,-6.090777439,1.116682702));
#807=CARTESIAN_POINT('',(-5.664367374,-6.090777439,1.044438174));
#808=CARTESIAN_POINT('',(-5.301169604,-6.090777439,1.116682702));
#809=CARTESIAN_POINT('',(-4.993265403,-6.090777439,1.322417712));
#810=CARTESIAN_POINT('',(-4.787530393,-6.090777439,1.630321914));
#811=CARTESIAN_POINT('',(-4.715285865,-6.090777439,1.993519684));
#812=CARTESIAN_POINT('',(-4.787530393,-6.090777439,2.356717453));
#813=CARTESIAN_POINT('',(-4.993265403,-6.090777439,2.664621655));
#814=CARTESIAN_POINT('',(-5.301169604,-6.090777439,2.870356665));
#815=CARTESIAN_POINT('',(-5.664367374,-6.090777439,2.942601193));
#816=CARTESIAN_POINT('',(-6.027565144,-6.090777439,2.870356665));
#817=CARTESIAN_POINT('',(-6.335469345,-6.090777439,2.664621655));
#818=CARTESIAN_POINT('',(-6.541204355,-6.090777439,2.356717453));
#819=CARTESIAN_POINT('',(-6.589367374,-6.090777439,2.114585607));
#820=CARTESIAN_POINT('',(-6.589367374,-6.090777439,1.993519684));
#821=B_SPLINE_SURFACE_WITH_KNOTS('',5,3,((#669,#670,#671,#672,#673,#674,#675,#676,#677,#678,#679,#680,#681,#682,#683,#684,#685,#686,#687),(#688,#689,#690,#691,#692,#693,#694,#695,#696,#697,#698,#699,#700,#701,#702,#703,#704,#705,#706),(#707,#708,#709,#710,#711,#712,#713,#714,#715,#716,#717,#718,#719,#720,#721,#722,#723,#724,#725),(#726,#727,#728,#729,#730,#731,#732,#733,#734,#735,#736,#737,#738,#739,#740,#741,#742,#743,#744),(#745,#746,#747,#748,#749,#750,#751,#752,#753,#754,#755,#756,#757,#758,#759,#760,#761,#762,#763),(#764,#765,#766,#767,#768,#769,#770,#771,#772,#773,#774,#775,#776,#777,#778,#779,#780,#781,#782),(#783,#784,#785,#786,#787,#788,#789,#790,#791,#792,#793,#794,#795,#796,#797,#798,#799,#800,#801),(#802,#803,#804,#805,#806,#807,#808,#809,#810,#811,#812,#813,#814,#815,#816,#817,#818,#819,#820)),.UNSPECIFIED.,.F.,.T.,.U.,(6,2,6),(4,1,1,1,1,1,1,1,1,1,1,1,1,1,1,1,4),(0.,0.5,1.),(3.141592654,3.534291735,3.926990817,4.319689899,4.71238898,5.105088062,5.497787144,5.890486225,6.283185307,6.675884389,7.068583471,7.461282552,7.853981634,8.246680716,8.639379797,9.032078879,9.424777961),.UNSPECIFIED.);
#822=ORIENTED_EDGE('',*,*,#664,.T.);
#823=EDGE_LOOP('',(#822));
#824=FACE_BOUND('',#823,.T.);
#825=ORIENTED_EDGE('',*,*,#78,.F.);
#826=EDGE_LOOP('',(#825));
#827=FACE_BOUND('',#826,.T.);
#828=ADVANCED_FACE('',(#824,#827),#821,.T.);
#829=CLOSED_SHELL('',(#54,#82,#295,#455,#668,#828));
#830=MANIFOLD_SOLID_BREP('1.2*0.4',#829);
#831=COLOUR_RGB('',0.627451003,0.627451003,0.643137276);
#832=FILL_AREA_STYLE_COLOUR('',#831);
#833=FILL_AREA_STYLE('',(#832));
#834=SURFACE_STYLE_FILL_AREA(#833);
#835=SURFACE_SIDE_STYLE('',(#834));
#836=SURFACE_STYLE_USAGE(.BOTH.,#835);
#837=PRESENTATION_STYLE_ASSIGNMENT((#836));
#26=STYLED_ITEM('',(#837),#830);
#16=SHAPE_REPRESENTATION('1.2*0.4',(#15),#10);
#17=ADVANCED_BREP_SHAPE_REPRESENTATION('1.2*0.4',(#830),#10);
#845=SHAPE_REPRESENTATION_RELATIONSHIP('','',#16,#17);
#846=CARTESIAN_POINT('',(0.,0.,0.));
#847=DIRECTION('',(0.,0.,1.));
#848=DIRECTION('',(1.,0.,0.));
#849=AXIS2_PLACEMENT_3D('',#846,#847,#848);
#851=MAPPED_ITEM('',#850,#849);
#850=REPRESENTATION_MAP(#849,#16);
#852=APPLICATION_CONTEXT('Managed model based 3d engineering');
#853=APPLICATION_PROTOCOL_DEFINITION('international standard','ap242_managed_model_based_3d_engineering',2014,#852);
#854=PRODUCT_CONTEXT('',#852,'mechanical');
#855=PRODUCT_DEFINITION_CONTEXT('part definition',#852,'design');
#24=PRODUCT('1.2*0.4','1.2*0.4','',(#854));
#856=PRODUCT_RELATED_PRODUCT_CATEGORY('part','',(#24));
#857=PRODUCT_DEFINITION_FORMATION_WITH_SPECIFIED_SOURCE('','',#24,.NOT_KNOWN.);
#25=PRODUCT_DEFINITION('design','',#857,#855);
#23=PRODUCT_DEFINITION_SHAPE('','',#25);
#858=SHAPE_DEFINITION_REPRESENTATION(#23,#16);
#11=DRAUGHTING_MODEL('',(#851),#10);
#859=DESCRIPTIVE_REPRESENTATION_ITEM('KEY','C:\\Users\\Nalani\\AppData\\Local\\Packages\\Shapr3D.Shapr3D_j403pzjkqtqbj\\TempState\\a1437cfe-89ba-4533-8e71-0bc0eda7d160.tmp');
#860=PROPERTY_DEFINITION('KEY','',#25);
#861=REPRESENTATION('',(#859),#10);
#862=PROPERTY_DEFINITION_REPRESENTATION(#860,#861);
#863=GENERAL_PROPERTY('','KEY','');
#864=GENERAL_PROPERTY_ASSOCIATION('','',#863,#860);
#1=MECHANICAL_DESIGN_GEOMETRIC_PRESENTATION_REPRESENTATION('',(#26),#10);
ENDSEC;
END-ISO-10303-21;
