ISO-10303-21;
HEADER;

/* File generated by Shapr3D Version 26.123.11423.0 */

FILE_DESCRIPTION(('HOOPS Exchange Step'),'2;1');

FILE_NAME('C:\\Users\\Nalani\\AppData\\Local\\Packages\\Shapr3D.Shapr3D_j403pzjkqtqbj\\TempState\\export\\temp_export',
'2026-08-03T16:12:13+08:00',
('Nalani'),
('Shapr3D Limited'),
'HOOPS Exchange 2026.3',
'Shapr3D',
'Authorized');

FILE_SCHEMA( ('AP242_MANAGED_MODEL_BASED_3D_ENGINEERING_MIM_LF {1 0 10303 442 1 1 4}') );

ENDSEC;

DATA;
#3=(NAMED_UNIT(*)PLANE_ANGLE_UNIT()SI_UNIT($,.RADIAN.));
#4=PLANE_ANGLE_MEASURE_WITH_UNIT(PLANE_ANGLE_MEASURE(0.0174532925),#3);
#5=(CONVERSION_BASED_UNIT('DEGREE',#4)NAMED_UNIT(#6)PLANE_ANGLE_UNIT());
#6=DIMENSIONAL_EXPONENTS(0.,0.,0.,0.,0.,0.,0.);
#7=(NAMED_UNIT(*)SI_UNIT($,.STERADIAN.)SOLID_ANGLE_UNIT());
#8=(LENGTH_UNIT()NAMED_UNIT(*)SI_UNIT(.MILLI.,.METRE.));
#9=UNCERTAINTY_MEASURE_WITH_UNIT(LENGTH_MEASURE(1.000000E-05),#8,'DISTANCE_ACCURACY_VALUE','Maximum Tolerance applied to model');
#10=(GEOMETRIC_REPRESENTATION_CONTEXT(3)GLOBAL_UNCERTAINTY_ASSIGNED_CONTEXT((#9))GLOBAL_UNIT_ASSIGNED_CONTEXT((#8,#5,#7))REPRESENTATION_CONTEXT('','1.2*0.4'));
#12=CARTESIAN_POINT('',(0.,0.,0.));
#13=DIRECTION('',(0.,0.,1.));
#14=DIRECTION('',(1.,0.,0.));
#15=AXIS2_PLACEMENT_3D('',#12,#13,#14);
#27=CARTESIAN_POINT('',(-7.7,0.,3.8));
#28=DIRECTION('',(0.,0.,-1.));
#29=DIRECTION('',(-1.,0.,0.));
#30=AXIS2_PLACEMENT_3D('',#27,#28,#29);
#31=CYLINDRICAL_SURFACE('',#30,0.8);
#32=CARTESIAN_POINT('',(-8.5,0.,3.675));
#33=VERTEX_POINT('',#32);
#34=CARTESIAN_POINT('',(-7.7,0.,3.675));
#35=DIRECTION('',(-0.,-0.,1.));
#36=DIRECTION('',(-1.,0.,0.));
#37=AXIS2_PLACEMENT_3D('',#34,#35,#36);
#38=CIRCLE('',#37,0.8);
#39=EDGE_CURVE('',#33,#33,#38,.T.);
#40=ORIENTED_EDGE('',*,*,#39,.T.);
#41=EDGE_LOOP('',(#40));
#42=FACE_BOUND('',#41,.T.);
#43=CARTESIAN_POINT('',(-8.5,0.,3.625));
#44=VERTEX_POINT('',#43);
#45=CARTESIAN_POINT('',(-7.7,0.,3.625));
#46=DIRECTION('',(0.,0.,-1.));
#47=DIRECTION('',(-1.,0.,0.));
#48=AXIS2_PLACEMENT_3D('',#45,#46,#47);
#49=CIRCLE('',#48,0.8);
#50=EDGE_CURVE('',#44,#44,#49,.T.);
#51=ORIENTED_EDGE('',*,*,#50,.T.);
#52=EDGE_LOOP('',(#51));
#53=FACE_BOUND('',#52,.T.);
#54=ADVANCED_FACE('',(#42,#53),#31,.F.);
#55=CARTESIAN_POINT('',(-7.7,-0.,3.8));
#56=DIRECTION('',(0.,0.,-1.));
#57=DIRECTION('',(-1.,0.,0.));
#58=AXIS2_PLACEMENT_3D('',#55,#56,#57);
#59=CYLINDRICAL_SURFACE('',#58,1.05);
#60=CARTESIAN_POINT('',(-8.75,0.,3.675));
#61=VERTEX_POINT('',#60);
#62=CARTESIAN_POINT('',(-7.7,-0.,3.675));
#63=DIRECTION('',(0.,0.,-1.));
#64=DIRECTION('',(-1.,0.,0.));
#65=AXIS2_PLACEMENT_3D('',#62,#63,#64);
#66=CIRCLE('',#65,1.05);
#67=EDGE_CURVE('',#61,#61,#66,.T.);
#68=ORIENTED_EDGE('',*,*,#67,.T.);
#69=EDGE_LOOP('',(#68));
#70=FACE_BOUND('',#69,.T.);
#71=CARTESIAN_POINT('',(-8.75,0.,3.625));
#72=VERTEX_POINT('',#71);
#73=CARTESIAN_POINT('',(-7.7,-0.,3.625));
#74=DIRECTION('',(-0.,-0.,1.));
#75=DIRECTION('',(-1.,0.,0.));
#76=AXIS2_PLACEMENT_3D('',#73,#74,#75);
#77=CIRCLE('',#76,1.05);
#78=EDGE_CURVE('',#72,#72,#77,.T.);
#79=ORIENTED_EDGE('',*,*,#78,.T.);
#80=EDGE_LOOP('',(#79));
#81=FACE_BOUND('',#80,.T.);
#82=ADVANCED_FACE('',(#70,#81),#59,.T.);
#83=CARTESIAN_POINT('',(-8.5,0.,3.675));
#84=CARTESIAN_POINT('',(-8.5,-0.104705663,3.675));
#85=CARTESIAN_POINT('',(-8.458345497,-0.31411699,3.675));
#86=CARTESIAN_POINT('',(-8.280412516,-0.580412516,3.675));
#87=CARTESIAN_POINT('',(-8.01411699,-0.758345497,3.675));
#88=CARTESIAN_POINT('',(-7.7,-0.820827251,3.675));
#89=CARTESIAN_POINT('',(-7.38588301,-0.758345497,3.675));
#90=CARTESIAN_POINT('',(-7.119587484,-0.580412516,3.675));
#91=CARTESIAN_POINT('',(-6.941654503,-0.31411699,3.675));
#92=CARTESIAN_POINT('',(-6.879172749,0.,3.675));
#93=CARTESIAN_POINT('',(-6.941654503,0.31411699,3.675));
#94=CARTESIAN_POINT('',(-7.119587484,0.580412516,3.675));
#95=CARTESIAN_POINT('',(-7.38588301,0.758345497,3.675));
#96=CARTESIAN_POINT('',(-7.7,0.820827251,3.675));
#97=CARTESIAN_POINT('',(-8.01411699,0.758345497,3.675));
#98=CARTESIAN_POINT('',(-8.280412516,0.580412516,3.675));
#99=CARTESIAN_POINT('',(-8.458345497,0.31411699,3.675));
#100=CARTESIAN_POINT('',(-8.5,0.104705663,3.675));
#101=CARTESIAN_POINT('',(-8.5,0.,3.675));
#102=CARTESIAN_POINT('',(-8.5,0.,3.69375));
#103=CARTESIAN_POINT('',(-8.5,-0.104705663,3.69375));
#104=CARTESIAN_POINT('',(-8.458345497,-0.31411699,3.69375));
#105=CARTESIAN_POINT('',(-8.280412516,-0.580412516,3.69375));
#106=CARTESIAN_POINT('',(-8.01411699,-0.758345497,3.69375));
#107=CARTESIAN_POINT('',(-7.7,-0.820827251,3.69375));
#108=CARTESIAN_POINT('',(-7.38588301,-0.758345497,3.69375));
#109=CARTESIAN_POINT('',(-7.119587484,-0.580412516,3.69375));
#110=CARTESIAN_POINT('',(-6.941654503,-0.31411699,3.69375));
#111=CARTESIAN_POINT('',(-6.879172749,0.,3.69375));
#112=CARTESIAN_POINT('',(-6.941654503,0.31411699,3.69375));
#113=CARTESIAN_POINT('',(-7.119587484,0.580412516,3.69375));
#114=CARTESIAN_POINT('',(-7.38588301,0.758345497,3.69375));
#115=CARTESIAN_POINT('',(-7.7,0.820827251,3.69375));
#116=CARTESIAN_POINT('',(-8.01411699,0.758345497,3.69375));
#117=CARTESIAN_POINT('',(-8.280412516,0.580412516,3.69375));
#118=CARTESIAN_POINT('',(-8.458345497,0.31411699,3.69375));
#119=CARTESIAN_POINT('',(-8.5,0.104705663,3.69375));
#120=CARTESIAN_POINT('',(-8.5,0.,3.69375));
#121=CARTESIAN_POINT('',(-8.5,0.,3.7125));
#122=CARTESIAN_POINT('',(-8.5,-0.104705663,3.7125));
#123=CARTESIAN_POINT('',(-8.458345497,-0.31411699,3.7125));
#124=CARTESIAN_POINT('',(-8.280412516,-0.580412516,3.7125));
#125=CARTESIAN_POINT('',(-8.01411699,-0.758345497,3.7125));
#126=CARTESIAN_POINT('',(-7.7,-0.820827251,3.7125));
#127=CARTESIAN_POINT('',(-7.38588301,-0.758345497,3.7125));
#128=CARTESIAN_POINT('',(-7.119587484,-0.580412516,3.7125));
#129=CARTESIAN_POINT('',(-6.941654503,-0.31411699,3.7125));
#130=CARTESIAN_POINT('',(-6.879172749,0.,3.7125));
#131=CARTESIAN_POINT('',(-6.941654503,0.31411699,3.7125));
#132=CARTESIAN_POINT('',(-7.119587484,0.580412516,3.7125));
#133=CARTESIAN_POINT('',(-7.38588301,0.758345497,3.7125));
#134=CARTESIAN_POINT('',(-7.7,0.820827251,3.7125));
#135=CARTESIAN_POINT('',(-8.01411699,0.758345497,3.7125));
#136=CARTESIAN_POINT('',(-8.280412516,0.580412516,3.7125));
#137=CARTESIAN_POINT('',(-8.458345497,0.31411699,3.7125));
#138=CARTESIAN_POINT('',(-8.5,0.104705663,3.7125));
#139=CARTESIAN_POINT('',(-8.5,0.,3.7125));
#140=CARTESIAN_POINT('',(-8.5125,0.,3.758333333));
#141=CARTESIAN_POINT('',(-8.5125,-0.106341689,3.758333333));
#142=CARTESIAN_POINT('',(-8.470194646,-0.319025068,3.758333333));
#143=CARTESIAN_POINT('',(-8.289481461,-0.589481461,3.758333333));
#144=CARTESIAN_POINT('',(-8.019025068,-0.770194646,3.758333333));
#145=CARTESIAN_POINT('',(-7.7,-0.833652677,3.758333333));
#146=CARTESIAN_POINT('',(-7.380974932,-0.770194646,3.758333333));
#147=CARTESIAN_POINT('',(-7.110518539,-0.589481461,3.758333333));
#148=CARTESIAN_POINT('',(-6.929805354,-0.319025068,3.758333333));
#149=CARTESIAN_POINT('',(-6.866347323,0.,3.758333333));
#150=CARTESIAN_POINT('',(-6.929805354,0.319025068,3.758333333));
#151=CARTESIAN_POINT('',(-7.110518539,0.589481461,3.758333333));
#152=CARTESIAN_POINT('',(-7.380974932,0.770194646,3.758333333));
#153=CARTESIAN_POINT('',(-7.7,0.833652677,3.758333333));
#154=CARTESIAN_POINT('',(-8.019025068,0.770194646,3.758333333));
#155=CARTESIAN_POINT('',(-8.289481461,0.589481461,3.758333333));
#156=CARTESIAN_POINT('',(-8.470194646,0.319025068,3.758333333));
#157=CARTESIAN_POINT('',(-8.5125,0.106341689,3.758333333));
#158=CARTESIAN_POINT('',(-8.5125,0.,3.758333333));
#159=CARTESIAN_POINT('',(-8.541666667,0.,3.7875));
#160=CARTESIAN_POINT('',(-8.541666667,-0.110159083,3.7875));
#161=CARTESIAN_POINT('',(-8.497842659,-0.33047725,3.7875));
#162=CARTESIAN_POINT('',(-8.310642334,-0.610642334,3.7875));
#163=CARTESIAN_POINT('',(-8.03047725,-0.797842659,3.7875));
#164=CARTESIAN_POINT('',(-7.7,-0.863578671,3.7875));
#165=CARTESIAN_POINT('',(-7.36952275,-0.797842659,3.7875));
#166=CARTESIAN_POINT('',(-7.089357666,-0.610642334,3.7875));
#167=CARTESIAN_POINT('',(-6.902157341,-0.33047725,3.7875));
#168=CARTESIAN_POINT('',(-6.836421329,0.,3.7875));
#169=CARTESIAN_POINT('',(-6.902157341,0.33047725,3.7875));
#170=CARTESIAN_POINT('',(-7.089357666,0.610642334,3.7875));
#171=CARTESIAN_POINT('',(-7.36952275,0.797842659,3.7875));
#172=CARTESIAN_POINT('',(-7.7,0.863578671,3.7875));
#173=CARTESIAN_POINT('',(-8.03047725,0.797842659,3.7875));
#174=CARTESIAN_POINT('',(-8.310642334,0.610642334,3.7875));
#175=CARTESIAN_POINT('',(-8.497842659,0.33047725,3.7875));
#176=CARTESIAN_POINT('',(-8.541666667,0.110159083,3.7875));
#177=CARTESIAN_POINT('',(-8.541666667,0.,3.7875));
#178=CARTESIAN_POINT('',(-8.5875,0.,3.8));
#179=CARTESIAN_POINT('',(-8.5875,-0.116157845,3.8));
#180=CARTESIAN_POINT('',(-8.541289536,-0.348473536,3.8));
#181=CARTESIAN_POINT('',(-8.343895135,-0.643895135,3.8));
#182=CARTESIAN_POINT('',(-8.048473536,-0.841289536,3.8));
#183=CARTESIAN_POINT('',(-7.7,-0.910605232,3.8));
#184=CARTESIAN_POINT('',(-7.351526464,-0.841289536,3.8));
#185=CARTESIAN_POINT('',(-7.056104865,-0.643895135,3.8));
#186=CARTESIAN_POINT('',(-6.858710464,-0.348473536,3.8));
#187=CARTESIAN_POINT('',(-6.789394768,0.,3.8));
#188=CARTESIAN_POINT('',(-6.858710464,0.348473536,3.8));
#189=CARTESIAN_POINT('',(-7.056104865,0.643895135,3.8));
#190=CARTESIAN_POINT('',(-7.351526464,0.841289536,3.8));
#191=CARTESIAN_POINT('',(-7.7,0.910605232,3.8));
#192=CARTESIAN_POINT('',(-8.048473536,0.841289536,3.8));
#193=CARTESIAN_POINT('',(-8.343895135,0.643895135,3.8));
#194=CARTESIAN_POINT('',(-8.541289536,0.348473536,3.8));
#195=CARTESIAN_POINT('',(-8.5875,0.116157845,3.8));
#196=CARTESIAN_POINT('',(-8.5875,0.,3.8));
#197=CARTESIAN_POINT('',(-8.60625,0.,3.8));
#198=CARTESIAN_POINT('',(-8.60625,-0.118611884,3.8));
#199=CARTESIAN_POINT('',(-8.559063259,-0.355835653,3.8));
#200=CARTESIAN_POINT('',(-8.357498553,-0.657498553,3.8));
#201=CARTESIAN_POINT('',(-8.055835653,-0.859063259,3.8));
#202=CARTESIAN_POINT('',(-7.7,-0.929843371,3.8));
#203=CARTESIAN_POINT('',(-7.344164347,-0.859063259,3.8));
#204=CARTESIAN_POINT('',(-7.042501447,-0.657498553,3.8));
#205=CARTESIAN_POINT('',(-6.840936741,-0.355835653,3.8));
#206=CARTESIAN_POINT('',(-6.770156629,0.,3.8));
#207=CARTESIAN_POINT('',(-6.840936741,0.355835653,3.8));
#208=CARTESIAN_POINT('',(-7.042501447,0.657498553,3.8));
#209=CARTESIAN_POINT('',(-7.344164347,0.859063259,3.8));
#210=CARTESIAN_POINT('',(-7.7,0.929843371,3.8));
#211=CARTESIAN_POINT('',(-8.055835653,0.859063259,3.8));
#212=CARTESIAN_POINT('',(-8.357498553,0.657498553,3.8));
#213=CARTESIAN_POINT('',(-8.559063259,0.355835653,3.8));
#214=CARTESIAN_POINT('',(-8.60625,0.118611884,3.8));
#215=CARTESIAN_POINT('',(-8.60625,0.,3.8));
#216=CARTESIAN_POINT('',(-8.625,0.,3.8));
#217=CARTESIAN_POINT('',(-8.625,-0.121065923,3.8));
#218=CARTESIAN_POINT('',(-8.576836981,-0.36319777,3.8));
#219=CARTESIAN_POINT('',(-8.371101971,-0.671101971,3.8));
#220=CARTESIAN_POINT('',(-8.06319777,-0.876836981,3.8));
#221=CARTESIAN_POINT('',(-7.7,-0.949081509,3.8));
#222=CARTESIAN_POINT('',(-7.33680223,-0.876836981,3.8));
#223=CARTESIAN_POINT('',(-7.028898029,-0.671101971,3.8));
#224=CARTESIAN_POINT('',(-6.823163019,-0.36319777,3.8));
#225=CARTESIAN_POINT('',(-6.750918491,0.,3.8));
#226=CARTESIAN_POINT('',(-6.823163019,0.36319777,3.8));
#227=CARTESIAN_POINT('',(-7.028898029,0.671101971,3.8));
#228=CARTESIAN_POINT('',(-7.33680223,0.876836981,3.8));
#229=CARTESIAN_POINT('',(-7.7,0.949081509,3.8));
#230=CARTESIAN_POINT('',(-8.06319777,0.876836981,3.8));
#231=CARTESIAN_POINT('',(-8.371101971,0.671101971,3.8));
#232=CARTESIAN_POINT('',(-8.576836981,0.36319777,3.8));
#233=CARTESIAN_POINT('',(-8.625,0.121065923,3.8));
#234=CARTESIAN_POINT('',(-8.625,0.,3.8));
#235=B_SPLINE_SURFACE_WITH_KNOTS('',5,3,((#83,#84,#85,#86,#87,#88,#89,#90,#91,#92,#93,#94,#95,#96,#97,#98,#99,#100,#101),(#102,#103,#104,#105,#106,#107,#108,#109,#110,#111,#112,#113,#114,#115,#116,#117,#118,#119,#120),(#121,#122,#123,#124,#125,#126,#127,#128,#129,#130,#131,#132,#133,#134,#135,#136,#137,#138,#139),(#140,#141,#142,#143,#144,#145,#146,#147,#148,#149,#150,#151,#152,#153,#154,#155,#156,#157,#158),(#159,#160,#161,#162,#163,#164,#165,#166,#167,#168,#169,#170,#171,#172,#173,#174,#175,#176,#177),(#178,#179,#180,#181,#182,#183,#184,#185,#186,#187,#188,#189,#190,#191,#192,#193,#194,#195,#196),(#197,#198,#199,#200,#201,#202,#203,#204,#205,#206,#207,#208,#209,#210,#211,#212,#213,#214,#215),(#216,#217,#218,#219,#220,#221,#222,#223,#224,#225,#226,#227,#228,#229,#230,#231,#232,#233,#234)),.UNSPECIFIED.,.F.,.T.,.U.,(6,2,6),(4,1,1,1,1,1,1,1,1,1,1,1,1,1,1,1,4),(0.,0.5,1.),(3.141592654,3.534291735,3.926990817,4.319689899,4.71238898,5.105088062,5.497787144,5.890486225,6.283185307,6.675884389,7.068583471,7.461282552,7.853981634,8.246680716,8.639379797,9.032078879,9.424777961),.UNSPECIFIED.);
#236=ORIENTED_EDGE('',*,*,#39,.F.);
#237=EDGE_LOOP('',(#236));
#238=FACE_BOUND('',#237,.T.);
#239=CARTESIAN_POINT('',(-8.625,0.,3.8));
#240=VERTEX_POINT('',#239);
#241=CARTESIAN_POINT('',(-8.625,0.,3.8));
#242=CARTESIAN_POINT('',(-8.625,0.121065923,3.8));
#243=CARTESIAN_POINT('',(-8.600918491,0.242131846,3.8));
#244=CARTESIAN_POINT('',(-8.554588568,0.353982175,3.8));
#245=CARTESIAN_POINT('',(-8.508258645,0.465832503,3.8));
#246=CARTESIAN_POINT('',(-8.439680308,0.568467237,3.8));
#247=CARTESIAN_POINT('',(-8.354073773,0.654073773,3.8));
#248=CARTESIAN_POINT('',(-8.268467237,0.739680308,3.8));
#249=CARTESIAN_POINT('',(-8.165832503,0.808258645,3.8));
#250=CARTESIAN_POINT('',(-8.053982175,0.854588568,3.8));
#251=CARTESIAN_POINT('',(-7.942131846,0.900918491,3.8));
#252=CARTESIAN_POINT('',(-7.821065923,0.925,3.8));
#253=CARTESIAN_POINT('',(-7.7,0.925,3.8));
#254=CARTESIAN_POINT('',(-7.578934077,0.925,3.8));
#255=CARTESIAN_POINT('',(-7.457868154,0.900918491,3.8));
#256=CARTESIAN_POINT('',(-7.346017825,0.854588568,3.8));
#257=CARTESIAN_POINT('',(-7.234167497,0.808258645,3.8));
#258=CARTESIAN_POINT('',(-7.131532763,0.739680308,3.8));
#259=CARTESIAN_POINT('',(-7.045926227,0.654073773,3.8));
#260=CARTESIAN_POINT('',(-6.960319692,0.568467237,3.8));
#261=CARTESIAN_POINT('',(-6.891741355,0.465832503,3.8));
#262=CARTESIAN_POINT('',(-6.845411432,0.353982175,3.8));
#263=CARTESIAN_POINT('',(-6.799081509,0.242131846,3.8));
#264=CARTESIAN_POINT('',(-6.775,0.121065923,3.8));
#265=CARTESIAN_POINT('',(-6.775,0.,3.8));
#266=CARTESIAN_POINT('',(-6.775,-0.121065923,3.8));
#267=CARTESIAN_POINT('',(-6.799081509,-0.242131846,3.8));
#268=CARTESIAN_POINT('',(-6.845411432,-0.353982175,3.8));
#269=CARTESIAN_POINT('',(-6.891741355,-0.465832503,3.8));
#270=CARTESIAN_POINT('',(-6.960319692,-0.568467237,3.8));
#271=CARTESIAN_POINT('',(-7.045926227,-0.654073773,3.8));
#272=CARTESIAN_POINT('',(-7.131532763,-0.739680308,3.8));
#273=CARTESIAN_POINT('',(-7.234167497,-0.808258645,3.8));
#274=CARTESIAN_POINT('',(-7.346017825,-0.854588568,3.8));
#275=CARTESIAN_POINT('',(-7.457868154,-0.900918491,3.8));
#276=CARTESIAN_POINT('',(-7.578934077,-0.925,3.8));
#277=CARTESIAN_POINT('',(-7.7,-0.925,3.8));
#278=CARTESIAN_POINT('',(-7.821065923,-0.925,3.8));
#279=CARTESIAN_POINT('',(-7.942131846,-0.900918491,3.8));
#280=CARTESIAN_POINT('',(-8.053982175,-0.854588568,3.8));
#281=CARTESIAN_POINT('',(-8.165832503,-0.808258645,3.8));
#282=CARTESIAN_POINT('',(-8.268467237,-0.739680308,3.8));
#283=CARTESIAN_POINT('',(-8.354073773,-0.654073773,3.8));
#284=CARTESIAN_POINT('',(-8.439680308,-0.568467237,3.8));
#285=CARTESIAN_POINT('',(-8.508258645,-0.465832503,3.8));
#286=CARTESIAN_POINT('',(-8.554588568,-0.353982175,3.8));
#287=CARTESIAN_POINT('',(-8.600918491,-0.242131846,3.8));
#288=CARTESIAN_POINT('',(-8.625,-0.121065923,3.8));
#289=CARTESIAN_POINT('',(-8.625,0.,3.8));
#290=B_SPLINE_CURVE_WITH_KNOTS('',3,(#241,#242,#243,#244,#245,#246,#247,#248,#249,#250,#251,#252,#253,#254,#255,#256,#257,#258,#259,#260,#261,#262,#263,#264,#265,#266,
#267,#268,#269,#270,#271,#272,#273,#274,#275,#276,#277,#278,#279,#280,#281,#282,#283,#284,#285,#286,#287,#288,#289),.UNSPECIFIED.,.T.,.F.,(4,3,3,3,3,3,3,3,3,3,3,3,3,3,3,3,4),(0.,0.0625,0.125,0.1875,0.25,0.3125,0.375,0.4375,0.5,0.5625,0.625,0.6875,0.75,0.8125,0.875,0.9375,1.),.UNSPECIFIED.);
#291=EDGE_CURVE('',#240,#240,#290,.T.);
#292=ORIENTED_EDGE('',*,*,#291,.F.);
#293=EDGE_LOOP('',(#292));
#294=FACE_BOUND('',#293,.T.);
#295=ADVANCED_FACE('',(#238,#294),#235,.T.);
#296=CARTESIAN_POINT('',(-8.625,0.,3.8));
#297=CARTESIAN_POINT('',(-8.625,-0.121065923,3.8));
#298=CARTESIAN_POINT('',(-8.576836981,-0.36319777,3.8));
#299=CARTESIAN_POINT('',(-8.371101971,-0.671101971,3.8));
#300=CARTESIAN_POINT('',(-8.06319777,-0.876836981,3.8));
#301=CARTESIAN_POINT('',(-7.7,-0.949081509,3.8));
#302=CARTESIAN_POINT('',(-7.33680223,-0.876836981,3.8));
#303=CARTESIAN_POINT('',(-7.028898029,-0.671101971,3.8));
#304=CARTESIAN_POINT('',(-6.823163019,-0.36319777,3.8));
#305=CARTESIAN_POINT('',(-6.750918491,0.,3.8));
#306=CARTESIAN_POINT('',(-6.823163019,0.36319777,3.8));
#307=CARTESIAN_POINT('',(-7.028898029,0.671101971,3.8));
#308=CARTESIAN_POINT('',(-7.33680223,0.876836981,3.8));
#309=CARTESIAN_POINT('',(-7.7,0.949081509,3.8));
#310=CARTESIAN_POINT('',(-8.06319777,0.876836981,3.8));
#311=CARTESIAN_POINT('',(-8.371101971,0.671101971,3.8));
#312=CARTESIAN_POINT('',(-8.576836981,0.36319777,3.8));
#313=CARTESIAN_POINT('',(-8.625,0.121065923,3.8));
#314=CARTESIAN_POINT('',(-8.625,0.,3.8));
#315=CARTESIAN_POINT('',(-8.64375,0.,3.8));
#316=CARTESIAN_POINT('',(-8.64375,-0.123519962,3.8));
#317=CARTESIAN_POINT('',(-8.594610704,-0.370559887,3.8));
#318=CARTESIAN_POINT('',(-8.38470539,-0.68470539,3.8));
#319=CARTESIAN_POINT('',(-8.070559887,-0.894610704,3.8));
#320=CARTESIAN_POINT('',(-7.7,-0.968319648,3.8));
#321=CARTESIAN_POINT('',(-7.329440113,-0.894610704,3.8));
#322=CARTESIAN_POINT('',(-7.01529461,-0.68470539,3.8));
#323=CARTESIAN_POINT('',(-6.805389296,-0.370559887,3.8));
#324=CARTESIAN_POINT('',(-6.731680352,0.,3.8));
#325=CARTESIAN_POINT('',(-6.805389296,0.370559887,3.8));
#326=CARTESIAN_POINT('',(-7.01529461,0.68470539,3.8));
#327=CARTESIAN_POINT('',(-7.329440113,0.894610704,3.8));
#328=CARTESIAN_POINT('',(-7.7,0.968319648,3.8));
#329=CARTESIAN_POINT('',(-8.070559887,0.894610704,3.8));
#330=CARTESIAN_POINT('',(-8.38470539,0.68470539,3.8));
#331=CARTESIAN_POINT('',(-8.594610704,0.370559887,3.8));
#332=CARTESIAN_POINT('',(-8.64375,0.123519962,3.8));
#333=CARTESIAN_POINT('',(-8.64375,0.,3.8));
#334=CARTESIAN_POINT('',(-8.6625,0.,3.8));
#335=CARTESIAN_POINT('',(-8.6625,-0.125974001,3.8));
#336=CARTESIAN_POINT('',(-8.612384426,-0.377922004,3.8));
#337=CARTESIAN_POINT('',(-8.398308808,-0.698308808,3.8));
#338=CARTESIAN_POINT('',(-8.077922004,-0.912384426,3.8));
#339=CARTESIAN_POINT('',(-7.7,-0.987557787,3.8));
#340=CARTESIAN_POINT('',(-7.322077996,-0.912384426,3.8));
#341=CARTESIAN_POINT('',(-7.001691192,-0.698308808,3.8));
#342=CARTESIAN_POINT('',(-6.787615574,-0.377922004,3.8));
#343=CARTESIAN_POINT('',(-6.712442213,0.,3.8));
#344=CARTESIAN_POINT('',(-6.787615574,0.377922004,3.8));
#345=CARTESIAN_POINT('',(-7.001691192,0.698308808,3.8));
#346=CARTESIAN_POINT('',(-7.322077996,0.912384426,3.8));
#347=CARTESIAN_POINT('',(-7.7,0.987557787,3.8));
#348=CARTESIAN_POINT('',(-8.077922004,0.912384426,3.8));
#349=CARTESIAN_POINT('',(-8.398308808,0.698308808,3.8));
#350=CARTESIAN_POINT('',(-8.612384426,0.377922004,3.8));
#351=CARTESIAN_POINT('',(-8.6625,0.125974001,3.8));
#352=CARTESIAN_POINT('',(-8.6625,0.,3.8));
#353=CARTESIAN_POINT('',(-8.708333333,0.,3.7875));
#354=CARTESIAN_POINT('',(-8.708333333,-0.131972763,3.7875));
#355=CARTESIAN_POINT('',(-8.655831304,-0.395918289,3.7875));
#356=CARTESIAN_POINT('',(-8.431561608,-0.731561608,3.7875));
#357=CARTESIAN_POINT('',(-8.095918289,-0.955831304,3.7875));
#358=CARTESIAN_POINT('',(-7.7,-1.034584348,3.7875));
#359=CARTESIAN_POINT('',(-7.304081711,-0.955831304,3.7875));
#360=CARTESIAN_POINT('',(-6.968438392,-0.731561608,3.7875));
#361=CARTESIAN_POINT('',(-6.744168696,-0.395918289,3.7875));
#362=CARTESIAN_POINT('',(-6.665415652,0.,3.7875));
#363=CARTESIAN_POINT('',(-6.744168696,0.395918289,3.7875));
#364=CARTESIAN_POINT('',(-6.968438392,0.731561608,3.7875));
#365=CARTESIAN_POINT('',(-7.304081711,0.955831304,3.7875));
#366=CARTESIAN_POINT('',(-7.7,1.034584348,3.7875));
#367=CARTESIAN_POINT('',(-8.095918289,0.955831304,3.7875));
#368=CARTESIAN_POINT('',(-8.431561608,0.731561608,3.7875));
#369=CARTESIAN_POINT('',(-8.655831304,0.395918289,3.7875));
#370=CARTESIAN_POINT('',(-8.708333333,0.131972763,3.7875));
#371=CARTESIAN_POINT('',(-8.708333333,0.,3.7875));
#372=CARTESIAN_POINT('',(-8.7375,0.,3.758333333));
#373=CARTESIAN_POINT('',(-8.7375,-0.135790157,3.758333333));
#374=CARTESIAN_POINT('',(-8.683479317,-0.407370471,3.758333333));
#375=CARTESIAN_POINT('',(-8.452722481,-0.752722481,3.758333333));
#376=CARTESIAN_POINT('',(-8.107370471,-0.983479317,3.758333333));
#377=CARTESIAN_POINT('',(-7.7,-1.064510342,3.758333333));
#378=CARTESIAN_POINT('',(-7.292629529,-0.983479317,3.758333333));
#379=CARTESIAN_POINT('',(-6.947277519,-0.752722481,3.758333333));
#380=CARTESIAN_POINT('',(-6.716520683,-0.407370471,3.758333333));
#381=CARTESIAN_POINT('',(-6.635489658,0.,3.758333333));
#382=CARTESIAN_POINT('',(-6.716520683,0.407370471,3.758333333));
#383=CARTESIAN_POINT('',(-6.947277519,0.752722481,3.758333333));
#384=CARTESIAN_POINT('',(-7.292629529,0.983479317,3.758333333));
#385=CARTESIAN_POINT('',(-7.7,1.064510342,3.758333333));
#386=CARTESIAN_POINT('',(-8.107370471,0.983479317,3.758333333));
#387=CARTESIAN_POINT('',(-8.452722481,0.752722481,3.758333333));
#388=CARTESIAN_POINT('',(-8.683479317,0.407370471,3.758333333));
#389=CARTESIAN_POINT('',(-8.7375,0.135790157,3.758333333));
#390=CARTESIAN_POINT('',(-8.7375,0.,3.758333333));
#391=CARTESIAN_POINT('',(-8.75,0.,3.7125));
#392=CARTESIAN_POINT('',(-8.75,-0.137426183,3.7125));
#393=CARTESIAN_POINT('',(-8.695328465,-0.412278549,3.7125));
#394=CARTESIAN_POINT('',(-8.461791427,-0.761791427,3.7125));
#395=CARTESIAN_POINT('',(-8.112278549,-0.995328465,3.7125));
#396=CARTESIAN_POINT('',(-7.7,-1.077335767,3.7125));
#397=CARTESIAN_POINT('',(-7.287721451,-0.995328465,3.7125));
#398=CARTESIAN_POINT('',(-6.938208573,-0.761791427,3.7125));
#399=CARTESIAN_POINT('',(-6.704671535,-0.412278549,3.7125));
#400=CARTESIAN_POINT('',(-6.622664233,0.,3.7125));
#401=CARTESIAN_POINT('',(-6.704671535,0.412278549,3.7125));
#402=CARTESIAN_POINT('',(-6.938208573,0.761791427,3.7125));
#403=CARTESIAN_POINT('',(-7.287721451,0.995328465,3.7125));
#404=CARTESIAN_POINT('',(-7.7,1.077335767,3.7125));
#405=CARTESIAN_POINT('',(-8.112278549,0.995328465,3.7125));
#406=CARTESIAN_POINT('',(-8.461791427,0.761791427,3.7125));
#407=CARTESIAN_POINT('',(-8.695328465,0.412278549,3.7125));
#408=CARTESIAN_POINT('',(-8.75,0.137426183,3.7125));
#409=CARTESIAN_POINT('',(-8.75,0.,3.7125));
#410=CARTESIAN_POINT('',(-8.75,0.,3.69375));
#411=CARTESIAN_POINT('',(-8.75,-0.137426183,3.69375));
#412=CARTESIAN_POINT('',(-8.695328465,-0.412278549,3.69375));
#413=CARTESIAN_POINT('',(-8.461791427,-0.761791427,3.69375));
#414=CARTESIAN_POINT('',(-8.112278549,-0.995328465,3.69375));
#415=CARTESIAN_POINT('',(-7.7,-1.077335767,3.69375));
#416=CARTESIAN_POINT('',(-7.287721451,-0.995328465,3.69375));
#417=CARTESIAN_POINT('',(-6.938208573,-0.761791427,3.69375));
#418=CARTESIAN_POINT('',(-6.704671535,-0.412278549,3.69375));
#419=CARTESIAN_POINT('',(-6.622664233,0.,3.69375));
#420=CARTESIAN_POINT('',(-6.704671535,0.412278549,3.69375));
#421=CARTESIAN_POINT('',(-6.938208573,0.761791427,3.69375));
#422=CARTESIAN_POINT('',(-7.287721451,0.995328465,3.69375));
#423=CARTESIAN_POINT('',(-7.7,1.077335767,3.69375));
#424=CARTESIAN_POINT('',(-8.112278549,0.995328465,3.69375));
#425=CARTESIAN_POINT('',(-8.461791427,0.761791427,3.69375));
#426=CARTESIAN_POINT('',(-8.695328465,0.412278549,3.69375));
#427=CARTESIAN_POINT('',(-8.75,0.137426183,3.69375));
#428=CARTESIAN_POINT('',(-8.75,0.,3.69375));
#429=CARTESIAN_POINT('',(-8.75,0.,3.675));
#430=CARTESIAN_POINT('',(-8.75,-0.137426183,3.675));
#431=CARTESIAN_POINT('',(-8.695328465,-0.412278549,3.675));
#432=CARTESIAN_POINT('',(-8.461791427,-0.761791427,3.675));
#433=CARTESIAN_POINT('',(-8.112278549,-0.995328465,3.675));
#434=CARTESIAN_POINT('',(-7.7,-1.077335767,3.675));
#435=CARTESIAN_POINT('',(-7.287721451,-0.995328465,3.675));
#436=CARTESIAN_POINT('',(-6.938208573,-0.761791427,3.675));
#437=CARTESIAN_POINT('',(-6.704671535,-0.412278549,3.675));
#438=CARTESIAN_POINT('',(-6.622664233,0.,3.675));
#439=CARTESIAN_POINT('',(-6.704671535,0.412278549,3.675));
#440=CARTESIAN_POINT('',(-6.938208573,0.761791427,3.675));
#441=CARTESIAN_POINT('',(-7.287721451,0.995328465,3.675));
#442=CARTESIAN_POINT('',(-7.7,1.077335767,3.675));
#443=CARTESIAN_POINT('',(-8.112278549,0.995328465,3.675));
#444=CARTESIAN_POINT('',(-8.461791427,0.761791427,3.675));
#445=CARTESIAN_POINT('',(-8.695328465,0.412278549,3.675));
#446=CARTESIAN_POINT('',(-8.75,0.137426183,3.675));
#447=CARTESIAN_POINT('',(-8.75,0.,3.675));
#448=B_SPLINE_SURFACE_WITH_KNOTS('',5,3,((#296,#297,#298,#299,#300,#301,#302,#303,#304,#305,#306,#307,#308,#309,#310,#311,#312,#313,#314),(#315,#316,#317,#318,#319,#320,#321,#322,#323,#324,#325,#326,#327,#328,#329,#330,#331,#332,#333),(#334,#335,#336,#337,#338,#339,#340,#341,#342,#343,#344,#345,#346,#347,#348,#349,#350,#351,#352),(#353,#354,#355,#356,#357,#358,#359,#360,#361,#362,#363,#364,#365,#366,#367,#368,#369,#370,#371),(#372,#373,#374,#375,#376,#377,#378,#379,#380,#381,#382,#383,#384,#385,#386,#387,#388,#389,#390),(#391,#392,#393,#394,#395,#396,#397,#398,#399,#400,#401,#402,#403,#404,#405,#406,#407,#408,#409),(#410,#411,#412,#413,#414,#415,#416,#417,#418,#419,#420,#421,#422,#423,#424,#425,#426,#427,#428),(#429,#430,#431,#432,#433,#434,#435,#436,#437,#438,#439,#440,#441,#442,#443,#444,#445,#446,#447)),.UNSPECIFIED.,.F.,.T.,.U.,(6,2,6),(4,1,1,1,1,1,1,1,1,1,1,1,1,1,1,1,4),(0.,0.5,1.),(3.141592654,3.534291735,3.926990817,4.319689899,4.71238898,5.105088062,5.497787144,5.890486225,6.283185307,6.675884389,7.068583471,7.461282552,7.853981634,8.246680716,8.639379797,9.032078879,9.424777961),.UNSPECIFIED.);
#449=ORIENTED_EDGE('',*,*,#67,.F.);
#450=EDGE_LOOP('',(#449));
#451=FACE_BOUND('',#450,.T.);
#452=ORIENTED_EDGE('',*,*,#291,.T.);
#453=EDGE_LOOP('',(#452));
#454=FACE_BOUND('',#453,.T.);
#455=ADVANCED_FACE('',(#451,#454),#448,.T.);
#456=CARTESIAN_POINT('',(-8.625,0.,3.5));
#457=CARTESIAN_POINT('',(-8.625,-0.121065923,3.5));
#458=CARTESIAN_POINT('',(-8.576836981,-0.36319777,3.5));
#459=CARTESIAN_POINT('',(-8.371101971,-0.671101971,3.5));
#460=CARTESIAN_POINT('',(-8.06319777,-0.876836981,3.5));
#461=CARTESIAN_POINT('',(-7.7,-0.949081509,3.5));
#462=CARTESIAN_POINT('',(-7.33680223,-0.876836981,3.5));
#463=CARTESIAN_POINT('',(-7.028898029,-0.671101971,3.5));
#464=CARTESIAN_POINT('',(-6.823163019,-0.36319777,3.5));
#465=CARTESIAN_POINT('',(-6.750918491,0.,3.5));
#466=CARTESIAN_POINT('',(-6.823163019,0.36319777,3.5));
#467=CARTESIAN_POINT('',(-7.028898029,0.671101971,3.5));
#468=CARTESIAN_POINT('',(-7.33680223,0.876836981,3.5));
#469=CARTESIAN_POINT('',(-7.7,0.949081509,3.5));
#470=CARTESIAN_POINT('',(-8.06319777,0.876836981,3.5));
#471=CARTESIAN_POINT('',(-8.371101971,0.671101971,3.5));
#472=CARTESIAN_POINT('',(-8.576836981,0.36319777,3.5));
#473=CARTESIAN_POINT('',(-8.625,0.121065923,3.5));
#474=CARTESIAN_POINT('',(-8.625,0.,3.5));
#475=CARTESIAN_POINT('',(-8.60625,0.,3.5));
#476=CARTESIAN_POINT('',(-8.60625,-0.118611884,3.5));
#477=CARTESIAN_POINT('',(-8.559063259,-0.355835653,3.5));
#478=CARTESIAN_POINT('',(-8.357498553,-0.657498553,3.5));
#479=CARTESIAN_POINT('',(-8.055835653,-0.859063259,3.5));
#480=CARTESIAN_POINT('',(-7.7,-0.929843371,3.5));
#481=CARTESIAN_POINT('',(-7.344164347,-0.859063259,3.5));
#482=CARTESIAN_POINT('',(-7.042501447,-0.657498553,3.5));
#483=CARTESIAN_POINT('',(-6.840936741,-0.355835653,3.5));
#484=CARTESIAN_POINT('',(-6.770156629,0.,3.5));
#485=CARTESIAN_POINT('',(-6.840936741,0.355835653,3.5));
#486=CARTESIAN_POINT('',(-7.042501447,0.657498553,3.5));
#487=CARTESIAN_POINT('',(-7.344164347,0.859063259,3.5));
#488=CARTESIAN_POINT('',(-7.7,0.929843371,3.5));
#489=CARTESIAN_POINT('',(-8.055835653,0.859063259,3.5));
#490=CARTESIAN_POINT('',(-8.357498553,0.657498553,3.5));
#491=CARTESIAN_POINT('',(-8.559063259,0.355835653,3.5));
#492=CARTESIAN_POINT('',(-8.60625,0.118611884,3.5));
#493=CARTESIAN_POINT('',(-8.60625,0.,3.5));
#494=CARTESIAN_POINT('',(-8.5875,0.,3.5));
#495=CARTESIAN_POINT('',(-8.5875,-0.116157845,3.5));
#496=CARTESIAN_POINT('',(-8.541289536,-0.348473536,3.5));
#497=CARTESIAN_POINT('',(-8.343895135,-0.643895135,3.5));
#498=CARTESIAN_POINT('',(-8.048473536,-0.841289536,3.5));
#499=CARTESIAN_POINT('',(-7.7,-0.910605232,3.5));
#500=CARTESIAN_POINT('',(-7.351526464,-0.841289536,3.5));
#501=CARTESIAN_POINT('',(-7.056104865,-0.643895135,3.5));
#502=CARTESIAN_POINT('',(-6.858710464,-0.348473536,3.5));
#503=CARTESIAN_POINT('',(-6.789394768,0.,3.5));
#504=CARTESIAN_POINT('',(-6.858710464,0.348473536,3.5));
#505=CARTESIAN_POINT('',(-7.056104865,0.643895135,3.5));
#506=CARTESIAN_POINT('',(-7.351526464,0.841289536,3.5));
#507=CARTESIAN_POINT('',(-7.7,0.910605232,3.5));
#508=CARTESIAN_POINT('',(-8.048473536,0.841289536,3.5));
#509=CARTESIAN_POINT('',(-8.343895135,0.643895135,3.5));
#510=CARTESIAN_POINT('',(-8.541289536,0.348473536,3.5));
#511=CARTESIAN_POINT('',(-8.5875,0.116157845,3.5));
#512=CARTESIAN_POINT('',(-8.5875,0.,3.5));
#513=CARTESIAN_POINT('',(-8.541666667,0.,3.5125));
#514=CARTESIAN_POINT('',(-8.541666667,-0.110159083,3.5125));
#515=CARTESIAN_POINT('',(-8.497842659,-0.33047725,3.5125));
#516=CARTESIAN_POINT('',(-8.310642334,-0.610642334,3.5125));
#517=CARTESIAN_POINT('',(-8.03047725,-0.797842659,3.5125));
#518=CARTESIAN_POINT('',(-7.7,-0.863578671,3.5125));
#519=CARTESIAN_POINT('',(-7.36952275,-0.797842659,3.5125));
#520=CARTESIAN_POINT('',(-7.089357666,-0.610642334,3.5125));
#521=CARTESIAN_POINT('',(-6.902157341,-0.33047725,3.5125));
#522=CARTESIAN_POINT('',(-6.836421329,0.,3.5125));
#523=CARTESIAN_POINT('',(-6.902157341,0.33047725,3.5125));
#524=CARTESIAN_POINT('',(-7.089357666,0.610642334,3.5125));
#525=CARTESIAN_POINT('',(-7.36952275,0.797842659,3.5125));
#526=CARTESIAN_POINT('',(-7.7,0.863578671,3.5125));
#527=CARTESIAN_POINT('',(-8.03047725,0.797842659,3.5125));
#528=CARTESIAN_POINT('',(-8.310642334,0.610642334,3.5125));
#529=CARTESIAN_POINT('',(-8.497842659,0.33047725,3.5125));
#530=CARTESIAN_POINT('',(-8.541666667,0.110159083,3.5125));
#531=CARTESIAN_POINT('',(-8.541666667,0.,3.5125));
#532=CARTESIAN_POINT('',(-8.5125,0.,3.541666667));
#533=CARTESIAN_POINT('',(-8.5125,-0.106341689,3.541666667));
#534=CARTESIAN_POINT('',(-8.470194646,-0.319025068,3.541666667));
#535=CARTESIAN_POINT('',(-8.289481461,-0.589481461,3.541666667));
#536=CARTESIAN_POINT('',(-8.019025068,-0.770194646,3.541666667));
#537=CARTESIAN_POINT('',(-7.7,-0.833652677,3.541666667));
#538=CARTESIAN_POINT('',(-7.380974932,-0.770194646,3.541666667));
#539=CARTESIAN_POINT('',(-7.110518539,-0.589481461,3.541666667));
#540=CARTESIAN_POINT('',(-6.929805354,-0.319025068,3.541666667));
#541=CARTESIAN_POINT('',(-6.866347323,0.,3.541666667));
#542=CARTESIAN_POINT('',(-6.929805354,0.319025068,3.541666667));
#543=CARTESIAN_POINT('',(-7.110518539,0.589481461,3.541666667));
#544=CARTESIAN_POINT('',(-7.380974932,0.770194646,3.541666667));
#545=CARTESIAN_POINT('',(-7.7,0.833652677,3.541666667));
#546=CARTESIAN_POINT('',(-8.019025068,0.770194646,3.541666667));
#547=CARTESIAN_POINT('',(-8.289481461,0.589481461,3.541666667));
#548=CARTESIAN_POINT('',(-8.470194646,0.319025068,3.541666667));
#549=CARTESIAN_POINT('',(-8.5125,0.106341689,3.541666667));
#550=CARTESIAN_POINT('',(-8.5125,0.,3.541666667));
#551=CARTESIAN_POINT('',(-8.5,0.,3.5875));
#552=CARTESIAN_POINT('',(-8.5,-0.104705663,3.5875));
#553=CARTESIAN_POINT('',(-8.458345497,-0.31411699,3.5875));
#554=CARTESIAN_POINT('',(-8.280412516,-0.580412516,3.5875));
#555=CARTESIAN_POINT('',(-8.01411699,-0.758345497,3.5875));
#556=CARTESIAN_POINT('',(-7.7,-0.820827251,3.5875));
#557=CARTESIAN_POINT('',(-7.38588301,-0.758345497,3.5875));
#558=CARTESIAN_POINT('',(-7.119587484,-0.580412516,3.5875));
#559=CARTESIAN_POINT('',(-6.941654503,-0.31411699,3.5875));
#560=CARTESIAN_POINT('',(-6.879172749,0.,3.5875));
#561=CARTESIAN_POINT('',(-6.941654503,0.31411699,3.5875));
#562=CARTESIAN_POINT('',(-7.119587484,0.580412516,3.5875));
#563=CARTESIAN_POINT('',(-7.38588301,0.758345497,3.5875));
#564=CARTESIAN_POINT('',(-7.7,0.820827251,3.5875));
#565=CARTESIAN_POINT('',(-8.01411699,0.758345497,3.5875));
#566=CARTESIAN_POINT('',(-8.280412516,0.580412516,3.5875));
#567=CARTESIAN_POINT('',(-8.458345497,0.31411699,3.5875));
#568=CARTESIAN_POINT('',(-8.5,0.104705663,3.5875));
#569=CARTESIAN_POINT('',(-8.5,0.,3.5875));
#570=CARTESIAN_POINT('',(-8.5,0.,3.60625));
#571=CARTESIAN_POINT('',(-8.5,-0.104705663,3.60625));
#572=CARTESIAN_POINT('',(-8.458345497,-0.31411699,3.60625));
#573=CARTESIAN_POINT('',(-8.280412516,-0.580412516,3.60625));
#574=CARTESIAN_POINT('',(-8.01411699,-0.758345497,3.60625));
#575=CARTESIAN_POINT('',(-7.7,-0.820827251,3.60625));
#576=CARTESIAN_POINT('',(-7.38588301,-0.758345497,3.60625));
#577=CARTESIAN_POINT('',(-7.119587484,-0.580412516,3.60625));
#578=CARTESIAN_POINT('',(-6.941654503,-0.31411699,3.60625));
#579=CARTESIAN_POINT('',(-6.879172749,0.,3.60625));
#580=CARTESIAN_POINT('',(-6.941654503,0.31411699,3.60625));
#581=CARTESIAN_POINT('',(-7.119587484,0.580412516,3.60625));
#582=CARTESIAN_POINT('',(-7.38588301,0.758345497,3.60625));
#583=CARTESIAN_POINT('',(-7.7,0.820827251,3.60625));
#584=CARTESIAN_POINT('',(-8.01411699,0.758345497,3.60625));
#585=CARTESIAN_POINT('',(-8.280412516,0.580412516,3.60625));
#586=CARTESIAN_POINT('',(-8.458345497,0.31411699,3.60625));
#587=CARTESIAN_POINT('',(-8.5,0.104705663,3.60625));
#588=CARTESIAN_POINT('',(-8.5,0.,3.60625));
#589=CARTESIAN_POINT('',(-8.5,0.,3.625));
#590=CARTESIAN_POINT('',(-8.5,-0.104705663,3.625));
#591=CARTESIAN_POINT('',(-8.458345497,-0.31411699,3.625));
#592=CARTESIAN_POINT('',(-8.280412516,-0.580412516,3.625));
#593=CARTESIAN_POINT('',(-8.01411699,-0.758345497,3.625));
#594=CARTESIAN_POINT('',(-7.7,-0.820827251,3.625));
#595=CARTESIAN_POINT('',(-7.38588301,-0.758345497,3.625));
#596=CARTESIAN_POINT('',(-7.119587484,-0.580412516,3.625));
#597=CARTESIAN_POINT('',(-6.941654503,-0.31411699,3.625));
#598=CARTESIAN_POINT('',(-6.879172749,0.,3.625));
#599=CARTESIAN_POINT('',(-6.941654503,0.31411699,3.625));
#600=CARTESIAN_POINT('',(-7.119587484,0.580412516,3.625));
#601=CARTESIAN_POINT('',(-7.38588301,0.758345497,3.625));
#602=CARTESIAN_POINT('',(-7.7,0.820827251,3.625));
#603=CARTESIAN_POINT('',(-8.01411699,0.758345497,3.625));
#604=CARTESIAN_POINT('',(-8.280412516,0.580412516,3.625));
#605=CARTESIAN_POINT('',(-8.458345497,0.31411699,3.625));
#606=CARTESIAN_POINT('',(-8.5,0.104705663,3.625));
#607=CARTESIAN_POINT('',(-8.5,0.,3.625));
#608=B_SPLINE_SURFACE_WITH_KNOTS('',5,3,((#456,#457,#458,#459,#460,#461,#462,#463,#464,#465,#466,#467,#468,#469,#470,#471,#472,#473,#474),(#475,#476,#477,#478,#479,#480,#481,#482,#483,#484,#485,#486,#487,#488,#489,#490,#491,#492,#493),(#494,#495,#496,#497,#498,#499,#500,#501,#502,#503,#504,#505,#506,#507,#508,#509,#510,#511,#512),(#513,#514,#515,#516,#517,#518,#519,#520,#521,#522,#523,#524,#525,#526,#527,#528,#529,#530,#531),(#532,#533,#534,#535,#536,#537,#538,#539,#540,#541,#542,#543,#544,#545,#546,#547,#548,#549,#550),(#551,#552,#553,#554,#555,#556,#557,#558,#559,#560,#561,#562,#563,#564,#565,#566,#567,#568,#569),(#570,#571,#572,#573,#574,#575,#576,#577,#578,#579,#580,#581,#582,#583,#584,#585,#586,#587,#588),(#589,#590,#591,#592,#593,#594,#595,#596,#597,#598,#599,#600,#601,#602,#603,#604,#605,#606,#607)),.UNSPECIFIED.,.F.,.T.,.U.,(6,2,6),(4,1,1,1,1,1,1,1,1,1,1,1,1,1,1,1,4),(0.,0.5,1.),(3.141592654,3.534291735,3.926990817,4.319689899,4.71238898,5.105088062,5.497787144,5.890486225,6.283185307,6.675884389,7.068583471,7.461282552,7.853981634,8.246680716,8.639379797,9.032078879,9.424777961),.UNSPECIFIED.);
#609=ORIENTED_EDGE('',*,*,#50,.F.);
#610=EDGE_LOOP('',(#609));
#611=FACE_BOUND('',#610,.T.);
#612=CARTESIAN_POINT('',(-8.625,0.,3.5));
#613=VERTEX_POINT('',#612);
#614=CARTESIAN_POINT('',(-8.625,0.,3.5));
#615=CARTESIAN_POINT('',(-8.625,-0.121065923,3.5));
#616=CARTESIAN_POINT('',(-8.600918491,-0.242131846,3.5));
#617=CARTESIAN_POINT('',(-8.554588568,-0.353982175,3.5));
#618=CARTESIAN_POINT('',(-8.508258645,-0.465832503,3.5));
#619=CARTESIAN_POINT('',(-8.439680308,-0.568467237,3.5));
#620=CARTESIAN_POINT('',(-8.354073773,-0.654073773,3.5));
#621=CARTESIAN_POINT('',(-8.268467237,-0.739680308,3.5));
#622=CARTESIAN_POINT('',(-8.165832503,-0.808258645,3.5));
#623=CARTESIAN_POINT('',(-8.053982175,-0.854588568,3.5));
#624=CARTESIAN_POINT('',(-7.942131846,-0.900918491,3.5));
#625=CARTESIAN_POINT('',(-7.821065923,-0.925,3.5));
#626=CARTESIAN_POINT('',(-7.7,-0.925,3.5));
#627=CARTESIAN_POINT('',(-7.578934077,-0.925,3.5));
#628=CARTESIAN_POINT('',(-7.457868154,-0.900918491,3.5));
#629=CARTESIAN_POINT('',(-7.346017825,-0.854588568,3.5));
#630=CARTESIAN_POINT('',(-7.234167497,-0.808258645,3.5));
#631=CARTESIAN_POINT('',(-7.131532763,-0.739680308,3.5));
#632=CARTESIAN_POINT('',(-7.045926227,-0.654073773,3.5));
#633=CARTESIAN_POINT('',(-6.960319692,-0.568467237,3.5));
#634=CARTESIAN_POINT('',(-6.891741355,-0.465832503,3.5));
#635=CARTESIAN_POINT('',(-6.845411432,-0.353982175,3.5));
#636=CARTESIAN_POINT('',(-6.799081509,-0.242131846,3.5));
#637=CARTESIAN_POINT('',(-6.775,-0.121065923,3.5));
#638=CARTESIAN_POINT('',(-6.775,0.,3.5));
#639=CARTESIAN_POINT('',(-6.775,0.121065923,3.5));
#640=CARTESIAN_POINT('',(-6.799081509,0.242131846,3.5));
#641=CARTESIAN_POINT('',(-6.845411432,0.353982175,3.5));
#642=CARTESIAN_POINT('',(-6.891741355,0.465832503,3.5));
#643=CARTESIAN_POINT('',(-6.960319692,0.568467237,3.5));
#644=CARTESIAN_POINT('',(-7.045926227,0.654073773,3.5));
#645=CARTESIAN_POINT('',(-7.131532763,0.739680308,3.5));
#646=CARTESIAN_POINT('',(-7.234167497,0.808258645,3.5));
#647=CARTESIAN_POINT('',(-7.346017825,0.854588568,3.5));
#648=CARTESIAN_POINT('',(-7.457868154,0.900918491,3.5));
#649=CARTESIAN_POINT('',(-7.578934077,0.925,3.5));
#650=CARTESIAN_POINT('',(-7.7,0.925,3.5));
#651=CARTESIAN_POINT('',(-7.821065923,0.925,3.5));
#652=CARTESIAN_POINT('',(-7.942131846,0.900918491,3.5));
#653=CARTESIAN_POINT('',(-8.053982175,0.854588568,3.5));
#654=CARTESIAN_POINT('',(-8.165832503,0.808258645,3.5));
#655=CARTESIAN_POINT('',(-8.268467237,0.739680308,3.5));
#656=CARTESIAN_POINT('',(-8.354073773,0.654073773,3.5));
#657=CARTESIAN_POINT('',(-8.439680308,0.568467237,3.5));
#658=CARTESIAN_POINT('',(-8.508258645,0.465832503,3.5));
#659=CARTESIAN_POINT('',(-8.554588568,0.353982175,3.5));
#660=CARTESIAN_POINT('',(-8.600918491,0.242131846,3.5));
#661=CARTESIAN_POINT('',(-8.625,0.121065923,3.5));
#662=CARTESIAN_POINT('',(-8.625,0.,3.5));
#663=B_SPLINE_CURVE_WITH_KNOTS('',3,(#614,#615,#616,#617,#618,#619,#620,#621,#622,#623,#624,#625,#626,#627,#628,#629,#630,#631,#632,#633,#634,#635,#636,#637,#638,#639,
#640,#641,#642,#643,#644,#645,#646,#647,#648,#649,#650,#651,#652,#653,#654,#655,#656,#657,#658,#659,#660,#661,#662),.UNSPECIFIED.,.T.,.F.,(4,3,3,3,3,3,3,3,3,3,3,3,3,3,3,3,4),(0.,0.0625,0.125,0.1875,0.25,0.3125,0.375,0.4375,0.5,0.5625,0.625,0.6875,0.75,0.8125,0.875,0.9375,1.),.UNSPECIFIED.);
#664=EDGE_CURVE('',#613,#613,#663,.T.);
#665=ORIENTED_EDGE('',*,*,#664,.F.);
#666=EDGE_LOOP('',(#665));
#667=FACE_BOUND('',#666,.T.);
#668=ADVANCED_FACE('',(#611,#667),#608,.T.);
#669=CARTESIAN_POINT('',(-8.75,0.,3.625));
#670=CARTESIAN_POINT('',(-8.75,-0.137426183,3.625));
#671=CARTESIAN_POINT('',(-8.695328465,-0.412278549,3.625));
#672=CARTESIAN_POINT('',(-8.461791427,-0.761791427,3.625));
#673=CARTESIAN_POINT('',(-8.112278549,-0.995328465,3.625));
#674=CARTESIAN_POINT('',(-7.7,-1.077335767,3.625));
#675=CARTESIAN_POINT('',(-7.287721451,-0.995328465,3.625));
#676=CARTESIAN_POINT('',(-6.938208573,-0.761791427,3.625));
#677=CARTESIAN_POINT('',(-6.704671535,-0.412278549,3.625));
#678=CARTESIAN_POINT('',(-6.622664233,0.,3.625));
#679=CARTESIAN_POINT('',(-6.704671535,0.412278549,3.625));
#680=CARTESIAN_POINT('',(-6.938208573,0.761791427,3.625));
#681=CARTESIAN_POINT('',(-7.287721451,0.995328465,3.625));
#682=CARTESIAN_POINT('',(-7.7,1.077335767,3.625));
#683=CARTESIAN_POINT('',(-8.112278549,0.995328465,3.625));
#684=CARTESIAN_POINT('',(-8.461791427,0.761791427,3.625));
#685=CARTESIAN_POINT('',(-8.695328465,0.412278549,3.625));
#686=CARTESIAN_POINT('',(-8.75,0.137426183,3.625));
#687=CARTESIAN_POINT('',(-8.75,0.,3.625));
#688=CARTESIAN_POINT('',(-8.75,0.,3.60625));
#689=CARTESIAN_POINT('',(-8.75,-0.137426183,3.60625));
#690=CARTESIAN_POINT('',(-8.695328465,-0.412278549,3.60625));
#691=CARTESIAN_POINT('',(-8.461791427,-0.761791427,3.60625));
#692=CARTESIAN_POINT('',(-8.112278549,-0.995328465,3.60625));
#693=CARTESIAN_POINT('',(-7.7,-1.077335767,3.60625));
#694=CARTESIAN_POINT('',(-7.287721451,-0.995328465,3.60625));
#695=CARTESIAN_POINT('',(-6.938208573,-0.761791427,3.60625));
#696=CARTESIAN_POINT('',(-6.704671535,-0.412278549,3.60625));
#697=CARTESIAN_POINT('',(-6.622664233,0.,3.60625));
#698=CARTESIAN_POINT('',(-6.704671535,0.412278549,3.60625));
#699=CARTESIAN_POINT('',(-6.938208573,0.761791427,3.60625));
#700=CARTESIAN_POINT('',(-7.287721451,0.995328465,3.60625));
#701=CARTESIAN_POINT('',(-7.7,1.077335767,3.60625));
#702=CARTESIAN_POINT('',(-8.112278549,0.995328465,3.60625));
#703=CARTESIAN_POINT('',(-8.461791427,0.761791427,3.60625));
#704=CARTESIAN_POINT('',(-8.695328465,0.412278549,3.60625));
#705=CARTESIAN_POINT('',(-8.75,0.137426183,3.60625));
#706=CARTESIAN_POINT('',(-8.75,0.,3.60625));
#707=CARTESIAN_POINT('',(-8.75,0.,3.5875));
#708=CARTESIAN_POINT('',(-8.75,-0.137426183,3.5875));
#709=CARTESIAN_POINT('',(-8.695328465,-0.412278549,3.5875));
#710=CARTESIAN_POINT('',(-8.461791427,-0.761791427,3.5875));
#711=CARTESIAN_POINT('',(-8.112278549,-0.995328465,3.5875));
#712=CARTESIAN_POINT('',(-7.7,-1.077335767,3.5875));
#713=CARTESIAN_POINT('',(-7.287721451,-0.995328465,3.5875));
#714=CARTESIAN_POINT('',(-6.938208573,-0.761791427,3.5875));
#715=CARTESIAN_POINT('',(-6.704671535,-0.412278549,3.5875));
#716=CARTESIAN_POINT('',(-6.622664233,0.,3.5875));
#717=CARTESIAN_POINT('',(-6.704671535,0.412278549,3.5875));
#718=CARTESIAN_POINT('',(-6.938208573,0.761791427,3.5875));
#719=CARTESIAN_POINT('',(-7.287721451,0.995328465,3.5875));
#720=CARTESIAN_POINT('',(-7.7,1.077335767,3.5875));
#721=CARTESIAN_POINT('',(-8.112278549,0.995328465,3.5875));
#722=CARTESIAN_POINT('',(-8.461791427,0.761791427,3.5875));
#723=CARTESIAN_POINT('',(-8.695328465,0.412278549,3.5875));
#724=CARTESIAN_POINT('',(-8.75,0.137426183,3.5875));
#725=CARTESIAN_POINT('',(-8.75,0.,3.5875));
#726=CARTESIAN_POINT('',(-8.7375,0.,3.541666667));
#727=CARTESIAN_POINT('',(-8.7375,-0.135790157,3.541666667));
#728=CARTESIAN_POINT('',(-8.683479317,-0.407370471,3.541666667));
#729=CARTESIAN_POINT('',(-8.452722481,-0.752722481,3.541666667));
#730=CARTESIAN_POINT('',(-8.107370471,-0.983479317,3.541666667));
#731=CARTESIAN_POINT('',(-7.7,-1.064510342,3.541666667));
#732=CARTESIAN_POINT('',(-7.292629529,-0.983479317,3.541666667));
#733=CARTESIAN_POINT('',(-6.947277519,-0.752722481,3.541666667));
#734=CARTESIAN_POINT('',(-6.716520683,-0.407370471,3.541666667));
#735=CARTESIAN_POINT('',(-6.635489658,0.,3.541666667));
#736=CARTESIAN_POINT('',(-6.716520683,0.407370471,3.541666667));
#737=CARTESIAN_POINT('',(-6.947277519,0.752722481,3.541666667));
#738=CARTESIAN_POINT('',(-7.292629529,0.983479317,3.541666667));
#739=CARTESIAN_POINT('',(-7.7,1.064510342,3.541666667));
#740=CARTESIAN_POINT('',(-8.107370471,0.983479317,3.541666667));
#741=CARTESIAN_POINT('',(-8.452722481,0.752722481,3.541666667));
#742=CARTESIAN_POINT('',(-8.683479317,0.407370471,3.541666667));
#743=CARTESIAN_POINT('',(-8.7375,0.135790157,3.541666667));
#744=CARTESIAN_POINT('',(-8.7375,0.,3.541666667));
#745=CARTESIAN_POINT('',(-8.708333333,0.,3.5125));
#746=CARTESIAN_POINT('',(-8.708333333,-0.131972763,3.5125));
#747=CARTESIAN_POINT('',(-8.655831304,-0.395918289,3.5125));
#748=CARTESIAN_POINT('',(-8.431561608,-0.731561608,3.5125));
#749=CARTESIAN_POINT('',(-8.095918289,-0.955831304,3.5125));
#750=CARTESIAN_POINT('',(-7.7,-1.034584348,3.5125));
#751=CARTESIAN_POINT('',(-7.304081711,-0.955831304,3.5125));
#752=CARTESIAN_POINT('',(-6.968438392,-0.731561608,3.5125));
#753=CARTESIAN_POINT('',(-6.744168696,-0.395918289,3.5125));
#754=CARTESIAN_POINT('',(-6.665415652,0.,3.5125));
#755=CARTESIAN_POINT('',(-6.744168696,0.395918289,3.5125));
#756=CARTESIAN_POINT('',(-6.968438392,0.731561608,3.5125));
#757=CARTESIAN_POINT('',(-7.304081711,0.955831304,3.5125));
#758=CARTESIAN_POINT('',(-7.7,1.034584348,3.5125));
#759=CARTESIAN_POINT('',(-8.095918289,0.955831304,3.5125));
#760=CARTESIAN_POINT('',(-8.431561608,0.731561608,3.5125));
#761=CARTESIAN_POINT('',(-8.655831304,0.395918289,3.5125));
#762=CARTESIAN_POINT('',(-8.708333333,0.131972763,3.5125));
#763=CARTESIAN_POINT('',(-8.708333333,0.,3.5125));
#764=CARTESIAN_POINT('',(-8.6625,0.,3.5));
#765=CARTESIAN_POINT('',(-8.6625,-0.125974001,3.5));
#766=CARTESIAN_POINT('',(-8.612384426,-0.377922004,3.5));
#767=CARTESIAN_POINT('',(-8.398308808,-0.698308808,3.5));
#768=CARTESIAN_POINT('',(-8.077922004,-0.912384426,3.5));
#769=CARTESIAN_POINT('',(-7.7,-0.987557787,3.5));
#770=CARTESIAN_POINT('',(-7.322077996,-0.912384426,3.5));
#771=CARTESIAN_POINT('',(-7.001691192,-0.698308808,3.5));
#772=CARTESIAN_POINT('',(-6.787615574,-0.377922004,3.5));
#773=CARTESIAN_POINT('',(-6.712442213,0.,3.5));
#774=CARTESIAN_POINT('',(-6.787615574,0.377922004,3.5));
#775=CARTESIAN_POINT('',(-7.001691192,0.698308808,3.5));
#776=CARTESIAN_POINT('',(-7.322077996,0.912384426,3.5));
#777=CARTESIAN_POINT('',(-7.7,0.987557787,3.5));
#778=CARTESIAN_POINT('',(-8.077922004,0.912384426,3.5));
#779=CARTESIAN_POINT('',(-8.398308808,0.698308808,3.5));
#780=CARTESIAN_POINT('',(-8.612384426,0.377922004,3.5));
#781=CARTESIAN_POINT('',(-8.6625,0.125974001,3.5));
#782=CARTESIAN_POINT('',(-8.6625,0.,3.5));
#783=CARTESIAN_POINT('',(-8.64375,0.,3.5));
#784=CARTESIAN_POINT('',(-8.64375,-0.123519962,3.5));
#785=CARTESIAN_POINT('',(-8.594610704,-0.370559887,3.5));
#786=CARTESIAN_POINT('',(-8.38470539,-0.68470539,3.5));
#787=CARTESIAN_POINT('',(-8.070559887,-0.894610704,3.5));
#788=CARTESIAN_POINT('',(-7.7,-0.968319648,3.5));
#789=CARTESIAN_POINT('',(-7.329440113,-0.894610704,3.5));
#790=CARTESIAN_POINT('',(-7.01529461,-0.68470539,3.5));
#791=CARTESIAN_POINT('',(-6.805389296,-0.370559887,3.5));
#792=CARTESIAN_POINT('',(-6.731680352,0.,3.5));
#793=CARTESIAN_POINT('',(-6.805389296,0.370559887,3.5));
#794=CARTESIAN_POINT('',(-7.01529461,0.68470539,3.5));
#795=CARTESIAN_POINT('',(-7.329440113,0.894610704,3.5));
#796=CARTESIAN_POINT('',(-7.7,0.968319648,3.5));
#797=CARTESIAN_POINT('',(-8.070559887,0.894610704,3.5));
#798=CARTESIAN_POINT('',(-8.38470539,0.68470539,3.5));
#799=CARTESIAN_POINT('',(-8.594610704,0.370559887,3.5));
#800=CARTESIAN_POINT('',(-8.64375,0.123519962,3.5));
#801=CARTESIAN_POINT('',(-8.64375,0.,3.5));
#802=CARTESIAN_POINT('',(-8.625,0.,3.5));
#803=CARTESIAN_POINT('',(-8.625,-0.121065923,3.5));
#804=CARTESIAN_POINT('',(-8.576836981,-0.36319777,3.5));
#805=CARTESIAN_POINT('',(-8.371101971,-0.671101971,3.5));
#806=CARTESIAN_POINT('',(-8.06319777,-0.876836981,3.5));
#807=CARTESIAN_POINT('',(-7.7,-0.949081509,3.5));
#808=CARTESIAN_POINT('',(-7.33680223,-0.876836981,3.5));
#809=CARTESIAN_POINT('',(-7.028898029,-0.671101971,3.5));
#810=CARTESIAN_POINT('',(-6.823163019,-0.36319777,3.5));
#811=CARTESIAN_POINT('',(-6.750918491,0.,3.5));
#812=CARTESIAN_POINT('',(-6.823163019,0.36319777,3.5));
#813=CARTESIAN_POINT('',(-7.028898029,0.671101971,3.5));
#814=CARTESIAN_POINT('',(-7.33680223,0.876836981,3.5));
#815=CARTESIAN_POINT('',(-7.7,0.949081509,3.5));
#816=CARTESIAN_POINT('',(-8.06319777,0.876836981,3.5));
#817=CARTESIAN_POINT('',(-8.371101971,0.671101971,3.5));
#818=CARTESIAN_POINT('',(-8.576836981,0.36319777,3.5));
#819=CARTESIAN_POINT('',(-8.625,0.121065923,3.5));
#820=CARTESIAN_POINT('',(-8.625,0.,3.5));
#821=B_SPLINE_SURFACE_WITH_KNOTS('',5,3,((#669,#670,#671,#672,#673,#674,#675,#676,#677,#678,#679,#680,#681,#682,#683,#684,#685,#686,#687),(#688,#689,#690,#691,#692,#693,#694,#695,#696,#697,#698,#699,#700,#701,#702,#703,#704,#705,#706),(#707,#708,#709,#710,#711,#712,#713,#714,#715,#716,#717,#718,#719,#720,#721,#722,#723,#724,#725),(#726,#727,#728,#729,#730,#731,#732,#733,#734,#735,#736,#737,#738,#739,#740,#741,#742,#743,#744),(#745,#746,#747,#748,#749,#750,#751,#752,#753,#754,#755,#756,#757,#758,#759,#760,#761,#762,#763),(#764,#765,#766,#767,#768,#769,#770,#771,#772,#773,#774,#775,#776,#777,#778,#779,#780,#781,#782),(#783,#784,#785,#786,#787,#788,#789,#790,#791,#792,#793,#794,#795,#796,#797,#798,#799,#800,#801),(#802,#803,#804,#805,#806,#807,#808,#809,#810,#811,#812,#813,#814,#815,#816,#817,#818,#819,#820)),.UNSPECIFIED.,.F.,.T.,.U.,(6,2,6),(4,1,1,1,1,1,1,1,1,1,1,1,1,1,1,1,4),(0.,0.5,1.),(3.141592654,3.534291735,3.926990817,4.319689899,4.71238898,5.105088062,5.497787144,5.890486225,6.283185307,6.675884389,7.068583471,7.461282552,7.853981634,8.246680716,8.639379797,9.032078879,9.424777961),.UNSPECIFIED.);
#822=ORIENTED_EDGE('',*,*,#664,.T.);
#823=EDGE_LOOP('',(#822));
#824=FACE_BOUND('',#823,.T.);
#825=ORIENTED_EDGE('',*,*,#78,.F.);
#826=EDGE_LOOP('',(#825));
#827=FACE_BOUND('',#826,.T.);
#828=ADVANCED_FACE('',(#824,#827),#821,.T.);
#829=CLOSED_SHELL('',(#54,#82,#295,#455,#668,#828));
#830=MANIFOLD_SOLID_BREP('1.2*0.4',#829);
#831=COLOUR_RGB('',0.419607848,0.419607848,0.419607848);
#832=FILL_AREA_STYLE_COLOUR('',#831);
#833=FILL_AREA_STYLE('',(#832));
#834=SURFACE_STYLE_FILL_AREA(#833);
#835=SURFACE_SIDE_STYLE('',(#834));
#836=SURFACE_STYLE_USAGE(.BOTH.,#835);
#837=PRESENTATION_STYLE_ASSIGNMENT((#836));
#26=STYLED_ITEM('',(#837),#830);
#16=SHAPE_REPRESENTATION('1.2*0.4',(#15),#10);
#17=ADVANCED_BREP_SHAPE_REPRESENTATION('1.2*0.4',(#830),#10);
#845=SHAPE_REPRESENTATION_RELATIONSHIP('','',#16,#17);
#846=CARTESIAN_POINT('',(0.,0.,0.));
#847=DIRECTION('',(0.,0.,1.));
#848=DIRECTION('',(1.,0.,0.));
#849=AXIS2_PLACEMENT_3D('',#846,#847,#848);
#851=MAPPED_ITEM('',#850,#849);
#850=REPRESENTATION_MAP(#849,#16);
#852=APPLICATION_CONTEXT('Managed model based 3d engineering');
#853=APPLICATION_PROTOCOL_DEFINITION('international standard','ap242_managed_model_based_3d_engineering',2014,#852);
#854=PRODUCT_CONTEXT('',#852,'mechanical');
#855=PRODUCT_DEFINITION_CONTEXT('part definition',#852,'design');
#24=PRODUCT('1.2*0.4','1.2*0.4','',(#854));
#856=PRODUCT_RELATED_PRODUCT_CATEGORY('part','',(#24));
#857=PRODUCT_DEFINITION_FORMATION_WITH_SPECIFIED_SOURCE('','',#24,.NOT_KNOWN.);
#25=PRODUCT_DEFINITION('design','',#857,#855);
#23=PRODUCT_DEFINITION_SHAPE('','',#25);
#858=SHAPE_DEFINITION_REPRESENTATION(#23,#16);
#11=DRAUGHTING_MODEL('',(#851),#10);
#859=DESCRIPTIVE_REPRESENTATION_ITEM('KEY','C:\\Users\\Nalani\\AppData\\Local\\Packages\\Shapr3D.Shapr3D_j403pzjkqtqbj\\TempState\\d6305de8-59a1-4134-a073-23fbc5131104.tmp');
#860=PROPERTY_DEFINITION('KEY','',#25);
#861=REPRESENTATION('',(#859),#10);
#862=PROPERTY_DEFINITION_REPRESENTATION(#860,#861);
#863=GENERAL_PROPERTY('','KEY','');
#864=GENERAL_PROPERTY_ASSOCIATION('','',#863,#860);
#1=MECHANICAL_DESIGN_GEOMETRIC_PRESENTATION_REPRESENTATION('',(#26),#10);
ENDSEC;
END-ISO-10303-21;
