ISO-10303-21;
HEADER;

/* File generated by Shapr3D Version 26.123.11423.0 */

FILE_DESCRIPTION(('HOOPS Exchange Step'),'2;1');

FILE_NAME('C:\\Users\\Nalani\\AppData\\Local\\Packages\\Shapr3D.Shapr3D_j403pzjkqtqbj\\TempState\\export\\temp_export',
'2026-08-03T16:12:06+08:00',
('Nalani'),
('Shapr3D Limited'),
'HOOPS Exchange 2026.3',
'Shapr3D',
'Authorized');

FILE_SCHEMA( ('AP242_MANAGED_MODEL_BASED_3D_ENGINEERING_MIM_LF {1 0 10303 442 1 1 4}') );

ENDSEC;

DATA;
#3=(NAMED_UNIT(*)PLANE_ANGLE_UNIT()SI_UNIT($,.RADIAN.));
#4=PLANE_ANGLE_MEASURE_WITH_UNIT(PLANE_ANGLE_MEASURE(0.0174532925),#3);
#5=(CONVERSION_BASED_UNIT('DEGREE',#4)NAMED_UNIT(#6)PLANE_ANGLE_UNIT());
#6=DIMENSIONAL_EXPONENTS(0.,0.,0.,0.,0.,0.,0.);
#7=(NAMED_UNIT(*)SI_UNIT($,.STERADIAN.)SOLID_ANGLE_UNIT());
#8=(LENGTH_UNIT()NAMED_UNIT(*)SI_UNIT(.MILLI.,.METRE.));
#9=UNCERTAINTY_MEASURE_WITH_UNIT(LENGTH_MEASURE(1.000000E-05),#8,'DISTANCE_ACCURACY_VALUE','Maximum Tolerance applied to model');
#10=(GEOMETRIC_REPRESENTATION_CONTEXT(3)GLOBAL_UNCERTAINTY_ASSIGNED_CONTEXT((#9))GLOBAL_UNIT_ASSIGNED_CONTEXT((#8,#5,#7))REPRESENTATION_CONTEXT('','BTN'));
#12=CARTESIAN_POINT('',(0.,0.,0.));
#13=DIRECTION('',(0.,0.,1.));
#14=DIRECTION('',(1.,0.,0.));
#15=AXIS2_PLACEMENT_3D('',#12,#13,#14);
#27=CARTESIAN_POINT('',(6.658056896,6.908090311,5.130392317));
#28=DIRECTION('',(0.,1.,-0.));
#29=DIRECTION('',(-1.,0.,-0.));
#30=AXIS2_PLACEMENT_3D('',#27,#28,#29);
#31=TOROIDAL_SURFACE('',#30,0.28,0.02);
#32=CARTESIAN_POINT('',(6.378056896,6.928090311,5.130392317));
#33=VERTEX_POINT('',#32);
#34=CARTESIAN_POINT('',(6.358056896,6.908090311,5.130392317));
#35=VERTEX_POINT('',#34);
#36=CARTESIAN_POINT('',(6.378056896,6.908090311,5.130392317));
#37=DIRECTION('',(-0.,0.,1.));
#38=DIRECTION('',(-1.,0.,-0.));
#39=AXIS2_PLACEMENT_3D('',#36,#37,#38);
#40=CIRCLE('',#39,0.02);
#41=EDGE_CURVE('',#33,#35,#40,.T.);
#42=ORIENTED_EDGE('',*,*,#41,.T.);
#43=CARTESIAN_POINT('',(6.958056896,6.908090311,5.130392317));
#44=VERTEX_POINT('',#43);
#45=CARTESIAN_POINT('',(6.658056896,6.908090311,5.130392317));
#46=DIRECTION('',(-0.,-1.,0.));
#47=DIRECTION('',(1.,-0.,0.));
#48=AXIS2_PLACEMENT_3D('',#45,#46,#47);
#49=CIRCLE('',#48,0.3);
#50=EDGE_CURVE('NONE',#44,#35,#49,.T.);
#51=ORIENTED_EDGE('',*,*,#50,.F.);
#52=CARTESIAN_POINT('',(6.658056896,6.908090311,5.130392317));
#53=DIRECTION('',(-0.,-1.,0.));
#54=DIRECTION('',(1.,-0.,0.));
#55=AXIS2_PLACEMENT_3D('',#52,#53,#54);
#56=CIRCLE('',#55,0.3);
#57=EDGE_CURVE('NONE',#35,#44,#56,.T.);
#58=ORIENTED_EDGE('',*,*,#57,.F.);
#59=ORIENTED_EDGE('',*,*,#41,.F.);
#60=CARTESIAN_POINT('',(6.658056896,6.928090311,5.130392317));
#61=DIRECTION('',(0.,1.,-0.));
#62=DIRECTION('',(-1.,0.,-0.));
#63=AXIS2_PLACEMENT_3D('',#60,#61,#62);
#64=CIRCLE('',#63,0.28);
#65=EDGE_CURVE('NONE',#33,#33,#64,.T.);
#66=ORIENTED_EDGE('',*,*,#65,.F.);
#67=EDGE_LOOP('',(#42,#51,#58,#59,#66));
#68=FACE_BOUND('',#67,.T.);
#69=ADVANCED_FACE('NONE',(#68),#31,.T.);
#70=COLOUR_RGB('',0.250980407,0.250980407,0.250980407);
#71=FILL_AREA_STYLE_COLOUR('',#70);
#72=FILL_AREA_STYLE('',(#71));
#73=SURFACE_STYLE_FILL_AREA(#72);
#74=SURFACE_SIDE_STYLE('',(#73));
#75=SURFACE_STYLE_USAGE(.BOTH.,#74);
#76=PRESENTATION_STYLE_ASSIGNMENT((#75));
#77=OVER_RIDING_STYLED_ITEM('',(#76),#69,#26);
#78=CARTESIAN_POINT('',(6.658056896,6.758090311,5.130392317));
#79=DIRECTION('',(0.,1.,-0.));
#80=DIRECTION('',(-1.,0.,-0.));
#81=AXIS2_PLACEMENT_3D('',#78,#79,#80);
#82=TOROIDAL_SURFACE('',#81,0.35,0.05);
#83=CARTESIAN_POINT('',(6.308056896,6.708090311,5.130392317));
#84=VERTEX_POINT('',#83);
#85=CARTESIAN_POINT('',(6.358056896,6.758090311,5.130392317));
#86=VERTEX_POINT('',#85);
#87=CARTESIAN_POINT('',(6.308056896,6.758090311,5.130392317));
#88=DIRECTION('',(-0.,0.,1.));
#89=DIRECTION('',(-1.,0.,-0.));
#90=AXIS2_PLACEMENT_3D('',#87,#88,#89);
#91=CIRCLE('',#90,0.05);
#92=EDGE_CURVE('',#84,#86,#91,.T.);
#93=ORIENTED_EDGE('',*,*,#92,.F.);
#94=CARTESIAN_POINT('',(6.658056896,6.708090311,5.130392317));
#95=DIRECTION('',(-0.,-1.,0.));
#96=DIRECTION('',(-1.,0.,-0.));
#97=AXIS2_PLACEMENT_3D('',#94,#95,#96);
#98=CIRCLE('',#97,0.35);
#99=EDGE_CURVE('NONE',#84,#84,#98,.T.);
#100=ORIENTED_EDGE('',*,*,#99,.F.);
#101=ORIENTED_EDGE('',*,*,#92,.T.);
#102=CARTESIAN_POINT('',(6.958056896,6.758090311,5.130392317));
#103=VERTEX_POINT('',#102);
#104=CARTESIAN_POINT('',(6.658056896,6.758090311,5.130392317));
#105=DIRECTION('',(0.,1.,-0.));
#106=DIRECTION('',(1.,-0.,0.));
#107=AXIS2_PLACEMENT_3D('',#104,#105,#106);
#108=CIRCLE('',#107,0.3);
#109=EDGE_CURVE('NONE',#103,#86,#108,.T.);
#110=ORIENTED_EDGE('',*,*,#109,.F.);
#111=CARTESIAN_POINT('',(6.658056896,6.758090311,5.130392317));
#112=DIRECTION('',(0.,1.,-0.));
#113=DIRECTION('',(1.,-0.,0.));
#114=AXIS2_PLACEMENT_3D('',#111,#112,#113);
#115=CIRCLE('',#114,0.3);
#116=EDGE_CURVE('NONE',#86,#103,#115,.T.);
#117=ORIENTED_EDGE('',*,*,#116,.F.);
#118=EDGE_LOOP('',(#93,#100,#101,#110,#117));
#119=FACE_BOUND('',#118,.T.);
#120=ADVANCED_FACE('NONE',(#119),#82,.F.);
#121=OVER_RIDING_STYLED_ITEM('',(#76),#120,#26);
#122=CARTESIAN_POINT('',(6.658056896,6.608090311,5.130392317));
#123=DIRECTION('',(-0.,-1.,0.));
#124=DIRECTION('',(1.,-0.,0.));
#125=AXIS2_PLACEMENT_3D('',#122,#123,#124);
#126=TOROIDAL_SURFACE('',#125,1.128585716,0.1);
#127=CARTESIAN_POINT('',(7.858056896,6.678090311,5.130392317));
#128=VERTEX_POINT('',#127);
#129=CARTESIAN_POINT('',(7.786642612,6.708090311,5.130392317));
#130=VERTEX_POINT('',#129);
#131=CARTESIAN_POINT('',(7.786642612,6.608090311,5.130392317));
#132=DIRECTION('',(-0.,0.,1.));
#133=DIRECTION('',(1.,-0.,0.));
#134=AXIS2_PLACEMENT_3D('',#131,#132,#133);
#135=CIRCLE('',#134,0.1);
#136=EDGE_CURVE('',#128,#130,#135,.T.);
#137=ORIENTED_EDGE('',*,*,#136,.T.);
#138=CARTESIAN_POINT('',(7.454113249,6.708090311,5.930392317));
#139=VERTEX_POINT('',#138);
#140=CARTESIAN_POINT('',(6.658056896,6.708090311,5.130392317));
#141=DIRECTION('',(0.,1.,-0.));
#142=DIRECTION('',(1.,-0.,0.));
#143=AXIS2_PLACEMENT_3D('',#140,#141,#142);
#144=CIRCLE('',#143,1.128585716);
#145=EDGE_CURVE('NONE',#139,#130,#144,.T.);
#146=ORIENTED_EDGE('',*,*,#145,.F.);
#147=CARTESIAN_POINT('',(7.552484087,6.678090311,5.930392317));
#148=VERTEX_POINT('',#147);
#149=CARTESIAN_POINT('',(7.552484087,6.678090311,5.930392317));
#150=CARTESIAN_POINT('',(7.524384095,6.699457973,5.930392317));
#151=CARTESIAN_POINT('',(7.489239016,6.708090311,5.930392317));
#152=CARTESIAN_POINT('',(7.454113249,6.708090311,5.930392317));
#153=B_SPLINE_CURVE_WITH_KNOTS('',3,(#149,#150,#151,#152),.UNSPECIFIED.,.F.,.F.,(4,4),(0.,0.000103985),.UNSPECIFIED.);
#154=EDGE_CURVE('NONE',#148,#139,#153,.T.);
#155=ORIENTED_EDGE('',*,*,#154,.F.);
#156=CARTESIAN_POINT('',(6.658056896,6.678090311,5.130392317));
#157=DIRECTION('',(0.,1.,-0.));
#158=DIRECTION('',(1.,-0.,0.));
#159=AXIS2_PLACEMENT_3D('',#156,#157,#158);
#160=CIRCLE('',#159,1.2);
#161=EDGE_CURVE('NONE',#148,#128,#160,.T.);
#162=ORIENTED_EDGE('',*,*,#161,.T.);
#163=EDGE_LOOP('',(#137,#146,#155,#162));
#164=FACE_BOUND('',#163,.T.);
#165=ADVANCED_FACE('NONE',(#164),#126,.T.);
#166=COLOUR_RGB('',0.988235295,0.737254918,0.517647088);
#167=FILL_AREA_STYLE_COLOUR('',#166);
#168=FILL_AREA_STYLE('',(#167));
#169=SURFACE_STYLE_FILL_AREA(#168);
#170=SURFACE_SIDE_STYLE('',(#169));
#171=SURFACE_STYLE_USAGE(.BOTH.,#170);
#172=PRESENTATION_STYLE_ASSIGNMENT((#171));
#173=OVER_RIDING_STYLED_ITEM('',(#172),#165,#26);
#174=CARTESIAN_POINT('',(6.658056896,6.928090311,5.130392317));
#175=DIRECTION('',(-0.,-1.,0.));
#176=DIRECTION('',(1.,-0.,0.));
#177=AXIS2_PLACEMENT_3D('',#174,#175,#176);
#178=CYLINDRICAL_SURFACE('',#177,0.3);
#179=CARTESIAN_POINT('',(6.958056896,6.758090311,5.130392317));
#180=DIRECTION('',(0.,1.,-0.));
#181=VECTOR('',#180,0.15);
#182=LINE('',#179,#181);
#183=EDGE_CURVE('',#103,#44,#182,.T.);
#184=ORIENTED_EDGE('',*,*,#183,.T.);
#185=ORIENTED_EDGE('',*,*,#50,.T.);
#186=ORIENTED_EDGE('',*,*,#57,.T.);
#187=ORIENTED_EDGE('',*,*,#183,.F.);
#188=ORIENTED_EDGE('',*,*,#109,.T.);
#189=ORIENTED_EDGE('',*,*,#116,.T.);
#190=EDGE_LOOP('',(#184,#185,#186,#187,#188,#189));
#191=FACE_BOUND('',#190,.T.);
#192=ADVANCED_FACE('NONE',(#191),#178,.T.);
#193=OVER_RIDING_STYLED_ITEM('',(#76),#192,#26);
#194=CARTESIAN_POINT('',(4.908056896,6.278090311,5.780392317));
#195=DIRECTION('',(1.,-0.,0.));
#196=DIRECTION('',(0.,-0.,-1.));
#197=AXIS2_PLACEMENT_3D('',#194,#195,#196);
#198=PLANE('',#197);
#199=CARTESIAN_POINT('',(4.908056896,6.358090311,5.680392317));
#200=VERTEX_POINT('',#199);
#201=CARTESIAN_POINT('',(4.908056896,6.358090311,5.530702681));
#202=VERTEX_POINT('',#201);
#203=CARTESIAN_POINT('',(4.908056896,6.358090311,5.680392317));
#204=DIRECTION('',(0.,-0.,-1.));
#205=VECTOR('',#204,0.149689637);
#206=LINE('',#203,#205);
#207=EDGE_CURVE('NONE',#200,#202,#206,.T.);
#208=ORIENTED_EDGE('',*,*,#207,.T.);
#209=CARTESIAN_POINT('',(4.908056896,6.278090311,5.530702681));
#210=VERTEX_POINT('',#209);
#211=CARTESIAN_POINT('',(4.908056896,6.358090311,5.530702681));
#212=DIRECTION('',(-0.,-1.,0.));
#213=VECTOR('',#212,0.08);
#214=LINE('',#211,#213);
#215=EDGE_CURVE('NONE',#202,#210,#214,.T.);
#216=ORIENTED_EDGE('',*,*,#215,.T.);
#217=CARTESIAN_POINT('',(4.908056896,6.278090311,5.680392317));
#218=VERTEX_POINT('',#217);
#219=CARTESIAN_POINT('',(4.908056896,6.278090311,5.680392317));
#220=DIRECTION('',(-0.,-0.,-1.));
#221=VECTOR('',#220,0.149689637);
#222=LINE('',#219,#221);
#223=EDGE_CURVE('NONE',#218,#210,#222,.T.);
#224=ORIENTED_EDGE('',*,*,#223,.F.);
#225=CARTESIAN_POINT('',(4.908056896,6.278090311,5.680392317));
#226=DIRECTION('',(0.,1.,-0.));
#227=VECTOR('',#226,0.08);
#228=LINE('',#225,#227);
#229=EDGE_CURVE('NONE',#218,#200,#228,.T.);
#230=ORIENTED_EDGE('',*,*,#229,.T.);
#231=EDGE_LOOP('',(#208,#216,#224,#230));
#232=FACE_BOUND('',#231,.T.);
#233=ADVANCED_FACE('NONE',(#232),#198,.F.);
#234=CARTESIAN_POINT('',(4.908056896,6.278090311,5.780392317));
#235=DIRECTION('',(1.,-0.,0.));
#236=DIRECTION('',(0.,-0.,-1.));
#237=AXIS2_PLACEMENT_3D('',#234,#235,#236);
#238=PLANE('',#237);
#239=CARTESIAN_POINT('',(4.908056896,6.278090311,4.730081954));
#240=VERTEX_POINT('',#239);
#241=CARTESIAN_POINT('',(4.908056896,6.278090311,4.580392317));
#242=VERTEX_POINT('',#241);
#243=CARTESIAN_POINT('',(4.908056896,6.278090311,4.730081954));
#244=DIRECTION('',(-0.,-0.,-1.));
#245=VECTOR('',#244,0.149689637);
#246=LINE('',#243,#245);
#247=EDGE_CURVE('NONE',#240,#242,#246,.T.);
#248=ORIENTED_EDGE('',*,*,#247,.F.);
#249=CARTESIAN_POINT('',(4.908056896,6.358090311,4.730081954));
#250=VERTEX_POINT('',#249);
#251=CARTESIAN_POINT('',(4.908056896,6.278090311,4.730081954));
#252=DIRECTION('',(0.,1.,-0.));
#253=VECTOR('',#252,0.08);
#254=LINE('',#251,#253);
#255=EDGE_CURVE('NONE',#240,#250,#254,.T.);
#256=ORIENTED_EDGE('',*,*,#255,.T.);
#257=CARTESIAN_POINT('',(4.908056896,6.358090311,4.580392317));
#258=VERTEX_POINT('',#257);
#259=CARTESIAN_POINT('',(4.908056896,6.358090311,4.730081954));
#260=DIRECTION('',(0.,-0.,-1.));
#261=VECTOR('',#260,0.149689637);
#262=LINE('',#259,#261);
#263=EDGE_CURVE('NONE',#250,#258,#262,.T.);
#264=ORIENTED_EDGE('',*,*,#263,.T.);
#265=CARTESIAN_POINT('',(4.908056896,6.358090311,4.580392317));
#266=DIRECTION('',(-0.,-1.,0.));
#267=VECTOR('',#266,0.08);
#268=LINE('',#265,#267);
#269=EDGE_CURVE('NONE',#258,#242,#268,.T.);
#270=ORIENTED_EDGE('',*,*,#269,.T.);
#271=EDGE_LOOP('',(#248,#256,#264,#270));
#272=FACE_BOUND('',#271,.T.);
#273=ADVANCED_FACE('NONE',(#272),#238,.F.);
#274=CARTESIAN_POINT('',(6.658056896,6.278090311,5.130392317));
#275=DIRECTION('',(-0.,-1.,0.));
#276=DIRECTION('',(1.,-0.,0.));
#277=AXIS2_PLACEMENT_3D('',#274,#275,#276);
#278=PLANE('',#277);
#279=ORIENTED_EDGE('',*,*,#223,.T.);
#280=CARTESIAN_POINT('',(4.929610098,6.278090311,5.440388006));
#281=VERTEX_POINT('',#280);
#282=CARTESIAN_POINT('',(5.108056896,6.278090311,5.530702681));
#283=DIRECTION('',(-0.,-1.,0.));
#284=DIRECTION('',(1.,-0.,0.));
#285=AXIS2_PLACEMENT_3D('',#282,#283,#284);
#286=CIRCLE('',#285,0.2);
#287=EDGE_CURVE('NONE',#210,#281,#286,.T.);
#288=ORIENTED_EDGE('',*,*,#287,.T.);
#289=CARTESIAN_POINT('',(4.929610098,6.278090311,4.820396628));
#290=VERTEX_POINT('',#289);
#291=CARTESIAN_POINT('',(4.929610098,6.278090311,5.440388006));
#292=CARTESIAN_POINT('',(5.086503694,6.278090311,5.130392317));
#293=CARTESIAN_POINT('',(4.929610098,6.278090311,4.820396628));
#294=B_SPLINE_CURVE_WITH_KNOTS('',2,(#291,#292,#293),.UNSPECIFIED.,.F.,.F.,(3,3),(0.057149016,0.942850984),.UNSPECIFIED.);
#295=EDGE_CURVE('NONE',#281,#290,#294,.T.);
#296=ORIENTED_EDGE('',*,*,#295,.T.);
#297=CARTESIAN_POINT('',(5.108056896,6.278090311,4.730081954));
#298=DIRECTION('',(-0.,-1.,0.));
#299=DIRECTION('',(1.,-0.,0.));
#300=AXIS2_PLACEMENT_3D('',#297,#298,#299);
#301=CIRCLE('',#300,0.2);
#302=EDGE_CURVE('NONE',#290,#240,#301,.T.);
#303=ORIENTED_EDGE('',*,*,#302,.T.);
#304=ORIENTED_EDGE('',*,*,#247,.T.);
#305=CARTESIAN_POINT('',(5.008056896,6.278090311,4.480392317));
#306=VERTEX_POINT('',#305);
#307=CARTESIAN_POINT('',(5.008056896,6.278090311,4.580392317));
#308=DIRECTION('',(-0.,-1.,0.));
#309=DIRECTION('',(-1.,0.,-0.));
#310=AXIS2_PLACEMENT_3D('',#307,#308,#309);
#311=CIRCLE('',#310,0.1);
#312=EDGE_CURVE('NONE',#242,#306,#311,.T.);
#313=ORIENTED_EDGE('',*,*,#312,.T.);
#314=CARTESIAN_POINT('',(5.408056896,6.278090311,4.480392317));
#315=VERTEX_POINT('',#314);
#316=CARTESIAN_POINT('',(5.008056896,6.278090311,4.480392317));
#317=DIRECTION('',(1.,-0.,0.));
#318=VECTOR('',#317,0.4);
#319=LINE('',#316,#318);
#320=EDGE_CURVE('NONE',#306,#315,#319,.T.);
#321=ORIENTED_EDGE('',*,*,#320,.T.);
#322=CARTESIAN_POINT('',(5.408056896,6.278090311,5.780392317));
#323=VERTEX_POINT('',#322);
#324=CARTESIAN_POINT('',(5.408056896,6.278090311,4.480392317));
#325=DIRECTION('',(0.,0.,1.));
#326=VECTOR('',#325,1.3);
#327=LINE('',#324,#326);
#328=EDGE_CURVE('NONE',#315,#323,#327,.T.);
#329=ORIENTED_EDGE('',*,*,#328,.T.);
#330=CARTESIAN_POINT('',(5.008056896,6.278090311,5.780392317));
#331=VERTEX_POINT('',#330);
#332=CARTESIAN_POINT('',(5.408056896,6.278090311,5.780392317));
#333=DIRECTION('',(-1.,0.,-0.));
#334=VECTOR('',#333,0.4);
#335=LINE('',#332,#334);
#336=EDGE_CURVE('NONE',#323,#331,#335,.T.);
#337=ORIENTED_EDGE('',*,*,#336,.T.);
#338=CARTESIAN_POINT('',(5.008056896,6.278090311,5.680392317));
#339=DIRECTION('',(-0.,-1.,0.));
#340=DIRECTION('',(-1.,0.,-0.));
#341=AXIS2_PLACEMENT_3D('',#338,#339,#340);
#342=CIRCLE('',#341,0.1);
#343=EDGE_CURVE('NONE',#331,#218,#342,.T.);
#344=ORIENTED_EDGE('',*,*,#343,.T.);
#345=EDGE_LOOP('',(#279,#288,#296,#303,#304,#313,#321,#329,#337,#344));
#346=FACE_BOUND('',#345,.T.);
#347=ADVANCED_FACE('NONE',(#346),#278,.T.);
#348=CARTESIAN_POINT('',(6.658056896,6.358090311,5.130392317));
#349=DIRECTION('',(-0.,-1.,0.));
#350=DIRECTION('',(1.,-0.,0.));
#351=AXIS2_PLACEMENT_3D('',#348,#349,#350);
#352=PLANE('',#351);
#353=CARTESIAN_POINT('',(4.929610098,6.358090311,5.440388006));
#354=VERTEX_POINT('',#353);
#355=CARTESIAN_POINT('',(4.929610098,6.358090311,4.820396628));
#356=VERTEX_POINT('',#355);
#357=CARTESIAN_POINT('',(4.929610098,6.358090311,5.440388006));
#358=CARTESIAN_POINT('',(5.086503694,6.358090311,5.130392317));
#359=CARTESIAN_POINT('',(4.929610098,6.358090311,4.820396628));
#360=B_SPLINE_CURVE_WITH_KNOTS('',2,(#357,#358,#359),.UNSPECIFIED.,.F.,.F.,(3,3),(0.057149016,0.942850984),.UNSPECIFIED.);
#361=EDGE_CURVE('NONE',#354,#356,#360,.T.);
#362=ORIENTED_EDGE('',*,*,#361,.F.);
#363=CARTESIAN_POINT('',(5.108056896,6.358090311,5.530702681));
#364=DIRECTION('',(0.,1.,-0.));
#365=DIRECTION('',(1.,-0.,0.));
#366=AXIS2_PLACEMENT_3D('',#363,#364,#365);
#367=CIRCLE('',#366,0.2);
#368=EDGE_CURVE('NONE',#354,#202,#367,.T.);
#369=ORIENTED_EDGE('',*,*,#368,.T.);
#370=ORIENTED_EDGE('',*,*,#207,.F.);
#371=CARTESIAN_POINT('',(5.008056896,6.358090311,5.780392317));
#372=VERTEX_POINT('',#371);
#373=CARTESIAN_POINT('',(5.008056896,6.358090311,5.680392317));
#374=DIRECTION('',(0.,1.,-0.));
#375=DIRECTION('',(-1.,0.,-0.));
#376=AXIS2_PLACEMENT_3D('',#373,#374,#375);
#377=CIRCLE('',#376,0.1);
#378=EDGE_CURVE('NONE',#200,#372,#377,.T.);
#379=ORIENTED_EDGE('',*,*,#378,.T.);
#380=CARTESIAN_POINT('',(5.158056896,6.358090311,5.780392317));
#381=VERTEX_POINT('',#380);
#382=CARTESIAN_POINT('',(5.158056896,6.358090311,5.780392317));
#383=DIRECTION('',(-1.,0.,-0.));
#384=VECTOR('',#383,0.15);
#385=LINE('',#382,#384);
#386=EDGE_CURVE('NONE',#381,#372,#385,.T.);
#387=ORIENTED_EDGE('',*,*,#386,.F.);
#388=CARTESIAN_POINT('',(5.158056896,6.358090311,4.480392317));
#389=VERTEX_POINT('',#388);
#390=CARTESIAN_POINT('',(5.158056896,6.358090311,4.480392317));
#391=DIRECTION('',(0.,0.,1.));
#392=VECTOR('',#391,1.3);
#393=LINE('',#390,#392);
#394=EDGE_CURVE('NONE',#389,#381,#393,.T.);
#395=ORIENTED_EDGE('',*,*,#394,.F.);
#396=CARTESIAN_POINT('',(5.008056896,6.358090311,4.480392317));
#397=VERTEX_POINT('',#396);
#398=CARTESIAN_POINT('',(5.008056896,6.358090311,4.480392317));
#399=DIRECTION('',(1.,-0.,0.));
#400=VECTOR('',#399,0.15);
#401=LINE('',#398,#400);
#402=EDGE_CURVE('NONE',#397,#389,#401,.T.);
#403=ORIENTED_EDGE('',*,*,#402,.F.);
#404=CARTESIAN_POINT('',(5.008056896,6.358090311,4.580392317));
#405=DIRECTION('',(0.,1.,-0.));
#406=DIRECTION('',(-1.,0.,-0.));
#407=AXIS2_PLACEMENT_3D('',#404,#405,#406);
#408=CIRCLE('',#407,0.1);
#409=EDGE_CURVE('NONE',#397,#258,#408,.T.);
#410=ORIENTED_EDGE('',*,*,#409,.T.);
#411=ORIENTED_EDGE('',*,*,#263,.F.);
#412=CARTESIAN_POINT('',(5.108056896,6.358090311,4.730081954));
#413=DIRECTION('',(0.,1.,-0.));
#414=DIRECTION('',(1.,-0.,0.));
#415=AXIS2_PLACEMENT_3D('',#412,#413,#414);
#416=CIRCLE('',#415,0.2);
#417=EDGE_CURVE('NONE',#250,#356,#416,.T.);
#418=ORIENTED_EDGE('',*,*,#417,.T.);
#419=EDGE_LOOP('',(#362,#369,#370,#379,#387,#395,#403,#410,#411,#418));
#420=FACE_BOUND('',#419,.T.);
#421=ADVANCED_FACE('NONE',(#420),#352,.F.);
#422=CARTESIAN_POINT('',(8.408056896,6.278090311,5.780392317));
#423=DIRECTION('',(-1.,0.,-0.));
#424=DIRECTION('',(-0.,0.,1.));
#425=AXIS2_PLACEMENT_3D('',#422,#423,#424);
#426=PLANE('',#425);
#427=CARTESIAN_POINT('',(8.408056896,6.278090311,5.530702681));
#428=VERTEX_POINT('',#427);
#429=CARTESIAN_POINT('',(8.408056896,6.278090311,5.680392317));
#430=VERTEX_POINT('',#429);
#431=CARTESIAN_POINT('',(8.408056896,6.278090311,5.530702681));
#432=DIRECTION('',(0.,0.,1.));
#433=VECTOR('',#432,0.149689637);
#434=LINE('',#431,#433);
#435=EDGE_CURVE('NONE',#428,#430,#434,.T.);
#436=ORIENTED_EDGE('',*,*,#435,.F.);
#437=CARTESIAN_POINT('',(8.408056896,6.358090311,5.530702681));
#438=VERTEX_POINT('',#437);
#439=CARTESIAN_POINT('',(8.408056896,6.278090311,5.530702681));
#440=DIRECTION('',(0.,1.,-0.));
#441=VECTOR('',#440,0.08);
#442=LINE('',#439,#441);
#443=EDGE_CURVE('NONE',#428,#438,#442,.T.);
#444=ORIENTED_EDGE('',*,*,#443,.T.);
#445=CARTESIAN_POINT('',(8.408056896,6.358090311,5.680392317));
#446=VERTEX_POINT('',#445);
#447=CARTESIAN_POINT('',(8.408056896,6.358090311,5.530702681));
#448=DIRECTION('',(-0.,0.,1.));
#449=VECTOR('',#448,0.149689637);
#450=LINE('',#447,#449);
#451=EDGE_CURVE('NONE',#438,#446,#450,.T.);
#452=ORIENTED_EDGE('',*,*,#451,.T.);
#453=CARTESIAN_POINT('',(8.408056896,6.358090311,5.680392317));
#454=DIRECTION('',(-0.,-1.,0.));
#455=VECTOR('',#454,0.08);
#456=LINE('',#453,#455);
#457=EDGE_CURVE('NONE',#446,#430,#456,.T.);
#458=ORIENTED_EDGE('',*,*,#457,.T.);
#459=EDGE_LOOP('',(#436,#444,#452,#458));
#460=FACE_BOUND('',#459,.T.);
#461=ADVANCED_FACE('NONE',(#460),#426,.F.);
#462=CARTESIAN_POINT('',(6.658056896,6.358090311,5.130392317));
#463=DIRECTION('',(0.,1.,-0.));
#464=DIRECTION('',(-1.,0.,-0.));
#465=AXIS2_PLACEMENT_3D('',#462,#463,#464);
#466=PLANE('',#465);
#467=CARTESIAN_POINT('',(8.158056896,6.358090311,6.030392317));
#468=VERTEX_POINT('',#467);
#469=CARTESIAN_POINT('',(8.158056896,6.358090311,5.780392317));
#470=VERTEX_POINT('',#469);
#471=CARTESIAN_POINT('',(8.158056896,6.358090311,6.030392317));
#472=DIRECTION('',(-0.,-0.,-1.));
#473=VECTOR('',#472,0.25);
#474=LINE('',#471,#473);
#475=EDGE_CURVE('NONE',#468,#470,#474,.T.);
#476=ORIENTED_EDGE('',*,*,#475,.F.);
#477=CARTESIAN_POINT('',(8.058056896,6.358090311,6.130392317));
#478=VERTEX_POINT('',#477);
#479=CARTESIAN_POINT('',(8.058056896,6.358090311,6.030392317));
#480=DIRECTION('',(-0.,-1.,0.));
#481=DIRECTION('',(1.,-0.,0.));
#482=AXIS2_PLACEMENT_3D('',#479,#480,#481);
#483=CIRCLE('',#482,0.1);
#484=EDGE_CURVE('NONE',#468,#478,#483,.T.);
#485=ORIENTED_EDGE('',*,*,#484,.T.);
#486=CARTESIAN_POINT('',(5.258056896,6.358090311,6.130392317));
#487=VERTEX_POINT('',#486);
#488=CARTESIAN_POINT('',(5.258056896,6.358090311,6.130392317));
#489=DIRECTION('',(1.,-0.,-0.));
#490=VECTOR('',#489,2.8);
#491=LINE('',#488,#490);
#492=EDGE_CURVE('NONE',#487,#478,#491,.T.);
#493=ORIENTED_EDGE('',*,*,#492,.F.);
#494=CARTESIAN_POINT('',(5.158056896,6.358090311,6.030392317));
#495=VERTEX_POINT('',#494);
#496=CARTESIAN_POINT('',(5.258056896,6.358090311,6.030392317));
#497=DIRECTION('',(-0.,-1.,0.));
#498=DIRECTION('',(1.,-0.,0.));
#499=AXIS2_PLACEMENT_3D('',#496,#497,#498);
#500=CIRCLE('',#499,0.1);
#501=EDGE_CURVE('NONE',#487,#495,#500,.T.);
#502=ORIENTED_EDGE('',*,*,#501,.T.);
#503=CARTESIAN_POINT('',(5.158056896,6.358090311,5.780392317));
#504=DIRECTION('',(0.,0.,1.));
#505=VECTOR('',#504,0.25);
#506=LINE('',#503,#505);
#507=EDGE_CURVE('NONE',#381,#495,#506,.T.);
#508=ORIENTED_EDGE('',*,*,#507,.F.);
#509=CARTESIAN_POINT('',(5.408056896,6.358090311,5.780392317));
#510=VERTEX_POINT('',#509);
#511=CARTESIAN_POINT('',(5.408056896,6.358090311,5.780392317));
#512=DIRECTION('',(-1.,0.,-0.));
#513=VECTOR('',#512,0.25);
#514=LINE('',#511,#513);
#515=EDGE_CURVE('NONE',#510,#381,#514,.T.);
#516=ORIENTED_EDGE('',*,*,#515,.F.);
#517=CARTESIAN_POINT('',(5.408056896,6.358090311,4.480392317));
#518=VERTEX_POINT('',#517);
#519=CARTESIAN_POINT('',(5.408056896,6.358090311,4.480392317));
#520=DIRECTION('',(0.,0.,1.));
#521=VECTOR('',#520,1.3);
#522=LINE('',#519,#521);
#523=EDGE_CURVE('NONE',#518,#510,#522,.T.);
#524=ORIENTED_EDGE('',*,*,#523,.F.);
#525=CARTESIAN_POINT('',(5.158056896,6.358090311,4.480392317));
#526=DIRECTION('',(1.,-0.,0.));
#527=VECTOR('',#526,0.25);
#528=LINE('',#525,#527);
#529=EDGE_CURVE('NONE',#389,#518,#528,.T.);
#530=ORIENTED_EDGE('',*,*,#529,.F.);
#531=CARTESIAN_POINT('',(5.158056896,6.358090311,4.230392317));
#532=VERTEX_POINT('',#531);
#533=CARTESIAN_POINT('',(5.158056896,6.358090311,4.230392317));
#534=DIRECTION('',(0.,0.,1.));
#535=VECTOR('',#534,0.25);
#536=LINE('',#533,#535);
#537=EDGE_CURVE('NONE',#532,#389,#536,.T.);
#538=ORIENTED_EDGE('',*,*,#537,.F.);
#539=CARTESIAN_POINT('',(5.258056896,6.358090311,4.130392317));
#540=VERTEX_POINT('',#539);
#541=CARTESIAN_POINT('',(5.258056896,6.358090311,4.230392317));
#542=DIRECTION('',(-0.,-1.,0.));
#543=DIRECTION('',(1.,-0.,0.));
#544=AXIS2_PLACEMENT_3D('',#541,#542,#543);
#545=CIRCLE('',#544,0.1);
#546=EDGE_CURVE('NONE',#532,#540,#545,.T.);
#547=ORIENTED_EDGE('',*,*,#546,.T.);
#548=CARTESIAN_POINT('',(8.058056896,6.358090311,4.130392317));
#549=VERTEX_POINT('',#548);
#550=CARTESIAN_POINT('',(8.058056896,6.358090311,4.130392317));
#551=DIRECTION('',(-1.,0.,0.));
#552=VECTOR('',#551,2.8);
#553=LINE('',#550,#552);
#554=EDGE_CURVE('NONE',#549,#540,#553,.T.);
#555=ORIENTED_EDGE('',*,*,#554,.F.);
#556=CARTESIAN_POINT('',(8.158056896,6.358090311,4.230392317));
#557=VERTEX_POINT('',#556);
#558=CARTESIAN_POINT('',(8.058056896,6.358090311,4.230392317));
#559=DIRECTION('',(-0.,-1.,0.));
#560=DIRECTION('',(1.,-0.,0.));
#561=AXIS2_PLACEMENT_3D('',#558,#559,#560);
#562=CIRCLE('',#561,0.1);
#563=EDGE_CURVE('NONE',#549,#557,#562,.T.);
#564=ORIENTED_EDGE('',*,*,#563,.T.);
#565=CARTESIAN_POINT('',(8.158056896,6.358090311,4.480392317));
#566=VERTEX_POINT('',#565);
#567=CARTESIAN_POINT('',(8.158056896,6.358090311,4.480392317));
#568=DIRECTION('',(-0.,-0.,-1.));
#569=VECTOR('',#568,0.25);
#570=LINE('',#567,#569);
#571=EDGE_CURVE('NONE',#566,#557,#570,.T.);
#572=ORIENTED_EDGE('',*,*,#571,.F.);
#573=CARTESIAN_POINT('',(7.908056896,6.358090311,4.480392317));
#574=VERTEX_POINT('',#573);
#575=CARTESIAN_POINT('',(7.908056896,6.358090311,4.480392317));
#576=DIRECTION('',(1.,-0.,0.));
#577=VECTOR('',#576,0.25);
#578=LINE('',#575,#577);
#579=EDGE_CURVE('NONE',#574,#566,#578,.T.);
#580=ORIENTED_EDGE('',*,*,#579,.F.);
#581=CARTESIAN_POINT('',(7.908056896,6.358090311,5.780392317));
#582=VERTEX_POINT('',#581);
#583=CARTESIAN_POINT('',(7.908056896,6.358090311,5.780392317));
#584=DIRECTION('',(-0.,-0.,-1.));
#585=VECTOR('',#584,1.3);
#586=LINE('',#583,#585);
#587=EDGE_CURVE('NONE',#582,#574,#586,.T.);
#588=ORIENTED_EDGE('',*,*,#587,.F.);
#589=CARTESIAN_POINT('',(8.158056896,6.358090311,5.780392317));
#590=DIRECTION('',(-1.,0.,-0.));
#591=VECTOR('',#590,0.25);
#592=LINE('',#589,#591);
#593=EDGE_CURVE('NONE',#470,#582,#592,.T.);
#594=ORIENTED_EDGE('',*,*,#593,.F.);
#595=EDGE_LOOP('',(#476,#485,#493,#502,#508,#516,#524,#530,#538,#547,#555,#564,#572,#580,#588,#594));
#596=FACE_BOUND('',#595,.T.);
#597=ADVANCED_FACE('NONE',(#596),#466,.F.);
#598=OVER_RIDING_STYLED_ITEM('',(#76),#597,#26);
#599=CARTESIAN_POINT('',(5.358056896,6.678090311,5.930392317));
#600=DIRECTION('',(0.,0.,1.));
#601=DIRECTION('',(0.,1.,-0.));
#602=AXIS2_PLACEMENT_3D('',#599,#600,#601);
#603=PLANE('',#602);
#604=CARTESIAN_POINT('',(5.458056896,6.678090311,5.930392317));
#605=VERTEX_POINT('',#604);
#606=CARTESIAN_POINT('',(5.763629705,6.678090311,5.930392317));
#607=VERTEX_POINT('',#606);
#608=CARTESIAN_POINT('',(5.458056896,6.678090311,5.930392317));
#609=DIRECTION('',(1.,-0.,0.));
#610=VECTOR('',#609,0.305572809);
#611=LINE('',#608,#610);
#612=EDGE_CURVE('NONE',#605,#607,#611,.T.);
#613=ORIENTED_EDGE('',*,*,#612,.F.);
#614=CARTESIAN_POINT('',(5.458056896,6.728090311,5.930392317));
#615=VERTEX_POINT('',#614);
#616=CARTESIAN_POINT('',(5.458056896,6.678090311,5.930392317));
#617=DIRECTION('',(0.,1.,-0.));
#618=VECTOR('',#617,0.05);
#619=LINE('',#616,#618);
#620=EDGE_CURVE('NONE',#605,#615,#619,.T.);
#621=ORIENTED_EDGE('',*,*,#620,.T.);
#622=CARTESIAN_POINT('',(7.858056896,6.728090311,5.930392317));
#623=VERTEX_POINT('',#622);
#624=CARTESIAN_POINT('',(5.458056896,6.728090311,5.930392317));
#625=DIRECTION('',(1.,-0.,0.));
#626=VECTOR('',#625,2.4);
#627=LINE('',#624,#626);
#628=EDGE_CURVE('NONE',#615,#623,#627,.T.);
#629=ORIENTED_EDGE('',*,*,#628,.T.);
#630=CARTESIAN_POINT('',(7.858056896,6.678090311,5.930392317));
#631=VERTEX_POINT('',#630);
#632=CARTESIAN_POINT('',(7.858056896,6.728090311,5.930392317));
#633=DIRECTION('',(-0.,-1.,0.));
#634=VECTOR('',#633,0.05);
#635=LINE('',#632,#634);
#636=EDGE_CURVE('NONE',#623,#631,#635,.T.);
#637=ORIENTED_EDGE('',*,*,#636,.T.);
#638=CARTESIAN_POINT('',(7.552484087,6.678090311,5.930392317));
#639=DIRECTION('',(1.,-0.,0.));
#640=VECTOR('',#639,0.305572809);
#641=LINE('',#638,#640);
#642=EDGE_CURVE('NONE',#148,#631,#641,.T.);
#643=ORIENTED_EDGE('',*,*,#642,.F.);
#644=ORIENTED_EDGE('',*,*,#154,.T.);
#645=CARTESIAN_POINT('',(5.862000543,6.708090311,5.930392317));
#646=VERTEX_POINT('',#645);
#647=CARTESIAN_POINT('',(5.862000543,6.708090311,5.930392317));
#648=DIRECTION('',(1.,-0.,0.));
#649=VECTOR('',#648,1.592112707);
#650=LINE('',#647,#649);
#651=EDGE_CURVE('NONE',#646,#139,#650,.T.);
#652=ORIENTED_EDGE('',*,*,#651,.F.);
#653=CARTESIAN_POINT('',(5.862000543,6.708090311,5.930392317));
#654=CARTESIAN_POINT('',(5.826876833,6.708090311,5.930392317));
#655=CARTESIAN_POINT('',(5.791718112,6.699449162,5.930392317));
#656=CARTESIAN_POINT('',(5.763629705,6.678090311,5.930392317));
#657=B_SPLINE_CURVE_WITH_KNOTS('',3,(#653,#654,#655,#656),.UNSPECIFIED.,.F.,.F.,(4,4),(0.,0.000103917),.UNSPECIFIED.);
#658=EDGE_CURVE('NONE',#646,#607,#657,.T.);
#659=ORIENTED_EDGE('',*,*,#658,.T.);
#660=EDGE_LOOP('',(#613,#621,#629,#637,#643,#644,#652,#659));
#661=FACE_BOUND('',#660,.T.);
#662=ADVANCED_FACE('NONE',(#661),#603,.F.);
#663=OVER_RIDING_STYLED_ITEM('',(#172),#662,#26);
#664=CARTESIAN_POINT('',(5.358056896,6.678090311,4.330392317));
#665=DIRECTION('',(0.,-0.,-1.));
#666=DIRECTION('',(-0.,-1.,0.));
#667=AXIS2_PLACEMENT_3D('',#664,#665,#666);
#668=PLANE('',#667);
#669=CARTESIAN_POINT('',(7.858056896,6.728090311,4.330392317));
#670=VERTEX_POINT('',#669);
#671=CARTESIAN_POINT('',(5.458056896,6.728090311,4.330392317));
#672=VERTEX_POINT('',#671);
#673=CARTESIAN_POINT('',(7.858056896,6.728090311,4.330392317));
#674=DIRECTION('',(-1.,0.,-0.));
#675=VECTOR('',#674,2.4);
#676=LINE('',#673,#675);
#677=EDGE_CURVE('NONE',#670,#672,#676,.T.);
#678=ORIENTED_EDGE('',*,*,#677,.T.);
#679=CARTESIAN_POINT('',(5.458056896,6.678090311,4.330392317));
#680=VERTEX_POINT('',#679);
#681=CARTESIAN_POINT('',(5.458056896,6.728090311,4.330392317));
#682=DIRECTION('',(-0.,-1.,0.));
#683=VECTOR('',#682,0.05);
#684=LINE('',#681,#683);
#685=EDGE_CURVE('NONE',#672,#680,#684,.T.);
#686=ORIENTED_EDGE('',*,*,#685,.T.);
#687=CARTESIAN_POINT('',(5.763629705,6.678090311,4.330392317));
#688=VERTEX_POINT('',#687);
#689=CARTESIAN_POINT('',(5.763629705,6.678090311,4.330392317));
#690=DIRECTION('',(-1.,0.,-0.));
#691=VECTOR('',#690,0.305572809);
#692=LINE('',#689,#691);
#693=EDGE_CURVE('NONE',#688,#680,#692,.T.);
#694=ORIENTED_EDGE('',*,*,#693,.F.);
#695=CARTESIAN_POINT('',(5.862000543,6.708090311,4.330392317));
#696=VERTEX_POINT('',#695);
#697=CARTESIAN_POINT('',(5.763629705,6.678090311,4.330392317));
#698=CARTESIAN_POINT('',(5.791729698,6.699457973,4.330392317));
#699=CARTESIAN_POINT('',(5.826874776,6.708090311,4.330392317));
#700=CARTESIAN_POINT('',(5.862000543,6.708090311,4.330392317));
#701=B_SPLINE_CURVE_WITH_KNOTS('',3,(#697,#698,#699,#700),.UNSPECIFIED.,.F.,.F.,(4,4),(0.,0.000103985),.UNSPECIFIED.);
#702=EDGE_CURVE('NONE',#688,#696,#701,.T.);
#703=ORIENTED_EDGE('',*,*,#702,.T.);
#704=CARTESIAN_POINT('',(7.454113249,6.708090311,4.330392317));
#705=VERTEX_POINT('',#704);
#706=CARTESIAN_POINT('',(7.454113249,6.708090311,4.330392317));
#707=DIRECTION('',(-1.,0.,-0.));
#708=VECTOR('',#707,1.592112707);
#709=LINE('',#706,#708);
#710=EDGE_CURVE('NONE',#705,#696,#709,.T.);
#711=ORIENTED_EDGE('',*,*,#710,.F.);
#712=CARTESIAN_POINT('',(7.552484087,6.678090311,4.330392317));
#713=VERTEX_POINT('',#712);
#714=CARTESIAN_POINT('',(7.454113249,6.708090311,4.330392317));
#715=CARTESIAN_POINT('',(7.489236959,6.708090311,4.330392317));
#716=CARTESIAN_POINT('',(7.52439568,6.699449162,4.330392317));
#717=CARTESIAN_POINT('',(7.552484087,6.678090311,4.330392317));
#718=B_SPLINE_CURVE_WITH_KNOTS('',3,(#714,#715,#716,#717),.UNSPECIFIED.,.F.,.F.,(4,4),(0.,0.000103917),.UNSPECIFIED.);
#719=EDGE_CURVE('NONE',#705,#713,#718,.T.);
#720=ORIENTED_EDGE('',*,*,#719,.T.);
#721=CARTESIAN_POINT('',(7.858056896,6.678090311,4.330392317));
#722=VERTEX_POINT('',#721);
#723=CARTESIAN_POINT('',(7.858056896,6.678090311,4.330392317));
#724=DIRECTION('',(-1.,0.,-0.));
#725=VECTOR('',#724,0.305572809);
#726=LINE('',#723,#725);
#727=EDGE_CURVE('NONE',#722,#713,#726,.T.);
#728=ORIENTED_EDGE('',*,*,#727,.F.);
#729=CARTESIAN_POINT('',(7.858056896,6.678090311,4.330392317));
#730=DIRECTION('',(0.,1.,-0.));
#731=VECTOR('',#730,0.05);
#732=LINE('',#729,#731);
#733=EDGE_CURVE('NONE',#722,#670,#732,.T.);
#734=ORIENTED_EDGE('',*,*,#733,.T.);
#735=EDGE_LOOP('',(#678,#686,#694,#703,#711,#720,#728,#734));
#736=FACE_BOUND('',#735,.T.);
#737=ADVANCED_FACE('NONE',(#736),#668,.F.);
#738=OVER_RIDING_STYLED_ITEM('',(#172),#737,#26);
#739=CARTESIAN_POINT('',(6.658056896,6.678090311,5.130392317));
#740=DIRECTION('',(0.,1.,-0.));
#741=DIRECTION('',(-1.,0.,-0.));
#742=AXIS2_PLACEMENT_3D('',#739,#740,#741);
#743=PLANE('',#742);
#744=CARTESIAN_POINT('',(7.958056896,6.678090311,5.830392317));
#745=VERTEX_POINT('',#744);
#746=CARTESIAN_POINT('',(7.958056896,6.678090311,4.430392317));
#747=VERTEX_POINT('',#746);
#748=CARTESIAN_POINT('',(7.958056896,6.678090311,5.830392317));
#749=DIRECTION('',(-0.,-0.,-1.));
#750=VECTOR('',#749,1.4);
#751=LINE('',#748,#750);
#752=EDGE_CURVE('NONE',#745,#747,#751,.T.);
#753=ORIENTED_EDGE('',*,*,#752,.T.);
#754=CARTESIAN_POINT('',(7.858056896,6.678090311,4.430392317));
#755=DIRECTION('',(0.,1.,-0.));
#756=DIRECTION('',(1.,-0.,0.));
#757=AXIS2_PLACEMENT_3D('',#754,#755,#756);
#758=CIRCLE('',#757,0.1);
#759=EDGE_CURVE('NONE',#747,#722,#758,.T.);
#760=ORIENTED_EDGE('',*,*,#759,.T.);
#761=ORIENTED_EDGE('',*,*,#727,.T.);
#762=CARTESIAN_POINT('',(6.658056896,6.678090311,5.130392317));
#763=DIRECTION('',(0.,1.,-0.));
#764=DIRECTION('',(1.,-0.,0.));
#765=AXIS2_PLACEMENT_3D('',#762,#763,#764);
#766=CIRCLE('',#765,1.2);
#767=EDGE_CURVE('NONE',#128,#713,#766,.T.);
#768=ORIENTED_EDGE('',*,*,#767,.F.);
#769=ORIENTED_EDGE('',*,*,#161,.F.);
#770=ORIENTED_EDGE('',*,*,#642,.T.);
#771=CARTESIAN_POINT('',(7.858056896,6.678090311,5.830392317));
#772=DIRECTION('',(0.,1.,-0.));
#773=DIRECTION('',(1.,-0.,0.));
#774=AXIS2_PLACEMENT_3D('',#771,#772,#773);
#775=CIRCLE('',#774,0.1);
#776=EDGE_CURVE('NONE',#631,#745,#775,.T.);
#777=ORIENTED_EDGE('',*,*,#776,.T.);
#778=EDGE_LOOP('',(#753,#760,#761,#768,#769,#770,#777));
#779=FACE_BOUND('',#778,.T.);
#780=ADVANCED_FACE('NONE',(#779),#743,.T.);
#781=OVER_RIDING_STYLED_ITEM('',(#172),#780,#26);
#782=CARTESIAN_POINT('',(6.658056896,6.678090311,5.130392317));
#783=DIRECTION('',(0.,1.,-0.));
#784=DIRECTION('',(-1.,0.,-0.));
#785=AXIS2_PLACEMENT_3D('',#782,#783,#784);
#786=PLANE('',#785);
#787=ORIENTED_EDGE('',*,*,#693,.T.);
#788=CARTESIAN_POINT('',(5.358056896,6.678090311,4.430392317));
#789=VERTEX_POINT('',#788);
#790=CARTESIAN_POINT('',(5.458056896,6.678090311,4.430392317));
#791=DIRECTION('',(0.,1.,-0.));
#792=DIRECTION('',(1.,-0.,0.));
#793=AXIS2_PLACEMENT_3D('',#790,#791,#792);
#794=CIRCLE('',#793,0.1);
#795=EDGE_CURVE('NONE',#680,#789,#794,.T.);
#796=ORIENTED_EDGE('',*,*,#795,.T.);
#797=CARTESIAN_POINT('',(5.358056896,6.678090311,5.830392317));
#798=VERTEX_POINT('',#797);
#799=CARTESIAN_POINT('',(5.358056896,6.678090311,4.430392317));
#800=DIRECTION('',(0.,0.,1.));
#801=VECTOR('',#800,1.4);
#802=LINE('',#799,#801);
#803=EDGE_CURVE('NONE',#789,#798,#802,.T.);
#804=ORIENTED_EDGE('',*,*,#803,.T.);
#805=CARTESIAN_POINT('',(5.458056896,6.678090311,5.830392317));
#806=DIRECTION('',(0.,1.,-0.));
#807=DIRECTION('',(1.,-0.,0.));
#808=AXIS2_PLACEMENT_3D('',#805,#806,#807);
#809=CIRCLE('',#808,0.1);
#810=EDGE_CURVE('NONE',#798,#605,#809,.T.);
#811=ORIENTED_EDGE('',*,*,#810,.T.);
#812=ORIENTED_EDGE('',*,*,#612,.T.);
#813=CARTESIAN_POINT('',(6.658056896,6.678090311,5.130392317));
#814=DIRECTION('',(0.,1.,-0.));
#815=DIRECTION('',(1.,-0.,0.));
#816=AXIS2_PLACEMENT_3D('',#813,#814,#815);
#817=CIRCLE('',#816,1.2);
#818=EDGE_CURVE('NONE',#688,#607,#817,.T.);
#819=ORIENTED_EDGE('',*,*,#818,.F.);
#820=EDGE_LOOP('',(#787,#796,#804,#811,#812,#819));
#821=FACE_BOUND('',#820,.T.);
#822=ADVANCED_FACE('NONE',(#821),#786,.T.);
#823=OVER_RIDING_STYLED_ITEM('',(#172),#822,#26);
#824=CARTESIAN_POINT('',(8.158056896,6.728090311,4.130392317));
#825=DIRECTION('',(-1.,0.,-0.));
#826=DIRECTION('',(-0.,-1.,0.));
#827=AXIS2_PLACEMENT_3D('',#824,#825,#826);
#828=PLANE('',#827);
#829=CARTESIAN_POINT('',(8.158056896,6.728090311,6.030392317));
#830=VERTEX_POINT('',#829);
#831=CARTESIAN_POINT('',(8.158056896,6.728090311,4.230392317));
#832=VERTEX_POINT('',#831);
#833=CARTESIAN_POINT('',(8.158056896,6.728090311,6.030392317));
#834=DIRECTION('',(-0.,-0.,-1.));
#835=VECTOR('',#834,1.8);
#836=LINE('',#833,#835);
#837=EDGE_CURVE('NONE',#830,#832,#836,.T.);
#838=ORIENTED_EDGE('',*,*,#837,.F.);
#839=CARTESIAN_POINT('',(8.158056896,6.728090311,6.030392317));
#840=DIRECTION('',(-0.,-1.,0.));
#841=VECTOR('',#840,0.37);
#842=LINE('',#839,#841);
#843=EDGE_CURVE('NONE',#830,#468,#842,.T.);
#844=ORIENTED_EDGE('',*,*,#843,.T.);
#845=ORIENTED_EDGE('',*,*,#475,.T.);
#846=CARTESIAN_POINT('',(8.158056896,6.358090311,5.780392317));
#847=DIRECTION('',(-0.,-0.,-1.));
#848=VECTOR('',#847,1.3);
#849=LINE('',#846,#848);
#850=EDGE_CURVE('NONE',#470,#566,#849,.T.);
#851=ORIENTED_EDGE('',*,*,#850,.T.);
#852=ORIENTED_EDGE('',*,*,#571,.T.);
#853=CARTESIAN_POINT('',(8.158056896,6.358090311,4.230392317));
#854=DIRECTION('',(0.,1.,-0.));
#855=VECTOR('',#854,0.37);
#856=LINE('',#853,#855);
#857=EDGE_CURVE('NONE',#557,#832,#856,.T.);
#858=ORIENTED_EDGE('',*,*,#857,.T.);
#859=EDGE_LOOP('',(#838,#844,#845,#851,#852,#858));
#860=FACE_BOUND('',#859,.T.);
#861=ADVANCED_FACE('NONE',(#860),#828,.F.);
#862=OVER_RIDING_STYLED_ITEM('',(#76),#861,#26);
#863=CARTESIAN_POINT('',(5.158056896,6.728090311,4.130392317));
#864=DIRECTION('',(0.,0.,1.));
#865=DIRECTION('',(1.,-0.,-0.));
#866=AXIS2_PLACEMENT_3D('',#863,#864,#865);
#867=PLANE('',#866);
#868=ORIENTED_EDGE('',*,*,#554,.T.);
#869=CARTESIAN_POINT('',(5.258056896,6.728090311,4.130392317));
#870=VERTEX_POINT('',#869);
#871=CARTESIAN_POINT('',(5.258056896,6.358090311,4.130392317));
#872=DIRECTION('',(0.,1.,-0.));
#873=VECTOR('',#872,0.37);
#874=LINE('',#871,#873);
#875=EDGE_CURVE('NONE',#540,#870,#874,.T.);
#876=ORIENTED_EDGE('',*,*,#875,.T.);
#877=CARTESIAN_POINT('',(8.058056896,6.728090311,4.130392317));
#878=VERTEX_POINT('',#877);
#879=CARTESIAN_POINT('',(8.058056896,6.728090311,4.130392317));
#880=DIRECTION('',(-1.,0.,-0.));
#881=VECTOR('',#880,2.8);
#882=LINE('',#879,#881);
#883=EDGE_CURVE('NONE',#878,#870,#882,.T.);
#884=ORIENTED_EDGE('',*,*,#883,.F.);
#885=CARTESIAN_POINT('',(8.058056896,6.728090311,4.130392317));
#886=DIRECTION('',(-0.,-1.,0.));
#887=VECTOR('',#886,0.37);
#888=LINE('',#885,#887);
#889=EDGE_CURVE('NONE',#878,#549,#888,.T.);
#890=ORIENTED_EDGE('',*,*,#889,.T.);
#891=EDGE_LOOP('',(#868,#876,#884,#890));
#892=FACE_BOUND('',#891,.T.);
#893=ADVANCED_FACE('NONE',(#892),#867,.F.);
#894=OVER_RIDING_STYLED_ITEM('',(#76),#893,#26);
#895=CARTESIAN_POINT('',(5.158056896,6.728090311,4.130392317));
#896=DIRECTION('',(1.,-0.,0.));
#897=DIRECTION('',(0.,1.,-0.));
#898=AXIS2_PLACEMENT_3D('',#895,#896,#897);
#899=PLANE('',#898);
#900=ORIENTED_EDGE('',*,*,#507,.T.);
#901=CARTESIAN_POINT('',(5.158056896,6.728090311,6.030392317));
#902=VERTEX_POINT('',#901);
#903=CARTESIAN_POINT('',(5.158056896,6.358090311,6.030392317));
#904=DIRECTION('',(0.,1.,-0.));
#905=VECTOR('',#904,0.37);
#906=LINE('',#903,#905);
#907=EDGE_CURVE('NONE',#495,#902,#906,.T.);
#908=ORIENTED_EDGE('',*,*,#907,.T.);
#909=CARTESIAN_POINT('',(5.158056896,6.728090311,4.230392317));
#910=VERTEX_POINT('',#909);
#911=CARTESIAN_POINT('',(5.158056896,6.728090311,4.230392317));
#912=DIRECTION('',(0.,0.,1.));
#913=VECTOR('',#912,1.8);
#914=LINE('',#911,#913);
#915=EDGE_CURVE('NONE',#910,#902,#914,.T.);
#916=ORIENTED_EDGE('',*,*,#915,.F.);
#917=CARTESIAN_POINT('',(5.158056896,6.728090311,4.230392317));
#918=DIRECTION('',(-0.,-1.,0.));
#919=VECTOR('',#918,0.37);
#920=LINE('',#917,#919);
#921=EDGE_CURVE('NONE',#910,#532,#920,.T.);
#922=ORIENTED_EDGE('',*,*,#921,.T.);
#923=ORIENTED_EDGE('',*,*,#537,.T.);
#924=ORIENTED_EDGE('',*,*,#394,.T.);
#925=EDGE_LOOP('',(#900,#908,#916,#922,#923,#924));
#926=FACE_BOUND('',#925,.T.);
#927=ADVANCED_FACE('NONE',(#926),#899,.F.);
#928=OVER_RIDING_STYLED_ITEM('',(#76),#927,#26);
#929=CARTESIAN_POINT('',(5.158056896,6.728090311,6.130392317));
#930=DIRECTION('',(-0.,-0.,-1.));
#931=DIRECTION('',(-1.,0.,0.));
#932=AXIS2_PLACEMENT_3D('',#929,#930,#931);
#933=PLANE('',#932);
#934=ORIENTED_EDGE('',*,*,#492,.T.);
#935=CARTESIAN_POINT('',(8.058056896,6.728090311,6.130392317));
#936=VERTEX_POINT('',#935);
#937=CARTESIAN_POINT('',(8.058056896,6.358090311,6.130392317));
#938=DIRECTION('',(0.,1.,-0.));
#939=VECTOR('',#938,0.37);
#940=LINE('',#937,#939);
#941=EDGE_CURVE('NONE',#478,#936,#940,.T.);
#942=ORIENTED_EDGE('',*,*,#941,.T.);
#943=CARTESIAN_POINT('',(5.258056896,6.728090311,6.130392317));
#944=VERTEX_POINT('',#943);
#945=CARTESIAN_POINT('',(5.258056896,6.728090311,6.130392317));
#946=DIRECTION('',(1.,-0.,0.));
#947=VECTOR('',#946,2.8);
#948=LINE('',#945,#947);
#949=EDGE_CURVE('NONE',#944,#936,#948,.T.);
#950=ORIENTED_EDGE('',*,*,#949,.F.);
#951=CARTESIAN_POINT('',(5.258056896,6.728090311,6.130392317));
#952=DIRECTION('',(-0.,-1.,0.));
#953=VECTOR('',#952,0.37);
#954=LINE('',#951,#953);
#955=EDGE_CURVE('NONE',#944,#487,#954,.T.);
#956=ORIENTED_EDGE('',*,*,#955,.T.);
#957=EDGE_LOOP('',(#934,#942,#950,#956));
#958=FACE_BOUND('',#957,.T.);
#959=ADVANCED_FACE('NONE',(#958),#933,.F.);
#960=OVER_RIDING_STYLED_ITEM('',(#76),#959,#26);
#961=CARTESIAN_POINT('',(6.658056896,6.728090311,5.130392317));
#962=DIRECTION('',(0.,1.,-0.));
#963=DIRECTION('',(-1.,0.,-0.));
#964=AXIS2_PLACEMENT_3D('',#961,#962,#963);
#965=PLANE('',#964);
#966=CARTESIAN_POINT('',(7.958056896,6.728090311,5.830392317));
#967=VERTEX_POINT('',#966);
#968=CARTESIAN_POINT('',(7.958056896,6.728090311,4.430392317));
#969=VERTEX_POINT('',#968);
#970=CARTESIAN_POINT('',(7.958056896,6.728090311,5.830392317));
#971=DIRECTION('',(-0.,-0.,-1.));
#972=VECTOR('',#971,1.4);
#973=LINE('',#970,#972);
#974=EDGE_CURVE('NONE',#967,#969,#973,.T.);
#975=ORIENTED_EDGE('',*,*,#974,.F.);
#976=CARTESIAN_POINT('',(7.858056896,6.728090311,5.830392317));
#977=DIRECTION('',(-0.,-1.,0.));
#978=DIRECTION('',(1.,-0.,0.));
#979=AXIS2_PLACEMENT_3D('',#976,#977,#978);
#980=CIRCLE('',#979,0.1);
#981=EDGE_CURVE('NONE',#967,#623,#980,.T.);
#982=ORIENTED_EDGE('',*,*,#981,.T.);
#983=ORIENTED_EDGE('',*,*,#628,.F.);
#984=CARTESIAN_POINT('',(5.358056896,6.728090311,5.830392317));
#985=VERTEX_POINT('',#984);
#986=CARTESIAN_POINT('',(5.458056896,6.728090311,5.830392317));
#987=DIRECTION('',(-0.,-1.,0.));
#988=DIRECTION('',(1.,-0.,0.));
#989=AXIS2_PLACEMENT_3D('',#986,#987,#988);
#990=CIRCLE('',#989,0.1);
#991=EDGE_CURVE('NONE',#615,#985,#990,.T.);
#992=ORIENTED_EDGE('',*,*,#991,.T.);
#993=CARTESIAN_POINT('',(5.358056896,6.728090311,4.430392317));
#994=VERTEX_POINT('',#993);
#995=CARTESIAN_POINT('',(5.358056896,6.728090311,4.430392317));
#996=DIRECTION('',(0.,0.,1.));
#997=VECTOR('',#996,1.4);
#998=LINE('',#995,#997);
#999=EDGE_CURVE('NONE',#994,#985,#998,.T.);
#1000=ORIENTED_EDGE('',*,*,#999,.F.);
#1001=CARTESIAN_POINT('',(5.458056896,6.728090311,4.430392317));
#1002=DIRECTION('',(-0.,-1.,0.));
#1003=DIRECTION('',(1.,-0.,0.));
#1004=AXIS2_PLACEMENT_3D('',#1001,#1002,#1003);
#1005=CIRCLE('',#1004,0.1);
#1006=EDGE_CURVE('NONE',#994,#672,#1005,.T.);
#1007=ORIENTED_EDGE('',*,*,#1006,.T.);
#1008=ORIENTED_EDGE('',*,*,#677,.F.);
#1009=CARTESIAN_POINT('',(7.858056896,6.728090311,4.430392317));
#1010=DIRECTION('',(-0.,-1.,0.));
#1011=DIRECTION('',(1.,-0.,0.));
#1012=AXIS2_PLACEMENT_3D('',#1009,#1010,#1011);
#1013=CIRCLE('',#1012,0.1);
#1014=EDGE_CURVE('NONE',#670,#969,#1013,.T.);
#1015=ORIENTED_EDGE('',*,*,#1014,.T.);
#1016=EDGE_LOOP('',(#975,#982,#983,#992,#1000,#1007,#1008,#1015));
#1017=FACE_BOUND('',#1016,.T.);
#1018=ORIENTED_EDGE('',*,*,#949,.T.);
#1019=CARTESIAN_POINT('',(8.058056896,6.728090311,6.030392317));
#1020=DIRECTION('',(0.,1.,-0.));
#1021=DIRECTION('',(1.,-0.,0.));
#1022=AXIS2_PLACEMENT_3D('',#1019,#1020,#1021);
#1023=CIRCLE('',#1022,0.1);
#1024=EDGE_CURVE('NONE',#936,#830,#1023,.T.);
#1025=ORIENTED_EDGE('',*,*,#1024,.T.);
#1026=ORIENTED_EDGE('',*,*,#837,.T.);
#1027=CARTESIAN_POINT('',(8.058056896,6.728090311,4.230392317));
#1028=DIRECTION('',(0.,1.,-0.));
#1029=DIRECTION('',(1.,-0.,0.));
#1030=AXIS2_PLACEMENT_3D('',#1027,#1028,#1029);
#1031=CIRCLE('',#1030,0.1);
#1032=EDGE_CURVE('NONE',#832,#878,#1031,.T.);
#1033=ORIENTED_EDGE('',*,*,#1032,.T.);
#1034=ORIENTED_EDGE('',*,*,#883,.T.);
#1035=CARTESIAN_POINT('',(5.258056896,6.728090311,4.230392317));
#1036=DIRECTION('',(0.,1.,-0.));
#1037=DIRECTION('',(1.,-0.,0.));
#1038=AXIS2_PLACEMENT_3D('',#1035,#1036,#1037);
#1039=CIRCLE('',#1038,0.1);
#1040=EDGE_CURVE('NONE',#870,#910,#1039,.T.);
#1041=ORIENTED_EDGE('',*,*,#1040,.T.);
#1042=ORIENTED_EDGE('',*,*,#915,.T.);
#1043=CARTESIAN_POINT('',(5.258056896,6.728090311,6.030392317));
#1044=DIRECTION('',(0.,1.,-0.));
#1045=DIRECTION('',(1.,-0.,0.));
#1046=AXIS2_PLACEMENT_3D('',#1043,#1044,#1045);
#1047=CIRCLE('',#1046,0.1);
#1048=EDGE_CURVE('NONE',#902,#944,#1047,.T.);
#1049=ORIENTED_EDGE('',*,*,#1048,.T.);
#1050=EDGE_LOOP('',(#1018,#1025,#1026,#1033,#1034,#1041,#1042,#1049));
#1051=FACE_BOUND('',#1050,.T.);
#1052=ADVANCED_FACE('NONE',(#1017,#1051),#965,.T.);
#1053=OVER_RIDING_STYLED_ITEM('',(#76),#1052,#26);
#1054=CARTESIAN_POINT('',(7.958056896,6.678090311,4.330392317));
#1055=DIRECTION('',(1.,-0.,0.));
#1056=DIRECTION('',(0.,1.,-0.));
#1057=AXIS2_PLACEMENT_3D('',#1054,#1055,#1056);
#1058=PLANE('',#1057);
#1059=ORIENTED_EDGE('',*,*,#974,.T.);
#1060=CARTESIAN_POINT('',(7.958056896,6.728090311,4.430392317));
#1061=DIRECTION('',(-0.,-1.,0.));
#1062=VECTOR('',#1061,0.05);
#1063=LINE('',#1060,#1062);
#1064=EDGE_CURVE('NONE',#969,#747,#1063,.T.);
#1065=ORIENTED_EDGE('',*,*,#1064,.T.);
#1066=ORIENTED_EDGE('',*,*,#752,.F.);
#1067=CARTESIAN_POINT('',(7.958056896,6.678090311,5.830392317));
#1068=DIRECTION('',(0.,1.,-0.));
#1069=VECTOR('',#1068,0.05);
#1070=LINE('',#1067,#1069);
#1071=EDGE_CURVE('NONE',#745,#967,#1070,.T.);
#1072=ORIENTED_EDGE('',*,*,#1071,.T.);
#1073=EDGE_LOOP('',(#1059,#1065,#1066,#1072));
#1074=FACE_BOUND('',#1073,.T.);
#1075=ADVANCED_FACE('NONE',(#1074),#1058,.F.);
#1076=OVER_RIDING_STYLED_ITEM('',(#172),#1075,#26);
#1077=CARTESIAN_POINT('',(5.358056896,6.678090311,4.330392317));
#1078=DIRECTION('',(-1.,0.,-0.));
#1079=DIRECTION('',(-0.,-1.,0.));
#1080=AXIS2_PLACEMENT_3D('',#1077,#1078,#1079);
#1081=PLANE('',#1080);
#1082=ORIENTED_EDGE('',*,*,#803,.F.);
#1083=CARTESIAN_POINT('',(5.358056896,6.678090311,4.430392317));
#1084=DIRECTION('',(0.,1.,-0.));
#1085=VECTOR('',#1084,0.05);
#1086=LINE('',#1083,#1085);
#1087=EDGE_CURVE('NONE',#789,#994,#1086,.T.);
#1088=ORIENTED_EDGE('',*,*,#1087,.T.);
#1089=ORIENTED_EDGE('',*,*,#999,.T.);
#1090=CARTESIAN_POINT('',(5.358056896,6.728090311,5.830392317));
#1091=DIRECTION('',(-0.,-1.,0.));
#1092=VECTOR('',#1091,0.05);
#1093=LINE('',#1090,#1092);
#1094=EDGE_CURVE('NONE',#985,#798,#1093,.T.);
#1095=ORIENTED_EDGE('',*,*,#1094,.T.);
#1096=EDGE_LOOP('',(#1082,#1088,#1089,#1095));
#1097=FACE_BOUND('',#1096,.T.);
#1098=ADVANCED_FACE('NONE',(#1097),#1081,.F.);
#1099=OVER_RIDING_STYLED_ITEM('',(#172),#1098,#26);
#1100=CARTESIAN_POINT('',(6.658056896,6.708090311,5.130392317));
#1101=DIRECTION('',(0.,1.,-0.));
#1102=DIRECTION('',(-1.,0.,-0.));
#1103=AXIS2_PLACEMENT_3D('',#1100,#1101,#1102);
#1104=PLANE('',#1103);
#1105=ORIENTED_EDGE('',*,*,#99,.T.);
#1106=EDGE_LOOP('',(#1105));
#1107=FACE_BOUND('',#1106,.T.);
#1108=ORIENTED_EDGE('',*,*,#710,.T.);
#1109=CARTESIAN_POINT('',(6.658056896,6.708090311,5.130392317));
#1110=DIRECTION('',(0.,1.,-0.));
#1111=DIRECTION('',(1.,-0.,0.));
#1112=AXIS2_PLACEMENT_3D('',#1109,#1110,#1111);
#1113=CIRCLE('',#1112,1.128585716);
#1114=EDGE_CURVE('NONE',#696,#646,#1113,.T.);
#1115=ORIENTED_EDGE('',*,*,#1114,.T.);
#1116=ORIENTED_EDGE('',*,*,#651,.T.);
#1117=ORIENTED_EDGE('',*,*,#145,.T.);
#1118=CARTESIAN_POINT('',(6.658056896,6.708090311,5.130392317));
#1119=DIRECTION('',(0.,1.,-0.));
#1120=DIRECTION('',(1.,-0.,0.));
#1121=AXIS2_PLACEMENT_3D('',#1118,#1119,#1120);
#1122=CIRCLE('',#1121,1.128585716);
#1123=EDGE_CURVE('NONE',#130,#705,#1122,.T.);
#1124=ORIENTED_EDGE('',*,*,#1123,.T.);
#1125=EDGE_LOOP('',(#1108,#1115,#1116,#1117,#1124));
#1126=FACE_BOUND('',#1125,.T.);
#1127=ADVANCED_FACE('NONE',(#1107,#1126),#1104,.T.);
#1128=OVER_RIDING_STYLED_ITEM('',(#172),#1127,#26);
#1129=CARTESIAN_POINT('',(6.658056896,6.928090311,5.130392317));
#1130=DIRECTION('',(0.,1.,-0.));
#1131=DIRECTION('',(-1.,0.,-0.));
#1132=AXIS2_PLACEMENT_3D('',#1129,#1130,#1131);
#1133=PLANE('',#1132);
#1134=ORIENTED_EDGE('',*,*,#65,.T.);
#1135=EDGE_LOOP('',(#1134));
#1136=FACE_BOUND('',#1135,.T.);
#1137=ADVANCED_FACE('NONE',(#1136),#1133,.T.);
#1138=OVER_RIDING_STYLED_ITEM('',(#76),#1137,#26);
#1139=CARTESIAN_POINT('',(4.908056896,6.278090311,4.480392317));
#1140=DIRECTION('',(0.,0.,1.));
#1141=DIRECTION('',(0.,1.,-0.));
#1142=AXIS2_PLACEMENT_3D('',#1139,#1140,#1141);
#1143=PLANE('',#1142);
#1144=ORIENTED_EDGE('',*,*,#320,.F.);
#1145=CARTESIAN_POINT('',(5.008056896,6.278090311,4.480392317));
#1146=DIRECTION('',(0.,1.,-0.));
#1147=VECTOR('',#1146,0.08);
#1148=LINE('',#1145,#1147);
#1149=EDGE_CURVE('NONE',#306,#397,#1148,.T.);
#1150=ORIENTED_EDGE('',*,*,#1149,.T.);
#1151=ORIENTED_EDGE('',*,*,#402,.T.);
#1152=ORIENTED_EDGE('',*,*,#529,.T.);
#1153=CARTESIAN_POINT('',(5.408056896,6.278090311,4.480392317));
#1154=DIRECTION('',(0.,1.,-0.));
#1155=VECTOR('',#1154,0.08);
#1156=LINE('',#1153,#1155);
#1157=EDGE_CURVE('NONE',#315,#518,#1156,.T.);
#1158=ORIENTED_EDGE('',*,*,#1157,.F.);
#1159=EDGE_LOOP('',(#1144,#1150,#1151,#1152,#1158));
#1160=FACE_BOUND('',#1159,.T.);
#1161=ADVANCED_FACE('NONE',(#1160),#1143,.F.);
#1162=CARTESIAN_POINT('',(5.408056896,6.278090311,5.780392317));
#1163=DIRECTION('',(-1.,0.,-0.));
#1164=DIRECTION('',(-0.,-1.,0.));
#1165=AXIS2_PLACEMENT_3D('',#1162,#1163,#1164);
#1166=PLANE('',#1165);
#1167=ORIENTED_EDGE('',*,*,#523,.T.);
#1168=CARTESIAN_POINT('',(5.408056896,6.278090311,5.780392317));
#1169=DIRECTION('',(0.,1.,-0.));
#1170=VECTOR('',#1169,0.08);
#1171=LINE('',#1168,#1170);
#1172=EDGE_CURVE('NONE',#323,#510,#1171,.T.);
#1173=ORIENTED_EDGE('',*,*,#1172,.F.);
#1174=ORIENTED_EDGE('',*,*,#328,.F.);
#1175=ORIENTED_EDGE('',*,*,#1157,.T.);
#1176=EDGE_LOOP('',(#1167,#1173,#1174,#1175));
#1177=FACE_BOUND('',#1176,.T.);
#1178=ADVANCED_FACE('NONE',(#1177),#1166,.F.);
#1179=CARTESIAN_POINT('',(4.908056896,6.278090311,5.780392317));
#1180=DIRECTION('',(0.,-0.,-1.));
#1181=DIRECTION('',(-0.,-1.,0.));
#1182=AXIS2_PLACEMENT_3D('',#1179,#1180,#1181);
#1183=PLANE('',#1182);
#1184=ORIENTED_EDGE('',*,*,#386,.T.);
#1185=CARTESIAN_POINT('',(5.008056896,6.358090311,5.780392317));
#1186=DIRECTION('',(-0.,-1.,0.));
#1187=VECTOR('',#1186,0.08);
#1188=LINE('',#1185,#1187);
#1189=EDGE_CURVE('NONE',#372,#331,#1188,.T.);
#1190=ORIENTED_EDGE('',*,*,#1189,.T.);
#1191=ORIENTED_EDGE('',*,*,#336,.F.);
#1192=ORIENTED_EDGE('',*,*,#1172,.T.);
#1193=ORIENTED_EDGE('',*,*,#515,.T.);
#1194=EDGE_LOOP('',(#1184,#1190,#1191,#1192,#1193));
#1195=FACE_BOUND('',#1194,.T.);
#1196=ADVANCED_FACE('NONE',(#1195),#1183,.F.);
#1197=CARTESIAN_POINT('',(6.658056896,6.358090311,5.130392317));
#1198=DIRECTION('',(-0.,-1.,0.));
#1199=DIRECTION('',(1.,-0.,0.));
#1200=AXIS2_PLACEMENT_3D('',#1197,#1198,#1199);
#1201=PLANE('',#1200);
#1202=ORIENTED_EDGE('',*,*,#451,.F.);
#1203=CARTESIAN_POINT('',(8.386503694,6.358090311,5.440388006));
#1204=VERTEX_POINT('',#1203);
#1205=CARTESIAN_POINT('',(8.208056896,6.358090311,5.530702681));
#1206=DIRECTION('',(0.,1.,-0.));
#1207=DIRECTION('',(1.,-0.,0.));
#1208=AXIS2_PLACEMENT_3D('',#1205,#1206,#1207);
#1209=CIRCLE('',#1208,0.2);
#1210=EDGE_CURVE('NONE',#438,#1204,#1209,.T.);
#1211=ORIENTED_EDGE('',*,*,#1210,.T.);
#1212=CARTESIAN_POINT('',(8.386503694,6.358090311,4.820396628));
#1213=VERTEX_POINT('',#1212);
#1214=CARTESIAN_POINT('',(8.386503694,6.358090311,5.440388006));
#1215=CARTESIAN_POINT('',(8.229610098,6.358090311,5.130392317));
#1216=CARTESIAN_POINT('',(8.386503694,6.358090311,4.820396628));
#1217=B_SPLINE_CURVE_WITH_KNOTS('',2,(#1214,#1215,#1216),.UNSPECIFIED.,.F.,.F.,(3,3),(0.057149016,0.942850984),.UNSPECIFIED.);
#1218=EDGE_CURVE('NONE',#1204,#1213,#1217,.T.);
#1219=ORIENTED_EDGE('',*,*,#1218,.T.);
#1220=CARTESIAN_POINT('',(8.408056896,6.358090311,4.730081954));
#1221=VERTEX_POINT('',#1220);
#1222=CARTESIAN_POINT('',(8.208056896,6.358090311,4.730081954));
#1223=DIRECTION('',(0.,1.,-0.));
#1224=DIRECTION('',(1.,-0.,0.));
#1225=AXIS2_PLACEMENT_3D('',#1222,#1223,#1224);
#1226=CIRCLE('',#1225,0.2);
#1227=EDGE_CURVE('NONE',#1213,#1221,#1226,.T.);
#1228=ORIENTED_EDGE('',*,*,#1227,.T.);
#1229=CARTESIAN_POINT('',(8.408056896,6.358090311,4.580392317));
#1230=VERTEX_POINT('',#1229);
#1231=CARTESIAN_POINT('',(8.408056896,6.358090311,4.580392317));
#1232=DIRECTION('',(-0.,0.,1.));
#1233=VECTOR('',#1232,0.149689637);
#1234=LINE('',#1231,#1233);
#1235=EDGE_CURVE('NONE',#1230,#1221,#1234,.T.);
#1236=ORIENTED_EDGE('',*,*,#1235,.F.);
#1237=CARTESIAN_POINT('',(8.308056896,6.358090311,4.480392317));
#1238=VERTEX_POINT('',#1237);
#1239=CARTESIAN_POINT('',(8.308056896,6.358090311,4.580392317));
#1240=DIRECTION('',(0.,1.,-0.));
#1241=DIRECTION('',(-1.,0.,-0.));
#1242=AXIS2_PLACEMENT_3D('',#1239,#1240,#1241);
#1243=CIRCLE('',#1242,0.1);
#1244=EDGE_CURVE('NONE',#1230,#1238,#1243,.T.);
#1245=ORIENTED_EDGE('',*,*,#1244,.T.);
#1246=CARTESIAN_POINT('',(8.158056896,6.358090311,4.480392317));
#1247=DIRECTION('',(1.,-0.,0.));
#1248=VECTOR('',#1247,0.15);
#1249=LINE('',#1246,#1248);
#1250=EDGE_CURVE('NONE',#566,#1238,#1249,.T.);
#1251=ORIENTED_EDGE('',*,*,#1250,.F.);
#1252=ORIENTED_EDGE('',*,*,#850,.F.);
#1253=CARTESIAN_POINT('',(8.308056896,6.358090311,5.780392317));
#1254=VERTEX_POINT('',#1253);
#1255=CARTESIAN_POINT('',(8.308056896,6.358090311,5.780392317));
#1256=DIRECTION('',(-1.,0.,-0.));
#1257=VECTOR('',#1256,0.15);
#1258=LINE('',#1255,#1257);
#1259=EDGE_CURVE('NONE',#1254,#470,#1258,.T.);
#1260=ORIENTED_EDGE('',*,*,#1259,.F.);
#1261=CARTESIAN_POINT('',(8.308056896,6.358090311,5.680392317));
#1262=DIRECTION('',(0.,1.,-0.));
#1263=DIRECTION('',(-1.,0.,-0.));
#1264=AXIS2_PLACEMENT_3D('',#1261,#1262,#1263);
#1265=CIRCLE('',#1264,0.1);
#1266=EDGE_CURVE('NONE',#1254,#446,#1265,.T.);
#1267=ORIENTED_EDGE('',*,*,#1266,.T.);
#1268=EDGE_LOOP('',(#1202,#1211,#1219,#1228,#1236,#1245,#1251,#1252,#1260,#1267));
#1269=FACE_BOUND('',#1268,.T.);
#1270=ADVANCED_FACE('NONE',(#1269),#1201,.F.);
#1271=CARTESIAN_POINT('',(7.908056896,6.278090311,5.780392317));
#1272=DIRECTION('',(1.,-0.,0.));
#1273=DIRECTION('',(0.,1.,-0.));
#1274=AXIS2_PLACEMENT_3D('',#1271,#1272,#1273);
#1275=PLANE('',#1274);
#1276=ORIENTED_EDGE('',*,*,#587,.T.);
#1277=CARTESIAN_POINT('',(7.908056896,6.278090311,4.480392317));
#1278=VERTEX_POINT('',#1277);
#1279=CARTESIAN_POINT('',(7.908056896,6.278090311,4.480392317));
#1280=DIRECTION('',(0.,1.,-0.));
#1281=VECTOR('',#1280,0.08);
#1282=LINE('',#1279,#1281);
#1283=EDGE_CURVE('NONE',#1278,#574,#1282,.T.);
#1284=ORIENTED_EDGE('',*,*,#1283,.F.);
#1285=CARTESIAN_POINT('',(7.908056896,6.278090311,5.780392317));
#1286=VERTEX_POINT('',#1285);
#1287=CARTESIAN_POINT('',(7.908056896,6.278090311,5.780392317));
#1288=DIRECTION('',(-0.,-0.,-1.));
#1289=VECTOR('',#1288,1.3);
#1290=LINE('',#1287,#1289);
#1291=EDGE_CURVE('NONE',#1286,#1278,#1290,.T.);
#1292=ORIENTED_EDGE('',*,*,#1291,.F.);
#1293=CARTESIAN_POINT('',(7.908056896,6.278090311,5.780392317));
#1294=DIRECTION('',(0.,1.,-0.));
#1295=VECTOR('',#1294,0.08);
#1296=LINE('',#1293,#1295);
#1297=EDGE_CURVE('NONE',#1286,#582,#1296,.T.);
#1298=ORIENTED_EDGE('',*,*,#1297,.T.);
#1299=EDGE_LOOP('',(#1276,#1284,#1292,#1298));
#1300=FACE_BOUND('',#1299,.T.);
#1301=ADVANCED_FACE('NONE',(#1300),#1275,.F.);
#1302=CARTESIAN_POINT('',(7.908056896,6.278090311,4.480392317));
#1303=DIRECTION('',(0.,0.,1.));
#1304=DIRECTION('',(0.,1.,-0.));
#1305=AXIS2_PLACEMENT_3D('',#1302,#1303,#1304);
#1306=PLANE('',#1305);
#1307=ORIENTED_EDGE('',*,*,#1250,.T.);
#1308=CARTESIAN_POINT('',(8.308056896,6.278090311,4.480392317));
#1309=VERTEX_POINT('',#1308);
#1310=CARTESIAN_POINT('',(8.308056896,6.358090311,4.480392317));
#1311=DIRECTION('',(-0.,-1.,0.));
#1312=VECTOR('',#1311,0.08);
#1313=LINE('',#1310,#1312);
#1314=EDGE_CURVE('NONE',#1238,#1309,#1313,.T.);
#1315=ORIENTED_EDGE('',*,*,#1314,.T.);
#1316=CARTESIAN_POINT('',(7.908056896,6.278090311,4.480392317));
#1317=DIRECTION('',(1.,-0.,0.));
#1318=VECTOR('',#1317,0.4);
#1319=LINE('',#1316,#1318);
#1320=EDGE_CURVE('NONE',#1278,#1309,#1319,.T.);
#1321=ORIENTED_EDGE('',*,*,#1320,.F.);
#1322=ORIENTED_EDGE('',*,*,#1283,.T.);
#1323=ORIENTED_EDGE('',*,*,#579,.T.);
#1324=EDGE_LOOP('',(#1307,#1315,#1321,#1322,#1323));
#1325=FACE_BOUND('',#1324,.T.);
#1326=ADVANCED_FACE('NONE',(#1325),#1306,.F.);
#1327=CARTESIAN_POINT('',(8.408056896,6.278090311,5.780392317));
#1328=DIRECTION('',(-1.,0.,-0.));
#1329=DIRECTION('',(-0.,0.,1.));
#1330=AXIS2_PLACEMENT_3D('',#1327,#1328,#1329);
#1331=PLANE('',#1330);
#1332=ORIENTED_EDGE('',*,*,#1235,.T.);
#1333=CARTESIAN_POINT('',(8.408056896,6.278090311,4.730081954));
#1334=VERTEX_POINT('',#1333);
#1335=CARTESIAN_POINT('',(8.408056896,6.358090311,4.730081954));
#1336=DIRECTION('',(-0.,-1.,0.));
#1337=VECTOR('',#1336,0.08);
#1338=LINE('',#1335,#1337);
#1339=EDGE_CURVE('NONE',#1221,#1334,#1338,.T.);
#1340=ORIENTED_EDGE('',*,*,#1339,.T.);
#1341=CARTESIAN_POINT('',(8.408056896,6.278090311,4.580392317));
#1342=VERTEX_POINT('',#1341);
#1343=CARTESIAN_POINT('',(8.408056896,6.278090311,4.580392317));
#1344=DIRECTION('',(0.,0.,1.));
#1345=VECTOR('',#1344,0.149689637);
#1346=LINE('',#1343,#1345);
#1347=EDGE_CURVE('NONE',#1342,#1334,#1346,.T.);
#1348=ORIENTED_EDGE('',*,*,#1347,.F.);
#1349=CARTESIAN_POINT('',(8.408056896,6.278090311,4.580392317));
#1350=DIRECTION('',(0.,1.,-0.));
#1351=VECTOR('',#1350,0.08);
#1352=LINE('',#1349,#1351);
#1353=EDGE_CURVE('NONE',#1342,#1230,#1352,.T.);
#1354=ORIENTED_EDGE('',*,*,#1353,.T.);
#1355=EDGE_LOOP('',(#1332,#1340,#1348,#1354));
#1356=FACE_BOUND('',#1355,.T.);
#1357=ADVANCED_FACE('NONE',(#1356),#1331,.F.);
#1358=CARTESIAN_POINT('',(7.908056896,6.278090311,5.780392317));
#1359=DIRECTION('',(0.,-0.,-1.));
#1360=DIRECTION('',(-0.,-1.,0.));
#1361=AXIS2_PLACEMENT_3D('',#1358,#1359,#1360);
#1362=PLANE('',#1361);
#1363=CARTESIAN_POINT('',(8.308056896,6.278090311,5.780392317));
#1364=VERTEX_POINT('',#1363);
#1365=CARTESIAN_POINT('',(8.308056896,6.278090311,5.780392317));
#1366=DIRECTION('',(-1.,0.,-0.));
#1367=VECTOR('',#1366,0.4);
#1368=LINE('',#1365,#1367);
#1369=EDGE_CURVE('NONE',#1364,#1286,#1368,.T.);
#1370=ORIENTED_EDGE('',*,*,#1369,.F.);
#1371=CARTESIAN_POINT('',(8.308056896,6.278090311,5.780392317));
#1372=DIRECTION('',(0.,1.,-0.));
#1373=VECTOR('',#1372,0.08);
#1374=LINE('',#1371,#1373);
#1375=EDGE_CURVE('NONE',#1364,#1254,#1374,.T.);
#1376=ORIENTED_EDGE('',*,*,#1375,.T.);
#1377=ORIENTED_EDGE('',*,*,#1259,.T.);
#1378=ORIENTED_EDGE('',*,*,#593,.T.);
#1379=ORIENTED_EDGE('',*,*,#1297,.F.);
#1380=EDGE_LOOP('',(#1370,#1376,#1377,#1378,#1379));
#1381=FACE_BOUND('',#1380,.T.);
#1382=ADVANCED_FACE('NONE',(#1381),#1362,.F.);
#1383=CARTESIAN_POINT('',(6.658056896,6.278090311,5.130392317));
#1384=DIRECTION('',(-0.,-1.,0.));
#1385=DIRECTION('',(1.,-0.,0.));
#1386=AXIS2_PLACEMENT_3D('',#1383,#1384,#1385);
#1387=PLANE('',#1386);
#1388=CARTESIAN_POINT('',(8.386503694,6.278090311,5.440388006));
#1389=VERTEX_POINT('',#1388);
#1390=CARTESIAN_POINT('',(8.386503694,6.278090311,4.820396628));
#1391=VERTEX_POINT('',#1390);
#1392=CARTESIAN_POINT('',(8.386503694,6.278090311,5.440388006));
#1393=CARTESIAN_POINT('',(8.229610098,6.278090311,5.130392317));
#1394=CARTESIAN_POINT('',(8.386503694,6.278090311,4.820396628));
#1395=B_SPLINE_CURVE_WITH_KNOTS('',2,(#1392,#1393,#1394),.UNSPECIFIED.,.F.,.F.,(3,3),(0.057149016,0.942850984),.UNSPECIFIED.);
#1396=EDGE_CURVE('NONE',#1389,#1391,#1395,.T.);
#1397=ORIENTED_EDGE('',*,*,#1396,.F.);
#1398=CARTESIAN_POINT('',(8.208056896,6.278090311,5.530702681));
#1399=DIRECTION('',(-0.,-1.,0.));
#1400=DIRECTION('',(1.,-0.,0.));
#1401=AXIS2_PLACEMENT_3D('',#1398,#1399,#1400);
#1402=CIRCLE('',#1401,0.2);
#1403=EDGE_CURVE('NONE',#1389,#428,#1402,.T.);
#1404=ORIENTED_EDGE('',*,*,#1403,.T.);
#1405=ORIENTED_EDGE('',*,*,#435,.T.);
#1406=CARTESIAN_POINT('',(8.308056896,6.278090311,5.680392317));
#1407=DIRECTION('',(-0.,-1.,0.));
#1408=DIRECTION('',(-1.,0.,-0.));
#1409=AXIS2_PLACEMENT_3D('',#1406,#1407,#1408);
#1410=CIRCLE('',#1409,0.1);
#1411=EDGE_CURVE('NONE',#430,#1364,#1410,.T.);
#1412=ORIENTED_EDGE('',*,*,#1411,.T.);
#1413=ORIENTED_EDGE('',*,*,#1369,.T.);
#1414=ORIENTED_EDGE('',*,*,#1291,.T.);
#1415=ORIENTED_EDGE('',*,*,#1320,.T.);
#1416=CARTESIAN_POINT('',(8.308056896,6.278090311,4.580392317));
#1417=DIRECTION('',(-0.,-1.,0.));
#1418=DIRECTION('',(-1.,0.,-0.));
#1419=AXIS2_PLACEMENT_3D('',#1416,#1417,#1418);
#1420=CIRCLE('',#1419,0.1);
#1421=EDGE_CURVE('NONE',#1309,#1342,#1420,.T.);
#1422=ORIENTED_EDGE('',*,*,#1421,.T.);
#1423=ORIENTED_EDGE('',*,*,#1347,.T.);
#1424=CARTESIAN_POINT('',(8.208056896,6.278090311,4.730081954));
#1425=DIRECTION('',(-0.,-1.,0.));
#1426=DIRECTION('',(1.,-0.,0.));
#1427=AXIS2_PLACEMENT_3D('',#1424,#1425,#1426);
#1428=CIRCLE('',#1427,0.2);
#1429=EDGE_CURVE('NONE',#1334,#1391,#1428,.T.);
#1430=ORIENTED_EDGE('',*,*,#1429,.T.);
#1431=EDGE_LOOP('',(#1397,#1404,#1405,#1412,#1413,#1414,#1415,#1422,#1423,#1430));
#1432=FACE_BOUND('',#1431,.T.);
#1433=ADVANCED_FACE('NONE',(#1432),#1387,.T.);
#1434=CARTESIAN_POINT('',(8.386503694,6.358090311,5.440388006));
#1435=CARTESIAN_POINT('',(8.386503694,6.278090311,5.440388006));
#1436=CARTESIAN_POINT('',(8.229610098,6.358090311,5.130392317));
#1437=CARTESIAN_POINT('',(8.229610098,6.278090311,5.130392317));
#1438=CARTESIAN_POINT('',(8.386503694,6.358090311,4.820396628));
#1439=CARTESIAN_POINT('',(8.386503694,6.278090311,4.820396628));
#1440=B_SPLINE_SURFACE_WITH_KNOTS('',2,1,((#1434,#1435),(#1436,#1437),(#1438,#1439)),.UNSPECIFIED.,.F.,.F.,.U.,(3,3),(2,2),(0.057149016,0.942850984),(0.,1.),.UNSPECIFIED.);
#1441=ORIENTED_EDGE('',*,*,#1218,.F.);
#1442=CARTESIAN_POINT('',(8.386503694,6.358090311,5.440388006));
#1443=DIRECTION('',(-0.,-1.,0.));
#1444=VECTOR('',#1443,0.08);
#1445=LINE('',#1442,#1444);
#1446=EDGE_CURVE('NONE',#1204,#1389,#1445,.T.);
#1447=ORIENTED_EDGE('',*,*,#1446,.T.);
#1448=ORIENTED_EDGE('',*,*,#1396,.T.);
#1449=CARTESIAN_POINT('',(8.386503694,6.278090311,4.820396628));
#1450=DIRECTION('',(0.,1.,-0.));
#1451=VECTOR('',#1450,0.08);
#1452=LINE('',#1449,#1451);
#1453=EDGE_CURVE('NONE',#1391,#1213,#1452,.T.);
#1454=ORIENTED_EDGE('',*,*,#1453,.T.);
#1455=EDGE_LOOP('',(#1441,#1447,#1448,#1454));
#1456=FACE_BOUND('',#1455,.T.);
#1457=ADVANCED_FACE('NONE',(#1456),#1440,.F.);
#1458=CARTESIAN_POINT('',(4.929610098,6.358090311,5.440388006));
#1459=CARTESIAN_POINT('',(4.929610098,6.278090311,5.440388006));
#1460=CARTESIAN_POINT('',(5.086503694,6.358090311,5.130392317));
#1461=CARTESIAN_POINT('',(5.086503694,6.278090311,5.130392317));
#1462=CARTESIAN_POINT('',(4.929610098,6.358090311,4.820396628));
#1463=CARTESIAN_POINT('',(4.929610098,6.278090311,4.820396628));
#1464=B_SPLINE_SURFACE_WITH_KNOTS('',2,1,((#1458,#1459),(#1460,#1461),(#1462,#1463)),.UNSPECIFIED.,.F.,.F.,.U.,(3,3),(2,2),(0.057149016,0.942850984),(0.,1.),.UNSPECIFIED.);
#1465=ORIENTED_EDGE('',*,*,#295,.F.);
#1466=CARTESIAN_POINT('',(4.929610098,6.278090311,5.440388006));
#1467=DIRECTION('',(0.,1.,-0.));
#1468=VECTOR('',#1467,0.08);
#1469=LINE('',#1466,#1468);
#1470=EDGE_CURVE('NONE',#281,#354,#1469,.T.);
#1471=ORIENTED_EDGE('',*,*,#1470,.T.);
#1472=ORIENTED_EDGE('',*,*,#361,.T.);
#1473=CARTESIAN_POINT('',(4.929610098,6.358090311,4.820396628));
#1474=DIRECTION('',(-0.,-1.,0.));
#1475=VECTOR('',#1474,0.08);
#1476=LINE('',#1473,#1475);
#1477=EDGE_CURVE('NONE',#356,#290,#1476,.T.);
#1478=ORIENTED_EDGE('',*,*,#1477,.T.);
#1479=EDGE_LOOP('',(#1465,#1471,#1472,#1478));
#1480=FACE_BOUND('',#1479,.T.);
#1481=ADVANCED_FACE('NONE',(#1480),#1464,.T.);
#1482=CARTESIAN_POINT('',(5.458056896,6.678090311,4.430392317));
#1483=DIRECTION('',(-0.,-1.,0.));
#1484=DIRECTION('',(1.,-0.,0.));
#1485=AXIS2_PLACEMENT_3D('',#1482,#1483,#1484);
#1486=CYLINDRICAL_SURFACE('',#1485,0.1);
#1487=ORIENTED_EDGE('',*,*,#795,.F.);
#1488=ORIENTED_EDGE('',*,*,#685,.F.);
#1489=ORIENTED_EDGE('',*,*,#1006,.F.);
#1490=ORIENTED_EDGE('',*,*,#1087,.F.);
#1491=EDGE_LOOP('',(#1487,#1488,#1489,#1490));
#1492=FACE_BOUND('',#1491,.T.);
#1493=ADVANCED_FACE('NONE',(#1492),#1486,.F.);
#1494=OVER_RIDING_STYLED_ITEM('',(#172),#1493,#26);
#1495=CARTESIAN_POINT('',(5.458056896,6.678090311,5.830392317));
#1496=DIRECTION('',(-0.,-1.,0.));
#1497=DIRECTION('',(1.,-0.,0.));
#1498=AXIS2_PLACEMENT_3D('',#1495,#1496,#1497);
#1499=CYLINDRICAL_SURFACE('',#1498,0.1);
#1500=ORIENTED_EDGE('',*,*,#810,.F.);
#1501=ORIENTED_EDGE('',*,*,#1094,.F.);
#1502=ORIENTED_EDGE('',*,*,#991,.F.);
#1503=ORIENTED_EDGE('',*,*,#620,.F.);
#1504=EDGE_LOOP('',(#1500,#1501,#1502,#1503));
#1505=FACE_BOUND('',#1504,.T.);
#1506=ADVANCED_FACE('NONE',(#1505),#1499,.F.);
#1507=OVER_RIDING_STYLED_ITEM('',(#172),#1506,#26);
#1508=CARTESIAN_POINT('',(7.858056896,6.678090311,4.430392317));
#1509=DIRECTION('',(-0.,-1.,0.));
#1510=DIRECTION('',(1.,-0.,0.));
#1511=AXIS2_PLACEMENT_3D('',#1508,#1509,#1510);
#1512=CYLINDRICAL_SURFACE('',#1511,0.1);
#1513=ORIENTED_EDGE('',*,*,#759,.F.);
#1514=ORIENTED_EDGE('',*,*,#1064,.F.);
#1515=ORIENTED_EDGE('',*,*,#1014,.F.);
#1516=ORIENTED_EDGE('',*,*,#733,.F.);
#1517=EDGE_LOOP('',(#1513,#1514,#1515,#1516));
#1518=FACE_BOUND('',#1517,.T.);
#1519=ADVANCED_FACE('NONE',(#1518),#1512,.F.);
#1520=OVER_RIDING_STYLED_ITEM('',(#172),#1519,#26);
#1521=CARTESIAN_POINT('',(7.858056896,6.678090311,5.830392317));
#1522=DIRECTION('',(-0.,-1.,0.));
#1523=DIRECTION('',(1.,-0.,0.));
#1524=AXIS2_PLACEMENT_3D('',#1521,#1522,#1523);
#1525=CYLINDRICAL_SURFACE('',#1524,0.1);
#1526=ORIENTED_EDGE('',*,*,#776,.F.);
#1527=ORIENTED_EDGE('',*,*,#636,.F.);
#1528=ORIENTED_EDGE('',*,*,#981,.F.);
#1529=ORIENTED_EDGE('',*,*,#1071,.F.);
#1530=EDGE_LOOP('',(#1526,#1527,#1528,#1529));
#1531=FACE_BOUND('',#1530,.T.);
#1532=ADVANCED_FACE('NONE',(#1531),#1525,.F.);
#1533=OVER_RIDING_STYLED_ITEM('',(#172),#1532,#26);
#1534=CARTESIAN_POINT('',(6.658056896,6.608090311,5.130392317));
#1535=DIRECTION('',(-0.,-1.,0.));
#1536=DIRECTION('',(1.,-0.,0.));
#1537=AXIS2_PLACEMENT_3D('',#1534,#1535,#1536);
#1538=TOROIDAL_SURFACE('',#1537,1.128585716,0.1);
#1539=ORIENTED_EDGE('',*,*,#702,.F.);
#1540=ORIENTED_EDGE('',*,*,#818,.T.);
#1541=ORIENTED_EDGE('',*,*,#658,.F.);
#1542=ORIENTED_EDGE('',*,*,#1114,.F.);
#1543=EDGE_LOOP('',(#1539,#1540,#1541,#1542));
#1544=FACE_BOUND('',#1543,.T.);
#1545=ADVANCED_FACE('NONE',(#1544),#1538,.T.);
#1546=OVER_RIDING_STYLED_ITEM('',(#172),#1545,#26);
#1547=CARTESIAN_POINT('',(8.058056896,6.728090311,6.030392317));
#1548=DIRECTION('',(-0.,-1.,0.));
#1549=DIRECTION('',(1.,-0.,0.));
#1550=AXIS2_PLACEMENT_3D('',#1547,#1548,#1549);
#1551=CYLINDRICAL_SURFACE('',#1550,0.1);
#1552=ORIENTED_EDGE('',*,*,#1024,.F.);
#1553=ORIENTED_EDGE('',*,*,#941,.F.);
#1554=ORIENTED_EDGE('',*,*,#484,.F.);
#1555=ORIENTED_EDGE('',*,*,#843,.F.);
#1556=EDGE_LOOP('',(#1552,#1553,#1554,#1555));
#1557=FACE_BOUND('',#1556,.T.);
#1558=ADVANCED_FACE('NONE',(#1557),#1551,.T.);
#1559=OVER_RIDING_STYLED_ITEM('',(#76),#1558,#26);
#1560=CARTESIAN_POINT('',(5.258056896,6.728090311,6.030392317));
#1561=DIRECTION('',(-0.,-1.,0.));
#1562=DIRECTION('',(1.,-0.,0.));
#1563=AXIS2_PLACEMENT_3D('',#1560,#1561,#1562);
#1564=CYLINDRICAL_SURFACE('',#1563,0.1);
#1565=ORIENTED_EDGE('',*,*,#1048,.F.);
#1566=ORIENTED_EDGE('',*,*,#907,.F.);
#1567=ORIENTED_EDGE('',*,*,#501,.F.);
#1568=ORIENTED_EDGE('',*,*,#955,.F.);
#1569=EDGE_LOOP('',(#1565,#1566,#1567,#1568));
#1570=FACE_BOUND('',#1569,.T.);
#1571=ADVANCED_FACE('NONE',(#1570),#1564,.T.);
#1572=OVER_RIDING_STYLED_ITEM('',(#76),#1571,#26);
#1573=CARTESIAN_POINT('',(5.258056896,6.728090311,4.230392317));
#1574=DIRECTION('',(-0.,-1.,0.));
#1575=DIRECTION('',(1.,-0.,0.));
#1576=AXIS2_PLACEMENT_3D('',#1573,#1574,#1575);
#1577=CYLINDRICAL_SURFACE('',#1576,0.1);
#1578=ORIENTED_EDGE('',*,*,#1040,.F.);
#1579=ORIENTED_EDGE('',*,*,#875,.F.);
#1580=ORIENTED_EDGE('',*,*,#546,.F.);
#1581=ORIENTED_EDGE('',*,*,#921,.F.);
#1582=EDGE_LOOP('',(#1578,#1579,#1580,#1581));
#1583=FACE_BOUND('',#1582,.T.);
#1584=ADVANCED_FACE('NONE',(#1583),#1577,.T.);
#1585=OVER_RIDING_STYLED_ITEM('',(#76),#1584,#26);
#1586=CARTESIAN_POINT('',(8.058056896,6.728090311,4.230392317));
#1587=DIRECTION('',(-0.,-1.,0.));
#1588=DIRECTION('',(1.,-0.,0.));
#1589=AXIS2_PLACEMENT_3D('',#1586,#1587,#1588);
#1590=CYLINDRICAL_SURFACE('',#1589,0.1);
#1591=ORIENTED_EDGE('',*,*,#1032,.F.);
#1592=ORIENTED_EDGE('',*,*,#857,.F.);
#1593=ORIENTED_EDGE('',*,*,#563,.F.);
#1594=ORIENTED_EDGE('',*,*,#889,.F.);
#1595=EDGE_LOOP('',(#1591,#1592,#1593,#1594));
#1596=FACE_BOUND('',#1595,.T.);
#1597=ADVANCED_FACE('NONE',(#1596),#1590,.T.);
#1598=OVER_RIDING_STYLED_ITEM('',(#76),#1597,#26);
#1599=CARTESIAN_POINT('',(5.008056896,6.278090311,5.680392317));
#1600=DIRECTION('',(0.,1.,-0.));
#1601=DIRECTION('',(-1.,0.,-0.));
#1602=AXIS2_PLACEMENT_3D('',#1599,#1600,#1601);
#1603=CYLINDRICAL_SURFACE('',#1602,0.1);
#1604=ORIENTED_EDGE('',*,*,#343,.F.);
#1605=ORIENTED_EDGE('',*,*,#1189,.F.);
#1606=ORIENTED_EDGE('',*,*,#378,.F.);
#1607=ORIENTED_EDGE('',*,*,#229,.F.);
#1608=EDGE_LOOP('',(#1604,#1605,#1606,#1607));
#1609=FACE_BOUND('',#1608,.T.);
#1610=ADVANCED_FACE('NONE',(#1609),#1603,.T.);
#1611=CARTESIAN_POINT('',(5.008056896,6.278090311,4.580392317));
#1612=DIRECTION('',(0.,1.,-0.));
#1613=DIRECTION('',(-1.,0.,-0.));
#1614=AXIS2_PLACEMENT_3D('',#1611,#1612,#1613);
#1615=CYLINDRICAL_SURFACE('',#1614,0.1);
#1616=ORIENTED_EDGE('',*,*,#312,.F.);
#1617=ORIENTED_EDGE('',*,*,#269,.F.);
#1618=ORIENTED_EDGE('',*,*,#409,.F.);
#1619=ORIENTED_EDGE('',*,*,#1149,.F.);
#1620=EDGE_LOOP('',(#1616,#1617,#1618,#1619));
#1621=FACE_BOUND('',#1620,.T.);
#1622=ADVANCED_FACE('NONE',(#1621),#1615,.T.);
#1623=CARTESIAN_POINT('',(8.308056896,6.278090311,5.680392317));
#1624=DIRECTION('',(0.,1.,-0.));
#1625=DIRECTION('',(-1.,0.,-0.));
#1626=AXIS2_PLACEMENT_3D('',#1623,#1624,#1625);
#1627=CYLINDRICAL_SURFACE('',#1626,0.1);
#1628=ORIENTED_EDGE('',*,*,#1411,.F.);
#1629=ORIENTED_EDGE('',*,*,#457,.F.);
#1630=ORIENTED_EDGE('',*,*,#1266,.F.);
#1631=ORIENTED_EDGE('',*,*,#1375,.F.);
#1632=EDGE_LOOP('',(#1628,#1629,#1630,#1631));
#1633=FACE_BOUND('',#1632,.T.);
#1634=ADVANCED_FACE('NONE',(#1633),#1627,.T.);
#1635=CARTESIAN_POINT('',(8.308056896,6.278090311,4.580392317));
#1636=DIRECTION('',(0.,1.,-0.));
#1637=DIRECTION('',(-1.,0.,-0.));
#1638=AXIS2_PLACEMENT_3D('',#1635,#1636,#1637);
#1639=CYLINDRICAL_SURFACE('',#1638,0.1);
#1640=ORIENTED_EDGE('',*,*,#1421,.F.);
#1641=ORIENTED_EDGE('',*,*,#1314,.F.);
#1642=ORIENTED_EDGE('',*,*,#1244,.F.);
#1643=ORIENTED_EDGE('',*,*,#1353,.F.);
#1644=EDGE_LOOP('',(#1640,#1641,#1642,#1643));
#1645=FACE_BOUND('',#1644,.T.);
#1646=ADVANCED_FACE('NONE',(#1645),#1639,.T.);
#1647=CARTESIAN_POINT('',(5.108056896,6.318090311,5.530702681));
#1648=DIRECTION('',(-0.,-1.,0.));
#1649=DIRECTION('',(1.,-0.,0.));
#1650=AXIS2_PLACEMENT_3D('',#1647,#1648,#1649);
#1651=CYLINDRICAL_SURFACE('',#1650,0.2);
#1652=ORIENTED_EDGE('',*,*,#368,.F.);
#1653=ORIENTED_EDGE('',*,*,#1470,.F.);
#1654=ORIENTED_EDGE('',*,*,#287,.F.);
#1655=ORIENTED_EDGE('',*,*,#215,.F.);
#1656=EDGE_LOOP('',(#1652,#1653,#1654,#1655));
#1657=FACE_BOUND('',#1656,.T.);
#1658=ADVANCED_FACE('NONE',(#1657),#1651,.T.);
#1659=CARTESIAN_POINT('',(5.108056896,6.318090311,4.730081954));
#1660=DIRECTION('',(-0.,-1.,0.));
#1661=DIRECTION('',(1.,-0.,0.));
#1662=AXIS2_PLACEMENT_3D('',#1659,#1660,#1661);
#1663=CYLINDRICAL_SURFACE('',#1662,0.2);
#1664=ORIENTED_EDGE('',*,*,#417,.F.);
#1665=ORIENTED_EDGE('',*,*,#255,.F.);
#1666=ORIENTED_EDGE('',*,*,#302,.F.);
#1667=ORIENTED_EDGE('',*,*,#1477,.F.);
#1668=EDGE_LOOP('',(#1664,#1665,#1666,#1667));
#1669=FACE_BOUND('',#1668,.T.);
#1670=ADVANCED_FACE('NONE',(#1669),#1663,.T.);
#1671=CARTESIAN_POINT('',(8.208056896,6.318090311,5.530702681));
#1672=DIRECTION('',(-0.,-1.,0.));
#1673=DIRECTION('',(1.,-0.,0.));
#1674=AXIS2_PLACEMENT_3D('',#1671,#1672,#1673);
#1675=CYLINDRICAL_SURFACE('',#1674,0.2);
#1676=ORIENTED_EDGE('',*,*,#1210,.F.);
#1677=ORIENTED_EDGE('',*,*,#443,.F.);
#1678=ORIENTED_EDGE('',*,*,#1403,.F.);
#1679=ORIENTED_EDGE('',*,*,#1446,.F.);
#1680=EDGE_LOOP('',(#1676,#1677,#1678,#1679));
#1681=FACE_BOUND('',#1680,.T.);
#1682=ADVANCED_FACE('NONE',(#1681),#1675,.T.);
#1683=CARTESIAN_POINT('',(8.208056896,6.318090311,4.730081954));
#1684=DIRECTION('',(-0.,-1.,0.));
#1685=DIRECTION('',(1.,-0.,0.));
#1686=AXIS2_PLACEMENT_3D('',#1683,#1684,#1685);
#1687=CYLINDRICAL_SURFACE('',#1686,0.2);
#1688=ORIENTED_EDGE('',*,*,#1227,.F.);
#1689=ORIENTED_EDGE('',*,*,#1453,.F.);
#1690=ORIENTED_EDGE('',*,*,#1429,.F.);
#1691=ORIENTED_EDGE('',*,*,#1339,.F.);
#1692=EDGE_LOOP('',(#1688,#1689,#1690,#1691));
#1693=FACE_BOUND('',#1692,.T.);
#1694=ADVANCED_FACE('NONE',(#1693),#1687,.T.);
#1695=CARTESIAN_POINT('',(6.658056896,6.608090311,5.130392317));
#1696=DIRECTION('',(-0.,-1.,0.));
#1697=DIRECTION('',(1.,-0.,0.));
#1698=AXIS2_PLACEMENT_3D('',#1695,#1696,#1697);
#1699=TOROIDAL_SURFACE('',#1698,1.128585716,0.1);
#1700=ORIENTED_EDGE('',*,*,#136,.F.);
#1701=ORIENTED_EDGE('',*,*,#767,.T.);
#1702=ORIENTED_EDGE('',*,*,#719,.F.);
#1703=ORIENTED_EDGE('',*,*,#1123,.F.);
#1704=EDGE_LOOP('',(#1700,#1701,#1702,#1703));
#1705=FACE_BOUND('',#1704,.T.);
#1706=ADVANCED_FACE('NONE',(#1705),#1699,.T.);
#1707=OVER_RIDING_STYLED_ITEM('',(#172),#1706,#26);
#1708=CLOSED_SHELL('',(#69,#120,#165,#192,#233,#273,#347,#421,#461,#597,#662,#737,#780,#822,#861,#893,#927,#959,#1052,#1075,#1098,#1127,#1137,#1161,#1178,#1196,
#1270,#1301,#1326,#1357,#1382,#1433,#1457,#1481,#1493,#1506,#1519,#1532,#1545,#1558,#1571,#1584,#1597,#1610,#1622,#1634,#1646,#1658,#1670,#1682,#1694,
#1706));
#1709=MANIFOLD_SOLID_BREP('BTN',#1708);
#1710=DRAUGHTING_PRE_DEFINED_COLOUR('white');
#1711=FILL_AREA_STYLE_COLOUR('',#1710);
#1712=FILL_AREA_STYLE('',(#1711));
#1713=SURFACE_STYLE_FILL_AREA(#1712);
#1714=SURFACE_SIDE_STYLE('',(#1713));
#1715=SURFACE_STYLE_USAGE(.BOTH.,#1714);
#1716=PRESENTATION_STYLE_ASSIGNMENT((#1715));
#26=STYLED_ITEM('',(#1716),#1709);
#16=SHAPE_REPRESENTATION('BTN',(#15),#10);
#17=ADVANCED_BREP_SHAPE_REPRESENTATION('BTN',(#1709),#10);
#1724=SHAPE_REPRESENTATION_RELATIONSHIP('','',#16,#17);
#1725=CARTESIAN_POINT('',(0.,0.,0.));
#1726=DIRECTION('',(0.,0.,1.));
#1727=DIRECTION('',(1.,0.,0.));
#1728=AXIS2_PLACEMENT_3D('',#1725,#1726,#1727);
#1730=MAPPED_ITEM('',#1729,#1728);
#1729=REPRESENTATION_MAP(#1728,#16);
#1731=APPLICATION_CONTEXT('Managed model based 3d engineering');
#1732=APPLICATION_PROTOCOL_DEFINITION('international standard','ap242_managed_model_based_3d_engineering',2014,#1731);
#1733=PRODUCT_CONTEXT('',#1731,'mechanical');
#1734=PRODUCT_DEFINITION_CONTEXT('part definition',#1731,'design');
#24=PRODUCT('BTN','BTN','',(#1733));
#1735=PRODUCT_RELATED_PRODUCT_CATEGORY('part','',(#24));
#1736=PRODUCT_DEFINITION_FORMATION_WITH_SPECIFIED_SOURCE('','',#24,.NOT_KNOWN.);
#25=PRODUCT_DEFINITION('design','',#1736,#1734);
#23=PRODUCT_DEFINITION_SHAPE('','',#25);
#1737=SHAPE_DEFINITION_REPRESENTATION(#23,#16);
#11=DRAUGHTING_MODEL('',(#1730),#10);
#1738=DESCRIPTIVE_REPRESENTATION_ITEM('KEY','C:\\Users\\Nalani\\AppData\\Local\\Packages\\Shapr3D.Shapr3D_j403pzjkqtqbj\\TempState\\383e3283-4eb7-4c3e-bb5b-47a4e26d42ef.tmp');
#1739=PROPERTY_DEFINITION('KEY','',#25);
#1740=REPRESENTATION('',(#1738),#10);
#1741=PROPERTY_DEFINITION_REPRESENTATION(#1739,#1740);
#1742=GENERAL_PROPERTY('','KEY','');
#1743=GENERAL_PROPERTY_ASSOCIATION('','',#1742,#1739);
#1=MECHANICAL_DESIGN_GEOMETRIC_PRESENTATION_REPRESENTATION('',(#77,#121,#173,#193,#598,#663,#738,#781,#823,#862,#894,#928,#960,#1053,#1076,#1099,#1128,#1138,#1494,#1507,#1520,#1533,#1546,#1559,#1572,#1585,
#1598,#1707,#26),#10);
ENDSEC;
END-ISO-10303-21;
