ISO-10303-21;
HEADER;

/* File generated by Shapr3D Version 26.123.11423.0 */

FILE_DESCRIPTION(('HOOPS Exchange Step'),'2;1');

FILE_NAME('C:\\Users\\Nalani\\AppData\\Local\\Packages\\Shapr3D.Shapr3D_j403pzjkqtqbj\\TempState\\export\\temp_export',
'2026-08-03T16:12:13+08:00',
('Nalani'),
('Shapr3D Limited'),
'HOOPS Exchange 2026.3',
'Shapr3D',
'Authorized');

FILE_SCHEMA( ('AP242_MANAGED_MODEL_BASED_3D_ENGINEERING_MIM_LF {1 0 10303 442 1 1 4}') );

ENDSEC;

DATA;
#3=(NAMED_UNIT(*)PLANE_ANGLE_UNIT()SI_UNIT($,.RADIAN.));
#4=PLANE_ANGLE_MEASURE_WITH_UNIT(PLANE_ANGLE_MEASURE(0.0174532925),#3);
#5=(CONVERSION_BASED_UNIT('DEGREE',#4)NAMED_UNIT(#6)PLANE_ANGLE_UNIT());
#6=DIMENSIONAL_EXPONENTS(0.,0.,0.,0.,0.,0.,0.);
#7=(NAMED_UNIT(*)SI_UNIT($,.STERADIAN.)SOLID_ANGLE_UNIT());
#8=(LENGTH_UNIT()NAMED_UNIT(*)SI_UNIT(.MILLI.,.METRE.));
#9=UNCERTAINTY_MEASURE_WITH_UNIT(LENGTH_MEASURE(1.000000E-05),#8,'DISTANCE_ACCURACY_VALUE','Maximum Tolerance applied to model');
#10=(GEOMETRIC_REPRESENTATION_CONTEXT(3)GLOBAL_UNCERTAINTY_ASSIGNED_CONTEXT((#9))GLOBAL_UNIT_ASSIGNED_CONTEXT((#8,#5,#7))REPRESENTATION_CONTEXT('','BTN'));
#12=CARTESIAN_POINT('',(0.,0.,0.));
#13=DIRECTION('',(0.,0.,1.));
#14=DIRECTION('',(1.,0.,0.));
#15=AXIS2_PLACEMENT_3D('',#12,#13,#14);
#27=CARTESIAN_POINT('',(6.658056896,-6.908090311,5.130392317));
#28=DIRECTION('',(0.,-1.,-0.));
#29=DIRECTION('',(-1.,-0.,-0.));
#30=AXIS2_PLACEMENT_3D('',#27,#28,#29);
#31=TOROIDAL_SURFACE('',#30,0.28,0.02);
#32=CARTESIAN_POINT('',(6.378056896,-6.928090311,5.130392317));
#33=VERTEX_POINT('',#32);
#34=CARTESIAN_POINT('',(6.358056896,-6.908090311,5.130392317));
#35=VERTEX_POINT('',#34);
#36=CARTESIAN_POINT('',(6.378056896,-6.908090311,5.130392317));
#37=DIRECTION('',(-0.,0.,-1.));
#38=DIRECTION('',(-1.,-0.,-0.));
#39=AXIS2_PLACEMENT_3D('',#36,#37,#38);
#40=CIRCLE('',#39,0.02);
#41=EDGE_CURVE('',#33,#35,#40,.T.);
#42=ORIENTED_EDGE('',*,*,#41,.T.);
#43=CARTESIAN_POINT('',(6.958056896,-6.908090311,5.130392317));
#44=VERTEX_POINT('',#43);
#45=CARTESIAN_POINT('',(6.658056896,-6.908090311,5.130392317));
#46=DIRECTION('',(0.,-1.,-0.));
#47=DIRECTION('',(1.,0.,0.));
#48=AXIS2_PLACEMENT_3D('',#45,#46,#47);
#49=CIRCLE('',#48,0.3);
#50=EDGE_CURVE('NONE',#35,#44,#49,.T.);
#51=ORIENTED_EDGE('',*,*,#50,.T.);
#52=CARTESIAN_POINT('',(6.658056896,-6.908090311,5.130392317));
#53=DIRECTION('',(0.,-1.,-0.));
#54=DIRECTION('',(1.,0.,0.));
#55=AXIS2_PLACEMENT_3D('',#52,#53,#54);
#56=CIRCLE('',#55,0.3);
#57=EDGE_CURVE('NONE',#44,#35,#56,.T.);
#58=ORIENTED_EDGE('',*,*,#57,.T.);
#59=ORIENTED_EDGE('',*,*,#41,.F.);
#60=CARTESIAN_POINT('',(6.658056896,-6.928090311,5.130392317));
#61=DIRECTION('',(-0.,1.,0.));
#62=DIRECTION('',(-1.,-0.,-0.));
#63=AXIS2_PLACEMENT_3D('',#60,#61,#62);
#64=CIRCLE('',#63,0.28);
#65=EDGE_CURVE('NONE',#33,#33,#64,.T.);
#66=ORIENTED_EDGE('',*,*,#65,.T.);
#67=EDGE_LOOP('',(#42,#51,#58,#59,#66));
#68=FACE_BOUND('',#67,.T.);
#69=ADVANCED_FACE('NONE',(#68),#31,.T.);
#70=COLOUR_RGB('',0.250980407,0.250980407,0.250980407);
#71=FILL_AREA_STYLE_COLOUR('',#70);
#72=FILL_AREA_STYLE('',(#71));
#73=SURFACE_STYLE_FILL_AREA(#72);
#74=SURFACE_SIDE_STYLE('',(#73));
#75=SURFACE_STYLE_USAGE(.BOTH.,#74);
#76=PRESENTATION_STYLE_ASSIGNMENT((#75));
#77=OVER_RIDING_STYLED_ITEM('',(#76),#69,#26);
#78=CARTESIAN_POINT('',(6.658056896,-6.758090311,5.130392317));
#79=DIRECTION('',(0.,-1.,-0.));
#80=DIRECTION('',(-1.,-0.,-0.));
#81=AXIS2_PLACEMENT_3D('',#78,#79,#80);
#82=TOROIDAL_SURFACE('',#81,0.35,0.05);
#83=CARTESIAN_POINT('',(6.308056896,-6.708090311,5.130392317));
#84=VERTEX_POINT('',#83);
#85=CARTESIAN_POINT('',(6.358056896,-6.758090311,5.130392317));
#86=VERTEX_POINT('',#85);
#87=CARTESIAN_POINT('',(6.308056896,-6.758090311,5.130392317));
#88=DIRECTION('',(-0.,0.,-1.));
#89=DIRECTION('',(-1.,-0.,-0.));
#90=AXIS2_PLACEMENT_3D('',#87,#88,#89);
#91=CIRCLE('',#90,0.05);
#92=EDGE_CURVE('',#84,#86,#91,.T.);
#93=ORIENTED_EDGE('',*,*,#92,.F.);
#94=CARTESIAN_POINT('',(6.658056896,-6.708090311,5.130392317));
#95=DIRECTION('',(0.,-1.,-0.));
#96=DIRECTION('',(-1.,-0.,-0.));
#97=AXIS2_PLACEMENT_3D('',#94,#95,#96);
#98=CIRCLE('',#97,0.35);
#99=EDGE_CURVE('NONE',#84,#84,#98,.T.);
#100=ORIENTED_EDGE('',*,*,#99,.T.);
#101=ORIENTED_EDGE('',*,*,#92,.T.);
#102=CARTESIAN_POINT('',(6.958056896,-6.758090311,5.130392317));
#103=VERTEX_POINT('',#102);
#104=CARTESIAN_POINT('',(6.658056896,-6.758090311,5.130392317));
#105=DIRECTION('',(-0.,1.,0.));
#106=DIRECTION('',(1.,0.,0.));
#107=AXIS2_PLACEMENT_3D('',#104,#105,#106);
#108=CIRCLE('',#107,0.3);
#109=EDGE_CURVE('NONE',#86,#103,#108,.T.);
#110=ORIENTED_EDGE('',*,*,#109,.T.);
#111=CARTESIAN_POINT('',(6.658056896,-6.758090311,5.130392317));
#112=DIRECTION('',(-0.,1.,0.));
#113=DIRECTION('',(1.,0.,0.));
#114=AXIS2_PLACEMENT_3D('',#111,#112,#113);
#115=CIRCLE('',#114,0.3);
#116=EDGE_CURVE('NONE',#103,#86,#115,.T.);
#117=ORIENTED_EDGE('',*,*,#116,.T.);
#118=EDGE_LOOP('',(#93,#100,#101,#110,#117));
#119=FACE_BOUND('',#118,.T.);
#120=ADVANCED_FACE('NONE',(#119),#82,.F.);
#121=OVER_RIDING_STYLED_ITEM('',(#76),#120,#26);
#122=CARTESIAN_POINT('',(6.658056896,-6.608090311,5.130392317));
#123=DIRECTION('',(-0.,1.,0.));
#124=DIRECTION('',(1.,0.,0.));
#125=AXIS2_PLACEMENT_3D('',#122,#123,#124);
#126=TOROIDAL_SURFACE('',#125,1.128585716,0.1);
#127=CARTESIAN_POINT('',(7.858056896,-6.678090311,5.130392317));
#128=VERTEX_POINT('',#127);
#129=CARTESIAN_POINT('',(7.786642612,-6.708090311,5.130392317));
#130=VERTEX_POINT('',#129);
#131=CARTESIAN_POINT('',(7.786642612,-6.608090311,5.130392317));
#132=DIRECTION('',(-0.,0.,-1.));
#133=DIRECTION('',(1.,0.,0.));
#134=AXIS2_PLACEMENT_3D('',#131,#132,#133);
#135=CIRCLE('',#134,0.1);
#136=EDGE_CURVE('',#128,#130,#135,.T.);
#137=ORIENTED_EDGE('',*,*,#136,.T.);
#138=CARTESIAN_POINT('',(7.454113249,-6.708090311,4.330392317));
#139=VERTEX_POINT('',#138);
#140=CARTESIAN_POINT('',(6.658056896,-6.708090311,5.130392317));
#141=DIRECTION('',(-0.,1.,0.));
#142=DIRECTION('',(1.,0.,0.));
#143=AXIS2_PLACEMENT_3D('',#140,#141,#142);
#144=CIRCLE('',#143,1.128585716);
#145=EDGE_CURVE('NONE',#130,#139,#144,.T.);
#146=ORIENTED_EDGE('',*,*,#145,.T.);
#147=CARTESIAN_POINT('',(7.552484087,-6.678090311,4.330392317));
#148=VERTEX_POINT('',#147);
#149=CARTESIAN_POINT('',(7.454113249,-6.708090311,4.330392317));
#150=CARTESIAN_POINT('',(7.489236959,-6.708090311,4.330392317));
#151=CARTESIAN_POINT('',(7.52439568,-6.699449162,4.330392317));
#152=CARTESIAN_POINT('',(7.552484087,-6.678090311,4.330392317));
#153=B_SPLINE_CURVE_WITH_KNOTS('',3,(#149,#150,#151,#152),.UNSPECIFIED.,.F.,.F.,(4,4),(0.,0.000103917),.UNSPECIFIED.);
#154=EDGE_CURVE('NONE',#139,#148,#153,.T.);
#155=ORIENTED_EDGE('',*,*,#154,.T.);
#156=CARTESIAN_POINT('',(6.658056896,-6.678090311,5.130392317));
#157=DIRECTION('',(-0.,1.,0.));
#158=DIRECTION('',(1.,0.,0.));
#159=AXIS2_PLACEMENT_3D('',#156,#157,#158);
#160=CIRCLE('',#159,1.2);
#161=EDGE_CURVE('NONE',#128,#148,#160,.T.);
#162=ORIENTED_EDGE('',*,*,#161,.F.);
#163=EDGE_LOOP('',(#137,#146,#155,#162));
#164=FACE_BOUND('',#163,.T.);
#165=ADVANCED_FACE('NONE',(#164),#126,.T.);
#166=COLOUR_RGB('',0.988235295,0.737254918,0.517647088);
#167=FILL_AREA_STYLE_COLOUR('',#166);
#168=FILL_AREA_STYLE('',(#167));
#169=SURFACE_STYLE_FILL_AREA(#168);
#170=SURFACE_SIDE_STYLE('',(#169));
#171=SURFACE_STYLE_USAGE(.BOTH.,#170);
#172=PRESENTATION_STYLE_ASSIGNMENT((#171));
#173=OVER_RIDING_STYLED_ITEM('',(#172),#165,#26);
#174=CARTESIAN_POINT('',(6.658056896,-6.928090311,5.130392317));
#175=DIRECTION('',(-0.,1.,0.));
#176=DIRECTION('',(1.,0.,0.));
#177=AXIS2_PLACEMENT_3D('',#174,#175,#176);
#178=CYLINDRICAL_SURFACE('',#177,0.3);
#179=CARTESIAN_POINT('',(6.958056896,-6.758090311,5.130392317));
#180=DIRECTION('',(0.,-1.,-0.));
#181=VECTOR('',#180,0.15);
#182=LINE('',#179,#181);
#183=EDGE_CURVE('',#103,#44,#182,.T.);
#184=ORIENTED_EDGE('',*,*,#183,.T.);
#185=ORIENTED_EDGE('',*,*,#50,.F.);
#186=ORIENTED_EDGE('',*,*,#57,.F.);
#187=ORIENTED_EDGE('',*,*,#183,.F.);
#188=ORIENTED_EDGE('',*,*,#109,.F.);
#189=ORIENTED_EDGE('',*,*,#116,.F.);
#190=EDGE_LOOP('',(#184,#185,#186,#187,#188,#189));
#191=FACE_BOUND('',#190,.T.);
#192=ADVANCED_FACE('NONE',(#191),#178,.T.);
#193=OVER_RIDING_STYLED_ITEM('',(#76),#192,#26);
#194=CARTESIAN_POINT('',(4.908056896,-6.278090311,5.780392317));
#195=DIRECTION('',(1.,0.,0.));
#196=DIRECTION('',(0.,0.,-1.));
#197=AXIS2_PLACEMENT_3D('',#194,#195,#196);
#198=PLANE('',#197);
#199=CARTESIAN_POINT('',(4.908056896,-6.358090311,5.680392317));
#200=VERTEX_POINT('',#199);
#201=CARTESIAN_POINT('',(4.908056896,-6.358090311,5.530702681));
#202=VERTEX_POINT('',#201);
#203=CARTESIAN_POINT('',(4.908056896,-6.358090311,5.680392317));
#204=DIRECTION('',(0.,0.,-1.));
#205=VECTOR('',#204,0.149689637);
#206=LINE('',#203,#205);
#207=EDGE_CURVE('NONE',#200,#202,#206,.T.);
#208=ORIENTED_EDGE('',*,*,#207,.F.);
#209=CARTESIAN_POINT('',(4.908056896,-6.278090311,5.680392317));
#210=VERTEX_POINT('',#209);
#211=CARTESIAN_POINT('',(4.908056896,-6.278090311,5.680392317));
#212=DIRECTION('',(0.,-1.,-0.));
#213=VECTOR('',#212,0.08);
#214=LINE('',#211,#213);
#215=EDGE_CURVE('NONE',#210,#200,#214,.T.);
#216=ORIENTED_EDGE('',*,*,#215,.F.);
#217=CARTESIAN_POINT('',(4.908056896,-6.278090311,5.530702681));
#218=VERTEX_POINT('',#217);
#219=CARTESIAN_POINT('',(4.908056896,-6.278090311,5.680392317));
#220=DIRECTION('',(-0.,0.,-1.));
#221=VECTOR('',#220,0.149689637);
#222=LINE('',#219,#221);
#223=EDGE_CURVE('NONE',#210,#218,#222,.T.);
#224=ORIENTED_EDGE('',*,*,#223,.T.);
#225=CARTESIAN_POINT('',(4.908056896,-6.358090311,5.530702681));
#226=DIRECTION('',(-0.,1.,0.));
#227=VECTOR('',#226,0.08);
#228=LINE('',#225,#227);
#229=EDGE_CURVE('NONE',#202,#218,#228,.T.);
#230=ORIENTED_EDGE('',*,*,#229,.F.);
#231=EDGE_LOOP('',(#208,#216,#224,#230));
#232=FACE_BOUND('',#231,.T.);
#233=ADVANCED_FACE('NONE',(#232),#198,.F.);
#234=CARTESIAN_POINT('',(4.908056896,-6.278090311,5.780392317));
#235=DIRECTION('',(1.,0.,0.));
#236=DIRECTION('',(0.,0.,-1.));
#237=AXIS2_PLACEMENT_3D('',#234,#235,#236);
#238=PLANE('',#237);
#239=CARTESIAN_POINT('',(4.908056896,-6.278090311,4.730081954));
#240=VERTEX_POINT('',#239);
#241=CARTESIAN_POINT('',(4.908056896,-6.278090311,4.580392317));
#242=VERTEX_POINT('',#241);
#243=CARTESIAN_POINT('',(4.908056896,-6.278090311,4.730081954));
#244=DIRECTION('',(-0.,0.,-1.));
#245=VECTOR('',#244,0.149689637);
#246=LINE('',#243,#245);
#247=EDGE_CURVE('NONE',#240,#242,#246,.T.);
#248=ORIENTED_EDGE('',*,*,#247,.T.);
#249=CARTESIAN_POINT('',(4.908056896,-6.358090311,4.580392317));
#250=VERTEX_POINT('',#249);
#251=CARTESIAN_POINT('',(4.908056896,-6.358090311,4.580392317));
#252=DIRECTION('',(-0.,1.,0.));
#253=VECTOR('',#252,0.08);
#254=LINE('',#251,#253);
#255=EDGE_CURVE('NONE',#250,#242,#254,.T.);
#256=ORIENTED_EDGE('',*,*,#255,.F.);
#257=CARTESIAN_POINT('',(4.908056896,-6.358090311,4.730081954));
#258=VERTEX_POINT('',#257);
#259=CARTESIAN_POINT('',(4.908056896,-6.358090311,4.730081954));
#260=DIRECTION('',(0.,0.,-1.));
#261=VECTOR('',#260,0.149689637);
#262=LINE('',#259,#261);
#263=EDGE_CURVE('NONE',#258,#250,#262,.T.);
#264=ORIENTED_EDGE('',*,*,#263,.F.);
#265=CARTESIAN_POINT('',(4.908056896,-6.278090311,4.730081954));
#266=DIRECTION('',(0.,-1.,-0.));
#267=VECTOR('',#266,0.08);
#268=LINE('',#265,#267);
#269=EDGE_CURVE('NONE',#240,#258,#268,.T.);
#270=ORIENTED_EDGE('',*,*,#269,.F.);
#271=EDGE_LOOP('',(#248,#256,#264,#270));
#272=FACE_BOUND('',#271,.T.);
#273=ADVANCED_FACE('NONE',(#272),#238,.F.);
#274=CARTESIAN_POINT('',(6.658056896,-6.278090311,5.130392317));
#275=DIRECTION('',(-0.,1.,0.));
#276=DIRECTION('',(1.,0.,0.));
#277=AXIS2_PLACEMENT_3D('',#274,#275,#276);
#278=PLANE('',#277);
#279=ORIENTED_EDGE('',*,*,#223,.F.);
#280=CARTESIAN_POINT('',(5.008056896,-6.278090311,5.780392317));
#281=VERTEX_POINT('',#280);
#282=CARTESIAN_POINT('',(5.008056896,-6.278090311,5.680392317));
#283=DIRECTION('',(0.,-1.,-0.));
#284=DIRECTION('',(-1.,-0.,-0.));
#285=AXIS2_PLACEMENT_3D('',#282,#283,#284);
#286=CIRCLE('',#285,0.1);
#287=EDGE_CURVE('NONE',#281,#210,#286,.T.);
#288=ORIENTED_EDGE('',*,*,#287,.F.);
#289=CARTESIAN_POINT('',(5.408056896,-6.278090311,5.780392317));
#290=VERTEX_POINT('',#289);
#291=CARTESIAN_POINT('',(5.408056896,-6.278090311,5.780392317));
#292=DIRECTION('',(-1.,-0.,-0.));
#293=VECTOR('',#292,0.4);
#294=LINE('',#291,#293);
#295=EDGE_CURVE('NONE',#290,#281,#294,.T.);
#296=ORIENTED_EDGE('',*,*,#295,.F.);
#297=CARTESIAN_POINT('',(5.408056896,-6.278090311,4.480392317));
#298=VERTEX_POINT('',#297);
#299=CARTESIAN_POINT('',(5.408056896,-6.278090311,4.480392317));
#300=DIRECTION('',(0.,-0.,1.));
#301=VECTOR('',#300,1.3);
#302=LINE('',#299,#301);
#303=EDGE_CURVE('NONE',#298,#290,#302,.T.);
#304=ORIENTED_EDGE('',*,*,#303,.F.);
#305=CARTESIAN_POINT('',(5.008056896,-6.278090311,4.480392317));
#306=VERTEX_POINT('',#305);
#307=CARTESIAN_POINT('',(5.008056896,-6.278090311,4.480392317));
#308=DIRECTION('',(1.,0.,0.));
#309=VECTOR('',#308,0.4);
#310=LINE('',#307,#309);
#311=EDGE_CURVE('NONE',#306,#298,#310,.T.);
#312=ORIENTED_EDGE('',*,*,#311,.F.);
#313=CARTESIAN_POINT('',(5.008056896,-6.278090311,4.580392317));
#314=DIRECTION('',(0.,-1.,-0.));
#315=DIRECTION('',(-1.,-0.,-0.));
#316=AXIS2_PLACEMENT_3D('',#313,#314,#315);
#317=CIRCLE('',#316,0.1);
#318=EDGE_CURVE('NONE',#242,#306,#317,.T.);
#319=ORIENTED_EDGE('',*,*,#318,.F.);
#320=ORIENTED_EDGE('',*,*,#247,.F.);
#321=CARTESIAN_POINT('',(4.929610098,-6.278090311,4.820396628));
#322=VERTEX_POINT('',#321);
#323=CARTESIAN_POINT('',(5.108056896,-6.278090311,4.730081954));
#324=DIRECTION('',(0.,-1.,-0.));
#325=DIRECTION('',(1.,0.,0.));
#326=AXIS2_PLACEMENT_3D('',#323,#324,#325);
#327=CIRCLE('',#326,0.2);
#328=EDGE_CURVE('NONE',#322,#240,#327,.T.);
#329=ORIENTED_EDGE('',*,*,#328,.F.);
#330=CARTESIAN_POINT('',(4.929610098,-6.278090311,5.440388006));
#331=VERTEX_POINT('',#330);
#332=CARTESIAN_POINT('',(4.929610098,-6.278090311,5.440388006));
#333=CARTESIAN_POINT('',(5.086503694,-6.278090311,5.130392317));
#334=CARTESIAN_POINT('',(4.929610098,-6.278090311,4.820396628));
#335=B_SPLINE_CURVE_WITH_KNOTS('',2,(#332,#333,#334),.UNSPECIFIED.,.F.,.F.,(3,3),(0.057149016,0.942850984),.UNSPECIFIED.);
#336=EDGE_CURVE('NONE',#331,#322,#335,.T.);
#337=ORIENTED_EDGE('',*,*,#336,.F.);
#338=CARTESIAN_POINT('',(5.108056896,-6.278090311,5.530702681));
#339=DIRECTION('',(0.,-1.,-0.));
#340=DIRECTION('',(1.,0.,0.));
#341=AXIS2_PLACEMENT_3D('',#338,#339,#340);
#342=CIRCLE('',#341,0.2);
#343=EDGE_CURVE('NONE',#218,#331,#342,.T.);
#344=ORIENTED_EDGE('',*,*,#343,.F.);
#345=EDGE_LOOP('',(#279,#288,#296,#304,#312,#319,#320,#329,#337,#344));
#346=FACE_BOUND('',#345,.T.);
#347=ADVANCED_FACE('NONE',(#346),#278,.T.);
#348=CARTESIAN_POINT('',(6.658056896,-6.358090311,5.130392317));
#349=DIRECTION('',(-0.,1.,0.));
#350=DIRECTION('',(1.,0.,0.));
#351=AXIS2_PLACEMENT_3D('',#348,#349,#350);
#352=PLANE('',#351);
#353=CARTESIAN_POINT('',(4.929610098,-6.358090311,5.440388006));
#354=VERTEX_POINT('',#353);
#355=CARTESIAN_POINT('',(4.929610098,-6.358090311,4.820396628));
#356=VERTEX_POINT('',#355);
#357=CARTESIAN_POINT('',(4.929610098,-6.358090311,5.440388006));
#358=CARTESIAN_POINT('',(5.086503694,-6.358090311,5.130392317));
#359=CARTESIAN_POINT('',(4.929610098,-6.358090311,4.820396628));
#360=B_SPLINE_CURVE_WITH_KNOTS('',2,(#357,#358,#359),.UNSPECIFIED.,.F.,.F.,(3,3),(0.057149016,0.942850984),.UNSPECIFIED.);
#361=EDGE_CURVE('NONE',#354,#356,#360,.T.);
#362=ORIENTED_EDGE('',*,*,#361,.T.);
#363=CARTESIAN_POINT('',(5.108056896,-6.358090311,4.730081954));
#364=DIRECTION('',(-0.,1.,0.));
#365=DIRECTION('',(1.,0.,0.));
#366=AXIS2_PLACEMENT_3D('',#363,#364,#365);
#367=CIRCLE('',#366,0.2);
#368=EDGE_CURVE('NONE',#258,#356,#367,.T.);
#369=ORIENTED_EDGE('',*,*,#368,.F.);
#370=ORIENTED_EDGE('',*,*,#263,.T.);
#371=CARTESIAN_POINT('',(5.008056896,-6.358090311,4.480392317));
#372=VERTEX_POINT('',#371);
#373=CARTESIAN_POINT('',(5.008056896,-6.358090311,4.580392317));
#374=DIRECTION('',(-0.,1.,0.));
#375=DIRECTION('',(-1.,-0.,-0.));
#376=AXIS2_PLACEMENT_3D('',#373,#374,#375);
#377=CIRCLE('',#376,0.1);
#378=EDGE_CURVE('NONE',#372,#250,#377,.T.);
#379=ORIENTED_EDGE('',*,*,#378,.F.);
#380=CARTESIAN_POINT('',(5.158056896,-6.358090311,4.480392317));
#381=VERTEX_POINT('',#380);
#382=CARTESIAN_POINT('',(5.008056896,-6.358090311,4.480392317));
#383=DIRECTION('',(1.,0.,0.));
#384=VECTOR('',#383,0.15);
#385=LINE('',#382,#384);
#386=EDGE_CURVE('NONE',#372,#381,#385,.T.);
#387=ORIENTED_EDGE('',*,*,#386,.T.);
#388=CARTESIAN_POINT('',(5.158056896,-6.358090311,5.780392317));
#389=VERTEX_POINT('',#388);
#390=CARTESIAN_POINT('',(5.158056896,-6.358090311,4.480392317));
#391=DIRECTION('',(0.,-0.,1.));
#392=VECTOR('',#391,1.3);
#393=LINE('',#390,#392);
#394=EDGE_CURVE('NONE',#381,#389,#393,.T.);
#395=ORIENTED_EDGE('',*,*,#394,.T.);
#396=CARTESIAN_POINT('',(5.008056896,-6.358090311,5.780392317));
#397=VERTEX_POINT('',#396);
#398=CARTESIAN_POINT('',(5.158056896,-6.358090311,5.780392317));
#399=DIRECTION('',(-1.,-0.,-0.));
#400=VECTOR('',#399,0.15);
#401=LINE('',#398,#400);
#402=EDGE_CURVE('NONE',#389,#397,#401,.T.);
#403=ORIENTED_EDGE('',*,*,#402,.T.);
#404=CARTESIAN_POINT('',(5.008056896,-6.358090311,5.680392317));
#405=DIRECTION('',(-0.,1.,0.));
#406=DIRECTION('',(-1.,-0.,-0.));
#407=AXIS2_PLACEMENT_3D('',#404,#405,#406);
#408=CIRCLE('',#407,0.1);
#409=EDGE_CURVE('NONE',#200,#397,#408,.T.);
#410=ORIENTED_EDGE('',*,*,#409,.F.);
#411=ORIENTED_EDGE('',*,*,#207,.T.);
#412=CARTESIAN_POINT('',(5.108056896,-6.358090311,5.530702681));
#413=DIRECTION('',(-0.,1.,0.));
#414=DIRECTION('',(1.,0.,0.));
#415=AXIS2_PLACEMENT_3D('',#412,#413,#414);
#416=CIRCLE('',#415,0.2);
#417=EDGE_CURVE('NONE',#354,#202,#416,.T.);
#418=ORIENTED_EDGE('',*,*,#417,.F.);
#419=EDGE_LOOP('',(#362,#369,#370,#379,#387,#395,#403,#410,#411,#418));
#420=FACE_BOUND('',#419,.T.);
#421=ADVANCED_FACE('NONE',(#420),#352,.F.);
#422=CARTESIAN_POINT('',(8.408056896,-6.278090311,5.780392317));
#423=DIRECTION('',(-1.,-0.,-0.));
#424=DIRECTION('',(-0.,-0.,1.));
#425=AXIS2_PLACEMENT_3D('',#422,#423,#424);
#426=PLANE('',#425);
#427=CARTESIAN_POINT('',(8.408056896,-6.278090311,5.530702681));
#428=VERTEX_POINT('',#427);
#429=CARTESIAN_POINT('',(8.408056896,-6.278090311,5.680392317));
#430=VERTEX_POINT('',#429);
#431=CARTESIAN_POINT('',(8.408056896,-6.278090311,5.530702681));
#432=DIRECTION('',(0.,-0.,1.));
#433=VECTOR('',#432,0.149689637);
#434=LINE('',#431,#433);
#435=EDGE_CURVE('NONE',#428,#430,#434,.T.);
#436=ORIENTED_EDGE('',*,*,#435,.T.);
#437=CARTESIAN_POINT('',(8.408056896,-6.358090311,5.680392317));
#438=VERTEX_POINT('',#437);
#439=CARTESIAN_POINT('',(8.408056896,-6.358090311,5.680392317));
#440=DIRECTION('',(-0.,1.,0.));
#441=VECTOR('',#440,0.08);
#442=LINE('',#439,#441);
#443=EDGE_CURVE('NONE',#438,#430,#442,.T.);
#444=ORIENTED_EDGE('',*,*,#443,.F.);
#445=CARTESIAN_POINT('',(8.408056896,-6.358090311,5.530702681));
#446=VERTEX_POINT('',#445);
#447=CARTESIAN_POINT('',(8.408056896,-6.358090311,5.530702681));
#448=DIRECTION('',(-0.,-0.,1.));
#449=VECTOR('',#448,0.149689637);
#450=LINE('',#447,#449);
#451=EDGE_CURVE('NONE',#446,#438,#450,.T.);
#452=ORIENTED_EDGE('',*,*,#451,.F.);
#453=CARTESIAN_POINT('',(8.408056896,-6.278090311,5.530702681));
#454=DIRECTION('',(0.,-1.,-0.));
#455=VECTOR('',#454,0.08);
#456=LINE('',#453,#455);
#457=EDGE_CURVE('NONE',#428,#446,#456,.T.);
#458=ORIENTED_EDGE('',*,*,#457,.F.);
#459=EDGE_LOOP('',(#436,#444,#452,#458));
#460=FACE_BOUND('',#459,.T.);
#461=ADVANCED_FACE('NONE',(#460),#426,.F.);
#462=CARTESIAN_POINT('',(6.658056896,-6.358090311,5.130392317));
#463=DIRECTION('',(0.,-1.,-0.));
#464=DIRECTION('',(-1.,-0.,-0.));
#465=AXIS2_PLACEMENT_3D('',#462,#463,#464);
#466=PLANE('',#465);
#467=CARTESIAN_POINT('',(8.158056896,-6.358090311,6.030392317));
#468=VERTEX_POINT('',#467);
#469=CARTESIAN_POINT('',(8.158056896,-6.358090311,5.780392317));
#470=VERTEX_POINT('',#469);
#471=CARTESIAN_POINT('',(8.158056896,-6.358090311,6.030392317));
#472=DIRECTION('',(-0.,0.,-1.));
#473=VECTOR('',#472,0.25);
#474=LINE('',#471,#473);
#475=EDGE_CURVE('NONE',#468,#470,#474,.T.);
#476=ORIENTED_EDGE('',*,*,#475,.T.);
#477=CARTESIAN_POINT('',(7.908056896,-6.358090311,5.780392317));
#478=VERTEX_POINT('',#477);
#479=CARTESIAN_POINT('',(8.158056896,-6.358090311,5.780392317));
#480=DIRECTION('',(-1.,-0.,-0.));
#481=VECTOR('',#480,0.25);
#482=LINE('',#479,#481);
#483=EDGE_CURVE('NONE',#470,#478,#482,.T.);
#484=ORIENTED_EDGE('',*,*,#483,.T.);
#485=CARTESIAN_POINT('',(7.908056896,-6.358090311,4.480392317));
#486=VERTEX_POINT('',#485);
#487=CARTESIAN_POINT('',(7.908056896,-6.358090311,5.780392317));
#488=DIRECTION('',(-0.,0.,-1.));
#489=VECTOR('',#488,1.3);
#490=LINE('',#487,#489);
#491=EDGE_CURVE('NONE',#478,#486,#490,.T.);
#492=ORIENTED_EDGE('',*,*,#491,.T.);
#493=CARTESIAN_POINT('',(8.158056896,-6.358090311,4.480392317));
#494=VERTEX_POINT('',#493);
#495=CARTESIAN_POINT('',(7.908056896,-6.358090311,4.480392317));
#496=DIRECTION('',(1.,0.,0.));
#497=VECTOR('',#496,0.25);
#498=LINE('',#495,#497);
#499=EDGE_CURVE('NONE',#486,#494,#498,.T.);
#500=ORIENTED_EDGE('',*,*,#499,.T.);
#501=CARTESIAN_POINT('',(8.158056896,-6.358090311,4.230392317));
#502=VERTEX_POINT('',#501);
#503=CARTESIAN_POINT('',(8.158056896,-6.358090311,4.480392317));
#504=DIRECTION('',(-0.,0.,-1.));
#505=VECTOR('',#504,0.25);
#506=LINE('',#503,#505);
#507=EDGE_CURVE('NONE',#494,#502,#506,.T.);
#508=ORIENTED_EDGE('',*,*,#507,.T.);
#509=CARTESIAN_POINT('',(8.058056896,-6.358090311,4.130392317));
#510=VERTEX_POINT('',#509);
#511=CARTESIAN_POINT('',(8.058056896,-6.358090311,4.230392317));
#512=DIRECTION('',(0.,-1.,-0.));
#513=DIRECTION('',(1.,0.,0.));
#514=AXIS2_PLACEMENT_3D('',#511,#512,#513);
#515=CIRCLE('',#514,0.1);
#516=EDGE_CURVE('NONE',#510,#502,#515,.T.);
#517=ORIENTED_EDGE('',*,*,#516,.F.);
#518=CARTESIAN_POINT('',(5.258056896,-6.358090311,4.130392317));
#519=VERTEX_POINT('',#518);
#520=CARTESIAN_POINT('',(8.058056896,-6.358090311,4.130392317));
#521=DIRECTION('',(-1.,-0.,0.));
#522=VECTOR('',#521,2.8);
#523=LINE('',#520,#522);
#524=EDGE_CURVE('NONE',#510,#519,#523,.T.);
#525=ORIENTED_EDGE('',*,*,#524,.T.);
#526=CARTESIAN_POINT('',(5.158056896,-6.358090311,4.230392317));
#527=VERTEX_POINT('',#526);
#528=CARTESIAN_POINT('',(5.258056896,-6.358090311,4.230392317));
#529=DIRECTION('',(0.,-1.,-0.));
#530=DIRECTION('',(1.,0.,0.));
#531=AXIS2_PLACEMENT_3D('',#528,#529,#530);
#532=CIRCLE('',#531,0.1);
#533=EDGE_CURVE('NONE',#527,#519,#532,.T.);
#534=ORIENTED_EDGE('',*,*,#533,.F.);
#535=CARTESIAN_POINT('',(5.158056896,-6.358090311,4.230392317));
#536=DIRECTION('',(0.,-0.,1.));
#537=VECTOR('',#536,0.25);
#538=LINE('',#535,#537);
#539=EDGE_CURVE('NONE',#527,#381,#538,.T.);
#540=ORIENTED_EDGE('',*,*,#539,.T.);
#541=CARTESIAN_POINT('',(5.408056896,-6.358090311,4.480392317));
#542=VERTEX_POINT('',#541);
#543=CARTESIAN_POINT('',(5.158056896,-6.358090311,4.480392317));
#544=DIRECTION('',(1.,0.,0.));
#545=VECTOR('',#544,0.25);
#546=LINE('',#543,#545);
#547=EDGE_CURVE('NONE',#381,#542,#546,.T.);
#548=ORIENTED_EDGE('',*,*,#547,.T.);
#549=CARTESIAN_POINT('',(5.408056896,-6.358090311,5.780392317));
#550=VERTEX_POINT('',#549);
#551=CARTESIAN_POINT('',(5.408056896,-6.358090311,4.480392317));
#552=DIRECTION('',(0.,-0.,1.));
#553=VECTOR('',#552,1.3);
#554=LINE('',#551,#553);
#555=EDGE_CURVE('NONE',#542,#550,#554,.T.);
#556=ORIENTED_EDGE('',*,*,#555,.T.);
#557=CARTESIAN_POINT('',(5.408056896,-6.358090311,5.780392317));
#558=DIRECTION('',(-1.,-0.,-0.));
#559=VECTOR('',#558,0.25);
#560=LINE('',#557,#559);
#561=EDGE_CURVE('NONE',#550,#389,#560,.T.);
#562=ORIENTED_EDGE('',*,*,#561,.T.);
#563=CARTESIAN_POINT('',(5.158056896,-6.358090311,6.030392317));
#564=VERTEX_POINT('',#563);
#565=CARTESIAN_POINT('',(5.158056896,-6.358090311,5.780392317));
#566=DIRECTION('',(0.,-0.,1.));
#567=VECTOR('',#566,0.25);
#568=LINE('',#565,#567);
#569=EDGE_CURVE('NONE',#389,#564,#568,.T.);
#570=ORIENTED_EDGE('',*,*,#569,.T.);
#571=CARTESIAN_POINT('',(5.258056896,-6.358090311,6.130392317));
#572=VERTEX_POINT('',#571);
#573=CARTESIAN_POINT('',(5.258056896,-6.358090311,6.030392317));
#574=DIRECTION('',(0.,-1.,-0.));
#575=DIRECTION('',(1.,0.,0.));
#576=AXIS2_PLACEMENT_3D('',#573,#574,#575);
#577=CIRCLE('',#576,0.1);
#578=EDGE_CURVE('NONE',#572,#564,#577,.T.);
#579=ORIENTED_EDGE('',*,*,#578,.F.);
#580=CARTESIAN_POINT('',(8.058056896,-6.358090311,6.130392317));
#581=VERTEX_POINT('',#580);
#582=CARTESIAN_POINT('',(5.258056896,-6.358090311,6.130392317));
#583=DIRECTION('',(1.,0.,-0.));
#584=VECTOR('',#583,2.8);
#585=LINE('',#582,#584);
#586=EDGE_CURVE('NONE',#572,#581,#585,.T.);
#587=ORIENTED_EDGE('',*,*,#586,.T.);
#588=CARTESIAN_POINT('',(8.058056896,-6.358090311,6.030392317));
#589=DIRECTION('',(0.,-1.,-0.));
#590=DIRECTION('',(1.,0.,0.));
#591=AXIS2_PLACEMENT_3D('',#588,#589,#590);
#592=CIRCLE('',#591,0.1);
#593=EDGE_CURVE('NONE',#468,#581,#592,.T.);
#594=ORIENTED_EDGE('',*,*,#593,.F.);
#595=EDGE_LOOP('',(#476,#484,#492,#500,#508,#517,#525,#534,#540,#548,#556,#562,#570,#579,#587,#594));
#596=FACE_BOUND('',#595,.T.);
#597=ADVANCED_FACE('NONE',(#596),#466,.F.);
#598=OVER_RIDING_STYLED_ITEM('',(#76),#597,#26);
#599=CARTESIAN_POINT('',(5.358056896,-6.678090311,5.930392317));
#600=DIRECTION('',(0.,-0.,1.));
#601=DIRECTION('',(0.,-1.,-0.));
#602=AXIS2_PLACEMENT_3D('',#599,#600,#601);
#603=PLANE('',#602);
#604=CARTESIAN_POINT('',(5.458056896,-6.678090311,5.930392317));
#605=VERTEX_POINT('',#604);
#606=CARTESIAN_POINT('',(5.763629705,-6.678090311,5.930392317));
#607=VERTEX_POINT('',#606);
#608=CARTESIAN_POINT('',(5.458056896,-6.678090311,5.930392317));
#609=DIRECTION('',(1.,0.,0.));
#610=VECTOR('',#609,0.305572809);
#611=LINE('',#608,#610);
#612=EDGE_CURVE('NONE',#605,#607,#611,.T.);
#613=ORIENTED_EDGE('',*,*,#612,.T.);
#614=CARTESIAN_POINT('',(5.862000543,-6.708090311,5.930392317));
#615=VERTEX_POINT('',#614);
#616=CARTESIAN_POINT('',(5.862000543,-6.708090311,5.930392317));
#617=CARTESIAN_POINT('',(5.826876833,-6.708090311,5.930392317));
#618=CARTESIAN_POINT('',(5.791718112,-6.699449162,5.930392317));
#619=CARTESIAN_POINT('',(5.763629705,-6.678090311,5.930392317));
#620=B_SPLINE_CURVE_WITH_KNOTS('',3,(#616,#617,#618,#619),.UNSPECIFIED.,.F.,.F.,(4,4),(0.,0.000103917),.UNSPECIFIED.);
#621=EDGE_CURVE('NONE',#615,#607,#620,.T.);
#622=ORIENTED_EDGE('',*,*,#621,.F.);
#623=CARTESIAN_POINT('',(7.454113249,-6.708090311,5.930392317));
#624=VERTEX_POINT('',#623);
#625=CARTESIAN_POINT('',(5.862000543,-6.708090311,5.930392317));
#626=DIRECTION('',(1.,0.,0.));
#627=VECTOR('',#626,1.592112707);
#628=LINE('',#625,#627);
#629=EDGE_CURVE('NONE',#615,#624,#628,.T.);
#630=ORIENTED_EDGE('',*,*,#629,.T.);
#631=CARTESIAN_POINT('',(7.552484087,-6.678090311,5.930392317));
#632=VERTEX_POINT('',#631);
#633=CARTESIAN_POINT('',(7.552484087,-6.678090311,5.930392317));
#634=CARTESIAN_POINT('',(7.524384095,-6.699457973,5.930392317));
#635=CARTESIAN_POINT('',(7.489239016,-6.708090311,5.930392317));
#636=CARTESIAN_POINT('',(7.454113249,-6.708090311,5.930392317));
#637=B_SPLINE_CURVE_WITH_KNOTS('',3,(#633,#634,#635,#636),.UNSPECIFIED.,.F.,.F.,(4,4),(0.,0.000103985),.UNSPECIFIED.);
#638=EDGE_CURVE('NONE',#632,#624,#637,.T.);
#639=ORIENTED_EDGE('',*,*,#638,.F.);
#640=CARTESIAN_POINT('',(7.858056896,-6.678090311,5.930392317));
#641=VERTEX_POINT('',#640);
#642=CARTESIAN_POINT('',(7.552484087,-6.678090311,5.930392317));
#643=DIRECTION('',(1.,0.,0.));
#644=VECTOR('',#643,0.305572809);
#645=LINE('',#642,#644);
#646=EDGE_CURVE('NONE',#632,#641,#645,.T.);
#647=ORIENTED_EDGE('',*,*,#646,.T.);
#648=CARTESIAN_POINT('',(7.858056896,-6.728090311,5.930392317));
#649=VERTEX_POINT('',#648);
#650=CARTESIAN_POINT('',(7.858056896,-6.728090311,5.930392317));
#651=DIRECTION('',(-0.,1.,0.));
#652=VECTOR('',#651,0.05);
#653=LINE('',#650,#652);
#654=EDGE_CURVE('NONE',#649,#641,#653,.T.);
#655=ORIENTED_EDGE('',*,*,#654,.F.);
#656=CARTESIAN_POINT('',(5.458056896,-6.728090311,5.930392317));
#657=VERTEX_POINT('',#656);
#658=CARTESIAN_POINT('',(5.458056896,-6.728090311,5.930392317));
#659=DIRECTION('',(1.,0.,0.));
#660=VECTOR('',#659,2.4);
#661=LINE('',#658,#660);
#662=EDGE_CURVE('NONE',#657,#649,#661,.T.);
#663=ORIENTED_EDGE('',*,*,#662,.F.);
#664=CARTESIAN_POINT('',(5.458056896,-6.678090311,5.930392317));
#665=DIRECTION('',(0.,-1.,-0.));
#666=VECTOR('',#665,0.05);
#667=LINE('',#664,#666);
#668=EDGE_CURVE('NONE',#605,#657,#667,.T.);
#669=ORIENTED_EDGE('',*,*,#668,.F.);
#670=EDGE_LOOP('',(#613,#622,#630,#639,#647,#655,#663,#669));
#671=FACE_BOUND('',#670,.T.);
#672=ADVANCED_FACE('NONE',(#671),#603,.F.);
#673=OVER_RIDING_STYLED_ITEM('',(#172),#672,#26);
#674=CARTESIAN_POINT('',(5.358056896,-6.678090311,4.330392317));
#675=DIRECTION('',(0.,0.,-1.));
#676=DIRECTION('',(-0.,1.,0.));
#677=AXIS2_PLACEMENT_3D('',#674,#675,#676);
#678=PLANE('',#677);
#679=CARTESIAN_POINT('',(7.858056896,-6.728090311,4.330392317));
#680=VERTEX_POINT('',#679);
#681=CARTESIAN_POINT('',(5.458056896,-6.728090311,4.330392317));
#682=VERTEX_POINT('',#681);
#683=CARTESIAN_POINT('',(7.858056896,-6.728090311,4.330392317));
#684=DIRECTION('',(-1.,-0.,-0.));
#685=VECTOR('',#684,2.4);
#686=LINE('',#683,#685);
#687=EDGE_CURVE('NONE',#680,#682,#686,.T.);
#688=ORIENTED_EDGE('',*,*,#687,.F.);
#689=CARTESIAN_POINT('',(7.858056896,-6.678090311,4.330392317));
#690=VERTEX_POINT('',#689);
#691=CARTESIAN_POINT('',(7.858056896,-6.678090311,4.330392317));
#692=DIRECTION('',(0.,-1.,-0.));
#693=VECTOR('',#692,0.05);
#694=LINE('',#691,#693);
#695=EDGE_CURVE('NONE',#690,#680,#694,.T.);
#696=ORIENTED_EDGE('',*,*,#695,.F.);
#697=CARTESIAN_POINT('',(7.858056896,-6.678090311,4.330392317));
#698=DIRECTION('',(-1.,-0.,-0.));
#699=VECTOR('',#698,0.305572809);
#700=LINE('',#697,#699);
#701=EDGE_CURVE('NONE',#690,#148,#700,.T.);
#702=ORIENTED_EDGE('',*,*,#701,.T.);
#703=ORIENTED_EDGE('',*,*,#154,.F.);
#704=CARTESIAN_POINT('',(5.862000543,-6.708090311,4.330392317));
#705=VERTEX_POINT('',#704);
#706=CARTESIAN_POINT('',(7.454113249,-6.708090311,4.330392317));
#707=DIRECTION('',(-1.,-0.,-0.));
#708=VECTOR('',#707,1.592112707);
#709=LINE('',#706,#708);
#710=EDGE_CURVE('NONE',#139,#705,#709,.T.);
#711=ORIENTED_EDGE('',*,*,#710,.T.);
#712=CARTESIAN_POINT('',(5.763629705,-6.678090311,4.330392317));
#713=VERTEX_POINT('',#712);
#714=CARTESIAN_POINT('',(5.763629705,-6.678090311,4.330392317));
#715=CARTESIAN_POINT('',(5.791729698,-6.699457973,4.330392317));
#716=CARTESIAN_POINT('',(5.826874776,-6.708090311,4.330392317));
#717=CARTESIAN_POINT('',(5.862000543,-6.708090311,4.330392317));
#718=B_SPLINE_CURVE_WITH_KNOTS('',3,(#714,#715,#716,#717),.UNSPECIFIED.,.F.,.F.,(4,4),(0.,0.000103985),.UNSPECIFIED.);
#719=EDGE_CURVE('NONE',#713,#705,#718,.T.);
#720=ORIENTED_EDGE('',*,*,#719,.F.);
#721=CARTESIAN_POINT('',(5.458056896,-6.678090311,4.330392317));
#722=VERTEX_POINT('',#721);
#723=CARTESIAN_POINT('',(5.763629705,-6.678090311,4.330392317));
#724=DIRECTION('',(-1.,-0.,-0.));
#725=VECTOR('',#724,0.305572809);
#726=LINE('',#723,#725);
#727=EDGE_CURVE('NONE',#713,#722,#726,.T.);
#728=ORIENTED_EDGE('',*,*,#727,.T.);
#729=CARTESIAN_POINT('',(5.458056896,-6.728090311,4.330392317));
#730=DIRECTION('',(-0.,1.,0.));
#731=VECTOR('',#730,0.05);
#732=LINE('',#729,#731);
#733=EDGE_CURVE('NONE',#682,#722,#732,.T.);
#734=ORIENTED_EDGE('',*,*,#733,.F.);
#735=EDGE_LOOP('',(#688,#696,#702,#703,#711,#720,#728,#734));
#736=FACE_BOUND('',#735,.T.);
#737=ADVANCED_FACE('NONE',(#736),#678,.F.);
#738=OVER_RIDING_STYLED_ITEM('',(#172),#737,#26);
#739=CARTESIAN_POINT('',(6.658056896,-6.678090311,5.130392317));
#740=DIRECTION('',(0.,-1.,-0.));
#741=DIRECTION('',(-1.,-0.,-0.));
#742=AXIS2_PLACEMENT_3D('',#739,#740,#741);
#743=PLANE('',#742);
#744=CARTESIAN_POINT('',(7.958056896,-6.678090311,5.830392317));
#745=VERTEX_POINT('',#744);
#746=CARTESIAN_POINT('',(7.958056896,-6.678090311,4.430392317));
#747=VERTEX_POINT('',#746);
#748=CARTESIAN_POINT('',(7.958056896,-6.678090311,5.830392317));
#749=DIRECTION('',(-0.,0.,-1.));
#750=VECTOR('',#749,1.4);
#751=LINE('',#748,#750);
#752=EDGE_CURVE('NONE',#745,#747,#751,.T.);
#753=ORIENTED_EDGE('',*,*,#752,.F.);
#754=CARTESIAN_POINT('',(7.858056896,-6.678090311,5.830392317));
#755=DIRECTION('',(-0.,1.,0.));
#756=DIRECTION('',(1.,0.,0.));
#757=AXIS2_PLACEMENT_3D('',#754,#755,#756);
#758=CIRCLE('',#757,0.1);
#759=EDGE_CURVE('NONE',#641,#745,#758,.T.);
#760=ORIENTED_EDGE('',*,*,#759,.F.);
#761=ORIENTED_EDGE('',*,*,#646,.F.);
#762=CARTESIAN_POINT('',(6.658056896,-6.678090311,5.130392317));
#763=DIRECTION('',(-0.,1.,0.));
#764=DIRECTION('',(1.,0.,0.));
#765=AXIS2_PLACEMENT_3D('',#762,#763,#764);
#766=CIRCLE('',#765,1.2);
#767=EDGE_CURVE('NONE',#632,#128,#766,.T.);
#768=ORIENTED_EDGE('',*,*,#767,.T.);
#769=ORIENTED_EDGE('',*,*,#161,.T.);
#770=ORIENTED_EDGE('',*,*,#701,.F.);
#771=CARTESIAN_POINT('',(7.858056896,-6.678090311,4.430392317));
#772=DIRECTION('',(-0.,1.,0.));
#773=DIRECTION('',(1.,0.,0.));
#774=AXIS2_PLACEMENT_3D('',#771,#772,#773);
#775=CIRCLE('',#774,0.1);
#776=EDGE_CURVE('NONE',#747,#690,#775,.T.);
#777=ORIENTED_EDGE('',*,*,#776,.F.);
#778=EDGE_LOOP('',(#753,#760,#761,#768,#769,#770,#777));
#779=FACE_BOUND('',#778,.T.);
#780=ADVANCED_FACE('NONE',(#779),#743,.T.);
#781=OVER_RIDING_STYLED_ITEM('',(#172),#780,#26);
#782=CARTESIAN_POINT('',(6.658056896,-6.678090311,5.130392317));
#783=DIRECTION('',(0.,-1.,-0.));
#784=DIRECTION('',(-1.,-0.,-0.));
#785=AXIS2_PLACEMENT_3D('',#782,#783,#784);
#786=PLANE('',#785);
#787=ORIENTED_EDGE('',*,*,#727,.F.);
#788=CARTESIAN_POINT('',(6.658056896,-6.678090311,5.130392317));
#789=DIRECTION('',(-0.,1.,0.));
#790=DIRECTION('',(1.,0.,0.));
#791=AXIS2_PLACEMENT_3D('',#788,#789,#790);
#792=CIRCLE('',#791,1.2);
#793=EDGE_CURVE('NONE',#713,#607,#792,.T.);
#794=ORIENTED_EDGE('',*,*,#793,.T.);
#795=ORIENTED_EDGE('',*,*,#612,.F.);
#796=CARTESIAN_POINT('',(5.358056896,-6.678090311,5.830392317));
#797=VERTEX_POINT('',#796);
#798=CARTESIAN_POINT('',(5.458056896,-6.678090311,5.830392317));
#799=DIRECTION('',(-0.,1.,0.));
#800=DIRECTION('',(1.,0.,0.));
#801=AXIS2_PLACEMENT_3D('',#798,#799,#800);
#802=CIRCLE('',#801,0.1);
#803=EDGE_CURVE('NONE',#797,#605,#802,.T.);
#804=ORIENTED_EDGE('',*,*,#803,.F.);
#805=CARTESIAN_POINT('',(5.358056896,-6.678090311,4.430392317));
#806=VERTEX_POINT('',#805);
#807=CARTESIAN_POINT('',(5.358056896,-6.678090311,4.430392317));
#808=DIRECTION('',(0.,-0.,1.));
#809=VECTOR('',#808,1.4);
#810=LINE('',#807,#809);
#811=EDGE_CURVE('NONE',#806,#797,#810,.T.);
#812=ORIENTED_EDGE('',*,*,#811,.F.);
#813=CARTESIAN_POINT('',(5.458056896,-6.678090311,4.430392317));
#814=DIRECTION('',(-0.,1.,0.));
#815=DIRECTION('',(1.,0.,0.));
#816=AXIS2_PLACEMENT_3D('',#813,#814,#815);
#817=CIRCLE('',#816,0.1);
#818=EDGE_CURVE('NONE',#722,#806,#817,.T.);
#819=ORIENTED_EDGE('',*,*,#818,.F.);
#820=EDGE_LOOP('',(#787,#794,#795,#804,#812,#819));
#821=FACE_BOUND('',#820,.T.);
#822=ADVANCED_FACE('NONE',(#821),#786,.T.);
#823=OVER_RIDING_STYLED_ITEM('',(#172),#822,#26);
#824=CARTESIAN_POINT('',(8.158056896,-6.728090311,4.130392317));
#825=DIRECTION('',(-1.,-0.,-0.));
#826=DIRECTION('',(-0.,1.,0.));
#827=AXIS2_PLACEMENT_3D('',#824,#825,#826);
#828=PLANE('',#827);
#829=CARTESIAN_POINT('',(8.158056896,-6.728090311,6.030392317));
#830=VERTEX_POINT('',#829);
#831=CARTESIAN_POINT('',(8.158056896,-6.728090311,4.230392317));
#832=VERTEX_POINT('',#831);
#833=CARTESIAN_POINT('',(8.158056896,-6.728090311,6.030392317));
#834=DIRECTION('',(-0.,0.,-1.));
#835=VECTOR('',#834,1.8);
#836=LINE('',#833,#835);
#837=EDGE_CURVE('NONE',#830,#832,#836,.T.);
#838=ORIENTED_EDGE('',*,*,#837,.T.);
#839=CARTESIAN_POINT('',(8.158056896,-6.358090311,4.230392317));
#840=DIRECTION('',(0.,-1.,-0.));
#841=VECTOR('',#840,0.37);
#842=LINE('',#839,#841);
#843=EDGE_CURVE('NONE',#502,#832,#842,.T.);
#844=ORIENTED_EDGE('',*,*,#843,.F.);
#845=ORIENTED_EDGE('',*,*,#507,.F.);
#846=CARTESIAN_POINT('',(8.158056896,-6.358090311,5.780392317));
#847=DIRECTION('',(-0.,0.,-1.));
#848=VECTOR('',#847,1.3);
#849=LINE('',#846,#848);
#850=EDGE_CURVE('NONE',#470,#494,#849,.T.);
#851=ORIENTED_EDGE('',*,*,#850,.F.);
#852=ORIENTED_EDGE('',*,*,#475,.F.);
#853=CARTESIAN_POINT('',(8.158056896,-6.728090311,6.030392317));
#854=DIRECTION('',(-0.,1.,0.));
#855=VECTOR('',#854,0.37);
#856=LINE('',#853,#855);
#857=EDGE_CURVE('NONE',#830,#468,#856,.T.);
#858=ORIENTED_EDGE('',*,*,#857,.F.);
#859=EDGE_LOOP('',(#838,#844,#845,#851,#852,#858));
#860=FACE_BOUND('',#859,.T.);
#861=ADVANCED_FACE('NONE',(#860),#828,.F.);
#862=OVER_RIDING_STYLED_ITEM('',(#76),#861,#26);
#863=CARTESIAN_POINT('',(5.158056896,-6.728090311,4.130392317));
#864=DIRECTION('',(0.,-0.,1.));
#865=DIRECTION('',(1.,0.,-0.));
#866=AXIS2_PLACEMENT_3D('',#863,#864,#865);
#867=PLANE('',#866);
#868=ORIENTED_EDGE('',*,*,#524,.F.);
#869=CARTESIAN_POINT('',(8.058056896,-6.728090311,4.130392317));
#870=VERTEX_POINT('',#869);
#871=CARTESIAN_POINT('',(8.058056896,-6.728090311,4.130392317));
#872=DIRECTION('',(-0.,1.,0.));
#873=VECTOR('',#872,0.37);
#874=LINE('',#871,#873);
#875=EDGE_CURVE('NONE',#870,#510,#874,.T.);
#876=ORIENTED_EDGE('',*,*,#875,.F.);
#877=CARTESIAN_POINT('',(5.258056896,-6.728090311,4.130392317));
#878=VERTEX_POINT('',#877);
#879=CARTESIAN_POINT('',(8.058056896,-6.728090311,4.130392317));
#880=DIRECTION('',(-1.,-0.,-0.));
#881=VECTOR('',#880,2.8);
#882=LINE('',#879,#881);
#883=EDGE_CURVE('NONE',#870,#878,#882,.T.);
#884=ORIENTED_EDGE('',*,*,#883,.T.);
#885=CARTESIAN_POINT('',(5.258056896,-6.358090311,4.130392317));
#886=DIRECTION('',(0.,-1.,-0.));
#887=VECTOR('',#886,0.37);
#888=LINE('',#885,#887);
#889=EDGE_CURVE('NONE',#519,#878,#888,.T.);
#890=ORIENTED_EDGE('',*,*,#889,.F.);
#891=EDGE_LOOP('',(#868,#876,#884,#890));
#892=FACE_BOUND('',#891,.T.);
#893=ADVANCED_FACE('NONE',(#892),#867,.F.);
#894=OVER_RIDING_STYLED_ITEM('',(#76),#893,#26);
#895=CARTESIAN_POINT('',(5.158056896,-6.728090311,4.130392317));
#896=DIRECTION('',(1.,0.,0.));
#897=DIRECTION('',(0.,-1.,-0.));
#898=AXIS2_PLACEMENT_3D('',#895,#896,#897);
#899=PLANE('',#898);
#900=ORIENTED_EDGE('',*,*,#569,.F.);
#901=ORIENTED_EDGE('',*,*,#394,.F.);
#902=ORIENTED_EDGE('',*,*,#539,.F.);
#903=CARTESIAN_POINT('',(5.158056896,-6.728090311,4.230392317));
#904=VERTEX_POINT('',#903);
#905=CARTESIAN_POINT('',(5.158056896,-6.728090311,4.230392317));
#906=DIRECTION('',(-0.,1.,0.));
#907=VECTOR('',#906,0.37);
#908=LINE('',#905,#907);
#909=EDGE_CURVE('NONE',#904,#527,#908,.T.);
#910=ORIENTED_EDGE('',*,*,#909,.F.);
#911=CARTESIAN_POINT('',(5.158056896,-6.728090311,6.030392317));
#912=VERTEX_POINT('',#911);
#913=CARTESIAN_POINT('',(5.158056896,-6.728090311,4.230392317));
#914=DIRECTION('',(0.,-0.,1.));
#915=VECTOR('',#914,1.8);
#916=LINE('',#913,#915);
#917=EDGE_CURVE('NONE',#904,#912,#916,.T.);
#918=ORIENTED_EDGE('',*,*,#917,.T.);
#919=CARTESIAN_POINT('',(5.158056896,-6.358090311,6.030392317));
#920=DIRECTION('',(0.,-1.,-0.));
#921=VECTOR('',#920,0.37);
#922=LINE('',#919,#921);
#923=EDGE_CURVE('NONE',#564,#912,#922,.T.);
#924=ORIENTED_EDGE('',*,*,#923,.F.);
#925=EDGE_LOOP('',(#900,#901,#902,#910,#918,#924));
#926=FACE_BOUND('',#925,.T.);
#927=ADVANCED_FACE('NONE',(#926),#899,.F.);
#928=OVER_RIDING_STYLED_ITEM('',(#76),#927,#26);
#929=CARTESIAN_POINT('',(5.158056896,-6.728090311,6.130392317));
#930=DIRECTION('',(-0.,0.,-1.));
#931=DIRECTION('',(-1.,-0.,0.));
#932=AXIS2_PLACEMENT_3D('',#929,#930,#931);
#933=PLANE('',#932);
#934=ORIENTED_EDGE('',*,*,#586,.F.);
#935=CARTESIAN_POINT('',(5.258056896,-6.728090311,6.130392317));
#936=VERTEX_POINT('',#935);
#937=CARTESIAN_POINT('',(5.258056896,-6.728090311,6.130392317));
#938=DIRECTION('',(-0.,1.,0.));
#939=VECTOR('',#938,0.37);
#940=LINE('',#937,#939);
#941=EDGE_CURVE('NONE',#936,#572,#940,.T.);
#942=ORIENTED_EDGE('',*,*,#941,.F.);
#943=CARTESIAN_POINT('',(8.058056896,-6.728090311,6.130392317));
#944=VERTEX_POINT('',#943);
#945=CARTESIAN_POINT('',(5.258056896,-6.728090311,6.130392317));
#946=DIRECTION('',(1.,0.,0.));
#947=VECTOR('',#946,2.8);
#948=LINE('',#945,#947);
#949=EDGE_CURVE('NONE',#936,#944,#948,.T.);
#950=ORIENTED_EDGE('',*,*,#949,.T.);
#951=CARTESIAN_POINT('',(8.058056896,-6.358090311,6.130392317));
#952=DIRECTION('',(0.,-1.,-0.));
#953=VECTOR('',#952,0.37);
#954=LINE('',#951,#953);
#955=EDGE_CURVE('NONE',#581,#944,#954,.T.);
#956=ORIENTED_EDGE('',*,*,#955,.F.);
#957=EDGE_LOOP('',(#934,#942,#950,#956));
#958=FACE_BOUND('',#957,.T.);
#959=ADVANCED_FACE('NONE',(#958),#933,.F.);
#960=OVER_RIDING_STYLED_ITEM('',(#76),#959,#26);
#961=CARTESIAN_POINT('',(6.658056896,-6.728090311,5.130392317));
#962=DIRECTION('',(0.,-1.,-0.));
#963=DIRECTION('',(-1.,-0.,-0.));
#964=AXIS2_PLACEMENT_3D('',#961,#962,#963);
#965=PLANE('',#964);
#966=CARTESIAN_POINT('',(7.958056896,-6.728090311,5.830392317));
#967=VERTEX_POINT('',#966);
#968=CARTESIAN_POINT('',(7.958056896,-6.728090311,4.430392317));
#969=VERTEX_POINT('',#968);
#970=CARTESIAN_POINT('',(7.958056896,-6.728090311,5.830392317));
#971=DIRECTION('',(-0.,0.,-1.));
#972=VECTOR('',#971,1.4);
#973=LINE('',#970,#972);
#974=EDGE_CURVE('NONE',#967,#969,#973,.T.);
#975=ORIENTED_EDGE('',*,*,#974,.T.);
#976=CARTESIAN_POINT('',(7.858056896,-6.728090311,4.430392317));
#977=DIRECTION('',(0.,-1.,-0.));
#978=DIRECTION('',(1.,0.,0.));
#979=AXIS2_PLACEMENT_3D('',#976,#977,#978);
#980=CIRCLE('',#979,0.1);
#981=EDGE_CURVE('NONE',#680,#969,#980,.T.);
#982=ORIENTED_EDGE('',*,*,#981,.F.);
#983=ORIENTED_EDGE('',*,*,#687,.T.);
#984=CARTESIAN_POINT('',(5.358056896,-6.728090311,4.430392317));
#985=VERTEX_POINT('',#984);
#986=CARTESIAN_POINT('',(5.458056896,-6.728090311,4.430392317));
#987=DIRECTION('',(0.,-1.,-0.));
#988=DIRECTION('',(1.,0.,0.));
#989=AXIS2_PLACEMENT_3D('',#986,#987,#988);
#990=CIRCLE('',#989,0.1);
#991=EDGE_CURVE('NONE',#985,#682,#990,.T.);
#992=ORIENTED_EDGE('',*,*,#991,.F.);
#993=CARTESIAN_POINT('',(5.358056896,-6.728090311,5.830392317));
#994=VERTEX_POINT('',#993);
#995=CARTESIAN_POINT('',(5.358056896,-6.728090311,4.430392317));
#996=DIRECTION('',(0.,-0.,1.));
#997=VECTOR('',#996,1.4);
#998=LINE('',#995,#997);
#999=EDGE_CURVE('NONE',#985,#994,#998,.T.);
#1000=ORIENTED_EDGE('',*,*,#999,.T.);
#1001=CARTESIAN_POINT('',(5.458056896,-6.728090311,5.830392317));
#1002=DIRECTION('',(0.,-1.,-0.));
#1003=DIRECTION('',(1.,0.,0.));
#1004=AXIS2_PLACEMENT_3D('',#1001,#1002,#1003);
#1005=CIRCLE('',#1004,0.1);
#1006=EDGE_CURVE('NONE',#657,#994,#1005,.T.);
#1007=ORIENTED_EDGE('',*,*,#1006,.F.);
#1008=ORIENTED_EDGE('',*,*,#662,.T.);
#1009=CARTESIAN_POINT('',(7.858056896,-6.728090311,5.830392317));
#1010=DIRECTION('',(0.,-1.,-0.));
#1011=DIRECTION('',(1.,0.,0.));
#1012=AXIS2_PLACEMENT_3D('',#1009,#1010,#1011);
#1013=CIRCLE('',#1012,0.1);
#1014=EDGE_CURVE('NONE',#967,#649,#1013,.T.);
#1015=ORIENTED_EDGE('',*,*,#1014,.F.);
#1016=EDGE_LOOP('',(#975,#982,#983,#992,#1000,#1007,#1008,#1015));
#1017=FACE_BOUND('',#1016,.T.);
#1018=ORIENTED_EDGE('',*,*,#949,.F.);
#1019=CARTESIAN_POINT('',(5.258056896,-6.728090311,6.030392317));
#1020=DIRECTION('',(-0.,1.,0.));
#1021=DIRECTION('',(1.,0.,0.));
#1022=AXIS2_PLACEMENT_3D('',#1019,#1020,#1021);
#1023=CIRCLE('',#1022,0.1);
#1024=EDGE_CURVE('NONE',#912,#936,#1023,.T.);
#1025=ORIENTED_EDGE('',*,*,#1024,.F.);
#1026=ORIENTED_EDGE('',*,*,#917,.F.);
#1027=CARTESIAN_POINT('',(5.258056896,-6.728090311,4.230392317));
#1028=DIRECTION('',(-0.,1.,0.));
#1029=DIRECTION('',(1.,0.,0.));
#1030=AXIS2_PLACEMENT_3D('',#1027,#1028,#1029);
#1031=CIRCLE('',#1030,0.1);
#1032=EDGE_CURVE('NONE',#878,#904,#1031,.T.);
#1033=ORIENTED_EDGE('',*,*,#1032,.F.);
#1034=ORIENTED_EDGE('',*,*,#883,.F.);
#1035=CARTESIAN_POINT('',(8.058056896,-6.728090311,4.230392317));
#1036=DIRECTION('',(-0.,1.,0.));
#1037=DIRECTION('',(1.,0.,0.));
#1038=AXIS2_PLACEMENT_3D('',#1035,#1036,#1037);
#1039=CIRCLE('',#1038,0.1);
#1040=EDGE_CURVE('NONE',#832,#870,#1039,.T.);
#1041=ORIENTED_EDGE('',*,*,#1040,.F.);
#1042=ORIENTED_EDGE('',*,*,#837,.F.);
#1043=CARTESIAN_POINT('',(8.058056896,-6.728090311,6.030392317));
#1044=DIRECTION('',(-0.,1.,0.));
#1045=DIRECTION('',(1.,0.,0.));
#1046=AXIS2_PLACEMENT_3D('',#1043,#1044,#1045);
#1047=CIRCLE('',#1046,0.1);
#1048=EDGE_CURVE('NONE',#944,#830,#1047,.T.);
#1049=ORIENTED_EDGE('',*,*,#1048,.F.);
#1050=EDGE_LOOP('',(#1018,#1025,#1026,#1033,#1034,#1041,#1042,#1049));
#1051=FACE_BOUND('',#1050,.T.);
#1052=ADVANCED_FACE('NONE',(#1017,#1051),#965,.T.);
#1053=OVER_RIDING_STYLED_ITEM('',(#76),#1052,#26);
#1054=CARTESIAN_POINT('',(7.958056896,-6.678090311,4.330392317));
#1055=DIRECTION('',(1.,0.,0.));
#1056=DIRECTION('',(0.,-1.,-0.));
#1057=AXIS2_PLACEMENT_3D('',#1054,#1055,#1056);
#1058=PLANE('',#1057);
#1059=ORIENTED_EDGE('',*,*,#974,.F.);
#1060=CARTESIAN_POINT('',(7.958056896,-6.678090311,5.830392317));
#1061=DIRECTION('',(0.,-1.,-0.));
#1062=VECTOR('',#1061,0.05);
#1063=LINE('',#1060,#1062);
#1064=EDGE_CURVE('NONE',#745,#967,#1063,.T.);
#1065=ORIENTED_EDGE('',*,*,#1064,.F.);
#1066=ORIENTED_EDGE('',*,*,#752,.T.);
#1067=CARTESIAN_POINT('',(7.958056896,-6.728090311,4.430392317));
#1068=DIRECTION('',(-0.,1.,0.));
#1069=VECTOR('',#1068,0.05);
#1070=LINE('',#1067,#1069);
#1071=EDGE_CURVE('NONE',#969,#747,#1070,.T.);
#1072=ORIENTED_EDGE('',*,*,#1071,.F.);
#1073=EDGE_LOOP('',(#1059,#1065,#1066,#1072));
#1074=FACE_BOUND('',#1073,.T.);
#1075=ADVANCED_FACE('NONE',(#1074),#1058,.F.);
#1076=OVER_RIDING_STYLED_ITEM('',(#172),#1075,#26);
#1077=CARTESIAN_POINT('',(5.358056896,-6.678090311,4.330392317));
#1078=DIRECTION('',(-1.,-0.,-0.));
#1079=DIRECTION('',(-0.,1.,0.));
#1080=AXIS2_PLACEMENT_3D('',#1077,#1078,#1079);
#1081=PLANE('',#1080);
#1082=ORIENTED_EDGE('',*,*,#811,.T.);
#1083=CARTESIAN_POINT('',(5.358056896,-6.728090311,5.830392317));
#1084=DIRECTION('',(-0.,1.,0.));
#1085=VECTOR('',#1084,0.05);
#1086=LINE('',#1083,#1085);
#1087=EDGE_CURVE('NONE',#994,#797,#1086,.T.);
#1088=ORIENTED_EDGE('',*,*,#1087,.F.);
#1089=ORIENTED_EDGE('',*,*,#999,.F.);
#1090=CARTESIAN_POINT('',(5.358056896,-6.678090311,4.430392317));
#1091=DIRECTION('',(0.,-1.,-0.));
#1092=VECTOR('',#1091,0.05);
#1093=LINE('',#1090,#1092);
#1094=EDGE_CURVE('NONE',#806,#985,#1093,.T.);
#1095=ORIENTED_EDGE('',*,*,#1094,.F.);
#1096=EDGE_LOOP('',(#1082,#1088,#1089,#1095));
#1097=FACE_BOUND('',#1096,.T.);
#1098=ADVANCED_FACE('NONE',(#1097),#1081,.F.);
#1099=OVER_RIDING_STYLED_ITEM('',(#172),#1098,#26);
#1100=CARTESIAN_POINT('',(6.658056896,-6.708090311,5.130392317));
#1101=DIRECTION('',(0.,-1.,-0.));
#1102=DIRECTION('',(-1.,-0.,-0.));
#1103=AXIS2_PLACEMENT_3D('',#1100,#1101,#1102);
#1104=PLANE('',#1103);
#1105=ORIENTED_EDGE('',*,*,#99,.F.);
#1106=EDGE_LOOP('',(#1105));
#1107=FACE_BOUND('',#1106,.T.);
#1108=ORIENTED_EDGE('',*,*,#710,.F.);
#1109=ORIENTED_EDGE('',*,*,#145,.F.);
#1110=CARTESIAN_POINT('',(6.658056896,-6.708090311,5.130392317));
#1111=DIRECTION('',(-0.,1.,0.));
#1112=DIRECTION('',(1.,0.,0.));
#1113=AXIS2_PLACEMENT_3D('',#1110,#1111,#1112);
#1114=CIRCLE('',#1113,1.128585716);
#1115=EDGE_CURVE('NONE',#624,#130,#1114,.T.);
#1116=ORIENTED_EDGE('',*,*,#1115,.F.);
#1117=ORIENTED_EDGE('',*,*,#629,.F.);
#1118=CARTESIAN_POINT('',(6.658056896,-6.708090311,5.130392317));
#1119=DIRECTION('',(-0.,1.,0.));
#1120=DIRECTION('',(1.,0.,0.));
#1121=AXIS2_PLACEMENT_3D('',#1118,#1119,#1120);
#1122=CIRCLE('',#1121,1.128585716);
#1123=EDGE_CURVE('NONE',#705,#615,#1122,.T.);
#1124=ORIENTED_EDGE('',*,*,#1123,.F.);
#1125=EDGE_LOOP('',(#1108,#1109,#1116,#1117,#1124));
#1126=FACE_BOUND('',#1125,.T.);
#1127=ADVANCED_FACE('NONE',(#1107,#1126),#1104,.T.);
#1128=OVER_RIDING_STYLED_ITEM('',(#172),#1127,#26);
#1129=CARTESIAN_POINT('',(6.658056896,-6.928090311,5.130392317));
#1130=DIRECTION('',(0.,-1.,-0.));
#1131=DIRECTION('',(-1.,-0.,-0.));
#1132=AXIS2_PLACEMENT_3D('',#1129,#1130,#1131);
#1133=PLANE('',#1132);
#1134=ORIENTED_EDGE('',*,*,#65,.F.);
#1135=EDGE_LOOP('',(#1134));
#1136=FACE_BOUND('',#1135,.T.);
#1137=ADVANCED_FACE('NONE',(#1136),#1133,.T.);
#1138=OVER_RIDING_STYLED_ITEM('',(#76),#1137,#26);
#1139=CARTESIAN_POINT('',(4.908056896,-6.278090311,4.480392317));
#1140=DIRECTION('',(0.,-0.,1.));
#1141=DIRECTION('',(0.,-1.,-0.));
#1142=AXIS2_PLACEMENT_3D('',#1139,#1140,#1141);
#1143=PLANE('',#1142);
#1144=ORIENTED_EDGE('',*,*,#311,.T.);
#1145=CARTESIAN_POINT('',(5.408056896,-6.278090311,4.480392317));
#1146=DIRECTION('',(0.,-1.,-0.));
#1147=VECTOR('',#1146,0.08);
#1148=LINE('',#1145,#1147);
#1149=EDGE_CURVE('NONE',#298,#542,#1148,.T.);
#1150=ORIENTED_EDGE('',*,*,#1149,.T.);
#1151=ORIENTED_EDGE('',*,*,#547,.F.);
#1152=ORIENTED_EDGE('',*,*,#386,.F.);
#1153=CARTESIAN_POINT('',(5.008056896,-6.278090311,4.480392317));
#1154=DIRECTION('',(0.,-1.,-0.));
#1155=VECTOR('',#1154,0.08);
#1156=LINE('',#1153,#1155);
#1157=EDGE_CURVE('NONE',#306,#372,#1156,.T.);
#1158=ORIENTED_EDGE('',*,*,#1157,.F.);
#1159=EDGE_LOOP('',(#1144,#1150,#1151,#1152,#1158));
#1160=FACE_BOUND('',#1159,.T.);
#1161=ADVANCED_FACE('NONE',(#1160),#1143,.F.);
#1162=CARTESIAN_POINT('',(5.408056896,-6.278090311,5.780392317));
#1163=DIRECTION('',(-1.,-0.,-0.));
#1164=DIRECTION('',(-0.,1.,0.));
#1165=AXIS2_PLACEMENT_3D('',#1162,#1163,#1164);
#1166=PLANE('',#1165);
#1167=ORIENTED_EDGE('',*,*,#555,.F.);
#1168=ORIENTED_EDGE('',*,*,#1149,.F.);
#1169=ORIENTED_EDGE('',*,*,#303,.T.);
#1170=CARTESIAN_POINT('',(5.408056896,-6.278090311,5.780392317));
#1171=DIRECTION('',(0.,-1.,-0.));
#1172=VECTOR('',#1171,0.08);
#1173=LINE('',#1170,#1172);
#1174=EDGE_CURVE('NONE',#290,#550,#1173,.T.);
#1175=ORIENTED_EDGE('',*,*,#1174,.T.);
#1176=EDGE_LOOP('',(#1167,#1168,#1169,#1175));
#1177=FACE_BOUND('',#1176,.T.);
#1178=ADVANCED_FACE('NONE',(#1177),#1166,.F.);
#1179=CARTESIAN_POINT('',(4.908056896,-6.278090311,5.780392317));
#1180=DIRECTION('',(0.,0.,-1.));
#1181=DIRECTION('',(-0.,1.,0.));
#1182=AXIS2_PLACEMENT_3D('',#1179,#1180,#1181);
#1183=PLANE('',#1182);
#1184=ORIENTED_EDGE('',*,*,#402,.F.);
#1185=ORIENTED_EDGE('',*,*,#561,.F.);
#1186=ORIENTED_EDGE('',*,*,#1174,.F.);
#1187=ORIENTED_EDGE('',*,*,#295,.T.);
#1188=CARTESIAN_POINT('',(5.008056896,-6.358090311,5.780392317));
#1189=DIRECTION('',(-0.,1.,0.));
#1190=VECTOR('',#1189,0.08);
#1191=LINE('',#1188,#1190);
#1192=EDGE_CURVE('NONE',#397,#281,#1191,.T.);
#1193=ORIENTED_EDGE('',*,*,#1192,.F.);
#1194=EDGE_LOOP('',(#1184,#1185,#1186,#1187,#1193));
#1195=FACE_BOUND('',#1194,.T.);
#1196=ADVANCED_FACE('NONE',(#1195),#1183,.F.);
#1197=CARTESIAN_POINT('',(6.658056896,-6.358090311,5.130392317));
#1198=DIRECTION('',(-0.,1.,0.));
#1199=DIRECTION('',(1.,0.,0.));
#1200=AXIS2_PLACEMENT_3D('',#1197,#1198,#1199);
#1201=PLANE('',#1200);
#1202=ORIENTED_EDGE('',*,*,#451,.T.);
#1203=CARTESIAN_POINT('',(8.308056896,-6.358090311,5.780392317));
#1204=VERTEX_POINT('',#1203);
#1205=CARTESIAN_POINT('',(8.308056896,-6.358090311,5.680392317));
#1206=DIRECTION('',(-0.,1.,0.));
#1207=DIRECTION('',(-1.,-0.,-0.));
#1208=AXIS2_PLACEMENT_3D('',#1205,#1206,#1207);
#1209=CIRCLE('',#1208,0.1);
#1210=EDGE_CURVE('NONE',#1204,#438,#1209,.T.);
#1211=ORIENTED_EDGE('',*,*,#1210,.F.);
#1212=CARTESIAN_POINT('',(8.308056896,-6.358090311,5.780392317));
#1213=DIRECTION('',(-1.,-0.,-0.));
#1214=VECTOR('',#1213,0.15);
#1215=LINE('',#1212,#1214);
#1216=EDGE_CURVE('NONE',#1204,#470,#1215,.T.);
#1217=ORIENTED_EDGE('',*,*,#1216,.T.);
#1218=ORIENTED_EDGE('',*,*,#850,.T.);
#1219=CARTESIAN_POINT('',(8.308056896,-6.358090311,4.480392317));
#1220=VERTEX_POINT('',#1219);
#1221=CARTESIAN_POINT('',(8.158056896,-6.358090311,4.480392317));
#1222=DIRECTION('',(1.,0.,0.));
#1223=VECTOR('',#1222,0.15);
#1224=LINE('',#1221,#1223);
#1225=EDGE_CURVE('NONE',#494,#1220,#1224,.T.);
#1226=ORIENTED_EDGE('',*,*,#1225,.T.);
#1227=CARTESIAN_POINT('',(8.408056896,-6.358090311,4.580392317));
#1228=VERTEX_POINT('',#1227);
#1229=CARTESIAN_POINT('',(8.308056896,-6.358090311,4.580392317));
#1230=DIRECTION('',(-0.,1.,0.));
#1231=DIRECTION('',(-1.,-0.,-0.));
#1232=AXIS2_PLACEMENT_3D('',#1229,#1230,#1231);
#1233=CIRCLE('',#1232,0.1);
#1234=EDGE_CURVE('NONE',#1228,#1220,#1233,.T.);
#1235=ORIENTED_EDGE('',*,*,#1234,.F.);
#1236=CARTESIAN_POINT('',(8.408056896,-6.358090311,4.730081954));
#1237=VERTEX_POINT('',#1236);
#1238=CARTESIAN_POINT('',(8.408056896,-6.358090311,4.580392317));
#1239=DIRECTION('',(-0.,-0.,1.));
#1240=VECTOR('',#1239,0.149689637);
#1241=LINE('',#1238,#1240);
#1242=EDGE_CURVE('NONE',#1228,#1237,#1241,.T.);
#1243=ORIENTED_EDGE('',*,*,#1242,.T.);
#1244=CARTESIAN_POINT('',(8.386503694,-6.358090311,4.820396628));
#1245=VERTEX_POINT('',#1244);
#1246=CARTESIAN_POINT('',(8.208056896,-6.358090311,4.730081954));
#1247=DIRECTION('',(-0.,1.,0.));
#1248=DIRECTION('',(1.,0.,0.));
#1249=AXIS2_PLACEMENT_3D('',#1246,#1247,#1248);
#1250=CIRCLE('',#1249,0.2);
#1251=EDGE_CURVE('NONE',#1245,#1237,#1250,.T.);
#1252=ORIENTED_EDGE('',*,*,#1251,.F.);
#1253=CARTESIAN_POINT('',(8.386503694,-6.358090311,5.440388006));
#1254=VERTEX_POINT('',#1253);
#1255=CARTESIAN_POINT('',(8.386503694,-6.358090311,5.440388006));
#1256=CARTESIAN_POINT('',(8.229610098,-6.358090311,5.130392317));
#1257=CARTESIAN_POINT('',(8.386503694,-6.358090311,4.820396628));
#1258=B_SPLINE_CURVE_WITH_KNOTS('',2,(#1255,#1256,#1257),.UNSPECIFIED.,.F.,.F.,(3,3),(0.057149016,0.942850984),.UNSPECIFIED.);
#1259=EDGE_CURVE('NONE',#1254,#1245,#1258,.T.);
#1260=ORIENTED_EDGE('',*,*,#1259,.F.);
#1261=CARTESIAN_POINT('',(8.208056896,-6.358090311,5.530702681));
#1262=DIRECTION('',(-0.,1.,0.));
#1263=DIRECTION('',(1.,0.,0.));
#1264=AXIS2_PLACEMENT_3D('',#1261,#1262,#1263);
#1265=CIRCLE('',#1264,0.2);
#1266=EDGE_CURVE('NONE',#446,#1254,#1265,.T.);
#1267=ORIENTED_EDGE('',*,*,#1266,.F.);
#1268=EDGE_LOOP('',(#1202,#1211,#1217,#1218,#1226,#1235,#1243,#1252,#1260,#1267));
#1269=FACE_BOUND('',#1268,.T.);
#1270=ADVANCED_FACE('NONE',(#1269),#1201,.F.);
#1271=CARTESIAN_POINT('',(7.908056896,-6.278090311,5.780392317));
#1272=DIRECTION('',(1.,0.,0.));
#1273=DIRECTION('',(0.,-1.,-0.));
#1274=AXIS2_PLACEMENT_3D('',#1271,#1272,#1273);
#1275=PLANE('',#1274);
#1276=ORIENTED_EDGE('',*,*,#491,.F.);
#1277=CARTESIAN_POINT('',(7.908056896,-6.278090311,5.780392317));
#1278=VERTEX_POINT('',#1277);
#1279=CARTESIAN_POINT('',(7.908056896,-6.278090311,5.780392317));
#1280=DIRECTION('',(0.,-1.,-0.));
#1281=VECTOR('',#1280,0.08);
#1282=LINE('',#1279,#1281);
#1283=EDGE_CURVE('NONE',#1278,#478,#1282,.T.);
#1284=ORIENTED_EDGE('',*,*,#1283,.F.);
#1285=CARTESIAN_POINT('',(7.908056896,-6.278090311,4.480392317));
#1286=VERTEX_POINT('',#1285);
#1287=CARTESIAN_POINT('',(7.908056896,-6.278090311,5.780392317));
#1288=DIRECTION('',(-0.,0.,-1.));
#1289=VECTOR('',#1288,1.3);
#1290=LINE('',#1287,#1289);
#1291=EDGE_CURVE('NONE',#1278,#1286,#1290,.T.);
#1292=ORIENTED_EDGE('',*,*,#1291,.T.);
#1293=CARTESIAN_POINT('',(7.908056896,-6.278090311,4.480392317));
#1294=DIRECTION('',(0.,-1.,-0.));
#1295=VECTOR('',#1294,0.08);
#1296=LINE('',#1293,#1295);
#1297=EDGE_CURVE('NONE',#1286,#486,#1296,.T.);
#1298=ORIENTED_EDGE('',*,*,#1297,.T.);
#1299=EDGE_LOOP('',(#1276,#1284,#1292,#1298));
#1300=FACE_BOUND('',#1299,.T.);
#1301=ADVANCED_FACE('NONE',(#1300),#1275,.F.);
#1302=CARTESIAN_POINT('',(7.908056896,-6.278090311,4.480392317));
#1303=DIRECTION('',(0.,-0.,1.));
#1304=DIRECTION('',(0.,-1.,-0.));
#1305=AXIS2_PLACEMENT_3D('',#1302,#1303,#1304);
#1306=PLANE('',#1305);
#1307=ORIENTED_EDGE('',*,*,#1225,.F.);
#1308=ORIENTED_EDGE('',*,*,#499,.F.);
#1309=ORIENTED_EDGE('',*,*,#1297,.F.);
#1310=CARTESIAN_POINT('',(8.308056896,-6.278090311,4.480392317));
#1311=VERTEX_POINT('',#1310);
#1312=CARTESIAN_POINT('',(7.908056896,-6.278090311,4.480392317));
#1313=DIRECTION('',(1.,0.,0.));
#1314=VECTOR('',#1313,0.4);
#1315=LINE('',#1312,#1314);
#1316=EDGE_CURVE('NONE',#1286,#1311,#1315,.T.);
#1317=ORIENTED_EDGE('',*,*,#1316,.T.);
#1318=CARTESIAN_POINT('',(8.308056896,-6.358090311,4.480392317));
#1319=DIRECTION('',(-0.,1.,0.));
#1320=VECTOR('',#1319,0.08);
#1321=LINE('',#1318,#1320);
#1322=EDGE_CURVE('NONE',#1220,#1311,#1321,.T.);
#1323=ORIENTED_EDGE('',*,*,#1322,.F.);
#1324=EDGE_LOOP('',(#1307,#1308,#1309,#1317,#1323));
#1325=FACE_BOUND('',#1324,.T.);
#1326=ADVANCED_FACE('NONE',(#1325),#1306,.F.);
#1327=CARTESIAN_POINT('',(8.408056896,-6.278090311,5.780392317));
#1328=DIRECTION('',(-1.,-0.,-0.));
#1329=DIRECTION('',(-0.,-0.,1.));
#1330=AXIS2_PLACEMENT_3D('',#1327,#1328,#1329);
#1331=PLANE('',#1330);
#1332=ORIENTED_EDGE('',*,*,#1242,.F.);
#1333=CARTESIAN_POINT('',(8.408056896,-6.278090311,4.580392317));
#1334=VERTEX_POINT('',#1333);
#1335=CARTESIAN_POINT('',(8.408056896,-6.278090311,4.580392317));
#1336=DIRECTION('',(0.,-1.,-0.));
#1337=VECTOR('',#1336,0.08);
#1338=LINE('',#1335,#1337);
#1339=EDGE_CURVE('NONE',#1334,#1228,#1338,.T.);
#1340=ORIENTED_EDGE('',*,*,#1339,.F.);
#1341=CARTESIAN_POINT('',(8.408056896,-6.278090311,4.730081954));
#1342=VERTEX_POINT('',#1341);
#1343=CARTESIAN_POINT('',(8.408056896,-6.278090311,4.580392317));
#1344=DIRECTION('',(0.,-0.,1.));
#1345=VECTOR('',#1344,0.149689637);
#1346=LINE('',#1343,#1345);
#1347=EDGE_CURVE('NONE',#1334,#1342,#1346,.T.);
#1348=ORIENTED_EDGE('',*,*,#1347,.T.);
#1349=CARTESIAN_POINT('',(8.408056896,-6.358090311,4.730081954));
#1350=DIRECTION('',(-0.,1.,0.));
#1351=VECTOR('',#1350,0.08);
#1352=LINE('',#1349,#1351);
#1353=EDGE_CURVE('NONE',#1237,#1342,#1352,.T.);
#1354=ORIENTED_EDGE('',*,*,#1353,.F.);
#1355=EDGE_LOOP('',(#1332,#1340,#1348,#1354));
#1356=FACE_BOUND('',#1355,.T.);
#1357=ADVANCED_FACE('NONE',(#1356),#1331,.F.);
#1358=CARTESIAN_POINT('',(7.908056896,-6.278090311,5.780392317));
#1359=DIRECTION('',(0.,0.,-1.));
#1360=DIRECTION('',(-0.,1.,0.));
#1361=AXIS2_PLACEMENT_3D('',#1358,#1359,#1360);
#1362=PLANE('',#1361);
#1363=CARTESIAN_POINT('',(8.308056896,-6.278090311,5.780392317));
#1364=VERTEX_POINT('',#1363);
#1365=CARTESIAN_POINT('',(8.308056896,-6.278090311,5.780392317));
#1366=DIRECTION('',(-1.,-0.,-0.));
#1367=VECTOR('',#1366,0.4);
#1368=LINE('',#1365,#1367);
#1369=EDGE_CURVE('NONE',#1364,#1278,#1368,.T.);
#1370=ORIENTED_EDGE('',*,*,#1369,.T.);
#1371=ORIENTED_EDGE('',*,*,#1283,.T.);
#1372=ORIENTED_EDGE('',*,*,#483,.F.);
#1373=ORIENTED_EDGE('',*,*,#1216,.F.);
#1374=CARTESIAN_POINT('',(8.308056896,-6.278090311,5.780392317));
#1375=DIRECTION('',(0.,-1.,-0.));
#1376=VECTOR('',#1375,0.08);
#1377=LINE('',#1374,#1376);
#1378=EDGE_CURVE('NONE',#1364,#1204,#1377,.T.);
#1379=ORIENTED_EDGE('',*,*,#1378,.F.);
#1380=EDGE_LOOP('',(#1370,#1371,#1372,#1373,#1379));
#1381=FACE_BOUND('',#1380,.T.);
#1382=ADVANCED_FACE('NONE',(#1381),#1362,.F.);
#1383=CARTESIAN_POINT('',(6.658056896,-6.278090311,5.130392317));
#1384=DIRECTION('',(-0.,1.,0.));
#1385=DIRECTION('',(1.,0.,0.));
#1386=AXIS2_PLACEMENT_3D('',#1383,#1384,#1385);
#1387=PLANE('',#1386);
#1388=CARTESIAN_POINT('',(8.386503694,-6.278090311,5.440388006));
#1389=VERTEX_POINT('',#1388);
#1390=CARTESIAN_POINT('',(8.386503694,-6.278090311,4.820396628));
#1391=VERTEX_POINT('',#1390);
#1392=CARTESIAN_POINT('',(8.386503694,-6.278090311,5.440388006));
#1393=CARTESIAN_POINT('',(8.229610098,-6.278090311,5.130392317));
#1394=CARTESIAN_POINT('',(8.386503694,-6.278090311,4.820396628));
#1395=B_SPLINE_CURVE_WITH_KNOTS('',2,(#1392,#1393,#1394),.UNSPECIFIED.,.F.,.F.,(3,3),(0.057149016,0.942850984),.UNSPECIFIED.);
#1396=EDGE_CURVE('NONE',#1389,#1391,#1395,.T.);
#1397=ORIENTED_EDGE('',*,*,#1396,.T.);
#1398=CARTESIAN_POINT('',(8.208056896,-6.278090311,4.730081954));
#1399=DIRECTION('',(0.,-1.,-0.));
#1400=DIRECTION('',(1.,0.,0.));
#1401=AXIS2_PLACEMENT_3D('',#1398,#1399,#1400);
#1402=CIRCLE('',#1401,0.2);
#1403=EDGE_CURVE('NONE',#1342,#1391,#1402,.T.);
#1404=ORIENTED_EDGE('',*,*,#1403,.F.);
#1405=ORIENTED_EDGE('',*,*,#1347,.F.);
#1406=CARTESIAN_POINT('',(8.308056896,-6.278090311,4.580392317));
#1407=DIRECTION('',(0.,-1.,-0.));
#1408=DIRECTION('',(-1.,-0.,-0.));
#1409=AXIS2_PLACEMENT_3D('',#1406,#1407,#1408);
#1410=CIRCLE('',#1409,0.1);
#1411=EDGE_CURVE('NONE',#1311,#1334,#1410,.T.);
#1412=ORIENTED_EDGE('',*,*,#1411,.F.);
#1413=ORIENTED_EDGE('',*,*,#1316,.F.);
#1414=ORIENTED_EDGE('',*,*,#1291,.F.);
#1415=ORIENTED_EDGE('',*,*,#1369,.F.);
#1416=CARTESIAN_POINT('',(8.308056896,-6.278090311,5.680392317));
#1417=DIRECTION('',(0.,-1.,-0.));
#1418=DIRECTION('',(-1.,-0.,-0.));
#1419=AXIS2_PLACEMENT_3D('',#1416,#1417,#1418);
#1420=CIRCLE('',#1419,0.1);
#1421=EDGE_CURVE('NONE',#430,#1364,#1420,.T.);
#1422=ORIENTED_EDGE('',*,*,#1421,.F.);
#1423=ORIENTED_EDGE('',*,*,#435,.F.);
#1424=CARTESIAN_POINT('',(8.208056896,-6.278090311,5.530702681));
#1425=DIRECTION('',(0.,-1.,-0.));
#1426=DIRECTION('',(1.,0.,0.));
#1427=AXIS2_PLACEMENT_3D('',#1424,#1425,#1426);
#1428=CIRCLE('',#1427,0.2);
#1429=EDGE_CURVE('NONE',#1389,#428,#1428,.T.);
#1430=ORIENTED_EDGE('',*,*,#1429,.F.);
#1431=EDGE_LOOP('',(#1397,#1404,#1405,#1412,#1413,#1414,#1415,#1422,#1423,#1430));
#1432=FACE_BOUND('',#1431,.T.);
#1433=ADVANCED_FACE('NONE',(#1432),#1387,.T.);
#1434=CARTESIAN_POINT('',(8.386503694,-6.358090311,5.440388006));
#1435=CARTESIAN_POINT('',(8.386503694,-6.278090311,5.440388006));
#1436=CARTESIAN_POINT('',(8.229610098,-6.358090311,5.130392317));
#1437=CARTESIAN_POINT('',(8.229610098,-6.278090311,5.130392317));
#1438=CARTESIAN_POINT('',(8.386503694,-6.358090311,4.820396628));
#1439=CARTESIAN_POINT('',(8.386503694,-6.278090311,4.820396628));
#1440=B_SPLINE_SURFACE_WITH_KNOTS('',2,1,((#1434,#1435),(#1436,#1437),(#1438,#1439)),.UNSPECIFIED.,.F.,.F.,.U.,(3,3),(2,2),(0.057149016,0.942850984),(0.,1.),.UNSPECIFIED.);
#1441=ORIENTED_EDGE('',*,*,#1259,.T.);
#1442=CARTESIAN_POINT('',(8.386503694,-6.278090311,4.820396628));
#1443=DIRECTION('',(0.,-1.,-0.));
#1444=VECTOR('',#1443,0.08);
#1445=LINE('',#1442,#1444);
#1446=EDGE_CURVE('NONE',#1391,#1245,#1445,.T.);
#1447=ORIENTED_EDGE('',*,*,#1446,.F.);
#1448=ORIENTED_EDGE('',*,*,#1396,.F.);
#1449=CARTESIAN_POINT('',(8.386503694,-6.358090311,5.440388006));
#1450=DIRECTION('',(-0.,1.,0.));
#1451=VECTOR('',#1450,0.08);
#1452=LINE('',#1449,#1451);
#1453=EDGE_CURVE('NONE',#1254,#1389,#1452,.T.);
#1454=ORIENTED_EDGE('',*,*,#1453,.F.);
#1455=EDGE_LOOP('',(#1441,#1447,#1448,#1454));
#1456=FACE_BOUND('',#1455,.T.);
#1457=ADVANCED_FACE('NONE',(#1456),#1440,.T.);
#1458=CARTESIAN_POINT('',(4.929610098,-6.358090311,5.440388006));
#1459=CARTESIAN_POINT('',(4.929610098,-6.278090311,5.440388006));
#1460=CARTESIAN_POINT('',(5.086503694,-6.358090311,5.130392317));
#1461=CARTESIAN_POINT('',(5.086503694,-6.278090311,5.130392317));
#1462=CARTESIAN_POINT('',(4.929610098,-6.358090311,4.820396628));
#1463=CARTESIAN_POINT('',(4.929610098,-6.278090311,4.820396628));
#1464=B_SPLINE_SURFACE_WITH_KNOTS('',2,1,((#1458,#1459),(#1460,#1461),(#1462,#1463)),.UNSPECIFIED.,.F.,.F.,.U.,(3,3),(2,2),(0.057149016,0.942850984),(0.,1.),.UNSPECIFIED.);
#1465=ORIENTED_EDGE('',*,*,#336,.T.);
#1466=CARTESIAN_POINT('',(4.929610098,-6.358090311,4.820396628));
#1467=DIRECTION('',(-0.,1.,0.));
#1468=VECTOR('',#1467,0.08);
#1469=LINE('',#1466,#1468);
#1470=EDGE_CURVE('NONE',#356,#322,#1469,.T.);
#1471=ORIENTED_EDGE('',*,*,#1470,.F.);
#1472=ORIENTED_EDGE('',*,*,#361,.F.);
#1473=CARTESIAN_POINT('',(4.929610098,-6.278090311,5.440388006));
#1474=DIRECTION('',(0.,-1.,-0.));
#1475=VECTOR('',#1474,0.08);
#1476=LINE('',#1473,#1475);
#1477=EDGE_CURVE('NONE',#331,#354,#1476,.T.);
#1478=ORIENTED_EDGE('',*,*,#1477,.F.);
#1479=EDGE_LOOP('',(#1465,#1471,#1472,#1478));
#1480=FACE_BOUND('',#1479,.T.);
#1481=ADVANCED_FACE('NONE',(#1480),#1464,.F.);
#1482=CARTESIAN_POINT('',(5.458056896,-6.678090311,4.430392317));
#1483=DIRECTION('',(-0.,1.,0.));
#1484=DIRECTION('',(1.,0.,0.));
#1485=AXIS2_PLACEMENT_3D('',#1482,#1483,#1484);
#1486=CYLINDRICAL_SURFACE('',#1485,0.1);
#1487=ORIENTED_EDGE('',*,*,#818,.T.);
#1488=ORIENTED_EDGE('',*,*,#1094,.T.);
#1489=ORIENTED_EDGE('',*,*,#991,.T.);
#1490=ORIENTED_EDGE('',*,*,#733,.T.);
#1491=EDGE_LOOP('',(#1487,#1488,#1489,#1490));
#1492=FACE_BOUND('',#1491,.T.);
#1493=ADVANCED_FACE('NONE',(#1492),#1486,.F.);
#1494=OVER_RIDING_STYLED_ITEM('',(#172),#1493,#26);
#1495=CARTESIAN_POINT('',(5.458056896,-6.678090311,5.830392317));
#1496=DIRECTION('',(-0.,1.,0.));
#1497=DIRECTION('',(1.,0.,0.));
#1498=AXIS2_PLACEMENT_3D('',#1495,#1496,#1497);
#1499=CYLINDRICAL_SURFACE('',#1498,0.1);
#1500=ORIENTED_EDGE('',*,*,#803,.T.);
#1501=ORIENTED_EDGE('',*,*,#668,.T.);
#1502=ORIENTED_EDGE('',*,*,#1006,.T.);
#1503=ORIENTED_EDGE('',*,*,#1087,.T.);
#1504=EDGE_LOOP('',(#1500,#1501,#1502,#1503));
#1505=FACE_BOUND('',#1504,.T.);
#1506=ADVANCED_FACE('NONE',(#1505),#1499,.F.);
#1507=OVER_RIDING_STYLED_ITEM('',(#172),#1506,#26);
#1508=CARTESIAN_POINT('',(7.858056896,-6.678090311,4.430392317));
#1509=DIRECTION('',(-0.,1.,0.));
#1510=DIRECTION('',(1.,0.,0.));
#1511=AXIS2_PLACEMENT_3D('',#1508,#1509,#1510);
#1512=CYLINDRICAL_SURFACE('',#1511,0.1);
#1513=ORIENTED_EDGE('',*,*,#776,.T.);
#1514=ORIENTED_EDGE('',*,*,#695,.T.);
#1515=ORIENTED_EDGE('',*,*,#981,.T.);
#1516=ORIENTED_EDGE('',*,*,#1071,.T.);
#1517=EDGE_LOOP('',(#1513,#1514,#1515,#1516));
#1518=FACE_BOUND('',#1517,.T.);
#1519=ADVANCED_FACE('NONE',(#1518),#1512,.F.);
#1520=OVER_RIDING_STYLED_ITEM('',(#172),#1519,#26);
#1521=CARTESIAN_POINT('',(7.858056896,-6.678090311,5.830392317));
#1522=DIRECTION('',(-0.,1.,0.));
#1523=DIRECTION('',(1.,0.,0.));
#1524=AXIS2_PLACEMENT_3D('',#1521,#1522,#1523);
#1525=CYLINDRICAL_SURFACE('',#1524,0.1);
#1526=ORIENTED_EDGE('',*,*,#759,.T.);
#1527=ORIENTED_EDGE('',*,*,#1064,.T.);
#1528=ORIENTED_EDGE('',*,*,#1014,.T.);
#1529=ORIENTED_EDGE('',*,*,#654,.T.);
#1530=EDGE_LOOP('',(#1526,#1527,#1528,#1529));
#1531=FACE_BOUND('',#1530,.T.);
#1532=ADVANCED_FACE('NONE',(#1531),#1525,.F.);
#1533=OVER_RIDING_STYLED_ITEM('',(#172),#1532,#26);
#1534=CARTESIAN_POINT('',(6.658056896,-6.608090311,5.130392317));
#1535=DIRECTION('',(-0.,1.,0.));
#1536=DIRECTION('',(1.,0.,0.));
#1537=AXIS2_PLACEMENT_3D('',#1534,#1535,#1536);
#1538=TOROIDAL_SURFACE('',#1537,1.128585716,0.1);
#1539=ORIENTED_EDGE('',*,*,#719,.T.);
#1540=ORIENTED_EDGE('',*,*,#1123,.T.);
#1541=ORIENTED_EDGE('',*,*,#621,.T.);
#1542=ORIENTED_EDGE('',*,*,#793,.F.);
#1543=EDGE_LOOP('',(#1539,#1540,#1541,#1542));
#1544=FACE_BOUND('',#1543,.T.);
#1545=ADVANCED_FACE('NONE',(#1544),#1538,.T.);
#1546=OVER_RIDING_STYLED_ITEM('',(#172),#1545,#26);
#1547=CARTESIAN_POINT('',(8.058056896,-6.728090311,6.030392317));
#1548=DIRECTION('',(-0.,1.,0.));
#1549=DIRECTION('',(1.,0.,0.));
#1550=AXIS2_PLACEMENT_3D('',#1547,#1548,#1549);
#1551=CYLINDRICAL_SURFACE('',#1550,0.1);
#1552=ORIENTED_EDGE('',*,*,#1048,.T.);
#1553=ORIENTED_EDGE('',*,*,#857,.T.);
#1554=ORIENTED_EDGE('',*,*,#593,.T.);
#1555=ORIENTED_EDGE('',*,*,#955,.T.);
#1556=EDGE_LOOP('',(#1552,#1553,#1554,#1555));
#1557=FACE_BOUND('',#1556,.T.);
#1558=ADVANCED_FACE('NONE',(#1557),#1551,.T.);
#1559=OVER_RIDING_STYLED_ITEM('',(#76),#1558,#26);
#1560=CARTESIAN_POINT('',(5.258056896,-6.728090311,6.030392317));
#1561=DIRECTION('',(-0.,1.,0.));
#1562=DIRECTION('',(1.,0.,0.));
#1563=AXIS2_PLACEMENT_3D('',#1560,#1561,#1562);
#1564=CYLINDRICAL_SURFACE('',#1563,0.1);
#1565=ORIENTED_EDGE('',*,*,#1024,.T.);
#1566=ORIENTED_EDGE('',*,*,#941,.T.);
#1567=ORIENTED_EDGE('',*,*,#578,.T.);
#1568=ORIENTED_EDGE('',*,*,#923,.T.);
#1569=EDGE_LOOP('',(#1565,#1566,#1567,#1568));
#1570=FACE_BOUND('',#1569,.T.);
#1571=ADVANCED_FACE('NONE',(#1570),#1564,.T.);
#1572=OVER_RIDING_STYLED_ITEM('',(#76),#1571,#26);
#1573=CARTESIAN_POINT('',(5.258056896,-6.728090311,4.230392317));
#1574=DIRECTION('',(-0.,1.,0.));
#1575=DIRECTION('',(1.,0.,0.));
#1576=AXIS2_PLACEMENT_3D('',#1573,#1574,#1575);
#1577=CYLINDRICAL_SURFACE('',#1576,0.1);
#1578=ORIENTED_EDGE('',*,*,#1032,.T.);
#1579=ORIENTED_EDGE('',*,*,#909,.T.);
#1580=ORIENTED_EDGE('',*,*,#533,.T.);
#1581=ORIENTED_EDGE('',*,*,#889,.T.);
#1582=EDGE_LOOP('',(#1578,#1579,#1580,#1581));
#1583=FACE_BOUND('',#1582,.T.);
#1584=ADVANCED_FACE('NONE',(#1583),#1577,.T.);
#1585=OVER_RIDING_STYLED_ITEM('',(#76),#1584,#26);
#1586=CARTESIAN_POINT('',(8.058056896,-6.728090311,4.230392317));
#1587=DIRECTION('',(-0.,1.,0.));
#1588=DIRECTION('',(1.,0.,0.));
#1589=AXIS2_PLACEMENT_3D('',#1586,#1587,#1588);
#1590=CYLINDRICAL_SURFACE('',#1589,0.1);
#1591=ORIENTED_EDGE('',*,*,#1040,.T.);
#1592=ORIENTED_EDGE('',*,*,#875,.T.);
#1593=ORIENTED_EDGE('',*,*,#516,.T.);
#1594=ORIENTED_EDGE('',*,*,#843,.T.);
#1595=EDGE_LOOP('',(#1591,#1592,#1593,#1594));
#1596=FACE_BOUND('',#1595,.T.);
#1597=ADVANCED_FACE('NONE',(#1596),#1590,.T.);
#1598=OVER_RIDING_STYLED_ITEM('',(#76),#1597,#26);
#1599=CARTESIAN_POINT('',(5.008056896,-6.278090311,5.680392317));
#1600=DIRECTION('',(0.,-1.,-0.));
#1601=DIRECTION('',(-1.,-0.,-0.));
#1602=AXIS2_PLACEMENT_3D('',#1599,#1600,#1601);
#1603=CYLINDRICAL_SURFACE('',#1602,0.1);
#1604=ORIENTED_EDGE('',*,*,#287,.T.);
#1605=ORIENTED_EDGE('',*,*,#215,.T.);
#1606=ORIENTED_EDGE('',*,*,#409,.T.);
#1607=ORIENTED_EDGE('',*,*,#1192,.T.);
#1608=EDGE_LOOP('',(#1604,#1605,#1606,#1607));
#1609=FACE_BOUND('',#1608,.T.);
#1610=ADVANCED_FACE('NONE',(#1609),#1603,.T.);
#1611=CARTESIAN_POINT('',(5.008056896,-6.278090311,4.580392317));
#1612=DIRECTION('',(0.,-1.,-0.));
#1613=DIRECTION('',(-1.,-0.,-0.));
#1614=AXIS2_PLACEMENT_3D('',#1611,#1612,#1613);
#1615=CYLINDRICAL_SURFACE('',#1614,0.1);
#1616=ORIENTED_EDGE('',*,*,#318,.T.);
#1617=ORIENTED_EDGE('',*,*,#1157,.T.);
#1618=ORIENTED_EDGE('',*,*,#378,.T.);
#1619=ORIENTED_EDGE('',*,*,#255,.T.);
#1620=EDGE_LOOP('',(#1616,#1617,#1618,#1619));
#1621=FACE_BOUND('',#1620,.T.);
#1622=ADVANCED_FACE('NONE',(#1621),#1615,.T.);
#1623=CARTESIAN_POINT('',(8.308056896,-6.278090311,5.680392317));
#1624=DIRECTION('',(0.,-1.,-0.));
#1625=DIRECTION('',(-1.,-0.,-0.));
#1626=AXIS2_PLACEMENT_3D('',#1623,#1624,#1625);
#1627=CYLINDRICAL_SURFACE('',#1626,0.1);
#1628=ORIENTED_EDGE('',*,*,#1421,.T.);
#1629=ORIENTED_EDGE('',*,*,#1378,.T.);
#1630=ORIENTED_EDGE('',*,*,#1210,.T.);
#1631=ORIENTED_EDGE('',*,*,#443,.T.);
#1632=EDGE_LOOP('',(#1628,#1629,#1630,#1631));
#1633=FACE_BOUND('',#1632,.T.);
#1634=ADVANCED_FACE('NONE',(#1633),#1627,.T.);
#1635=CARTESIAN_POINT('',(8.308056896,-6.278090311,4.580392317));
#1636=DIRECTION('',(0.,-1.,-0.));
#1637=DIRECTION('',(-1.,-0.,-0.));
#1638=AXIS2_PLACEMENT_3D('',#1635,#1636,#1637);
#1639=CYLINDRICAL_SURFACE('',#1638,0.1);
#1640=ORIENTED_EDGE('',*,*,#1411,.T.);
#1641=ORIENTED_EDGE('',*,*,#1339,.T.);
#1642=ORIENTED_EDGE('',*,*,#1234,.T.);
#1643=ORIENTED_EDGE('',*,*,#1322,.T.);
#1644=EDGE_LOOP('',(#1640,#1641,#1642,#1643));
#1645=FACE_BOUND('',#1644,.T.);
#1646=ADVANCED_FACE('NONE',(#1645),#1639,.T.);
#1647=CARTESIAN_POINT('',(5.108056896,-6.318090311,5.530702681));
#1648=DIRECTION('',(-0.,1.,0.));
#1649=DIRECTION('',(1.,0.,0.));
#1650=AXIS2_PLACEMENT_3D('',#1647,#1648,#1649);
#1651=CYLINDRICAL_SURFACE('',#1650,0.2);
#1652=ORIENTED_EDGE('',*,*,#417,.T.);
#1653=ORIENTED_EDGE('',*,*,#229,.T.);
#1654=ORIENTED_EDGE('',*,*,#343,.T.);
#1655=ORIENTED_EDGE('',*,*,#1477,.T.);
#1656=EDGE_LOOP('',(#1652,#1653,#1654,#1655));
#1657=FACE_BOUND('',#1656,.T.);
#1658=ADVANCED_FACE('NONE',(#1657),#1651,.T.);
#1659=CARTESIAN_POINT('',(5.108056896,-6.318090311,4.730081954));
#1660=DIRECTION('',(-0.,1.,0.));
#1661=DIRECTION('',(1.,0.,0.));
#1662=AXIS2_PLACEMENT_3D('',#1659,#1660,#1661);
#1663=CYLINDRICAL_SURFACE('',#1662,0.2);
#1664=ORIENTED_EDGE('',*,*,#368,.T.);
#1665=ORIENTED_EDGE('',*,*,#1470,.T.);
#1666=ORIENTED_EDGE('',*,*,#328,.T.);
#1667=ORIENTED_EDGE('',*,*,#269,.T.);
#1668=EDGE_LOOP('',(#1664,#1665,#1666,#1667));
#1669=FACE_BOUND('',#1668,.T.);
#1670=ADVANCED_FACE('NONE',(#1669),#1663,.T.);
#1671=CARTESIAN_POINT('',(8.208056896,-6.318090311,5.530702681));
#1672=DIRECTION('',(-0.,1.,0.));
#1673=DIRECTION('',(1.,0.,0.));
#1674=AXIS2_PLACEMENT_3D('',#1671,#1672,#1673);
#1675=CYLINDRICAL_SURFACE('',#1674,0.2);
#1676=ORIENTED_EDGE('',*,*,#1266,.T.);
#1677=ORIENTED_EDGE('',*,*,#1453,.T.);
#1678=ORIENTED_EDGE('',*,*,#1429,.T.);
#1679=ORIENTED_EDGE('',*,*,#457,.T.);
#1680=EDGE_LOOP('',(#1676,#1677,#1678,#1679));
#1681=FACE_BOUND('',#1680,.T.);
#1682=ADVANCED_FACE('NONE',(#1681),#1675,.T.);
#1683=CARTESIAN_POINT('',(8.208056896,-6.318090311,4.730081954));
#1684=DIRECTION('',(-0.,1.,0.));
#1685=DIRECTION('',(1.,0.,0.));
#1686=AXIS2_PLACEMENT_3D('',#1683,#1684,#1685);
#1687=CYLINDRICAL_SURFACE('',#1686,0.2);
#1688=ORIENTED_EDGE('',*,*,#1251,.T.);
#1689=ORIENTED_EDGE('',*,*,#1353,.T.);
#1690=ORIENTED_EDGE('',*,*,#1403,.T.);
#1691=ORIENTED_EDGE('',*,*,#1446,.T.);
#1692=EDGE_LOOP('',(#1688,#1689,#1690,#1691));
#1693=FACE_BOUND('',#1692,.T.);
#1694=ADVANCED_FACE('NONE',(#1693),#1687,.T.);
#1695=CARTESIAN_POINT('',(6.658056896,-6.608090311,5.130392317));
#1696=DIRECTION('',(-0.,1.,0.));
#1697=DIRECTION('',(1.,0.,0.));
#1698=AXIS2_PLACEMENT_3D('',#1695,#1696,#1697);
#1699=TOROIDAL_SURFACE('',#1698,1.128585716,0.1);
#1700=ORIENTED_EDGE('',*,*,#136,.F.);
#1701=ORIENTED_EDGE('',*,*,#767,.F.);
#1702=ORIENTED_EDGE('',*,*,#638,.T.);
#1703=ORIENTED_EDGE('',*,*,#1115,.T.);
#1704=EDGE_LOOP('',(#1700,#1701,#1702,#1703));
#1705=FACE_BOUND('',#1704,.T.);
#1706=ADVANCED_FACE('NONE',(#1705),#1699,.T.);
#1707=OVER_RIDING_STYLED_ITEM('',(#172),#1706,#26);
#1708=CLOSED_SHELL('',(#69,#120,#165,#192,#233,#273,#347,#421,#461,#597,#672,#737,#780,#822,#861,#893,#927,#959,#1052,#1075,#1098,#1127,#1137,#1161,#1178,#1196,
#1270,#1301,#1326,#1357,#1382,#1433,#1457,#1481,#1493,#1506,#1519,#1532,#1545,#1558,#1571,#1584,#1597,#1610,#1622,#1634,#1646,#1658,#1670,#1682,#1694,
#1706));
#1709=MANIFOLD_SOLID_BREP('BTN',#1708);
#1710=DRAUGHTING_PRE_DEFINED_COLOUR('white');
#1711=FILL_AREA_STYLE_COLOUR('',#1710);
#1712=FILL_AREA_STYLE('',(#1711));
#1713=SURFACE_STYLE_FILL_AREA(#1712);
#1714=SURFACE_SIDE_STYLE('',(#1713));
#1715=SURFACE_STYLE_USAGE(.BOTH.,#1714);
#1716=PRESENTATION_STYLE_ASSIGNMENT((#1715));
#26=STYLED_ITEM('',(#1716),#1709);
#16=SHAPE_REPRESENTATION('BTN',(#15),#10);
#17=ADVANCED_BREP_SHAPE_REPRESENTATION('BTN',(#1709),#10);
#1724=SHAPE_REPRESENTATION_RELATIONSHIP('','',#16,#17);
#1725=CARTESIAN_POINT('',(0.,0.,0.));
#1726=DIRECTION('',(0.,0.,1.));
#1727=DIRECTION('',(1.,0.,0.));
#1728=AXIS2_PLACEMENT_3D('',#1725,#1726,#1727);
#1730=MAPPED_ITEM('',#1729,#1728);
#1729=REPRESENTATION_MAP(#1728,#16);
#1731=APPLICATION_CONTEXT('Managed model based 3d engineering');
#1732=APPLICATION_PROTOCOL_DEFINITION('international standard','ap242_managed_model_based_3d_engineering',2014,#1731);
#1733=PRODUCT_CONTEXT('',#1731,'mechanical');
#1734=PRODUCT_DEFINITION_CONTEXT('part definition',#1731,'design');
#24=PRODUCT('BTN','BTN','',(#1733));
#1735=PRODUCT_RELATED_PRODUCT_CATEGORY('part','',(#24));
#1736=PRODUCT_DEFINITION_FORMATION_WITH_SPECIFIED_SOURCE('','',#24,.NOT_KNOWN.);
#25=PRODUCT_DEFINITION('design','',#1736,#1734);
#23=PRODUCT_DEFINITION_SHAPE('','',#25);
#1737=SHAPE_DEFINITION_REPRESENTATION(#23,#16);
#11=DRAUGHTING_MODEL('',(#1730),#10);
#1738=DESCRIPTIVE_REPRESENTATION_ITEM('KEY','C:\\Users\\Nalani\\AppData\\Local\\Packages\\Shapr3D.Shapr3D_j403pzjkqtqbj\\TempState\\7bb7fc2a-e647-4a50-8122-7e8e094ac202.tmp');
#1739=PROPERTY_DEFINITION('KEY','',#25);
#1740=REPRESENTATION('',(#1738),#10);
#1741=PROPERTY_DEFINITION_REPRESENTATION(#1739,#1740);
#1742=GENERAL_PROPERTY('','KEY','');
#1743=GENERAL_PROPERTY_ASSOCIATION('','',#1742,#1739);
#1=MECHANICAL_DESIGN_GEOMETRIC_PRESENTATION_REPRESENTATION('',(#77,#121,#173,#193,#598,#673,#738,#781,#823,#862,#894,#928,#960,#1053,#1076,#1099,#1128,#1138,#1494,#1507,#1520,#1533,#1546,#1559,#1572,#1585,
#1598,#1707,#26),#10);
ENDSEC;
END-ISO-10303-21;
