ISO-10303-21;
HEADER;

/* File generated by Shapr3D Version 26.123.11423.0 */

FILE_DESCRIPTION(('HOOPS Exchange Step'),'2;1');

FILE_NAME('C:\\Users\\Nalani\\AppData\\Local\\Packages\\Shapr3D.Shapr3D_j403pzjkqtqbj\\TempState\\export\\temp_export',
'2026-08-03T16:12:06+08:00',
('Nalani'),
('Shapr3D Limited'),
'HOOPS Exchange 2026.3',
'Shapr3D',
'Authorized');

FILE_SCHEMA( ('AP242_MANAGED_MODEL_BASED_3D_ENGINEERING_MIM_LF {1 0 10303 442 1 1 4}') );

ENDSEC;

DATA;
#3=(NAMED_UNIT(*)PLANE_ANGLE_UNIT()SI_UNIT($,.RADIAN.));
#4=PLANE_ANGLE_MEASURE_WITH_UNIT(PLANE_ANGLE_MEASURE(0.0174532925),#3);
#5=(CONVERSION_BASED_UNIT('DEGREE',#4)NAMED_UNIT(#6)PLANE_ANGLE_UNIT());
#6=DIMENSIONAL_EXPONENTS(0.,0.,0.,0.,0.,0.,0.);
#7=(NAMED_UNIT(*)SI_UNIT($,.STERADIAN.)SOLID_ANGLE_UNIT());
#8=(LENGTH_UNIT()NAMED_UNIT(*)SI_UNIT(.MILLI.,.METRE.));
#9=UNCERTAINTY_MEASURE_WITH_UNIT(LENGTH_MEASURE(1.000000E-05),#8,'DISTANCE_ACCURACY_VALUE','Maximum Tolerance applied to model');
#10=(GEOMETRIC_REPRESENTATION_CONTEXT(3)GLOBAL_UNCERTAINTY_ASSIGNED_CONTEXT((#9))GLOBAL_UNIT_ASSIGNED_CONTEXT((#8,#5,#7))REPRESENTATION_CONTEXT('','fpc-b'));
#12=CARTESIAN_POINT('',(0.,0.,0.));
#13=DIRECTION('',(0.,0.,1.));
#14=DIRECTION('',(1.,0.,0.));
#15=AXIS2_PLACEMENT_3D('',#12,#13,#14);
#27=CARTESIAN_POINT('',(5.896438077,-0.260596204,0.08));
#28=DIRECTION('',(0.,0.,-1.));
#29=DIRECTION('',(0.342998891,-0.939335808,-0.));
#30=AXIS2_PLACEMENT_3D('',#27,#28,#29);
#31=PLANE('',#30);
#32=CARTESIAN_POINT('',(7.970878982,0.938536739,0.08));
#33=VERTEX_POINT('',#32);
#34=CARTESIAN_POINT('',(6.167688165,-1.607956593,0.08));
#35=VERTEX_POINT('',#34);
#36=CARTESIAN_POINT('',(7.970878982,0.938536739,0.08));
#37=DIRECTION('',(-0.577894561,-0.816111436,-0.));
#38=VECTOR('',#37,3.120276496);
#39=LINE('',#36,#38);
#40=EDGE_CURVE('',#33,#35,#39,.T.);
#41=ORIENTED_EDGE('',*,*,#40,.T.);
#42=CARTESIAN_POINT('',(2.58270997,-4.940293135,0.08));
#43=VERTEX_POINT('',#42);
#44=CARTESIAN_POINT('',(4.027449309,-2.900010399,0.08));
#45=DIRECTION('',(-0.,0.,-1.));
#46=DIRECTION('',(0.856093803,0.516820472,-0.));
#47=AXIS2_PLACEMENT_3D('',#44,#45,#46);
#48=CIRCLE('',#47,2.50000508);
#49=EDGE_CURVE('',#35,#43,#48,.T.);
#50=ORIENTED_EDGE('',*,*,#49,.T.);
#51=CARTESIAN_POINT('',(4.535461147,-0.452164535,0.08));
#52=VERTEX_POINT('',#51);
#53=CARTESIAN_POINT('',(4.027449309,-2.900010399,0.08));
#54=DIRECTION('',(0.,0.,-1.));
#55=DIRECTION('',(-0.577894561,-0.816111436,-0.));
#56=AXIS2_PLACEMENT_3D('',#53,#54,#55);
#57=CIRCLE('',#56,2.50000508);
#58=EDGE_CURVE('',#43,#52,#57,.T.);
#59=ORIENTED_EDGE('',*,*,#58,.T.);
#60=CARTESIAN_POINT('',(6.338651964,2.094328797,0.08));
#61=VERTEX_POINT('',#60);
#62=CARTESIAN_POINT('',(4.535461147,-0.452164535,0.08));
#63=DIRECTION('',(0.577894561,0.816111436,0.));
#64=VECTOR('',#63,3.120276496);
#65=LINE('',#62,#64);
#66=EDGE_CURVE('',#52,#61,#65,.T.);
#67=ORIENTED_EDGE('',*,*,#66,.T.);
#68=CARTESIAN_POINT('',(9.311501234,4.562207615,0.08));
#69=VERTEX_POINT('',#68);
#70=CARTESIAN_POINT('',(8.15570991,2.929981634,0.08));
#71=DIRECTION('',(-0.,0.,-1.));
#72=DIRECTION('',(-0.908527242,-0.417825622,0.));
#73=AXIS2_PLACEMENT_3D('',#70,#71,#72);
#74=CIRCLE('',#73,2.00000381);
#75=EDGE_CURVE('',#61,#69,#74,.T.);
#76=ORIENTED_EDGE('',*,*,#75,.T.);
#77=CARTESIAN_POINT('',(8.15570991,2.929981634,0.08));
#78=DIRECTION('',(0.,0.,-1.));
#79=DIRECTION('',(0.577894561,0.816111436,0.));
#80=AXIS2_PLACEMENT_3D('',#77,#78,#79);
#81=CIRCLE('',#80,2.00000381);
#82=EDGE_CURVE('',#69,#33,#81,.T.);
#83=ORIENTED_EDGE('',*,*,#82,.T.);
#84=EDGE_LOOP('',(#41,#50,#59,#67,#76,#83));
#85=FACE_BOUND('',#84,.T.);
#86=ADVANCED_FACE('',(#85),#31,.T.);
#87=OPEN_SHELL('',(#86));
#88=SHELL_BASED_SURFACE_MODEL('\X2\5DF25BFC5165\X0\ 01',(#87));
#89=COLOUR_RGB('',0.929411769,0.768627465,0.);
#90=FILL_AREA_STYLE_COLOUR('',#89);
#91=FILL_AREA_STYLE('',(#90));
#92=SURFACE_STYLE_FILL_AREA(#91);
#93=SURFACE_SIDE_STYLE('',(#92));
#94=SURFACE_STYLE_USAGE(.BOTH.,#93);
#95=PRESENTATION_STYLE_ASSIGNMENT((#94));
#26=STYLED_ITEM('',(#95),#88);
#96=(NAMED_UNIT(*)PLANE_ANGLE_UNIT()SI_UNIT($,.RADIAN.));
#97=PLANE_ANGLE_MEASURE_WITH_UNIT(PLANE_ANGLE_MEASURE(0.0174532925),#96);
#98=(CONVERSION_BASED_UNIT('DEGREE',#97)NAMED_UNIT(#99)PLANE_ANGLE_UNIT());
#99=DIMENSIONAL_EXPONENTS(0.,0.,0.,0.,0.,0.,0.);
#100=(NAMED_UNIT(*)SI_UNIT($,.STERADIAN.)SOLID_ANGLE_UNIT());
#101=(LENGTH_UNIT()NAMED_UNIT(*)SI_UNIT(.MILLI.,.METRE.));
#102=UNCERTAINTY_MEASURE_WITH_UNIT(LENGTH_MEASURE(1.000000E-05),#101,'DISTANCE_ACCURACY_VALUE','Maximum Tolerance applied to model');
#103=(GEOMETRIC_REPRESENTATION_CONTEXT(3)GLOBAL_UNCERTAINTY_ASSIGNED_CONTEXT((#102))GLOBAL_UNIT_ASSIGNED_CONTEXT((#101,#98,#100))REPRESENTATION_CONTEXT('','Board~aATq'));
#115=CARTESIAN_POINT('',(0.,0.,0.));
#116=DIRECTION('',(0.,0.,1.));
#117=DIRECTION('',(1.,0.,-0.));
#118=AXIS2_PLACEMENT_3D('',#115,#116,#117);
#119=ITEM_DEFINED_TRANSFORMATION('','',#118,#15);
#120=(REPRESENTATION_RELATIONSHIP('','',#105,#16)REPRESENTATION_RELATIONSHIP_WITH_TRANSFORMATION(#119)SHAPE_REPRESENTATION_RELATIONSHIP());
#121=NEXT_ASSEMBLY_USAGE_OCCURRENCE('Board~aATq_1','Board~aATq','Board~aATq',#25,#114,$);
#122=PRODUCT_DEFINITION_SHAPE('','',#121);
#123=CONTEXT_DEPENDENT_SHAPE_REPRESENTATION(#120,#122);
#125=CARTESIAN_POINT('',(4.027557651,-2.900036,-0.1300254));
#126=DIRECTION('',(0.,0.,-1.));
#127=DIRECTION('',(-0.573149287,-0.819450971,-0.));
#128=AXIS2_PLACEMENT_3D('',#125,#126,#127);
#129=CYLINDRICAL_SURFACE('',#128,2.887343356);
#130=CARTESIAN_POINT('',(2.372678864,-5.266072317,-0.));
#131=VERTEX_POINT('',#130);
#132=CARTESIAN_POINT('',(2.372678857,-5.266072313,0.07));
#133=VERTEX_POINT('',#132);
#134=CARTESIAN_POINT('',(2.372678864,-5.266072317,-0.));
#135=DIRECTION('',(-0.,-0.,1.));
#136=VECTOR('',#135,0.07);
#137=LINE('',#134,#136);
#138=EDGE_CURVE('',#131,#133,#137,.T.);
#139=ORIENTED_EDGE('',*,*,#138,.T.);
#140=CARTESIAN_POINT('',(3.742761691,-0.02677254,0.07));
#141=VERTEX_POINT('',#140);
#142=CARTESIAN_POINT('',(4.027557651,-2.900036,0.07));
#143=DIRECTION('',(0.,0.,-1.));
#144=DIRECTION('',(0.342998891,-0.939335808,-0.));
#145=AXIS2_PLACEMENT_3D('',#142,#143,#144);
#146=CIRCLE('',#145,2.887343356);
#147=EDGE_CURVE('',#133,#141,#146,.T.);
#148=ORIENTED_EDGE('',*,*,#147,.T.);
#149=CARTESIAN_POINT('',(3.742757283,-0.026772976,-0.));
#150=VERTEX_POINT('',#149);
#151=CARTESIAN_POINT('',(3.742757283,-0.026772976,-0.));
#152=DIRECTION('',(-0.,-0.,1.));
#153=VECTOR('',#152,0.07);
#154=LINE('',#151,#153);
#155=EDGE_CURVE('',#150,#141,#154,.T.);
#156=ORIENTED_EDGE('',*,*,#155,.F.);
#157=CARTESIAN_POINT('',(4.027557651,-2.900036,-0.));
#158=DIRECTION('',(0.,0.,-1.));
#159=DIRECTION('',(0.342998891,-0.939335808,-0.));
#160=AXIS2_PLACEMENT_3D('',#157,#158,#159);
#161=CIRCLE('',#160,2.887343356);
#162=EDGE_CURVE('',#131,#150,#161,.T.);
#163=ORIENTED_EDGE('',*,*,#162,.F.);
#164=EDGE_LOOP('',(#139,#148,#156,#163));
#165=FACE_BOUND('',#164,.T.);
#166=ADVANCED_FACE('',(#165),#129,.T.);
#167=CARTESIAN_POINT('',(3.603418488,1.379040006,-0.1300254));
#168=DIRECTION('',(0.,0.,-1.));
#169=DIRECTION('',(0.342998891,-0.939335808,-0.));
#170=AXIS2_PLACEMENT_3D('',#167,#168,#169);
#171=CYLINDRICAL_SURFACE('',#170,1.412701469);
#172=CARTESIAN_POINT('',(4.087973525,0.052038929,-0.));
#173=VERTEX_POINT('',#172);
#174=CARTESIAN_POINT('',(4.087973525,0.052038929,0.07));
#175=VERTEX_POINT('',#174);
#176=CARTESIAN_POINT('',(4.087973525,0.052038929,-0.));
#177=DIRECTION('',(-0.,-0.,1.));
#178=VECTOR('',#177,0.07);
#179=LINE('',#176,#178);
#180=EDGE_CURVE('',#173,#175,#179,.T.);
#181=ORIENTED_EDGE('',*,*,#180,.F.);
#182=CARTESIAN_POINT('',(3.603418488,1.379040006,-0.));
#183=DIRECTION('',(-0.,-0.,1.));
#184=DIRECTION('',(0.342998891,-0.939335808,-0.));
#185=AXIS2_PLACEMENT_3D('',#182,#183,#184);
#186=CIRCLE('',#185,1.412701469);
#187=EDGE_CURVE('',#150,#173,#186,.T.);
#188=ORIENTED_EDGE('',*,*,#187,.F.);
#189=ORIENTED_EDGE('',*,*,#155,.T.);
#190=CARTESIAN_POINT('',(3.603418487,1.379040005,0.07));
#191=DIRECTION('',(-0.,-0.,1.));
#192=DIRECTION('',(0.342998891,-0.939335808,-0.));
#193=AXIS2_PLACEMENT_3D('',#190,#191,#192);
#194=CIRCLE('',#193,1.412701469);
#195=EDGE_CURVE('',#141,#175,#194,.T.);
#196=ORIENTED_EDGE('',*,*,#195,.T.);
#197=EDGE_LOOP('',(#181,#188,#189,#196));
#198=FACE_BOUND('',#197,.T.);
#199=ADVANCED_FACE('',(#198),#171,.F.);
#200=CARTESIAN_POINT('',(4.761058381,0.569351598,-0.1300254));
#201=DIRECTION('',(-0.819451685,0.573148267,-0.));
#202=DIRECTION('',(0.573148267,0.819451685,0.));
#203=AXIS2_PLACEMENT_3D('',#200,#201,#202);
#204=PLANE('',#203);
#205=CARTESIAN_POINT('',(4.761059001,0.569352484,-0.));
#206=VERTEX_POINT('',#205);
#207=CARTESIAN_POINT('',(4.761059087,0.569352607,0.07));
#208=VERTEX_POINT('',#207);
#209=CARTESIAN_POINT('',(4.761059087,0.569352607,-0.));
#210=DIRECTION('',(-0.,-0.,1.));
#211=VECTOR('',#210,0.07);
#212=LINE('',#209,#211);
#213=EDGE_CURVE('',#206,#208,#212,.T.);
#214=ORIENTED_EDGE('',*,*,#213,.T.);
#215=CARTESIAN_POINT('',(5.076894012,1.020913707,0.07));
#216=VERTEX_POINT('',#215);
#217=CARTESIAN_POINT('',(4.761059087,0.569352607,0.07));
#218=DIRECTION('',(0.573148267,0.819451685,0.));
#219=VECTOR('',#218,0.551052744);
#220=LINE('',#217,#219);
#221=EDGE_CURVE('',#208,#216,#220,.T.);
#222=ORIENTED_EDGE('',*,*,#221,.T.);
#223=CARTESIAN_POINT('',(5.076893662,1.020913206,-0.));
#224=VERTEX_POINT('',#223);
#225=CARTESIAN_POINT('',(5.076894012,1.020913707,-0.));
#226=DIRECTION('',(-0.,-0.,1.));
#227=VECTOR('',#226,0.07);
#228=LINE('',#225,#227);
#229=EDGE_CURVE('',#224,#216,#228,.T.);
#230=ORIENTED_EDGE('',*,*,#229,.F.);
#231=CARTESIAN_POINT('',(4.761059001,0.569352484,-0.));
#232=DIRECTION('',(0.573148267,0.819451685,0.));
#233=VECTOR('',#232,0.551052284);
#234=LINE('',#231,#233);
#235=EDGE_CURVE('',#206,#224,#234,.T.);
#236=ORIENTED_EDGE('',*,*,#235,.F.);
#237=EDGE_LOOP('',(#214,#222,#230,#236));
#238=FACE_BOUND('',#237,.T.);
#239=ADVANCED_FACE('',(#238),#204,.T.);
#240=CARTESIAN_POINT('',(3.91925305,1.830601359,-0.1300254));
#241=DIRECTION('',(0.,0.,-1.));
#242=DIRECTION('',(0.342998891,-0.939335808,-0.));
#243=AXIS2_PLACEMENT_3D('',#240,#241,#242);
#244=CYLINDRICAL_SURFACE('',#243,1.412701912);
#245=ORIENTED_EDGE('',*,*,#229,.T.);
#246=CARTESIAN_POINT('',(5.287576823,2.181908551,0.07));
#247=VERTEX_POINT('',#246);
#248=CARTESIAN_POINT('',(3.91925306,1.830601373,0.07));
#249=DIRECTION('',(-0.,-0.,1.));
#250=DIRECTION('',(0.342998891,-0.939335808,-0.));
#251=AXIS2_PLACEMENT_3D('',#248,#249,#250);
#252=CIRCLE('',#251,1.412701912);
#253=EDGE_CURVE('',#216,#247,#252,.T.);
#254=ORIENTED_EDGE('',*,*,#253,.T.);
#255=CARTESIAN_POINT('',(5.287578053,2.181903763,-0.));
#256=VERTEX_POINT('',#255);
#257=CARTESIAN_POINT('',(5.287578053,2.181903763,-0.));
#258=DIRECTION('',(-0.,-0.,1.));
#259=VECTOR('',#258,0.07);
#260=LINE('',#257,#259);
#261=EDGE_CURVE('',#256,#247,#260,.T.);
#262=ORIENTED_EDGE('',*,*,#261,.F.);
#263=CARTESIAN_POINT('',(3.91925305,1.830601359,-0.));
#264=DIRECTION('',(-0.,-0.,1.));
#265=DIRECTION('',(0.342998891,-0.939335808,-0.));
#266=AXIS2_PLACEMENT_3D('',#263,#264,#265);
#267=CIRCLE('',#266,1.412701912);
#268=EDGE_CURVE('',#224,#256,#267,.T.);
#269=ORIENTED_EDGE('',*,*,#268,.F.);
#270=EDGE_LOOP('',(#245,#254,#262,#269));
#271=FACE_BOUND('',#270,.T.);
#272=ADVANCED_FACE('',(#271),#244,.F.);
#273=CARTESIAN_POINT('',(8.084214041,2.899924847,-0.1300254));
#274=DIRECTION('',(0.,0.,-1.));
#275=DIRECTION('',(-0.968572714,-0.248730572,-0.));
#276=AXIS2_PLACEMENT_3D('',#273,#274,#275);
#277=CYLINDRICAL_SURFACE('',#276,2.887339109);
#278=ORIENTED_EDGE('',*,*,#261,.T.);
#279=CARTESIAN_POINT('',(9.739012552,5.266012128,0.07));
#280=VERTEX_POINT('',#279);
#281=CARTESIAN_POINT('',(8.084214041,2.899924847,0.07));
#282=DIRECTION('',(0.,0.,-1.));
#283=DIRECTION('',(0.342998891,-0.939335808,-0.));
#284=AXIS2_PLACEMENT_3D('',#281,#282,#283);
#285=CIRCLE('',#284,2.887339109);
#286=EDGE_CURVE('',#247,#280,#285,.T.);
#287=ORIENTED_EDGE('',*,*,#286,.T.);
#288=CARTESIAN_POINT('',(9.739012548,5.26601213,-0.));
#289=VERTEX_POINT('',#288);
#290=CARTESIAN_POINT('',(9.739012548,5.26601213,-0.));
#291=DIRECTION('',(-0.,-0.,1.));
#292=VECTOR('',#291,0.07);
#293=LINE('',#290,#292);
#294=EDGE_CURVE('',#289,#280,#293,.T.);
#295=ORIENTED_EDGE('',*,*,#294,.F.);
#296=CARTESIAN_POINT('',(8.084214041,2.899924847,-0.));
#297=DIRECTION('',(0.,0.,-1.));
#298=DIRECTION('',(0.342998891,-0.939335808,-0.));
#299=AXIS2_PLACEMENT_3D('',#296,#297,#298);
#300=CIRCLE('',#299,2.887339109);
#301=EDGE_CURVE('',#256,#289,#300,.T.);
#302=ORIENTED_EDGE('',*,*,#301,.F.);
#303=EDGE_LOOP('',(#278,#287,#295,#302));
#304=FACE_BOUND('',#303,.T.);
#305=ADVANCED_FACE('',(#304),#277,.T.);
#306=CARTESIAN_POINT('',(8.084047189,2.900035824,-0.1300254));
#307=DIRECTION('',(0.,0.,-1.));
#308=DIRECTION('',(0.573179182,0.819430061,0.));
#309=AXIS2_PLACEMENT_3D('',#306,#307,#308);
#310=CYLINDRICAL_SURFACE('',#309,2.887343801);
#311=ORIENTED_EDGE('',*,*,#294,.T.);
#312=CARTESIAN_POINT('',(8.368843328,0.026771933,0.07));
#313=VERTEX_POINT('',#312);
#314=CARTESIAN_POINT('',(8.084047189,2.900035824,0.07));
#315=DIRECTION('',(0.,0.,-1.));
#316=DIRECTION('',(0.342998891,-0.939335808,-0.));
#317=AXIS2_PLACEMENT_3D('',#314,#315,#316);
#318=CIRCLE('',#317,2.887343801);
#319=EDGE_CURVE('',#280,#313,#318,.T.);
#320=ORIENTED_EDGE('',*,*,#319,.T.);
#321=CARTESIAN_POINT('',(8.368840584,0.026771661,-0.));
#322=VERTEX_POINT('',#321);
#323=CARTESIAN_POINT('',(8.368840584,0.026771661,-0.));
#324=DIRECTION('',(-0.,-0.,1.));
#325=VECTOR('',#324,0.07);
#326=LINE('',#323,#325);
#327=EDGE_CURVE('',#322,#313,#326,.T.);
#328=ORIENTED_EDGE('',*,*,#327,.F.);
#329=CARTESIAN_POINT('',(8.084047189,2.900035824,-0.));
#330=DIRECTION('',(0.,0.,-1.));
#331=DIRECTION('',(0.342998891,-0.939335808,-0.));
#332=AXIS2_PLACEMENT_3D('',#329,#330,#331);
#333=CIRCLE('',#332,2.887343801);
#334=EDGE_CURVE('',#289,#322,#333,.T.);
#335=ORIENTED_EDGE('',*,*,#334,.F.);
#336=EDGE_LOOP('',(#311,#320,#328,#335));
#337=FACE_BOUND('',#336,.T.);
#338=ADVANCED_FACE('',(#337),#310,.T.);
#339=CARTESIAN_POINT('',(8.508186596,-1.379040606,-0.1300254));
#340=DIRECTION('',(0.,0.,-1.));
#341=DIRECTION('',(0.342998891,-0.939335808,-0.));
#342=AXIS2_PLACEMENT_3D('',#339,#340,#341);
#343=CYLINDRICAL_SURFACE('',#342,1.412701469);
#344=ORIENTED_EDGE('',*,*,#327,.T.);
#345=CARTESIAN_POINT('',(7.350548136,-0.569350149,0.07));
#346=VERTEX_POINT('',#345);
#347=CARTESIAN_POINT('',(8.508186609,-1.379040588,0.07));
#348=DIRECTION('',(-0.,-0.,1.));
#349=DIRECTION('',(0.342998891,-0.939335808,-0.));
#350=AXIS2_PLACEMENT_3D('',#347,#348,#349);
#351=CIRCLE('',#350,1.412701469);
#352=EDGE_CURVE('',#313,#346,#351,.T.);
#353=ORIENTED_EDGE('',*,*,#352,.T.);
#354=CARTESIAN_POINT('',(7.350547958,-0.569350403,-0.));
#355=VERTEX_POINT('',#354);
#356=CARTESIAN_POINT('',(7.350548136,-0.569350149,-0.));
#357=DIRECTION('',(-0.,-0.,1.));
#358=VECTOR('',#357,0.07);
#359=LINE('',#356,#358);
#360=EDGE_CURVE('',#355,#346,#359,.T.);
#361=ORIENTED_EDGE('',*,*,#360,.F.);
#362=CARTESIAN_POINT('',(8.508186596,-1.379040606,-0.));
#363=DIRECTION('',(-0.,-0.,1.));
#364=DIRECTION('',(0.342998891,-0.939335808,-0.));
#365=AXIS2_PLACEMENT_3D('',#362,#363,#364);
#366=CIRCLE('',#365,1.412701469);
#367=EDGE_CURVE('',#322,#355,#366,.T.);
#368=ORIENTED_EDGE('',*,*,#367,.F.);
#369=EDGE_LOOP('',(#344,#353,#361,#368));
#370=FACE_BOUND('',#369,.T.);
#371=ADVANCED_FACE('',(#370),#343,.F.);
#372=CARTESIAN_POINT('',(7.350546715,-0.56935218,-0.1300254));
#373=DIRECTION('',(0.819450171,-0.573150432,-0.));
#374=DIRECTION('',(-0.573150432,-0.819450171,-0.));
#375=AXIS2_PLACEMENT_3D('',#372,#373,#374);
#376=PLANE('',#375);
#377=ORIENTED_EDGE('',*,*,#360,.T.);
#378=CARTESIAN_POINT('',(7.034713212,-1.020908707,0.07));
#379=VERTEX_POINT('',#378);
#380=CARTESIAN_POINT('',(7.350548136,-0.569350149,0.07));
#381=DIRECTION('',(-0.573150432,-0.819450171,-0.));
#382=VECTOR('',#381,0.55105066);
#383=LINE('',#380,#382);
#384=EDGE_CURVE('',#346,#379,#383,.T.);
#385=ORIENTED_EDGE('',*,*,#384,.T.);
#386=CARTESIAN_POINT('',(7.034712995,-1.020909016,-0.));
#387=VERTEX_POINT('',#386);
#388=CARTESIAN_POINT('',(7.034713212,-1.020908707,-0.));
#389=DIRECTION('',(-0.,-0.,1.));
#390=VECTOR('',#389,0.07);
#391=LINE('',#388,#390);
#392=EDGE_CURVE('',#387,#379,#391,.T.);
#393=ORIENTED_EDGE('',*,*,#392,.F.);
#394=CARTESIAN_POINT('',(7.350547958,-0.569350403,-0.));
#395=DIRECTION('',(-0.573150432,-0.819450171,-0.));
#396=VECTOR('',#395,0.551050729);
#397=LINE('',#394,#396);
#398=EDGE_CURVE('',#355,#387,#397,.T.);
#399=ORIENTED_EDGE('',*,*,#398,.F.);
#400=EDGE_LOOP('',(#377,#385,#393,#399));
#401=FACE_BOUND('',#400,.T.);
#402=ADVANCED_FACE('',(#401),#376,.T.);
#403=CARTESIAN_POINT('',(8.192352927,-1.830600041,-0.1300254));
#404=DIRECTION('',(0.,0.,-1.));
#405=DIRECTION('',(0.342998891,-0.939335808,-0.));
#406=AXIS2_PLACEMENT_3D('',#403,#404,#405);
#407=CYLINDRICAL_SURFACE('',#406,1.412703);
#408=ORIENTED_EDGE('',*,*,#392,.T.);
#409=CARTESIAN_POINT('',(6.824028184,-2.181907834,0.07));
#410=VERTEX_POINT('',#409);
#411=CARTESIAN_POINT('',(8.192352926,-1.830600042,0.07));
#412=DIRECTION('',(-0.,-0.,1.));
#413=DIRECTION('',(0.342998891,-0.939335808,-0.));
#414=AXIS2_PLACEMENT_3D('',#411,#412,#413);
#415=CIRCLE('',#414,1.412703);
#416=EDGE_CURVE('',#379,#410,#415,.T.);
#417=ORIENTED_EDGE('',*,*,#416,.T.);
#418=CARTESIAN_POINT('',(6.824029205,-2.181911809,-0.));
#419=VERTEX_POINT('',#418);
#420=CARTESIAN_POINT('',(6.824029205,-2.181911809,-0.));
#421=DIRECTION('',(-0.,-0.,1.));
#422=VECTOR('',#421,0.07);
#423=LINE('',#420,#422);
#424=EDGE_CURVE('',#419,#410,#423,.T.);
#425=ORIENTED_EDGE('',*,*,#424,.F.);
#426=CARTESIAN_POINT('',(8.192352927,-1.830600041,-0.));
#427=DIRECTION('',(-0.,-0.,1.));
#428=DIRECTION('',(0.342998891,-0.939335808,-0.));
#429=AXIS2_PLACEMENT_3D('',#426,#427,#428);
#430=CIRCLE('',#429,1.412703);
#431=EDGE_CURVE('',#387,#419,#430,.T.);
#432=ORIENTED_EDGE('',*,*,#431,.F.);
#433=EDGE_LOOP('',(#408,#417,#425,#432));
#434=FACE_BOUND('',#433,.T.);
#435=ADVANCED_FACE('',(#434),#407,.F.);
#436=CARTESIAN_POINT('',(4.027391175,-2.899924797,-0.1300254));
#437=DIRECTION('',(0.,0.,-1.));
#438=DIRECTION('',(0.968589107,0.248666727,0.));
#439=AXIS2_PLACEMENT_3D('',#436,#437,#438);
#440=CYLINDRICAL_SURFACE('',#439,2.887339073);
#441=ORIENTED_EDGE('',*,*,#424,.T.);
#442=CARTESIAN_POINT('',(4.027391175,-2.899924797,0.07));
#443=DIRECTION('',(0.,0.,-1.));
#444=DIRECTION('',(0.342998891,-0.939335808,-0.));
#445=AXIS2_PLACEMENT_3D('',#442,#443,#444);
#446=CIRCLE('',#445,2.887339073);
#447=EDGE_CURVE('',#410,#133,#446,.T.);
#448=ORIENTED_EDGE('',*,*,#447,.T.);
#449=ORIENTED_EDGE('',*,*,#138,.F.);
#450=CARTESIAN_POINT('',(4.027391175,-2.899924797,-0.));
#451=DIRECTION('',(0.,0.,-1.));
#452=DIRECTION('',(0.342998891,-0.939335808,-0.));
#453=AXIS2_PLACEMENT_3D('',#450,#451,#452);
#454=CIRCLE('',#453,2.887339073);
#455=EDGE_CURVE('',#419,#131,#454,.T.);
#456=ORIENTED_EDGE('',*,*,#455,.F.);
#457=EDGE_LOOP('',(#441,#448,#449,#456));
#458=FACE_BOUND('',#457,.T.);
#459=ADVANCED_FACE('',(#458),#440,.T.);
#460=CARTESIAN_POINT('',(6.055802684,-0.000003074,-0.));
#461=DIRECTION('',(0.,0.,-1.));
#462=DIRECTION('',(0.342998891,-0.939335808,-0.));
#463=AXIS2_PLACEMENT_3D('',#460,#461,#462);
#464=PLANE('',#463);
#465=ORIENTED_EDGE('',*,*,#162,.T.);
#466=ORIENTED_EDGE('',*,*,#187,.T.);
#467=CARTESIAN_POINT('',(3.603418488,1.379040006,-0.));
#468=DIRECTION('',(-0.,-0.,1.));
#469=DIRECTION('',(0.342998891,-0.939335808,-0.));
#470=AXIS2_PLACEMENT_3D('',#467,#468,#469);
#471=CIRCLE('',#470,1.412701469);
#472=EDGE_CURVE('',#173,#206,#471,.T.);
#473=ORIENTED_EDGE('',*,*,#472,.T.);
#474=ORIENTED_EDGE('',*,*,#235,.T.);
#475=ORIENTED_EDGE('',*,*,#268,.T.);
#476=ORIENTED_EDGE('',*,*,#301,.T.);
#477=ORIENTED_EDGE('',*,*,#334,.T.);
#478=ORIENTED_EDGE('',*,*,#367,.T.);
#479=ORIENTED_EDGE('',*,*,#398,.T.);
#480=ORIENTED_EDGE('',*,*,#431,.T.);
#481=ORIENTED_EDGE('',*,*,#455,.T.);
#482=EDGE_LOOP('',(#465,#466,#473,#474,#475,#476,#477,#478,#479,#480,#481));
#483=FACE_BOUND('',#482,.T.);
#484=ADVANCED_FACE('',(#483),#464,.T.);
#485=DRAUGHTING_PRE_DEFINED_COLOUR('black');
#486=FILL_AREA_STYLE_COLOUR('',#485);
#487=FILL_AREA_STYLE('',(#486));
#488=SURFACE_STYLE_FILL_AREA(#487);
#489=SURFACE_SIDE_STYLE('',(#488));
#490=SURFACE_STYLE_USAGE(.BOTH.,#489);
#491=PRESENTATION_STYLE_ASSIGNMENT((#490));
#492=OVER_RIDING_STYLED_ITEM('',(#491),#484,#124);
#493=CARTESIAN_POINT('',(6.055802684,-0.000003074,0.07));
#494=DIRECTION('',(0.,0.,-1.));
#495=DIRECTION('',(0.342998891,-0.939335808,-0.));
#496=AXIS2_PLACEMENT_3D('',#493,#494,#495);
#497=PLANE('',#496);
#498=ORIENTED_EDGE('',*,*,#447,.F.);
#499=ORIENTED_EDGE('',*,*,#416,.F.);
#500=ORIENTED_EDGE('',*,*,#384,.F.);
#501=ORIENTED_EDGE('',*,*,#352,.F.);
#502=ORIENTED_EDGE('',*,*,#319,.F.);
#503=ORIENTED_EDGE('',*,*,#286,.F.);
#504=ORIENTED_EDGE('',*,*,#253,.F.);
#505=ORIENTED_EDGE('',*,*,#221,.F.);
#506=CARTESIAN_POINT('',(3.603418487,1.379040005,0.07));
#507=DIRECTION('',(-0.,-0.,1.));
#508=DIRECTION('',(0.342998891,-0.939335808,-0.));
#509=AXIS2_PLACEMENT_3D('',#506,#507,#508);
#510=CIRCLE('',#509,1.412701469);
#511=EDGE_CURVE('',#175,#208,#510,.T.);
#512=ORIENTED_EDGE('',*,*,#511,.F.);
#513=ORIENTED_EDGE('',*,*,#195,.F.);
#514=ORIENTED_EDGE('',*,*,#147,.F.);
#515=EDGE_LOOP('',(#498,#499,#500,#501,#502,#503,#504,#505,#512,#513,#514));
#516=FACE_BOUND('',#515,.T.);
#517=ADVANCED_FACE('',(#516),#497,.F.);
#518=OVER_RIDING_STYLED_ITEM('',(#491),#517,#124);
#519=CARTESIAN_POINT('',(3.603418488,1.379040006,-0.1300254));
#520=DIRECTION('',(0.,0.,-1.));
#521=DIRECTION('',(0.342998891,-0.939335808,-0.));
#522=AXIS2_PLACEMENT_3D('',#519,#520,#521);
#523=CYLINDRICAL_SURFACE('',#522,1.412701469);
#524=ORIENTED_EDGE('',*,*,#180,.T.);
#525=ORIENTED_EDGE('',*,*,#511,.T.);
#526=ORIENTED_EDGE('',*,*,#213,.F.);
#527=ORIENTED_EDGE('',*,*,#472,.F.);
#528=EDGE_LOOP('',(#524,#525,#526,#527));
#529=FACE_BOUND('',#528,.T.);
#530=ADVANCED_FACE('',(#529),#523,.F.);
#531=CLOSED_SHELL('',(#166,#199,#239,#272,#305,#338,#371,#402,#435,#459,#484,#517,#530));
#532=MANIFOLD_SOLID_BREP('\X2\5DF25BFC5165\X0\ 04',#531);
#533=COLOUR_RGB('',0.937254906,0.937254906,0.650980413);
#534=FILL_AREA_STYLE_COLOUR('',#533);
#535=FILL_AREA_STYLE('',(#534));
#536=SURFACE_STYLE_FILL_AREA(#535);
#537=SURFACE_SIDE_STYLE('',(#536));
#538=SURFACE_STYLE_USAGE(.BOTH.,#537);
#539=PRESENTATION_STYLE_ASSIGNMENT((#538));
#124=STYLED_ITEM('',(#539),#532);
#105=SHAPE_REPRESENTATION('Board~aATq',(#15),#103);
#106=ADVANCED_BREP_SHAPE_REPRESENTATION('Board~aATq',(#532),#103);
#547=SHAPE_REPRESENTATION_RELATIONSHIP('','',#105,#106);
#548=CARTESIAN_POINT('',(0.,0.,0.));
#549=DIRECTION('',(0.,0.,1.));
#550=DIRECTION('',(1.,0.,0.));
#551=AXIS2_PLACEMENT_3D('',#548,#549,#550);
#553=MAPPED_ITEM('',#552,#551);
#552=REPRESENTATION_MAP(#551,#105);
#554=APPLICATION_CONTEXT('Managed model based 3d engineering');
#555=APPLICATION_PROTOCOL_DEFINITION('international standard','ap242_managed_model_based_3d_engineering',2014,#554);
#556=PRODUCT_CONTEXT('',#554,'mechanical');
#557=PRODUCT_DEFINITION_CONTEXT('part definition',#554,'design');
#113=PRODUCT('Board~aATq','Board~aATq','',(#556));
#558=PRODUCT_RELATED_PRODUCT_CATEGORY('part','',(#113));
#559=PRODUCT_DEFINITION_FORMATION_WITH_SPECIFIED_SOURCE('','',#113,.NOT_KNOWN.);
#114=PRODUCT_DEFINITION('design','',#559,#557);
#112=PRODUCT_DEFINITION_SHAPE('','',#114);
#560=SHAPE_DEFINITION_REPRESENTATION(#112,#105);
#104=DRAUGHTING_MODEL('',(#553),#103);
#561=(NAMED_UNIT(*)PLANE_ANGLE_UNIT()SI_UNIT($,.RADIAN.));
#562=PLANE_ANGLE_MEASURE_WITH_UNIT(PLANE_ANGLE_MEASURE(0.0174532925),#561);
#563=(CONVERSION_BASED_UNIT('DEGREE',#562)NAMED_UNIT(#564)PLANE_ANGLE_UNIT());
#564=DIMENSIONAL_EXPONENTS(0.,0.,0.,0.,0.,0.,0.);
#565=(NAMED_UNIT(*)SI_UNIT($,.STERADIAN.)SOLID_ANGLE_UNIT());
#566=(LENGTH_UNIT()NAMED_UNIT(*)SI_UNIT(.MILLI.,.METRE.));
#567=UNCERTAINTY_MEASURE_WITH_UNIT(LENGTH_MEASURE(1.000000E-03),#566,'DISTANCE_ACCURACY_VALUE','Maximum Tolerance applied to model');
#568=(GEOMETRIC_REPRESENTATION_CONTEXT(3)GLOBAL_UNCERTAINTY_ASSIGNED_CONTEXT((#567))GLOBAL_UNIT_ASSIGNED_CONTEXT((#566,#563,#565))REPRESENTATION_CONTEXT('','TopSilkscreen~aATq'));
#580=CARTESIAN_POINT('',(0.,0.,0.));
#581=DIRECTION('',(0.,0.,1.));
#582=DIRECTION('',(1.,0.,-0.));
#583=AXIS2_PLACEMENT_3D('',#580,#581,#582);
#584=ITEM_DEFINED_TRANSFORMATION('','',#583,#15);
#585=(REPRESENTATION_RELATIONSHIP('','',#570,#16)REPRESENTATION_RELATIONSHIP_WITH_TRANSFORMATION(#584)SHAPE_REPRESENTATION_RELATIONSHIP());
#586=NEXT_ASSEMBLY_USAGE_OCCURRENCE('TopSilkscreen~aATq_2','TopSilkscreen~aATq','TopSilkscreen~aATq',#25,#579,$);
#587=PRODUCT_DEFINITION_SHAPE('','',#586);
#588=CONTEXT_DEPENDENT_SHAPE_REPRESENTATION(#585,#587);
#589=(NAMED_UNIT(*)PLANE_ANGLE_UNIT()SI_UNIT($,.RADIAN.));
#590=PLANE_ANGLE_MEASURE_WITH_UNIT(PLANE_ANGLE_MEASURE(0.0174532925),#589);
#591=(CONVERSION_BASED_UNIT('DEGREE',#590)NAMED_UNIT(#592)PLANE_ANGLE_UNIT());
#592=DIMENSIONAL_EXPONENTS(0.,0.,0.,0.,0.,0.,0.);
#593=(NAMED_UNIT(*)SI_UNIT($,.STERADIAN.)SOLID_ANGLE_UNIT());
#594=(LENGTH_UNIT()NAMED_UNIT(*)SI_UNIT(.MILLI.,.METRE.));
#595=UNCERTAINTY_MEASURE_WITH_UNIT(LENGTH_MEASURE(1.000000E-05),#594,'DISTANCE_ACCURACY_VALUE','Maximum Tolerance applied to model');
#596=(GEOMETRIC_REPRESENTATION_CONTEXT(3)GLOBAL_UNCERTAINTY_ASSIGNED_CONTEXT((#595))GLOBAL_UNIT_ASSIGNED_CONTEXT((#594,#591,#593))REPRESENTATION_CONTEXT('','TopSilkscreen~aATq'));
#608=CARTESIAN_POINT('',(0.,0.,0.));
#609=DIRECTION('',(0.,0.,1.));
#610=DIRECTION('',(1.,0.,-0.));
#611=AXIS2_PLACEMENT_3D('',#608,#609,#610);
#612=ITEM_DEFINED_TRANSFORMATION('','',#611,#15);
#613=(REPRESENTATION_RELATIONSHIP('','',#598,#570)REPRESENTATION_RELATIONSHIP_WITH_TRANSFORMATION(#612)SHAPE_REPRESENTATION_RELATIONSHIP());
#614=NEXT_ASSEMBLY_USAGE_OCCURRENCE('TopSilkscreen~aATq_3','TopSilkscreen~aATq','TopSilkscreen~aATq',#579,#607,$);
#615=PRODUCT_DEFINITION_SHAPE('','',#614);
#616=CONTEXT_DEPENDENT_SHAPE_REPRESENTATION(#613,#615);
#618=CARTESIAN_POINT('',(6.500928183,-1.054317287,0.09));
#619=DIRECTION('',(0.,0.,-1.));
#620=DIRECTION('',(0.342998891,-0.939335808,-0.));
#621=AXIS2_PLACEMENT_3D('',#618,#619,#620);
#622=PLANE('',#621);
#623=CARTESIAN_POINT('',(6.32757833,-0.798241461,0.09));
#624=VERTEX_POINT('',#623);
#625=CARTESIAN_POINT('',(6.468478701,-0.746791627,0.09));
#626=VERTEX_POINT('',#625);
#627=CARTESIAN_POINT('',(6.398028515,-0.772516544,0.09));
#628=DIRECTION('',(0.,0.,-1.));
#629=DIRECTION('',(-0.939335808,-0.342998891,-0.));
#630=AXIS2_PLACEMENT_3D('',#627,#628,#629);
#631=CIRCLE('',#630,0.075);
#632=EDGE_CURVE('',#624,#626,#631,.T.);
#633=ORIENTED_EDGE('',*,*,#632,.T.);
#634=CARTESIAN_POINT('',(6.674278036,-1.310393112,0.09));
#635=VERTEX_POINT('',#634);
#636=CARTESIAN_POINT('',(6.468478701,-0.746791627,0.09));
#637=DIRECTION('',(0.342998891,-0.939335808,-0.));
#638=VECTOR('',#637,0.6);
#639=LINE('',#636,#638);
#640=EDGE_CURVE('',#626,#635,#639,.T.);
#641=ORIENTED_EDGE('',*,*,#640,.T.);
#642=CARTESIAN_POINT('',(6.533377664,-1.361842946,0.09));
#643=VERTEX_POINT('',#642);
#644=CARTESIAN_POINT('',(6.60382785,-1.336118029,0.09));
#645=DIRECTION('',(0.,0.,-1.));
#646=DIRECTION('',(0.939335808,0.342998891,0.));
#647=AXIS2_PLACEMENT_3D('',#644,#645,#646);
#648=CIRCLE('',#647,0.075);
#649=EDGE_CURVE('',#635,#643,#648,.T.);
#650=ORIENTED_EDGE('',*,*,#649,.T.);
#651=CARTESIAN_POINT('',(6.533377664,-1.361842946,0.09));
#652=DIRECTION('',(-0.342998891,0.939335808,0.));
#653=VECTOR('',#652,0.6);
#654=LINE('',#651,#653);
#655=EDGE_CURVE('',#643,#624,#654,.T.);
#656=ORIENTED_EDGE('',*,*,#655,.T.);
#657=EDGE_LOOP('',(#633,#641,#650,#656));
#658=FACE_BOUND('',#657,.T.);
#659=ADVANCED_FACE('',(#658),#622,.T.);
#660=OPEN_SHELL('',(#659));
#661=SHELL_BASED_SURFACE_MODEL('\X2\5DF25BFC5165\X0\ 03',(#660));
#662=DRAUGHTING_PRE_DEFINED_COLOUR('white');
#663=FILL_AREA_STYLE_COLOUR('',#662);
#664=FILL_AREA_STYLE('',(#663));
#665=SURFACE_STYLE_FILL_AREA(#664);
#666=SURFACE_SIDE_STYLE('',(#665));
#667=SURFACE_STYLE_USAGE(.BOTH.,#666);
#668=PRESENTATION_STYLE_ASSIGNMENT((#667));
#617=STYLED_ITEM('',(#668),#661);
#598=SHAPE_REPRESENTATION('TopSilkscreen~aATq',(#15),#596);
#603=MANIFOLD_SURFACE_SHAPE_REPRESENTATION('TopSilkscreen~aATq',(#661),#596);
#676=SHAPE_REPRESENTATION_RELATIONSHIP('','',#598,#603);
#677=CARTESIAN_POINT('',(0.,0.,0.));
#678=DIRECTION('',(0.,0.,1.));
#679=DIRECTION('',(1.,0.,0.));
#680=AXIS2_PLACEMENT_3D('',#677,#678,#679);
#682=MAPPED_ITEM('',#681,#680);
#681=REPRESENTATION_MAP(#680,#598);
#606=PRODUCT('TopSilkscreen~aATq','TopSilkscreen~aATq','',(#556));
#683=PRODUCT_RELATED_PRODUCT_CATEGORY('part','',(#606));
#684=PRODUCT_DEFINITION_FORMATION_WITH_SPECIFIED_SOURCE('','',#606,.NOT_KNOWN.);
#607=PRODUCT_DEFINITION('design','',#684,#557);
#605=PRODUCT_DEFINITION_SHAPE('','',#607);
#685=SHAPE_DEFINITION_REPRESENTATION(#605,#598);
#597=DRAUGHTING_MODEL('',(#682),#596);
#686=(NAMED_UNIT(*)PLANE_ANGLE_UNIT()SI_UNIT($,.RADIAN.));
#687=PLANE_ANGLE_MEASURE_WITH_UNIT(PLANE_ANGLE_MEASURE(0.0174532925),#686);
#688=(CONVERSION_BASED_UNIT('DEGREE',#687)NAMED_UNIT(#689)PLANE_ANGLE_UNIT());
#689=DIMENSIONAL_EXPONENTS(0.,0.,0.,0.,0.,0.,0.);
#690=(NAMED_UNIT(*)SI_UNIT($,.STERADIAN.)SOLID_ANGLE_UNIT());
#691=(LENGTH_UNIT()NAMED_UNIT(*)SI_UNIT(.MILLI.,.METRE.));
#692=UNCERTAINTY_MEASURE_WITH_UNIT(LENGTH_MEASURE(1.000000E-05),#691,'DISTANCE_ACCURACY_VALUE','Maximum Tolerance applied to model');
#693=(GEOMETRIC_REPRESENTATION_CONTEXT(3)GLOBAL_UNCERTAINTY_ASSIGNED_CONTEXT((#692))GLOBAL_UNIT_ASSIGNED_CONTEXT((#691,#688,#690))REPRESENTATION_CONTEXT('','TopSilkscreen~aATq'));
#705=CARTESIAN_POINT('',(0.,0.,0.));
#706=DIRECTION('',(0.,0.,1.));
#707=DIRECTION('',(1.,0.,-0.));
#708=AXIS2_PLACEMENT_3D('',#705,#706,#707);
#709=ITEM_DEFINED_TRANSFORMATION('','',#708,#15);
#710=(REPRESENTATION_RELATIONSHIP('','',#695,#570)REPRESENTATION_RELATIONSHIP_WITH_TRANSFORMATION(#709)SHAPE_REPRESENTATION_RELATIONSHIP());
#711=NEXT_ASSEMBLY_USAGE_OCCURRENCE('TopSilkscreen~aATq_4','TopSilkscreen~aATq','TopSilkscreen~aATq',#579,#704,$);
#712=PRODUCT_DEFINITION_SHAPE('','',#711);
#713=CONTEXT_DEPENDENT_SHAPE_REPRESENTATION(#710,#712);
#715=CARTESIAN_POINT('',(5.657492429,1.255513522,0.09));
#716=DIRECTION('',(0.,0.,-1.));
#717=DIRECTION('',(0.342998891,-0.939335808,-0.));
#718=AXIS2_PLACEMENT_3D('',#715,#716,#717);
#719=PLANE('',#718);
#720=CARTESIAN_POINT('',(5.625042947,1.563039181,0.09));
#721=VERTEX_POINT('',#720);
#722=CARTESIAN_POINT('',(5.702217698,1.351688624,0.09));
#723=VERTEX_POINT('',#722);
#724=CARTESIAN_POINT('',(5.625042947,1.563039181,0.09));
#725=DIRECTION('',(0.342998891,-0.939335808,-0.));
#726=VECTOR('',#725,0.225);
#727=LINE('',#724,#726);
#728=EDGE_CURVE('',#721,#723,#727,.T.);
#729=ORIENTED_EDGE('',*,*,#728,.T.);
#730=CARTESIAN_POINT('',(5.913568255,1.428863375,0.09));
#731=VERTEX_POINT('',#730);
#732=CARTESIAN_POINT('',(5.702217698,1.351688624,0.09));
#733=DIRECTION('',(0.939335808,0.342998891,0.));
#734=VECTOR('',#733,0.225);
#735=LINE('',#732,#734);
#736=EDGE_CURVE('',#723,#731,#735,.T.);
#737=ORIENTED_EDGE('',*,*,#736,.T.);
#738=CARTESIAN_POINT('',(5.965018088,1.287963004,0.09));
#739=VERTEX_POINT('',#738);
#740=CARTESIAN_POINT('',(5.939293171,1.358413189,0.09));
#741=DIRECTION('',(0.,0.,-1.));
#742=DIRECTION('',(-0.342998891,0.939335808,0.));
#743=AXIS2_PLACEMENT_3D('',#740,#741,#742);
#744=CIRCLE('',#743,0.075);
#745=EDGE_CURVE('',#731,#739,#744,.T.);
#746=ORIENTED_EDGE('',*,*,#745,.T.);
#747=CARTESIAN_POINT('',(5.753667531,1.210788253,0.09));
#748=VERTEX_POINT('',#747);
#749=CARTESIAN_POINT('',(5.965018088,1.287963004,0.09));
#750=DIRECTION('',(-0.939335808,-0.342998891,-0.));
#751=VECTOR('',#750,0.225);
#752=LINE('',#749,#751);
#753=EDGE_CURVE('',#739,#748,#752,.T.);
#754=ORIENTED_EDGE('',*,*,#753,.T.);
#755=CARTESIAN_POINT('',(5.830842282,0.999437696,0.09));
#756=VERTEX_POINT('',#755);
#757=CARTESIAN_POINT('',(5.753667531,1.210788253,0.09));
#758=DIRECTION('',(0.342998891,-0.939335808,-0.));
#759=VECTOR('',#758,0.225);
#760=LINE('',#757,#759);
#761=EDGE_CURVE('',#748,#756,#760,.T.);
#762=ORIENTED_EDGE('',*,*,#761,.T.);
#763=CARTESIAN_POINT('',(5.68994191,0.947987863,0.09));
#764=VERTEX_POINT('',#763);
#765=CARTESIAN_POINT('',(5.760392096,0.97371278,0.09));
#766=DIRECTION('',(0.,0.,-1.));
#767=DIRECTION('',(0.939335808,0.342998891,0.));
#768=AXIS2_PLACEMENT_3D('',#765,#766,#767);
#769=CIRCLE('',#768,0.075);
#770=EDGE_CURVE('',#756,#764,#769,.T.);
#771=ORIENTED_EDGE('',*,*,#770,.T.);
#772=CARTESIAN_POINT('',(5.61276716,1.15933842,0.09));
#773=VERTEX_POINT('',#772);
#774=CARTESIAN_POINT('',(5.68994191,0.947987863,0.09));
#775=DIRECTION('',(-0.342998891,0.939335808,0.));
#776=VECTOR('',#775,0.225);
#777=LINE('',#774,#776);
#778=EDGE_CURVE('',#764,#773,#777,.T.);
#779=ORIENTED_EDGE('',*,*,#778,.T.);
#780=CARTESIAN_POINT('',(5.401416603,1.082163669,0.09));
#781=VERTEX_POINT('',#780);
#782=CARTESIAN_POINT('',(5.61276716,1.15933842,0.09));
#783=DIRECTION('',(-0.939335808,-0.342998891,-0.));
#784=VECTOR('',#783,0.225);
#785=LINE('',#782,#784);
#786=EDGE_CURVE('',#773,#781,#785,.T.);
#787=ORIENTED_EDGE('',*,*,#786,.T.);
#788=CARTESIAN_POINT('',(5.34996677,1.22306404,0.09));
#789=VERTEX_POINT('',#788);
#790=CARTESIAN_POINT('',(5.375691686,1.152613855,0.09));
#791=DIRECTION('',(0.,0.,-1.));
#792=DIRECTION('',(0.342998891,-0.939335808,-0.));
#793=AXIS2_PLACEMENT_3D('',#790,#791,#792);
#794=CIRCLE('',#793,0.075);
#795=EDGE_CURVE('',#781,#789,#794,.T.);
#796=ORIENTED_EDGE('',*,*,#795,.T.);
#797=CARTESIAN_POINT('',(5.561317326,1.300238791,0.09));
#798=VERTEX_POINT('',#797);
#799=CARTESIAN_POINT('',(5.34996677,1.22306404,0.09));
#800=DIRECTION('',(0.939335808,0.342998891,0.));
#801=VECTOR('',#800,0.225);
#802=LINE('',#799,#801);
#803=EDGE_CURVE('',#789,#798,#802,.T.);
#804=ORIENTED_EDGE('',*,*,#803,.T.);
#805=CARTESIAN_POINT('',(5.484142576,1.511589348,0.09));
#806=VERTEX_POINT('',#805);
#807=CARTESIAN_POINT('',(5.561317326,1.300238791,0.09));
#808=DIRECTION('',(-0.342998891,0.939335808,0.));
#809=VECTOR('',#808,0.225);
#810=LINE('',#807,#809);
#811=EDGE_CURVE('',#798,#806,#810,.T.);
#812=ORIENTED_EDGE('',*,*,#811,.T.);
#813=CARTESIAN_POINT('',(5.554592762,1.537314265,0.09));
#814=DIRECTION('',(0.,0.,-1.));
#815=DIRECTION('',(-0.939335808,-0.342998891,-0.));
#816=AXIS2_PLACEMENT_3D('',#813,#814,#815);
#817=CIRCLE('',#816,0.075);
#818=EDGE_CURVE('',#806,#721,#817,.T.);
#819=ORIENTED_EDGE('',*,*,#818,.T.);
#820=EDGE_LOOP('',(#729,#737,#746,#754,#762,#771,#779,#787,#796,#804,#812,#819));
#821=FACE_BOUND('',#820,.T.);
#822=ADVANCED_FACE('',(#821),#719,.T.);
#823=OPEN_SHELL('',(#822));
#824=SHELL_BASED_SURFACE_MODEL('\X2\5DF25BFC5165\X0\ 02',(#823));
#714=STYLED_ITEM('',(#668),#824);
#695=SHAPE_REPRESENTATION('TopSilkscreen~aATq',(#15),#693);
#700=MANIFOLD_SURFACE_SHAPE_REPRESENTATION('TopSilkscreen~aATq',(#824),#693);
#832=SHAPE_REPRESENTATION_RELATIONSHIP('','',#695,#700);
#833=CARTESIAN_POINT('',(0.,0.,0.));
#834=DIRECTION('',(0.,0.,1.));
#835=DIRECTION('',(1.,0.,0.));
#836=AXIS2_PLACEMENT_3D('',#833,#834,#835);
#838=MAPPED_ITEM('',#837,#836);
#837=REPRESENTATION_MAP(#836,#695);
#703=PRODUCT('TopSilkscreen~aATq','TopSilkscreen~aATq','',(#556));
#839=PRODUCT_RELATED_PRODUCT_CATEGORY('part','',(#703));
#840=PRODUCT_DEFINITION_FORMATION_WITH_SPECIFIED_SOURCE('','',#703,.NOT_KNOWN.);
#704=PRODUCT_DEFINITION('design','',#840,#557);
#702=PRODUCT_DEFINITION_SHAPE('','',#704);
#841=SHAPE_DEFINITION_REPRESENTATION(#702,#695);
#694=DRAUGHTING_MODEL('',(#838),#693);
#570=SHAPE_REPRESENTATION('TopSilkscreen~aATq',(#15,#611,#708),#568);
#842=CARTESIAN_POINT('',(0.,0.,0.));
#843=DIRECTION('',(0.,0.,1.));
#844=DIRECTION('',(1.,0.,0.));
#845=AXIS2_PLACEMENT_3D('',#842,#843,#844);
#847=MAPPED_ITEM('',#846,#845);
#846=REPRESENTATION_MAP(#845,#570);
#578=PRODUCT('TopSilkscreen~aATq','TopSilkscreen~aATq','',(#556));
#848=PRODUCT_RELATED_PRODUCT_CATEGORY('part','',(#578));
#849=PRODUCT_DEFINITION_FORMATION_WITH_SPECIFIED_SOURCE('','',#578,.NOT_KNOWN.);
#579=PRODUCT_DEFINITION('design','',#849,#557);
#577=PRODUCT_DEFINITION_SHAPE('','',#579);
#850=SHAPE_DEFINITION_REPRESENTATION(#577,#570);
#569=DRAUGHTING_MODEL('',(#847),#568);
#16=SHAPE_REPRESENTATION('fpc-b',(#15,#118,#583),#10);
#21=MANIFOLD_SURFACE_SHAPE_REPRESENTATION('fpc-b',(#88),#10);
#858=SHAPE_REPRESENTATION_RELATIONSHIP('','',#16,#21);
#859=CARTESIAN_POINT('',(0.,0.,0.));
#860=DIRECTION('',(0.,0.,1.));
#861=DIRECTION('',(1.,0.,0.));
#862=AXIS2_PLACEMENT_3D('',#859,#860,#861);
#864=MAPPED_ITEM('',#863,#862);
#863=REPRESENTATION_MAP(#862,#16);
#24=PRODUCT('fpc-b','fpc-b','',(#556));
#865=PRODUCT_RELATED_PRODUCT_CATEGORY('part','',(#24));
#866=PRODUCT_DEFINITION_FORMATION_WITH_SPECIFIED_SOURCE('','',#24,.NOT_KNOWN.);
#25=PRODUCT_DEFINITION('design','',#866,#557);
#23=PRODUCT_DEFINITION_SHAPE('','',#25);
#867=SHAPE_DEFINITION_REPRESENTATION(#23,#16);
#11=DRAUGHTING_MODEL('',(#864),#10);
#868=DESCRIPTIVE_REPRESENTATION_ITEM('KEY','C:\\Users\\Nalani\\AppData\\Local\\Packages\\Shapr3D.Shapr3D_j403pzjkqtqbj\\TempState\\c1b67230-b7fb-4a7f-bb91-796b938e0c6c.tmp');
#869=PROPERTY_DEFINITION('KEY','',#25);
#870=REPRESENTATION('',(#868),#10);
#871=PROPERTY_DEFINITION_REPRESENTATION(#869,#870);
#872=GENERAL_PROPERTY('','KEY','');
#873=GENERAL_PROPERTY_ASSOCIATION('','',#872,#869);
#1=MECHANICAL_DESIGN_GEOMETRIC_PRESENTATION_REPRESENTATION('',(#26,#492,#518,#124,#617,#714),#10);
ENDSEC;
END-ISO-10303-21;
