ISO-10303-21;
HEADER;

/* File generated by Shapr3D Version 26.123.11423.0 */

FILE_DESCRIPTION(('HOOPS Exchange Step'),'2;1');

FILE_NAME('C:\\Users\\Nalani\\AppData\\Local\\Packages\\Shapr3D.Shapr3D_j403pzjkqtqbj\\TempState\\export\\temp_export',
'2026-08-03T16:12:14+08:00',
('Nalani'),
('Shapr3D Limited'),
'HOOPS Exchange 2026.3',
'Shapr3D',
'Authorized');

FILE_SCHEMA( ('AP242_MANAGED_MODEL_BASED_3D_ENGINEERING_MIM_LF {1 0 10303 442 1 1 4}') );

ENDSEC;

DATA;
#3=(NAMED_UNIT(*)PLANE_ANGLE_UNIT()SI_UNIT($,.RADIAN.));
#4=PLANE_ANGLE_MEASURE_WITH_UNIT(PLANE_ANGLE_MEASURE(0.0174532925),#3);
#5=(CONVERSION_BASED_UNIT('DEGREE',#4)NAMED_UNIT(#6)PLANE_ANGLE_UNIT());
#6=DIMENSIONAL_EXPONENTS(0.,0.,0.,0.,0.,0.,0.);
#7=(NAMED_UNIT(*)SI_UNIT($,.STERADIAN.)SOLID_ANGLE_UNIT());
#8=(LENGTH_UNIT()NAMED_UNIT(*)SI_UNIT(.MILLI.,.METRE.));
#9=UNCERTAINTY_MEASURE_WITH_UNIT(LENGTH_MEASURE(1.000000E-05),#8,'DISTANCE_ACCURACY_VALUE','Maximum Tolerance applied to model');
#10=(GEOMETRIC_REPRESENTATION_CONTEXT(3)GLOBAL_UNCERTAINTY_ASSIGNED_CONTEXT((#9))GLOBAL_UNIT_ASSIGNED_CONTEXT((#8,#5,#7))REPRESENTATION_CONTEXT('','m1.2*2'));
#12=CARTESIAN_POINT('',(0.,0.,0.));
#13=DIRECTION('',(0.,0.,1.));
#14=DIRECTION('',(1.,0.,0.));
#15=AXIS2_PLACEMENT_3D('',#12,#13,#14);
#27=CARTESIAN_POINT('',(-8.2,3.,0.4));
#28=DIRECTION('',(0.,0.,-1.));
#29=DIRECTION('',(-1.,0.,0.));
#30=AXIS2_PLACEMENT_3D('',#27,#28,#29);
#31=CYLINDRICAL_SURFACE('',#30,1.);
#32=CARTESIAN_POINT('',(-9.2,3.,-0.));
#33=VERTEX_POINT('',#32);
#34=CARTESIAN_POINT('',(-9.2,3.,0.4));
#35=VERTEX_POINT('',#34);
#36=CARTESIAN_POINT('',(-9.2,3.,-0.));
#37=DIRECTION('',(-0.,-0.,1.));
#38=VECTOR('',#37,0.4);
#39=LINE('',#36,#38);
#40=EDGE_CURVE('',#33,#35,#39,.T.);
#41=ORIENTED_EDGE('',*,*,#40,.T.);
#42=CARTESIAN_POINT('',(-8.2,3.,0.4));
#43=DIRECTION('',(0.,0.,-1.));
#44=DIRECTION('',(-1.,0.,0.));
#45=AXIS2_PLACEMENT_3D('',#42,#43,#44);
#46=CIRCLE('',#45,1.);
#47=EDGE_CURVE('',#35,#35,#46,.T.);
#48=ORIENTED_EDGE('',*,*,#47,.T.);
#49=ORIENTED_EDGE('',*,*,#40,.F.);
#50=CARTESIAN_POINT('',(-8.2,3.,-0.));
#51=DIRECTION('',(0.,0.,-1.));
#52=DIRECTION('',(-1.,0.,0.));
#53=AXIS2_PLACEMENT_3D('',#50,#51,#52);
#54=CIRCLE('',#53,1.);
#55=EDGE_CURVE('',#33,#33,#54,.T.);
#56=ORIENTED_EDGE('',*,*,#55,.F.);
#57=EDGE_LOOP('',(#41,#48,#49,#56));
#58=FACE_BOUND('',#57,.T.);
#59=ADVANCED_FACE('',(#58),#31,.T.);
#60=CARTESIAN_POINT('',(5.182894918,0.71213904,0.4));
#61=DIRECTION('',(0.,0.,-1.));
#62=DIRECTION('',(-1.,0.,0.));
#63=AXIS2_PLACEMENT_3D('',#60,#61,#62);
#64=PLANE('',#63);
#65=CARTESIAN_POINT('',(-8.8,3.,0.4));
#66=VERTEX_POINT('',#65);
#67=CARTESIAN_POINT('',(-7.6,3.,0.4));
#68=VERTEX_POINT('',#67);
#69=CARTESIAN_POINT('',(-8.2,3.,0.4));
#70=DIRECTION('',(0.,0.,1.));
#71=DIRECTION('',(1.,0.,-0.));
#72=AXIS2_PLACEMENT_3D('',#69,#70,#71);
#73=CIRCLE('',#72,0.6);
#74=EDGE_CURVE('',#66,#68,#73,.T.);
#75=ORIENTED_EDGE('',*,*,#74,.F.);
#76=CARTESIAN_POINT('',(-8.2,3.,0.4));
#77=DIRECTION('',(0.,0.,1.));
#78=DIRECTION('',(1.,0.,-0.));
#79=AXIS2_PLACEMENT_3D('',#76,#77,#78);
#80=CIRCLE('',#79,0.6);
#81=EDGE_CURVE('',#68,#66,#80,.T.);
#82=ORIENTED_EDGE('',*,*,#81,.F.);
#83=EDGE_LOOP('',(#75,#82));
#84=FACE_BOUND('',#83,.T.);
#85=ORIENTED_EDGE('',*,*,#47,.F.);
#86=EDGE_LOOP('',(#85));
#87=FACE_BOUND('',#86,.T.);
#88=ADVANCED_FACE('',(#84,#87),#64,.F.);
#89=CARTESIAN_POINT('',(5.182894918,0.71213904,-0.));
#90=DIRECTION('',(0.,0.,-1.));
#91=DIRECTION('',(-1.,0.,0.));
#92=AXIS2_PLACEMENT_3D('',#89,#90,#91);
#93=PLANE('',#92);
#94=CARTESIAN_POINT('',(-8.5,3.317542648,0.));
#95=VERTEX_POINT('',#94);
#96=CARTESIAN_POINT('',(-8.5,3.433012702,0.));
#97=VERTEX_POINT('',#96);
#98=CARTESIAN_POINT('',(-8.5,3.317542648,0.));
#99=DIRECTION('',(0.,1.,0.));
#100=VECTOR('',#99,0.115470054);
#101=LINE('',#98,#100);
#102=EDGE_CURVE('',#95,#97,#101,.T.);
#103=ORIENTED_EDGE('',*,*,#102,.F.);
#104=CARTESIAN_POINT('',(-8.625,3.101036297,0.));
#105=VERTEX_POINT('',#104);
#106=CARTESIAN_POINT('',(-8.75,3.317542648,-0.));
#107=DIRECTION('',(0.,0.,-1.));
#108=DIRECTION('',(-1.,0.,0.));
#109=AXIS2_PLACEMENT_3D('',#106,#107,#108);
#110=CIRCLE('',#109,0.25);
#111=EDGE_CURVE('',#95,#105,#110,.T.);
#112=ORIENTED_EDGE('',*,*,#111,.T.);
#113=CARTESIAN_POINT('',(-8.725,3.04330127,0.));
#114=VERTEX_POINT('',#113);
#115=CARTESIAN_POINT('',(-8.725,3.04330127,0.));
#116=DIRECTION('',(0.866025404,0.5,0.));
#117=VECTOR('',#116,0.115470054);
#118=LINE('',#115,#117);
#119=EDGE_CURVE('',#114,#105,#118,.T.);
#120=ORIENTED_EDGE('',*,*,#119,.F.);
#121=CARTESIAN_POINT('',(-8.725,2.95669873,0.));
#122=VERTEX_POINT('',#121);
#123=CARTESIAN_POINT('',(-8.7,3.,-0.));
#124=DIRECTION('',(-0.,-0.,1.));
#125=DIRECTION('',(-1.,0.,0.));
#126=AXIS2_PLACEMENT_3D('',#123,#124,#125);
#127=CIRCLE('',#126,0.05);
#128=EDGE_CURVE('',#114,#122,#127,.T.);
#129=ORIENTED_EDGE('',*,*,#128,.T.);
#130=CARTESIAN_POINT('',(-8.625,2.898963703,0.));
#131=VERTEX_POINT('',#130);
#132=CARTESIAN_POINT('',(-8.625,2.898963703,0.));
#133=DIRECTION('',(-0.866025404,0.5,0.));
#134=VECTOR('',#133,0.115470054);
#135=LINE('',#132,#134);
#136=EDGE_CURVE('',#131,#122,#135,.T.);
#137=ORIENTED_EDGE('',*,*,#136,.F.);
#138=CARTESIAN_POINT('',(-8.5,2.682457352,0.));
#139=VERTEX_POINT('',#138);
#140=CARTESIAN_POINT('',(-8.75,2.682457352,-0.));
#141=DIRECTION('',(0.,0.,-1.));
#142=DIRECTION('',(-1.,0.,0.));
#143=AXIS2_PLACEMENT_3D('',#140,#141,#142);
#144=CIRCLE('',#143,0.25);
#145=EDGE_CURVE('',#131,#139,#144,.T.);
#146=ORIENTED_EDGE('',*,*,#145,.T.);
#147=CARTESIAN_POINT('',(-8.5,2.566987298,0.));
#148=VERTEX_POINT('',#147);
#149=CARTESIAN_POINT('',(-8.5,2.566987298,0.));
#150=DIRECTION('',(0.,1.,0.));
#151=VECTOR('',#150,0.115470054);
#152=LINE('',#149,#151);
#153=EDGE_CURVE('',#148,#139,#152,.T.);
#154=ORIENTED_EDGE('',*,*,#153,.F.);
#155=CARTESIAN_POINT('',(-8.425,2.523686028,0.));
#156=VERTEX_POINT('',#155);
#157=CARTESIAN_POINT('',(-8.45,2.566987298,-0.));
#158=DIRECTION('',(-0.,-0.,1.));
#159=DIRECTION('',(-1.,0.,0.));
#160=AXIS2_PLACEMENT_3D('',#157,#158,#159);
#161=CIRCLE('',#160,0.05);
#162=EDGE_CURVE('',#148,#156,#161,.T.);
#163=ORIENTED_EDGE('',*,*,#162,.T.);
#164=CARTESIAN_POINT('',(-8.325,2.581421055,0.));
#165=VERTEX_POINT('',#164);
#166=CARTESIAN_POINT('',(-8.325,2.581421055,0.));
#167=DIRECTION('',(-0.866025404,-0.5,0.));
#168=VECTOR('',#167,0.115470054);
#169=LINE('',#166,#168);
#170=EDGE_CURVE('',#165,#156,#169,.T.);
#171=ORIENTED_EDGE('',*,*,#170,.F.);
#172=CARTESIAN_POINT('',(-8.075,2.581421055,0.));
#173=VERTEX_POINT('',#172);
#174=CARTESIAN_POINT('',(-8.2,2.364914704,-0.));
#175=DIRECTION('',(0.,0.,-1.));
#176=DIRECTION('',(-1.,0.,0.));
#177=AXIS2_PLACEMENT_3D('',#174,#175,#176);
#178=CIRCLE('',#177,0.25);
#179=EDGE_CURVE('',#165,#173,#178,.T.);
#180=ORIENTED_EDGE('',*,*,#179,.T.);
#181=CARTESIAN_POINT('',(-7.975,2.523686028,0.));
#182=VERTEX_POINT('',#181);
#183=CARTESIAN_POINT('',(-7.975,2.523686028,0.));
#184=DIRECTION('',(-0.866025404,0.5,0.));
#185=VECTOR('',#184,0.115470054);
#186=LINE('',#183,#185);
#187=EDGE_CURVE('',#182,#173,#186,.T.);
#188=ORIENTED_EDGE('',*,*,#187,.F.);
#189=CARTESIAN_POINT('',(-7.9,2.566987298,0.));
#190=VERTEX_POINT('',#189);
#191=CARTESIAN_POINT('',(-7.95,2.566987298,-0.));
#192=DIRECTION('',(-0.,-0.,1.));
#193=DIRECTION('',(-1.,0.,0.));
#194=AXIS2_PLACEMENT_3D('',#191,#192,#193);
#195=CIRCLE('',#194,0.05);
#196=EDGE_CURVE('',#182,#190,#195,.T.);
#197=ORIENTED_EDGE('',*,*,#196,.T.);
#198=CARTESIAN_POINT('',(-7.9,2.682457352,0.));
#199=VERTEX_POINT('',#198);
#200=CARTESIAN_POINT('',(-7.9,2.682457352,0.));
#201=DIRECTION('',(0.,-1.,0.));
#202=VECTOR('',#201,0.115470054);
#203=LINE('',#200,#202);
#204=EDGE_CURVE('',#199,#190,#203,.T.);
#205=ORIENTED_EDGE('',*,*,#204,.F.);
#206=CARTESIAN_POINT('',(-7.775,2.898963703,0.));
#207=VERTEX_POINT('',#206);
#208=CARTESIAN_POINT('',(-7.65,2.682457352,-0.));
#209=DIRECTION('',(0.,0.,-1.));
#210=DIRECTION('',(-1.,0.,0.));
#211=AXIS2_PLACEMENT_3D('',#208,#209,#210);
#212=CIRCLE('',#211,0.25);
#213=EDGE_CURVE('',#199,#207,#212,.T.);
#214=ORIENTED_EDGE('',*,*,#213,.T.);
#215=CARTESIAN_POINT('',(-7.675,2.95669873,0.));
#216=VERTEX_POINT('',#215);
#217=CARTESIAN_POINT('',(-7.675,2.95669873,0.));
#218=DIRECTION('',(-0.866025404,-0.5,0.));
#219=VECTOR('',#218,0.115470054);
#220=LINE('',#217,#219);
#221=EDGE_CURVE('',#216,#207,#220,.T.);
#222=ORIENTED_EDGE('',*,*,#221,.F.);
#223=CARTESIAN_POINT('',(-7.65,3.,-0.));
#224=VERTEX_POINT('',#223);
#225=CARTESIAN_POINT('',(-7.7,3.,-0.));
#226=DIRECTION('',(-0.,-0.,1.));
#227=DIRECTION('',(-1.,0.,0.));
#228=AXIS2_PLACEMENT_3D('',#225,#226,#227);
#229=CIRCLE('',#228,0.05);
#230=EDGE_CURVE('',#216,#224,#229,.T.);
#231=ORIENTED_EDGE('',*,*,#230,.T.);
#232=CARTESIAN_POINT('',(-7.675,3.04330127,0.));
#233=VERTEX_POINT('',#232);
#234=CARTESIAN_POINT('',(-7.7,3.,-0.));
#235=DIRECTION('',(-0.,-0.,1.));
#236=DIRECTION('',(-1.,0.,0.));
#237=AXIS2_PLACEMENT_3D('',#234,#235,#236);
#238=CIRCLE('',#237,0.05);
#239=EDGE_CURVE('',#224,#233,#238,.T.);
#240=ORIENTED_EDGE('',*,*,#239,.T.);
#241=CARTESIAN_POINT('',(-7.775,3.101036297,0.));
#242=VERTEX_POINT('',#241);
#243=CARTESIAN_POINT('',(-7.775,3.101036297,0.));
#244=DIRECTION('',(0.866025404,-0.5,0.));
#245=VECTOR('',#244,0.115470054);
#246=LINE('',#243,#245);
#247=EDGE_CURVE('',#242,#233,#246,.T.);
#248=ORIENTED_EDGE('',*,*,#247,.F.);
#249=CARTESIAN_POINT('',(-7.9,3.317542648,0.));
#250=VERTEX_POINT('',#249);
#251=CARTESIAN_POINT('',(-7.65,3.317542648,-0.));
#252=DIRECTION('',(0.,0.,-1.));
#253=DIRECTION('',(-1.,0.,0.));
#254=AXIS2_PLACEMENT_3D('',#251,#252,#253);
#255=CIRCLE('',#254,0.25);
#256=EDGE_CURVE('',#242,#250,#255,.T.);
#257=ORIENTED_EDGE('',*,*,#256,.T.);
#258=CARTESIAN_POINT('',(-7.9,3.433012702,0.));
#259=VERTEX_POINT('',#258);
#260=CARTESIAN_POINT('',(-7.9,3.433012702,0.));
#261=DIRECTION('',(0.,-1.,0.));
#262=VECTOR('',#261,0.115470054);
#263=LINE('',#260,#262);
#264=EDGE_CURVE('',#259,#250,#263,.T.);
#265=ORIENTED_EDGE('',*,*,#264,.F.);
#266=CARTESIAN_POINT('',(-7.975,3.476313972,0.));
#267=VERTEX_POINT('',#266);
#268=CARTESIAN_POINT('',(-7.95,3.433012702,-0.));
#269=DIRECTION('',(-0.,-0.,1.));
#270=DIRECTION('',(-1.,0.,0.));
#271=AXIS2_PLACEMENT_3D('',#268,#269,#270);
#272=CIRCLE('',#271,0.05);
#273=EDGE_CURVE('',#259,#267,#272,.T.);
#274=ORIENTED_EDGE('',*,*,#273,.T.);
#275=CARTESIAN_POINT('',(-8.075,3.418578945,0.));
#276=VERTEX_POINT('',#275);
#277=CARTESIAN_POINT('',(-8.075,3.418578945,0.));
#278=DIRECTION('',(0.866025404,0.5,0.));
#279=VECTOR('',#278,0.115470054);
#280=LINE('',#277,#279);
#281=EDGE_CURVE('',#276,#267,#280,.T.);
#282=ORIENTED_EDGE('',*,*,#281,.F.);
#283=CARTESIAN_POINT('',(-8.325,3.418578945,0.));
#284=VERTEX_POINT('',#283);
#285=CARTESIAN_POINT('',(-8.2,3.635085296,-0.));
#286=DIRECTION('',(0.,0.,-1.));
#287=DIRECTION('',(-1.,0.,0.));
#288=AXIS2_PLACEMENT_3D('',#285,#286,#287);
#289=CIRCLE('',#288,0.25);
#290=EDGE_CURVE('',#276,#284,#289,.T.);
#291=ORIENTED_EDGE('',*,*,#290,.T.);
#292=CARTESIAN_POINT('',(-8.425,3.476313972,0.));
#293=VERTEX_POINT('',#292);
#294=CARTESIAN_POINT('',(-8.425,3.476313972,0.));
#295=DIRECTION('',(0.866025404,-0.5,0.));
#296=VECTOR('',#295,0.115470054);
#297=LINE('',#294,#296);
#298=EDGE_CURVE('',#293,#284,#297,.T.);
#299=ORIENTED_EDGE('',*,*,#298,.F.);
#300=CARTESIAN_POINT('',(-8.45,3.433012702,-0.));
#301=DIRECTION('',(-0.,-0.,1.));
#302=DIRECTION('',(-1.,0.,0.));
#303=AXIS2_PLACEMENT_3D('',#300,#301,#302);
#304=CIRCLE('',#303,0.05);
#305=EDGE_CURVE('',#293,#97,#304,.T.);
#306=ORIENTED_EDGE('',*,*,#305,.T.);
#307=EDGE_LOOP('',(#103,#112,#120,#129,#137,#146,#154,#163,#171,#180,#188,#197,#205,#214,#222,#231,#240,#248,#257,#265,#274,#282,#291,#299,#306));
#308=FACE_BOUND('',#307,.T.);
#309=ORIENTED_EDGE('',*,*,#55,.T.);
#310=EDGE_LOOP('',(#309));
#311=FACE_BOUND('',#310,.T.);
#312=ADVANCED_FACE('',(#308,#311),#93,.T.);
#313=CARTESIAN_POINT('',(-8.2,3.,2.4));
#314=DIRECTION('',(0.,0.,-1.));
#315=DIRECTION('',(-1.,0.,0.));
#316=AXIS2_PLACEMENT_3D('',#313,#314,#315);
#317=CYLINDRICAL_SURFACE('',#316,0.6);
#318=CARTESIAN_POINT('',(-8.8,3.,2.4));
#319=VERTEX_POINT('',#318);
#320=CARTESIAN_POINT('',(-8.8,3.,0.4));
#321=DIRECTION('',(-0.,-0.,1.));
#322=VECTOR('',#321,2.);
#323=LINE('',#320,#322);
#324=EDGE_CURVE('',#66,#319,#323,.T.);
#325=ORIENTED_EDGE('',*,*,#324,.T.);
#326=CARTESIAN_POINT('',(-7.6,3.,2.4));
#327=VERTEX_POINT('',#326);
#328=CARTESIAN_POINT('',(-8.2,3.,2.4));
#329=DIRECTION('',(0.,0.,1.));
#330=DIRECTION('',(1.,0.,-0.));
#331=AXIS2_PLACEMENT_3D('',#328,#329,#330);
#332=CIRCLE('',#331,0.6);
#333=EDGE_CURVE('',#327,#319,#332,.T.);
#334=ORIENTED_EDGE('',*,*,#333,.F.);
#335=CARTESIAN_POINT('',(-8.2,3.,2.4));
#336=DIRECTION('',(0.,0.,1.));
#337=DIRECTION('',(1.,0.,-0.));
#338=AXIS2_PLACEMENT_3D('',#335,#336,#337);
#339=CIRCLE('',#338,0.6);
#340=EDGE_CURVE('',#319,#327,#339,.T.);
#341=ORIENTED_EDGE('',*,*,#340,.F.);
#342=ORIENTED_EDGE('',*,*,#324,.F.);
#343=ORIENTED_EDGE('',*,*,#74,.T.);
#344=ORIENTED_EDGE('',*,*,#81,.T.);
#345=EDGE_LOOP('',(#325,#334,#341,#342,#343,#344));
#346=FACE_BOUND('',#345,.T.);
#347=ADVANCED_FACE('',(#346),#317,.T.);
#348=CARTESIAN_POINT('',(5.182894918,0.71213904,2.4));
#349=DIRECTION('',(0.,0.,1.));
#350=DIRECTION('',(1.,0.,0.));
#351=AXIS2_PLACEMENT_3D('',#348,#349,#350);
#352=PLANE('',#351);
#353=ORIENTED_EDGE('',*,*,#333,.T.);
#354=ORIENTED_EDGE('',*,*,#340,.T.);
#355=EDGE_LOOP('',(#353,#354));
#356=FACE_BOUND('',#355,.T.);
#357=ADVANCED_FACE('',(#356),#352,.T.);
#358=CARTESIAN_POINT('',(-7.9,3.346410162,0.25));
#359=DIRECTION('',(1.,0.,0.));
#360=DIRECTION('',(0.,0.,-1.));
#361=AXIS2_PLACEMENT_3D('',#358,#359,#360);
#362=PLANE('',#361);
#363=CARTESIAN_POINT('',(-7.9,3.433012702,0.25));
#364=VERTEX_POINT('',#363);
#365=CARTESIAN_POINT('',(-7.9,3.317542648,0.25));
#366=VERTEX_POINT('',#365);
#367=CARTESIAN_POINT('',(-7.9,3.433012702,0.25));
#368=DIRECTION('',(0.,-1.,0.));
#369=VECTOR('',#368,0.115470054);
#370=LINE('',#367,#369);
#371=EDGE_CURVE('',#364,#366,#370,.T.);
#372=ORIENTED_EDGE('',*,*,#371,.F.);
#373=CARTESIAN_POINT('',(-7.9,3.433012702,0.25));
#374=DIRECTION('',(0.,0.,-1.));
#375=VECTOR('',#374,0.25);
#376=LINE('',#373,#375);
#377=EDGE_CURVE('',#364,#259,#376,.T.);
#378=ORIENTED_EDGE('',*,*,#377,.T.);
#379=ORIENTED_EDGE('',*,*,#264,.T.);
#380=CARTESIAN_POINT('',(-7.9,3.317542648,0.));
#381=DIRECTION('',(-0.,-0.,1.));
#382=VECTOR('',#381,0.25);
#383=LINE('',#380,#382);
#384=EDGE_CURVE('',#250,#366,#383,.T.);
#385=ORIENTED_EDGE('',*,*,#384,.T.);
#386=EDGE_LOOP('',(#372,#378,#379,#385));
#387=FACE_BOUND('',#386,.T.);
#388=ADVANCED_FACE('',(#387),#362,.F.);
#389=CARTESIAN_POINT('',(-7.75,3.08660254,0.25));
#390=DIRECTION('',(0.5,0.866025404,0.));
#391=DIRECTION('',(-0.866025404,0.5,0.));
#392=AXIS2_PLACEMENT_3D('',#389,#390,#391);
#393=PLANE('',#392);
#394=ORIENTED_EDGE('',*,*,#247,.T.);
#395=CARTESIAN_POINT('',(-7.675,3.04330127,0.25));
#396=VERTEX_POINT('',#395);
#397=CARTESIAN_POINT('',(-7.675,3.04330127,0.));
#398=DIRECTION('',(-0.,-0.,1.));
#399=VECTOR('',#398,0.25);
#400=LINE('',#397,#399);
#401=EDGE_CURVE('',#233,#396,#400,.T.);
#402=ORIENTED_EDGE('',*,*,#401,.T.);
#403=CARTESIAN_POINT('',(-7.775,3.101036297,0.25));
#404=VERTEX_POINT('',#403);
#405=CARTESIAN_POINT('',(-7.775,3.101036297,0.25));
#406=DIRECTION('',(0.866025404,-0.5,0.));
#407=VECTOR('',#406,0.115470054);
#408=LINE('',#405,#407);
#409=EDGE_CURVE('',#404,#396,#408,.T.);
#410=ORIENTED_EDGE('',*,*,#409,.F.);
#411=CARTESIAN_POINT('',(-7.775,3.101036297,0.25));
#412=DIRECTION('',(0.,0.,-1.));
#413=VECTOR('',#412,0.25);
#414=LINE('',#411,#413);
#415=EDGE_CURVE('',#404,#242,#414,.T.);
#416=ORIENTED_EDGE('',*,*,#415,.T.);
#417=EDGE_LOOP('',(#394,#402,#410,#416));
#418=FACE_BOUND('',#417,.T.);
#419=ADVANCED_FACE('',(#418),#393,.F.);
#420=CARTESIAN_POINT('',(-7.75,2.91339746,0.25));
#421=DIRECTION('',(0.5,-0.866025404,0.));
#422=DIRECTION('',(0.866025404,0.5,0.));
#423=AXIS2_PLACEMENT_3D('',#420,#421,#422);
#424=PLANE('',#423);
#425=CARTESIAN_POINT('',(-7.675,2.95669873,0.25));
#426=VERTEX_POINT('',#425);
#427=CARTESIAN_POINT('',(-7.775,2.898963703,0.25));
#428=VERTEX_POINT('',#427);
#429=CARTESIAN_POINT('',(-7.675,2.95669873,0.25));
#430=DIRECTION('',(-0.866025404,-0.5,0.));
#431=VECTOR('',#430,0.115470054);
#432=LINE('',#429,#431);
#433=EDGE_CURVE('',#426,#428,#432,.T.);
#434=ORIENTED_EDGE('',*,*,#433,.F.);
#435=CARTESIAN_POINT('',(-7.675,2.95669873,0.25));
#436=DIRECTION('',(0.,0.,-1.));
#437=VECTOR('',#436,0.25);
#438=LINE('',#435,#437);
#439=EDGE_CURVE('',#426,#216,#438,.T.);
#440=ORIENTED_EDGE('',*,*,#439,.T.);
#441=ORIENTED_EDGE('',*,*,#221,.T.);
#442=CARTESIAN_POINT('',(-7.775,2.898963703,0.));
#443=DIRECTION('',(-0.,-0.,1.));
#444=VECTOR('',#443,0.25);
#445=LINE('',#442,#444);
#446=EDGE_CURVE('',#207,#428,#445,.T.);
#447=ORIENTED_EDGE('',*,*,#446,.T.);
#448=EDGE_LOOP('',(#434,#440,#441,#447));
#449=FACE_BOUND('',#448,.T.);
#450=ADVANCED_FACE('',(#449),#424,.F.);
#451=CARTESIAN_POINT('',(-7.9,2.653589838,0.25));
#452=DIRECTION('',(1.,0.,0.));
#453=DIRECTION('',(0.,0.,-1.));
#454=AXIS2_PLACEMENT_3D('',#451,#452,#453);
#455=PLANE('',#454);
#456=ORIENTED_EDGE('',*,*,#204,.T.);
#457=CARTESIAN_POINT('',(-7.9,2.566987298,0.25));
#458=VERTEX_POINT('',#457);
#459=CARTESIAN_POINT('',(-7.9,2.566987298,0.));
#460=DIRECTION('',(-0.,-0.,1.));
#461=VECTOR('',#460,0.25);
#462=LINE('',#459,#461);
#463=EDGE_CURVE('',#190,#458,#462,.T.);
#464=ORIENTED_EDGE('',*,*,#463,.T.);
#465=CARTESIAN_POINT('',(-7.9,2.682457352,0.25));
#466=VERTEX_POINT('',#465);
#467=CARTESIAN_POINT('',(-7.9,2.682457352,0.25));
#468=DIRECTION('',(0.,-1.,0.));
#469=VECTOR('',#468,0.115470054);
#470=LINE('',#467,#469);
#471=EDGE_CURVE('',#466,#458,#470,.T.);
#472=ORIENTED_EDGE('',*,*,#471,.F.);
#473=CARTESIAN_POINT('',(-7.9,2.682457352,0.25));
#474=DIRECTION('',(0.,0.,-1.));
#475=VECTOR('',#474,0.25);
#476=LINE('',#473,#475);
#477=EDGE_CURVE('',#466,#199,#476,.T.);
#478=ORIENTED_EDGE('',*,*,#477,.T.);
#479=EDGE_LOOP('',(#456,#464,#472,#478));
#480=FACE_BOUND('',#479,.T.);
#481=ADVANCED_FACE('',(#480),#455,.F.);
#482=CARTESIAN_POINT('',(-8.05,2.566987298,0.25));
#483=DIRECTION('',(-0.5,-0.866025404,0.));
#484=DIRECTION('',(0.866025404,-0.5,0.));
#485=AXIS2_PLACEMENT_3D('',#482,#483,#484);
#486=PLANE('',#485);
#487=CARTESIAN_POINT('',(-7.975,2.523686028,0.25));
#488=VERTEX_POINT('',#487);
#489=CARTESIAN_POINT('',(-8.075,2.581421055,0.25));
#490=VERTEX_POINT('',#489);
#491=CARTESIAN_POINT('',(-7.975,2.523686028,0.25));
#492=DIRECTION('',(-0.866025404,0.5,0.));
#493=VECTOR('',#492,0.115470054);
#494=LINE('',#491,#493);
#495=EDGE_CURVE('',#488,#490,#494,.T.);
#496=ORIENTED_EDGE('',*,*,#495,.F.);
#497=CARTESIAN_POINT('',(-7.975,2.523686028,0.25));
#498=DIRECTION('',(0.,0.,-1.));
#499=VECTOR('',#498,0.25);
#500=LINE('',#497,#499);
#501=EDGE_CURVE('',#488,#182,#500,.T.);
#502=ORIENTED_EDGE('',*,*,#501,.T.);
#503=ORIENTED_EDGE('',*,*,#187,.T.);
#504=CARTESIAN_POINT('',(-8.075,2.581421055,0.));
#505=DIRECTION('',(-0.,-0.,1.));
#506=VECTOR('',#505,0.25);
#507=LINE('',#504,#506);
#508=EDGE_CURVE('',#173,#490,#507,.T.);
#509=ORIENTED_EDGE('',*,*,#508,.T.);
#510=EDGE_LOOP('',(#496,#502,#503,#509));
#511=FACE_BOUND('',#510,.T.);
#512=ADVANCED_FACE('',(#511),#486,.F.);
#513=CARTESIAN_POINT('',(-8.35,2.566987298,0.25));
#514=DIRECTION('',(0.5,-0.866025404,0.));
#515=DIRECTION('',(0.866025404,0.5,0.));
#516=AXIS2_PLACEMENT_3D('',#513,#514,#515);
#517=PLANE('',#516);
#518=ORIENTED_EDGE('',*,*,#170,.T.);
#519=CARTESIAN_POINT('',(-8.425,2.523686028,0.25));
#520=VERTEX_POINT('',#519);
#521=CARTESIAN_POINT('',(-8.425,2.523686028,0.));
#522=DIRECTION('',(-0.,-0.,1.));
#523=VECTOR('',#522,0.25);
#524=LINE('',#521,#523);
#525=EDGE_CURVE('',#156,#520,#524,.T.);
#526=ORIENTED_EDGE('',*,*,#525,.T.);
#527=CARTESIAN_POINT('',(-8.325,2.581421055,0.25));
#528=VERTEX_POINT('',#527);
#529=CARTESIAN_POINT('',(-8.325,2.581421055,0.25));
#530=DIRECTION('',(-0.866025404,-0.5,0.));
#531=VECTOR('',#530,0.115470054);
#532=LINE('',#529,#531);
#533=EDGE_CURVE('',#528,#520,#532,.T.);
#534=ORIENTED_EDGE('',*,*,#533,.F.);
#535=CARTESIAN_POINT('',(-8.325,2.581421055,0.25));
#536=DIRECTION('',(0.,0.,-1.));
#537=VECTOR('',#536,0.25);
#538=LINE('',#535,#537);
#539=EDGE_CURVE('',#528,#165,#538,.T.);
#540=ORIENTED_EDGE('',*,*,#539,.T.);
#541=EDGE_LOOP('',(#518,#526,#534,#540));
#542=FACE_BOUND('',#541,.T.);
#543=ADVANCED_FACE('',(#542),#517,.F.);
#544=CARTESIAN_POINT('',(-8.5,2.653589838,0.25));
#545=DIRECTION('',(-1.,0.,0.));
#546=DIRECTION('',(0.,0.,1.));
#547=AXIS2_PLACEMENT_3D('',#544,#545,#546);
#548=PLANE('',#547);
#549=CARTESIAN_POINT('',(-8.5,2.566987298,0.25));
#550=VERTEX_POINT('',#549);
#551=CARTESIAN_POINT('',(-8.5,2.682457352,0.25));
#552=VERTEX_POINT('',#551);
#553=CARTESIAN_POINT('',(-8.5,2.566987298,0.25));
#554=DIRECTION('',(0.,1.,0.));
#555=VECTOR('',#554,0.115470054);
#556=LINE('',#553,#555);
#557=EDGE_CURVE('',#550,#552,#556,.T.);
#558=ORIENTED_EDGE('',*,*,#557,.F.);
#559=CARTESIAN_POINT('',(-8.5,2.566987298,0.25));
#560=DIRECTION('',(0.,0.,-1.));
#561=VECTOR('',#560,0.25);
#562=LINE('',#559,#561);
#563=EDGE_CURVE('',#550,#148,#562,.T.);
#564=ORIENTED_EDGE('',*,*,#563,.T.);
#565=ORIENTED_EDGE('',*,*,#153,.T.);
#566=CARTESIAN_POINT('',(-8.5,2.682457352,0.));
#567=DIRECTION('',(-0.,-0.,1.));
#568=VECTOR('',#567,0.25);
#569=LINE('',#566,#568);
#570=EDGE_CURVE('',#139,#552,#569,.T.);
#571=ORIENTED_EDGE('',*,*,#570,.T.);
#572=EDGE_LOOP('',(#558,#564,#565,#571));
#573=FACE_BOUND('',#572,.T.);
#574=ADVANCED_FACE('',(#573),#548,.F.);
#575=CARTESIAN_POINT('',(-8.65,2.91339746,0.25));
#576=DIRECTION('',(-0.5,-0.866025404,0.));
#577=DIRECTION('',(0.866025404,-0.5,0.));
#578=AXIS2_PLACEMENT_3D('',#575,#576,#577);
#579=PLANE('',#578);
#580=ORIENTED_EDGE('',*,*,#136,.T.);
#581=CARTESIAN_POINT('',(-8.725,2.95669873,0.25));
#582=VERTEX_POINT('',#581);
#583=CARTESIAN_POINT('',(-8.725,2.95669873,0.));
#584=DIRECTION('',(-0.,-0.,1.));
#585=VECTOR('',#584,0.25);
#586=LINE('',#583,#585);
#587=EDGE_CURVE('',#122,#582,#586,.T.);
#588=ORIENTED_EDGE('',*,*,#587,.T.);
#589=CARTESIAN_POINT('',(-8.625,2.898963703,0.25));
#590=VERTEX_POINT('',#589);
#591=CARTESIAN_POINT('',(-8.625,2.898963703,0.25));
#592=DIRECTION('',(-0.866025404,0.5,0.));
#593=VECTOR('',#592,0.115470054);
#594=LINE('',#591,#593);
#595=EDGE_CURVE('',#590,#582,#594,.T.);
#596=ORIENTED_EDGE('',*,*,#595,.F.);
#597=CARTESIAN_POINT('',(-8.625,2.898963703,0.25));
#598=DIRECTION('',(0.,0.,-1.));
#599=VECTOR('',#598,0.25);
#600=LINE('',#597,#599);
#601=EDGE_CURVE('',#590,#131,#600,.T.);
#602=ORIENTED_EDGE('',*,*,#601,.T.);
#603=EDGE_LOOP('',(#580,#588,#596,#602));
#604=FACE_BOUND('',#603,.T.);
#605=ADVANCED_FACE('',(#604),#579,.F.);
#606=CARTESIAN_POINT('',(-8.65,3.08660254,0.25));
#607=DIRECTION('',(-0.5,0.866025404,0.));
#608=DIRECTION('',(-0.866025404,-0.5,0.));
#609=AXIS2_PLACEMENT_3D('',#606,#607,#608);
#610=PLANE('',#609);
#611=CARTESIAN_POINT('',(-8.725,3.04330127,0.25));
#612=VERTEX_POINT('',#611);
#613=CARTESIAN_POINT('',(-8.625,3.101036297,0.25));
#614=VERTEX_POINT('',#613);
#615=CARTESIAN_POINT('',(-8.725,3.04330127,0.25));
#616=DIRECTION('',(0.866025404,0.5,0.));
#617=VECTOR('',#616,0.115470054);
#618=LINE('',#615,#617);
#619=EDGE_CURVE('',#612,#614,#618,.T.);
#620=ORIENTED_EDGE('',*,*,#619,.F.);
#621=CARTESIAN_POINT('',(-8.725,3.04330127,0.25));
#622=DIRECTION('',(0.,0.,-1.));
#623=VECTOR('',#622,0.25);
#624=LINE('',#621,#623);
#625=EDGE_CURVE('',#612,#114,#624,.T.);
#626=ORIENTED_EDGE('',*,*,#625,.T.);
#627=ORIENTED_EDGE('',*,*,#119,.T.);
#628=CARTESIAN_POINT('',(-8.625,3.101036297,0.));
#629=DIRECTION('',(-0.,-0.,1.));
#630=VECTOR('',#629,0.25);
#631=LINE('',#628,#630);
#632=EDGE_CURVE('',#105,#614,#631,.T.);
#633=ORIENTED_EDGE('',*,*,#632,.T.);
#634=EDGE_LOOP('',(#620,#626,#627,#633));
#635=FACE_BOUND('',#634,.T.);
#636=ADVANCED_FACE('',(#635),#610,.F.);
#637=CARTESIAN_POINT('',(-8.5,3.346410162,0.25));
#638=DIRECTION('',(-1.,0.,0.));
#639=DIRECTION('',(0.,0.,1.));
#640=AXIS2_PLACEMENT_3D('',#637,#638,#639);
#641=PLANE('',#640);
#642=ORIENTED_EDGE('',*,*,#102,.T.);
#643=CARTESIAN_POINT('',(-8.5,3.433012702,0.25));
#644=VERTEX_POINT('',#643);
#645=CARTESIAN_POINT('',(-8.5,3.433012702,0.));
#646=DIRECTION('',(-0.,-0.,1.));
#647=VECTOR('',#646,0.25);
#648=LINE('',#645,#647);
#649=EDGE_CURVE('',#97,#644,#648,.T.);
#650=ORIENTED_EDGE('',*,*,#649,.T.);
#651=CARTESIAN_POINT('',(-8.5,3.317542648,0.25));
#652=VERTEX_POINT('',#651);
#653=CARTESIAN_POINT('',(-8.5,3.317542648,0.25));
#654=DIRECTION('',(0.,1.,0.));
#655=VECTOR('',#654,0.115470054);
#656=LINE('',#653,#655);
#657=EDGE_CURVE('',#652,#644,#656,.T.);
#658=ORIENTED_EDGE('',*,*,#657,.F.);
#659=CARTESIAN_POINT('',(-8.5,3.317542648,0.25));
#660=DIRECTION('',(0.,0.,-1.));
#661=VECTOR('',#660,0.25);
#662=LINE('',#659,#661);
#663=EDGE_CURVE('',#652,#95,#662,.T.);
#664=ORIENTED_EDGE('',*,*,#663,.T.);
#665=EDGE_LOOP('',(#642,#650,#658,#664));
#666=FACE_BOUND('',#665,.T.);
#667=ADVANCED_FACE('',(#666),#641,.F.);
#668=CARTESIAN_POINT('',(-8.35,3.433012702,0.25));
#669=DIRECTION('',(0.5,0.866025404,0.));
#670=DIRECTION('',(-0.866025404,0.5,0.));
#671=AXIS2_PLACEMENT_3D('',#668,#669,#670);
#672=PLANE('',#671);
#673=CARTESIAN_POINT('',(-8.425,3.476313972,0.25));
#674=VERTEX_POINT('',#673);
#675=CARTESIAN_POINT('',(-8.325,3.418578945,0.25));
#676=VERTEX_POINT('',#675);
#677=CARTESIAN_POINT('',(-8.425,3.476313972,0.25));
#678=DIRECTION('',(0.866025404,-0.5,0.));
#679=VECTOR('',#678,0.115470054);
#680=LINE('',#677,#679);
#681=EDGE_CURVE('',#674,#676,#680,.T.);
#682=ORIENTED_EDGE('',*,*,#681,.F.);
#683=CARTESIAN_POINT('',(-8.425,3.476313972,0.25));
#684=DIRECTION('',(0.,0.,-1.));
#685=VECTOR('',#684,0.25);
#686=LINE('',#683,#685);
#687=EDGE_CURVE('',#674,#293,#686,.T.);
#688=ORIENTED_EDGE('',*,*,#687,.T.);
#689=ORIENTED_EDGE('',*,*,#298,.T.);
#690=CARTESIAN_POINT('',(-8.325,3.418578945,0.));
#691=DIRECTION('',(-0.,-0.,1.));
#692=VECTOR('',#691,0.25);
#693=LINE('',#690,#692);
#694=EDGE_CURVE('',#284,#676,#693,.T.);
#695=ORIENTED_EDGE('',*,*,#694,.T.);
#696=EDGE_LOOP('',(#682,#688,#689,#695));
#697=FACE_BOUND('',#696,.T.);
#698=ADVANCED_FACE('',(#697),#672,.F.);
#699=CARTESIAN_POINT('',(-8.05,3.433012702,0.25));
#700=DIRECTION('',(-0.5,0.866025404,0.));
#701=DIRECTION('',(-0.866025404,-0.5,0.));
#702=AXIS2_PLACEMENT_3D('',#699,#700,#701);
#703=PLANE('',#702);
#704=ORIENTED_EDGE('',*,*,#281,.T.);
#705=CARTESIAN_POINT('',(-7.975,3.476313972,0.25));
#706=VERTEX_POINT('',#705);
#707=CARTESIAN_POINT('',(-7.975,3.476313972,0.));
#708=DIRECTION('',(-0.,-0.,1.));
#709=VECTOR('',#708,0.25);
#710=LINE('',#707,#709);
#711=EDGE_CURVE('',#267,#706,#710,.T.);
#712=ORIENTED_EDGE('',*,*,#711,.T.);
#713=CARTESIAN_POINT('',(-8.075,3.418578945,0.25));
#714=VERTEX_POINT('',#713);
#715=CARTESIAN_POINT('',(-8.075,3.418578945,0.25));
#716=DIRECTION('',(0.866025404,0.5,0.));
#717=VECTOR('',#716,0.115470054);
#718=LINE('',#715,#717);
#719=EDGE_CURVE('',#714,#706,#718,.T.);
#720=ORIENTED_EDGE('',*,*,#719,.F.);
#721=CARTESIAN_POINT('',(-8.075,3.418578945,0.25));
#722=DIRECTION('',(0.,0.,-1.));
#723=VECTOR('',#722,0.25);
#724=LINE('',#721,#723);
#725=EDGE_CURVE('',#714,#276,#724,.T.);
#726=ORIENTED_EDGE('',*,*,#725,.T.);
#727=EDGE_LOOP('',(#704,#712,#720,#726));
#728=FACE_BOUND('',#727,.T.);
#729=ADVANCED_FACE('',(#728),#703,.F.);
#730=CARTESIAN_POINT('',(0.,6.,0.25));
#731=DIRECTION('',(0.,0.,-1.));
#732=DIRECTION('',(0.,-1.,0.));
#733=AXIS2_PLACEMENT_3D('',#730,#731,#732);
#734=PLANE('',#733);
#735=ORIENTED_EDGE('',*,*,#471,.T.);
#736=CARTESIAN_POINT('',(-7.95,2.566987298,0.25));
#737=DIRECTION('',(0.,0.,-1.));
#738=DIRECTION('',(-1.,0.,0.));
#739=AXIS2_PLACEMENT_3D('',#736,#737,#738);
#740=CIRCLE('',#739,0.05);
#741=EDGE_CURVE('',#458,#488,#740,.T.);
#742=ORIENTED_EDGE('',*,*,#741,.T.);
#743=ORIENTED_EDGE('',*,*,#495,.T.);
#744=CARTESIAN_POINT('',(-8.2,2.364914704,0.25));
#745=DIRECTION('',(-0.,-0.,1.));
#746=DIRECTION('',(-1.,0.,0.));
#747=AXIS2_PLACEMENT_3D('',#744,#745,#746);
#748=CIRCLE('',#747,0.25);
#749=EDGE_CURVE('',#490,#528,#748,.T.);
#750=ORIENTED_EDGE('',*,*,#749,.T.);
#751=ORIENTED_EDGE('',*,*,#533,.T.);
#752=CARTESIAN_POINT('',(-8.45,2.566987298,0.25));
#753=DIRECTION('',(0.,0.,-1.));
#754=DIRECTION('',(-1.,0.,0.));
#755=AXIS2_PLACEMENT_3D('',#752,#753,#754);
#756=CIRCLE('',#755,0.05);
#757=EDGE_CURVE('',#520,#550,#756,.T.);
#758=ORIENTED_EDGE('',*,*,#757,.T.);
#759=ORIENTED_EDGE('',*,*,#557,.T.);
#760=CARTESIAN_POINT('',(-8.75,2.682457352,0.25));
#761=DIRECTION('',(-0.,-0.,1.));
#762=DIRECTION('',(-1.,0.,0.));
#763=AXIS2_PLACEMENT_3D('',#760,#761,#762);
#764=CIRCLE('',#763,0.25);
#765=EDGE_CURVE('',#552,#590,#764,.T.);
#766=ORIENTED_EDGE('',*,*,#765,.T.);
#767=ORIENTED_EDGE('',*,*,#595,.T.);
#768=CARTESIAN_POINT('',(-8.7,3.,0.25));
#769=DIRECTION('',(0.,0.,-1.));
#770=DIRECTION('',(-1.,0.,0.));
#771=AXIS2_PLACEMENT_3D('',#768,#769,#770);
#772=CIRCLE('',#771,0.05);
#773=EDGE_CURVE('',#582,#612,#772,.T.);
#774=ORIENTED_EDGE('',*,*,#773,.T.);
#775=ORIENTED_EDGE('',*,*,#619,.T.);
#776=CARTESIAN_POINT('',(-8.75,3.317542648,0.25));
#777=DIRECTION('',(-0.,-0.,1.));
#778=DIRECTION('',(-1.,0.,0.));
#779=AXIS2_PLACEMENT_3D('',#776,#777,#778);
#780=CIRCLE('',#779,0.25);
#781=EDGE_CURVE('',#614,#652,#780,.T.);
#782=ORIENTED_EDGE('',*,*,#781,.T.);
#783=ORIENTED_EDGE('',*,*,#657,.T.);
#784=CARTESIAN_POINT('',(-8.45,3.433012702,0.25));
#785=DIRECTION('',(0.,0.,-1.));
#786=DIRECTION('',(-1.,0.,0.));
#787=AXIS2_PLACEMENT_3D('',#784,#785,#786);
#788=CIRCLE('',#787,0.05);
#789=EDGE_CURVE('',#644,#674,#788,.T.);
#790=ORIENTED_EDGE('',*,*,#789,.T.);
#791=ORIENTED_EDGE('',*,*,#681,.T.);
#792=CARTESIAN_POINT('',(-8.2,3.635085296,0.25));
#793=DIRECTION('',(-0.,-0.,1.));
#794=DIRECTION('',(-1.,0.,0.));
#795=AXIS2_PLACEMENT_3D('',#792,#793,#794);
#796=CIRCLE('',#795,0.25);
#797=EDGE_CURVE('',#676,#714,#796,.T.);
#798=ORIENTED_EDGE('',*,*,#797,.T.);
#799=ORIENTED_EDGE('',*,*,#719,.T.);
#800=CARTESIAN_POINT('',(-7.95,3.433012702,0.25));
#801=DIRECTION('',(0.,0.,-1.));
#802=DIRECTION('',(-1.,0.,0.));
#803=AXIS2_PLACEMENT_3D('',#800,#801,#802);
#804=CIRCLE('',#803,0.05);
#805=EDGE_CURVE('',#706,#364,#804,.T.);
#806=ORIENTED_EDGE('',*,*,#805,.T.);
#807=ORIENTED_EDGE('',*,*,#371,.T.);
#808=CARTESIAN_POINT('',(-7.65,3.317542648,0.25));
#809=DIRECTION('',(-0.,-0.,1.));
#810=DIRECTION('',(-1.,0.,0.));
#811=AXIS2_PLACEMENT_3D('',#808,#809,#810);
#812=CIRCLE('',#811,0.25);
#813=EDGE_CURVE('',#366,#404,#812,.T.);
#814=ORIENTED_EDGE('',*,*,#813,.T.);
#815=ORIENTED_EDGE('',*,*,#409,.T.);
#816=CARTESIAN_POINT('',(-7.65,3.,0.25));
#817=VERTEX_POINT('',#816);
#818=CARTESIAN_POINT('',(-7.7,3.,0.25));
#819=DIRECTION('',(0.,0.,-1.));
#820=DIRECTION('',(-1.,0.,0.));
#821=AXIS2_PLACEMENT_3D('',#818,#819,#820);
#822=CIRCLE('',#821,0.05);
#823=EDGE_CURVE('',#396,#817,#822,.T.);
#824=ORIENTED_EDGE('',*,*,#823,.T.);
#825=CARTESIAN_POINT('',(-7.7,3.,0.25));
#826=DIRECTION('',(0.,0.,-1.));
#827=DIRECTION('',(-1.,0.,0.));
#828=AXIS2_PLACEMENT_3D('',#825,#826,#827);
#829=CIRCLE('',#828,0.05);
#830=EDGE_CURVE('',#817,#426,#829,.T.);
#831=ORIENTED_EDGE('',*,*,#830,.T.);
#832=ORIENTED_EDGE('',*,*,#433,.T.);
#833=CARTESIAN_POINT('',(-7.65,2.682457352,0.25));
#834=DIRECTION('',(-0.,-0.,1.));
#835=DIRECTION('',(-1.,0.,0.));
#836=AXIS2_PLACEMENT_3D('',#833,#834,#835);
#837=CIRCLE('',#836,0.25);
#838=EDGE_CURVE('',#428,#466,#837,.T.);
#839=ORIENTED_EDGE('',*,*,#838,.T.);
#840=EDGE_LOOP('',(#735,#742,#743,#750,#751,#758,#759,#766,#767,#774,#775,#782,#783,#790,#791,#798,#799,#806,#807,#814,#815,#824,#831,#832,#839));
#841=FACE_BOUND('',#840,.T.);
#842=ADVANCED_FACE('',(#841),#734,.T.);
#843=CARTESIAN_POINT('',(-8.75,3.317542648,0.25));
#844=DIRECTION('',(0.,0.,-1.));
#845=DIRECTION('',(-1.,0.,0.));
#846=AXIS2_PLACEMENT_3D('',#843,#844,#845);
#847=CYLINDRICAL_SURFACE('',#846,0.25);
#848=ORIENTED_EDGE('',*,*,#781,.F.);
#849=ORIENTED_EDGE('',*,*,#632,.F.);
#850=ORIENTED_EDGE('',*,*,#111,.F.);
#851=ORIENTED_EDGE('',*,*,#663,.F.);
#852=EDGE_LOOP('',(#848,#849,#850,#851));
#853=FACE_BOUND('',#852,.T.);
#854=ADVANCED_FACE('',(#853),#847,.T.);
#855=CARTESIAN_POINT('',(-8.2,3.635085296,0.25));
#856=DIRECTION('',(0.,0.,-1.));
#857=DIRECTION('',(-1.,0.,0.));
#858=AXIS2_PLACEMENT_3D('',#855,#856,#857);
#859=CYLINDRICAL_SURFACE('',#858,0.25);
#860=ORIENTED_EDGE('',*,*,#797,.F.);
#861=ORIENTED_EDGE('',*,*,#694,.F.);
#862=ORIENTED_EDGE('',*,*,#290,.F.);
#863=ORIENTED_EDGE('',*,*,#725,.F.);
#864=EDGE_LOOP('',(#860,#861,#862,#863));
#865=FACE_BOUND('',#864,.T.);
#866=ADVANCED_FACE('',(#865),#859,.T.);
#867=CARTESIAN_POINT('',(-7.65,3.317542648,0.25));
#868=DIRECTION('',(0.,0.,-1.));
#869=DIRECTION('',(-1.,0.,0.));
#870=AXIS2_PLACEMENT_3D('',#867,#868,#869);
#871=CYLINDRICAL_SURFACE('',#870,0.25);
#872=ORIENTED_EDGE('',*,*,#813,.F.);
#873=ORIENTED_EDGE('',*,*,#384,.F.);
#874=ORIENTED_EDGE('',*,*,#256,.F.);
#875=ORIENTED_EDGE('',*,*,#415,.F.);
#876=EDGE_LOOP('',(#872,#873,#874,#875));
#877=FACE_BOUND('',#876,.T.);
#878=ADVANCED_FACE('',(#877),#871,.T.);
#879=CARTESIAN_POINT('',(-8.75,2.682457352,0.25));
#880=DIRECTION('',(0.,0.,-1.));
#881=DIRECTION('',(-1.,0.,0.));
#882=AXIS2_PLACEMENT_3D('',#879,#880,#881);
#883=CYLINDRICAL_SURFACE('',#882,0.25);
#884=ORIENTED_EDGE('',*,*,#765,.F.);
#885=ORIENTED_EDGE('',*,*,#570,.F.);
#886=ORIENTED_EDGE('',*,*,#145,.F.);
#887=ORIENTED_EDGE('',*,*,#601,.F.);
#888=EDGE_LOOP('',(#884,#885,#886,#887));
#889=FACE_BOUND('',#888,.T.);
#890=ADVANCED_FACE('',(#889),#883,.T.);
#891=CARTESIAN_POINT('',(-7.65,2.682457352,0.25));
#892=DIRECTION('',(0.,0.,-1.));
#893=DIRECTION('',(-1.,0.,0.));
#894=AXIS2_PLACEMENT_3D('',#891,#892,#893);
#895=CYLINDRICAL_SURFACE('',#894,0.25);
#896=ORIENTED_EDGE('',*,*,#838,.F.);
#897=ORIENTED_EDGE('',*,*,#446,.F.);
#898=ORIENTED_EDGE('',*,*,#213,.F.);
#899=ORIENTED_EDGE('',*,*,#477,.F.);
#900=EDGE_LOOP('',(#896,#897,#898,#899));
#901=FACE_BOUND('',#900,.T.);
#902=ADVANCED_FACE('',(#901),#895,.T.);
#903=CARTESIAN_POINT('',(-8.2,2.364914704,0.25));
#904=DIRECTION('',(0.,0.,-1.));
#905=DIRECTION('',(-1.,0.,0.));
#906=AXIS2_PLACEMENT_3D('',#903,#904,#905);
#907=CYLINDRICAL_SURFACE('',#906,0.25);
#908=ORIENTED_EDGE('',*,*,#749,.F.);
#909=ORIENTED_EDGE('',*,*,#508,.F.);
#910=ORIENTED_EDGE('',*,*,#179,.F.);
#911=ORIENTED_EDGE('',*,*,#539,.F.);
#912=EDGE_LOOP('',(#908,#909,#910,#911));
#913=FACE_BOUND('',#912,.T.);
#914=ADVANCED_FACE('',(#913),#907,.T.);
#915=CARTESIAN_POINT('',(-7.95,2.566987298,0.25));
#916=DIRECTION('',(0.,0.,1.));
#917=DIRECTION('',(1.,0.,-0.));
#918=AXIS2_PLACEMENT_3D('',#915,#916,#917);
#919=CYLINDRICAL_SURFACE('',#918,0.05);
#920=ORIENTED_EDGE('',*,*,#741,.F.);
#921=ORIENTED_EDGE('',*,*,#463,.F.);
#922=ORIENTED_EDGE('',*,*,#196,.F.);
#923=ORIENTED_EDGE('',*,*,#501,.F.);
#924=EDGE_LOOP('',(#920,#921,#922,#923));
#925=FACE_BOUND('',#924,.T.);
#926=ADVANCED_FACE('',(#925),#919,.F.);
#927=CARTESIAN_POINT('',(-7.7,3.,0.25));
#928=DIRECTION('',(0.,0.,1.));
#929=DIRECTION('',(1.,0.,-0.));
#930=AXIS2_PLACEMENT_3D('',#927,#928,#929);
#931=CYLINDRICAL_SURFACE('',#930,0.05);
#932=CARTESIAN_POINT('',(-7.65,3.,0.25));
#933=DIRECTION('',(-0.,-0.,-1.));
#934=VECTOR('',#933,0.25);
#935=LINE('',#932,#934);
#936=EDGE_CURVE('',#817,#224,#935,.T.);
#937=ORIENTED_EDGE('',*,*,#936,.F.);
#938=ORIENTED_EDGE('',*,*,#823,.F.);
#939=ORIENTED_EDGE('',*,*,#401,.F.);
#940=ORIENTED_EDGE('',*,*,#239,.F.);
#941=EDGE_LOOP('',(#937,#938,#939,#940));
#942=FACE_BOUND('',#941,.T.);
#943=ADVANCED_FACE('',(#942),#931,.F.);
#944=CARTESIAN_POINT('',(-8.7,3.,0.25));
#945=DIRECTION('',(0.,0.,1.));
#946=DIRECTION('',(1.,0.,-0.));
#947=AXIS2_PLACEMENT_3D('',#944,#945,#946);
#948=CYLINDRICAL_SURFACE('',#947,0.05);
#949=ORIENTED_EDGE('',*,*,#773,.F.);
#950=ORIENTED_EDGE('',*,*,#587,.F.);
#951=ORIENTED_EDGE('',*,*,#128,.F.);
#952=ORIENTED_EDGE('',*,*,#625,.F.);
#953=EDGE_LOOP('',(#949,#950,#951,#952));
#954=FACE_BOUND('',#953,.T.);
#955=ADVANCED_FACE('',(#954),#948,.F.);
#956=CARTESIAN_POINT('',(-8.45,3.433012702,0.25));
#957=DIRECTION('',(0.,0.,1.));
#958=DIRECTION('',(1.,0.,-0.));
#959=AXIS2_PLACEMENT_3D('',#956,#957,#958);
#960=CYLINDRICAL_SURFACE('',#959,0.05);
#961=ORIENTED_EDGE('',*,*,#789,.F.);
#962=ORIENTED_EDGE('',*,*,#649,.F.);
#963=ORIENTED_EDGE('',*,*,#305,.F.);
#964=ORIENTED_EDGE('',*,*,#687,.F.);
#965=EDGE_LOOP('',(#961,#962,#963,#964));
#966=FACE_BOUND('',#965,.T.);
#967=ADVANCED_FACE('',(#966),#960,.F.);
#968=CARTESIAN_POINT('',(-7.95,3.433012702,0.25));
#969=DIRECTION('',(0.,0.,1.));
#970=DIRECTION('',(1.,0.,-0.));
#971=AXIS2_PLACEMENT_3D('',#968,#969,#970);
#972=CYLINDRICAL_SURFACE('',#971,0.05);
#973=ORIENTED_EDGE('',*,*,#805,.F.);
#974=ORIENTED_EDGE('',*,*,#711,.F.);
#975=ORIENTED_EDGE('',*,*,#273,.F.);
#976=ORIENTED_EDGE('',*,*,#377,.F.);
#977=EDGE_LOOP('',(#973,#974,#975,#976));
#978=FACE_BOUND('',#977,.T.);
#979=ADVANCED_FACE('',(#978),#972,.F.);
#980=CARTESIAN_POINT('',(-8.45,2.566987298,0.25));
#981=DIRECTION('',(0.,0.,1.));
#982=DIRECTION('',(1.,0.,-0.));
#983=AXIS2_PLACEMENT_3D('',#980,#981,#982);
#984=CYLINDRICAL_SURFACE('',#983,0.05);
#985=ORIENTED_EDGE('',*,*,#757,.F.);
#986=ORIENTED_EDGE('',*,*,#525,.F.);
#987=ORIENTED_EDGE('',*,*,#162,.F.);
#988=ORIENTED_EDGE('',*,*,#563,.F.);
#989=EDGE_LOOP('',(#985,#986,#987,#988));
#990=FACE_BOUND('',#989,.T.);
#991=ADVANCED_FACE('',(#990),#984,.F.);
#992=CARTESIAN_POINT('',(-7.7,3.,0.25));
#993=DIRECTION('',(0.,0.,1.));
#994=DIRECTION('',(1.,0.,-0.));
#995=AXIS2_PLACEMENT_3D('',#992,#993,#994);
#996=CYLINDRICAL_SURFACE('',#995,0.05);
#997=ORIENTED_EDGE('',*,*,#936,.T.);
#998=ORIENTED_EDGE('',*,*,#230,.F.);
#999=ORIENTED_EDGE('',*,*,#439,.F.);
#1000=ORIENTED_EDGE('',*,*,#830,.F.);
#1001=EDGE_LOOP('',(#997,#998,#999,#1000));
#1002=FACE_BOUND('',#1001,.T.);
#1003=ADVANCED_FACE('',(#1002),#996,.F.);
#1004=CLOSED_SHELL('',(#59,#88,#312,#347,#357,#388,#419,#450,#481,#512,#543,#574,#605,#636,#667,#698,#729,#842,#854,#866,#878,#890,#902,#914,#926,#943,
#955,#967,#979,#991,#1003));
#1005=MANIFOLD_SOLID_BREP('m1.2*2',#1004);
#1006=COLOUR_RGB('',0.749019623,0.737254918,0.725490212);
#1007=FILL_AREA_STYLE_COLOUR('',#1006);
#1008=FILL_AREA_STYLE('',(#1007));
#1009=SURFACE_STYLE_FILL_AREA(#1008);
#1010=SURFACE_SIDE_STYLE('',(#1009));
#1011=SURFACE_STYLE_USAGE(.BOTH.,#1010);
#1012=PRESENTATION_STYLE_ASSIGNMENT((#1011));
#26=STYLED_ITEM('',(#1012),#1005);
#16=SHAPE_REPRESENTATION('m1.2*2',(#15),#10);
#17=ADVANCED_BREP_SHAPE_REPRESENTATION('m1.2*2',(#1005),#10);
#1020=SHAPE_REPRESENTATION_RELATIONSHIP('','',#16,#17);
#1021=CARTESIAN_POINT('',(0.,0.,0.));
#1022=DIRECTION('',(0.,0.,1.));
#1023=DIRECTION('',(1.,0.,0.));
#1024=AXIS2_PLACEMENT_3D('',#1021,#1022,#1023);
#1026=MAPPED_ITEM('',#1025,#1024);
#1025=REPRESENTATION_MAP(#1024,#16);
#1027=APPLICATION_CONTEXT('Managed model based 3d engineering');
#1028=APPLICATION_PROTOCOL_DEFINITION('international standard','ap242_managed_model_based_3d_engineering',2014,#1027);
#1029=PRODUCT_CONTEXT('',#1027,'mechanical');
#1030=PRODUCT_DEFINITION_CONTEXT('part definition',#1027,'design');
#24=PRODUCT('m1.2*2','m1.2*2','',(#1029));
#1031=PRODUCT_RELATED_PRODUCT_CATEGORY('part','',(#24));
#1032=PRODUCT_DEFINITION_FORMATION_WITH_SPECIFIED_SOURCE('','',#24,.NOT_KNOWN.);
#25=PRODUCT_DEFINITION('design','',#1032,#1030);
#23=PRODUCT_DEFINITION_SHAPE('','',#25);
#1033=SHAPE_DEFINITION_REPRESENTATION(#23,#16);
#11=DRAUGHTING_MODEL('',(#1026),#10);
#1034=DESCRIPTIVE_REPRESENTATION_ITEM('KEY','C:\\Users\\Nalani\\AppData\\Local\\Packages\\Shapr3D.Shapr3D_j403pzjkqtqbj\\TempState\\98c409ff-4a54-48fb-b749-6acb1a225cf8.tmp');
#1035=PROPERTY_DEFINITION('KEY','',#25);
#1036=REPRESENTATION('',(#1034),#10);
#1037=PROPERTY_DEFINITION_REPRESENTATION(#1035,#1036);
#1038=GENERAL_PROPERTY('','KEY','');
#1039=GENERAL_PROPERTY_ASSOCIATION('','',#1038,#1035);
#1=MECHANICAL_DESIGN_GEOMETRIC_PRESENTATION_REPRESENTATION('',(#26),#10);
ENDSEC;
END-ISO-10303-21;
