ISO-10303-21;
HEADER;

/* File generated by Shapr3D Version 26.123.11423.0 */

FILE_DESCRIPTION(('HOOPS Exchange Step'),'2;1');

FILE_NAME('C:\\Users\\Nalani\\AppData\\Local\\Packages\\Shapr3D.Shapr3D_j403pzjkqtqbj\\TempState\\export\\temp_export',
'2026-08-03T16:12:05+08:00',
('Nalani'),
('Shapr3D Limited'),
'HOOPS Exchange 2026.3',
'Shapr3D',
'Authorized');

FILE_SCHEMA( ('AP242_MANAGED_MODEL_BASED_3D_ENGINEERING_MIM_LF {1 0 10303 442 1 1 4}') );

ENDSEC;

DATA;
#3=(NAMED_UNIT(*)PLANE_ANGLE_UNIT()SI_UNIT($,.RADIAN.));
#4=PLANE_ANGLE_MEASURE_WITH_UNIT(PLANE_ANGLE_MEASURE(0.0174532925),#3);
#5=(CONVERSION_BASED_UNIT('DEGREE',#4)NAMED_UNIT(#6)PLANE_ANGLE_UNIT());
#6=DIMENSIONAL_EXPONENTS(0.,0.,0.,0.,0.,0.,0.);
#7=(NAMED_UNIT(*)SI_UNIT($,.STERADIAN.)SOLID_ANGLE_UNIT());
#8=(LENGTH_UNIT()NAMED_UNIT(*)SI_UNIT(.MILLI.,.METRE.));
#9=UNCERTAINTY_MEASURE_WITH_UNIT(LENGTH_MEASURE(1.000000E-03),#8,'DISTANCE_ACCURACY_VALUE','Maximum Tolerance applied to model');
#10=(GEOMETRIC_REPRESENTATION_CONTEXT(3)GLOBAL_UNCERTAINTY_ASSIGNED_CONTEXT((#9))GLOBAL_UNIT_ASSIGNED_CONTEXT((#8,#5,#7))REPRESENTATION_CONTEXT('','RMR_V1_C_1.585_30'));
#12=CARTESIAN_POINT('',(0.,0.,0.));
#13=DIRECTION('',(0.,0.,1.));
#14=DIRECTION('',(1.,0.,0.));
#15=AXIS2_PLACEMENT_3D('',#12,#13,#14);
#26=(NAMED_UNIT(*)PLANE_ANGLE_UNIT()SI_UNIT($,.RADIAN.));
#27=PLANE_ANGLE_MEASURE_WITH_UNIT(PLANE_ANGLE_MEASURE(0.0174532925),#26);
#28=(CONVERSION_BASED_UNIT('DEGREE',#27)NAMED_UNIT(#29)PLANE_ANGLE_UNIT());
#29=DIMENSIONAL_EXPONENTS(0.,0.,0.,0.,0.,0.,0.);
#30=(NAMED_UNIT(*)SI_UNIT($,.STERADIAN.)SOLID_ANGLE_UNIT());
#31=(LENGTH_UNIT()NAMED_UNIT(*)SI_UNIT(.MILLI.,.METRE.));
#32=UNCERTAINTY_MEASURE_WITH_UNIT(LENGTH_MEASURE(1.000000E-05),#31,'DISTANCE_ACCURACY_VALUE','Maximum Tolerance applied to model');
#33=(GEOMETRIC_REPRESENTATION_CONTEXT(3)GLOBAL_UNCERTAINTY_ASSIGNED_CONTEXT((#32))GLOBAL_UNIT_ASSIGNED_CONTEXT((#31,#28,#30))REPRESENTATION_CONTEXT('','surfaces 3,4'));
#45=CARTESIAN_POINT('',(0.,0.,0.));
#46=DIRECTION('',(0.,0.,1.));
#47=DIRECTION('',(1.,0.,-0.));
#48=AXIS2_PLACEMENT_3D('',#45,#46,#47);
#49=ITEM_DEFINED_TRANSFORMATION('','',#48,#15);
#50=(REPRESENTATION_RELATIONSHIP('','',#35,#16)REPRESENTATION_RELATIONSHIP_WITH_TRANSFORMATION(#49)SHAPE_REPRESENTATION_RELATIONSHIP());
#51=NEXT_ASSEMBLY_USAGE_OCCURRENCE('surfaces 3,4_1','surfaces 3,4','surfaces 3,4',#25,#44,$);
#52=PRODUCT_DEFINITION_SHAPE('','',#51);
#53=CONTEXT_DEPENDENT_SHAPE_REPRESENTATION(#50,#52);
#55=CARTESIAN_POINT('',(21.061390466,-5.400001952,2.384315401));
#56=CARTESIAN_POINT('',(21.059646567,-5.400001952,2.434349687));
#57=CARTESIAN_POINT('',(21.044751171,-5.400001952,2.830602058));
#58=CARTESIAN_POINT('',(21.000981645,-5.400001952,3.567963919));
#59=CARTESIAN_POINT('',(20.902095973,-5.400001952,4.587307806));
#60=CARTESIAN_POINT('',(20.766644877,-5.400001952,5.594770868));
#61=CARTESIAN_POINT('',(20.595679575,-5.400001952,6.590694664));
#62=CARTESIAN_POINT('',(20.390216324,-5.400001952,7.575409397));
#63=CARTESIAN_POINT('',(20.151236552,-5.400001952,8.549233953));
#64=CARTESIAN_POINT('',(19.891912931,-5.400001952,9.469107533));
#65=CARTESIAN_POINT('',(19.704754923,-5.400001952,10.06193788));
#66=CARTESIAN_POINT('',(19.614100819,-5.400001951,10.335632984));
#67=CARTESIAN_POINT('',(21.070874416,-5.349901306,2.387396924));
#68=CARTESIAN_POINT('',(21.069129486,-5.349901306,2.437430874));
#69=CARTESIAN_POINT('',(21.054226003,-5.349901306,2.833680617));
#70=CARTESIAN_POINT('',(21.010442617,-5.349901306,3.571037975));
#71=CARTESIAN_POINT('',(20.911540722,-5.349901306,4.590376591));
#72=CARTESIAN_POINT('',(20.776076546,-5.349901306,5.597835402));
#73=CARTESIAN_POINT('',(20.605101311,-5.349901306,6.593755972));
#74=CARTESIAN_POINT('',(20.399631268,-5.349901306,7.578468498));
#75=CARTESIAN_POINT('',(20.160647843,-5.349901306,8.552291866));
#76=CARTESIAN_POINT('',(19.901323728,-5.349901306,9.472165286));
#77=CARTESIAN_POINT('',(19.71416722,-5.349901306,10.06499612));
#78=CARTESIAN_POINT('',(19.623514203,-5.349901306,10.338691578));
#79=CARTESIAN_POINT('',(21.126885095,-5.049797913,2.405595897));
#80=CARTESIAN_POINT('',(21.125134075,-5.049797913,2.455627868));
#81=CARTESIAN_POINT('',(21.110182836,-5.049797913,2.851862095));
#82=CARTESIAN_POINT('',(21.066317635,-5.049797913,3.589192868));
#83=CARTESIAN_POINT('',(20.967319853,-5.049797913,4.60850033));
#84=CARTESIAN_POINT('',(20.83177845,-5.049797913,5.615934048));
#85=CARTESIAN_POINT('',(20.660744539,-5.049797913,6.611835552));
#86=CARTESIAN_POINT('',(20.455234385,-5.049797913,7.596535046));
#87=CARTESIAN_POINT('',(20.216229376,-5.049797913,8.570351401));
#88=CARTESIAN_POINT('',(19.956902357,-5.049797913,9.490223877));
#89=CARTESIAN_POINT('',(19.769754695,-5.049797913,10.083057586));
#90=CARTESIAN_POINT('',(19.679108096,-5.049797913,10.356755129));
#91=CARTESIAN_POINT('',(21.220799718,-4.499691769,2.436110607));
#92=CARTESIAN_POINT('',(21.219038482,-4.499691769,2.48613926));
#93=CARTESIAN_POINT('',(21.204007128,-4.499691769,2.882347455));
#94=CARTESIAN_POINT('',(21.16000459,-4.499691769,3.619633605));
#95=CARTESIAN_POINT('',(21.060846084,-4.499691769,4.638888844));
#96=CARTESIAN_POINT('',(20.925175077,-4.499691769,5.646280452));
#97=CARTESIAN_POINT('',(20.754042763,-4.499691769,6.642149983));
#98=CARTESIAN_POINT('',(20.548465297,-4.499691769,7.626827605));
#99=CARTESIAN_POINT('',(20.30942409,-4.499691769,8.600632199));
#100=CARTESIAN_POINT('',(20.050092174,-4.499691769,9.520503084));
#101=CARTESIAN_POINT('',(19.862959362,-4.499691769,10.113341618));
#102=CARTESIAN_POINT('',(19.772323526,-4.499691769,10.387042658));
#103=CARTESIAN_POINT('',(21.310985552,-3.874684894,2.465413761));
#104=CARTESIAN_POINT('',(21.3092145,-3.874684894,2.515439224));
#105=CARTESIAN_POINT('',(21.29410617,-3.874684894,2.911622408));
#106=CARTESIAN_POINT('',(21.249971778,-3.874684894,3.648865717));
#107=CARTESIAN_POINT('',(21.150658688,-3.874684894,4.668070728));
#108=CARTESIAN_POINT('',(21.014863209,-3.874684894,5.675421893));
#109=CARTESIAN_POINT('',(20.8436363,-3.874684894,6.671260688));
#110=CARTESIAN_POINT('',(20.637994172,-3.874684894,7.6559173));
#111=CARTESIAN_POINT('',(20.398918157,-3.874684894,8.629710584));
#112=CARTESIAN_POINT('',(20.139581543,-3.874684894,9.549579943));
#113=CARTESIAN_POINT('',(19.952462976,-3.874684894,10.142423105));
#114=CARTESIAN_POINT('',(19.861837479,-3.874684894,10.416127504));
#115=CARTESIAN_POINT('',(21.37325481,-3.374679394,2.48564627));
#116=CARTESIAN_POINT('',(21.371476978,-3.374679394,2.535669529));
#117=CARTESIAN_POINT('',(21.356315478,-3.374679394,2.931835438));
#118=CARTESIAN_POINT('',(21.312089931,-3.374679394,3.669049128));
#119=CARTESIAN_POINT('',(21.212670177,-3.374679394,4.688219482));
#120=CARTESIAN_POINT('',(21.076788675,-3.374679394,5.695542696));
#121=CARTESIAN_POINT('',(20.905496452,-3.374679394,6.69136027));
#122=CARTESIAN_POINT('',(20.699809643,-3.374679394,7.676002364));
#123=CARTESIAN_POINT('',(20.460709592,-3.374679394,8.649787839));
#124=CARTESIAN_POINT('',(20.201369718,-3.374679394,9.569656138));
#125=CARTESIAN_POINT('',(20.014260997,-3.374679394,10.1625025));
#126=CARTESIAN_POINT('',(19.923642639,-3.374679394,10.436209218));
#127=CARTESIAN_POINT('',(21.428945984,-2.874673894,2.503741429));
#128=CARTESIAN_POINT('',(21.427162086,-2.874673894,2.553762718));
#129=CARTESIAN_POINT('',(21.411953024,-2.874673894,2.949913172));
#130=CARTESIAN_POINT('',(21.367645986,-2.874673894,3.687100385));
#131=CARTESIAN_POINT('',(21.268130767,-2.874673894,4.70623972));
#132=CARTESIAN_POINT('',(21.132172306,-2.874673894,5.713537929));
#133=CARTESIAN_POINT('',(20.960821659,-2.874673894,6.709336519));
#134=CARTESIAN_POINT('',(20.755094867,-2.874673894,7.693965622));
#135=CARTESIAN_POINT('',(20.515973348,-2.874673894,8.667744121));
#136=CARTESIAN_POINT('',(20.256630523,-2.874673894,9.587611462));
#137=CARTESIAN_POINT('',(20.069530612,-2.874673894,10.180460686));
#138=CARTESIAN_POINT('',(19.97891864,-2.874673894,10.45416948));
#139=CARTESIAN_POINT('',(21.486241398,-2.249667019,2.522357837));
#140=CARTESIAN_POINT('',(21.484451258,-2.249667019,2.572377098));
#141=CARTESIAN_POINT('',(21.469193246,-2.249667019,2.968511648));
#142=CARTESIAN_POINT('',(21.4248023,-2.249667019,3.705671597));
#143=CARTESIAN_POINT('',(21.32518883,-2.249667019,4.724779009));
#144=CARTESIAN_POINT('',(21.189151233,-2.249667019,5.732051504));
#145=CARTESIAN_POINT('',(21.017740418,-2.249667019,6.727830545));
#146=CARTESIAN_POINT('',(20.81197252,-2.249667019,7.712446292));
#147=CARTESIAN_POINT('',(20.572828804,-2.249667019,8.686217579));
#148=CARTESIAN_POINT('',(20.313483033,-2.249667019,9.606083962));
#149=CARTESIAN_POINT('',(20.126392167,-2.249667019,10.198936125));
#150=CARTESIAN_POINT('',(20.035786763,-2.249667019,10.472647053));
#151=CARTESIAN_POINT('',(21.535324467,-1.499658769,2.538305893));
#152=CARTESIAN_POINT('',(21.53352898,-1.499658769,2.588323417));
#153=CARTESIAN_POINT('',(21.518229022,-1.499658769,2.984444337));
#154=CARTESIAN_POINT('',(21.473766202,-1.499658769,3.721580933));
#155=CARTESIAN_POINT('',(21.374068553,-1.499658769,4.740660994));
#156=CARTESIAN_POINT('',(21.237963076,-1.499658769,5.747911433));
#157=CARTESIAN_POINT('',(21.066500737,-1.499658769,6.743673733));
#158=CARTESIAN_POINT('',(20.860697575,-1.499658769,7.728278022));
#159=CARTESIAN_POINT('',(20.621534926,-1.499658769,8.702043157));
#160=CARTESIAN_POINT('',(20.36218654,-1.499658769,9.621908691));
#161=CARTESIAN_POINT('',(20.175103439,-1.499658769,10.214763377));
#162=CARTESIAN_POINT('',(20.084503665,-1.499658769,10.488476134));
#163=CARTESIAN_POINT('',(21.56476339,-0.749650519,2.547871179));
#164=CARTESIAN_POINT('',(21.562964693,-0.749650519,2.59788766));
#165=CARTESIAN_POINT('',(21.547639572,-0.749650519,2.994000404));
#166=CARTESIAN_POINT('',(21.50313363,-0.749650519,3.731122989));
#167=CARTESIAN_POINT('',(21.403385454,-0.749650519,4.750186632));
#168=CARTESIAN_POINT('',(21.267239304,-0.749650519,5.757423857));
#169=CARTESIAN_POINT('',(21.095746031,-0.749650519,6.753176105));
#170=CARTESIAN_POINT('',(20.889921729,-0.749650519,7.737773525));
#171=CARTESIAN_POINT('',(20.650747664,-0.749650519,8.711534951));
#172=CARTESIAN_POINT('',(20.391397763,-0.749650519,9.631399993));
#173=CARTESIAN_POINT('',(20.204319313,-0.749650519,10.22425619));
#174=CARTESIAN_POINT('',(20.113722916,-0.749650519,10.497970044));
#175=CARTESIAN_POINT('',(21.574574549,0.000357731,2.551059018));
#176=CARTESIAN_POINT('',(21.572774783,0.000357731,2.601075151));
#177=CARTESIAN_POINT('',(21.557441276,0.000357731,2.997185171));
#178=CARTESIAN_POINT('',(21.512920948,0.000357731,3.734303081));
#179=CARTESIAN_POINT('',(21.413155986,0.000357731,4.75336127));
#180=CARTESIAN_POINT('',(21.276996215,0.000357731,5.760594069));
#181=CARTESIAN_POINT('',(21.10549266,0.000357731,6.756342976));
#182=CARTESIAN_POINT('',(20.899661305,0.000357731,7.740938106));
#183=CARTESIAN_POINT('',(20.660483496,0.000357731,8.714698315));
#184=CARTESIAN_POINT('',(20.401133033,0.000357731,9.634563174));
#185=CARTESIAN_POINT('',(20.214056133,0.000357731,10.227419874));
#186=CARTESIAN_POINT('',(20.123460859,0.000357731,10.501134094));
#187=CARTESIAN_POINT('',(21.56476339,0.750365981,2.547871179));
#188=CARTESIAN_POINT('',(21.562964693,0.750365981,2.59788766));
#189=CARTESIAN_POINT('',(21.547639572,0.750365981,2.994000404));
#190=CARTESIAN_POINT('',(21.503133632,0.750365981,3.731122989));
#191=CARTESIAN_POINT('',(21.403385454,0.750365981,4.750186632));
#192=CARTESIAN_POINT('',(21.267239304,0.750365981,5.757423857));
#193=CARTESIAN_POINT('',(21.095746031,0.750365981,6.753176105));
#194=CARTESIAN_POINT('',(20.889921728,0.750365981,7.737773525));
#195=CARTESIAN_POINT('',(20.650747665,0.750365981,8.711534952));
#196=CARTESIAN_POINT('',(20.391397763,0.750365981,9.631399993));
#197=CARTESIAN_POINT('',(20.204319313,0.750365981,10.22425619));
#198=CARTESIAN_POINT('',(20.113722916,0.750365981,10.497970044));
#199=CARTESIAN_POINT('',(21.535324468,1.500374231,2.538305893));
#200=CARTESIAN_POINT('',(21.53352898,1.500374231,2.588323417));
#201=CARTESIAN_POINT('',(21.518229022,1.500374231,2.984444338));
#202=CARTESIAN_POINT('',(21.473766198,1.500374231,3.721580932));
#203=CARTESIAN_POINT('',(21.374068553,1.500374231,4.740660994));
#204=CARTESIAN_POINT('',(21.237963076,1.500374231,5.747911433));
#205=CARTESIAN_POINT('',(21.066500737,1.500374231,6.743673733));
#206=CARTESIAN_POINT('',(20.860697575,1.500374231,7.728278022));
#207=CARTESIAN_POINT('',(20.621534924,1.500374231,8.702043157));
#208=CARTESIAN_POINT('',(20.36218654,1.500374231,9.621908691));
#209=CARTESIAN_POINT('',(20.175103439,1.500374231,10.214763377));
#210=CARTESIAN_POINT('',(20.084503665,1.500374231,10.488476134));
#211=CARTESIAN_POINT('',(21.486241397,2.250382481,2.522357837));
#212=CARTESIAN_POINT('',(21.484451258,2.250382481,2.572377098));
#213=CARTESIAN_POINT('',(21.469193246,2.250382481,2.968511648));
#214=CARTESIAN_POINT('',(21.424802309,2.250382481,3.7056716));
#215=CARTESIAN_POINT('',(21.32518883,2.250382481,4.724779009));
#216=CARTESIAN_POINT('',(21.189151233,2.250382481,5.732051504));
#217=CARTESIAN_POINT('',(21.017740418,2.250382481,6.727830545));
#218=CARTESIAN_POINT('',(20.811972519,2.250382481,7.712446292));
#219=CARTESIAN_POINT('',(20.572828807,2.250382481,8.68621758));
#220=CARTESIAN_POINT('',(20.313483032,2.250382481,9.606083962));
#221=CARTESIAN_POINT('',(20.126392166,2.250382481,10.198936125));
#222=CARTESIAN_POINT('',(20.035786763,2.250382481,10.472647053));
#223=CARTESIAN_POINT('',(21.417486903,3.000390731,2.500018148));
#224=CARTESIAN_POINT('',(21.415704254,3.000390731,2.550039842));
#225=CARTESIAN_POINT('',(21.400504981,3.000390731,2.946193478));
#226=CARTESIAN_POINT('',(21.356214705,3.000390731,3.683386136));
#227=CARTESIAN_POINT('',(21.256719153,3.000390731,4.702531862));
#228=CARTESIAN_POINT('',(21.12077652,3.000390731,5.709835214));
#229=CARTESIAN_POINT('',(20.949437906,3.000390731,6.705637713));
#230=CARTESIAN_POINT('',(20.743719338,3.000390731,7.690269489));
#231=CARTESIAN_POINT('',(20.504602247,3.000390731,8.664049427));
#232=CARTESIAN_POINT('',(20.245260023,3.000390731,9.583916962));
#233=CARTESIAN_POINT('',(20.058158301,3.000390731,10.176765598));
#234=CARTESIAN_POINT('',(19.967545016,3.000390731,10.450473965));
#235=CARTESIAN_POINT('',(21.329022716,3.750398981,2.471274391));
#236=CARTESIAN_POINT('',(21.327249701,3.750398981,2.521299216));
#237=CARTESIAN_POINT('',(21.312125975,3.750398981,2.917477398));
#238=CARTESIAN_POINT('',(21.267965189,3.750398981,3.65471213));
#239=CARTESIAN_POINT('',(21.168621202,3.750398981,4.673907103));
#240=CARTESIAN_POINT('',(21.03280083,3.750398981,5.681250179));
#241=CARTESIAN_POINT('',(20.861555001,3.750398981,6.677082827));
#242=CARTESIAN_POINT('',(20.655899945,3.750398981,7.661735239));
#243=CARTESIAN_POINT('',(20.416816953,3.750398981,8.635526256));
#244=CARTESIAN_POINT('',(20.157479413,3.750398981,9.555395313));
#245=CARTESIAN_POINT('',(19.970363695,3.750398981,10.148239401));
#246=CARTESIAN_POINT('',(19.879740264,3.750398981,10.421944472));
#247=CARTESIAN_POINT('',(21.220799724,4.500407231,2.436110609));
#248=CARTESIAN_POINT('',(21.219038488,4.500407231,2.486139262));
#249=CARTESIAN_POINT('',(21.204007135,4.500407231,2.882347457));
#250=CARTESIAN_POINT('',(21.160004613,4.500407231,3.619633613));
#251=CARTESIAN_POINT('',(21.060846093,4.500407231,4.638888847));
#252=CARTESIAN_POINT('',(20.925175085,4.500407231,5.646280455));
#253=CARTESIAN_POINT('',(20.754042771,4.500407231,6.642149986));
#254=CARTESIAN_POINT('',(20.548465303,4.500407231,7.626827607));
#255=CARTESIAN_POINT('',(20.309424106,4.500407231,8.600632205));
#256=CARTESIAN_POINT('',(20.050092181,4.500407231,9.520503087));
#257=CARTESIAN_POINT('',(19.862959369,4.500407231,10.11334162));
#258=CARTESIAN_POINT('',(19.772323534,4.500407231,10.387042661));
#259=CARTESIAN_POINT('',(21.126925799,5.050274888,2.405609122));
#260=CARTESIAN_POINT('',(21.125174775,5.050274888,2.455641092));
#261=CARTESIAN_POINT('',(21.1102235,5.050274888,2.851875307));
#262=CARTESIAN_POINT('',(21.066358229,5.050274888,3.589206058));
#263=CARTESIAN_POINT('',(20.967360387,5.050274888,4.6085135));
#264=CARTESIAN_POINT('',(20.831818929,5.050274888,5.615947201));
#265=CARTESIAN_POINT('',(20.660784974,5.050274889,6.61184869));
#266=CARTESIAN_POINT('',(20.455274791,5.050274889,7.596548175));
#267=CARTESIAN_POINT('',(20.216269761,5.050274889,8.570364523));
#268=CARTESIAN_POINT('',(19.956942744,5.050274889,9.490237));
#269=CARTESIAN_POINT('',(19.76979509,5.050274889,10.083070711));
#270=CARTESIAN_POINT('',(19.679148496,5.050274889,10.356768256));
#271=CARTESIAN_POINT('',(21.07096345,5.350139794,2.387425853));
#272=CARTESIAN_POINT('',(21.06921851,5.350139794,2.4374598));
#273=CARTESIAN_POINT('',(21.054314952,5.350139794,2.833709519));
#274=CARTESIAN_POINT('',(21.010531442,5.350139794,3.571066835));
#275=CARTESIAN_POINT('',(20.911629389,5.350139794,4.590405401));
#276=CARTESIAN_POINT('',(20.77616509,5.350139794,5.597864172));
#277=CARTESIAN_POINT('',(20.605189762,5.350139794,6.593784711));
#278=CARTESIAN_POINT('',(20.399719654,5.350139794,7.578497216));
#279=CARTESIAN_POINT('',(20.160736198,5.350139794,8.552320575));
#280=CARTESIAN_POINT('',(19.901412076,5.350139794,9.472193992));
#281=CARTESIAN_POINT('',(19.714255581,5.350139794,10.065024831));
#282=CARTESIAN_POINT('',(19.623602575,5.350139794,10.338720292));
#283=CARTESIAN_POINT('',(21.061525899,5.400001949,2.384359406));
#284=CARTESIAN_POINT('',(21.059781985,5.400001949,2.434393687));
#285=CARTESIAN_POINT('',(21.044886473,5.400001949,2.83064602));
#286=CARTESIAN_POINT('',(21.001116754,5.400001949,3.568007818));
#287=CARTESIAN_POINT('',(20.902230846,5.400001949,4.587351629));
#288=CARTESIAN_POINT('',(20.766779564,5.400001949,5.59481463));
#289=CARTESIAN_POINT('',(20.59581412,5.400001949,6.59073838));
#290=CARTESIAN_POINT('',(20.390350771,5.400001949,7.575453082));
#291=CARTESIAN_POINT('',(20.151370949,5.400001949,8.549277621));
#292=CARTESIAN_POINT('',(19.892047319,5.400001949,9.469151198));
#293=CARTESIAN_POINT('',(19.704889332,5.400001949,10.061981552));
#294=CARTESIAN_POINT('',(19.614235244,5.400001949,10.335676662));
#295=B_SPLINE_SURFACE_WITH_KNOTS('',3,3,((#55,#56,#57,#58,#59,#60,#61,#62,#63,#64,#65,#66),(#67,#68,#69,#70,#71,#72,#73,#74,#75,#76,#77,#78),(#79,#80,#81,#82,#83,#84,#85,#86,#87,#88,#89,#90),(#91,#92,#93,#94,#95,#96,#97,#98,#99,#100,#101,#102),(#103,#104,#105,#106,#107,#108,#109,#110,#111,#112,#113,#114),(#115,#116,#117,#118,#119,#120,#121,#122,#123,#124,#125,#126),(#127,#128,#129,#130,#131,#132,#133,#134,#135,#136,#137,#138),(#139,#140,#141,#142,#143,#144,#145,#146,#147,#148,#149,#150),(#151,#152,#153,#154,#155,#156,#157,#158,#159,#160,#161,#162),(#163,#164,#165,#166,#167,#168,#169,#170,#171,#172,#173,#174),(#175,#176,#177,#178,#179,#180,#181,#182,#183,#184,#185,#186),(#187,#188,#189,#190,#191,#192,#193,#194,#195,#196,#197,#198),(#199,#200,#201,#202,#203,#204,#205,#206,#207,#208,#209,#210),(#211,#212,#213,#214,#215,#216,#217,#218,#219,#220,#221,#222),(#223,#224,#225,#226,#227,#228,#229,#230,#231,#232,#233,#234),(#235,#236,#237,#238,#239,#240,#241,#242,#243,#244,#245,#246),(#247,#248,#249,#250,#251,#252,#253,#254,#255,#256,#257,#258),(#259,#260,#261,#262,#263,#264,#265,#266,#267,#268,#269,#270),(#271,#272,#273,#274,#275,#276,#277,#278,#279,#280,#281,#282),(#283,#284,#285,#286,#287,#288,#289,#290,#291,#292,#293,#294)),.UNSPECIFIED.,.F.,.F.,.U.,(4,1,1,1,1,1,1,1,1,1,1,1,1,1,1,1,1,4),(4,1,1,1,1,1,1,1,1,4),(0.049974527,0.062499563,0.124999625,0.187499688,0.218749719,0.24999975,0.312499812,0.374999875,0.437499937,0.5,0.562500062,0.625000125,0.687500187,0.75000025,0.812500312,0.875000375,0.937500438,0.949965852),(0.115976404,0.124999625,0.187499688,0.24999975,0.312499812,0.374999875,0.437499937,0.5,0.562500062,0.616558241),.UNSPECIFIED.);
#296=CARTESIAN_POINT('',(21.188951944,4.650000001,2.55));
#297=VERTEX_POINT('',#296);
#298=CARTESIAN_POINT('',(21.188834005,-4.65,2.55));
#299=VERTEX_POINT('',#298);
#300=CARTESIAN_POINT('',(21.188951944,4.650000002,2.55));
#301=CARTESIAN_POINT('',(21.315686147,3.881133044,2.55));
#302=CARTESIAN_POINT('',(21.411288794,3.108833317,2.55));
#303=CARTESIAN_POINT('',(21.475228864,2.333042267,2.55));
#304=CARTESIAN_POINT('',(21.539168935,1.557251217,2.55));
#305=CARTESIAN_POINT('',(21.571315227,0.778040298,2.55));
#306=CARTESIAN_POINT('',(21.571304031,-0.000050011,2.55));
#307=CARTESIAN_POINT('',(21.571292834,-0.778140319,2.55));
#308=CARTESIAN_POINT('',(21.539117907,-1.557429542,2.55));
#309=CARTESIAN_POINT('',(21.475160898,-2.333151295,2.55));
#310=CARTESIAN_POINT('',(21.41120389,-3.108873048,2.55));
#311=CARTESIAN_POINT('',(21.315587234,-3.881136907,2.55));
#312=CARTESIAN_POINT('',(21.188834004,-4.650000002,2.55));
#313=B_SPLINE_CURVE_WITH_KNOTS('',3,(#300,#301,#302,#303,#304,#305,#306,#307,#308,#309,#310,#311,#312),.UNSPECIFIED.,.F.,.F.,(4,3,3,3,4),(0.,0.002334376,0.004668752,0.007003128,0.009337504),.UNSPECIFIED.);
#314=EDGE_CURVE('',#297,#299,#313,.T.);
#315=ORIENTED_EDGE('',*,*,#314,.F.);
#316=CARTESIAN_POINT('',(21.014308823,5.4,3.3));
#317=VERTEX_POINT('',#316);
#318=CARTESIAN_POINT('',(21.188951945,4.65,2.55));
#319=CARTESIAN_POINT('',(21.172659444,4.748842815,2.55));
#320=CARTESIAN_POINT('',(21.15543818,4.845523513,2.569341961));
#321=CARTESIAN_POINT('',(21.138006309,4.936052333,2.606693385));
#322=CARTESIAN_POINT('',(21.129290373,4.981316742,2.625369096));
#323=CARTESIAN_POINT('',(21.120675008,5.024247149,2.648220058));
#324=CARTESIAN_POINT('',(21.112156286,5.064871738,2.675194877));
#325=CARTESIAN_POINT('',(21.103637564,5.105496326,2.702169696));
#326=CARTESIAN_POINT('',(21.095149714,5.144067528,2.733623181));
#327=CARTESIAN_POINT('',(21.087102221,5.17870831,2.768053082));
#328=CARTESIAN_POINT('',(21.071007234,5.247989874,2.836912886));
#329=CARTESIAN_POINT('',(21.056068208,5.304144698,2.920271309));
#330=CARTESIAN_POINT('',(21.043661184,5.341941877,3.010662068));
#331=CARTESIAN_POINT('',(21.03125416,5.379739057,3.101052828));
#332=CARTESIAN_POINT('',(21.021138436,5.4,3.200028341));
#333=CARTESIAN_POINT('',(21.014308823,5.4,3.3));
#334=B_SPLINE_CURVE_WITH_KNOTS('',3,(#318,#319,#320,#321,#322,#323,#324,#325,#326,#327,#328,#329,#330,#331,#332,#333),.UNSPECIFIED.,.F.,.F.,(4,3,3,3,3,4),(0.,0.000296248,0.000444372,0.000592496,0.000888745,0.001184993),.UNSPECIFIED.);
#335=EDGE_CURVE('',#297,#317,#334,.T.);
#336=ORIENTED_EDGE('',*,*,#335,.T.);
#337=CARTESIAN_POINT('',(20.259412736,5.4,8.102852941));
#338=VERTEX_POINT('',#337);
#339=CARTESIAN_POINT('',(20.259412736,5.4,8.102852941));
#340=CARTESIAN_POINT('',(20.649187933,5.4,6.523614834));
#341=CARTESIAN_POINT('',(20.903427758,5.4,4.923073738));
#342=CARTESIAN_POINT('',(21.014308823,5.4,3.3));
#343=B_SPLINE_CURVE_WITH_KNOTS('',3,(#339,#340,#341,#342),.UNSPECIFIED.,.F.,.F.,(4,4),(0.,0.004861817),.UNSPECIFIED.);
#344=EDGE_CURVE('',#338,#317,#343,.T.);
#345=ORIENTED_EDGE('',*,*,#344,.F.);
#346=CARTESIAN_POINT('',(20.164460184,5.122100702,8.685622988));
#347=VERTEX_POINT('',#346);
#348=CARTESIAN_POINT('',(20.259412736,5.4,8.102852941));
#349=CARTESIAN_POINT('',(20.245814097,5.4,8.157950056));
#350=CARTESIAN_POINT('',(20.233446939,5.394001422,8.212303948));
#351=CARTESIAN_POINT('',(20.222306133,5.382057595,8.265922489));
#352=CARTESIAN_POINT('',(20.211165326,5.370113768,8.31954103));
#353=CARTESIAN_POINT('',(20.201185393,5.351873329,8.372939736));
#354=CARTESIAN_POINT('',(20.192971603,5.328205216,8.423068002));
#355=CARTESIAN_POINT('',(20.176544024,5.280868989,8.523324533));
#356=CARTESIAN_POINT('',(20.166546381,5.210351155,8.614131495));
#357=CARTESIAN_POINT('',(20.164460184,5.122100702,8.685622988));
#358=B_SPLINE_CURVE_WITH_KNOTS('',3,(#348,#349,#350,#351,#352,#353,#354,#355,#356,#357),.UNSPECIFIED.,.F.,.F.,(4,3,3,4),(0.,0.000167923,0.000335846,0.000671693),.UNSPECIFIED.);
#359=EDGE_CURVE('',#338,#347,#358,.T.);
#360=ORIENTED_EDGE('',*,*,#359,.T.);
#361=CARTESIAN_POINT('',(20.164321667,-5.122100702,8.685622988));
#362=VERTEX_POINT('',#361);
#363=CARTESIAN_POINT('',(20.164460184,5.122100702,8.685622988));
#364=CARTESIAN_POINT('',(20.15589756,4.75988399,8.97905393));
#365=CARTESIAN_POINT('',(20.148967916,4.377883699,9.237344535));
#366=CARTESIAN_POINT('',(20.143301482,3.97692836,9.46195872));
#367=CARTESIAN_POINT('',(20.137635048,3.575973022,9.686572905));
#368=CARTESIAN_POINT('',(20.133227527,3.155585955,9.877679819));
#369=CARTESIAN_POINT('',(20.129816196,2.716349738,10.033227849));
#370=CARTESIAN_POINT('',(20.126404864,2.277113521,10.188775879));
#371=CARTESIAN_POINT('',(20.124069852,1.830861365,10.304665073));
#372=CARTESIAN_POINT('',(20.122530327,1.377876782,10.382493153));
#373=CARTESIAN_POINT('',(20.120990803,0.924892199,10.460321233));
#374=CARTESIAN_POINT('',(20.120245869,0.464193202,10.500087515));
#375=CARTESIAN_POINT('',(20.120241141,-0.0015316,10.499999856));
#376=CARTESIAN_POINT('',(20.120236414,-0.467256403,10.499912196));
#377=CARTESIAN_POINT('',(20.120968839,-0.926481742,10.460139993));
#378=CARTESIAN_POINT('',(20.122497895,-1.379459194,10.382221115));
#379=CARTESIAN_POINT('',(20.123262424,-1.605947921,10.343261676));
#380=CARTESIAN_POINT('',(20.124229974,-1.830865827,10.294711597));
#381=CARTESIAN_POINT('',(20.12542907,-2.054192509,10.23644683));
#382=CARTESIAN_POINT('',(20.126628166,-2.277519191,10.178182063));
#383=CARTESIAN_POINT('',(20.12806407,-2.499873999,10.109980662));
#384=CARTESIAN_POINT('',(20.129764127,-2.71921471,10.032212666));
#385=CARTESIAN_POINT('',(20.133164242,-3.157896132,9.876676672));
#386=CARTESIAN_POINT('',(20.13755165,-3.577093133,9.685994405));
#387=CARTESIAN_POINT('',(20.143202586,-3.977589735,9.461588179));
#388=CARTESIAN_POINT('',(20.148853522,-4.378086338,9.237181952));
#389=CARTESIAN_POINT('',(20.155768545,-4.759883812,8.979054074));
#390=CARTESIAN_POINT('',(20.164321667,-5.122100702,8.685622988));
#391=B_SPLINE_CURVE_WITH_KNOTS('',3,(#363,#364,#365,#366,#367,#368,#369,#370,#371,#372,#373,#374,#375,#376,#377,#378,#379,#380,#381,#382,#383,#384,#385,#386,#387,#388,
#389,#390),.UNSPECIFIED.,.F.,.F.,(4,3,3,3,3,3,3,3,3,4),(0.,0.001378853,0.002757705,0.004136558,0.00551541,0.006894263,0.007583689,0.008273115,0.009651968,0.01103082),.UNSPECIFIED.);
#392=EDGE_CURVE('',#347,#362,#391,.T.);
#393=ORIENTED_EDGE('',*,*,#392,.T.);
#394=CARTESIAN_POINT('',(20.259267535,-5.4,8.102852941));
#395=VERTEX_POINT('',#394);
#396=CARTESIAN_POINT('',(20.164321667,-5.122100702,8.685622988));
#397=CARTESIAN_POINT('',(20.165363318,-5.166213489,8.649887319));
#398=CARTESIAN_POINT('',(20.168313469,-5.20540332,8.609950579));
#399=CARTESIAN_POINT('',(20.173083135,-5.239902279,8.566010907));
#400=CARTESIAN_POINT('',(20.1778528,-5.274401238,8.522071236));
#401=CARTESIAN_POINT('',(20.184548812,-5.304284059,8.473643206));
#402=CARTESIAN_POINT('',(20.192752077,-5.327986581,8.423530655));
#403=CARTESIAN_POINT('',(20.209158609,-5.375391625,8.323305553));
#404=CARTESIAN_POINT('',(20.232074327,-5.4,8.213029971));
#405=CARTESIAN_POINT('',(20.259267535,-5.4,8.102852941));
#406=B_SPLINE_CURVE_WITH_KNOTS('',3,(#396,#397,#398,#399,#400,#401,#402,#403,#404,#405),.UNSPECIFIED.,.F.,.F.,(4,3,3,4),(0.,0.000167869,0.000335738,0.000671477),.UNSPECIFIED.);
#407=EDGE_CURVE('',#362,#395,#406,.T.);
#408=ORIENTED_EDGE('',*,*,#407,.T.);
#409=CARTESIAN_POINT('',(21.014170642,-5.4,3.3));
#410=VERTEX_POINT('',#409);
#411=CARTESIAN_POINT('',(21.014170642,-5.4,3.3));
#412=CARTESIAN_POINT('',(20.903287373,-5.4,4.923073965));
#413=CARTESIAN_POINT('',(20.649045186,-5.4,6.523615054));
#414=CARTESIAN_POINT('',(20.259267535,-5.4,8.102852941));
#415=B_SPLINE_CURVE_WITH_KNOTS('',3,(#411,#412,#413,#414),.UNSPECIFIED.,.F.,.F.,(4,4),(0.,0.004861818),.UNSPECIFIED.);
#416=EDGE_CURVE('',#410,#395,#415,.T.);
#417=ORIENTED_EDGE('',*,*,#416,.F.);
#418=CARTESIAN_POINT('',(21.014170642,-5.4,3.3));
#419=CARTESIAN_POINT('',(21.017584932,-5.4,3.250022714));
#420=CARTESIAN_POINT('',(21.021755934,-5.395054848,3.200958416));
#421=CARTESIAN_POINT('',(21.026643158,-5.38540537,3.152762293));
#422=CARTESIAN_POINT('',(21.031530383,-5.375755891,3.104566169));
#423=CARTESIAN_POINT('',(21.037207676,-5.361162408,3.056736189));
#424=CARTESIAN_POINT('',(21.043444503,-5.342186585,3.011247975));
#425=CARTESIAN_POINT('',(21.049681331,-5.323210762,2.96575976));
#426=CARTESIAN_POINT('',(21.056445058,-5.300024523,2.922676704));
#427=CARTESIAN_POINT('',(21.063726336,-5.272691338,2.881962325));
#428=CARTESIAN_POINT('',(21.071007613,-5.245358153,2.841247946));
#429=CARTESIAN_POINT('',(21.078851385,-5.213639766,2.802817042));
#430=CARTESIAN_POINT('',(21.08688975,-5.179055582,2.768398466));
#431=CARTESIAN_POINT('',(21.102966479,-5.109887214,2.699561312));
#432=CARTESIAN_POINT('',(21.120457503,-5.026492713,2.644100653));
#433=CARTESIAN_POINT('',(21.137764191,-4.936658645,2.606943854));
#434=CARTESIAN_POINT('',(21.155070878,-4.846824577,2.569787056));
#435=CARTESIAN_POINT('',(21.17254294,-4.748818774,2.55));
#436=CARTESIAN_POINT('',(21.188834005,-4.65,2.55));
#437=B_SPLINE_CURVE_WITH_KNOTS('',3,(#418,#419,#420,#421,#422,#423,#424,#425,#426,#427,#428,#429,#430,#431,#432,#433,#434,#435,#436),.UNSPECIFIED.,.F.,.F.,(4,3,3,3,3,3,4),(0.,0.00014812,0.000296241,0.000444361,0.000592481,0.000888722,0.001184963),.UNSPECIFIED.);
#438=EDGE_CURVE('',#410,#299,#437,.T.);
#439=ORIENTED_EDGE('',*,*,#438,.T.);
#440=EDGE_LOOP('',(#315,#336,#345,#360,#393,#408,#417,#439));
#441=FACE_BOUND('',#440,.T.);
#442=ADVANCED_FACE('',(#441),#295,.T.);
#443=CARTESIAN_POINT('',(15.8,-4.65,8.102852941));
#444=DIRECTION('',(1.,0.,0.));
#445=DIRECTION('',(0.,0.,-1.));
#446=AXIS2_PLACEMENT_3D('',#443,#444,#445);
#447=CYLINDRICAL_SURFACE('',#446,0.75);
#448=CARTESIAN_POINT('',(18.084847037,-5.122100702,8.685622988));
#449=VERTEX_POINT('',#448);
#450=CARTESIAN_POINT('',(20.164321667,-5.122100702,8.685622988));
#451=DIRECTION('',(-1.,-0.,0.));
#452=VECTOR('',#451,2.07947463);
#453=LINE('',#450,#452);
#454=EDGE_CURVE('',#362,#449,#453,.T.);
#455=ORIENTED_EDGE('',*,*,#454,.T.);
#456=CARTESIAN_POINT('',(18.184504818,-5.4,8.102852941));
#457=VERTEX_POINT('',#456);
#458=CARTESIAN_POINT('',(18.084847037,-5.122100702,8.685622988));
#459=CARTESIAN_POINT('',(18.08720892,-5.210403126,8.614089394));
#460=CARTESIAN_POINT('',(18.097764478,-5.280897979,8.523389228));
#461=CARTESIAN_POINT('',(18.115083413,-5.328360264,8.422739409));
#462=CARTESIAN_POINT('',(18.12374288,-5.352091407,8.372414499));
#463=CARTESIAN_POINT('',(18.134188799,-5.370235117,8.319107098));
#464=CARTESIAN_POINT('',(18.145819075,-5.382129448,8.265599591));
#465=CARTESIAN_POINT('',(18.157449351,-5.394023778,8.212092084));
#466=CARTESIAN_POINT('',(18.170342594,-5.4,8.1578461));
#467=CARTESIAN_POINT('',(18.184504818,-5.4,8.102852941));
#468=B_SPLINE_CURVE_WITH_KNOTS('',3,(#458,#459,#460,#461,#462,#463,#464,#465,#466,#467),.UNSPECIFIED.,.F.,.F.,(4,3,3,4),(0.,0.000337477,0.000506216,0.000674955),.UNSPECIFIED.);
#469=EDGE_CURVE('',#449,#457,#468,.T.);
#470=ORIENTED_EDGE('',*,*,#469,.T.);
#471=CARTESIAN_POINT('',(18.184504818,-5.4,8.102852941));
#472=DIRECTION('',(1.,0.,-0.));
#473=VECTOR('',#472,2.074762717);
#474=LINE('',#471,#473);
#475=EDGE_CURVE('',#457,#395,#474,.T.);
#476=ORIENTED_EDGE('',*,*,#475,.T.);
#477=ORIENTED_EDGE('',*,*,#407,.F.);
#478=EDGE_LOOP('',(#455,#470,#476,#477));
#479=FACE_BOUND('',#478,.T.);
#480=ADVANCED_FACE('',(#479),#447,.T.);
#481=CARTESIAN_POINT('',(15.8,-4.65,3.3));
#482=DIRECTION('',(-1.,0.,0.));
#483=DIRECTION('',(0.,0.,1.));
#484=AXIS2_PLACEMENT_3D('',#481,#482,#483);
#485=CYLINDRICAL_SURFACE('',#484,0.75);
#486=CARTESIAN_POINT('',(18.978647994,-5.4,3.3));
#487=VERTEX_POINT('',#486);
#488=CARTESIAN_POINT('',(21.014170642,-5.4,3.3));
#489=DIRECTION('',(-1.,-0.,0.));
#490=VECTOR('',#489,2.035522648);
#491=LINE('',#488,#490);
#492=EDGE_CURVE('',#410,#487,#491,.T.);
#493=ORIENTED_EDGE('',*,*,#492,.T.);
#494=CARTESIAN_POINT('',(19.160753493,-4.65,2.55));
#495=VERTEX_POINT('',#494);
#496=CARTESIAN_POINT('',(18.978647994,-5.4,3.3));
#497=CARTESIAN_POINT('',(18.982346723,-5.4,3.250012753));
#498=CARTESIAN_POINT('',(18.98683053,-5.395052194,3.200783755));
#499=CARTESIAN_POINT('',(18.992070862,-5.385310456,3.152289023));
#500=CARTESIAN_POINT('',(18.997311193,-5.375568719,3.10379429));
#501=CARTESIAN_POINT('',(19.00334252,-5.36087085,3.055938301));
#502=CARTESIAN_POINT('',(19.009888864,-5.341960526,3.010706671));
#503=CARTESIAN_POINT('',(19.022981553,-5.304139879,2.92024341));
#504=CARTESIAN_POINT('',(19.038647944,-5.247912262,2.836868866));
#505=CARTESIAN_POINT('',(19.055381602,-5.17883637,2.768180393));
#506=CARTESIAN_POINT('',(19.072115261,-5.109760477,2.699491921));
#507=CARTESIAN_POINT('',(19.0902522,-5.026471384,2.644068523));
#508=CARTESIAN_POINT('',(19.108173955,-4.936505236,2.606880422));
#509=CARTESIAN_POINT('',(19.117134833,-4.891522162,2.588286371));
#510=CARTESIAN_POINT('',(19.126210517,-4.844033132,2.573884782));
#511=CARTESIAN_POINT('',(19.135013326,-4.79605968,2.564359755));
#512=CARTESIAN_POINT('',(19.143816134,-4.748086228,2.554834728));
#513=CARTESIAN_POINT('',(19.152397139,-4.699406677,2.55));
#514=CARTESIAN_POINT('',(19.160753493,-4.65,2.55));
#515=B_SPLINE_CURVE_WITH_KNOTS('',3,(#496,#497,#498,#499,#500,#501,#502,#503,#504,#505,#506,#507,#508,#509,#510,#511,#512,#513,#514),.UNSPECIFIED.,.F.,.F.,(4,3,3,3,3,3,4),(0.,0.000148937,0.000297874,0.000595748,0.000893622,0.001042559,0.001191496),.UNSPECIFIED.);
#516=EDGE_CURVE('',#487,#495,#515,.T.);
#517=ORIENTED_EDGE('',*,*,#516,.T.);
#518=CARTESIAN_POINT('',(19.160753493,-4.65,2.55));
#519=DIRECTION('',(1.,0.,-0.));
#520=VECTOR('',#519,2.028080512);
#521=LINE('',#518,#520);
#522=EDGE_CURVE('',#495,#299,#521,.T.);
#523=ORIENTED_EDGE('',*,*,#522,.T.);
#524=ORIENTED_EDGE('',*,*,#438,.F.);
#525=EDGE_LOOP('',(#493,#517,#523,#524));
#526=FACE_BOUND('',#525,.T.);
#527=ADVANCED_FACE('',(#526),#485,.T.);
#528=CARTESIAN_POINT('',(15.8,-5.4,4.966917752));
#529=DIRECTION('',(0.,1.,0.));
#530=DIRECTION('',(0.,0.,-1.));
#531=AXIS2_PLACEMENT_3D('',#528,#529,#530);
#532=PLANE('',#531);
#533=ORIENTED_EDGE('',*,*,#416,.T.);
#534=ORIENTED_EDGE('',*,*,#475,.F.);
#535=CARTESIAN_POINT('',(18.978647994,-5.4,3.3));
#536=CARTESIAN_POINT('',(18.858647305,-5.4,4.921774303));
#537=CARTESIAN_POINT('',(18.590042974,-5.4,6.528112722));
#538=CARTESIAN_POINT('',(18.184504818,-5.4,8.102852941));
#539=B_SPLINE_CURVE_WITH_KNOTS('',3,(#535,#536,#537,#538),.UNSPECIFIED.,.F.,.F.,(4,4),(0.,0.004878588),.UNSPECIFIED.);
#540=EDGE_CURVE('',#487,#457,#539,.T.);
#541=ORIENTED_EDGE('',*,*,#540,.F.);
#542=ORIENTED_EDGE('',*,*,#492,.F.);
#543=EDGE_LOOP('',(#533,#534,#541,#542));
#544=FACE_BOUND('',#543,.T.);
#545=ADVANCED_FACE('',(#544),#532,.F.);
#546=CARTESIAN_POINT('',(15.8,4.65,8.102852941));
#547=DIRECTION('',(1.,0.,0.));
#548=DIRECTION('',(0.,0.,-1.));
#549=AXIS2_PLACEMENT_3D('',#546,#547,#548);
#550=CYLINDRICAL_SURFACE('',#549,0.75);
#551=CARTESIAN_POINT('',(18.184654445,5.4,8.102852941));
#552=VERTEX_POINT('',#551);
#553=CARTESIAN_POINT('',(20.259412736,5.4,8.102852941));
#554=DIRECTION('',(-1.,-0.,0.));
#555=VECTOR('',#554,2.074758291);
#556=LINE('',#553,#555);
#557=EDGE_CURVE('',#338,#552,#556,.T.);
#558=ORIENTED_EDGE('',*,*,#557,.T.);
#559=CARTESIAN_POINT('',(18.084989846,5.122100702,8.685622988));
#560=VERTEX_POINT('',#559);
#561=CARTESIAN_POINT('',(18.184654445,5.4,8.102852941));
#562=CARTESIAN_POINT('',(18.156320356,5.4,8.212877435));
#563=CARTESIAN_POINT('',(18.132380395,5.375574228,8.322928951));
#564=CARTESIAN_POINT('',(18.115091272,5.327974871,8.423555411));
#565=CARTESIAN_POINT('',(18.10644671,5.304175192,8.473868641));
#566=CARTESIAN_POINT('',(18.099412168,5.274271214,8.522248216));
#567=CARTESIAN_POINT('',(18.09437498,5.2398439,8.566085252));
#568=CARTESIAN_POINT('',(18.089337792,5.205416586,8.609922288));
#569=CARTESIAN_POINT('',(18.086172285,5.166263623,8.649846705));
#570=CARTESIAN_POINT('',(18.084989846,5.122100702,8.685622988));
#571=B_SPLINE_CURVE_WITH_KNOTS('',3,(#561,#562,#563,#564,#565,#566,#567,#568,#569,#570),.UNSPECIFIED.,.F.,.F.,(4,3,3,4),(0.,0.000337858,0.000506786,0.000675715),.UNSPECIFIED.);
#572=EDGE_CURVE('',#552,#560,#571,.T.);
#573=ORIENTED_EDGE('',*,*,#572,.T.);
#574=CARTESIAN_POINT('',(18.084989846,5.122100702,8.685622988));
#575=DIRECTION('',(1.,0.,-0.));
#576=VECTOR('',#575,2.079470338);
#577=LINE('',#574,#576);
#578=EDGE_CURVE('',#560,#347,#577,.T.);
#579=ORIENTED_EDGE('',*,*,#578,.T.);
#580=ORIENTED_EDGE('',*,*,#359,.F.);
#581=EDGE_LOOP('',(#558,#573,#579,#580));
#582=FACE_BOUND('',#581,.T.);
#583=ADVANCED_FACE('',(#582),#550,.T.);
#584=CARTESIAN_POINT('',(15.8,-0.,2.362804878));
#585=DIRECTION('',(1.,0.,0.));
#586=DIRECTION('',(0.,0.,-1.));
#587=AXIS2_PLACEMENT_3D('',#584,#585,#586);
#588=CYLINDRICAL_SURFACE('',#587,8.137195122);
#589=ORIENTED_EDGE('',*,*,#578,.F.);
#590=CARTESIAN_POINT('',(18.084989846,5.122100702,8.685622988));
#591=CARTESIAN_POINT('',(18.080150041,4.941338867,8.832057743));
#592=CARTESIAN_POINT('',(18.075741928,4.754428449,8.970629761));
#593=CARTESIAN_POINT('',(18.071736983,4.562013068,9.100904107));
#594=CARTESIAN_POINT('',(18.067732038,4.369597688,9.231178453));
#595=CARTESIAN_POINT('',(18.06412153,4.171097292,9.353462747));
#596=CARTESIAN_POINT('',(18.0609033,3.969361387,9.466192425));
#597=CARTESIAN_POINT('',(18.05446684,3.565889575,9.69165178));
#598=CARTESIAN_POINT('',(18.049538229,3.147540965,9.880639769));
#599=CARTESIAN_POINT('',(18.045732488,2.71460105,10.033846893));
#600=CARTESIAN_POINT('',(18.043829618,2.498131093,10.110450454));
#601=CARTESIAN_POINT('',(18.042209445,2.277993778,10.178060917));
#602=CARTESIAN_POINT('',(18.040840543,2.054104494,10.236469792));
#603=CARTESIAN_POINT('',(18.039471641,1.83021521,10.294878668));
#604=CARTESIAN_POINT('',(18.038353518,1.601991569,10.344092227));
#605=CARTESIAN_POINT('',(18.037479212,1.374268762,10.383112218));
#606=CARTESIAN_POINT('',(18.035730602,0.918823147,10.461152199));
#607=CARTESIAN_POINT('',(18.034909481,0.461420636,10.499881417));
#608=CARTESIAN_POINT('',(18.034900435,0.00209618,10.49999973));
#609=CARTESIAN_POINT('',(18.034895911,-0.227566048,10.500058887));
#610=CARTESIAN_POINT('',(18.035098622,-0.457711342,10.490413563));
#611=CARTESIAN_POINT('',(18.035519849,-0.688351204,10.470832818));
#612=CARTESIAN_POINT('',(18.035941075,-0.918991067,10.451252073));
#613=CARTESIAN_POINT('',(18.036584888,-1.150517533,10.421564067));
#614=CARTESIAN_POINT('',(18.037455129,-1.378148366,10.382446487));
#615=CARTESIAN_POINT('',(18.039195613,-1.833410031,10.304211326));
#616=CARTESIAN_POINT('',(18.041833654,-2.27751411,10.188269101));
#617=CARTESIAN_POINT('',(18.045621254,-2.710643972,10.035246061));
#618=CARTESIAN_POINT('',(18.047515054,-2.927208903,9.958734542));
#619=CARTESIAN_POINT('',(18.04970012,-3.141015555,9.872903121));
#620=CARTESIAN_POINT('',(18.052227534,-3.3519963,9.777524377));
#621=CARTESIAN_POINT('',(18.054754948,-3.562977046,9.682145634));
#622=CARTESIAN_POINT('',(18.057631338,-3.77126578,9.577036035));
#623=CARTESIAN_POINT('',(18.060855698,-3.973366486,9.463952899));
#624=CARTESIAN_POINT('',(18.067304418,-4.3775679,9.237786628));
#625=CARTESIAN_POINT('',(18.075177139,-4.760577017,8.97849251));
#626=CARTESIAN_POINT('',(18.084847037,-5.122100702,8.685622988));
#627=B_SPLINE_CURVE_WITH_KNOTS('',3,(#590,#591,#592,#593,#594,#595,#596,#597,#598,#599,#600,#601,#602,#603,#604,#605,#606,#607,#608,#609,#610,#611,#612,#613,#614,#615,
#616,#617,#618,#619,#620,#621,#622,#623,#624,#625,#626),.UNSPECIFIED.,.F.,.F.,(4,3,3,3,3,3,3,3,3,3,3,3,4),(0.,0.000697994,0.001395989,0.002791978,0.003489972,0.004187966,0.005583955,0.006281949,0.006979944,0.008375933,0.009073927,0.009771921,0.01116791),.UNSPECIFIED.);
#628=EDGE_CURVE('',#560,#449,#627,.T.);
#629=ORIENTED_EDGE('',*,*,#628,.T.);
#630=ORIENTED_EDGE('',*,*,#454,.F.);
#631=ORIENTED_EDGE('',*,*,#392,.F.);
#632=EDGE_LOOP('',(#589,#629,#630,#631));
#633=FACE_BOUND('',#632,.T.);
#634=ADVANCED_FACE('',(#633),#588,.T.);
#635=CARTESIAN_POINT('',(15.8,4.65,3.3));
#636=DIRECTION('',(-1.,0.,0.));
#637=DIRECTION('',(0.,0.,1.));
#638=AXIS2_PLACEMENT_3D('',#635,#636,#637);
#639=CYLINDRICAL_SURFACE('',#638,0.75);
#640=CARTESIAN_POINT('',(19.160874502,4.65,2.55));
#641=VERTEX_POINT('',#640);
#642=CARTESIAN_POINT('',(21.188951944,4.65,2.55));
#643=DIRECTION('',(-1.,-0.,0.));
#644=VECTOR('',#643,2.028077443);
#645=LINE('',#642,#644);
#646=EDGE_CURVE('',#297,#641,#645,.T.);
#647=ORIENTED_EDGE('',*,*,#646,.T.);
#648=CARTESIAN_POINT('',(18.978789841,5.4,3.3));
#649=VERTEX_POINT('',#648);
#650=CARTESIAN_POINT('',(19.160874502,4.65,2.55));
#651=CARTESIAN_POINT('',(19.15251867,4.699411275,2.55));
#652=CARTESIAN_POINT('',(19.143933462,4.748122893,2.554835696));
#653=CARTESIAN_POINT('',(19.135121106,4.796152798,2.56437825));
#654=CARTESIAN_POINT('',(19.12630875,4.844182704,2.573920803));
#655=CARTESIAN_POINT('',(19.117242906,4.891621053,2.588322134));
#656=CARTESIAN_POINT('',(19.108289134,4.936572606,2.606908274));
#657=CARTESIAN_POINT('',(19.09038159,5.026475713,2.644080553));
#658=CARTESIAN_POINT('',(19.072233569,5.109824156,2.69954925));
#659=CARTESIAN_POINT('',(19.055511195,5.178859561,2.768203456));
#660=CARTESIAN_POINT('',(19.038788821,5.247894967,2.836857662));
#661=CARTESIAN_POINT('',(19.023118933,5.30414171,2.920257509));
#662=CARTESIAN_POINT('',(19.010032567,5.341949456,3.010680193));
#663=CARTESIAN_POINT('',(19.003489383,5.360853329,3.055891536));
#664=CARTESIAN_POINT('',(18.997459784,5.375552386,3.103727749));
#665=CARTESIAN_POINT('',(18.992216758,5.385301782,3.152245849));
#666=CARTESIAN_POINT('',(18.986973733,5.395051178,3.200763949));
#667=CARTESIAN_POINT('',(18.982488866,5.4,3.250007724));
#668=CARTESIAN_POINT('',(18.978789841,5.4,3.3));
#669=B_SPLINE_CURVE_WITH_KNOTS('',3,(#650,#651,#652,#653,#654,#655,#656,#657,#658,#659,#660,#661,#662,#663,#664,#665,#666,#667,#668),.UNSPECIFIED.,.F.,.F.,(4,3,3,3,3,3,4),(0.,0.000148998,0.000297997,0.000595994,0.000893991,0.001042989,0.001191988),.UNSPECIFIED.);
#670=EDGE_CURVE('',#641,#649,#669,.T.);
#671=ORIENTED_EDGE('',*,*,#670,.T.);
#672=CARTESIAN_POINT('',(18.978789841,5.4,3.3));
#673=DIRECTION('',(1.,0.,-0.));
#674=VECTOR('',#673,2.035518983);
#675=LINE('',#672,#674);
#676=EDGE_CURVE('',#649,#317,#675,.T.);
#677=ORIENTED_EDGE('',*,*,#676,.T.);
#678=ORIENTED_EDGE('',*,*,#335,.F.);
#679=EDGE_LOOP('',(#647,#671,#677,#678));
#680=FACE_BOUND('',#679,.T.);
#681=ADVANCED_FACE('',(#680),#639,.T.);
#682=CARTESIAN_POINT('',(15.8,2.7,2.55));
#683=DIRECTION('',(0.,0.,1.));
#684=DIRECTION('',(1.,0.,0.));
#685=AXIS2_PLACEMENT_3D('',#682,#683,#684);
#686=PLANE('',#685);
#687=ORIENTED_EDGE('',*,*,#646,.F.);
#688=ORIENTED_EDGE('',*,*,#314,.T.);
#689=ORIENTED_EDGE('',*,*,#522,.F.);
#690=CARTESIAN_POINT('',(19.160874501,4.650000002,2.55));
#691=CARTESIAN_POINT('',(19.420744445,3.11328814,2.55));
#692=CARTESIAN_POINT('',(19.55317314,1.558013162,2.55));
#693=CARTESIAN_POINT('',(19.553169285,0.000289382,2.55));
#694=CARTESIAN_POINT('',(19.553165431,-1.557434398,2.55));
#695=CARTESIAN_POINT('',(19.420663081,-3.113292832,2.55));
#696=CARTESIAN_POINT('',(19.160753492,-4.650000002,2.55));
#697=B_SPLINE_CURVE_WITH_KNOTS('',3,(#690,#691,#692,#693,#694,#695,#696),.UNSPECIFIED.,.F.,.F.,(4,3,4),(0.,0.00467556,0.00935112),.UNSPECIFIED.);
#698=EDGE_CURVE('',#641,#495,#697,.T.);
#699=ORIENTED_EDGE('',*,*,#698,.F.);
#700=EDGE_LOOP('',(#687,#688,#689,#699));
#701=FACE_BOUND('',#700,.T.);
#702=ADVANCED_FACE('',(#701),#686,.F.);
#703=CARTESIAN_POINT('',(15.8,5.4,4.966917752));
#704=DIRECTION('',(0.,-1.,0.));
#705=DIRECTION('',(0.,0.,-1.));
#706=AXIS2_PLACEMENT_3D('',#703,#704,#705);
#707=PLANE('',#706);
#708=ORIENTED_EDGE('',*,*,#344,.T.);
#709=ORIENTED_EDGE('',*,*,#676,.F.);
#710=CARTESIAN_POINT('',(18.184654445,5.4,8.102852941));
#711=CARTESIAN_POINT('',(18.59019611,5.4,6.528088439));
#712=CARTESIAN_POINT('',(18.858790589,5.4,4.92178829));
#713=CARTESIAN_POINT('',(18.978789841,5.4,3.3));
#714=B_SPLINE_CURVE_WITH_KNOTS('',3,(#710,#711,#712,#713),.UNSPECIFIED.,.F.,.F.,(4,4),(0.,0.004878403),.UNSPECIFIED.);
#715=EDGE_CURVE('',#552,#649,#714,.T.);
#716=ORIENTED_EDGE('',*,*,#715,.F.);
#717=ORIENTED_EDGE('',*,*,#557,.F.);
#718=EDGE_LOOP('',(#708,#709,#716,#717));
#719=FACE_BOUND('',#718,.T.);
#720=ADVANCED_FACE('',(#719),#707,.F.);
#721=CARTESIAN_POINT('',(19.030799687,-5.400041677,2.380271203));
#722=CARTESIAN_POINT('',(19.03060164,-5.400041677,2.385288822));
#723=CARTESIAN_POINT('',(19.028381926,-5.400041678,2.441127967));
#724=CARTESIAN_POINT('',(19.023812229,-5.400041677,2.547681962));
#725=CARTESIAN_POINT('',(19.009038273,-5.400041677,2.851752038));
#726=CARTESIAN_POINT('',(18.980495011,-5.400041677,3.305783409));
#727=CARTESIAN_POINT('',(18.929056837,-5.400041677,3.906810985));
#728=CARTESIAN_POINT('',(18.864469546,-5.400041677,4.503566154));
#729=CARTESIAN_POINT('',(18.786960513,-5.400041677,5.096122794));
#730=CARTESIAN_POINT('',(18.69675326,-5.400041677,5.684553533));
#731=CARTESIAN_POINT('',(18.594067409,-5.400041677,6.268929729));
#732=CARTESIAN_POINT('',(18.479118798,-5.400041677,6.849321513));
#733=CARTESIAN_POINT('',(18.352119363,-5.400041677,7.425797747));
#734=CARTESIAN_POINT('',(18.2132774,-5.400041677,7.998426111));
#735=CARTESIAN_POINT('',(18.087877143,-5.400041677,8.47246514));
#736=CARTESIAN_POINT('',(17.981838354,-5.400041677,8.849838284));
#737=CARTESIAN_POINT('',(17.817109951,-5.400041677,9.414055633));
#738=CARTESIAN_POINT('',(17.659578437,-5.400041677,9.907197593));
#739=CARTESIAN_POINT('',(17.523528979,-5.400041677,10.304362688));
#740=CARTESIAN_POINT('',(17.514385382,-5.400041677,10.330934763));
#741=CARTESIAN_POINT('',(19.040515636,-5.34992779,2.383428106));
#742=CARTESIAN_POINT('',(19.040317511,-5.34992779,2.3884457));
#743=CARTESIAN_POINT('',(19.038096936,-5.34992779,2.444284565));
#744=CARTESIAN_POINT('',(19.033525613,-5.34992779,2.550838032));
#745=CARTESIAN_POINT('',(19.018747145,-5.34992779,2.854906642));
#746=CARTESIAN_POINT('',(18.990197593,-5.34992779,3.308935969));
#747=CARTESIAN_POINT('',(18.938752054,-5.34992779,3.909961151));
#748=CARTESIAN_POINT('',(18.874158409,-5.34992779,4.506714256));
#749=CARTESIAN_POINT('',(18.79664403,-5.34992779,5.09926916));
#750=CARTESIAN_POINT('',(18.706432433,-5.34992779,5.687698487));
#751=CARTESIAN_POINT('',(18.603743235,-5.34992779,6.272073596));
#752=CARTESIAN_POINT('',(18.488792272,-5.34992779,6.852464615));
#753=CARTESIAN_POINT('',(18.361791478,-5.34992779,7.428940408));
#754=CARTESIAN_POINT('',(18.222949146,-5.34992779,8.001568651));
#755=CARTESIAN_POINT('',(18.097549407,-5.349927789,8.475607849));
#756=CARTESIAN_POINT('',(17.991511528,-5.34992779,8.852981289));
#757=CARTESIAN_POINT('',(17.826784986,-5.349927789,9.417199242));
#758=CARTESIAN_POINT('',(17.669256205,-5.34992779,9.91034209));
#759=CARTESIAN_POINT('',(17.533209728,-5.349927789,10.307508154));
#760=CARTESIAN_POINT('',(17.524066334,-5.349927789,10.334080295));
#761=CARTESIAN_POINT('',(19.097884456,-5.049811153,2.402068365));
#762=CARTESIAN_POINT('',(19.097685875,-5.049811153,2.407085811));
#763=CARTESIAN_POINT('',(19.095460232,-5.049811154,2.462923029));
#764=CARTESIAN_POINT('',(19.090879294,-5.049811153,2.569473372));
#765=CARTESIAN_POINT('',(19.076074188,-5.049811153,2.873533327));
#766=CARTESIAN_POINT('',(19.047487505,-5.049811153,3.32755059));
#767=CARTESIAN_POINT('',(18.995998489,-5.049811153,3.928561646));
#768=CARTESIAN_POINT('',(18.93136734,-5.049811153,4.525302565));
#769=CARTESIAN_POINT('',(18.853821405,-5.049811153,5.117847215));
#770=CARTESIAN_POINT('',(18.763584161,-5.049811153,5.706268209));
#771=CARTESIAN_POINT('',(18.66087521,-5.049811153,6.2906369));
#772=CARTESIAN_POINT('',(18.545910358,-5.049811153,6.871023407));
#773=CARTESIAN_POINT('',(18.418901543,-5.049811153,7.447496593));
#774=CARTESIAN_POINT('',(18.280057029,-5.049811153,8.020124127));
#775=CARTESIAN_POINT('',(18.154660351,-5.049811153,8.49416432));
#776=CARTESIAN_POINT('',(18.048627843,-5.049811153,8.871539504));
#777=CARTESIAN_POINT('',(17.883912286,-5.049811153,9.435761028));
#778=CARTESIAN_POINT('',(17.726399646,-5.049811153,9.928909119));
#779=CARTESIAN_POINT('',(17.590370763,-5.049811153,10.3260809));
#780=CARTESIAN_POINT('',(17.581228567,-5.049811153,10.35265343));
#781=CARTESIAN_POINT('',(19.194081005,-4.499691768,2.433324519));
#782=CARTESIAN_POINT('',(19.193881654,-4.499691768,2.438341714));
#783=CARTESIAN_POINT('',(19.191647455,-4.499691769,2.494176152));
#784=CARTESIAN_POINT('',(19.187050492,-4.499691769,2.600721289));
#785=CARTESIAN_POINT('',(19.172200766,-4.499691769,2.904766746));
#786=CARTESIAN_POINT('',(19.143551931,-4.499691769,3.358763814));
#787=CARTESIAN_POINT('',(19.091990113,-4.499691769,3.959751215));
#788=CARTESIAN_POINT('',(19.027296183,-4.499691769,4.556471735));
#789=CARTESIAN_POINT('',(18.949697406,-4.499691769,5.148999215));
#790=CARTESIAN_POINT('',(18.859417231,-4.499691769,5.737406261));
#791=CARTESIAN_POINT('',(18.756675197,-4.499691769,6.321764202));
#792=CARTESIAN_POINT('',(18.64168711,-4.499691769,6.90214316));
#793=CARTESIAN_POINT('',(18.514664833,-4.499691769,7.478611971));
#794=CARTESIAN_POINT('',(18.375816689,-4.499691769,8.051238327));
#795=CARTESIAN_POINT('',(18.250425128,-4.499691769,8.525280182));
#796=CARTESIAN_POINT('',(18.144401622,-4.499691769,8.902658292));
#797=CARTESIAN_POINT('',(17.979704466,-4.499691769,9.466885793));
#798=CARTESIAN_POINT('',(17.822218828,-4.499691769,9.960042659));
#799=CARTESIAN_POINT('',(17.686219409,-4.499691769,10.357224013));
#800=CARTESIAN_POINT('',(17.677079219,-4.499691769,10.383797195));
#801=CARTESIAN_POINT('',(19.304942326,-3.749683518,2.469345546));
#802=CARTESIAN_POINT('',(19.304742095,-3.749683519,2.474362455));
#803=CARTESIAN_POINT('',(19.302498106,-3.74968352,2.530193712));
#804=CARTESIAN_POINT('',(19.297882662,-3.749683519,2.636732844));
#805=CARTESIAN_POINT('',(19.282981637,-3.749683519,2.940761633));
#806=CARTESIAN_POINT('',(19.25426131,-3.749683519,3.394735472));
#807=CARTESIAN_POINT('',(19.202615776,-3.749683519,3.995695672));
#808=CARTESIAN_POINT('',(19.137849627,-3.749683519,4.592392727));
#809=CARTESIAN_POINT('',(19.060190094,-3.749683519,5.184900467));
#810=CARTESIAN_POINT('',(18.969860529,-3.749683519,5.773291464));
#811=CARTESIAN_POINT('',(18.867080467,-3.749683519,6.35763705));
#812=CARTESIAN_POINT('',(18.752065621,-3.749683519,6.938007312));
#813=CARTESIAN_POINT('',(18.62502793,-3.749683519,7.514471116));
#814=CARTESIAN_POINT('',(18.486175564,-3.749683519,8.087096099));
#815=CARTESIAN_POINT('',(18.360789901,-3.749683519,8.561139871));
#816=CARTESIAN_POINT('',(18.254776727,-3.749683519,8.938521337));
#817=CARTESIAN_POINT('',(18.090100724,-3.749683519,9.502755713));
#818=CARTESIAN_POINT('',(17.932646174,-3.749683519,9.995922679));
#819=CARTESIAN_POINT('',(17.796680633,-3.749683519,10.393115041));
#820=CARTESIAN_POINT('',(17.787542749,-3.749683519,10.419688972));
#821=CARTESIAN_POINT('',(19.395571036,-2.999675268,2.498792598));
#822=CARTESIAN_POINT('',(19.395370083,-2.999675268,2.503809273));
#823=CARTESIAN_POINT('',(19.393118073,-2.99967527,2.559637923));
#824=CARTESIAN_POINT('',(19.388487583,-2.999675269,2.666172167));
#825=CARTESIAN_POINT('',(19.373544676,-2.999675269,2.970187348));
#826=CARTESIAN_POINT('',(19.344766021,-2.999675269,3.424142235));
#827=CARTESIAN_POINT('',(19.293052151,-2.999675269,4.025080231));
#828=CARTESIAN_POINT('',(19.228227089,-2.999675269,4.621758144));
#829=CARTESIAN_POINT('',(19.150517944,-2.999675269,5.214249765));
#830=CARTESIAN_POINT('',(19.060148095,-2.999675269,5.802627672));
#831=CARTESIAN_POINT('',(18.95733697,-2.999675269,6.386963165));
#832=CARTESIAN_POINT('',(18.842300337,-2.999675269,6.967326349));
#833=CARTESIAN_POINT('',(18.715249977,-2.999675269,7.543786036));
#834=CARTESIAN_POINT('',(18.576394232,-2.999675269,8.116409921));
#835=CARTESIAN_POINT('',(18.451013353,-2.999675269,8.590455247));
#836=CARTESIAN_POINT('',(18.34500865,-2.999675269,8.967839466));
#837=CARTESIAN_POINT('',(18.180349923,-2.999675269,9.532079454));
#838=CARTESIAN_POINT('',(18.022920693,-2.999675269,10.025254649));
#839=CARTESIAN_POINT('',(17.886982811,-2.999675269,10.422455997));
#840=CARTESIAN_POINT('',(17.877846811,-2.999675269,10.449030541));
#841=CARTESIAN_POINT('',(19.466012834,-2.249667018,2.521680526));
#842=CARTESIAN_POINT('',(19.465811323,-2.249667018,2.526697019));
#843=CARTESIAN_POINT('',(19.463553113,-2.249667021,2.582523655));
#844=CARTESIAN_POINT('',(19.458910913,-2.249667019,2.689054094));
#845=CARTESIAN_POINT('',(19.443935515,-2.249667019,2.993058718));
#846=CARTESIAN_POINT('',(19.415111569,-2.249667019,3.446998889));
#847=CARTESIAN_POINT('',(19.363344677,-2.249667019,4.047919657));
#848=CARTESIAN_POINT('',(19.298473855,-2.249667019,4.644582702));
#849=CARTESIAN_POINT('',(19.220726236,-2.249667019,5.237061821));
#850=CARTESIAN_POINT('',(19.130325094,-2.249667019,5.825429561));
#851=CARTESIAN_POINT('',(19.027489887,-2.249667019,6.409757229));
#852=CARTESIAN_POINT('',(18.912436289,-2.249667019,6.990114901));
#853=CARTESIAN_POINT('',(18.785376179,-2.249667019,7.566571421));
#854=CARTESIAN_POINT('',(18.646517742,-2.249667019,8.139194431));
#855=CARTESIAN_POINT('',(18.521140621,-2.249667019,8.613240978));
#856=CARTESIAN_POINT('',(18.415142444,-2.249667019,8.990627317));
#857=CARTESIAN_POINT('',(18.250497111,-2.249667019,9.554871657));
#858=CARTESIAN_POINT('',(18.093087596,-2.249667019,10.048053257));
#859=CARTESIAN_POINT('',(17.95717117,-2.249667019,10.445261577));
#860=CARTESIAN_POINT('',(17.948036631,-2.249667019,10.471836595));
#861=CARTESIAN_POINT('',(19.516303172,-1.499658768,2.538020848));
#862=CARTESIAN_POINT('',(19.516101262,-1.499658768,2.543037211));
#863=CARTESIAN_POINT('',(19.513838614,-1.499658771,2.598862405));
#864=CARTESIAN_POINT('',(19.509188082,-1.499658769,2.705390137));
#865=CARTESIAN_POINT('',(19.494189502,-1.499658769,3.009387228));
#866=CARTESIAN_POINT('',(19.465333265,-1.499658769,3.463316907));
#867=CARTESIAN_POINT('',(19.413528543,-1.499658769,4.064225384));
#868=CARTESIAN_POINT('',(19.348625108,-1.499658769,4.660877832));
#869=CARTESIAN_POINT('',(19.270850026,-1.499658769,5.253348027));
#870=CARTESIAN_POINT('',(19.180426582,-1.499658769,5.841708522));
#871=CARTESIAN_POINT('',(19.077574179,-1.499658769,6.426030603));
#872=CARTESIAN_POINT('',(18.962508522,-1.499658769,7.006384355));
#873=CARTESIAN_POINT('',(18.835441401,-1.499658769,7.582838597));
#874=CARTESIAN_POINT('',(18.696581092,-1.499658769,8.155460999));
#875=CARTESIAN_POINT('',(18.571206618,-1.499658769,8.629508407));
#876=CARTESIAN_POINT('',(18.465213128,-1.499658769,9.006896269));
#877=CARTESIAN_POINT('',(18.300577358,-1.499658769,9.571143716));
#878=CARTESIAN_POINT('',(18.143181864,-1.499658769,10.064329872));
#879=CARTESIAN_POINT('',(18.007280749,-1.499658769,10.461543167));
#880=CARTESIAN_POINT('',(17.998147251,-1.499658769,10.488118523));
#881=CARTESIAN_POINT('',(19.546467291,-0.749650518,2.547821763));
#882=CARTESIAN_POINT('',(19.546265142,-0.749650518,2.55283805));
#883=CARTESIAN_POINT('',(19.543999845,-0.749650521,2.608662383));
#884=CARTESIAN_POINT('',(19.539344306,-0.749650518,2.715188488));
#885=CARTESIAN_POINT('',(19.524331837,-0.749650519,3.019181066));
#886=CARTESIAN_POINT('',(19.49545624,-0.749650519,3.473104455));
#887=CARTESIAN_POINT('',(19.443628851,-0.749650519,4.074005567));
#888=CARTESIAN_POINT('',(19.378705856,-0.749650519,4.670651659));
#889=CARTESIAN_POINT('',(19.300914326,-0.749650519,5.26311651));
#890=CARTESIAN_POINT('',(19.210477502,-0.749650519,5.851472658));
#891=CARTESIAN_POINT('',(19.10761481,-0.749650519,6.435791395));
#892=CARTESIAN_POINT('',(18.99254189,-0.749650519,7.016142788));
#893=CARTESIAN_POINT('',(18.865470614,-0.749650519,7.59259568));
#894=CARTESIAN_POINT('',(18.726609146,-0.749650519,8.165217705));
#895=CARTESIAN_POINT('',(18.601236281,-0.749650519,8.639265636));
#896=CARTESIAN_POINT('',(18.495245582,-0.749650519,9.016654405));
#897=CARTESIAN_POINT('',(18.330615541,-0.749650519,9.580903713));
#898=CARTESIAN_POINT('',(18.173228468,-0.749650519,10.074092605));
#899=CARTESIAN_POINT('',(18.037336526,-0.749650519,10.471308881));
#900=CARTESIAN_POINT('',(18.028203653,-0.749650519,10.49788444));
#901=CARTESIAN_POINT('',(19.556520321,0.000357732,2.551088191));
#902=CARTESIAN_POINT('',(19.556318092,0.000357732,2.556104451));
#903=CARTESIAN_POINT('',(19.554051903,0.00035773,2.611928494));
#904=CARTESIAN_POINT('',(19.549394706,0.000357732,2.718454061));
#905=CARTESIAN_POINT('',(19.534377605,0.000357731,3.022445134));
#906=CARTESIAN_POINT('',(19.505495562,0.000357731,3.476366429));
#907=CARTESIAN_POINT('',(19.453660617,0.000357731,4.077265085));
#908=CARTESIAN_POINT('',(19.388731112,0.000357731,4.673909063));
#909=CARTESIAN_POINT('',(19.310934092,0.000357731,5.26637213));
#910=CARTESIAN_POINT('',(19.220492824,0.000357731,5.854726833));
#911=CARTESIAN_POINT('',(19.117626681,0.000357731,6.439044449));
#912=CARTESIAN_POINT('',(19.002551388,0.000357731,7.019395071));
#913=CARTESIAN_POINT('',(18.875478665,0.000357731,7.595847493));
#914=CARTESIAN_POINT('',(18.736616858,0.000357731,8.168469408));
#915=CARTESIAN_POINT('',(18.611244502,0.000357731,8.642517504));
#916=CARTESIAN_POINT('',(18.50525475,0.000357731,9.01990658));
#917=CARTESIAN_POINT('',(18.340626615,0.000357731,9.584156508));
#918=CARTESIAN_POINT('',(18.183242342,0.000357731,10.07734631));
#919=CARTESIAN_POINT('',(18.047353458,0.000357731,10.474563579));
#920=CARTESIAN_POINT('',(18.038220793,0.000357731,10.501139206));
#921=CARTESIAN_POINT('',(19.546467289,0.750365983,2.547821763));
#922=CARTESIAN_POINT('',(19.546265141,0.750365982,2.55283805));
#923=CARTESIAN_POINT('',(19.543999852,0.750365978,2.608662386));
#924=CARTESIAN_POINT('',(19.539344305,0.750365982,2.715188487));
#925=CARTESIAN_POINT('',(19.524331838,0.75036598,3.019181067));
#926=CARTESIAN_POINT('',(19.495456239,0.750365981,3.473104455));
#927=CARTESIAN_POINT('',(19.443628851,0.750365981,4.074005567));
#928=CARTESIAN_POINT('',(19.378705855,0.750365981,4.670651659));
#929=CARTESIAN_POINT('',(19.300914327,0.750365981,5.263116511));
#930=CARTESIAN_POINT('',(19.2104775,0.750365981,5.851472657));
#931=CARTESIAN_POINT('',(19.107614813,0.750365981,6.435791395));
#932=CARTESIAN_POINT('',(18.992541883,0.750365981,7.016142786));
#933=CARTESIAN_POINT('',(18.86547063,0.750365981,7.592595685));
#934=CARTESIAN_POINT('',(18.726609137,0.750365981,8.165217703));
#935=CARTESIAN_POINT('',(18.601236283,0.750365981,8.639265636));
#936=CARTESIAN_POINT('',(18.495245581,0.750365981,9.016654404));
#937=CARTESIAN_POINT('',(18.330615542,0.750365981,9.580903713));
#938=CARTESIAN_POINT('',(18.173228468,0.750365981,10.074092605));
#939=CARTESIAN_POINT('',(18.037336527,0.750365981,10.471308881));
#940=CARTESIAN_POINT('',(18.028203654,0.750365981,10.497884441));
#941=CARTESIAN_POINT('',(19.516303174,1.500374232,2.538020848));
#942=CARTESIAN_POINT('',(19.516101263,1.500374232,2.543037212));
#943=CARTESIAN_POINT('',(19.513838611,1.50037423,2.598862404));
#944=CARTESIAN_POINT('',(19.509188083,1.500374231,2.705390137));
#945=CARTESIAN_POINT('',(19.494189501,1.500374231,3.009387228));
#946=CARTESIAN_POINT('',(19.465333265,1.500374231,3.463316907));
#947=CARTESIAN_POINT('',(19.413528543,1.500374231,4.064225384));
#948=CARTESIAN_POINT('',(19.348625108,1.500374231,4.660877832));
#949=CARTESIAN_POINT('',(19.270850026,1.500374231,5.253348027));
#950=CARTESIAN_POINT('',(19.180426583,1.500374231,5.841708522));
#951=CARTESIAN_POINT('',(19.077574178,1.500374231,6.426030601));
#952=CARTESIAN_POINT('',(18.962508527,1.500374231,7.006384357));
#953=CARTESIAN_POINT('',(18.83544139,1.500374231,7.582838594));
#954=CARTESIAN_POINT('',(18.696581099,1.500374231,8.155461002));
#955=CARTESIAN_POINT('',(18.571206615,1.500374231,8.629508406));
#956=CARTESIAN_POINT('',(18.465213129,1.500374231,9.006896269));
#957=CARTESIAN_POINT('',(18.300577357,1.500374231,9.571143715));
#958=CARTESIAN_POINT('',(18.143181865,1.500374231,10.064329872));
#959=CARTESIAN_POINT('',(18.007280749,1.500374231,10.461543167));
#960=CARTESIAN_POINT('',(17.998147252,1.500374231,10.488118523));
#961=CARTESIAN_POINT('',(19.466012826,2.250382484,2.521680523));
#962=CARTESIAN_POINT('',(19.465811318,2.250382483,2.526697017));
#963=CARTESIAN_POINT('',(19.463553137,2.250382474,2.582523664));
#964=CARTESIAN_POINT('',(19.458910907,2.250382483,2.689054092));
#965=CARTESIAN_POINT('',(19.443935519,2.25038248,2.993058719));
#966=CARTESIAN_POINT('',(19.415111567,2.250382482,3.446998889));
#967=CARTESIAN_POINT('',(19.363344678,2.250382481,4.047919658));
#968=CARTESIAN_POINT('',(19.298473853,2.250382481,4.644582701));
#969=CARTESIAN_POINT('',(19.220726237,2.250382481,5.237061821));
#970=CARTESIAN_POINT('',(19.130325091,2.250382481,5.82542956));
#971=CARTESIAN_POINT('',(19.027489891,2.250382481,6.40975723));
#972=CARTESIAN_POINT('',(18.912436282,2.250382481,6.990114898));
#973=CARTESIAN_POINT('',(18.785376197,2.250382481,7.566571427));
#974=CARTESIAN_POINT('',(18.646517731,2.250382481,8.139194427));
#975=CARTESIAN_POINT('',(18.521140625,2.250382481,8.61324098));
#976=CARTESIAN_POINT('',(18.415142443,2.250382481,8.990627317));
#977=CARTESIAN_POINT('',(18.250497113,2.250382481,9.554871658));
#978=CARTESIAN_POINT('',(18.093087596,2.250382481,10.048053257));
#979=CARTESIAN_POINT('',(17.95717117,2.250382481,10.445261578));
#980=CARTESIAN_POINT('',(17.94803663,2.250382481,10.471836596));
#981=CARTESIAN_POINT('',(19.395571043,3.00039073,2.498792601));
#982=CARTESIAN_POINT('',(19.395370088,3.000390731,2.503809275));
#983=CARTESIAN_POINT('',(19.393118053,3.000390735,2.559637916));
#984=CARTESIAN_POINT('',(19.388487588,3.00039073,2.666172169));
#985=CARTESIAN_POINT('',(19.373544674,3.000390731,2.970187347));
#986=CARTESIAN_POINT('',(19.344766023,3.000390731,3.424142236));
#987=CARTESIAN_POINT('',(19.29305215,3.000390731,4.025080231));
#988=CARTESIAN_POINT('',(19.228227089,3.000390731,4.621758144));
#989=CARTESIAN_POINT('',(19.150517944,3.000390731,5.214249764));
#990=CARTESIAN_POINT('',(19.060148096,3.000390731,5.802627673));
#991=CARTESIAN_POINT('',(18.957336969,3.000390731,6.386963164));
#992=CARTESIAN_POINT('',(18.842300338,3.000390731,6.967326349));
#993=CARTESIAN_POINT('',(18.715249974,3.000390731,7.543786036));
#994=CARTESIAN_POINT('',(18.576394238,3.000390731,8.116409923));
#995=CARTESIAN_POINT('',(18.451013351,3.000390731,8.590455247));
#996=CARTESIAN_POINT('',(18.345008651,3.000390731,8.967839467));
#997=CARTESIAN_POINT('',(18.180349923,3.000390731,9.532079454));
#998=CARTESIAN_POINT('',(18.022920693,3.000390731,10.025254649));
#999=CARTESIAN_POINT('',(17.886982811,3.000390731,10.422455997));
#1000=CARTESIAN_POINT('',(17.87784681,3.000390731,10.449030541));
#1001=CARTESIAN_POINT('',(19.304942302,3.750398987,2.469345536));
#1002=CARTESIAN_POINT('',(19.304742079,3.750398985,2.474362449));
#1003=CARTESIAN_POINT('',(19.302498175,3.750398964,2.530193739));
#1004=CARTESIAN_POINT('',(19.297882643,3.750398986,2.636732836));
#1005=CARTESIAN_POINT('',(19.282981646,3.750398978,2.940761637));
#1006=CARTESIAN_POINT('',(19.254261306,3.750398982,3.39473547));
#1007=CARTESIAN_POINT('',(19.202615779,3.75039898,3.995695674));
#1008=CARTESIAN_POINT('',(19.137849625,3.750398981,4.592392726));
#1009=CARTESIAN_POINT('',(19.060190094,3.750398981,5.184900466));
#1010=CARTESIAN_POINT('',(18.96986053,3.750398981,5.773291464));
#1011=CARTESIAN_POINT('',(18.867080466,3.750398981,6.357637048));
#1012=CARTESIAN_POINT('',(18.752065625,3.750398981,6.938007313));
#1013=CARTESIAN_POINT('',(18.625027921,3.750398981,7.514471112));
#1014=CARTESIAN_POINT('',(18.486175557,3.750398981,8.087096097));
#1015=CARTESIAN_POINT('',(18.360789902,3.750398981,8.561139871));
#1016=CARTESIAN_POINT('',(18.254776727,3.750398981,8.938521337));
#1017=CARTESIAN_POINT('',(18.090100726,3.750398981,9.502755712));
#1018=CARTESIAN_POINT('',(17.932646174,3.750398981,9.995922679));
#1019=CARTESIAN_POINT('',(17.796680633,3.750398981,10.393115041));
#1020=CARTESIAN_POINT('',(17.787542749,3.750398981,10.419688972));
#1021=CARTESIAN_POINT('',(19.19408104,4.500407223,2.433324532));
#1022=CARTESIAN_POINT('',(19.193881677,4.500407226,2.438341723));
#1023=CARTESIAN_POINT('',(19.191647353,4.500407254,2.494176114));
#1024=CARTESIAN_POINT('',(19.187050523,4.500407224,2.600721301));
#1025=CARTESIAN_POINT('',(19.172200752,4.500407234,2.90476674));
#1026=CARTESIAN_POINT('',(19.14355194,4.500407229,3.358763817));
#1027=CARTESIAN_POINT('',(19.091990109,4.500407232,3.959751214));
#1028=CARTESIAN_POINT('',(19.027296185,4.500407231,4.556471736));
#1029=CARTESIAN_POINT('',(18.949697405,4.500407231,5.148999215));
#1030=CARTESIAN_POINT('',(18.859417231,4.500407231,5.737406261));
#1031=CARTESIAN_POINT('',(18.756675197,4.500407231,6.321764202));
#1032=CARTESIAN_POINT('',(18.641687108,4.500407231,6.902143159));
#1033=CARTESIAN_POINT('',(18.514664837,4.500407231,7.478611973));
#1034=CARTESIAN_POINT('',(18.375816693,4.500407231,8.051238328));
#1035=CARTESIAN_POINT('',(18.250425126,4.500407231,8.525280182));
#1036=CARTESIAN_POINT('',(18.144401622,4.500407231,8.902658292));
#1037=CARTESIAN_POINT('',(17.979704466,4.500407231,9.466885793));
#1038=CARTESIAN_POINT('',(17.822218828,4.500407231,9.96004266));
#1039=CARTESIAN_POINT('',(17.686219408,4.500407231,10.357224013));
#1040=CARTESIAN_POINT('',(17.677079218,4.500407231,10.383797195));
#1041=CARTESIAN_POINT('',(19.097926108,5.050288048,2.402081895));
#1042=CARTESIAN_POINT('',(19.09772755,5.050288042,2.407099349));
#1043=CARTESIAN_POINT('',(19.09550215,5.050287985,2.46293666));
#1044=CARTESIAN_POINT('',(19.090920946,5.050288046,2.569486902));
#1045=CARTESIAN_POINT('',(19.076115906,5.050288025,2.873546884));
#1046=CARTESIAN_POINT('',(19.047529153,5.050288036,3.327564121));
#1047=CARTESIAN_POINT('',(18.996040127,5.05028803,3.928575176));
#1048=CARTESIAN_POINT('',(18.93140894,5.050288033,4.525316081));
#1049=CARTESIAN_POINT('',(18.853862988,5.050288031,5.117860727));
#1050=CARTESIAN_POINT('',(18.763625723,5.050288032,5.706281713));
#1051=CARTESIAN_POINT('',(18.660916758,5.050288032,6.2906504));
#1052=CARTESIAN_POINT('',(18.545951896,5.050288032,6.871036903));
#1053=CARTESIAN_POINT('',(18.418943074,5.050288032,7.447510087));
#1054=CARTESIAN_POINT('',(18.280098557,5.050288032,8.020137621));
#1055=CARTESIAN_POINT('',(18.154701883,5.050288032,8.494177815));
#1056=CARTESIAN_POINT('',(18.048669379,5.050288032,8.871553));
#1057=CARTESIAN_POINT('',(17.883953832,5.050288032,9.435774526));
#1058=CARTESIAN_POINT('',(17.726441201,5.050288032,9.928922622));
#1059=CARTESIAN_POINT('',(17.590412332,5.050288032,10.326094407));
#1060=CARTESIAN_POINT('',(17.581270136,5.050288032,10.352666938));
#1061=CARTESIAN_POINT('',(19.04060689,5.350166075,2.383457758));
#1062=CARTESIAN_POINT('',(19.040408749,5.350166078,2.388475346));
#1063=CARTESIAN_POINT('',(19.038188016,5.35016611,2.444314152));
#1064=CARTESIAN_POINT('',(19.033616836,5.350166075,2.550867674));
#1065=CARTESIAN_POINT('',(19.018838272,5.350166088,2.85493625));
#1066=CARTESIAN_POINT('',(18.990288688,5.350166082,3.308965568));
#1067=CARTESIAN_POINT('',(18.938843065,5.350166085,3.909990723));
#1068=CARTESIAN_POINT('',(18.874249368,5.350166083,4.506743811));
#1069=CARTESIAN_POINT('',(18.796734935,5.350166084,5.099298696));
#1070=CARTESIAN_POINT('',(18.706523299,5.350166084,5.687728011));
#1071=CARTESIAN_POINT('',(18.603834068,5.350166084,6.272103109));
#1072=CARTESIAN_POINT('',(18.488883084,5.350166084,6.852494122));
#1073=CARTESIAN_POINT('',(18.361882276,5.350166084,7.42896991));
#1074=CARTESIAN_POINT('',(18.223039941,5.350166084,8.001598152));
#1075=CARTESIAN_POINT('',(18.097640206,5.350166084,8.475637352));
#1076=CARTESIAN_POINT('',(17.991602337,5.350166084,8.853010794));
#1077=CARTESIAN_POINT('',(17.826875812,5.350166084,9.417228753));
#1078=CARTESIAN_POINT('',(17.669347056,5.350166084,9.91037161));
#1079=CARTESIAN_POINT('',(17.533300606,5.350166084,10.307537683));
#1080=CARTESIAN_POINT('',(17.524157214,5.350166084,10.334109824));
#1081=CARTESIAN_POINT('',(19.030938495,5.400041373,2.380316306));
#1082=CARTESIAN_POINT('',(19.03074043,5.400041376,2.385333919));
#1083=CARTESIAN_POINT('',(19.028520536,5.400041413,2.441172996));
#1084=CARTESIAN_POINT('',(19.023950993,5.400041374,2.547727052));
#1085=CARTESIAN_POINT('',(19.009176914,5.400041388,2.851797084));
#1086=CARTESIAN_POINT('',(18.980633592,5.400041381,3.305828438));
#1087=CARTESIAN_POINT('',(18.929195296,5.400041385,3.906855973));
#1088=CARTESIAN_POINT('',(18.864607922,5.400041383,4.503611115));
#1089=CARTESIAN_POINT('',(18.787098809,5.400041383,5.096167729));
#1090=CARTESIAN_POINT('',(18.696891496,5.400041383,5.684598448));
#1091=CARTESIAN_POINT('',(18.594205595,5.400041384,6.268974628));
#1092=CARTESIAN_POINT('',(18.479256952,5.400041383,6.849366402));
#1093=CARTESIAN_POINT('',(18.352257497,5.400041384,7.42584263));
#1094=CARTESIAN_POINT('',(18.213415529,5.400041384,7.998470991));
#1095=CARTESIAN_POINT('',(18.088015278,5.400041384,8.472510023));
#1096=CARTESIAN_POINT('',(17.981976503,5.400041384,8.849883171));
#1097=CARTESIAN_POINT('',(17.817248127,5.400041384,9.414100529));
#1098=CARTESIAN_POINT('',(17.65971665,5.400041384,9.907242501));
#1099=CARTESIAN_POINT('',(17.523667234,5.400041384,10.30440761));
#1100=CARTESIAN_POINT('',(17.51452364,5.400041384,10.330979686));
#1101=B_SPLINE_SURFACE_WITH_KNOTS('',3,3,((#721,#722,#723,#724,#725,#726,#727,#728,#729,#730,#731,#732,#733,#734,#735,#736,#737,#738,#739,#740),(#741,#742,#743,#744,#745,#746,#747,#748,#749,#750,#751,#752,#753,#754,#755,#756,#757,#758,#759,#760),(#761,#762,#763,#764,#765,#766,#767,#768,#769,#770,#771,#772,#773,#774,#775,#776,#777,#778,#779,#780),(#781,#782,#783,#784,#785,#786,#787,#788,#789,#790,#791,#792,#793,#794,#795,#796,#797,#798,#799,#800),(#801,#802,#803,#804,#805,#806,#807,#808,#809,#810,#811,#812,#813,#814,#815,#816,#817,#818,#819,#820),(#821,#822,#823,#824,#825,#826,#827,#828,#829,#830,#831,#832,#833,#834,#835,#836,#837,#838,#839,#840),(#841,#842,#843,#844,#845,#846,#847,#848,#849,#850,#851,#852,#853,#854,#855,#856,#857,#858,#859,#860),(#861,#862,#863,#864,#865,#866,#867,#868,#869,#870,#871,#872,#873,#874,#875,#876,#877,#878,#879,#880),(#881,#882,#883,#884,#885,#886,#887,#888,#889,#890,#891,#892,#893,#894,#895,#896,#897,#898,#899,#900),(#901,#902,#903,#904,#905,#906,#907,#908,#909,#910,#911,#912,#913,#914,#915,#916,#917,#918,#919,#920),(#921,#922,#923,#924,#925,#926,#927,#928,#929,#930,#931,#932,#933,#934,#935,#936,#937,#938,#939,#940),(#941,#942,#943,#944,#945,#946,#947,#948,#949,#950,#951,#952,#953,#954,#955,#956,#957,#958,#959,#960),(#961,#962,#963,#964,#965,#966,#967,#968,#969,#970,#971,#972,#973,#974,#975,#976,#977,#978,#979,#980),(#981,#982,#983,#984,#985,#986,#987,#988,#989,#990,#991,#992,#993,#994,#995,#996,#997,#998,#999,#1000),(#1001,#1002,#1003,#1004,#1005,#1006,#1007,#1008,#1009,#1010,#1011,#1012,#1013,#1014,#1015,#1016,#1017,#1018,#1019,#1020),(#1021,#1022,#1023,#1024,#1025,#1026,#1027,#1028,#1029,#1030,#1031,#1032,#1033,#1034,#1035,#1036,#1037,#1038,#1039,#1040),(#1041,#1042,#1043,#1044,#1045,#1046,#1047,#1048,#1049,#1050,#1051,#1052,#1053,#1054,#1055,#1056,#1057,#1058,#1059,#1060),(#1061,#1062,#1063,#1064,#1065,#1066,#1067,#1068,#1069,#1070,#1071,#1072,#1073,#1074,#1075,#1076,#1077,#1078,#1079,#1080),(#1081,#1082,#1083,#1084,#1085,#1086,#1087,#1088,#1089,#1090,#1091,#1092,#1093,#1094,#1095,#1096,#1097,#1098,#1099,#1100)),.UNSPECIFIED.,.F.,.F.,.U.,(4,1,1,1,1,1,1,1,1,1,1,1,1,1,1,1,4),(4,1,1,1,1,1,1,1,1,1,1,1,1,1,1,1,1,4),(0.049971216,0.062499563,0.124999625,0.187499688,0.24999975,0.312499812,0.374999875,0.437499937,0.5,0.562500062,0.625000125,0.687500187,0.75000025,0.812500312,0.875000375,0.937500438,0.949969138),(0.029707023,0.031249531,0.046874547,0.062499563,0.124999625,0.187499688,0.24999975,0.312499812,0.374999875,0.437499937,0.5,0.562500062,0.625000125,0.687500187,0.718750219,0.75000025,0.875000375,0.883967436),.UNSPECIFIED.);
#1102=ORIENTED_EDGE('',*,*,#572,.F.);
#1103=ORIENTED_EDGE('',*,*,#715,.T.);
#1104=ORIENTED_EDGE('',*,*,#670,.F.);
#1105=ORIENTED_EDGE('',*,*,#698,.T.);
#1106=ORIENTED_EDGE('',*,*,#516,.F.);
#1107=ORIENTED_EDGE('',*,*,#540,.T.);
#1108=ORIENTED_EDGE('',*,*,#469,.F.);
#1109=ORIENTED_EDGE('',*,*,#628,.F.);
#1110=EDGE_LOOP('',(#1102,#1103,#1104,#1105,#1106,#1107,#1108,#1109));
#1111=FACE_BOUND('',#1110,.T.);
#1112=ADVANCED_FACE('',(#1111),#1101,.F.);
#1113=CLOSED_SHELL('',(#442,#480,#527,#545,#583,#634,#681,#702,#720,#1112));
#1114=MANIFOLD_SOLID_BREP('\X2\5DF25BFC5165\X0\ 01',#1113);
#1115=COLOUR_RGB('',1.,0.964705884,0.960784316);
#1116=FILL_AREA_STYLE_COLOUR('',#1115);
#1117=FILL_AREA_STYLE('',(#1116));
#1118=SURFACE_STYLE_FILL_AREA(#1117);
#1119=SURFACE_SIDE_STYLE('',(#1118));
#1120=SURFACE_STYLE_USAGE(.BOTH.,#1119);
#1121=PRESENTATION_STYLE_ASSIGNMENT((#1120));
#54=STYLED_ITEM('',(#1121),#1114);
#35=SHAPE_REPRESENTATION('surfaces 3,4',(#15),#33);
#36=ADVANCED_BREP_SHAPE_REPRESENTATION('surfaces 3,4',(#1114),#33);
#1129=SHAPE_REPRESENTATION_RELATIONSHIP('','',#35,#36);
#1130=CARTESIAN_POINT('',(0.,0.,0.));
#1131=DIRECTION('',(0.,0.,1.));
#1132=DIRECTION('',(1.,0.,0.));
#1133=AXIS2_PLACEMENT_3D('',#1130,#1131,#1132);
#1135=MAPPED_ITEM('',#1134,#1133);
#1134=REPRESENTATION_MAP(#1133,#35);
#1136=APPLICATION_CONTEXT('Managed model based 3d engineering');
#1137=APPLICATION_PROTOCOL_DEFINITION('international standard','ap242_managed_model_based_3d_engineering',2014,#1136);
#1138=PRODUCT_CONTEXT('',#1136,'mechanical');
#1139=PRODUCT_DEFINITION_CONTEXT('part definition',#1136,'design');
#43=PRODUCT('surfaces 3,4','surfaces 3,4','',(#1138));
#1140=PRODUCT_RELATED_PRODUCT_CATEGORY('part','',(#43));
#1141=PRODUCT_DEFINITION_FORMATION_WITH_SPECIFIED_SOURCE('','',#43,.NOT_KNOWN.);
#44=PRODUCT_DEFINITION('design','',#1141,#1139);
#42=PRODUCT_DEFINITION_SHAPE('','',#44);
#1142=SHAPE_DEFINITION_REPRESENTATION(#42,#35);
#34=DRAUGHTING_MODEL('',(#1135),#33);
#16=SHAPE_REPRESENTATION('RMR_V1_C_1.585_30',(#15,#48),#10);
#1143=CARTESIAN_POINT('',(0.,0.,0.));
#1144=DIRECTION('',(0.,0.,1.));
#1145=DIRECTION('',(1.,0.,0.));
#1146=AXIS2_PLACEMENT_3D('',#1143,#1144,#1145);
#1148=MAPPED_ITEM('',#1147,#1146);
#1147=REPRESENTATION_MAP(#1146,#16);
#24=PRODUCT('RMR_V1_C_1.585_30','RMR_V1_C_1.585_30','',(#1138));
#1149=PRODUCT_RELATED_PRODUCT_CATEGORY('part','',(#24));
#1150=PRODUCT_DEFINITION_FORMATION_WITH_SPECIFIED_SOURCE('','',#24,.NOT_KNOWN.);
#25=PRODUCT_DEFINITION('design','',#1150,#1139);
#23=PRODUCT_DEFINITION_SHAPE('','',#25);
#1151=SHAPE_DEFINITION_REPRESENTATION(#23,#16);
#11=DRAUGHTING_MODEL('',(#1148),#10);
#1152=DESCRIPTIVE_REPRESENTATION_ITEM('KEY','C:\\Users\\Nalani\\AppData\\Local\\Packages\\Shapr3D.Shapr3D_j403pzjkqtqbj\\TempState\\a8eafdad-508c-4fe5-9e8d-120240f9cf53.tmp');
#1153=PROPERTY_DEFINITION('KEY','',#25);
#1154=REPRESENTATION('',(#1152),#10);
#1155=PROPERTY_DEFINITION_REPRESENTATION(#1153,#1154);
#1156=GENERAL_PROPERTY('','KEY','');
#1157=GENERAL_PROPERTY_ASSOCIATION('','',#1156,#1153);
#1=MECHANICAL_DESIGN_GEOMETRIC_PRESENTATION_REPRESENTATION('',(#54),#10);
ENDSEC;
END-ISO-10303-21;
