ISO-10303-21;
HEADER;

/* File generated by Shapr3D Version 26.123.11423.0 */

FILE_DESCRIPTION(('HOOPS Exchange Step'),'2;1');

FILE_NAME('C:\\Users\\Nalani\\AppData\\Local\\Packages\\Shapr3D.Shapr3D_j403pzjkqtqbj\\TempState\\export\\temp_export',
'2026-08-03T16:12:06+08:00',
('Nalani'),
('Shapr3D Limited'),
'HOOPS Exchange 2026.3',
'Shapr3D',
'Authorized');

FILE_SCHEMA( ('AP242_MANAGED_MODEL_BASED_3D_ENGINEERING_MIM_LF {1 0 10303 442 1 1 4}') );

ENDSEC;

DATA;
#3=(NAMED_UNIT(*)PLANE_ANGLE_UNIT()SI_UNIT($,.RADIAN.));
#4=PLANE_ANGLE_MEASURE_WITH_UNIT(PLANE_ANGLE_MEASURE(0.0174532925),#3);
#5=(CONVERSION_BASED_UNIT('DEGREE',#4)NAMED_UNIT(#6)PLANE_ANGLE_UNIT());
#6=DIMENSIONAL_EXPONENTS(0.,0.,0.,0.,0.,0.,0.);
#7=(NAMED_UNIT(*)SI_UNIT($,.STERADIAN.)SOLID_ANGLE_UNIT());
#8=(LENGTH_UNIT()NAMED_UNIT(*)SI_UNIT(.MILLI.,.METRE.));
#9=UNCERTAINTY_MEASURE_WITH_UNIT(LENGTH_MEASURE(1.000000E-05),#8,'DISTANCE_ACCURACY_VALUE','Maximum Tolerance applied to model');
#10=(GEOMETRIC_REPRESENTATION_CONTEXT(3)GLOBAL_UNCERTAINTY_ASSIGNED_CONTEXT((#9))GLOBAL_UNIT_ASSIGNED_CONTEXT((#8,#5,#7))REPRESENTATION_CONTEXT('','\X2\4E3B52D5593E81C2\X0\ (\X2\504F7F6E\X0\ \X2\65E05B9E4F5387BA7EB9\X0\)'));
#12=CARTESIAN_POINT('',(0.,0.,0.));
#13=DIRECTION('',(0.,0.,1.));
#14=DIRECTION('',(1.,0.,0.));
#15=AXIS2_PLACEMENT_3D('',#12,#13,#14);
#27=CARTESIAN_POINT('',(0.835632626,-15.170868203,1.983086478));
#28=DIRECTION('',(0.,-1.,0.));
#29=DIRECTION('',(0.,0.,1.));
#30=AXIS2_PLACEMENT_3D('',#27,#28,#29);
#31=CYLINDRICAL_SURFACE('',#30,0.625);
#32=CARTESIAN_POINT('',(0.835632626,-17.060868203,2.608086478));
#33=VERTEX_POINT('',#32);
#34=CARTESIAN_POINT('',(0.835632626,-15.400912632,2.608086478));
#35=VERTEX_POINT('',#34);
#36=CARTESIAN_POINT('',(0.835632626,-17.060868203,2.608086478));
#37=DIRECTION('',(-0.,1.,-0.));
#38=VECTOR('',#37,1.659955571);
#39=LINE('',#36,#38);
#40=EDGE_CURVE('',#33,#35,#39,.T.);
#41=ORIENTED_EDGE('',*,*,#40,.F.);
#42=CARTESIAN_POINT('',(1.446186598,-17.060868203,2.116686055));
#43=VERTEX_POINT('',#42);
#44=CARTESIAN_POINT('',(0.835632626,-17.060868203,1.983086478));
#45=DIRECTION('',(0.,-1.,0.));
#46=DIRECTION('',(0.,-0.,-1.));
#47=AXIS2_PLACEMENT_3D('',#44,#45,#46);
#48=CIRCLE('',#47,0.625);
#49=EDGE_CURVE('',#33,#43,#48,.T.);
#50=ORIENTED_EDGE('',*,*,#49,.T.);
#51=CARTESIAN_POINT('',(0.835632626,-17.060868203,1.983086478));
#52=DIRECTION('',(0.,-1.,0.));
#53=DIRECTION('',(0.,-0.,-1.));
#54=AXIS2_PLACEMENT_3D('',#51,#52,#53);
#55=CIRCLE('',#54,0.625);
#56=EDGE_CURVE('',#43,#33,#55,.T.);
#57=ORIENTED_EDGE('',*,*,#56,.T.);
#58=ORIENTED_EDGE('',*,*,#40,.T.);
#59=CARTESIAN_POINT('',(1.098896889,-15.400912632,1.416238237));
#60=VERTEX_POINT('',#59);
#61=CARTESIAN_POINT('',(0.835632626,-15.400912632,1.983086478));
#62=DIRECTION('',(0.,-1.,0.));
#63=DIRECTION('',(0.,0.,1.));
#64=AXIS2_PLACEMENT_3D('',#61,#62,#63);
#65=CIRCLE('',#64,0.625);
#66=EDGE_CURVE('',#60,#35,#65,.T.);
#67=ORIENTED_EDGE('',*,*,#66,.F.);
#68=CARTESIAN_POINT('',(1.112171104,-15.404756096,1.42259431));
#69=VERTEX_POINT('',#68);
#70=CARTESIAN_POINT('',(1.098896889,-15.400912632,1.416238237));
#71=CARTESIAN_POINT('',(1.103330093,-15.402223465,1.418297173));
#72=CARTESIAN_POINT('',(1.107754931,-15.403504725,1.420415437));
#73=CARTESIAN_POINT('',(1.112171104,-15.404756096,1.42259431));
#74=B_SPLINE_CURVE_WITH_KNOTS('',3,(#70,#71,#72,#73),.UNSPECIFIED.,.F.,.F.,(4,4),(0.00105183,0.001066899),.UNSPECIFIED.);
#75=EDGE_CURVE('',#60,#69,#74,.T.);
#76=ORIENTED_EDGE('',*,*,#75,.T.);
#77=CARTESIAN_POINT('',(1.072845982,-15.400912642,1.404852249));
#78=VERTEX_POINT('',#77);
#79=CARTESIAN_POINT('',(1.072845982,-15.400912645,1.404852249));
#80=CARTESIAN_POINT('',(1.086160565,-15.402200855,1.41031439));
#81=CARTESIAN_POINT('',(1.099302319,-15.403485021,1.416247482));
#82=CARTESIAN_POINT('',(1.112171108,-15.404756098,1.422594304));
#83=B_SPLINE_CURVE_WITH_KNOTS('',3,(#79,#80,#81,#82),.UNSPECIFIED.,.F.,.F.,(4,4),(0.002063288,0.002106818),.UNSPECIFIED.);
#84=EDGE_CURVE('',#78,#69,#83,.T.);
#85=ORIENTED_EDGE('',*,*,#84,.F.);
#86=CARTESIAN_POINT('',(0.835632626,-15.400912632,1.983086478));
#87=DIRECTION('',(0.,-1.,0.));
#88=DIRECTION('',(0.,0.,1.));
#89=AXIS2_PLACEMENT_3D('',#86,#87,#88);
#90=CIRCLE('',#89,0.625);
#91=EDGE_CURVE('',#35,#78,#90,.T.);
#92=ORIENTED_EDGE('',*,*,#91,.F.);
#93=EDGE_LOOP('',(#41,#50,#57,#58,#67,#76,#85,#92));
#94=FACE_BOUND('',#93,.T.);
#95=ADVANCED_FACE('',(#94),#31,.F.);
#96=CARTESIAN_POINT('',(0.634044517,-17.378258806,-0.11));
#97=DIRECTION('',(0.,-1.,0.));
#98=DIRECTION('',(0.,0.,-1.));
#99=AXIS2_PLACEMENT_3D('',#96,#97,#98);
#100=PLANE('',#99);
#101=CARTESIAN_POINT('',(1.639941789,-17.378258806,2.078934117));
#102=VERTEX_POINT('',#101);
#103=CARTESIAN_POINT('',(0.835632626,-17.378258806,2.793086479));
#104=VERTEX_POINT('',#103);
#105=CARTESIAN_POINT('',(0.835632626,-17.378258806,1.983086479));
#106=DIRECTION('',(-0.,1.,-0.));
#107=DIRECTION('',(0.,0.,-1.));
#108=AXIS2_PLACEMENT_3D('',#105,#106,#107);
#109=CIRCLE('',#108,0.81);
#110=EDGE_CURVE('',#102,#104,#109,.T.);
#111=ORIENTED_EDGE('',*,*,#110,.T.);
#112=CARTESIAN_POINT('',(0.835632626,-17.378258806,1.983086479));
#113=DIRECTION('',(-0.,1.,-0.));
#114=DIRECTION('',(0.,0.,-1.));
#115=AXIS2_PLACEMENT_3D('',#112,#113,#114);
#116=CIRCLE('',#115,0.81);
#117=EDGE_CURVE('',#104,#102,#116,.T.);
#118=ORIENTED_EDGE('',*,*,#117,.T.);
#119=EDGE_LOOP('',(#111,#118));
#120=FACE_BOUND('',#119,.T.);
#121=CARTESIAN_POINT('',(-0.51290672,-17.378258806,0.8));
#122=VERTEX_POINT('',#121);
#123=CARTESIAN_POINT('',(-0.51290672,-17.378258806,3.3));
#124=VERTEX_POINT('',#123);
#125=CARTESIAN_POINT('',(-0.51290672,-17.378258806,0.8));
#126=DIRECTION('',(0.,0.,1.));
#127=VECTOR('',#126,2.5);
#128=LINE('',#125,#127);
#129=EDGE_CURVE('',#122,#124,#128,.T.);
#130=ORIENTED_EDGE('',*,*,#129,.F.);
#131=CARTESIAN_POINT('',(1.688153042,-17.378258806,0.8));
#132=VERTEX_POINT('',#131);
#133=CARTESIAN_POINT('',(-0.51290672,-17.378258806,0.8));
#134=DIRECTION('',(1.,0.,-0.));
#135=VECTOR('',#134,2.201059762);
#136=LINE('',#133,#135);
#137=EDGE_CURVE('',#122,#132,#136,.T.);
#138=ORIENTED_EDGE('',*,*,#137,.T.);
#139=CARTESIAN_POINT('',(2.160995754,-17.378258806,1.272842712));
#140=VERTEX_POINT('',#139);
#141=CARTESIAN_POINT('',(1.688153042,-17.378258806,0.8));
#142=DIRECTION('',(0.707106781,0.,0.707106781));
#143=VECTOR('',#142,0.668700576);
#144=LINE('',#141,#143);
#145=EDGE_CURVE('',#132,#140,#144,.T.);
#146=ORIENTED_EDGE('',*,*,#145,.T.);
#147=CARTESIAN_POINT('',(2.160995754,-17.378258806,3.3));
#148=VERTEX_POINT('',#147);
#149=CARTESIAN_POINT('',(2.160995754,-17.378258806,1.272842712));
#150=DIRECTION('',(0.,0.,1.));
#151=VECTOR('',#150,2.027157288);
#152=LINE('',#149,#151);
#153=EDGE_CURVE('',#140,#148,#152,.T.);
#154=ORIENTED_EDGE('',*,*,#153,.T.);
#155=CARTESIAN_POINT('',(-0.51290672,-17.378258806,3.3));
#156=DIRECTION('',(1.,0.,-0.));
#157=VECTOR('',#156,2.673902474);
#158=LINE('',#155,#157);
#159=EDGE_CURVE('',#124,#148,#158,.T.);
#160=ORIENTED_EDGE('',*,*,#159,.F.);
#161=EDGE_LOOP('',(#130,#138,#146,#154,#160));
#162=FACE_BOUND('',#161,.T.);
#163=ADVANCED_FACE('',(#120,#162),#100,.T.);
#164=CARTESIAN_POINT('',(1.210995754,-13.808426767,-0.11));
#165=DIRECTION('',(0.,1.,0.));
#166=DIRECTION('',(0.,0.,1.));
#167=AXIS2_PLACEMENT_3D('',#164,#165,#166);
#168=PLANE('',#167);
#169=CARTESIAN_POINT('',(1.688153042,-13.808426767,0.8));
#170=VERTEX_POINT('',#169);
#171=CARTESIAN_POINT('',(1.410995754,-13.808426767,0.8));
#172=VERTEX_POINT('',#171);
#173=CARTESIAN_POINT('',(1.688153042,-13.808426767,0.8));
#174=DIRECTION('',(-1.,0.,0.));
#175=VECTOR('',#174,0.277157288);
#176=LINE('',#173,#175);
#177=EDGE_CURVE('',#170,#172,#176,.T.);
#178=ORIENTED_EDGE('',*,*,#177,.T.);
#179=CARTESIAN_POINT('',(1.410995754,-13.808426767,3.3));
#180=VERTEX_POINT('',#179);
#181=CARTESIAN_POINT('',(1.410995754,-13.808426767,0.8));
#182=DIRECTION('',(0.,0.,1.));
#183=VECTOR('',#182,2.5);
#184=LINE('',#181,#183);
#185=EDGE_CURVE('',#172,#180,#184,.T.);
#186=ORIENTED_EDGE('',*,*,#185,.T.);
#187=CARTESIAN_POINT('',(2.160995754,-13.808426767,3.3));
#188=VERTEX_POINT('',#187);
#189=CARTESIAN_POINT('',(2.160995754,-13.808426767,3.3));
#190=DIRECTION('',(-1.,-0.,0.));
#191=VECTOR('',#190,0.75);
#192=LINE('',#189,#191);
#193=EDGE_CURVE('',#188,#180,#192,.T.);
#194=ORIENTED_EDGE('',*,*,#193,.F.);
#195=CARTESIAN_POINT('',(2.160995754,-13.808426767,1.272842712));
#196=VERTEX_POINT('',#195);
#197=CARTESIAN_POINT('',(2.160995754,-13.808426767,1.272842712));
#198=DIRECTION('',(-0.,-0.,1.));
#199=VECTOR('',#198,2.027157288);
#200=LINE('',#197,#199);
#201=EDGE_CURVE('',#196,#188,#200,.T.);
#202=ORIENTED_EDGE('',*,*,#201,.F.);
#203=CARTESIAN_POINT('',(2.160995754,-13.808426767,1.272842712));
#204=DIRECTION('',(-0.707106781,0.,-0.707106781));
#205=VECTOR('',#204,0.668700576);
#206=LINE('',#203,#205);
#207=EDGE_CURVE('',#196,#170,#206,.T.);
#208=ORIENTED_EDGE('',*,*,#207,.T.);
#209=EDGE_LOOP('',(#178,#186,#194,#202,#208));
#210=FACE_BOUND('',#209,.T.);
#211=ADVANCED_FACE('',(#210),#168,.T.);
#212=CARTESIAN_POINT('',(2.160995754,-15.993860864,-0.11));
#213=DIRECTION('',(1.,0.,0.));
#214=DIRECTION('',(0.,0.,-1.));
#215=AXIS2_PLACEMENT_3D('',#212,#213,#214);
#216=PLANE('',#215);
#217=ORIENTED_EDGE('',*,*,#153,.F.);
#218=CARTESIAN_POINT('',(2.160995754,-17.378258806,1.272842712));
#219=DIRECTION('',(0.,1.,0.));
#220=VECTOR('',#219,3.569832039);
#221=LINE('',#218,#220);
#222=EDGE_CURVE('',#140,#196,#221,.T.);
#223=ORIENTED_EDGE('',*,*,#222,.T.);
#224=ORIENTED_EDGE('',*,*,#201,.T.);
#225=CARTESIAN_POINT('',(2.160995754,-17.378258806,3.3));
#226=DIRECTION('',(-0.,1.,-0.));
#227=VECTOR('',#226,3.569832039);
#228=LINE('',#225,#227);
#229=EDGE_CURVE('',#148,#188,#228,.T.);
#230=ORIENTED_EDGE('',*,*,#229,.F.);
#231=EDGE_LOOP('',(#217,#223,#224,#230));
#232=FACE_BOUND('',#231,.T.);
#233=ADVANCED_FACE('',(#232),#216,.T.);
#234=CARTESIAN_POINT('',(-0.51290672,-16.803776884,-0.11));
#235=DIRECTION('',(-1.,0.,0.));
#236=DIRECTION('',(0.,0.,1.));
#237=AXIS2_PLACEMENT_3D('',#234,#235,#236);
#238=PLANE('',#237);
#239=CARTESIAN_POINT('',(-0.51290672,-15.278258806,0.8));
#240=VERTEX_POINT('',#239);
#241=CARTESIAN_POINT('',(-0.51290672,-17.378258806,0.8));
#242=DIRECTION('',(0.,1.,0.));
#243=VECTOR('',#242,2.1);
#244=LINE('',#241,#243);
#245=EDGE_CURVE('',#122,#240,#244,.T.);
#246=ORIENTED_EDGE('',*,*,#245,.F.);
#247=ORIENTED_EDGE('',*,*,#129,.T.);
#248=CARTESIAN_POINT('',(-0.51290672,-15.278258806,3.3));
#249=VERTEX_POINT('',#248);
#250=CARTESIAN_POINT('',(-0.51290672,-15.278258806,3.3));
#251=DIRECTION('',(0.,-1.,0.));
#252=VECTOR('',#251,2.1);
#253=LINE('',#250,#252);
#254=EDGE_CURVE('',#249,#124,#253,.T.);
#255=ORIENTED_EDGE('',*,*,#254,.F.);
#256=CARTESIAN_POINT('',(-0.51290672,-15.278258806,0.8));
#257=DIRECTION('',(0.,0.,1.));
#258=VECTOR('',#257,2.5);
#259=LINE('',#256,#258);
#260=EDGE_CURVE('',#240,#249,#259,.T.);
#261=ORIENTED_EDGE('',*,*,#260,.F.);
#262=EDGE_LOOP('',(#246,#247,#255,#261));
#263=FACE_BOUND('',#262,.T.);
#264=ADVANCED_FACE('',(#263),#238,.T.);
#265=CARTESIAN_POINT('',(-0.715955483,-15.278258806,-0.11));
#266=DIRECTION('',(0.,-1.,0.));
#267=DIRECTION('',(0.,0.,-1.));
#268=AXIS2_PLACEMENT_3D('',#265,#266,#267);
#269=PLANE('',#268);
#270=CARTESIAN_POINT('',(0.250995754,-15.278258806,0.8));
#271=VERTEX_POINT('',#270);
#272=CARTESIAN_POINT('',(0.250995754,-15.278258806,3.3));
#273=VERTEX_POINT('',#272);
#274=CARTESIAN_POINT('',(0.250995754,-15.278258806,0.8));
#275=DIRECTION('',(0.,0.,1.));
#276=VECTOR('',#275,2.5);
#277=LINE('',#274,#276);
#278=EDGE_CURVE('',#271,#273,#277,.T.);
#279=ORIENTED_EDGE('',*,*,#278,.F.);
#280=CARTESIAN_POINT('',(-0.51290672,-15.278258806,0.8));
#281=DIRECTION('',(1.,0.,-0.));
#282=VECTOR('',#281,0.763902474);
#283=LINE('',#280,#282);
#284=EDGE_CURVE('',#240,#271,#283,.T.);
#285=ORIENTED_EDGE('',*,*,#284,.F.);
#286=ORIENTED_EDGE('',*,*,#260,.T.);
#287=CARTESIAN_POINT('',(-0.51290672,-15.278258806,3.3));
#288=DIRECTION('',(1.,0.,-0.));
#289=VECTOR('',#288,0.763902474);
#290=LINE('',#287,#289);
#291=EDGE_CURVE('',#249,#273,#290,.T.);
#292=ORIENTED_EDGE('',*,*,#291,.T.);
#293=EDGE_LOOP('',(#279,#285,#286,#292));
#294=FACE_BOUND('',#293,.T.);
#295=ADVANCED_FACE('',(#294),#269,.F.);
#296=CARTESIAN_POINT('',(0.250995754,-14.568342786,-0.11));
#297=DIRECTION('',(-1.,0.,0.));
#298=DIRECTION('',(0.,0.,1.));
#299=AXIS2_PLACEMENT_3D('',#296,#297,#298);
#300=PLANE('',#299);
#301=CARTESIAN_POINT('',(0.250995754,-13.808426767,0.8));
#302=VERTEX_POINT('',#301);
#303=CARTESIAN_POINT('',(0.250995754,-13.808426767,0.8));
#304=DIRECTION('',(0.,-1.,0.));
#305=VECTOR('',#304,1.469832039);
#306=LINE('',#303,#305);
#307=EDGE_CURVE('',#302,#271,#306,.T.);
#308=ORIENTED_EDGE('',*,*,#307,.T.);
#309=ORIENTED_EDGE('',*,*,#278,.T.);
#310=CARTESIAN_POINT('',(0.250995754,-13.808426767,3.3));
#311=VERTEX_POINT('',#310);
#312=CARTESIAN_POINT('',(0.250995754,-13.808426767,3.3));
#313=DIRECTION('',(0.,-1.,0.));
#314=VECTOR('',#313,1.469832039);
#315=LINE('',#312,#314);
#316=EDGE_CURVE('',#311,#273,#315,.T.);
#317=ORIENTED_EDGE('',*,*,#316,.F.);
#318=CARTESIAN_POINT('',(0.250995754,-13.808426767,0.8));
#319=DIRECTION('',(0.,0.,1.));
#320=VECTOR('',#319,2.5);
#321=LINE('',#318,#320);
#322=EDGE_CURVE('',#302,#311,#321,.T.);
#323=ORIENTED_EDGE('',*,*,#322,.F.);
#324=EDGE_LOOP('',(#308,#309,#317,#323));
#325=FACE_BOUND('',#324,.T.);
#326=ADVANCED_FACE('',(#325),#300,.T.);
#327=CARTESIAN_POINT('',(1.210995754,-13.808426767,-0.11));
#328=DIRECTION('',(0.,1.,0.));
#329=DIRECTION('',(0.,0.,1.));
#330=AXIS2_PLACEMENT_3D('',#327,#328,#329);
#331=PLANE('',#330);
#332=CARTESIAN_POINT('',(0.810842113,-13.808426767,0.8));
#333=VERTEX_POINT('',#332);
#334=CARTESIAN_POINT('',(0.810842113,-13.808426767,3.3));
#335=VERTEX_POINT('',#334);
#336=CARTESIAN_POINT('',(0.810842113,-13.808426767,0.8));
#337=DIRECTION('',(0.,0.,1.));
#338=VECTOR('',#337,2.5);
#339=LINE('',#336,#338);
#340=EDGE_CURVE('',#333,#335,#339,.T.);
#341=ORIENTED_EDGE('',*,*,#340,.F.);
#342=CARTESIAN_POINT('',(0.810842113,-13.808426767,0.8));
#343=DIRECTION('',(-1.,0.,0.));
#344=VECTOR('',#343,0.559846359);
#345=LINE('',#342,#344);
#346=EDGE_CURVE('',#333,#302,#345,.T.);
#347=ORIENTED_EDGE('',*,*,#346,.T.);
#348=ORIENTED_EDGE('',*,*,#322,.T.);
#349=CARTESIAN_POINT('',(0.810842113,-13.808426767,3.3));
#350=DIRECTION('',(-1.,-0.,0.));
#351=VECTOR('',#350,0.559846359);
#352=LINE('',#349,#351);
#353=EDGE_CURVE('',#335,#311,#352,.T.);
#354=ORIENTED_EDGE('',*,*,#353,.F.);
#355=EDGE_LOOP('',(#341,#347,#348,#354));
#356=FACE_BOUND('',#355,.T.);
#357=ADVANCED_FACE('',(#356),#331,.T.);
#358=CARTESIAN_POINT('',(27.160995754,-19.458426767,0.8));
#359=DIRECTION('',(0.,0.,-1.));
#360=DIRECTION('',(1.,0.,0.));
#361=AXIS2_PLACEMENT_3D('',#358,#359,#360);
#362=PLANE('',#361);
#363=ORIENTED_EDGE('',*,*,#284,.T.);
#364=ORIENTED_EDGE('',*,*,#307,.F.);
#365=ORIENTED_EDGE('',*,*,#346,.F.);
#366=CARTESIAN_POINT('',(0.810842113,-14.308426767,0.8));
#367=VERTEX_POINT('',#366);
#368=CARTESIAN_POINT('',(0.810842113,-14.308426767,0.8));
#369=DIRECTION('',(0.,1.,0.));
#370=VECTOR('',#369,0.5);
#371=LINE('',#368,#370);
#372=EDGE_CURVE('',#367,#333,#371,.T.);
#373=ORIENTED_EDGE('',*,*,#372,.F.);
#374=CARTESIAN_POINT('',(1.410995754,-14.308426767,0.8));
#375=VERTEX_POINT('',#374);
#376=CARTESIAN_POINT('',(0.810842113,-14.308426767,0.8));
#377=DIRECTION('',(1.,0.,-0.));
#378=VECTOR('',#377,0.600153641);
#379=LINE('',#376,#378);
#380=EDGE_CURVE('',#367,#375,#379,.T.);
#381=ORIENTED_EDGE('',*,*,#380,.T.);
#382=CARTESIAN_POINT('',(1.410995754,-14.308426767,0.8));
#383=DIRECTION('',(0.,1.,0.));
#384=VECTOR('',#383,0.5);
#385=LINE('',#382,#384);
#386=EDGE_CURVE('',#375,#172,#385,.T.);
#387=ORIENTED_EDGE('',*,*,#386,.T.);
#388=ORIENTED_EDGE('',*,*,#177,.F.);
#389=CARTESIAN_POINT('',(1.688153042,-13.808426767,0.8));
#390=DIRECTION('',(0.,-1.,0.));
#391=VECTOR('',#390,3.569832039);
#392=LINE('',#389,#391);
#393=EDGE_CURVE('',#170,#132,#392,.T.);
#394=ORIENTED_EDGE('',*,*,#393,.T.);
#395=ORIENTED_EDGE('',*,*,#137,.F.);
#396=ORIENTED_EDGE('',*,*,#245,.T.);
#397=EDGE_LOOP('',(#363,#364,#365,#373,#381,#387,#388,#394,#395,#396));
#398=FACE_BOUND('',#397,.T.);
#399=ADVANCED_FACE('',(#398),#362,.T.);
#400=CARTESIAN_POINT('',(27.160995754,-19.458426767,3.3));
#401=DIRECTION('',(0.,0.,-1.));
#402=DIRECTION('',(1.,0.,0.));
#403=AXIS2_PLACEMENT_3D('',#400,#401,#402);
#404=PLANE('',#403);
#405=ORIENTED_EDGE('',*,*,#316,.T.);
#406=ORIENTED_EDGE('',*,*,#291,.F.);
#407=ORIENTED_EDGE('',*,*,#254,.T.);
#408=ORIENTED_EDGE('',*,*,#159,.T.);
#409=ORIENTED_EDGE('',*,*,#229,.T.);
#410=ORIENTED_EDGE('',*,*,#193,.T.);
#411=CARTESIAN_POINT('',(1.410995754,-14.308426767,3.3));
#412=VERTEX_POINT('',#411);
#413=CARTESIAN_POINT('',(1.410995754,-14.308426767,3.3));
#414=DIRECTION('',(0.,1.,0.));
#415=VECTOR('',#414,0.5);
#416=LINE('',#413,#415);
#417=EDGE_CURVE('',#412,#180,#416,.T.);
#418=ORIENTED_EDGE('',*,*,#417,.F.);
#419=CARTESIAN_POINT('',(0.810842113,-14.308426767,3.3));
#420=VERTEX_POINT('',#419);
#421=CARTESIAN_POINT('',(0.810842113,-14.308426767,3.3));
#422=DIRECTION('',(1.,0.,-0.));
#423=VECTOR('',#422,0.600153641);
#424=LINE('',#421,#423);
#425=EDGE_CURVE('',#420,#412,#424,.T.);
#426=ORIENTED_EDGE('',*,*,#425,.F.);
#427=CARTESIAN_POINT('',(0.810842113,-14.308426767,3.3));
#428=DIRECTION('',(0.,1.,0.));
#429=VECTOR('',#428,0.5);
#430=LINE('',#427,#429);
#431=EDGE_CURVE('',#420,#335,#430,.T.);
#432=ORIENTED_EDGE('',*,*,#431,.T.);
#433=ORIENTED_EDGE('',*,*,#353,.T.);
#434=EDGE_LOOP('',(#405,#406,#407,#408,#409,#410,#418,#426,#432,#433));
#435=FACE_BOUND('',#434,.T.);
#436=ADVANCED_FACE('',(#435),#404,.F.);
#437=CARTESIAN_POINT('',(0.810842113,-14.308426767,1.34));
#438=DIRECTION('',(-1.,0.,0.));
#439=DIRECTION('',(0.,0.,1.));
#440=AXIS2_PLACEMENT_3D('',#437,#438,#439);
#441=PLANE('',#440);
#442=ORIENTED_EDGE('',*,*,#372,.T.);
#443=ORIENTED_EDGE('',*,*,#340,.T.);
#444=ORIENTED_EDGE('',*,*,#431,.F.);
#445=CARTESIAN_POINT('',(0.810842113,-14.308426767,0.8));
#446=DIRECTION('',(0.,0.,1.));
#447=VECTOR('',#446,2.5);
#448=LINE('',#445,#447);
#449=EDGE_CURVE('',#367,#420,#448,.T.);
#450=ORIENTED_EDGE('',*,*,#449,.F.);
#451=EDGE_LOOP('',(#442,#443,#444,#450));
#452=FACE_BOUND('',#451,.T.);
#453=ADVANCED_FACE('',(#452),#441,.F.);
#454=CARTESIAN_POINT('',(1.410995754,-14.308426767,1.34));
#455=DIRECTION('',(1.,0.,0.));
#456=DIRECTION('',(0.,0.,-1.));
#457=AXIS2_PLACEMENT_3D('',#454,#455,#456);
#458=PLANE('',#457);
#459=ORIENTED_EDGE('',*,*,#185,.F.);
#460=ORIENTED_EDGE('',*,*,#386,.F.);
#461=CARTESIAN_POINT('',(1.410995754,-14.308426767,0.8));
#462=DIRECTION('',(0.,0.,1.));
#463=VECTOR('',#462,2.5);
#464=LINE('',#461,#463);
#465=EDGE_CURVE('',#375,#412,#464,.T.);
#466=ORIENTED_EDGE('',*,*,#465,.T.);
#467=ORIENTED_EDGE('',*,*,#417,.T.);
#468=EDGE_LOOP('',(#459,#460,#466,#467));
#469=FACE_BOUND('',#468,.T.);
#470=ADVANCED_FACE('',(#469),#458,.F.);
#471=CARTESIAN_POINT('',(-113.887920994,-14.308426767,-428.81));
#472=DIRECTION('',(0.,-1.,0.));
#473=DIRECTION('',(1.,0.,0.));
#474=AXIS2_PLACEMENT_3D('',#471,#472,#473);
#475=PLANE('',#474);
#476=ORIENTED_EDGE('',*,*,#465,.F.);
#477=ORIENTED_EDGE('',*,*,#380,.F.);
#478=ORIENTED_EDGE('',*,*,#449,.T.);
#479=ORIENTED_EDGE('',*,*,#425,.T.);
#480=EDGE_LOOP('',(#476,#477,#478,#479));
#481=FACE_BOUND('',#480,.T.);
#482=ADVANCED_FACE('',(#481),#475,.F.);
#483=CARTESIAN_POINT('',(2.419574398,-15.993860864,1.531421356));
#484=DIRECTION('',(-0.707106781,0.,0.707106781));
#485=DIRECTION('',(0.,1.,0.));
#486=AXIS2_PLACEMENT_3D('',#483,#484,#485);
#487=PLANE('',#486);
#488=ORIENTED_EDGE('',*,*,#145,.F.);
#489=ORIENTED_EDGE('',*,*,#393,.F.);
#490=ORIENTED_EDGE('',*,*,#207,.F.);
#491=ORIENTED_EDGE('',*,*,#222,.F.);
#492=EDGE_LOOP('',(#488,#489,#490,#491));
#493=FACE_BOUND('',#492,.T.);
#494=ADVANCED_FACE('',(#493),#487,.F.);
#495=CARTESIAN_POINT('',(-338.564367374,-15.400912645,-110.516913522));
#496=DIRECTION('',(0.,-1.,0.));
#497=DIRECTION('',(0.,0.,1.));
#498=AXIS2_PLACEMENT_3D('',#495,#496,#497);
#499=PLANE('',#498);
#500=ORIENTED_EDGE('',*,*,#66,.T.);
#501=ORIENTED_EDGE('',*,*,#91,.T.);
#502=CARTESIAN_POINT('',(1.094160876,-15.400912645,1.410372789));
#503=VERTEX_POINT('',#502);
#504=CARTESIAN_POINT('',(1.072845982,-15.400912645,1.404852249));
#505=CARTESIAN_POINT('',(1.079984209,-15.400912645,1.40656356));
#506=CARTESIAN_POINT('',(1.08708917,-15.400912645,1.408403756));
#507=CARTESIAN_POINT('',(1.094160876,-15.400912645,1.410372789));
#508=B_SPLINE_CURVE_WITH_KNOTS('',3,(#504,#505,#506,#507),.UNSPECIFIED.,.F.,.F.,(4,4),(0.002922568,0.002945131),.UNSPECIFIED.);
#509=EDGE_CURVE('',#78,#503,#508,.T.);
#510=ORIENTED_EDGE('',*,*,#509,.T.);
#511=CARTESIAN_POINT('',(1.094160876,-15.400912645,1.410372789));
#512=CARTESIAN_POINT('',(1.095739989,-15.400912645,1.412327575));
#513=CARTESIAN_POINT('',(1.097318666,-15.400912645,1.41428272));
#514=CARTESIAN_POINT('',(1.098896905,-15.400912645,1.416238224));
#515=B_SPLINE_CURVE_WITH_KNOTS('',3,(#511,#512,#513,#514),.UNSPECIFIED.,.F.,.F.,(4,4),(0.000824785,0.000832323),.UNSPECIFIED.);
#516=EDGE_CURVE('',#503,#60,#515,.T.);
#517=ORIENTED_EDGE('',*,*,#516,.T.);
#518=EDGE_LOOP('',(#500,#501,#510,#517));
#519=FACE_BOUND('',#518,.T.);
#520=ADVANCED_FACE('',(#519),#499,.T.);
#521=CARTESIAN_POINT('',(1.093620174,-15.400256262,1.411419778));
#522=CARTESIAN_POINT('',(1.099094078,-15.400937234,1.41641841));
#523=CARTESIAN_POINT('',(1.104568078,-15.401618184,1.421416942));
#524=CARTESIAN_POINT('',(1.110042174,-15.402299112,1.426415373));
#525=CARTESIAN_POINT('',(1.094295018,-15.401075579,1.410113072));
#526=CARTESIAN_POINT('',(1.09978055,-15.401756459,1.415122734));
#527=CARTESIAN_POINT('',(1.105266178,-15.402437318,1.420132298));
#528=CARTESIAN_POINT('',(1.110751902,-15.403118154,1.425141762));
#529=CARTESIAN_POINT('',(1.094969764,-15.401894871,1.4088063));
#530=CARTESIAN_POINT('',(1.100466926,-15.402575659,1.413826993));
#531=CARTESIAN_POINT('',(1.105964183,-15.403256426,1.418847587));
#532=CARTESIAN_POINT('',(1.111461534,-15.403937171,1.423868082));
#533=CARTESIAN_POINT('',(1.095644415,-15.402714136,1.407499465));
#534=CARTESIAN_POINT('',(1.101153207,-15.403394833,1.412531187));
#535=CARTESIAN_POINT('',(1.106662092,-15.40407551,1.417562811));
#536=CARTESIAN_POINT('',(1.112171072,-15.404756164,1.422594337));
#537=B_SPLINE_SURFACE_WITH_KNOTS('',3,3,((#521,#522,#523,#524),(#525,#526,#527,#528),(#529,#530,#531,#532),(#533,#534,#535,#536)),.UNSPECIFIED.,.F.,.F.,.U.,(4,4),(4,4),(0.168090705,0.192308702),(0.684604316,0.684903294),.UNSPECIFIED.);
#538=CARTESIAN_POINT('',(1.094160878,-15.400912648,1.410372785));
#539=CARTESIAN_POINT('',(1.100192791,-15.402229532,1.414396616));
#540=CARTESIAN_POINT('',(1.106197149,-15.403511608,1.418468867));
#541=CARTESIAN_POINT('',(1.112171107,-15.404756099,1.422594306));
#542=B_SPLINE_CURVE_WITH_KNOTS('',3,(#538,#539,#540,#541),.UNSPECIFIED.,.F.,.F.,(4,4),(0.001449026,0.001471278),.UNSPECIFIED.);
#543=EDGE_CURVE('',#503,#69,#542,.T.);
#544=ORIENTED_EDGE('',*,*,#543,.T.);
#545=ORIENTED_EDGE('',*,*,#75,.F.);
#546=ORIENTED_EDGE('',*,*,#516,.F.);
#547=EDGE_LOOP('',(#544,#545,#546));
#548=FACE_BOUND('',#547,.T.);
#549=ADVANCED_FACE('',(#548),#537,.T.);
#550=CARTESIAN_POINT('',(1.07403911,-15.398900407,1.401829635));
#551=CARTESIAN_POINT('',(1.087061553,-15.400152496,1.407122842));
#552=CARTESIAN_POINT('',(1.099878727,-15.401396965,1.412835452));
#553=CARTESIAN_POINT('',(1.112445947,-15.402629641,1.418954336));
#554=CARTESIAN_POINT('',(1.073636883,-15.399537835,1.402856093));
#555=CARTESIAN_POINT('',(1.086636291,-15.400789922,1.408140359));
#556=CARTESIAN_POINT('',(1.099430766,-15.402034388,1.41384328));
#557=CARTESIAN_POINT('',(1.111975706,-15.403267059,1.419951746));
#558=CARTESIAN_POINT('',(1.073234697,-15.400175268,1.403882564));
#559=CARTESIAN_POINT('',(1.086211068,-15.401427353,1.409157891));
#560=CARTESIAN_POINT('',(1.098982845,-15.402671814,1.414851124));
#561=CARTESIAN_POINT('',(1.111505502,-15.403904482,1.420949172));
#562=CARTESIAN_POINT('',(1.07283255,-15.400812705,1.404909049));
#563=CARTESIAN_POINT('',(1.085785885,-15.402064787,1.410175437));
#564=CARTESIAN_POINT('',(1.098534962,-15.403309245,1.415858982));
#565=CARTESIAN_POINT('',(1.111035338,-15.404541908,1.421946615));
#566=B_SPLINE_SURFACE_WITH_KNOTS('',3,3,((#550,#551,#552,#553),(#554,#555,#556,#557),(#558,#559,#560,#561),(#562,#563,#564,#565)),.UNSPECIFIED.,.F.,.F.,.U.,(4,4),(4,4),(0.780799078,0.799707329),(0.683920486,0.684513244),.UNSPECIFIED.);
#567=ORIENTED_EDGE('',*,*,#543,.F.);
#568=ORIENTED_EDGE('',*,*,#509,.F.);
#569=ORIENTED_EDGE('',*,*,#84,.T.);
#570=EDGE_LOOP('',(#567,#568,#569));
#571=FACE_BOUND('',#570,.T.);
#572=ADVANCED_FACE('',(#571),#566,.T.);
#573=CARTESIAN_POINT('',(0.835632626,-17.170868203,1.983086479));
#574=DIRECTION('',(0.,-1.,0.));
#575=DIRECTION('',(0.,0.,1.));
#576=AXIS2_PLACEMENT_3D('',#573,#574,#575);
#577=CYLINDRICAL_SURFACE('',#576,0.81);
#578=CARTESIAN_POINT('',(0.835632626,-17.060868203,2.793086479));
#579=VERTEX_POINT('',#578);
#580=CARTESIAN_POINT('',(0.835632626,-17.378258806,2.793086479));
#581=DIRECTION('',(-0.,1.,-0.));
#582=VECTOR('',#581,0.317390603);
#583=LINE('',#580,#582);
#584=EDGE_CURVE('',#104,#579,#583,.T.);
#585=ORIENTED_EDGE('',*,*,#584,.F.);
#586=ORIENTED_EDGE('',*,*,#110,.F.);
#587=ORIENTED_EDGE('',*,*,#117,.F.);
#588=ORIENTED_EDGE('',*,*,#584,.T.);
#589=CARTESIAN_POINT('',(1.331735824,-17.060868203,1.34278841));
#590=VERTEX_POINT('',#589);
#591=CARTESIAN_POINT('',(0.835632626,-17.060868203,1.983086479));
#592=DIRECTION('',(0.,-1.,0.));
#593=DIRECTION('',(0.,-0.,-1.));
#594=AXIS2_PLACEMENT_3D('',#591,#592,#593);
#595=CIRCLE('',#594,0.81);
#596=EDGE_CURVE('',#590,#579,#595,.T.);
#597=ORIENTED_EDGE('',*,*,#596,.F.);
#598=CARTESIAN_POINT('',(0.835632626,-17.060868203,1.983086479));
#599=DIRECTION('',(0.,-1.,0.));
#600=DIRECTION('',(0.,-0.,-1.));
#601=AXIS2_PLACEMENT_3D('',#598,#599,#600);
#602=CIRCLE('',#601,0.81);
#603=EDGE_CURVE('',#579,#590,#602,.T.);
#604=ORIENTED_EDGE('',*,*,#603,.F.);
#605=EDGE_LOOP('',(#585,#586,#587,#588,#597,#604));
#606=FACE_BOUND('',#605,.T.);
#607=ADVANCED_FACE('',(#606),#577,.F.);
#608=CARTESIAN_POINT('',(2.835632626,-17.060868203,2.033086479));
#609=DIRECTION('',(0.,-1.,0.));
#610=DIRECTION('',(-1.,0.,0.));
#611=AXIS2_PLACEMENT_3D('',#608,#609,#610);
#612=PLANE('',#611);
#613=ORIENTED_EDGE('',*,*,#596,.T.);
#614=ORIENTED_EDGE('',*,*,#603,.T.);
#615=EDGE_LOOP('',(#613,#614));
#616=FACE_BOUND('',#615,.T.);
#617=ORIENTED_EDGE('',*,*,#49,.F.);
#618=ORIENTED_EDGE('',*,*,#56,.F.);
#619=EDGE_LOOP('',(#617,#618));
#620=FACE_BOUND('',#619,.T.);
#621=ADVANCED_FACE('',(#616,#620),#612,.T.);
#622=CLOSED_SHELL('',(#95,#163,#211,#233,#264,#295,#326,#357,#399,#436,#453,#470,#482,#494,#520,#549,#572,#607,#621));
#623=MANIFOLD_SOLID_BREP('\X2\4E3B52D5593E81C2\X0\ (\X2\504F7F6E\X0\ \X2\65E05B9E4F5387BA7EB9\X0\)',#622);
#624=COLOUR_RGB('',0.850980401,0.850980401,0.850980401);
#625=FILL_AREA_STYLE_COLOUR('',#624);
#626=FILL_AREA_STYLE('',(#625));
#627=SURFACE_STYLE_FILL_AREA(#626);
#628=SURFACE_SIDE_STYLE('',(#627));
#629=SURFACE_STYLE_USAGE(.BOTH.,#628);
#630=PRESENTATION_STYLE_ASSIGNMENT((#629));
#26=STYLED_ITEM('',(#630),#623);
#16=SHAPE_REPRESENTATION('\X2\4E3B52D5593E81C2\X0\ (\X2\504F7F6E\X0\ \X2\65E05B9E4F5387BA7EB9\X0\)',(#15),#10);
#17=ADVANCED_BREP_SHAPE_REPRESENTATION('\X2\4E3B52D5593E81C2\X0\ (\X2\504F7F6E\X0\ \X2\65E05B9E4F5387BA7EB9\X0\)',(#623),#10);
#638=SHAPE_REPRESENTATION_RELATIONSHIP('','',#16,#17);
#639=CARTESIAN_POINT('',(0.,0.,0.));
#640=DIRECTION('',(0.,0.,1.));
#641=DIRECTION('',(1.,0.,0.));
#642=AXIS2_PLACEMENT_3D('',#639,#640,#641);
#644=MAPPED_ITEM('',#643,#642);
#643=REPRESENTATION_MAP(#642,#16);
#645=APPLICATION_CONTEXT('Managed model based 3d engineering');
#646=APPLICATION_PROTOCOL_DEFINITION('international standard','ap242_managed_model_based_3d_engineering',2014,#645);
#647=PRODUCT_CONTEXT('',#645,'mechanical');
#648=PRODUCT_DEFINITION_CONTEXT('part definition',#645,'design');
#24=PRODUCT('\X2\4E3B52D5593E81C2\X0\ (\X2\504F7F6E\X0\ \X2\65E05B9E4F5387BA7EB9\X0\)','\X2\4E3B52D5593E81C2\X0\ (\X2\504F7F6E\X0\ \X2\65E05B9E4F5387BA7EB9\X0\)','',(#647));
#649=PRODUCT_RELATED_PRODUCT_CATEGORY('part','',(#24));
#650=PRODUCT_DEFINITION_FORMATION_WITH_SPECIFIED_SOURCE('','',#24,.NOT_KNOWN.);
#25=PRODUCT_DEFINITION('design','',#650,#648);
#23=PRODUCT_DEFINITION_SHAPE('','',#25);
#651=SHAPE_DEFINITION_REPRESENTATION(#23,#16);
#11=DRAUGHTING_MODEL('',(#644),#10);
#652=DESCRIPTIVE_REPRESENTATION_ITEM('KEY','C:\\Users\\Nalani\\AppData\\Local\\Packages\\Shapr3D.Shapr3D_j403pzjkqtqbj\\TempState\\6c19d433-ccd8-4e41-815f-928c2d5349ea.tmp');
#653=PROPERTY_DEFINITION('KEY','',#25);
#654=REPRESENTATION('',(#652),#10);
#655=PROPERTY_DEFINITION_REPRESENTATION(#653,#654);
#656=GENERAL_PROPERTY('','KEY','');
#657=GENERAL_PROPERTY_ASSOCIATION('','',#656,#653);
#1=MECHANICAL_DESIGN_GEOMETRIC_PRESENTATION_REPRESENTATION('',(#26),#10);
ENDSEC;
END-ISO-10303-21;
