ISO-10303-21;
HEADER;

/* File generated by Shapr3D Version 26.123.11423.0 */

FILE_DESCRIPTION(('HOOPS Exchange Step'),'2;1');

FILE_NAME('C:\\Users\\Nalani\\AppData\\Local\\Packages\\Shapr3D.Shapr3D_j403pzjkqtqbj\\TempState\\export\\temp_export',
'2026-08-03T16:12:14+08:00',
('Nalani'),
('Shapr3D Limited'),
'HOOPS Exchange 2026.3',
'Shapr3D',
'Authorized');

FILE_SCHEMA( ('AP242_MANAGED_MODEL_BASED_3D_ENGINEERING_MIM_LF {1 0 10303 442 1 1 4}') );

ENDSEC;

DATA;
#3=(NAMED_UNIT(*)PLANE_ANGLE_UNIT()SI_UNIT($,.RADIAN.));
#4=PLANE_ANGLE_MEASURE_WITH_UNIT(PLANE_ANGLE_MEASURE(0.0174532925),#3);
#5=(CONVERSION_BASED_UNIT('DEGREE',#4)NAMED_UNIT(#6)PLANE_ANGLE_UNIT());
#6=DIMENSIONAL_EXPONENTS(0.,0.,0.,0.,0.,0.,0.);
#7=(NAMED_UNIT(*)SI_UNIT($,.STERADIAN.)SOLID_ANGLE_UNIT());
#8=(LENGTH_UNIT()NAMED_UNIT(*)SI_UNIT(.MILLI.,.METRE.));
#9=UNCERTAINTY_MEASURE_WITH_UNIT(LENGTH_MEASURE(1.000000E-05),#8,'DISTANCE_ACCURACY_VALUE','Maximum Tolerance applied to model');
#10=(GEOMETRIC_REPRESENTATION_CONTEXT(3)GLOBAL_UNCERTAINTY_ASSIGNED_CONTEXT((#9))GLOBAL_UNIT_ASSIGNED_CONTEXT((#8,#5,#7))REPRESENTATION_CONTEXT('','\X2\4E3B52D5593E81C2\X0\ (\X2\65E087BA7EB9\X0\-\X2\5C454E2D\X0\)'));
#12=CARTESIAN_POINT('',(0.,0.,0.));
#13=DIRECTION('',(0.,0.,1.));
#14=DIRECTION('',(1.,0.,0.));
#15=AXIS2_PLACEMENT_3D('',#12,#13,#14);
#27=CARTESIAN_POINT('',(-2.264367374,11.529131797,1.983086478));
#28=DIRECTION('',(0.,-1.,0.));
#29=DIRECTION('',(0.,0.,1.));
#30=AXIS2_PLACEMENT_3D('',#27,#28,#29);
#31=CYLINDRICAL_SURFACE('',#30,0.625);
#32=CARTESIAN_POINT('',(-2.264367374,9.639131797,2.608086478));
#33=VERTEX_POINT('',#32);
#34=CARTESIAN_POINT('',(-2.264367374,11.299087355,2.608086478));
#35=VERTEX_POINT('',#34);
#36=CARTESIAN_POINT('',(-2.264367374,9.639131797,2.608086478));
#37=DIRECTION('',(-0.,1.,-0.));
#38=VECTOR('',#37,1.659955558);
#39=LINE('',#36,#38);
#40=EDGE_CURVE('',#33,#35,#39,.T.);
#41=ORIENTED_EDGE('',*,*,#40,.F.);
#42=CARTESIAN_POINT('',(-1.765472421,9.639131797,1.606617587));
#43=VERTEX_POINT('',#42);
#44=CARTESIAN_POINT('',(-2.264367374,9.639131797,1.983086478));
#45=DIRECTION('',(0.,-1.,0.));
#46=DIRECTION('',(0.,-0.,-1.));
#47=AXIS2_PLACEMENT_3D('',#44,#45,#46);
#48=CIRCLE('',#47,0.625);
#49=EDGE_CURVE('',#33,#43,#48,.T.);
#50=ORIENTED_EDGE('',*,*,#49,.T.);
#51=CARTESIAN_POINT('',(-2.264367374,9.639131797,1.983086478));
#52=DIRECTION('',(0.,-1.,0.));
#53=DIRECTION('',(0.,-0.,-1.));
#54=AXIS2_PLACEMENT_3D('',#51,#52,#53);
#55=CIRCLE('',#54,0.625);
#56=EDGE_CURVE('',#43,#33,#55,.T.);
#57=ORIENTED_EDGE('',*,*,#56,.T.);
#58=ORIENTED_EDGE('',*,*,#40,.T.);
#59=CARTESIAN_POINT('',(-2.264367374,11.299087355,1.358086478));
#60=VERTEX_POINT('',#59);
#61=CARTESIAN_POINT('',(-2.264367374,11.299087355,1.983086478));
#62=DIRECTION('',(0.,-1.,0.));
#63=DIRECTION('',(0.,-0.,-1.));
#64=AXIS2_PLACEMENT_3D('',#61,#62,#63);
#65=CIRCLE('',#64,0.625);
#66=EDGE_CURVE('',#60,#35,#65,.T.);
#67=ORIENTED_EDGE('',*,*,#66,.F.);
#68=CARTESIAN_POINT('',(-2.264367374,11.299087355,1.983086478));
#69=DIRECTION('',(0.,-1.,0.));
#70=DIRECTION('',(0.,-0.,-1.));
#71=AXIS2_PLACEMENT_3D('',#68,#69,#70);
#72=CIRCLE('',#71,0.625);
#73=EDGE_CURVE('',#35,#60,#72,.T.);
#74=ORIENTED_EDGE('',*,*,#73,.F.);
#75=EDGE_LOOP('',(#41,#50,#57,#58,#67,#74));
#76=FACE_BOUND('',#75,.T.);
#77=ADVANCED_FACE('',(#76),#31,.F.);
#78=CARTESIAN_POINT('',(-2.465955483,9.321741194,-0.11));
#79=DIRECTION('',(0.,-1.,0.));
#80=DIRECTION('',(0.,0.,-1.));
#81=AXIS2_PLACEMENT_3D('',#78,#79,#80);
#82=PLANE('',#81);
#83=CARTESIAN_POINT('',(-1.460058211,9.321741194,2.078934117));
#84=VERTEX_POINT('',#83);
#85=CARTESIAN_POINT('',(-2.264367374,9.321741194,2.793086479));
#86=VERTEX_POINT('',#85);
#87=CARTESIAN_POINT('',(-2.264367374,9.321741194,1.983086479));
#88=DIRECTION('',(-0.,1.,-0.));
#89=DIRECTION('',(0.,0.,-1.));
#90=AXIS2_PLACEMENT_3D('',#87,#88,#89);
#91=CIRCLE('',#90,0.81);
#92=EDGE_CURVE('',#84,#86,#91,.T.);
#93=ORIENTED_EDGE('',*,*,#92,.T.);
#94=CARTESIAN_POINT('',(-2.264367374,9.321741194,1.983086479));
#95=DIRECTION('',(-0.,1.,-0.));
#96=DIRECTION('',(0.,0.,-1.));
#97=AXIS2_PLACEMENT_3D('',#94,#95,#96);
#98=CIRCLE('',#97,0.81);
#99=EDGE_CURVE('',#86,#84,#98,.T.);
#100=ORIENTED_EDGE('',*,*,#99,.T.);
#101=EDGE_LOOP('',(#93,#100));
#102=FACE_BOUND('',#101,.T.);
#103=CARTESIAN_POINT('',(-3.61290672,9.321741194,0.8));
#104=VERTEX_POINT('',#103);
#105=CARTESIAN_POINT('',(-3.61290672,9.321741194,3.3));
#106=VERTEX_POINT('',#105);
#107=CARTESIAN_POINT('',(-3.61290672,9.321741194,0.8));
#108=DIRECTION('',(0.,0.,1.));
#109=VECTOR('',#108,2.5);
#110=LINE('',#107,#109);
#111=EDGE_CURVE('',#104,#106,#110,.T.);
#112=ORIENTED_EDGE('',*,*,#111,.F.);
#113=CARTESIAN_POINT('',(-1.411846958,9.321741194,0.8));
#114=VERTEX_POINT('',#113);
#115=CARTESIAN_POINT('',(-3.61290672,9.321741194,0.8));
#116=DIRECTION('',(1.,0.,-0.));
#117=VECTOR('',#116,2.201059762);
#118=LINE('',#115,#117);
#119=EDGE_CURVE('',#104,#114,#118,.T.);
#120=ORIENTED_EDGE('',*,*,#119,.T.);
#121=CARTESIAN_POINT('',(-0.939004246,9.321741194,1.272842712));
#122=VERTEX_POINT('',#121);
#123=CARTESIAN_POINT('',(-1.411846958,9.321741194,0.8));
#124=DIRECTION('',(0.707106781,0.,0.707106781));
#125=VECTOR('',#124,0.668700576);
#126=LINE('',#123,#125);
#127=EDGE_CURVE('',#114,#122,#126,.T.);
#128=ORIENTED_EDGE('',*,*,#127,.T.);
#129=CARTESIAN_POINT('',(-0.939004246,9.321741194,3.3));
#130=VERTEX_POINT('',#129);
#131=CARTESIAN_POINT('',(-0.939004246,9.321741194,1.272842712));
#132=DIRECTION('',(0.,0.,1.));
#133=VECTOR('',#132,2.027157288);
#134=LINE('',#131,#133);
#135=EDGE_CURVE('',#122,#130,#134,.T.);
#136=ORIENTED_EDGE('',*,*,#135,.T.);
#137=CARTESIAN_POINT('',(-3.61290672,9.321741194,3.3));
#138=DIRECTION('',(1.,0.,-0.));
#139=VECTOR('',#138,2.673902474);
#140=LINE('',#137,#139);
#141=EDGE_CURVE('',#106,#130,#140,.T.);
#142=ORIENTED_EDGE('',*,*,#141,.F.);
#143=EDGE_LOOP('',(#112,#120,#128,#136,#142));
#144=FACE_BOUND('',#143,.T.);
#145=ADVANCED_FACE('',(#102,#144),#82,.T.);
#146=CARTESIAN_POINT('',(-1.889004246,12.631573233,-0.11));
#147=DIRECTION('',(0.,1.,0.));
#148=DIRECTION('',(0.,0.,1.));
#149=AXIS2_PLACEMENT_3D('',#146,#147,#148);
#150=PLANE('',#149);
#151=CARTESIAN_POINT('',(-1.411846958,12.631573233,0.8));
#152=VERTEX_POINT('',#151);
#153=CARTESIAN_POINT('',(-1.689004246,12.631573233,0.8));
#154=VERTEX_POINT('',#153);
#155=CARTESIAN_POINT('',(-1.411846958,12.631573233,0.8));
#156=DIRECTION('',(-1.,0.,0.));
#157=VECTOR('',#156,0.277157288);
#158=LINE('',#155,#157);
#159=EDGE_CURVE('',#152,#154,#158,.T.);
#160=ORIENTED_EDGE('',*,*,#159,.T.);
#161=CARTESIAN_POINT('',(-1.689004246,12.631573233,3.3));
#162=VERTEX_POINT('',#161);
#163=CARTESIAN_POINT('',(-1.689004246,12.631573233,0.8));
#164=DIRECTION('',(0.,0.,1.));
#165=VECTOR('',#164,2.5);
#166=LINE('',#163,#165);
#167=EDGE_CURVE('',#154,#162,#166,.T.);
#168=ORIENTED_EDGE('',*,*,#167,.T.);
#169=CARTESIAN_POINT('',(-0.939004246,12.631573233,3.3));
#170=VERTEX_POINT('',#169);
#171=CARTESIAN_POINT('',(-0.939004246,12.631573233,3.3));
#172=DIRECTION('',(-1.,0.,0.));
#173=VECTOR('',#172,0.75);
#174=LINE('',#171,#173);
#175=EDGE_CURVE('',#170,#162,#174,.T.);
#176=ORIENTED_EDGE('',*,*,#175,.F.);
#177=CARTESIAN_POINT('',(-0.939004246,12.631573233,1.272842712));
#178=VERTEX_POINT('',#177);
#179=CARTESIAN_POINT('',(-0.939004246,12.631573233,1.272842712));
#180=DIRECTION('',(0.,0.,1.));
#181=VECTOR('',#180,2.027157288);
#182=LINE('',#179,#181);
#183=EDGE_CURVE('',#178,#170,#182,.T.);
#184=ORIENTED_EDGE('',*,*,#183,.F.);
#185=CARTESIAN_POINT('',(-0.939004246,12.631573233,1.272842712));
#186=DIRECTION('',(-0.707106781,0.,-0.707106781));
#187=VECTOR('',#186,0.668700576);
#188=LINE('',#185,#187);
#189=EDGE_CURVE('',#178,#152,#188,.T.);
#190=ORIENTED_EDGE('',*,*,#189,.T.);
#191=EDGE_LOOP('',(#160,#168,#176,#184,#190));
#192=FACE_BOUND('',#191,.T.);
#193=ADVANCED_FACE('',(#192),#150,.T.);
#194=CARTESIAN_POINT('',(-0.939004246,10.706139136,-0.11));
#195=DIRECTION('',(1.,0.,0.));
#196=DIRECTION('',(0.,0.,-1.));
#197=AXIS2_PLACEMENT_3D('',#194,#195,#196);
#198=PLANE('',#197);
#199=ORIENTED_EDGE('',*,*,#135,.F.);
#200=CARTESIAN_POINT('',(-0.939004246,9.321741194,1.272842712));
#201=DIRECTION('',(0.,1.,0.));
#202=VECTOR('',#201,3.309832039);
#203=LINE('',#200,#202);
#204=EDGE_CURVE('',#122,#178,#203,.T.);
#205=ORIENTED_EDGE('',*,*,#204,.T.);
#206=ORIENTED_EDGE('',*,*,#183,.T.);
#207=CARTESIAN_POINT('',(-0.939004246,9.321741194,3.3));
#208=DIRECTION('',(-0.,1.,-0.));
#209=VECTOR('',#208,3.309832039);
#210=LINE('',#207,#209);
#211=EDGE_CURVE('',#130,#170,#210,.T.);
#212=ORIENTED_EDGE('',*,*,#211,.F.);
#213=EDGE_LOOP('',(#199,#205,#206,#212));
#214=FACE_BOUND('',#213,.T.);
#215=ADVANCED_FACE('',(#214),#198,.T.);
#216=CARTESIAN_POINT('',(-3.61290672,9.896223116,-0.11));
#217=DIRECTION('',(-1.,0.,0.));
#218=DIRECTION('',(0.,0.,1.));
#219=AXIS2_PLACEMENT_3D('',#216,#217,#218);
#220=PLANE('',#219);
#221=CARTESIAN_POINT('',(-3.61290672,11.421741194,0.8));
#222=VERTEX_POINT('',#221);
#223=CARTESIAN_POINT('',(-3.61290672,9.321741194,0.8));
#224=DIRECTION('',(0.,1.,0.));
#225=VECTOR('',#224,2.1);
#226=LINE('',#223,#225);
#227=EDGE_CURVE('',#104,#222,#226,.T.);
#228=ORIENTED_EDGE('',*,*,#227,.F.);
#229=ORIENTED_EDGE('',*,*,#111,.T.);
#230=CARTESIAN_POINT('',(-3.61290672,11.421741194,3.3));
#231=VERTEX_POINT('',#230);
#232=CARTESIAN_POINT('',(-3.61290672,11.421741194,3.3));
#233=DIRECTION('',(0.,-1.,0.));
#234=VECTOR('',#233,2.1);
#235=LINE('',#232,#234);
#236=EDGE_CURVE('',#231,#106,#235,.T.);
#237=ORIENTED_EDGE('',*,*,#236,.F.);
#238=CARTESIAN_POINT('',(-3.61290672,11.421741194,0.8));
#239=DIRECTION('',(0.,0.,1.));
#240=VECTOR('',#239,2.5);
#241=LINE('',#238,#240);
#242=EDGE_CURVE('',#222,#231,#241,.T.);
#243=ORIENTED_EDGE('',*,*,#242,.F.);
#244=EDGE_LOOP('',(#228,#229,#237,#243));
#245=FACE_BOUND('',#244,.T.);
#246=ADVANCED_FACE('',(#245),#220,.T.);
#247=CARTESIAN_POINT('',(-3.815955483,11.421741194,-0.11));
#248=DIRECTION('',(0.,-1.,0.));
#249=DIRECTION('',(0.,0.,-1.));
#250=AXIS2_PLACEMENT_3D('',#247,#248,#249);
#251=PLANE('',#250);
#252=CARTESIAN_POINT('',(-2.849004246,11.421741194,0.8));
#253=VERTEX_POINT('',#252);
#254=CARTESIAN_POINT('',(-2.849004246,11.421741194,3.3));
#255=VERTEX_POINT('',#254);
#256=CARTESIAN_POINT('',(-2.849004246,11.421741194,0.8));
#257=DIRECTION('',(0.,0.,1.));
#258=VECTOR('',#257,2.5);
#259=LINE('',#256,#258);
#260=EDGE_CURVE('',#253,#255,#259,.T.);
#261=ORIENTED_EDGE('',*,*,#260,.F.);
#262=CARTESIAN_POINT('',(-3.61290672,11.421741194,0.8));
#263=DIRECTION('',(1.,0.,-0.));
#264=VECTOR('',#263,0.763902474);
#265=LINE('',#262,#264);
#266=EDGE_CURVE('',#222,#253,#265,.T.);
#267=ORIENTED_EDGE('',*,*,#266,.F.);
#268=ORIENTED_EDGE('',*,*,#242,.T.);
#269=CARTESIAN_POINT('',(-3.61290672,11.421741194,3.3));
#270=DIRECTION('',(1.,0.,-0.));
#271=VECTOR('',#270,0.763902474);
#272=LINE('',#269,#271);
#273=EDGE_CURVE('',#231,#255,#272,.T.);
#274=ORIENTED_EDGE('',*,*,#273,.T.);
#275=EDGE_LOOP('',(#261,#267,#268,#274));
#276=FACE_BOUND('',#275,.T.);
#277=ADVANCED_FACE('',(#276),#251,.F.);
#278=CARTESIAN_POINT('',(-2.849004246,12.131657214,-0.11));
#279=DIRECTION('',(-1.,0.,0.));
#280=DIRECTION('',(0.,0.,1.));
#281=AXIS2_PLACEMENT_3D('',#278,#279,#280);
#282=PLANE('',#281);
#283=CARTESIAN_POINT('',(-2.849004246,12.631573233,0.8));
#284=VERTEX_POINT('',#283);
#285=CARTESIAN_POINT('',(-2.849004246,12.631573233,0.8));
#286=DIRECTION('',(0.,-1.,0.));
#287=VECTOR('',#286,1.209832039);
#288=LINE('',#285,#287);
#289=EDGE_CURVE('',#284,#253,#288,.T.);
#290=ORIENTED_EDGE('',*,*,#289,.T.);
#291=ORIENTED_EDGE('',*,*,#260,.T.);
#292=CARTESIAN_POINT('',(-2.849004246,12.631573233,3.3));
#293=VERTEX_POINT('',#292);
#294=CARTESIAN_POINT('',(-2.849004246,12.631573233,3.3));
#295=DIRECTION('',(0.,-1.,0.));
#296=VECTOR('',#295,1.209832039);
#297=LINE('',#294,#296);
#298=EDGE_CURVE('',#293,#255,#297,.T.);
#299=ORIENTED_EDGE('',*,*,#298,.F.);
#300=CARTESIAN_POINT('',(-2.849004246,12.631573233,0.8));
#301=DIRECTION('',(0.,0.,1.));
#302=VECTOR('',#301,2.5);
#303=LINE('',#300,#302);
#304=EDGE_CURVE('',#284,#293,#303,.T.);
#305=ORIENTED_EDGE('',*,*,#304,.F.);
#306=EDGE_LOOP('',(#290,#291,#299,#305));
#307=FACE_BOUND('',#306,.T.);
#308=ADVANCED_FACE('',(#307),#282,.T.);
#309=CARTESIAN_POINT('',(-1.889004246,12.631573233,-0.11));
#310=DIRECTION('',(0.,1.,0.));
#311=DIRECTION('',(0.,0.,1.));
#312=AXIS2_PLACEMENT_3D('',#309,#310,#311);
#313=PLANE('',#312);
#314=CARTESIAN_POINT('',(-2.289157887,12.631573233,0.8));
#315=VERTEX_POINT('',#314);
#316=CARTESIAN_POINT('',(-2.289157887,12.631573233,3.3));
#317=VERTEX_POINT('',#316);
#318=CARTESIAN_POINT('',(-2.289157887,12.631573233,0.8));
#319=DIRECTION('',(0.,0.,1.));
#320=VECTOR('',#319,2.5);
#321=LINE('',#318,#320);
#322=EDGE_CURVE('',#315,#317,#321,.T.);
#323=ORIENTED_EDGE('',*,*,#322,.F.);
#324=CARTESIAN_POINT('',(-2.289157887,12.631573233,0.8));
#325=DIRECTION('',(-1.,0.,0.));
#326=VECTOR('',#325,0.559846359);
#327=LINE('',#324,#326);
#328=EDGE_CURVE('',#315,#284,#327,.T.);
#329=ORIENTED_EDGE('',*,*,#328,.T.);
#330=ORIENTED_EDGE('',*,*,#304,.T.);
#331=CARTESIAN_POINT('',(-2.289157887,12.631573233,3.3));
#332=DIRECTION('',(-1.,0.,0.));
#333=VECTOR('',#332,0.559846359);
#334=LINE('',#331,#333);
#335=EDGE_CURVE('',#317,#293,#334,.T.);
#336=ORIENTED_EDGE('',*,*,#335,.F.);
#337=EDGE_LOOP('',(#323,#329,#330,#336));
#338=FACE_BOUND('',#337,.T.);
#339=ADVANCED_FACE('',(#338),#313,.T.);
#340=CARTESIAN_POINT('',(24.060995754,7.241573233,0.8));
#341=DIRECTION('',(0.,0.,-1.));
#342=DIRECTION('',(1.,0.,0.));
#343=AXIS2_PLACEMENT_3D('',#340,#341,#342);
#344=PLANE('',#343);
#345=ORIENTED_EDGE('',*,*,#266,.T.);
#346=ORIENTED_EDGE('',*,*,#289,.F.);
#347=ORIENTED_EDGE('',*,*,#328,.F.);
#348=CARTESIAN_POINT('',(-2.289157887,12.131573233,0.8));
#349=VERTEX_POINT('',#348);
#350=CARTESIAN_POINT('',(-2.289157887,12.131573233,0.8));
#351=DIRECTION('',(0.,1.,0.));
#352=VECTOR('',#351,0.5);
#353=LINE('',#350,#352);
#354=EDGE_CURVE('',#349,#315,#353,.T.);
#355=ORIENTED_EDGE('',*,*,#354,.F.);
#356=CARTESIAN_POINT('',(-1.689004246,12.131573233,0.8));
#357=VERTEX_POINT('',#356);
#358=CARTESIAN_POINT('',(-2.289157887,12.131573233,0.8));
#359=DIRECTION('',(1.,0.,-0.));
#360=VECTOR('',#359,0.600153641);
#361=LINE('',#358,#360);
#362=EDGE_CURVE('',#349,#357,#361,.T.);
#363=ORIENTED_EDGE('',*,*,#362,.T.);
#364=CARTESIAN_POINT('',(-1.689004246,12.131573233,0.8));
#365=DIRECTION('',(0.,1.,0.));
#366=VECTOR('',#365,0.5);
#367=LINE('',#364,#366);
#368=EDGE_CURVE('',#357,#154,#367,.T.);
#369=ORIENTED_EDGE('',*,*,#368,.T.);
#370=ORIENTED_EDGE('',*,*,#159,.F.);
#371=CARTESIAN_POINT('',(-1.411846958,12.631573233,0.8));
#372=DIRECTION('',(0.,-1.,0.));
#373=VECTOR('',#372,3.309832039);
#374=LINE('',#371,#373);
#375=EDGE_CURVE('',#152,#114,#374,.T.);
#376=ORIENTED_EDGE('',*,*,#375,.T.);
#377=ORIENTED_EDGE('',*,*,#119,.F.);
#378=ORIENTED_EDGE('',*,*,#227,.T.);
#379=EDGE_LOOP('',(#345,#346,#347,#355,#363,#369,#370,#376,#377,#378));
#380=FACE_BOUND('',#379,.T.);
#381=ADVANCED_FACE('',(#380),#344,.T.);
#382=CARTESIAN_POINT('',(24.060995754,7.241573233,3.3));
#383=DIRECTION('',(0.,0.,-1.));
#384=DIRECTION('',(1.,0.,0.));
#385=AXIS2_PLACEMENT_3D('',#382,#383,#384);
#386=PLANE('',#385);
#387=ORIENTED_EDGE('',*,*,#298,.T.);
#388=ORIENTED_EDGE('',*,*,#273,.F.);
#389=ORIENTED_EDGE('',*,*,#236,.T.);
#390=ORIENTED_EDGE('',*,*,#141,.T.);
#391=ORIENTED_EDGE('',*,*,#211,.T.);
#392=ORIENTED_EDGE('',*,*,#175,.T.);
#393=CARTESIAN_POINT('',(-1.689004246,12.131573233,3.3));
#394=VERTEX_POINT('',#393);
#395=CARTESIAN_POINT('',(-1.689004246,12.131573233,3.3));
#396=DIRECTION('',(0.,1.,0.));
#397=VECTOR('',#396,0.5);
#398=LINE('',#395,#397);
#399=EDGE_CURVE('',#394,#162,#398,.T.);
#400=ORIENTED_EDGE('',*,*,#399,.F.);
#401=CARTESIAN_POINT('',(-2.289157887,12.131573233,3.3));
#402=VERTEX_POINT('',#401);
#403=CARTESIAN_POINT('',(-2.289157887,12.131573233,3.3));
#404=DIRECTION('',(1.,0.,-0.));
#405=VECTOR('',#404,0.600153641);
#406=LINE('',#403,#405);
#407=EDGE_CURVE('',#402,#394,#406,.T.);
#408=ORIENTED_EDGE('',*,*,#407,.F.);
#409=CARTESIAN_POINT('',(-2.289157887,12.131573233,3.3));
#410=DIRECTION('',(0.,1.,0.));
#411=VECTOR('',#410,0.5);
#412=LINE('',#409,#411);
#413=EDGE_CURVE('',#402,#317,#412,.T.);
#414=ORIENTED_EDGE('',*,*,#413,.T.);
#415=ORIENTED_EDGE('',*,*,#335,.T.);
#416=EDGE_LOOP('',(#387,#388,#389,#390,#391,#392,#400,#408,#414,#415));
#417=FACE_BOUND('',#416,.T.);
#418=ADVANCED_FACE('',(#417),#386,.F.);
#419=CARTESIAN_POINT('',(-2.289157887,12.391573233,1.34));
#420=DIRECTION('',(-1.,0.,0.));
#421=DIRECTION('',(0.,0.,1.));
#422=AXIS2_PLACEMENT_3D('',#419,#420,#421);
#423=PLANE('',#422);
#424=ORIENTED_EDGE('',*,*,#354,.T.);
#425=ORIENTED_EDGE('',*,*,#322,.T.);
#426=ORIENTED_EDGE('',*,*,#413,.F.);
#427=CARTESIAN_POINT('',(-2.289157887,12.131573233,0.8));
#428=DIRECTION('',(0.,0.,1.));
#429=VECTOR('',#428,2.5);
#430=LINE('',#427,#429);
#431=EDGE_CURVE('',#349,#402,#430,.T.);
#432=ORIENTED_EDGE('',*,*,#431,.F.);
#433=EDGE_LOOP('',(#424,#425,#426,#432));
#434=FACE_BOUND('',#433,.T.);
#435=ADVANCED_FACE('',(#434),#423,.F.);
#436=CARTESIAN_POINT('',(-1.689004246,12.391573233,1.34));
#437=DIRECTION('',(1.,0.,0.));
#438=DIRECTION('',(0.,0.,-1.));
#439=AXIS2_PLACEMENT_3D('',#436,#437,#438);
#440=PLANE('',#439);
#441=ORIENTED_EDGE('',*,*,#167,.F.);
#442=ORIENTED_EDGE('',*,*,#368,.F.);
#443=CARTESIAN_POINT('',(-1.689004246,12.131573233,0.8));
#444=DIRECTION('',(0.,0.,1.));
#445=VECTOR('',#444,2.5);
#446=LINE('',#443,#445);
#447=EDGE_CURVE('',#357,#394,#446,.T.);
#448=ORIENTED_EDGE('',*,*,#447,.T.);
#449=ORIENTED_EDGE('',*,*,#399,.T.);
#450=EDGE_LOOP('',(#441,#442,#448,#449));
#451=FACE_BOUND('',#450,.T.);
#452=ADVANCED_FACE('',(#451),#440,.F.);
#453=CARTESIAN_POINT('',(-116.987920994,12.131573233,-428.81));
#454=DIRECTION('',(0.,-1.,0.));
#455=DIRECTION('',(1.,0.,0.));
#456=AXIS2_PLACEMENT_3D('',#453,#454,#455);
#457=PLANE('',#456);
#458=ORIENTED_EDGE('',*,*,#447,.F.);
#459=ORIENTED_EDGE('',*,*,#362,.F.);
#460=ORIENTED_EDGE('',*,*,#431,.T.);
#461=ORIENTED_EDGE('',*,*,#407,.T.);
#462=EDGE_LOOP('',(#458,#459,#460,#461));
#463=FACE_BOUND('',#462,.T.);
#464=ADVANCED_FACE('',(#463),#457,.F.);
#465=CARTESIAN_POINT('',(-0.680425602,10.706139136,1.531421356));
#466=DIRECTION('',(-0.707106781,0.,0.707106781));
#467=DIRECTION('',(0.,1.,0.));
#468=AXIS2_PLACEMENT_3D('',#465,#466,#467);
#469=PLANE('',#468);
#470=ORIENTED_EDGE('',*,*,#127,.F.);
#471=ORIENTED_EDGE('',*,*,#375,.F.);
#472=ORIENTED_EDGE('',*,*,#189,.F.);
#473=ORIENTED_EDGE('',*,*,#204,.F.);
#474=EDGE_LOOP('',(#470,#471,#472,#473));
#475=FACE_BOUND('',#474,.T.);
#476=ADVANCED_FACE('',(#475),#469,.F.);
#477=CARTESIAN_POINT('',(-341.664367374,11.299087355,-110.516913522));
#478=DIRECTION('',(0.,-1.,0.));
#479=DIRECTION('',(0.,0.,1.));
#480=AXIS2_PLACEMENT_3D('',#477,#478,#479);
#481=PLANE('',#480);
#482=ORIENTED_EDGE('',*,*,#66,.T.);
#483=ORIENTED_EDGE('',*,*,#73,.T.);
#484=EDGE_LOOP('',(#482,#483));
#485=FACE_BOUND('',#484,.T.);
#486=ADVANCED_FACE('',(#485),#481,.T.);
#487=CARTESIAN_POINT('',(-2.264367374,9.529131797,1.983086479));
#488=DIRECTION('',(0.,-1.,0.));
#489=DIRECTION('',(0.,0.,1.));
#490=AXIS2_PLACEMENT_3D('',#487,#488,#489);
#491=CYLINDRICAL_SURFACE('',#490,0.81);
#492=CARTESIAN_POINT('',(-2.264367374,9.639131797,2.793086479));
#493=VERTEX_POINT('',#492);
#494=CARTESIAN_POINT('',(-2.264367374,9.321741194,2.793086479));
#495=DIRECTION('',(-0.,1.,-0.));
#496=VECTOR('',#495,0.317390603);
#497=LINE('',#494,#496);
#498=EDGE_CURVE('',#86,#493,#497,.T.);
#499=ORIENTED_EDGE('',*,*,#498,.F.);
#500=ORIENTED_EDGE('',*,*,#92,.F.);
#501=ORIENTED_EDGE('',*,*,#99,.F.);
#502=ORIENTED_EDGE('',*,*,#498,.T.);
#503=CARTESIAN_POINT('',(-1.768264176,9.639131797,1.34278841));
#504=VERTEX_POINT('',#503);
#505=CARTESIAN_POINT('',(-2.264367374,9.639131797,1.983086479));
#506=DIRECTION('',(0.,-1.,0.));
#507=DIRECTION('',(0.,-0.,-1.));
#508=AXIS2_PLACEMENT_3D('',#505,#506,#507);
#509=CIRCLE('',#508,0.81);
#510=EDGE_CURVE('',#504,#493,#509,.T.);
#511=ORIENTED_EDGE('',*,*,#510,.F.);
#512=CARTESIAN_POINT('',(-2.264367374,9.639131797,1.983086479));
#513=DIRECTION('',(0.,-1.,0.));
#514=DIRECTION('',(0.,-0.,-1.));
#515=AXIS2_PLACEMENT_3D('',#512,#513,#514);
#516=CIRCLE('',#515,0.81);
#517=EDGE_CURVE('',#493,#504,#516,.T.);
#518=ORIENTED_EDGE('',*,*,#517,.F.);
#519=EDGE_LOOP('',(#499,#500,#501,#502,#511,#518));
#520=FACE_BOUND('',#519,.T.);
#521=ADVANCED_FACE('',(#520),#491,.F.);
#522=CARTESIAN_POINT('',(-0.264367374,9.639131797,2.033086479));
#523=DIRECTION('',(0.,-1.,0.));
#524=DIRECTION('',(-1.,0.,0.));
#525=AXIS2_PLACEMENT_3D('',#522,#523,#524);
#526=PLANE('',#525);
#527=ORIENTED_EDGE('',*,*,#49,.F.);
#528=ORIENTED_EDGE('',*,*,#56,.F.);
#529=EDGE_LOOP('',(#527,#528));
#530=FACE_BOUND('',#529,.T.);
#531=ORIENTED_EDGE('',*,*,#510,.T.);
#532=ORIENTED_EDGE('',*,*,#517,.T.);
#533=EDGE_LOOP('',(#531,#532));
#534=FACE_BOUND('',#533,.T.);
#535=ADVANCED_FACE('',(#530,#534),#526,.T.);
#536=CLOSED_SHELL('',(#77,#145,#193,#215,#246,#277,#308,#339,#381,#418,#435,#452,#464,#476,#486,#521,#535));
#537=MANIFOLD_SOLID_BREP('\X2\4E3B52D5593E81C2\X0\ (\X2\65E087BA7EB9\X0\-\X2\5C454E2D\X0\)',#536);
#538=COLOUR_RGB('',0.850980401,0.850980401,0.850980401);
#539=FILL_AREA_STYLE_COLOUR('',#538);
#540=FILL_AREA_STYLE('',(#539));
#541=SURFACE_STYLE_FILL_AREA(#540);
#542=SURFACE_SIDE_STYLE('',(#541));
#543=SURFACE_STYLE_USAGE(.BOTH.,#542);
#544=PRESENTATION_STYLE_ASSIGNMENT((#543));
#26=STYLED_ITEM('',(#544),#537);
#16=SHAPE_REPRESENTATION('\X2\4E3B52D5593E81C2\X0\ (\X2\65E087BA7EB9\X0\-\X2\5C454E2D\X0\)',(#15),#10);
#17=ADVANCED_BREP_SHAPE_REPRESENTATION('\X2\4E3B52D5593E81C2\X0\ (\X2\65E087BA7EB9\X0\-\X2\5C454E2D\X0\)',(#537),#10);
#552=SHAPE_REPRESENTATION_RELATIONSHIP('','',#16,#17);
#553=CARTESIAN_POINT('',(0.,0.,0.));
#554=DIRECTION('',(0.,0.,1.));
#555=DIRECTION('',(1.,0.,0.));
#556=AXIS2_PLACEMENT_3D('',#553,#554,#555);
#558=MAPPED_ITEM('',#557,#556);
#557=REPRESENTATION_MAP(#556,#16);
#559=APPLICATION_CONTEXT('Managed model based 3d engineering');
#560=APPLICATION_PROTOCOL_DEFINITION('international standard','ap242_managed_model_based_3d_engineering',2014,#559);
#561=PRODUCT_CONTEXT('',#559,'mechanical');
#562=PRODUCT_DEFINITION_CONTEXT('part definition',#559,'design');
#24=PRODUCT('\X2\4E3B52D5593E81C2\X0\ (\X2\65E087BA7EB9\X0\-\X2\5C454E2D\X0\)','\X2\4E3B52D5593E81C2\X0\ (\X2\65E087BA7EB9\X0\-\X2\5C454E2D\X0\)','',(#561));
#563=PRODUCT_RELATED_PRODUCT_CATEGORY('part','',(#24));
#564=PRODUCT_DEFINITION_FORMATION_WITH_SPECIFIED_SOURCE('','',#24,.NOT_KNOWN.);
#25=PRODUCT_DEFINITION('design','',#564,#562);
#23=PRODUCT_DEFINITION_SHAPE('','',#25);
#565=SHAPE_DEFINITION_REPRESENTATION(#23,#16);
#11=DRAUGHTING_MODEL('',(#558),#10);
#566=DESCRIPTIVE_REPRESENTATION_ITEM('KEY','C:\\Users\\Nalani\\AppData\\Local\\Packages\\Shapr3D.Shapr3D_j403pzjkqtqbj\\TempState\\a128c2e9-abaf-4958-a0d3-4bc57faab62e.tmp');
#567=PROPERTY_DEFINITION('KEY','',#25);
#568=REPRESENTATION('',(#566),#10);
#569=PROPERTY_DEFINITION_REPRESENTATION(#567,#568);
#570=GENERAL_PROPERTY('','KEY','');
#571=GENERAL_PROPERTY_ASSOCIATION('','',#570,#567);
#1=MECHANICAL_DESIGN_GEOMETRIC_PRESENTATION_REPRESENTATION('',(#26),#10);
ENDSEC;
END-ISO-10303-21;
