ISO-10303-21;
HEADER;

/* File generated by Shapr3D Version 26.123.11423.0 */

FILE_DESCRIPTION(('HOOPS Exchange Step'),'2;1');

FILE_NAME('C:\\Users\\Nalani\\AppData\\Local\\Packages\\Shapr3D.Shapr3D_j403pzjkqtqbj\\TempState\\export\\temp_export',
'2026-08-03T16:12:13+08:00',
('Nalani'),
('Shapr3D Limited'),
'HOOPS Exchange 2026.3',
'Shapr3D',
'Authorized');

FILE_SCHEMA( ('AP242_MANAGED_MODEL_BASED_3D_ENGINEERING_MIM_LF {1 0 10303 442 1 1 4}') );

ENDSEC;

DATA;
#3=(NAMED_UNIT(*)PLANE_ANGLE_UNIT()SI_UNIT($,.RADIAN.));
#4=PLANE_ANGLE_MEASURE_WITH_UNIT(PLANE_ANGLE_MEASURE(0.0174532925),#3);
#5=(CONVERSION_BASED_UNIT('DEGREE',#4)NAMED_UNIT(#6)PLANE_ANGLE_UNIT());
#6=DIMENSIONAL_EXPONENTS(0.,0.,0.,0.,0.,0.,0.);
#7=(NAMED_UNIT(*)SI_UNIT($,.STERADIAN.)SOLID_ANGLE_UNIT());
#8=(LENGTH_UNIT()NAMED_UNIT(*)SI_UNIT(.MILLI.,.METRE.));
#9=UNCERTAINTY_MEASURE_WITH_UNIT(LENGTH_MEASURE(1.000000E-05),#8,'DISTANCE_ACCURACY_VALUE','Maximum Tolerance applied to model');
#10=(GEOMETRIC_REPRESENTATION_CONTEXT(3)GLOBAL_UNCERTAINTY_ASSIGNED_CONTEXT((#9))GLOBAL_UNIT_ASSIGNED_CONTEXT((#8,#5,#7))REPRESENTATION_CONTEXT('','\X2\4FDD62A473BB7483\X0\'));
#12=CARTESIAN_POINT('',(0.,0.,0.));
#13=DIRECTION('',(0.,0.,1.));
#14=DIRECTION('',(1.,0.,0.));
#15=AXIS2_PLACEMENT_3D('',#12,#13,#14);
#27=CARTESIAN_POINT('',(-4.14,-0.1,0.32));
#28=DIRECTION('',(1.,0.,0.));
#29=DIRECTION('',(0.,0.,-1.));
#30=AXIS2_PLACEMENT_3D('',#27,#28,#29);
#31=PLANE('',#30);
#32=CARTESIAN_POINT('',(-4.14,-1.50705202,0.8));
#33=VERTEX_POINT('',#32);
#34=CARTESIAN_POINT('',(-4.14,1.50705202,0.8));
#35=VERTEX_POINT('',#34);
#36=CARTESIAN_POINT('',(-4.14,-1.50705202,0.8));
#37=DIRECTION('',(0.,1.,0.));
#38=VECTOR('',#37,3.01410404);
#39=LINE('',#36,#38);
#40=EDGE_CURVE('',#33,#35,#39,.T.);
#41=ORIENTED_EDGE('',*,*,#40,.F.);
#42=CARTESIAN_POINT('',(-4.14,-1.50705202,3.3));
#43=VERTEX_POINT('',#42);
#44=CARTESIAN_POINT('',(-4.14,-1.50705202,0.8));
#45=DIRECTION('',(0.,0.,1.));
#46=VECTOR('',#45,2.5);
#47=LINE('',#44,#46);
#48=EDGE_CURVE('',#33,#43,#47,.T.);
#49=ORIENTED_EDGE('',*,*,#48,.T.);
#50=CARTESIAN_POINT('',(-4.14,1.50705202,3.3));
#51=VERTEX_POINT('',#50);
#52=CARTESIAN_POINT('',(-4.14,-1.50705202,3.3));
#53=DIRECTION('',(0.,1.,0.));
#54=VECTOR('',#53,3.01410404);
#55=LINE('',#52,#54);
#56=EDGE_CURVE('',#43,#51,#55,.T.);
#57=ORIENTED_EDGE('',*,*,#56,.T.);
#58=CARTESIAN_POINT('',(-4.14,1.50705202,0.8));
#59=DIRECTION('',(0.,0.,1.));
#60=VECTOR('',#59,2.5);
#61=LINE('',#58,#60);
#62=EDGE_CURVE('',#35,#51,#61,.T.);
#63=ORIENTED_EDGE('',*,*,#62,.F.);
#64=EDGE_LOOP('',(#41,#49,#57,#63));
#65=FACE_BOUND('',#64,.T.);
#66=ADVANCED_FACE('',(#65),#31,.F.);
#67=CARTESIAN_POINT('',(0.16,0.,3.3));
#68=DIRECTION('',(0.,0.,-1.));
#69=DIRECTION('',(-1.,0.,0.));
#70=AXIS2_PLACEMENT_3D('',#67,#68,#69);
#71=PLANE('',#70);
#72=CARTESIAN_POINT('',(-3.94,-1.50705202,3.3));
#73=VERTEX_POINT('',#72);
#74=CARTESIAN_POINT('',(-3.94,-1.50705202,3.3));
#75=DIRECTION('',(-1.,0.,0.));
#76=VECTOR('',#75,0.2);
#77=LINE('',#74,#76);
#78=EDGE_CURVE('',#73,#43,#77,.T.);
#79=ORIENTED_EDGE('',*,*,#78,.F.);
#80=CARTESIAN_POINT('',(-3.94,1.50705202,3.3));
#81=VERTEX_POINT('',#80);
#82=CARTESIAN_POINT('',(-3.94,1.50705202,3.3));
#83=DIRECTION('',(0.,-1.,0.));
#84=VECTOR('',#83,3.01410404);
#85=LINE('',#82,#84);
#86=EDGE_CURVE('',#81,#73,#85,.T.);
#87=ORIENTED_EDGE('',*,*,#86,.F.);
#88=CARTESIAN_POINT('',(-3.94,1.50705202,3.3));
#89=DIRECTION('',(-1.,0.,0.));
#90=VECTOR('',#89,0.2);
#91=LINE('',#88,#90);
#92=EDGE_CURVE('',#81,#51,#91,.T.);
#93=ORIENTED_EDGE('',*,*,#92,.T.);
#94=ORIENTED_EDGE('',*,*,#56,.F.);
#95=EDGE_LOOP('',(#79,#87,#93,#94));
#96=FACE_BOUND('',#95,.T.);
#97=ADVANCED_FACE('',(#96),#71,.F.);
#98=CARTESIAN_POINT('',(-3.94,-0.1,0.32));
#99=DIRECTION('',(-1.,0.,0.));
#100=DIRECTION('',(0.,0.,1.));
#101=AXIS2_PLACEMENT_3D('',#98,#99,#100);
#102=PLANE('',#101);
#103=CARTESIAN_POINT('',(-3.94,-1.50705202,0.8));
#104=VERTEX_POINT('',#103);
#105=CARTESIAN_POINT('',(-3.94,-1.50705202,0.8));
#106=DIRECTION('',(-0.,-0.,1.));
#107=VECTOR('',#106,2.5);
#108=LINE('',#105,#107);
#109=EDGE_CURVE('',#104,#73,#108,.T.);
#110=ORIENTED_EDGE('',*,*,#109,.F.);
#111=CARTESIAN_POINT('',(-3.94,1.50705202,0.8));
#112=VERTEX_POINT('',#111);
#113=CARTESIAN_POINT('',(-3.94,1.50705202,0.8));
#114=DIRECTION('',(0.,-1.,0.));
#115=VECTOR('',#114,3.01410404);
#116=LINE('',#113,#115);
#117=EDGE_CURVE('',#112,#104,#116,.T.);
#118=ORIENTED_EDGE('',*,*,#117,.F.);
#119=CARTESIAN_POINT('',(-3.94,1.50705202,3.3));
#120=DIRECTION('',(-0.,-0.,-1.));
#121=VECTOR('',#120,2.5);
#122=LINE('',#119,#121);
#123=EDGE_CURVE('',#81,#112,#122,.T.);
#124=ORIENTED_EDGE('',*,*,#123,.F.);
#125=ORIENTED_EDGE('',*,*,#86,.T.);
#126=EDGE_LOOP('',(#110,#118,#124,#125));
#127=FACE_BOUND('',#126,.T.);
#128=ADVANCED_FACE('',(#127),#102,.F.);
#129=CARTESIAN_POINT('',(0.16,0.,0.8));
#130=DIRECTION('',(0.,0.,-1.));
#131=DIRECTION('',(-1.,0.,0.));
#132=AXIS2_PLACEMENT_3D('',#129,#130,#131);
#133=PLANE('',#132);
#134=CARTESIAN_POINT('',(-4.14,-1.50705202,0.8));
#135=DIRECTION('',(1.,0.,-0.));
#136=VECTOR('',#135,0.2);
#137=LINE('',#134,#136);
#138=EDGE_CURVE('',#33,#104,#137,.T.);
#139=ORIENTED_EDGE('',*,*,#138,.F.);
#140=ORIENTED_EDGE('',*,*,#40,.T.);
#141=CARTESIAN_POINT('',(-4.14,1.50705202,0.8));
#142=DIRECTION('',(1.,0.,-0.));
#143=VECTOR('',#142,0.2);
#144=LINE('',#141,#143);
#145=EDGE_CURVE('',#35,#112,#144,.T.);
#146=ORIENTED_EDGE('',*,*,#145,.T.);
#147=ORIENTED_EDGE('',*,*,#117,.T.);
#148=EDGE_LOOP('',(#139,#140,#146,#147));
#149=FACE_BOUND('',#148,.T.);
#150=ADVANCED_FACE('',(#149),#133,.T.);
#151=CARTESIAN_POINT('',(-4.469111695,1.50705202,-1.));
#152=DIRECTION('',(0.,1.,0.));
#153=DIRECTION('',(0.,0.,1.));
#154=AXIS2_PLACEMENT_3D('',#151,#152,#153);
#155=PLANE('',#154);
#156=ORIENTED_EDGE('',*,*,#62,.T.);
#157=ORIENTED_EDGE('',*,*,#92,.F.);
#158=ORIENTED_EDGE('',*,*,#123,.T.);
#159=ORIENTED_EDGE('',*,*,#145,.F.);
#160=EDGE_LOOP('',(#156,#157,#158,#159));
#161=FACE_BOUND('',#160,.T.);
#162=ADVANCED_FACE('',(#161),#155,.T.);
#163=CARTESIAN_POINT('',(-4.250744258,-1.50705202,0.51));
#164=DIRECTION('',(0.,1.,0.));
#165=DIRECTION('',(0.,0.,1.));
#166=AXIS2_PLACEMENT_3D('',#163,#164,#165);
#167=PLANE('',#166);
#168=ORIENTED_EDGE('',*,*,#138,.T.);
#169=ORIENTED_EDGE('',*,*,#109,.T.);
#170=ORIENTED_EDGE('',*,*,#78,.T.);
#171=ORIENTED_EDGE('',*,*,#48,.F.);
#172=EDGE_LOOP('',(#168,#169,#170,#171));
#173=FACE_BOUND('',#172,.T.);
#174=ADVANCED_FACE('',(#173),#167,.F.);
#175=CLOSED_SHELL('',(#66,#97,#128,#150,#162,#174));
#176=MANIFOLD_SOLID_BREP('\X2\4FDD62A473BB7483\X0\',#175);
#177=COLOUR_RGB('',0.352941185,0.352941185,0.352941185);
#178=FILL_AREA_STYLE_COLOUR('',#177);
#179=FILL_AREA_STYLE('',(#178));
#180=SURFACE_STYLE_FILL_AREA(#179);
#181=SURFACE_SIDE_STYLE('',(#180));
#182=SURFACE_STYLE_USAGE(.BOTH.,#181);
#183=PRESENTATION_STYLE_ASSIGNMENT((#182));
#26=STYLED_ITEM('',(#183),#176);
#16=SHAPE_REPRESENTATION('\X2\4FDD62A473BB7483\X0\',(#15),#10);
#17=ADVANCED_BREP_SHAPE_REPRESENTATION('\X2\4FDD62A473BB7483\X0\',(#176),#10);
#191=SHAPE_REPRESENTATION_RELATIONSHIP('','',#16,#17);
#192=CARTESIAN_POINT('',(0.,0.,0.));
#193=DIRECTION('',(0.,0.,1.));
#194=DIRECTION('',(1.,0.,0.));
#195=AXIS2_PLACEMENT_3D('',#192,#193,#194);
#197=MAPPED_ITEM('',#196,#195);
#196=REPRESENTATION_MAP(#195,#16);
#198=APPLICATION_CONTEXT('Managed model based 3d engineering');
#199=APPLICATION_PROTOCOL_DEFINITION('international standard','ap242_managed_model_based_3d_engineering',2014,#198);
#200=PRODUCT_CONTEXT('',#198,'mechanical');
#201=PRODUCT_DEFINITION_CONTEXT('part definition',#198,'design');
#24=PRODUCT('\X2\4FDD62A473BB7483\X0\','\X2\4FDD62A473BB7483\X0\','',(#200));
#202=PRODUCT_RELATED_PRODUCT_CATEGORY('part','',(#24));
#203=PRODUCT_DEFINITION_FORMATION_WITH_SPECIFIED_SOURCE('','',#24,.NOT_KNOWN.);
#25=PRODUCT_DEFINITION('design','',#203,#201);
#23=PRODUCT_DEFINITION_SHAPE('','',#25);
#204=SHAPE_DEFINITION_REPRESENTATION(#23,#16);
#11=DRAUGHTING_MODEL('',(#197),#10);
#205=DESCRIPTIVE_REPRESENTATION_ITEM('KEY','C:\\Users\\Nalani\\AppData\\Local\\Packages\\Shapr3D.Shapr3D_j403pzjkqtqbj\\TempState\\9e9e55f5-6e67-48aa-b9ab-8c82b3afcf92.tmp');
#206=PROPERTY_DEFINITION('KEY','',#25);
#207=REPRESENTATION('',(#205),#10);
#208=PROPERTY_DEFINITION_REPRESENTATION(#206,#207);
#209=GENERAL_PROPERTY('','KEY','');
#210=GENERAL_PROPERTY_ASSOCIATION('','',#209,#206);
#1=MECHANICAL_DESIGN_GEOMETRIC_PRESENTATION_REPRESENTATION('',(#26),#10);
ENDSEC;
END-ISO-10303-21;
