ISO-10303-21;
HEADER;

/* File generated by Shapr3D Version 26.123.11423.0 */

FILE_DESCRIPTION(('HOOPS Exchange Step'),'2;1');

FILE_NAME('C:\\Users\\Nalani\\AppData\\Local\\Packages\\Shapr3D.Shapr3D_j403pzjkqtqbj\\TempState\\export\\temp_export',
'2026-08-03T16:12:13+08:00',
('Nalani'),
('Shapr3D Limited'),
'HOOPS Exchange 2026.3',
'Shapr3D',
'Authorized');

FILE_SCHEMA( ('AP242_MANAGED_MODEL_BASED_3D_ENGINEERING_MIM_LF {1 0 10303 442 1 1 4}') );

ENDSEC;

DATA;
#3=(NAMED_UNIT(*)PLANE_ANGLE_UNIT()SI_UNIT($,.RADIAN.));
#4=PLANE_ANGLE_MEASURE_WITH_UNIT(PLANE_ANGLE_MEASURE(0.0174532925),#3);
#5=(CONVERSION_BASED_UNIT('DEGREE',#4)NAMED_UNIT(#6)PLANE_ANGLE_UNIT());
#6=DIMENSIONAL_EXPONENTS(0.,0.,0.,0.,0.,0.,0.);
#7=(NAMED_UNIT(*)SI_UNIT($,.STERADIAN.)SOLID_ANGLE_UNIT());
#8=(LENGTH_UNIT()NAMED_UNIT(*)SI_UNIT(.MILLI.,.METRE.));
#9=UNCERTAINTY_MEASURE_WITH_UNIT(LENGTH_MEASURE(1.000000E-05),#8,'DISTANCE_ACCURACY_VALUE','Maximum Tolerance applied to model');
#10=(GEOMETRIC_REPRESENTATION_CONTEXT(3)GLOBAL_UNCERTAINTY_ASSIGNED_CONTEXT((#9))GLOBAL_UNIT_ASSIGNED_CONTEXT((#8,#5,#7))REPRESENTATION_CONTEXT('','\X2\53619EC3\X0\'));
#12=CARTESIAN_POINT('',(0.,0.,0.));
#13=DIRECTION('',(0.,0.,1.));
#14=DIRECTION('',(1.,0.,0.));
#15=AXIS2_PLACEMENT_3D('',#12,#13,#14);
#27=CARTESIAN_POINT('',(-4.847440667,-5.170868203,1.51314227));
#28=CARTESIAN_POINT('',(-4.847440667,-5.470868203,1.51314227));
#29=CARTESIAN_POINT('',(-4.784846281,-5.170868203,1.624145622));
#30=CARTESIAN_POINT('',(-4.784846281,-5.470868203,1.624145622));
#31=CARTESIAN_POINT('',(-4.796615945,-5.170868204,1.726713113));
#32=CARTESIAN_POINT('',(-4.796615945,-5.470868203,1.726713112));
#33=CARTESIAN_POINT('',(-4.960448587,-5.170868203,1.818030613));
#34=CARTESIAN_POINT('',(-4.960448587,-5.470868204,1.818030614));
#35=B_SPLINE_SURFACE_WITH_KNOTS('',3,1,((#27,#28),(#29,#30),(#31,#32),(#33,#34)),.UNSPECIFIED.,.F.,.F.,.U.,(4,4),(2,2),(0.061647246,0.89574744),(0.,1.),.UNSPECIFIED.);
#36=CARTESIAN_POINT('',(-4.847440677,-5.170868198,1.513142253));
#37=VERTEX_POINT('',#36);
#38=CARTESIAN_POINT('',(-4.960448591,-5.170868198,1.818030616));
#39=VERTEX_POINT('',#38);
#40=CARTESIAN_POINT('',(-4.847440687,-5.170868194,1.513142236));
#41=CARTESIAN_POINT('',(-4.784846277,-5.170868194,1.624145592));
#42=CARTESIAN_POINT('',(-4.796615921,-5.170868194,1.726713102));
#43=CARTESIAN_POINT('',(-4.960448593,-5.170868194,1.818030617));
#44=B_SPLINE_CURVE_WITH_KNOTS('',3,(#40,#41,#42,#43),.UNSPECIFIED.,.F.,.F.,(4,4),(0.061647118,0.895747455),.UNSPECIFIED.);
#45=EDGE_CURVE('',#37,#39,#44,.T.);
#46=ORIENTED_EDGE('',*,*,#45,.F.);
#47=CARTESIAN_POINT('',(-4.847440682,-5.470868199,1.513142244));
#48=VERTEX_POINT('',#47);
#49=CARTESIAN_POINT('',(-4.847440677,-5.170868198,1.513142253));
#50=DIRECTION('',(0.,-1.,-0.));
#51=VECTOR('',#50,0.3);
#52=LINE('',#49,#51);
#53=EDGE_CURVE('',#37,#48,#52,.T.);
#54=ORIENTED_EDGE('',*,*,#53,.T.);
#55=CARTESIAN_POINT('',(-4.96044859,-5.470868199,1.818030615));
#56=VERTEX_POINT('',#55);
#57=CARTESIAN_POINT('',(-4.847440687,-5.470868194,1.513142236));
#58=CARTESIAN_POINT('',(-4.784846277,-5.470868194,1.624145593));
#59=CARTESIAN_POINT('',(-4.796615921,-5.470868194,1.726713102));
#60=CARTESIAN_POINT('',(-4.960448593,-5.470868194,1.818030616));
#61=B_SPLINE_CURVE_WITH_KNOTS('',3,(#57,#58,#59,#60),.UNSPECIFIED.,.F.,.F.,(4,4),(0.061647118,0.895747455),.UNSPECIFIED.);
#62=EDGE_CURVE('',#48,#56,#61,.T.);
#63=ORIENTED_EDGE('',*,*,#62,.T.);
#64=CARTESIAN_POINT('',(-4.96044859,-5.470868199,1.818030615));
#65=DIRECTION('',(-0.,1.,0.));
#66=VECTOR('',#65,0.3);
#67=LINE('',#64,#66);
#68=EDGE_CURVE('',#56,#39,#67,.T.);
#69=ORIENTED_EDGE('',*,*,#68,.T.);
#70=EDGE_LOOP('',(#46,#54,#63,#69));
#71=FACE_BOUND('',#70,.T.);
#72=ADVANCED_FACE('',(#71),#35,.F.);
#73=CARTESIAN_POINT('',(-5.027152543,-5.170868203,1.930566471));
#74=CARTESIAN_POINT('',(-5.027152543,-5.470868198,1.930566472));
#75=CARTESIAN_POINT('',(-5.028134573,-5.170868203,2.056167473));
#76=CARTESIAN_POINT('',(-5.028134573,-5.470868199,2.056167474));
#77=CARTESIAN_POINT('',(-5.050473163,-5.170868203,2.162019604));
#78=CARTESIAN_POINT('',(-5.050473163,-5.470868199,2.162019605));
#79=CARTESIAN_POINT('',(-5.098454122,-5.170868203,2.236928569));
#80=CARTESIAN_POINT('',(-5.098454122,-5.470868199,2.23692857));
#81=B_SPLINE_SURFACE_WITH_KNOTS('',3,1,((#73,#74),(#75,#76),(#77,#78),(#79,#80)),.UNSPECIFIED.,.F.,.F.,.U.,(4,4),(2,2),(0.13172988,0.780734008),(0.,0.999999983),.UNSPECIFIED.);
#82=CARTESIAN_POINT('',(-5.027152543,-5.170868198,1.930566471));
#83=VERTEX_POINT('',#82);
#84=CARTESIAN_POINT('',(-5.098453178,-5.170868199,2.236927096));
#85=VERTEX_POINT('',#84);
#86=CARTESIAN_POINT('',(-5.027152543,-5.170868194,1.93056645));
#87=CARTESIAN_POINT('',(-5.02756819,-5.170868194,1.983727389));
#88=CARTESIAN_POINT('',(-5.031619764,-5.170868194,2.036623787));
#89=CARTESIAN_POINT('',(-5.042179074,-5.170868194,2.088782407));
#90=CARTESIAN_POINT('',(-5.052738383,-5.170868194,2.140941027));
#91=CARTESIAN_POINT('',(-5.069669343,-5.170868194,2.191988));
#92=CARTESIAN_POINT('',(-5.098452234,-5.170868194,2.236925622));
#93=B_SPLINE_CURVE_WITH_KNOTS('',3,(#86,#87,#88,#89,#90,#91,#92),.UNSPECIFIED.,.F.,.F.,(4,3,4),(0.,0.00015893,0.000317861),.UNSPECIFIED.);
#94=EDGE_CURVE('',#83,#85,#93,.T.);
#95=ORIENTED_EDGE('',*,*,#94,.F.);
#96=CARTESIAN_POINT('',(-5.027152543,-5.470868199,1.930566461));
#97=VERTEX_POINT('',#96);
#98=CARTESIAN_POINT('',(-5.027152543,-5.170868198,1.930566471));
#99=DIRECTION('',(0.,-1.,-0.));
#100=VECTOR('',#99,0.3);
#101=LINE('',#98,#100);
#102=EDGE_CURVE('',#83,#97,#101,.T.);
#103=ORIENTED_EDGE('',*,*,#102,.T.);
#104=CARTESIAN_POINT('',(-5.098454122,-5.470868199,2.23692857));
#105=VERTEX_POINT('',#104);
#106=CARTESIAN_POINT('',(-5.027152543,-5.470868194,1.93056645));
#107=CARTESIAN_POINT('',(-5.02756819,-5.470868194,1.98372739));
#108=CARTESIAN_POINT('',(-5.031619764,-5.470868194,2.036623787));
#109=CARTESIAN_POINT('',(-5.042179074,-5.470868194,2.088782407));
#110=CARTESIAN_POINT('',(-5.052738383,-5.470868194,2.140941027));
#111=CARTESIAN_POINT('',(-5.069669343,-5.470868194,2.191988));
#112=CARTESIAN_POINT('',(-5.098452234,-5.470868194,2.236925622));
#113=B_SPLINE_CURVE_WITH_KNOTS('',3,(#106,#107,#108,#109,#110,#111,#112),.UNSPECIFIED.,.F.,.F.,(4,3,4),(0.,0.00015893,0.000317861),.UNSPECIFIED.);
#114=EDGE_CURVE('',#97,#105,#113,.T.);
#115=ORIENTED_EDGE('',*,*,#114,.T.);
#116=CARTESIAN_POINT('',(-5.098454122,-5.470868199,2.23692857));
#117=DIRECTION('',(-0.,1.,0.));
#118=VECTOR('',#117,0.3);
#119=LINE('',#116,#118);
#120=EDGE_CURVE('',#105,#85,#119,.T.);
#121=ORIENTED_EDGE('',*,*,#120,.T.);
#122=EDGE_LOOP('',(#95,#103,#115,#121));
#123=FACE_BOUND('',#122,.T.);
#124=ADVANCED_FACE('',(#123),#81,.F.);
#125=CARTESIAN_POINT('',(-4.982365813,-5.170868203,2.758457828));
#126=DIRECTION('',(0.934685076,0.,-0.355476876));
#127=DIRECTION('',(0.355476876,0.,0.934685076));
#128=AXIS2_PLACEMENT_3D('',#125,#126,#127);
#129=PLANE('',#128);
#130=CARTESIAN_POINT('',(-5.116050766,-5.470868203,2.406948801));
#131=VERTEX_POINT('',#130);
#132=CARTESIAN_POINT('',(-4.892829911,-5.470868203,2.993882062));
#133=VERTEX_POINT('',#132);
#134=CARTESIAN_POINT('',(-5.116050766,-5.470868204,2.406948801));
#135=DIRECTION('',(0.355476876,0.,0.934685076));
#136=VECTOR('',#135,0.627947612);
#137=LINE('',#134,#136);
#138=EDGE_CURVE('',#131,#133,#137,.T.);
#139=ORIENTED_EDGE('',*,*,#138,.T.);
#140=CARTESIAN_POINT('',(-4.89282991,-5.170868199,2.993882062));
#141=VERTEX_POINT('',#140);
#142=CARTESIAN_POINT('',(-4.892829911,-5.470868203,2.993882062));
#143=DIRECTION('',(-0.,1.,-0.));
#144=VECTOR('',#143,0.300000005);
#145=LINE('',#142,#144);
#146=EDGE_CURVE('',#133,#141,#145,.T.);
#147=ORIENTED_EDGE('',*,*,#146,.T.);
#148=CARTESIAN_POINT('',(-5.116050766,-5.170868199,2.406948801));
#149=VERTEX_POINT('',#148);
#150=CARTESIAN_POINT('',(-5.116050766,-5.170868194,2.406948801));
#151=DIRECTION('',(0.355476877,0.,0.934685075));
#152=VECTOR('',#151,0.627947612);
#153=LINE('',#150,#152);
#154=EDGE_CURVE('',#149,#141,#153,.T.);
#155=ORIENTED_EDGE('',*,*,#154,.F.);
#156=CARTESIAN_POINT('',(-5.116050766,-5.170868199,2.406948801));
#157=DIRECTION('',(0.,-1.,0.));
#158=VECTOR('',#157,0.300000005);
#159=LINE('',#156,#158);
#160=EDGE_CURVE('',#149,#131,#159,.T.);
#161=ORIENTED_EDGE('',*,*,#160,.T.);
#162=EDGE_LOOP('',(#139,#147,#155,#161));
#163=FACE_BOUND('',#162,.T.);
#164=ADVANCED_FACE('',(#163),#129,.F.);
#165=CARTESIAN_POINT('',(-5.664367374,-5.170868203,1.983086479));
#166=DIRECTION('',(0.,-1.,-0.));
#167=DIRECTION('',(-0.036445974,-0.,0.999335625));
#168=AXIS2_PLACEMENT_3D('',#165,#166,#167);
#169=CYLINDRICAL_SURFACE('',#168,1.5);
#170=CARTESIAN_POINT('',(-4.615005803,-5.470868203,3.054926156));
#171=VERTEX_POINT('',#170);
#172=CARTESIAN_POINT('',(-6.789017768,-5.470868203,2.975639495));
#173=VERTEX_POINT('',#172);
#174=CARTESIAN_POINT('',(-5.664367374,-5.470868203,1.983086479));
#175=DIRECTION('',(-0.,1.,0.));
#176=DIRECTION('',(0.036597079,0.,-0.999330103));
#177=AXIS2_PLACEMENT_3D('',#174,#175,#176);
#178=CIRCLE('',#177,1.5);
#179=EDGE_CURVE('',#171,#173,#178,.T.);
#180=ORIENTED_EDGE('',*,*,#179,.T.);
#181=CARTESIAN_POINT('',(-6.789017768,-5.170868203,2.975639495));
#182=VERTEX_POINT('',#181);
#183=CARTESIAN_POINT('',(-6.789017768,-5.470868203,2.975639495));
#184=DIRECTION('',(-0.,1.,0.));
#185=VECTOR('',#184,0.3);
#186=LINE('',#183,#185);
#187=EDGE_CURVE('',#173,#182,#186,.T.);
#188=ORIENTED_EDGE('',*,*,#187,.T.);
#189=CARTESIAN_POINT('',(-4.615005803,-5.170868203,3.054926156));
#190=VERTEX_POINT('',#189);
#191=CARTESIAN_POINT('',(-5.664367374,-5.170868203,1.983086479));
#192=DIRECTION('',(-0.,1.,0.));
#193=DIRECTION('',(0.036597079,0.,-0.999330103));
#194=AXIS2_PLACEMENT_3D('',#191,#192,#193);
#195=CIRCLE('',#194,1.5);
#196=EDGE_CURVE('',#190,#182,#195,.T.);
#197=ORIENTED_EDGE('',*,*,#196,.F.);
#198=CARTESIAN_POINT('',(-4.615005803,-5.170868203,3.054926156));
#199=DIRECTION('',(0.,-1.,-0.));
#200=VECTOR('',#199,0.3);
#201=LINE('',#198,#200);
#202=EDGE_CURVE('',#190,#171,#201,.T.);
#203=ORIENTED_EDGE('',*,*,#202,.T.);
#204=EDGE_LOOP('',(#180,#188,#197,#203));
#205=FACE_BOUND('',#204,.T.);
#206=ADVANCED_FACE('',(#205),#169,.T.);
#207=CARTESIAN_POINT('',(-6.401037898,-5.170868203,2.706718567));
#208=DIRECTION('',(0.906307787,-0.,0.422618262));
#209=DIRECTION('',(-0.422618262,0.,0.906307787));
#210=AXIS2_PLACEMENT_3D('',#207,#208,#209);
#211=PLANE('',#210);
#212=CARTESIAN_POINT('',(-6.242102938,-5.170868203,2.365881448));
#213=VERTEX_POINT('',#212);
#214=CARTESIAN_POINT('',(-6.507485067,-5.170868203,2.934995258));
#215=VERTEX_POINT('',#214);
#216=CARTESIAN_POINT('',(-6.242102939,-5.170868203,2.365881448));
#217=DIRECTION('',(-0.422618262,0.,0.906307787));
#218=VECTOR('',#217,0.627947611);
#219=LINE('',#216,#218);
#220=EDGE_CURVE('',#213,#215,#219,.T.);
#221=ORIENTED_EDGE('',*,*,#220,.T.);
#222=CARTESIAN_POINT('',(-6.507485066,-5.470868199,2.934995258));
#223=VERTEX_POINT('',#222);
#224=CARTESIAN_POINT('',(-6.507485067,-5.170868203,2.934995258));
#225=DIRECTION('',(-0.,-1.,-0.));
#226=VECTOR('',#225,0.299999995);
#227=LINE('',#224,#226);
#228=EDGE_CURVE('',#215,#223,#227,.T.);
#229=ORIENTED_EDGE('',*,*,#228,.T.);
#230=CARTESIAN_POINT('',(-6.242102938,-5.470868199,2.365881448));
#231=VERTEX_POINT('',#230);
#232=CARTESIAN_POINT('',(-6.242102938,-5.470868194,2.365881448));
#233=DIRECTION('',(-0.422618262,0.,0.906307787));
#234=VECTOR('',#233,0.627947612);
#235=LINE('',#232,#234);
#236=EDGE_CURVE('',#231,#223,#235,.T.);
#237=ORIENTED_EDGE('',*,*,#236,.F.);
#238=CARTESIAN_POINT('',(-6.242102939,-5.470868199,2.365881448));
#239=DIRECTION('',(0.,1.,0.));
#240=VECTOR('',#239,0.299999995);
#241=LINE('',#238,#240);
#242=EDGE_CURVE('',#231,#213,#241,.T.);
#243=ORIENTED_EDGE('',*,*,#242,.T.);
#244=EDGE_LOOP('',(#221,#229,#237,#243));
#245=FACE_BOUND('',#244,.T.);
#246=ADVANCED_FACE('',(#245),#211,.T.);
#247=CARTESIAN_POINT('',(-6.296063626,-5.170868203,1.884289025));
#248=CARTESIAN_POINT('',(-6.296063626,-5.470868199,1.884289025));
#249=CARTESIAN_POINT('',(-6.304233424,-5.170868203,2.009627888));
#250=CARTESIAN_POINT('',(-6.304233424,-5.470868199,2.009627887));
#251=CARTESIAN_POINT('',(-6.289664822,-5.170868204,2.116826031));
#252=CARTESIAN_POINT('',(-6.289664822,-5.470868198,2.116826032));
#253=CARTESIAN_POINT('',(-6.247267962,-5.170868203,2.195031094));
#254=CARTESIAN_POINT('',(-6.247267962,-5.470868199,2.195031095));
#255=B_SPLINE_SURFACE_WITH_KNOTS('',3,1,((#247,#248),(#249,#250),(#251,#252),(#253,#254)),.UNSPECIFIED.,.F.,.F.,.U.,(4,4),(2,2),(0.13172988,0.780734008),(0.,0.999999985),.UNSPECIFIED.);
#256=CARTESIAN_POINT('',(-6.296063626,-5.470868199,1.884289025));
#257=VERTEX_POINT('',#256);
#258=CARTESIAN_POINT('',(-6.247268797,-5.470868199,2.195029556));
#259=VERTEX_POINT('',#258);
#260=CARTESIAN_POINT('',(-6.296063625,-5.470868194,1.884289004));
#261=CARTESIAN_POINT('',(-6.299521512,-5.470868194,1.937338992));
#262=CARTESIAN_POINT('',(-6.299333861,-5.470868194,1.990389995));
#263=CARTESIAN_POINT('',(-6.292602021,-5.470868194,2.043179227));
#264=CARTESIAN_POINT('',(-6.285870181,-5.470868194,2.095968459));
#265=CARTESIAN_POINT('',(-6.272702642,-5.470868194,2.14811313));
#266=CARTESIAN_POINT('',(-6.247269631,-5.470868194,2.195028017));
#267=B_SPLINE_CURVE_WITH_KNOTS('',3,(#260,#261,#262,#263,#264,#265,#266),.UNSPECIFIED.,.F.,.F.,(4,3,4),(0.,0.00015893,0.000317861),.UNSPECIFIED.);
#268=EDGE_CURVE('',#257,#259,#267,.T.);
#269=ORIENTED_EDGE('',*,*,#268,.F.);
#270=CARTESIAN_POINT('',(-6.296063626,-5.170868198,1.884289015));
#271=VERTEX_POINT('',#270);
#272=CARTESIAN_POINT('',(-6.296063626,-5.470868199,1.884289025));
#273=DIRECTION('',(-0.,1.,0.));
#274=VECTOR('',#273,0.3);
#275=LINE('',#272,#274);
#276=EDGE_CURVE('',#257,#271,#275,.T.);
#277=ORIENTED_EDGE('',*,*,#276,.T.);
#278=CARTESIAN_POINT('',(-6.247267962,-5.170868198,2.195031094));
#279=VERTEX_POINT('',#278);
#280=CARTESIAN_POINT('',(-6.296063625,-5.170868194,1.884289004));
#281=CARTESIAN_POINT('',(-6.299521512,-5.170868194,1.937338992));
#282=CARTESIAN_POINT('',(-6.299333861,-5.170868194,1.990389995));
#283=CARTESIAN_POINT('',(-6.292602021,-5.170868194,2.043179227));
#284=CARTESIAN_POINT('',(-6.285870181,-5.170868194,2.095968458));
#285=CARTESIAN_POINT('',(-6.272702642,-5.170868194,2.14811313));
#286=CARTESIAN_POINT('',(-6.247269631,-5.170868194,2.195028017));
#287=B_SPLINE_CURVE_WITH_KNOTS('',3,(#280,#281,#282,#283,#284,#285,#286),.UNSPECIFIED.,.F.,.F.,(4,3,4),(0.,0.00015893,0.000317861),.UNSPECIFIED.);
#288=EDGE_CURVE('',#271,#279,#287,.T.);
#289=ORIENTED_EDGE('',*,*,#288,.T.);
#290=CARTESIAN_POINT('',(-6.247267962,-5.170868198,2.195031094));
#291=DIRECTION('',(0.,-1.,-0.));
#292=VECTOR('',#291,0.3);
#293=LINE('',#290,#292);
#294=EDGE_CURVE('',#279,#259,#293,.T.);
#295=ORIENTED_EDGE('',*,*,#294,.T.);
#296=EDGE_LOOP('',(#269,#277,#289,#295));
#297=FACE_BOUND('',#296,.T.);
#298=ADVANCED_FACE('',(#297),#255,.T.);
#299=CARTESIAN_POINT('',(-6.444891417,-5.170868204,1.454882898));
#300=CARTESIAN_POINT('',(-6.444891417,-5.470868199,1.454882898));
#301=CARTESIAN_POINT('',(-6.515405399,-5.170868203,1.561031767));
#302=CARTESIAN_POINT('',(-6.515405399,-5.470868199,1.561031768));
#303=CARTESIAN_POINT('',(-6.511138388,-5.170868204,1.664184125));
#304=CARTESIAN_POINT('',(-6.511138388,-5.470868198,1.664184125));
#305=CARTESIAN_POINT('',(-6.354392864,-5.170868203,1.767193183));
#306=CARTESIAN_POINT('',(-6.354392864,-5.470868199,1.767193182));
#307=B_SPLINE_SURFACE_WITH_KNOTS('',3,1,((#299,#300),(#301,#302),(#303,#304),(#305,#306)),.UNSPECIFIED.,.F.,.F.,.U.,(4,4),(2,2),(0.061647204,0.895747445),(0.,0.999999986),.UNSPECIFIED.);
#308=CARTESIAN_POINT('',(-6.444891417,-5.470868199,1.454882898));
#309=VERTEX_POINT('',#308);
#310=CARTESIAN_POINT('',(-6.354392863,-5.470868199,1.767193184));
#311=VERTEX_POINT('',#310);
#312=CARTESIAN_POINT('',(-6.444891406,-5.470868194,1.454882882));
#313=CARTESIAN_POINT('',(-6.515405402,-5.470868194,1.561031748));
#314=CARTESIAN_POINT('',(-6.511138404,-5.470868194,1.664184117));
#315=CARTESIAN_POINT('',(-6.354392861,-5.470868194,1.767193184));
#316=B_SPLINE_CURVE_WITH_KNOTS('',3,(#312,#313,#314,#315),.UNSPECIFIED.,.F.,.F.,(4,4),(0.061647118,0.895747455),.UNSPECIFIED.);
#317=EDGE_CURVE('',#309,#311,#316,.T.);
#318=ORIENTED_EDGE('',*,*,#317,.F.);
#319=CARTESIAN_POINT('',(-6.444891411,-5.170868199,1.45488289));
#320=VERTEX_POINT('',#319);
#321=CARTESIAN_POINT('',(-6.444891417,-5.470868199,1.454882898));
#322=DIRECTION('',(-0.,1.,0.));
#323=VECTOR('',#322,0.3);
#324=LINE('',#321,#323);
#325=EDGE_CURVE('',#309,#320,#324,.T.);
#326=ORIENTED_EDGE('',*,*,#325,.T.);
#327=CARTESIAN_POINT('',(-6.354392864,-5.170868198,1.767193183));
#328=VERTEX_POINT('',#327);
#329=CARTESIAN_POINT('',(-6.444891405,-5.170868194,1.454882882));
#330=CARTESIAN_POINT('',(-6.515405402,-5.170868194,1.561031747));
#331=CARTESIAN_POINT('',(-6.511138404,-5.170868194,1.664184117));
#332=CARTESIAN_POINT('',(-6.354392861,-5.170868194,1.767193184));
#333=B_SPLINE_CURVE_WITH_KNOTS('',3,(#329,#330,#331,#332),.UNSPECIFIED.,.F.,.F.,(4,4),(0.061647118,0.895747455),.UNSPECIFIED.);
#334=EDGE_CURVE('',#320,#328,#333,.T.);
#335=ORIENTED_EDGE('',*,*,#334,.T.);
#336=CARTESIAN_POINT('',(-6.354392864,-5.170868198,1.767193183));
#337=DIRECTION('',(0.,-1.,-0.));
#338=VECTOR('',#337,0.3);
#339=LINE('',#336,#338);
#340=EDGE_CURVE('',#328,#311,#339,.T.);
#341=ORIENTED_EDGE('',*,*,#340,.T.);
#342=EDGE_LOOP('',(#318,#326,#335,#341));
#343=FACE_BOUND('',#342,.T.);
#344=ADVANCED_FACE('',(#343),#307,.T.);
#345=CARTESIAN_POINT('',(-6.373184974,-5.170868204,1.381792834));
#346=DIRECTION('',(0.669816844,0.,0.74252636));
#347=DIRECTION('',(-0.74252636,0.,0.669816844));
#348=AXIS2_PLACEMENT_3D('',#345,#346,#347);
#349=PLANE('',#348);
#350=CARTESIAN_POINT('',(-6.211423179,-5.470868198,1.235871044));
#351=VERTEX_POINT('',#350);
#352=CARTESIAN_POINT('',(-6.412262467,-5.470868199,1.417043788));
#353=VERTEX_POINT('',#352);
#354=CARTESIAN_POINT('',(-6.211423179,-5.470868194,1.235871044));
#355=DIRECTION('',(-0.742526361,0.,0.669816843));
#356=VECTOR('',#355,0.270481021);
#357=LINE('',#354,#356);
#358=EDGE_CURVE('',#351,#353,#357,.T.);
#359=ORIENTED_EDGE('',*,*,#358,.F.);
#360=CARTESIAN_POINT('',(-6.211423179,-5.170868204,1.235871045));
#361=VERTEX_POINT('',#360);
#362=CARTESIAN_POINT('',(-6.211423178,-5.470868198,1.235871045));
#363=DIRECTION('',(-0.,1.,-0.));
#364=VECTOR('',#363,0.299999995);
#365=LINE('',#362,#364);
#366=EDGE_CURVE('',#351,#361,#365,.T.);
#367=ORIENTED_EDGE('',*,*,#366,.T.);
#368=CARTESIAN_POINT('',(-6.412262466,-5.170868203,1.417043789));
#369=VERTEX_POINT('',#368);
#370=CARTESIAN_POINT('',(-6.211423179,-5.170868204,1.235871045));
#371=DIRECTION('',(-0.74252636,0.,0.669816844));
#372=VECTOR('',#371,0.270481021);
#373=LINE('',#370,#372);
#374=EDGE_CURVE('',#361,#369,#373,.T.);
#375=ORIENTED_EDGE('',*,*,#374,.T.);
#376=CARTESIAN_POINT('',(-6.412262466,-5.170868203,1.417043788));
#377=DIRECTION('',(0.,-1.,0.));
#378=VECTOR('',#377,0.299999995);
#379=LINE('',#376,#378);
#380=EDGE_CURVE('',#369,#353,#379,.T.);
#381=ORIENTED_EDGE('',*,*,#380,.T.);
#382=EDGE_LOOP('',(#359,#367,#375,#381));
#383=FACE_BOUND('',#382,.T.);
#384=ADVANCED_FACE('',(#383),#349,.T.);
#385=CARTESIAN_POINT('',(-6.150867059,-5.170868203,1.19707557));
#386=CARTESIAN_POINT('',(-6.150867059,-5.470868203,1.19707557));
#387=CARTESIAN_POINT('',(-6.038952776,-5.170868203,1.149017525));
#388=CARTESIAN_POINT('',(-6.038952776,-5.470868204,1.149017526));
#389=CARTESIAN_POINT('',(-5.890340921,-5.170868203,1.11887395));
#390=CARTESIAN_POINT('',(-5.890340921,-5.470868203,1.118873951));
#391=CARTESIAN_POINT('',(-5.850590417,-5.170868203,1.285673716));
#392=CARTESIAN_POINT('',(-5.850590417,-5.470868203,1.285673716));
#393=B_SPLINE_SURFACE_WITH_KNOTS('',3,1,((#385,#386),(#387,#388),(#389,#390),(#391,#392)),.UNSPECIFIED.,.F.,.F.,.U.,(4,4),(2,2),(0.08497006,0.848476059),(0.,1.),.UNSPECIFIED.);
#394=CARTESIAN_POINT('',(-6.150867058,-5.170868203,1.19707557));
#395=VERTEX_POINT('',#394);
#396=CARTESIAN_POINT('',(-5.850590316,-5.170868198,1.285674137));
#397=VERTEX_POINT('',#396);
#398=CARTESIAN_POINT('',(-6.150862344,-5.170868194,1.197073545));
#399=CARTESIAN_POINT('',(-6.038939878,-5.170868194,1.149014825));
#400=CARTESIAN_POINT('',(-5.890338245,-5.170868194,1.118880775));
#401=CARTESIAN_POINT('',(-5.850590216,-5.170868194,1.285674558));
#402=B_SPLINE_CURVE_WITH_KNOTS('',3,(#398,#399,#400,#401),.UNSPECIFIED.,.F.,.F.,(4,4),(0.085002228,0.848478628),.UNSPECIFIED.);
#403=EDGE_CURVE('',#395,#397,#402,.T.);
#404=ORIENTED_EDGE('',*,*,#403,.F.);
#405=CARTESIAN_POINT('',(-6.150867058,-5.470868203,1.19707557));
#406=VERTEX_POINT('',#405);
#407=CARTESIAN_POINT('',(-6.150871773,-5.170868204,1.197077595));
#408=DIRECTION('',(0.,-1.,-0.));
#409=VECTOR('',#408,0.299999999);
#410=LINE('',#407,#409);
#411=EDGE_CURVE('',#395,#406,#410,.T.);
#412=ORIENTED_EDGE('',*,*,#411,.T.);
#413=CARTESIAN_POINT('',(-5.850590416,-5.470868199,1.285673716));
#414=VERTEX_POINT('',#413);
#415=CARTESIAN_POINT('',(-6.150862343,-5.470868194,1.197073545));
#416=CARTESIAN_POINT('',(-6.038939878,-5.470868194,1.149014824));
#417=CARTESIAN_POINT('',(-5.890338246,-5.470868194,1.118880776));
#418=CARTESIAN_POINT('',(-5.850590216,-5.470868194,1.285674558));
#419=B_SPLINE_CURVE_WITH_KNOTS('',3,(#415,#416,#417,#418),.UNSPECIFIED.,.F.,.F.,(4,4),(0.085002228,0.848478628),.UNSPECIFIED.);
#420=EDGE_CURVE('',#406,#414,#419,.T.);
#421=ORIENTED_EDGE('',*,*,#420,.T.);
#422=CARTESIAN_POINT('',(-5.850590416,-5.470868199,1.285673716));
#423=DIRECTION('',(-0.,1.,0.));
#424=VECTOR('',#423,0.3);
#425=LINE('',#422,#424);
#426=EDGE_CURVE('',#414,#397,#425,.T.);
#427=ORIENTED_EDGE('',*,*,#426,.T.);
#428=EDGE_LOOP('',(#404,#412,#421,#427));
#429=FACE_BOUND('',#428,.T.);
#430=ADVANCED_FACE('',(#429),#393,.F.);
#431=CARTESIAN_POINT('',(-5.664367374,-5.170868203,1.983086479));
#432=DIRECTION('',(0.,-1.,-0.));
#433=DIRECTION('',(-0.036445974,-0.,0.999335625));
#434=AXIS2_PLACEMENT_3D('',#431,#432,#433);
#435=CYLINDRICAL_SURFACE('',#434,0.6);
#436=CARTESIAN_POINT('',(-5.571817023,-5.470868203,1.390267423));
#437=VERTEX_POINT('',#436);
#438=CARTESIAN_POINT('',(-5.713488826,-5.470868203,1.385100624));
#439=VERTEX_POINT('',#438);
#440=CARTESIAN_POINT('',(-5.664367374,-5.470868203,1.983086479));
#441=DIRECTION('',(-0.,1.,0.));
#442=DIRECTION('',(0.036597079,0.,-0.999330103));
#443=AXIS2_PLACEMENT_3D('',#440,#441,#442);
#444=CIRCLE('',#443,0.6);
#445=EDGE_CURVE('',#437,#439,#444,.T.);
#446=ORIENTED_EDGE('',*,*,#445,.F.);
#447=CARTESIAN_POINT('',(-5.571817023,-5.170868203,1.390267423));
#448=VERTEX_POINT('',#447);
#449=CARTESIAN_POINT('',(-5.571817023,-5.470868203,1.390267423));
#450=DIRECTION('',(-0.,1.,0.));
#451=VECTOR('',#450,0.3);
#452=LINE('',#449,#451);
#453=EDGE_CURVE('',#437,#448,#452,.T.);
#454=ORIENTED_EDGE('',*,*,#453,.T.);
#455=CARTESIAN_POINT('',(-5.713488826,-5.170868203,1.385100624));
#456=VERTEX_POINT('',#455);
#457=CARTESIAN_POINT('',(-5.664367374,-5.170868203,1.983086479));
#458=DIRECTION('',(-0.,1.,0.));
#459=DIRECTION('',(0.036597079,0.,-0.999330103));
#460=AXIS2_PLACEMENT_3D('',#457,#458,#459);
#461=CIRCLE('',#460,0.6);
#462=EDGE_CURVE('',#448,#456,#461,.T.);
#463=ORIENTED_EDGE('',*,*,#462,.T.);
#464=CARTESIAN_POINT('',(-5.713488826,-5.170868203,1.385100623));
#465=DIRECTION('',(0.,-1.,-0.));
#466=VECTOR('',#465,0.3);
#467=LINE('',#464,#466);
#468=EDGE_CURVE('',#456,#439,#467,.T.);
#469=ORIENTED_EDGE('',*,*,#468,.T.);
#470=EDGE_LOOP('',(#446,#454,#463,#469));
#471=FACE_BOUND('',#470,.T.);
#472=ADVANCED_FACE('',(#471),#435,.F.);
#473=CARTESIAN_POINT('',(-5.121904331,-5.170868203,1.23460205));
#474=CARTESIAN_POINT('',(-5.121904331,-5.470868203,1.234602051));
#475=CARTESIAN_POINT('',(-5.230020582,-5.170868203,1.178519448));
#476=CARTESIAN_POINT('',(-5.230020582,-5.470868203,1.178519448));
#477=CARTESIAN_POINT('',(-5.376041869,-5.170868203,1.137630543));
#478=CARTESIAN_POINT('',(-5.376041869,-5.470868203,1.137630542));
#479=CARTESIAN_POINT('',(-5.427837054,-5.170868203,1.301091617));
#480=CARTESIAN_POINT('',(-5.427837054,-5.470868203,1.301091617));
#481=B_SPLINE_SURFACE_WITH_KNOTS('',3,1,((#473,#474),(#475,#476),(#477,#478),(#479,#480)),.UNSPECIFIED.,.F.,.F.,.U.,(4,4),(2,2),(0.084970062,0.848476059),(0.,0.999999999),.UNSPECIFIED.);
#482=CARTESIAN_POINT('',(-5.121904331,-5.470868203,1.23460205));
#483=VERTEX_POINT('',#482);
#484=CARTESIAN_POINT('',(-5.427837184,-5.470868199,1.30109203));
#485=VERTEX_POINT('',#484);
#486=CARTESIAN_POINT('',(-5.121908886,-5.470868194,1.234599688));
#487=CARTESIAN_POINT('',(-5.23003325,-5.470868194,1.178515814));
#488=CARTESIAN_POINT('',(-5.376045033,-5.470868194,1.137637154));
#489=CARTESIAN_POINT('',(-5.427837315,-5.470868194,1.301092442));
#490=B_SPLINE_CURVE_WITH_KNOTS('',3,(#486,#487,#488,#489),.UNSPECIFIED.,.F.,.F.,(4,4),(0.085002228,0.848478628),.UNSPECIFIED.);
#491=EDGE_CURVE('',#483,#485,#490,.T.);
#492=ORIENTED_EDGE('',*,*,#491,.F.);
#493=CARTESIAN_POINT('',(-5.121904331,-5.170868203,1.23460205));
#494=VERTEX_POINT('',#493);
#495=CARTESIAN_POINT('',(-5.121899776,-5.470868203,1.234604413));
#496=DIRECTION('',(-0.,1.,0.));
#497=VECTOR('',#496,0.3);
#498=LINE('',#495,#497);
#499=EDGE_CURVE('',#483,#494,#498,.T.);
#500=ORIENTED_EDGE('',*,*,#499,.T.);
#501=CARTESIAN_POINT('',(-5.427837053,-5.170868198,1.301091617));
#502=VERTEX_POINT('',#501);
#503=CARTESIAN_POINT('',(-5.121908886,-5.170868194,1.234599688));
#504=CARTESIAN_POINT('',(-5.23003325,-5.170868194,1.178515814));
#505=CARTESIAN_POINT('',(-5.376045033,-5.170868194,1.137637154));
#506=CARTESIAN_POINT('',(-5.427837315,-5.170868194,1.301092443));
#507=B_SPLINE_CURVE_WITH_KNOTS('',3,(#503,#504,#505,#506),.UNSPECIFIED.,.F.,.F.,(4,4),(0.085002228,0.848478628),.UNSPECIFIED.);
#508=EDGE_CURVE('',#494,#502,#507,.T.);
#509=ORIENTED_EDGE('',*,*,#508,.T.);
#510=CARTESIAN_POINT('',(-5.427837053,-5.170868198,1.301091617));
#511=DIRECTION('',(0.,-1.,-0.));
#512=VECTOR('',#511,0.3);
#513=LINE('',#510,#512);
#514=EDGE_CURVE('',#502,#485,#513,.T.);
#515=ORIENTED_EDGE('',*,*,#514,.T.);
#516=EDGE_LOOP('',(#492,#500,#509,#515));
#517=FACE_BOUND('',#516,.T.);
#518=ADVANCED_FACE('',(#517),#481,.T.);
#519=CARTESIAN_POINT('',(-5.026078263,-5.170868204,1.31764162));
#520=DIRECTION('',(0.722125631,-0.,-0.691761933));
#521=DIRECTION('',(0.691761933,-0.,0.722125631));
#522=AXIS2_PLACEMENT_3D('',#519,#520,#521);
#523=PLANE('',#522);
#524=CARTESIAN_POINT('',(-5.064335085,-5.170868199,1.277705581));
#525=VERTEX_POINT('',#524);
#526=CARTESIAN_POINT('',(-4.87722661,-5.170868198,1.47302686));
#527=VERTEX_POINT('',#526);
#528=CARTESIAN_POINT('',(-5.064335085,-5.170868194,1.277705581));
#529=DIRECTION('',(0.691761934,-0.,0.722125631));
#530=VECTOR('',#529,0.270481022);
#531=LINE('',#528,#530);
#532=EDGE_CURVE('',#525,#527,#531,.T.);
#533=ORIENTED_EDGE('',*,*,#532,.F.);
#534=CARTESIAN_POINT('',(-5.064335085,-5.470868203,1.277705582));
#535=VERTEX_POINT('',#534);
#536=CARTESIAN_POINT('',(-5.064335084,-5.170868199,1.277705582));
#537=DIRECTION('',(-0.,-1.,-0.));
#538=VECTOR('',#537,0.300000004);
#539=LINE('',#536,#538);
#540=EDGE_CURVE('',#525,#535,#539,.T.);
#541=ORIENTED_EDGE('',*,*,#540,.T.);
#542=CARTESIAN_POINT('',(-4.87722661,-5.470868203,1.47302686));
#543=VERTEX_POINT('',#542);
#544=CARTESIAN_POINT('',(-5.064335085,-5.470868203,1.277705582));
#545=DIRECTION('',(0.691761933,-0.,0.722125631));
#546=VECTOR('',#545,0.270481021);
#547=LINE('',#544,#546);
#548=EDGE_CURVE('',#535,#543,#547,.T.);
#549=ORIENTED_EDGE('',*,*,#548,.T.);
#550=CARTESIAN_POINT('',(-4.87722661,-5.470868203,1.47302686));
#551=DIRECTION('',(0.,1.,0.));
#552=VECTOR('',#551,0.300000005);
#553=LINE('',#550,#552);
#554=EDGE_CURVE('',#543,#527,#553,.T.);
#555=ORIENTED_EDGE('',*,*,#554,.T.);
#556=EDGE_LOOP('',(#533,#541,#549,#555));
#557=FACE_BOUND('',#556,.T.);
#558=ADVANCED_FACE('',(#557),#523,.F.);
#559=CARTESIAN_POINT('',(-294.734220828,-5.170868194,-91.914729384));
#560=DIRECTION('',(-0.,1.,0.));
#561=DIRECTION('',(-0.036445974,-0.,0.999335625));
#562=AXIS2_PLACEMENT_3D('',#559,#560,#561);
#563=PLANE('',#562);
#564=ORIENTED_EDGE('',*,*,#462,.F.);
#565=CARTESIAN_POINT('',(-5.556502423,-5.170868203,1.391736925));
#566=VERTEX_POINT('',#565);
#567=CARTESIAN_POINT('',(-5.551764446,-5.170868203,1.261823294));
#568=DIRECTION('',(-0.,1.,0.));
#569=DIRECTION('',(0.036597079,0.,-0.999330103));
#570=AXIS2_PLACEMENT_3D('',#567,#568,#569);
#571=CIRCLE('',#570,0.13);
#572=EDGE_CURVE('',#448,#566,#571,.T.);
#573=ORIENTED_EDGE('',*,*,#572,.T.);
#574=CARTESIAN_POINT('',(-5.551764446,-5.170868203,1.261823294));
#575=DIRECTION('',(-0.,1.,0.));
#576=DIRECTION('',(0.036597079,0.,-0.999330103));
#577=AXIS2_PLACEMENT_3D('',#574,#575,#576);
#578=CIRCLE('',#577,0.13);
#579=EDGE_CURVE('',#566,#502,#578,.T.);
#580=ORIENTED_EDGE('',*,*,#579,.T.);
#581=ORIENTED_EDGE('',*,*,#508,.F.);
#582=CARTESIAN_POINT('',(-5.223202724,-5.170868203,1.429893206));
#583=DIRECTION('',(0.,-1.,-0.));
#584=DIRECTION('',(0.036597079,0.,-0.999330103));
#585=AXIS2_PLACEMENT_3D('',#582,#583,#584);
#586=CIRCLE('',#585,0.22);
#587=EDGE_CURVE('',#494,#525,#586,.T.);
#588=ORIENTED_EDGE('',*,*,#587,.T.);
#589=ORIENTED_EDGE('',*,*,#532,.T.);
#590=CARTESIAN_POINT('',(-5.021651736,-5.170868203,1.611379246));
#591=DIRECTION('',(0.,-1.,-0.));
#592=DIRECTION('',(0.036597079,0.,-0.999330103));
#593=AXIS2_PLACEMENT_3D('',#590,#591,#592);
#594=CIRCLE('',#593,0.2);
#595=EDGE_CURVE('',#527,#37,#594,.T.);
#596=ORIENTED_EDGE('',*,*,#595,.T.);
#597=ORIENTED_EDGE('',*,*,#45,.T.);
#598=CARTESIAN_POINT('',(-4.897156516,-5.170868203,1.931582865));
#599=DIRECTION('',(-0.,1.,0.));
#600=DIRECTION('',(0.036597079,0.,-0.999330103));
#601=AXIS2_PLACEMENT_3D('',#598,#599,#600);
#602=CIRCLE('',#601,0.13);
#603=EDGE_CURVE('',#39,#83,#602,.T.);
#604=ORIENTED_EDGE('',*,*,#603,.T.);
#605=ORIENTED_EDGE('',*,*,#94,.T.);
#606=CARTESIAN_POINT('',(-4.938460601,-5.170868203,2.339408194));
#607=DIRECTION('',(-0.,1.,0.));
#608=DIRECTION('',(0.036597079,0.,-0.999330103));
#609=AXIS2_PLACEMENT_3D('',#606,#607,#608);
#610=CIRCLE('',#609,0.19);
#611=EDGE_CURVE('',#85,#149,#610,.T.);
#612=ORIENTED_EDGE('',*,*,#611,.T.);
#613=ORIENTED_EDGE('',*,*,#154,.T.);
#614=CARTESIAN_POINT('',(-4.740129263,-5.170868203,3.103338049));
#615=VERTEX_POINT('',#614);
#616=CARTESIAN_POINT('',(-4.733933447,-5.170868203,2.933450993));
#617=DIRECTION('',(-0.,1.,0.));
#618=DIRECTION('',(0.036597079,0.,-0.999330103));
#619=AXIS2_PLACEMENT_3D('',#616,#617,#618);
#620=CIRCLE('',#619,0.17);
#621=EDGE_CURVE('',#141,#615,#620,.T.);
#622=ORIENTED_EDGE('',*,*,#621,.T.);
#623=CARTESIAN_POINT('',(-4.733933447,-5.170868203,2.933450993));
#624=DIRECTION('',(-0.,1.,0.));
#625=DIRECTION('',(0.036597079,0.,-0.999330103));
#626=AXIS2_PLACEMENT_3D('',#623,#624,#625);
#627=CIRCLE('',#626,0.17);
#628=EDGE_CURVE('',#615,#190,#627,.T.);
#629=ORIENTED_EDGE('',*,*,#628,.T.);
#630=ORIENTED_EDGE('',*,*,#196,.T.);
#631=CARTESIAN_POINT('',(-6.667753206,-5.170868203,3.033037209));
#632=VERTEX_POINT('',#631);
#633=CARTESIAN_POINT('',(-6.66155739,-5.170868203,2.863150153));
#634=DIRECTION('',(-0.,1.,0.));
#635=DIRECTION('',(0.036597079,0.,-0.999330103));
#636=AXIS2_PLACEMENT_3D('',#633,#634,#635);
#637=CIRCLE('',#636,0.17);
#638=EDGE_CURVE('',#182,#632,#637,.T.);
#639=ORIENTED_EDGE('',*,*,#638,.T.);
#640=CARTESIAN_POINT('',(-6.66155739,-5.170868203,2.863150153));
#641=DIRECTION('',(-0.,1.,0.));
#642=DIRECTION('',(0.036597079,0.,-0.999330103));
#643=AXIS2_PLACEMENT_3D('',#640,#641,#642);
#644=CIRCLE('',#643,0.17);
#645=EDGE_CURVE('',#632,#215,#644,.T.);
#646=ORIENTED_EDGE('',*,*,#645,.T.);
#647=ORIENTED_EDGE('',*,*,#220,.F.);
#648=CARTESIAN_POINT('',(-6.414301418,-5.170868203,2.285583978));
#649=DIRECTION('',(-0.,1.,0.));
#650=DIRECTION('',(0.036597079,0.,-0.999330103));
#651=AXIS2_PLACEMENT_3D('',#648,#649,#650);
#652=CIRCLE('',#651,0.19);
#653=EDGE_CURVE('',#213,#279,#652,.T.);
#654=ORIENTED_EDGE('',*,*,#653,.T.);
#655=ORIENTED_EDGE('',*,*,#288,.F.);
#656=CARTESIAN_POINT('',(-6.425788341,-5.170868203,1.87583335));
#657=DIRECTION('',(-0.,1.,0.));
#658=DIRECTION('',(0.036597079,0.,-0.999330103));
#659=AXIS2_PLACEMENT_3D('',#656,#657,#658);
#660=CIRCLE('',#659,0.13);
#661=EDGE_CURVE('',#271,#328,#660,.T.);
#662=ORIENTED_EDGE('',*,*,#661,.T.);
#663=ORIENTED_EDGE('',*,*,#334,.F.);
#664=CARTESIAN_POINT('',(-6.278299098,-5.170868203,1.56554906));
#665=DIRECTION('',(0.,-1.,-0.));
#666=DIRECTION('',(0.036597079,0.,-0.999330103));
#667=AXIS2_PLACEMENT_3D('',#664,#665,#666);
#668=CIRCLE('',#667,0.2);
#669=EDGE_CURVE('',#320,#369,#668,.T.);
#670=ORIENTED_EDGE('',*,*,#669,.T.);
#671=ORIENTED_EDGE('',*,*,#374,.F.);
#672=CARTESIAN_POINT('',(-6.064063473,-5.170868204,1.399226844));
#673=DIRECTION('',(0.,-1.,-0.));
#674=DIRECTION('',(0.036597079,0.,-0.999330103));
#675=AXIS2_PLACEMENT_3D('',#672,#673,#674);
#676=CIRCLE('',#675,0.22);
#677=EDGE_CURVE('',#361,#395,#676,.T.);
#678=ORIENTED_EDGE('',*,*,#677,.T.);
#679=ORIENTED_EDGE('',*,*,#403,.T.);
#680=CARTESIAN_POINT('',(-5.728869784,-5.170868203,1.385450653));
#681=VERTEX_POINT('',#680);
#682=CARTESIAN_POINT('',(-5.724131808,-5.170868203,1.255537022));
#683=DIRECTION('',(-0.,1.,0.));
#684=DIRECTION('',(0.036597079,0.,-0.999330103));
#685=AXIS2_PLACEMENT_3D('',#682,#683,#684);
#686=CIRCLE('',#685,0.13);
#687=EDGE_CURVE('',#397,#681,#686,.T.);
#688=ORIENTED_EDGE('',*,*,#687,.T.);
#689=CARTESIAN_POINT('',(-5.724131808,-5.170868203,1.255537022));
#690=DIRECTION('',(-0.,1.,0.));
#691=DIRECTION('',(0.036597079,0.,-0.999330103));
#692=AXIS2_PLACEMENT_3D('',#689,#690,#691);
#693=CIRCLE('',#692,0.13);
#694=EDGE_CURVE('',#681,#456,#693,.T.);
#695=ORIENTED_EDGE('',*,*,#694,.T.);
#696=EDGE_LOOP('',(#564,#573,#580,#581,#588,#589,#596,#597,#604,#605,#612,#613,#622,#629,#630,#639,#646,#647,#654,#655,#662,#663,#670,#671,#678,#679,
#688,#695));
#697=FACE_BOUND('',#696,.T.);
#698=ADVANCED_FACE('',(#697),#563,.T.);
#699=CARTESIAN_POINT('',(-294.734220828,-5.470868194,-91.914729383));
#700=DIRECTION('',(-0.,1.,0.));
#701=DIRECTION('',(-0.036445974,-0.,0.999335625));
#702=AXIS2_PLACEMENT_3D('',#699,#700,#701);
#703=PLANE('',#702);
#704=ORIENTED_EDGE('',*,*,#548,.F.);
#705=CARTESIAN_POINT('',(-5.223202724,-5.470868203,1.429893206));
#706=DIRECTION('',(-0.,1.,0.));
#707=DIRECTION('',(0.036597079,0.,-0.999330103));
#708=AXIS2_PLACEMENT_3D('',#705,#706,#707);
#709=CIRCLE('',#708,0.22);
#710=EDGE_CURVE('',#535,#483,#709,.T.);
#711=ORIENTED_EDGE('',*,*,#710,.T.);
#712=ORIENTED_EDGE('',*,*,#491,.T.);
#713=CARTESIAN_POINT('',(-5.556502423,-5.470868203,1.391736925));
#714=VERTEX_POINT('',#713);
#715=CARTESIAN_POINT('',(-5.551764446,-5.470868203,1.261823294));
#716=DIRECTION('',(0.,-1.,-0.));
#717=DIRECTION('',(0.036597079,0.,-0.999330103));
#718=AXIS2_PLACEMENT_3D('',#715,#716,#717);
#719=CIRCLE('',#718,0.13);
#720=EDGE_CURVE('',#485,#714,#719,.T.);
#721=ORIENTED_EDGE('',*,*,#720,.T.);
#722=CARTESIAN_POINT('',(-5.551764446,-5.470868203,1.261823294));
#723=DIRECTION('',(0.,-1.,-0.));
#724=DIRECTION('',(0.036597079,0.,-0.999330103));
#725=AXIS2_PLACEMENT_3D('',#722,#723,#724);
#726=CIRCLE('',#725,0.13);
#727=EDGE_CURVE('',#714,#437,#726,.T.);
#728=ORIENTED_EDGE('',*,*,#727,.T.);
#729=ORIENTED_EDGE('',*,*,#445,.T.);
#730=CARTESIAN_POINT('',(-5.728869784,-5.470868203,1.385450653));
#731=VERTEX_POINT('',#730);
#732=CARTESIAN_POINT('',(-5.724131808,-5.470868203,1.255537022));
#733=DIRECTION('',(0.,-1.,-0.));
#734=DIRECTION('',(0.036597079,0.,-0.999330103));
#735=AXIS2_PLACEMENT_3D('',#732,#733,#734);
#736=CIRCLE('',#735,0.13);
#737=EDGE_CURVE('',#439,#731,#736,.T.);
#738=ORIENTED_EDGE('',*,*,#737,.T.);
#739=CARTESIAN_POINT('',(-5.724131808,-5.470868203,1.255537022));
#740=DIRECTION('',(0.,-1.,-0.));
#741=DIRECTION('',(0.036597079,0.,-0.999330103));
#742=AXIS2_PLACEMENT_3D('',#739,#740,#741);
#743=CIRCLE('',#742,0.13);
#744=EDGE_CURVE('',#731,#414,#743,.T.);
#745=ORIENTED_EDGE('',*,*,#744,.T.);
#746=ORIENTED_EDGE('',*,*,#420,.F.);
#747=CARTESIAN_POINT('',(-6.064063473,-5.470868203,1.399226844));
#748=DIRECTION('',(-0.,1.,0.));
#749=DIRECTION('',(0.036597079,0.,-0.999330103));
#750=AXIS2_PLACEMENT_3D('',#747,#748,#749);
#751=CIRCLE('',#750,0.22);
#752=EDGE_CURVE('',#406,#351,#751,.T.);
#753=ORIENTED_EDGE('',*,*,#752,.T.);
#754=ORIENTED_EDGE('',*,*,#358,.T.);
#755=CARTESIAN_POINT('',(-6.278299098,-5.470868203,1.56554906));
#756=DIRECTION('',(-0.,1.,0.));
#757=DIRECTION('',(0.036597079,0.,-0.999330103));
#758=AXIS2_PLACEMENT_3D('',#755,#756,#757);
#759=CIRCLE('',#758,0.2);
#760=EDGE_CURVE('',#353,#309,#759,.T.);
#761=ORIENTED_EDGE('',*,*,#760,.T.);
#762=ORIENTED_EDGE('',*,*,#317,.T.);
#763=CARTESIAN_POINT('',(-6.425788341,-5.470868203,1.87583335));
#764=DIRECTION('',(0.,-1.,-0.));
#765=DIRECTION('',(0.036597079,0.,-0.999330103));
#766=AXIS2_PLACEMENT_3D('',#763,#764,#765);
#767=CIRCLE('',#766,0.13);
#768=EDGE_CURVE('',#311,#257,#767,.T.);
#769=ORIENTED_EDGE('',*,*,#768,.T.);
#770=ORIENTED_EDGE('',*,*,#268,.T.);
#771=CARTESIAN_POINT('',(-6.414301418,-5.470868203,2.285583978));
#772=DIRECTION('',(0.,-1.,-0.));
#773=DIRECTION('',(0.036597079,0.,-0.999330103));
#774=AXIS2_PLACEMENT_3D('',#771,#772,#773);
#775=CIRCLE('',#774,0.19);
#776=EDGE_CURVE('',#259,#231,#775,.T.);
#777=ORIENTED_EDGE('',*,*,#776,.T.);
#778=ORIENTED_EDGE('',*,*,#236,.T.);
#779=CARTESIAN_POINT('',(-6.667753206,-5.470868203,3.033037209));
#780=VERTEX_POINT('',#779);
#781=CARTESIAN_POINT('',(-6.66155739,-5.470868203,2.863150153));
#782=DIRECTION('',(0.,-1.,-0.));
#783=DIRECTION('',(0.036597079,0.,-0.999330103));
#784=AXIS2_PLACEMENT_3D('',#781,#782,#783);
#785=CIRCLE('',#784,0.17);
#786=EDGE_CURVE('',#223,#780,#785,.T.);
#787=ORIENTED_EDGE('',*,*,#786,.T.);
#788=CARTESIAN_POINT('',(-6.66155739,-5.470868203,2.863150153));
#789=DIRECTION('',(0.,-1.,-0.));
#790=DIRECTION('',(0.036597079,0.,-0.999330103));
#791=AXIS2_PLACEMENT_3D('',#788,#789,#790);
#792=CIRCLE('',#791,0.17);
#793=EDGE_CURVE('',#780,#173,#792,.T.);
#794=ORIENTED_EDGE('',*,*,#793,.T.);
#795=ORIENTED_EDGE('',*,*,#179,.F.);
#796=CARTESIAN_POINT('',(-4.740129263,-5.470868203,3.103338049));
#797=VERTEX_POINT('',#796);
#798=CARTESIAN_POINT('',(-4.733933447,-5.470868203,2.933450993));
#799=DIRECTION('',(0.,-1.,-0.));
#800=DIRECTION('',(0.036597079,0.,-0.999330103));
#801=AXIS2_PLACEMENT_3D('',#798,#799,#800);
#802=CIRCLE('',#801,0.17);
#803=EDGE_CURVE('',#171,#797,#802,.T.);
#804=ORIENTED_EDGE('',*,*,#803,.T.);
#805=CARTESIAN_POINT('',(-4.733933447,-5.470868203,2.933450993));
#806=DIRECTION('',(0.,-1.,-0.));
#807=DIRECTION('',(0.036597079,0.,-0.999330103));
#808=AXIS2_PLACEMENT_3D('',#805,#806,#807);
#809=CIRCLE('',#808,0.17);
#810=EDGE_CURVE('',#797,#133,#809,.T.);
#811=ORIENTED_EDGE('',*,*,#810,.T.);
#812=ORIENTED_EDGE('',*,*,#138,.F.);
#813=CARTESIAN_POINT('',(-4.938460601,-5.470868203,2.339408194));
#814=DIRECTION('',(0.,-1.,-0.));
#815=DIRECTION('',(0.036597079,0.,-0.999330103));
#816=AXIS2_PLACEMENT_3D('',#813,#814,#815);
#817=CIRCLE('',#816,0.19);
#818=EDGE_CURVE('',#131,#105,#817,.T.);
#819=ORIENTED_EDGE('',*,*,#818,.T.);
#820=ORIENTED_EDGE('',*,*,#114,.F.);
#821=CARTESIAN_POINT('',(-4.897156516,-5.470868204,1.931582865));
#822=DIRECTION('',(0.,-1.,-0.));
#823=DIRECTION('',(0.036597079,0.,-0.999330103));
#824=AXIS2_PLACEMENT_3D('',#821,#822,#823);
#825=CIRCLE('',#824,0.13);
#826=EDGE_CURVE('',#97,#56,#825,.T.);
#827=ORIENTED_EDGE('',*,*,#826,.T.);
#828=ORIENTED_EDGE('',*,*,#62,.F.);
#829=CARTESIAN_POINT('',(-5.021651736,-5.470868203,1.611379246));
#830=DIRECTION('',(-0.,1.,0.));
#831=DIRECTION('',(0.036597079,0.,-0.999330103));
#832=AXIS2_PLACEMENT_3D('',#829,#830,#831);
#833=CIRCLE('',#832,0.2);
#834=EDGE_CURVE('',#48,#543,#833,.T.);
#835=ORIENTED_EDGE('',*,*,#834,.T.);
#836=EDGE_LOOP('',(#704,#711,#712,#721,#728,#729,#738,#745,#746,#753,#754,#761,#762,#769,#770,#777,#778,#787,#794,#795,#804,#811,#812,#819,#820,#827,
#828,#835));
#837=FACE_BOUND('',#836,.T.);
#838=ADVANCED_FACE('',(#837),#703,.F.);
#839=CARTESIAN_POINT('',(-6.414301418,-5.320868204,2.285583978));
#840=DIRECTION('',(0.,-1.,-0.));
#841=DIRECTION('',(-0.036445974,-0.,0.999335625));
#842=AXIS2_PLACEMENT_3D('',#839,#840,#841);
#843=CYLINDRICAL_SURFACE('',#842,0.19);
#844=ORIENTED_EDGE('',*,*,#653,.F.);
#845=ORIENTED_EDGE('',*,*,#242,.F.);
#846=ORIENTED_EDGE('',*,*,#776,.F.);
#847=ORIENTED_EDGE('',*,*,#294,.F.);
#848=EDGE_LOOP('',(#844,#845,#846,#847));
#849=FACE_BOUND('',#848,.T.);
#850=ADVANCED_FACE('',(#849),#843,.T.);
#851=CARTESIAN_POINT('',(-4.938460601,-5.320868204,2.339408194));
#852=DIRECTION('',(0.,-1.,-0.));
#853=DIRECTION('',(-0.036445974,-0.,0.999335625));
#854=AXIS2_PLACEMENT_3D('',#851,#852,#853);
#855=CYLINDRICAL_SURFACE('',#854,0.19);
#856=ORIENTED_EDGE('',*,*,#611,.F.);
#857=ORIENTED_EDGE('',*,*,#120,.F.);
#858=ORIENTED_EDGE('',*,*,#818,.F.);
#859=ORIENTED_EDGE('',*,*,#160,.F.);
#860=EDGE_LOOP('',(#856,#857,#858,#859));
#861=FACE_BOUND('',#860,.T.);
#862=ADVANCED_FACE('',(#861),#855,.T.);
#863=CARTESIAN_POINT('',(-6.66155739,-5.170868204,2.863150153));
#864=DIRECTION('',(0.,-1.,-0.));
#865=DIRECTION('',(-0.036445974,-0.,0.999335625));
#866=AXIS2_PLACEMENT_3D('',#863,#864,#865);
#867=CYLINDRICAL_SURFACE('',#866,0.17);
#868=CARTESIAN_POINT('',(-6.667753206,-5.470868203,3.033037209));
#869=DIRECTION('',(-0.,1.,0.));
#870=VECTOR('',#869,0.3);
#871=LINE('',#868,#870);
#872=EDGE_CURVE('',#780,#632,#871,.T.);
#873=ORIENTED_EDGE('',*,*,#872,.T.);
#874=ORIENTED_EDGE('',*,*,#638,.F.);
#875=ORIENTED_EDGE('',*,*,#187,.F.);
#876=ORIENTED_EDGE('',*,*,#793,.F.);
#877=EDGE_LOOP('',(#873,#874,#875,#876));
#878=FACE_BOUND('',#877,.T.);
#879=ADVANCED_FACE('',(#878),#867,.T.);
#880=CARTESIAN_POINT('',(-4.733933447,-5.170868203,2.933450993));
#881=DIRECTION('',(0.,-1.,-0.));
#882=DIRECTION('',(-0.036445974,-0.,0.999335625));
#883=AXIS2_PLACEMENT_3D('',#880,#881,#882);
#884=CYLINDRICAL_SURFACE('',#883,0.17);
#885=CARTESIAN_POINT('',(-4.740129263,-5.470868203,3.103338049));
#886=DIRECTION('',(-0.,1.,0.));
#887=VECTOR('',#886,0.3);
#888=LINE('',#885,#887);
#889=EDGE_CURVE('',#797,#615,#888,.T.);
#890=ORIENTED_EDGE('',*,*,#889,.T.);
#891=ORIENTED_EDGE('',*,*,#621,.F.);
#892=ORIENTED_EDGE('',*,*,#146,.F.);
#893=ORIENTED_EDGE('',*,*,#810,.F.);
#894=EDGE_LOOP('',(#890,#891,#892,#893));
#895=FACE_BOUND('',#894,.T.);
#896=ADVANCED_FACE('',(#895),#884,.T.);
#897=CARTESIAN_POINT('',(-5.551764446,-5.320868204,1.261823294));
#898=DIRECTION('',(0.,-1.,-0.));
#899=DIRECTION('',(-0.036445974,-0.,0.999335625));
#900=AXIS2_PLACEMENT_3D('',#897,#898,#899);
#901=CYLINDRICAL_SURFACE('',#900,0.13);
#902=CARTESIAN_POINT('',(-5.556502423,-5.470868203,1.391736925));
#903=DIRECTION('',(-0.,1.,0.));
#904=VECTOR('',#903,0.3);
#905=LINE('',#902,#904);
#906=EDGE_CURVE('',#714,#566,#905,.T.);
#907=ORIENTED_EDGE('',*,*,#906,.T.);
#908=ORIENTED_EDGE('',*,*,#572,.F.);
#909=ORIENTED_EDGE('',*,*,#453,.F.);
#910=ORIENTED_EDGE('',*,*,#727,.F.);
#911=EDGE_LOOP('',(#907,#908,#909,#910));
#912=FACE_BOUND('',#911,.T.);
#913=ADVANCED_FACE('',(#912),#901,.T.);
#914=CARTESIAN_POINT('',(-5.724131808,-5.320868203,1.255537022));
#915=DIRECTION('',(0.,-1.,-0.));
#916=DIRECTION('',(-0.036445974,-0.,0.999335625));
#917=AXIS2_PLACEMENT_3D('',#914,#915,#916);
#918=CYLINDRICAL_SURFACE('',#917,0.13);
#919=CARTESIAN_POINT('',(-5.728869784,-5.470868203,1.385450653));
#920=DIRECTION('',(-0.,1.,0.));
#921=VECTOR('',#920,0.3);
#922=LINE('',#919,#921);
#923=EDGE_CURVE('',#731,#681,#922,.T.);
#924=ORIENTED_EDGE('',*,*,#923,.T.);
#925=ORIENTED_EDGE('',*,*,#687,.F.);
#926=ORIENTED_EDGE('',*,*,#426,.F.);
#927=ORIENTED_EDGE('',*,*,#744,.F.);
#928=EDGE_LOOP('',(#924,#925,#926,#927));
#929=FACE_BOUND('',#928,.T.);
#930=ADVANCED_FACE('',(#929),#918,.T.);
#931=CARTESIAN_POINT('',(-6.425788341,-5.320868203,1.87583335));
#932=DIRECTION('',(0.,-1.,-0.));
#933=DIRECTION('',(-0.036445974,-0.,0.999335625));
#934=AXIS2_PLACEMENT_3D('',#931,#932,#933);
#935=CYLINDRICAL_SURFACE('',#934,0.13);
#936=ORIENTED_EDGE('',*,*,#661,.F.);
#937=ORIENTED_EDGE('',*,*,#276,.F.);
#938=ORIENTED_EDGE('',*,*,#768,.F.);
#939=ORIENTED_EDGE('',*,*,#340,.F.);
#940=EDGE_LOOP('',(#936,#937,#938,#939));
#941=FACE_BOUND('',#940,.T.);
#942=ADVANCED_FACE('',(#941),#935,.T.);
#943=CARTESIAN_POINT('',(-4.897156516,-5.320868203,1.931582865));
#944=DIRECTION('',(0.,-1.,-0.));
#945=DIRECTION('',(-0.036445974,-0.,0.999335625));
#946=AXIS2_PLACEMENT_3D('',#943,#944,#945);
#947=CYLINDRICAL_SURFACE('',#946,0.13);
#948=ORIENTED_EDGE('',*,*,#603,.F.);
#949=ORIENTED_EDGE('',*,*,#68,.F.);
#950=ORIENTED_EDGE('',*,*,#826,.F.);
#951=ORIENTED_EDGE('',*,*,#102,.F.);
#952=EDGE_LOOP('',(#948,#949,#950,#951));
#953=FACE_BOUND('',#952,.T.);
#954=ADVANCED_FACE('',(#953),#947,.T.);
#955=CARTESIAN_POINT('',(-5.223202724,-5.320868204,1.429893206));
#956=DIRECTION('',(0.,-1.,-0.));
#957=DIRECTION('',(-0.036445974,-0.,0.999335625));
#958=AXIS2_PLACEMENT_3D('',#955,#956,#957);
#959=CYLINDRICAL_SURFACE('',#958,0.22);
#960=ORIENTED_EDGE('',*,*,#587,.F.);
#961=ORIENTED_EDGE('',*,*,#499,.F.);
#962=ORIENTED_EDGE('',*,*,#710,.F.);
#963=ORIENTED_EDGE('',*,*,#540,.F.);
#964=EDGE_LOOP('',(#960,#961,#962,#963));
#965=FACE_BOUND('',#964,.T.);
#966=ADVANCED_FACE('',(#965),#959,.F.);
#967=CARTESIAN_POINT('',(-6.064063473,-5.320868203,1.399226844));
#968=DIRECTION('',(0.,-1.,-0.));
#969=DIRECTION('',(-0.036445974,-0.,0.999335625));
#970=AXIS2_PLACEMENT_3D('',#967,#968,#969);
#971=CYLINDRICAL_SURFACE('',#970,0.22);
#972=ORIENTED_EDGE('',*,*,#677,.F.);
#973=ORIENTED_EDGE('',*,*,#366,.F.);
#974=ORIENTED_EDGE('',*,*,#752,.F.);
#975=ORIENTED_EDGE('',*,*,#411,.F.);
#976=EDGE_LOOP('',(#972,#973,#974,#975));
#977=FACE_BOUND('',#976,.T.);
#978=ADVANCED_FACE('',(#977),#971,.F.);
#979=CARTESIAN_POINT('',(-5.021651736,-5.320868203,1.611379246));
#980=DIRECTION('',(0.,-1.,-0.));
#981=DIRECTION('',(-0.036445974,-0.,0.999335625));
#982=AXIS2_PLACEMENT_3D('',#979,#980,#981);
#983=CYLINDRICAL_SURFACE('',#982,0.2);
#984=ORIENTED_EDGE('',*,*,#595,.F.);
#985=ORIENTED_EDGE('',*,*,#554,.F.);
#986=ORIENTED_EDGE('',*,*,#834,.F.);
#987=ORIENTED_EDGE('',*,*,#53,.F.);
#988=EDGE_LOOP('',(#984,#985,#986,#987));
#989=FACE_BOUND('',#988,.T.);
#990=ADVANCED_FACE('',(#989),#983,.F.);
#991=CARTESIAN_POINT('',(-6.278299098,-5.320868204,1.56554906));
#992=DIRECTION('',(0.,-1.,-0.));
#993=DIRECTION('',(-0.036445974,-0.,0.999335625));
#994=AXIS2_PLACEMENT_3D('',#991,#992,#993);
#995=CYLINDRICAL_SURFACE('',#994,0.2);
#996=ORIENTED_EDGE('',*,*,#669,.F.);
#997=ORIENTED_EDGE('',*,*,#325,.F.);
#998=ORIENTED_EDGE('',*,*,#760,.F.);
#999=ORIENTED_EDGE('',*,*,#380,.F.);
#1000=EDGE_LOOP('',(#996,#997,#998,#999));
#1001=FACE_BOUND('',#1000,.T.);
#1002=ADVANCED_FACE('',(#1001),#995,.F.);
#1003=CARTESIAN_POINT('',(-6.66155739,-5.170868204,2.863150153));
#1004=DIRECTION('',(0.,-1.,-0.));
#1005=DIRECTION('',(-0.036445974,-0.,0.999335625));
#1006=AXIS2_PLACEMENT_3D('',#1003,#1004,#1005);
#1007=CYLINDRICAL_SURFACE('',#1006,0.17);
#1008=ORIENTED_EDGE('',*,*,#872,.F.);
#1009=ORIENTED_EDGE('',*,*,#786,.F.);
#1010=ORIENTED_EDGE('',*,*,#228,.F.);
#1011=ORIENTED_EDGE('',*,*,#645,.F.);
#1012=EDGE_LOOP('',(#1008,#1009,#1010,#1011));
#1013=FACE_BOUND('',#1012,.T.);
#1014=ADVANCED_FACE('',(#1013),#1007,.T.);
#1015=CARTESIAN_POINT('',(-4.733933447,-5.170868203,2.933450993));
#1016=DIRECTION('',(0.,-1.,-0.));
#1017=DIRECTION('',(-0.036445974,-0.,0.999335625));
#1018=AXIS2_PLACEMENT_3D('',#1015,#1016,#1017);
#1019=CYLINDRICAL_SURFACE('',#1018,0.17);
#1020=ORIENTED_EDGE('',*,*,#889,.F.);
#1021=ORIENTED_EDGE('',*,*,#803,.F.);
#1022=ORIENTED_EDGE('',*,*,#202,.F.);
#1023=ORIENTED_EDGE('',*,*,#628,.F.);
#1024=EDGE_LOOP('',(#1020,#1021,#1022,#1023));
#1025=FACE_BOUND('',#1024,.T.);
#1026=ADVANCED_FACE('',(#1025),#1019,.T.);
#1027=CARTESIAN_POINT('',(-5.551764446,-5.320868204,1.261823294));
#1028=DIRECTION('',(0.,-1.,-0.));
#1029=DIRECTION('',(-0.036445974,-0.,0.999335625));
#1030=AXIS2_PLACEMENT_3D('',#1027,#1028,#1029);
#1031=CYLINDRICAL_SURFACE('',#1030,0.13);
#1032=ORIENTED_EDGE('',*,*,#906,.F.);
#1033=ORIENTED_EDGE('',*,*,#720,.F.);
#1034=ORIENTED_EDGE('',*,*,#514,.F.);
#1035=ORIENTED_EDGE('',*,*,#579,.F.);
#1036=EDGE_LOOP('',(#1032,#1033,#1034,#1035));
#1037=FACE_BOUND('',#1036,.T.);
#1038=ADVANCED_FACE('',(#1037),#1031,.T.);
#1039=CARTESIAN_POINT('',(-5.724131808,-5.320868203,1.255537022));
#1040=DIRECTION('',(0.,-1.,-0.));
#1041=DIRECTION('',(-0.036445974,-0.,0.999335625));
#1042=AXIS2_PLACEMENT_3D('',#1039,#1040,#1041);
#1043=CYLINDRICAL_SURFACE('',#1042,0.13);
#1044=ORIENTED_EDGE('',*,*,#923,.F.);
#1045=ORIENTED_EDGE('',*,*,#737,.F.);
#1046=ORIENTED_EDGE('',*,*,#468,.F.);
#1047=ORIENTED_EDGE('',*,*,#694,.F.);
#1048=EDGE_LOOP('',(#1044,#1045,#1046,#1047));
#1049=FACE_BOUND('',#1048,.T.);
#1050=ADVANCED_FACE('',(#1049),#1043,.T.);
#1051=CLOSED_SHELL('',(#72,#124,#164,#206,#246,#298,#344,#384,#430,#472,#518,#558,#698,#838,#850,#862,#879,#896,#913,#930,#942,#954,#966,#978,#990,#1002,
#1014,#1026,#1038,#1050));
#1052=MANIFOLD_SOLID_BREP('\X2\53619EC3\X0\',#1051);
#1053=COLOUR_RGB('',0.972549021,0.984313726,0.996078432);
#1054=FILL_AREA_STYLE_COLOUR('',#1053);
#1055=FILL_AREA_STYLE('',(#1054));
#1056=SURFACE_STYLE_FILL_AREA(#1055);
#1057=SURFACE_SIDE_STYLE('',(#1056));
#1058=SURFACE_STYLE_USAGE(.BOTH.,#1057);
#1059=PRESENTATION_STYLE_ASSIGNMENT((#1058));
#26=STYLED_ITEM('',(#1059),#1052);
#16=SHAPE_REPRESENTATION('\X2\53619EC3\X0\',(#15),#10);
#17=ADVANCED_BREP_SHAPE_REPRESENTATION('\X2\53619EC3\X0\',(#1052),#10);
#1067=SHAPE_REPRESENTATION_RELATIONSHIP('','',#16,#17);
#1068=CARTESIAN_POINT('',(0.,0.,0.));
#1069=DIRECTION('',(0.,0.,1.));
#1070=DIRECTION('',(1.,0.,0.));
#1071=AXIS2_PLACEMENT_3D('',#1068,#1069,#1070);
#1073=MAPPED_ITEM('',#1072,#1071);
#1072=REPRESENTATION_MAP(#1071,#16);
#1074=APPLICATION_CONTEXT('Managed model based 3d engineering');
#1075=APPLICATION_PROTOCOL_DEFINITION('international standard','ap242_managed_model_based_3d_engineering',2014,#1074);
#1076=PRODUCT_CONTEXT('',#1074,'mechanical');
#1077=PRODUCT_DEFINITION_CONTEXT('part definition',#1074,'design');
#24=PRODUCT('\X2\53619EC3\X0\','\X2\53619EC3\X0\','',(#1076));
#1078=PRODUCT_RELATED_PRODUCT_CATEGORY('part','',(#24));
#1079=PRODUCT_DEFINITION_FORMATION_WITH_SPECIFIED_SOURCE('','',#24,.NOT_KNOWN.);
#25=PRODUCT_DEFINITION('design','',#1079,#1077);
#23=PRODUCT_DEFINITION_SHAPE('','',#25);
#1080=SHAPE_DEFINITION_REPRESENTATION(#23,#16);
#11=DRAUGHTING_MODEL('',(#1073),#10);
#1081=DESCRIPTIVE_REPRESENTATION_ITEM('KEY','C:\\Users\\Nalani\\AppData\\Local\\Packages\\Shapr3D.Shapr3D_j403pzjkqtqbj\\TempState\\6f64a12c-6bb1-41b9-a076-f56bd60c2d2e.tmp');
#1082=PROPERTY_DEFINITION('KEY','',#25);
#1083=REPRESENTATION('',(#1081),#10);
#1084=PROPERTY_DEFINITION_REPRESENTATION(#1082,#1083);
#1085=GENERAL_PROPERTY('','KEY','');
#1086=GENERAL_PROPERTY_ASSOCIATION('','',#1085,#1082);
#1=MECHANICAL_DESIGN_GEOMETRIC_PRESENTATION_REPRESENTATION('',(#26),#10);
ENDSEC;
END-ISO-10303-21;
