ISO-10303-21;
HEADER;

/* File generated by Shapr3D Version 26.123.11423.0 */

FILE_DESCRIPTION(('HOOPS Exchange Step'),'2;1');

FILE_NAME('C:\\Users\\Nalani\\AppData\\Local\\Packages\\Shapr3D.Shapr3D_j403pzjkqtqbj\\TempState\\export\\temp_export',
'2026-08-03T16:12:13+08:00',
('Nalani'),
('Shapr3D Limited'),
'HOOPS Exchange 2026.3',
'Shapr3D',
'Authorized');

FILE_SCHEMA( ('AP242_MANAGED_MODEL_BASED_3D_ENGINEERING_MIM_LF {1 0 10303 442 1 1 4}') );

ENDSEC;

DATA;
#3=(NAMED_UNIT(*)PLANE_ANGLE_UNIT()SI_UNIT($,.RADIAN.));
#4=PLANE_ANGLE_MEASURE_WITH_UNIT(PLANE_ANGLE_MEASURE(0.0174532925),#3);
#5=(CONVERSION_BASED_UNIT('DEGREE',#4)NAMED_UNIT(#6)PLANE_ANGLE_UNIT());
#6=DIMENSIONAL_EXPONENTS(0.,0.,0.,0.,0.,0.,0.);
#7=(NAMED_UNIT(*)SI_UNIT($,.STERADIAN.)SOLID_ANGLE_UNIT());
#8=(LENGTH_UNIT()NAMED_UNIT(*)SI_UNIT(.MILLI.,.METRE.));
#9=UNCERTAINTY_MEASURE_WITH_UNIT(LENGTH_MEASURE(1.000000E-05),#8,'DISTANCE_ACCURACY_VALUE','Maximum Tolerance applied to model');
#10=(GEOMETRIC_REPRESENTATION_CONTEXT(3)GLOBAL_UNCERTAINTY_ASSIGNED_CONTEXT((#9))GLOBAL_UNIT_ASSIGNED_CONTEXT((#8,#5,#7))REPRESENTATION_CONTEXT('','\X2\5BC65C015708\X0\'));
#12=CARTESIAN_POINT('',(0.,0.,0.));
#13=DIRECTION('',(0.,0.,1.));
#14=DIRECTION('',(1.,0.,0.));
#15=AXIS2_PLACEMENT_3D('',#12,#13,#14);
#27=CARTESIAN_POINT('',(-9.450001053,0.000003711,0.1));
#28=DIRECTION('',(1.,-0.,0.));
#29=DIRECTION('',(0.,1.,0.));
#30=AXIS2_PLACEMENT_3D('',#27,#28,#29);
#31=PLANE('',#30);
#32=CARTESIAN_POINT('',(-9.450002227,-5.248215833,0.2));
#33=VERTEX_POINT('',#32);
#34=CARTESIAN_POINT('',(-9.450001053,5.248223255,0.2));
#35=VERTEX_POINT('',#34);
#36=CARTESIAN_POINT('',(-9.450001053,-5.248215833,0.2));
#37=DIRECTION('',(0.,1.,0.));
#38=VECTOR('',#37,10.496439089);
#39=LINE('',#36,#38);
#40=EDGE_CURVE('',#33,#35,#39,.T.);
#41=ORIENTED_EDGE('',*,*,#40,.F.);
#42=CARTESIAN_POINT('',(-9.450001053,-5.248215833,-0.1));
#43=VERTEX_POINT('',#42);
#44=CARTESIAN_POINT('',(-9.450002227,-5.248215833,-0.1));
#45=DIRECTION('',(0.,0.,1.));
#46=VECTOR('',#45,0.3);
#47=LINE('',#44,#46);
#48=EDGE_CURVE('',#43,#33,#47,.T.);
#49=ORIENTED_EDGE('',*,*,#48,.F.);
#50=CARTESIAN_POINT('',(-9.450001053,5.248223255,-0.1));
#51=VERTEX_POINT('',#50);
#52=CARTESIAN_POINT('',(-9.450001053,-5.248215833,-0.1));
#53=DIRECTION('',(0.,1.,0.));
#54=VECTOR('',#53,10.496439089);
#55=LINE('',#52,#54);
#56=EDGE_CURVE('',#43,#51,#55,.T.);
#57=ORIENTED_EDGE('',*,*,#56,.T.);
#58=CARTESIAN_POINT('',(-9.450001053,5.248223255,-0.1));
#59=DIRECTION('',(0.,0.,1.));
#60=VECTOR('',#59,0.3);
#61=LINE('',#58,#60);
#62=EDGE_CURVE('',#51,#35,#61,.T.);
#63=ORIENTED_EDGE('',*,*,#62,.T.);
#64=EDGE_LOOP('',(#41,#49,#57,#63));
#65=FACE_BOUND('',#64,.T.);
#66=ADVANCED_FACE('',(#65),#31,.T.);
#67=CARTESIAN_POINT('',(-8.702483667,-5.248215833,0.1));
#68=DIRECTION('',(0.,0.,1.));
#69=DIRECTION('',(1.,0.,-0.));
#70=AXIS2_PLACEMENT_3D('',#67,#68,#69);
#71=CYLINDRICAL_SURFACE('',#70,0.747518561);
#72=CARTESIAN_POINT('',(-8.709494425,-5.995701517,0.2));
#73=VERTEX_POINT('',#72);
#74=CARTESIAN_POINT('',(-8.702483667,-5.248215833,0.2));
#75=DIRECTION('',(-0.,0.,-1.));
#76=DIRECTION('',(-0.009378707,-0.999956019,0.));
#77=AXIS2_PLACEMENT_3D('',#74,#75,#76);
#78=CIRCLE('',#77,0.747518561);
#79=EDGE_CURVE('',#73,#33,#78,.T.);
#80=ORIENTED_EDGE('',*,*,#79,.F.);
#81=CARTESIAN_POINT('',(-8.709491115,-5.995701548,-0.1));
#82=VERTEX_POINT('',#81);
#83=CARTESIAN_POINT('',(-8.709494425,-5.995701517,-0.1));
#84=DIRECTION('',(0.,0.,1.));
#85=VECTOR('',#84,0.3);
#86=LINE('',#83,#85);
#87=EDGE_CURVE('',#82,#73,#86,.T.);
#88=ORIENTED_EDGE('',*,*,#87,.F.);
#89=CARTESIAN_POINT('',(-8.702483667,-5.248215833,-0.1));
#90=DIRECTION('',(0.,0.,-1.));
#91=DIRECTION('',(-1.,0.,0.));
#92=AXIS2_PLACEMENT_3D('',#89,#90,#91);
#93=CIRCLE('',#92,0.747518561);
#94=EDGE_CURVE('',#82,#43,#93,.T.);
#95=ORIENTED_EDGE('',*,*,#94,.T.);
#96=ORIENTED_EDGE('',*,*,#48,.T.);
#97=EDGE_LOOP('',(#80,#88,#95,#96));
#98=FACE_BOUND('',#97,.T.);
#99=ADVANCED_FACE('',(#98),#71,.F.);
#100=CARTESIAN_POINT('',(-6.02999566,-6.020832857,0.1));
#101=DIRECTION('',(-0.009378707,-0.999956019,0.));
#102=DIRECTION('',(0.999956019,-0.009378707,0.));
#103=AXIS2_PLACEMENT_3D('',#100,#101,#102);
#104=PLANE('',#103);
#105=CARTESIAN_POINT('',(-3.350496895,-6.045964197,0.2));
#106=VERTEX_POINT('',#105);
#107=CARTESIAN_POINT('',(-8.709494425,-5.995701517,0.2));
#108=DIRECTION('',(0.999956019,-0.009378707,0.));
#109=VECTOR('',#108,5.359233234);
#110=LINE('',#107,#109);
#111=EDGE_CURVE('',#73,#106,#110,.T.);
#112=ORIENTED_EDGE('',*,*,#111,.T.);
#113=CARTESIAN_POINT('',(-3.350496895,-6.045964197,-0.1));
#114=VERTEX_POINT('',#113);
#115=CARTESIAN_POINT('',(-3.350496895,-6.045964197,-0.1));
#116=DIRECTION('',(0.,0.,1.));
#117=VECTOR('',#116,0.3);
#118=LINE('',#115,#117);
#119=EDGE_CURVE('',#114,#106,#118,.T.);
#120=ORIENTED_EDGE('',*,*,#119,.F.);
#121=CARTESIAN_POINT('',(-8.709491115,-5.995701548,-0.1));
#122=DIRECTION('',(0.999956019,-0.009378707,0.));
#123=VECTOR('',#122,5.359229924);
#124=LINE('',#121,#123);
#125=EDGE_CURVE('',#82,#114,#124,.T.);
#126=ORIENTED_EDGE('',*,*,#125,.F.);
#127=ORIENTED_EDGE('',*,*,#87,.T.);
#128=EDGE_LOOP('',(#112,#120,#126,#127));
#129=FACE_BOUND('',#128,.T.);
#130=ADVANCED_FACE('',(#129),#104,.F.);
#131=CARTESIAN_POINT('',(-3.341118188,-5.046008178,0.1));
#132=DIRECTION('',(0.,0.,1.));
#133=DIRECTION('',(1.,0.,-0.));
#134=AXIS2_PLACEMENT_3D('',#131,#132,#133);
#135=CYLINDRICAL_SURFACE('',#134,1.);
#136=CARTESIAN_POINT('',(-2.956627972,-5.969137245,0.2));
#137=VERTEX_POINT('',#136);
#138=CARTESIAN_POINT('',(-3.341118188,-5.046008178,0.2));
#139=DIRECTION('',(0.,0.,-1.));
#140=DIRECTION('',(0.384490216,-0.923129067,0.));
#141=AXIS2_PLACEMENT_3D('',#138,#139,#140);
#142=CIRCLE('',#141,1.);
#143=EDGE_CURVE('',#137,#106,#142,.T.);
#144=ORIENTED_EDGE('',*,*,#143,.F.);
#145=CARTESIAN_POINT('',(-2.956631348,-5.969138651,-0.1));
#146=VERTEX_POINT('',#145);
#147=CARTESIAN_POINT('',(-2.956627972,-5.969137245,-0.1));
#148=DIRECTION('',(0.,0.,1.));
#149=VECTOR('',#148,0.3);
#150=LINE('',#147,#149);
#151=EDGE_CURVE('',#146,#137,#150,.T.);
#152=ORIENTED_EDGE('',*,*,#151,.F.);
#153=CARTESIAN_POINT('',(-3.341118188,-5.046008178,-0.1));
#154=DIRECTION('',(0.,0.,-1.));
#155=DIRECTION('',(-1.,0.,0.));
#156=AXIS2_PLACEMENT_3D('',#153,#154,#155);
#157=CIRCLE('',#156,1.);
#158=EDGE_CURVE('',#146,#114,#157,.T.);
#159=ORIENTED_EDGE('',*,*,#158,.T.);
#160=ORIENTED_EDGE('',*,*,#119,.T.);
#161=EDGE_LOOP('',(#144,#152,#159,#160));
#162=FACE_BOUND('',#161,.T.);
#163=ADVANCED_FACE('',(#162),#135,.F.);
#164=CARTESIAN_POINT('',(-2.360713104,-7.399879337,0.1));
#165=DIRECTION('',(0.,0.,1.));
#166=DIRECTION('',(1.,0.,-0.));
#167=AXIS2_PLACEMENT_3D('',#164,#165,#166);
#168=CYLINDRICAL_SURFACE('',#167,1.549883048);
#169=CARTESIAN_POINT('',(-2.672575122,-5.881696362,0.2));
#170=VERTEX_POINT('',#169);
#171=CARTESIAN_POINT('',(-2.360713104,-7.399879337,0.2));
#172=DIRECTION('',(0.,0.,-1.));
#173=DIRECTION('',(-0.384490216,0.923129067,0.));
#174=AXIS2_PLACEMENT_3D('',#171,#172,#173);
#175=CIRCLE('',#174,1.549883048);
#176=EDGE_CURVE('',#137,#170,#175,.T.);
#177=ORIENTED_EDGE('',*,*,#176,.T.);
#178=CARTESIAN_POINT('',(-2.672575122,-5.881696362,-0.1));
#179=VERTEX_POINT('',#178);
#180=CARTESIAN_POINT('',(-2.672575122,-5.881696362,-0.1));
#181=DIRECTION('',(0.,0.,1.));
#182=VECTOR('',#181,0.3);
#183=LINE('',#180,#182);
#184=EDGE_CURVE('',#179,#170,#183,.T.);
#185=ORIENTED_EDGE('',*,*,#184,.F.);
#186=CARTESIAN_POINT('',(-2.360713104,-7.399879337,-0.1));
#187=DIRECTION('',(0.,0.,-1.));
#188=DIRECTION('',(-1.,0.,0.));
#189=AXIS2_PLACEMENT_3D('',#186,#187,#188);
#190=CIRCLE('',#189,1.549883048);
#191=EDGE_CURVE('',#146,#179,#190,.T.);
#192=ORIENTED_EDGE('',*,*,#191,.F.);
#193=ORIENTED_EDGE('',*,*,#151,.T.);
#194=EDGE_LOOP('',(#177,#185,#192,#193));
#195=FACE_BOUND('',#194,.T.);
#196=ADVANCED_FACE('',(#195),#168,.T.);
#197=CARTESIAN_POINT('',(-2.885494061,-4.904626495,0.1));
#198=DIRECTION('',(0.,0.,1.));
#199=DIRECTION('',(1.,0.,-0.));
#200=AXIS2_PLACEMENT_3D('',#197,#198,#199);
#201=CYLINDRICAL_SURFACE('',#200,1.);
#202=CARTESIAN_POINT('',(-1.885494061,-4.904626495,0.2));
#203=VERTEX_POINT('',#202);
#204=CARTESIAN_POINT('',(-1.885494061,-4.904626495,-0.1));
#205=VERTEX_POINT('',#204);
#206=CARTESIAN_POINT('',(-1.885494061,-4.904626495,0.2));
#207=DIRECTION('',(-0.,-0.,-1.));
#208=VECTOR('',#207,0.3);
#209=LINE('',#206,#208);
#210=EDGE_CURVE('',#203,#205,#209,.T.);
#211=ORIENTED_EDGE('',*,*,#210,.F.);
#212=CARTESIAN_POINT('',(-1.892553949,-4.78600974,0.2));
#213=VERTEX_POINT('',#212);
#214=CARTESIAN_POINT('',(-2.885494061,-4.904626495,0.2));
#215=DIRECTION('',(0.,0.,-1.));
#216=DIRECTION('',(0.992940112,0.118616755,0.));
#217=AXIS2_PLACEMENT_3D('',#214,#215,#216);
#218=CIRCLE('',#217,1.);
#219=EDGE_CURVE('',#213,#203,#218,.T.);
#220=ORIENTED_EDGE('',*,*,#219,.F.);
#221=CARTESIAN_POINT('',(-1.892553949,-4.78600974,-0.1));
#222=VERTEX_POINT('',#221);
#223=CARTESIAN_POINT('',(-1.892553949,-4.78600974,-0.1));
#224=DIRECTION('',(0.,0.,1.));
#225=VECTOR('',#224,0.3);
#226=LINE('',#223,#225);
#227=EDGE_CURVE('',#222,#213,#226,.T.);
#228=ORIENTED_EDGE('',*,*,#227,.F.);
#229=CARTESIAN_POINT('',(-2.885494061,-4.904626495,-0.1));
#230=DIRECTION('',(0.,0.,-1.));
#231=DIRECTION('',(-1.,0.,0.));
#232=AXIS2_PLACEMENT_3D('',#229,#230,#231);
#233=CIRCLE('',#232,1.);
#234=EDGE_CURVE('',#222,#205,#233,.T.);
#235=ORIENTED_EDGE('',*,*,#234,.T.);
#236=EDGE_LOOP('',(#211,#220,#228,#235));
#237=FACE_BOUND('',#236,.T.);
#238=ADVANCED_FACE('',(#237),#201,.F.);
#239=CARTESIAN_POINT('',(-0.353496776,-4.602153771,0.1));
#240=DIRECTION('',(0.,0.,1.));
#241=DIRECTION('',(1.,0.,-0.));
#242=AXIS2_PLACEMENT_3D('',#239,#240,#241);
#243=CYLINDRICAL_SURFACE('',#242,1.55);
#244=CARTESIAN_POINT('',(1.091282236,-4.040803963,0.2));
#245=VERTEX_POINT('',#244);
#246=CARTESIAN_POINT('',(-0.353496776,-4.602153771,0.2));
#247=DIRECTION('',(-0.,0.,-1.));
#248=DIRECTION('',(-0.992940112,-0.118616755,0.));
#249=AXIS2_PLACEMENT_3D('',#246,#247,#248);
#250=CIRCLE('',#249,1.55);
#251=EDGE_CURVE('',#213,#245,#250,.T.);
#252=ORIENTED_EDGE('',*,*,#251,.T.);
#253=CARTESIAN_POINT('',(1.091281315,-4.040801593,-0.1));
#254=VERTEX_POINT('',#253);
#255=CARTESIAN_POINT('',(1.091282236,-4.040803963,-0.1));
#256=DIRECTION('',(0.,0.,1.));
#257=VECTOR('',#256,0.3);
#258=LINE('',#255,#257);
#259=EDGE_CURVE('',#254,#245,#258,.T.);
#260=ORIENTED_EDGE('',*,*,#259,.F.);
#261=CARTESIAN_POINT('',(-0.353496776,-4.602153771,-0.1));
#262=DIRECTION('',(0.,0.,-1.));
#263=DIRECTION('',(-1.,0.,0.));
#264=AXIS2_PLACEMENT_3D('',#261,#262,#263);
#265=CIRCLE('',#264,1.55);
#266=EDGE_CURVE('',#222,#254,#265,.T.);
#267=ORIENTED_EDGE('',*,*,#266,.F.);
#268=ORIENTED_EDGE('',*,*,#227,.T.);
#269=EDGE_LOOP('',(#252,#260,#267,#268));
#270=FACE_BOUND('',#269,.T.);
#271=ADVANCED_FACE('',(#270),#243,.T.);
#272=CARTESIAN_POINT('',(4.027446035,-2.899996289,0.1));
#273=DIRECTION('',(0.,0.,1.));
#274=DIRECTION('',(1.,0.,-0.));
#275=AXIS2_PLACEMENT_3D('',#272,#273,#274);
#276=CYLINDRICAL_SURFACE('',#275,3.15);
#277=CARTESIAN_POINT('',(4.027446035,-6.049996289,0.2));
#278=VERTEX_POINT('',#277);
#279=CARTESIAN_POINT('',(4.027446035,-2.899996289,0.2));
#280=DIRECTION('',(-0.,0.,-1.));
#281=DIRECTION('',(-0.,-1.,0.));
#282=AXIS2_PLACEMENT_3D('',#279,#280,#281);
#283=CIRCLE('',#282,3.15);
#284=EDGE_CURVE('',#278,#245,#283,.T.);
#285=ORIENTED_EDGE('',*,*,#284,.F.);
#286=CARTESIAN_POINT('',(4.027446035,-6.049996289,-0.1));
#287=VERTEX_POINT('',#286);
#288=CARTESIAN_POINT('',(4.027446035,-6.049996289,-0.1));
#289=DIRECTION('',(0.,0.,1.));
#290=VECTOR('',#289,0.3);
#291=LINE('',#288,#290);
#292=EDGE_CURVE('',#287,#278,#291,.T.);
#293=ORIENTED_EDGE('',*,*,#292,.F.);
#294=CARTESIAN_POINT('',(4.027446035,-2.899996289,-0.1));
#295=DIRECTION('',(0.,0.,-1.));
#296=DIRECTION('',(-1.,0.,0.));
#297=AXIS2_PLACEMENT_3D('',#294,#295,#296);
#298=CIRCLE('',#297,3.15);
#299=EDGE_CURVE('',#287,#254,#298,.T.);
#300=ORIENTED_EDGE('',*,*,#299,.T.);
#301=ORIENTED_EDGE('',*,*,#259,.T.);
#302=EDGE_LOOP('',(#285,#293,#300,#301));
#303=FACE_BOUND('',#302,.T.);
#304=ADVANCED_FACE('',(#303),#276,.F.);
#305=CARTESIAN_POINT('',(7.006468254,-6.049996289,0.1));
#306=DIRECTION('',(0.,-1.,0.));
#307=DIRECTION('',(1.,0.,0.));
#308=AXIS2_PLACEMENT_3D('',#305,#306,#307);
#309=PLANE('',#308);
#310=CARTESIAN_POINT('',(9.985490473,-6.049996289,0.2));
#311=VERTEX_POINT('',#310);
#312=CARTESIAN_POINT('',(4.027446035,-6.049996289,0.2));
#313=DIRECTION('',(1.,0.,0.));
#314=VECTOR('',#313,5.958044439);
#315=LINE('',#312,#314);
#316=EDGE_CURVE('',#278,#311,#315,.T.);
#317=ORIENTED_EDGE('',*,*,#316,.T.);
#318=CARTESIAN_POINT('',(9.985490473,-6.049996289,-0.1));
#319=VERTEX_POINT('',#318);
#320=CARTESIAN_POINT('',(9.985490473,-6.049996289,-0.1));
#321=DIRECTION('',(-0.,-0.,1.));
#322=VECTOR('',#321,0.3);
#323=LINE('',#320,#322);
#324=EDGE_CURVE('',#319,#311,#323,.T.);
#325=ORIENTED_EDGE('',*,*,#324,.F.);
#326=CARTESIAN_POINT('',(4.027446035,-6.049996289,-0.1));
#327=DIRECTION('',(1.,0.,0.));
#328=VECTOR('',#327,5.958044439);
#329=LINE('',#326,#328);
#330=EDGE_CURVE('',#287,#319,#329,.T.);
#331=ORIENTED_EDGE('',*,*,#330,.F.);
#332=ORIENTED_EDGE('',*,*,#292,.T.);
#333=EDGE_LOOP('',(#317,#325,#331,#332));
#334=FACE_BOUND('',#333,.T.);
#335=ADVANCED_FACE('',(#334),#309,.F.);
#336=CARTESIAN_POINT('',(9.985490473,-5.049996289,0.1));
#337=DIRECTION('',(0.,0.,1.));
#338=DIRECTION('',(1.,0.,-0.));
#339=AXIS2_PLACEMENT_3D('',#336,#337,#338);
#340=CYLINDRICAL_SURFACE('',#339,1.);
#341=CARTESIAN_POINT('',(10.973679202,-5.203238047,0.2));
#342=VERTEX_POINT('',#341);
#343=CARTESIAN_POINT('',(9.985490473,-5.049996289,0.2));
#344=DIRECTION('',(0.,0.,-1.));
#345=DIRECTION('',(0.988188729,-0.153241758,0.));
#346=AXIS2_PLACEMENT_3D('',#343,#344,#345);
#347=CIRCLE('',#346,1.);
#348=EDGE_CURVE('',#342,#311,#347,.T.);
#349=ORIENTED_EDGE('',*,*,#348,.F.);
#350=CARTESIAN_POINT('',(10.973678575,-5.203242087,-0.1));
#351=VERTEX_POINT('',#350);
#352=CARTESIAN_POINT('',(10.973678575,-5.203242087,-0.1));
#353=DIRECTION('',(0.,0.,1.));
#354=VECTOR('',#353,0.3);
#355=LINE('',#352,#354);
#356=EDGE_CURVE('',#351,#342,#355,.T.);
#357=ORIENTED_EDGE('',*,*,#356,.F.);
#358=CARTESIAN_POINT('',(9.985490473,-5.049996289,-0.1));
#359=DIRECTION('',(0.,0.,-1.));
#360=DIRECTION('',(-1.,0.,0.));
#361=AXIS2_PLACEMENT_3D('',#358,#359,#360);
#362=CIRCLE('',#361,1.);
#363=EDGE_CURVE('',#351,#319,#362,.T.);
#364=ORIENTED_EDGE('',*,*,#363,.T.);
#365=ORIENTED_EDGE('',*,*,#324,.T.);
#366=EDGE_LOOP('',(#349,#357,#364,#365));
#367=FACE_BOUND('',#366,.T.);
#368=ADVANCED_FACE('',(#367),#340,.F.);
#369=CARTESIAN_POINT('',(-20.628139672,-0.30263745,0.1));
#370=DIRECTION('',(0.,0.,1.));
#371=DIRECTION('',(1.,0.,-0.));
#372=AXIS2_PLACEMENT_3D('',#369,#370,#371);
#373=CYLINDRICAL_SURFACE('',#372,31.97953787);
#374=CARTESIAN_POINT('',(11.343673531,-1.005490845,0.2));
#375=VERTEX_POINT('',#374);
#376=CARTESIAN_POINT('',(-20.628139672,-0.30263745,0.2));
#377=DIRECTION('',(0.,0.,-1.));
#378=DIRECTION('',(0.99975845,-0.021978222,0.));
#379=AXIS2_PLACEMENT_3D('',#376,#377,#378);
#380=CIRCLE('',#379,31.97953787);
#381=EDGE_CURVE('',#375,#342,#380,.T.);
#382=ORIENTED_EDGE('',*,*,#381,.F.);
#383=CARTESIAN_POINT('',(11.343673531,-1.005490845,-0.1));
#384=VERTEX_POINT('',#383);
#385=CARTESIAN_POINT('',(11.343673531,-1.005490845,-0.1));
#386=DIRECTION('',(0.,0.,1.));
#387=VECTOR('',#386,0.3);
#388=LINE('',#385,#387);
#389=EDGE_CURVE('',#384,#375,#388,.T.);
#390=ORIENTED_EDGE('',*,*,#389,.F.);
#391=CARTESIAN_POINT('',(-20.628139672,-0.30263745,-0.1));
#392=DIRECTION('',(0.,0.,-1.));
#393=DIRECTION('',(-1.,0.,0.));
#394=AXIS2_PLACEMENT_3D('',#391,#392,#393);
#395=CIRCLE('',#394,31.97953787);
#396=EDGE_CURVE('',#384,#351,#395,.T.);
#397=ORIENTED_EDGE('',*,*,#396,.T.);
#398=ORIENTED_EDGE('',*,*,#356,.T.);
#399=EDGE_LOOP('',(#382,#390,#397,#398));
#400=FACE_BOUND('',#399,.T.);
#401=ADVANCED_FACE('',(#400),#373,.F.);
#402=CARTESIAN_POINT('',(11.354725692,-0.502743567,0.1));
#403=DIRECTION('',(0.99975845,-0.021978222,0.));
#404=DIRECTION('',(0.021978222,0.99975845,0.));
#405=AXIS2_PLACEMENT_3D('',#402,#403,#404);
#406=PLANE('',#405);
#407=CARTESIAN_POINT('',(11.365777853,0.000003711,0.2));
#408=VERTEX_POINT('',#407);
#409=CARTESIAN_POINT('',(11.343673531,-1.005490845,0.2));
#410=DIRECTION('',(0.021978222,0.99975845,0.));
#411=VECTOR('',#410,1.005737492);
#412=LINE('',#409,#411);
#413=EDGE_CURVE('',#375,#408,#412,.T.);
#414=ORIENTED_EDGE('',*,*,#413,.T.);
#415=CARTESIAN_POINT('',(11.365777853,0.000003711,-0.1));
#416=VERTEX_POINT('',#415);
#417=CARTESIAN_POINT('',(11.365777853,0.000003711,-0.1));
#418=DIRECTION('',(0.,0.,1.));
#419=VECTOR('',#418,0.3);
#420=LINE('',#417,#419);
#421=EDGE_CURVE('',#416,#408,#420,.T.);
#422=ORIENTED_EDGE('',*,*,#421,.F.);
#423=CARTESIAN_POINT('',(11.343673531,-1.005490845,-0.1));
#424=DIRECTION('',(0.021978222,0.99975845,0.));
#425=VECTOR('',#424,1.005737492);
#426=LINE('',#423,#425);
#427=EDGE_CURVE('',#384,#416,#426,.T.);
#428=ORIENTED_EDGE('',*,*,#427,.F.);
#429=ORIENTED_EDGE('',*,*,#389,.T.);
#430=EDGE_LOOP('',(#414,#422,#428,#429));
#431=FACE_BOUND('',#430,.T.);
#432=ADVANCED_FACE('',(#431),#406,.F.);
#433=CARTESIAN_POINT('',(11.354725692,0.502750989,0.1));
#434=DIRECTION('',(0.99975845,0.021978222,0.));
#435=DIRECTION('',(-0.021978222,0.99975845,0.));
#436=AXIS2_PLACEMENT_3D('',#433,#434,#435);
#437=PLANE('',#436);
#438=CARTESIAN_POINT('',(11.343673531,1.005498267,0.2));
#439=VERTEX_POINT('',#438);
#440=CARTESIAN_POINT('',(11.365777853,0.000003711,0.2));
#441=DIRECTION('',(-0.021978222,0.99975845,0.));
#442=VECTOR('',#441,1.005737492);
#443=LINE('',#440,#442);
#444=EDGE_CURVE('',#408,#439,#443,.T.);
#445=ORIENTED_EDGE('',*,*,#444,.T.);
#446=CARTESIAN_POINT('',(11.343673531,1.005498267,-0.1));
#447=VERTEX_POINT('',#446);
#448=CARTESIAN_POINT('',(11.343673531,1.005498267,-0.1));
#449=DIRECTION('',(-0.,-0.,1.));
#450=VECTOR('',#449,0.3);
#451=LINE('',#448,#450);
#452=EDGE_CURVE('',#447,#439,#451,.T.);
#453=ORIENTED_EDGE('',*,*,#452,.F.);
#454=CARTESIAN_POINT('',(11.365777853,0.000003711,-0.1));
#455=DIRECTION('',(-0.021978222,0.99975845,0.));
#456=VECTOR('',#455,1.005737492);
#457=LINE('',#454,#456);
#458=EDGE_CURVE('',#416,#447,#457,.T.);
#459=ORIENTED_EDGE('',*,*,#458,.F.);
#460=ORIENTED_EDGE('',*,*,#421,.T.);
#461=EDGE_LOOP('',(#445,#453,#459,#460));
#462=FACE_BOUND('',#461,.T.);
#463=ADVANCED_FACE('',(#462),#437,.F.);
#464=CARTESIAN_POINT('',(-20.628139672,0.302644872,0.1));
#465=DIRECTION('',(0.,0.,1.));
#466=DIRECTION('',(1.,0.,-0.));
#467=AXIS2_PLACEMENT_3D('',#464,#465,#466);
#468=CYLINDRICAL_SURFACE('',#467,31.97953787);
#469=CARTESIAN_POINT('',(11.221346895,3.183798768,0.2));
#470=VERTEX_POINT('',#469);
#471=CARTESIAN_POINT('',(-20.628139672,0.302644872,0.2));
#472=DIRECTION('',(0.,0.,-1.));
#473=DIRECTION('',(0.995933296,0.090093669,0.));
#474=AXIS2_PLACEMENT_3D('',#471,#472,#473);
#475=CIRCLE('',#474,31.97953787);
#476=EDGE_CURVE('',#470,#439,#475,.T.);
#477=ORIENTED_EDGE('',*,*,#476,.F.);
#478=CARTESIAN_POINT('',(11.221346584,3.183802205,-0.1));
#479=VERTEX_POINT('',#478);
#480=CARTESIAN_POINT('',(11.221346584,3.183802205,-0.1));
#481=DIRECTION('',(0.,0.,1.));
#482=VECTOR('',#481,0.3);
#483=LINE('',#480,#482);
#484=EDGE_CURVE('',#479,#470,#483,.T.);
#485=ORIENTED_EDGE('',*,*,#484,.F.);
#486=CARTESIAN_POINT('',(-20.628139672,0.302644872,-0.1));
#487=DIRECTION('',(0.,0.,-1.));
#488=DIRECTION('',(-1.,0.,0.));
#489=AXIS2_PLACEMENT_3D('',#486,#487,#488);
#490=CIRCLE('',#489,31.97953787);
#491=EDGE_CURVE('',#479,#447,#490,.T.);
#492=ORIENTED_EDGE('',*,*,#491,.T.);
#493=ORIENTED_EDGE('',*,*,#452,.T.);
#494=EDGE_LOOP('',(#477,#485,#492,#493));
#495=FACE_BOUND('',#494,.T.);
#496=ADVANCED_FACE('',(#495),#468,.F.);
#497=CARTESIAN_POINT('',(8.084157011,2.900003711,0.1));
#498=DIRECTION('',(0.,0.,1.));
#499=DIRECTION('',(1.,0.,-0.));
#500=AXIS2_PLACEMENT_3D('',#497,#498,#499);
#501=CYLINDRICAL_SURFACE('',#500,3.15);
#502=CARTESIAN_POINT('',(8.084157011,6.050003711,0.2));
#503=VERTEX_POINT('',#502);
#504=CARTESIAN_POINT('',(8.084157011,2.900003711,0.2));
#505=DIRECTION('',(0.,0.,-1.));
#506=DIRECTION('',(0.,1.,0.));
#507=AXIS2_PLACEMENT_3D('',#504,#505,#506);
#508=CIRCLE('',#507,3.15);
#509=EDGE_CURVE('',#503,#470,#508,.T.);
#510=ORIENTED_EDGE('',*,*,#509,.F.);
#511=CARTESIAN_POINT('',(8.084157011,6.050003711,-0.1));
#512=VERTEX_POINT('',#511);
#513=CARTESIAN_POINT('',(8.084157011,6.050003711,-0.1));
#514=DIRECTION('',(-0.,-0.,1.));
#515=VECTOR('',#514,0.3);
#516=LINE('',#513,#515);
#517=EDGE_CURVE('',#512,#503,#516,.T.);
#518=ORIENTED_EDGE('',*,*,#517,.F.);
#519=CARTESIAN_POINT('',(8.084157011,2.900003711,-0.1));
#520=DIRECTION('',(0.,0.,-1.));
#521=DIRECTION('',(-1.,0.,0.));
#522=AXIS2_PLACEMENT_3D('',#519,#520,#521);
#523=CIRCLE('',#522,3.15);
#524=EDGE_CURVE('',#512,#479,#523,.T.);
#525=ORIENTED_EDGE('',*,*,#524,.T.);
#526=ORIENTED_EDGE('',*,*,#484,.T.);
#527=EDGE_LOOP('',(#510,#518,#525,#526));
#528=FACE_BOUND('',#527,.T.);
#529=ADVANCED_FACE('',(#528),#501,.F.);
#530=CARTESIAN_POINT('',(5.120513081,6.050003711,0.1));
#531=DIRECTION('',(-0.,-1.,0.));
#532=DIRECTION('',(1.,-0.,0.));
#533=AXIS2_PLACEMENT_3D('',#530,#531,#532);
#534=PLANE('',#533);
#535=CARTESIAN_POINT('',(2.15686915,6.050003711,0.2));
#536=VERTEX_POINT('',#535);
#537=CARTESIAN_POINT('',(2.15686915,6.050003711,0.2));
#538=DIRECTION('',(1.,-0.,0.));
#539=VECTOR('',#538,5.927287862);
#540=LINE('',#537,#539);
#541=EDGE_CURVE('',#536,#503,#540,.T.);
#542=ORIENTED_EDGE('',*,*,#541,.F.);
#543=CARTESIAN_POINT('',(2.15686915,6.050003711,-0.1));
#544=VERTEX_POINT('',#543);
#545=CARTESIAN_POINT('',(2.15686915,6.050003711,-0.1));
#546=DIRECTION('',(0.,0.,1.));
#547=VECTOR('',#546,0.3);
#548=LINE('',#545,#547);
#549=EDGE_CURVE('',#544,#536,#548,.T.);
#550=ORIENTED_EDGE('',*,*,#549,.F.);
#551=CARTESIAN_POINT('',(2.15686915,6.050003711,-0.1));
#552=DIRECTION('',(1.,-0.,0.));
#553=VECTOR('',#552,5.927287862);
#554=LINE('',#551,#553);
#555=EDGE_CURVE('',#544,#512,#554,.T.);
#556=ORIENTED_EDGE('',*,*,#555,.T.);
#557=ORIENTED_EDGE('',*,*,#517,.T.);
#558=EDGE_LOOP('',(#542,#550,#556,#557));
#559=FACE_BOUND('',#558,.T.);
#560=ADVANCED_FACE('',(#559),#534,.T.);
#561=CARTESIAN_POINT('',(2.15686915,5.050003711,0.1));
#562=DIRECTION('',(0.,0.,1.));
#563=DIRECTION('',(1.,0.,-0.));
#564=AXIS2_PLACEMENT_3D('',#561,#562,#563);
#565=CYLINDRICAL_SURFACE('',#564,1.);
#566=CARTESIAN_POINT('',(1.172411924,4.874379194,0.2));
#567=VERTEX_POINT('',#566);
#568=CARTESIAN_POINT('',(2.15686915,5.050003711,0.2));
#569=DIRECTION('',(-0.,0.,-1.));
#570=DIRECTION('',(-0.984457226,-0.175624517,0.));
#571=AXIS2_PLACEMENT_3D('',#568,#569,#570);
#572=CIRCLE('',#571,1.);
#573=EDGE_CURVE('',#567,#536,#572,.T.);
#574=ORIENTED_EDGE('',*,*,#573,.F.);
#575=CARTESIAN_POINT('',(1.172411924,4.874379194,-0.1));
#576=VERTEX_POINT('',#575);
#577=CARTESIAN_POINT('',(1.172411924,4.874379194,-0.1));
#578=DIRECTION('',(0.,0.,1.));
#579=VECTOR('',#578,0.3);
#580=LINE('',#577,#579);
#581=EDGE_CURVE('',#576,#567,#580,.T.);
#582=ORIENTED_EDGE('',*,*,#581,.F.);
#583=CARTESIAN_POINT('',(2.15686915,5.050003711,-0.1));
#584=DIRECTION('',(0.,0.,-1.));
#585=DIRECTION('',(-1.,0.,0.));
#586=AXIS2_PLACEMENT_3D('',#583,#584,#585);
#587=CIRCLE('',#586,1.);
#588=EDGE_CURVE('',#576,#544,#587,.T.);
#589=ORIENTED_EDGE('',*,*,#588,.T.);
#590=ORIENTED_EDGE('',*,*,#549,.T.);
#591=EDGE_LOOP('',(#574,#582,#589,#590));
#592=FACE_BOUND('',#591,.T.);
#593=ADVANCED_FACE('',(#592),#565,.F.);
#594=CARTESIAN_POINT('',(-0.353496776,4.602161193,0.1));
#595=DIRECTION('',(0.,0.,1.));
#596=DIRECTION('',(1.,0.,-0.));
#597=AXIS2_PLACEMENT_3D('',#594,#595,#596);
#598=CYLINDRICAL_SURFACE('',#597,1.55);
#599=CARTESIAN_POINT('',(1.196503224,4.602161193,0.2));
#600=VERTEX_POINT('',#599);
#601=CARTESIAN_POINT('',(1.196503224,4.602161193,-0.1));
#602=VERTEX_POINT('',#601);
#603=CARTESIAN_POINT('',(1.196503224,4.602161193,0.2));
#604=DIRECTION('',(-0.,-0.,-1.));
#605=VECTOR('',#604,0.3);
#606=LINE('',#603,#605);
#607=EDGE_CURVE('',#600,#602,#606,.T.);
#608=ORIENTED_EDGE('',*,*,#607,.T.);
#609=CARTESIAN_POINT('',(-0.353496776,4.602161193,-0.1));
#610=DIRECTION('',(0.,0.,-1.));
#611=DIRECTION('',(-1.,0.,0.));
#612=AXIS2_PLACEMENT_3D('',#609,#610,#611);
#613=CIRCLE('',#612,1.55);
#614=EDGE_CURVE('',#576,#602,#613,.T.);
#615=ORIENTED_EDGE('',*,*,#614,.F.);
#616=ORIENTED_EDGE('',*,*,#581,.T.);
#617=CARTESIAN_POINT('',(-0.353496776,4.602161193,0.2));
#618=DIRECTION('',(0.,0.,-1.));
#619=DIRECTION('',(0.984457226,0.175624517,0.));
#620=AXIS2_PLACEMENT_3D('',#617,#618,#619);
#621=CIRCLE('',#620,1.55);
#622=EDGE_CURVE('',#567,#600,#621,.T.);
#623=ORIENTED_EDGE('',*,*,#622,.T.);
#624=EDGE_LOOP('',(#608,#615,#616,#623));
#625=FACE_BOUND('',#624,.T.);
#626=ADVANCED_FACE('',(#625),#598,.T.);
#627=CARTESIAN_POINT('',(-2.885499239,4.90459057,0.1));
#628=DIRECTION('',(0.,0.,-1.));
#629=DIRECTION('',(-1.,0.,0.));
#630=AXIS2_PLACEMENT_3D('',#627,#628,#629);
#631=CYLINDRICAL_SURFACE('',#630,1.);
#632=CARTESIAN_POINT('',(-2.679691315,5.883182977,0.2));
#633=VERTEX_POINT('',#632);
#634=CARTESIAN_POINT('',(-1.892557096,4.785990814,0.2));
#635=VERTEX_POINT('',#634);
#636=CARTESIAN_POINT('',(-2.885499239,4.90459057,0.2));
#637=DIRECTION('',(0.,0.,-1.));
#638=DIRECTION('',(-1.,0.,0.));
#639=AXIS2_PLACEMENT_3D('',#636,#637,#638);
#640=CIRCLE('',#639,1.);
#641=EDGE_CURVE('',#633,#635,#640,.T.);
#642=ORIENTED_EDGE('',*,*,#641,.F.);
#643=CARTESIAN_POINT('',(-2.679687842,5.883182246,-0.1));
#644=VERTEX_POINT('',#643);
#645=CARTESIAN_POINT('',(-2.679687842,5.883182246,-0.1));
#646=DIRECTION('',(0.,0.,1.));
#647=VECTOR('',#646,0.3);
#648=LINE('',#645,#647);
#649=EDGE_CURVE('',#644,#633,#648,.T.);
#650=ORIENTED_EDGE('',*,*,#649,.F.);
#651=CARTESIAN_POINT('',(-1.892556703,4.785994108,-0.1));
#652=VERTEX_POINT('',#651);
#653=CARTESIAN_POINT('',(-2.885499239,4.90459057,-0.1));
#654=DIRECTION('',(0.,0.,-1.));
#655=DIRECTION('',(-1.,0.,0.));
#656=AXIS2_PLACEMENT_3D('',#653,#654,#655);
#657=CIRCLE('',#656,1.);
#658=EDGE_CURVE('',#644,#652,#657,.T.);
#659=ORIENTED_EDGE('',*,*,#658,.T.);
#660=CARTESIAN_POINT('',(-1.892556703,4.785994108,-0.1));
#661=DIRECTION('',(0.,0.,1.));
#662=VECTOR('',#661,0.3);
#663=LINE('',#660,#662);
#664=EDGE_CURVE('',#652,#635,#663,.T.);
#665=ORIENTED_EDGE('',*,*,#664,.T.);
#666=EDGE_LOOP('',(#642,#650,#659,#665));
#667=FACE_BOUND('',#666,.T.);
#668=ADVANCED_FACE('',(#667),#631,.F.);
#669=CARTESIAN_POINT('',(-2.360713104,7.399886759,0.1));
#670=DIRECTION('',(0.,0.,1.));
#671=DIRECTION('',(1.,0.,-0.));
#672=AXIS2_PLACEMENT_3D('',#669,#670,#671);
#673=CYLINDRICAL_SURFACE('',#672,1.549883048);
#674=CARTESIAN_POINT('',(-2.956627972,5.969144667,0.2));
#675=VERTEX_POINT('',#674);
#676=CARTESIAN_POINT('',(-2.360713104,7.399886759,0.2));
#677=DIRECTION('',(-0.,0.,-1.));
#678=DIRECTION('',(-0.201216484,-0.979546796,0.));
#679=AXIS2_PLACEMENT_3D('',#676,#677,#678);
#680=CIRCLE('',#679,1.549883048);
#681=EDGE_CURVE('',#633,#675,#680,.T.);
#682=ORIENTED_EDGE('',*,*,#681,.T.);
#683=CARTESIAN_POINT('',(-2.956627972,5.969144667,-0.1));
#684=VERTEX_POINT('',#683);
#685=CARTESIAN_POINT('',(-2.956627972,5.969144667,-0.1));
#686=DIRECTION('',(0.,0.,1.));
#687=VECTOR('',#686,0.3);
#688=LINE('',#685,#687);
#689=EDGE_CURVE('',#684,#675,#688,.T.);
#690=ORIENTED_EDGE('',*,*,#689,.F.);
#691=CARTESIAN_POINT('',(-2.360713104,7.399886759,-0.1));
#692=DIRECTION('',(0.,0.,-1.));
#693=DIRECTION('',(-1.,0.,0.));
#694=AXIS2_PLACEMENT_3D('',#691,#692,#693);
#695=CIRCLE('',#694,1.549883048);
#696=EDGE_CURVE('',#644,#684,#695,.T.);
#697=ORIENTED_EDGE('',*,*,#696,.F.);
#698=ORIENTED_EDGE('',*,*,#649,.T.);
#699=EDGE_LOOP('',(#682,#690,#697,#698));
#700=FACE_BOUND('',#699,.T.);
#701=ADVANCED_FACE('',(#700),#673,.T.);
#702=CARTESIAN_POINT('',(-3.341118188,5.0460156,0.1));
#703=DIRECTION('',(0.,0.,1.));
#704=DIRECTION('',(1.,0.,-0.));
#705=AXIS2_PLACEMENT_3D('',#702,#703,#704);
#706=CYLINDRICAL_SURFACE('',#705,1.);
#707=CARTESIAN_POINT('',(-3.350496895,6.045971619,0.2));
#708=VERTEX_POINT('',#707);
#709=CARTESIAN_POINT('',(-3.341118188,5.0460156,0.2));
#710=DIRECTION('',(0.,0.,-1.));
#711=DIRECTION('',(-0.009378707,0.999956019,0.));
#712=AXIS2_PLACEMENT_3D('',#709,#710,#711);
#713=CIRCLE('',#712,1.);
#714=EDGE_CURVE('',#708,#675,#713,.T.);
#715=ORIENTED_EDGE('',*,*,#714,.F.);
#716=CARTESIAN_POINT('',(-3.350496895,6.045971619,-0.1));
#717=VERTEX_POINT('',#716);
#718=CARTESIAN_POINT('',(-3.350496895,6.045971619,-0.1));
#719=DIRECTION('',(0.,0.,1.));
#720=VECTOR('',#719,0.3);
#721=LINE('',#718,#720);
#722=EDGE_CURVE('',#717,#708,#721,.T.);
#723=ORIENTED_EDGE('',*,*,#722,.F.);
#724=CARTESIAN_POINT('',(-3.341118188,5.0460156,-0.1));
#725=DIRECTION('',(0.,0.,-1.));
#726=DIRECTION('',(-1.,0.,0.));
#727=AXIS2_PLACEMENT_3D('',#724,#725,#726);
#728=CIRCLE('',#727,1.);
#729=EDGE_CURVE('',#717,#684,#728,.T.);
#730=ORIENTED_EDGE('',*,*,#729,.T.);
#731=ORIENTED_EDGE('',*,*,#689,.T.);
#732=EDGE_LOOP('',(#715,#723,#730,#731));
#733=FACE_BOUND('',#732,.T.);
#734=ADVANCED_FACE('',(#733),#706,.F.);
#735=CARTESIAN_POINT('',(-6.02999566,6.020840279,0.1));
#736=DIRECTION('',(-0.009378707,0.999956019,0.));
#737=DIRECTION('',(-0.999956019,-0.009378707,0.));
#738=AXIS2_PLACEMENT_3D('',#735,#736,#737);
#739=PLANE('',#738);
#740=CARTESIAN_POINT('',(-8.709494425,5.995708939,0.2));
#741=VERTEX_POINT('',#740);
#742=CARTESIAN_POINT('',(-3.350496895,6.045971619,0.2));
#743=DIRECTION('',(-0.999956019,-0.009378707,0.));
#744=VECTOR('',#743,5.359233234);
#745=LINE('',#742,#744);
#746=EDGE_CURVE('',#708,#741,#745,.T.);
#747=ORIENTED_EDGE('',*,*,#746,.T.);
#748=CARTESIAN_POINT('',(-8.709494425,5.995708939,-0.1));
#749=VERTEX_POINT('',#748);
#750=CARTESIAN_POINT('',(-8.709494425,5.995708939,-0.1));
#751=DIRECTION('',(0.,0.,1.));
#752=VECTOR('',#751,0.3);
#753=LINE('',#750,#752);
#754=EDGE_CURVE('',#749,#741,#753,.T.);
#755=ORIENTED_EDGE('',*,*,#754,.F.);
#756=CARTESIAN_POINT('',(-3.350496895,6.045971619,-0.1));
#757=DIRECTION('',(-0.999956019,-0.009378707,0.));
#758=VECTOR('',#757,5.359233234);
#759=LINE('',#756,#758);
#760=EDGE_CURVE('',#717,#749,#759,.T.);
#761=ORIENTED_EDGE('',*,*,#760,.F.);
#762=ORIENTED_EDGE('',*,*,#722,.T.);
#763=EDGE_LOOP('',(#747,#755,#761,#762));
#764=FACE_BOUND('',#763,.T.);
#765=ADVANCED_FACE('',(#764),#739,.F.);
#766=CARTESIAN_POINT('',(11.854725706,0.508245544,0.1));
#767=DIRECTION('',(-0.99975845,-0.021978222,0.));
#768=DIRECTION('',(0.021978222,-0.99975845,0.));
#769=AXIS2_PLACEMENT_3D('',#766,#767,#768);
#770=PLANE('',#769);
#771=CARTESIAN_POINT('',(11.843552755,1.016487378,0.2));
#772=VERTEX_POINT('',#771);
#773=CARTESIAN_POINT('',(11.865898657,0.000003711,0.2));
#774=VERTEX_POINT('',#773);
#775=CARTESIAN_POINT('',(11.843552755,1.016487378,0.2));
#776=DIRECTION('',(0.021978222,-0.99975845,0.));
#777=VECTOR('',#776,1.016729258);
#778=LINE('',#775,#777);
#779=EDGE_CURVE('',#772,#774,#778,.T.);
#780=ORIENTED_EDGE('',*,*,#779,.T.);
#781=CARTESIAN_POINT('',(11.865898657,0.000003711,-0.1));
#782=VERTEX_POINT('',#781);
#783=CARTESIAN_POINT('',(11.865898657,0.000003711,-0.1));
#784=DIRECTION('',(0.,0.,1.));
#785=VECTOR('',#784,0.3);
#786=LINE('',#783,#785);
#787=EDGE_CURVE('',#782,#774,#786,.T.);
#788=ORIENTED_EDGE('',*,*,#787,.F.);
#789=CARTESIAN_POINT('',(11.843552755,1.016487378,-0.1));
#790=VERTEX_POINT('',#789);
#791=CARTESIAN_POINT('',(11.843552755,1.016487378,-0.1));
#792=DIRECTION('',(0.021978222,-0.99975845,0.));
#793=VECTOR('',#792,1.016729258);
#794=LINE('',#791,#793);
#795=EDGE_CURVE('',#790,#782,#794,.T.);
#796=ORIENTED_EDGE('',*,*,#795,.F.);
#797=CARTESIAN_POINT('',(11.843552755,1.016487378,-0.1));
#798=DIRECTION('',(0.,0.,1.));
#799=VECTOR('',#798,0.3);
#800=LINE('',#797,#799);
#801=EDGE_CURVE('',#790,#772,#800,.T.);
#802=ORIENTED_EDGE('',*,*,#801,.T.);
#803=EDGE_LOOP('',(#780,#788,#796,#802));
#804=FACE_BOUND('',#803,.T.);
#805=ADVANCED_FACE('',(#804),#770,.F.);
#806=CARTESIAN_POINT('',(11.854725706,-0.508238122,0.1));
#807=DIRECTION('',(-0.99975845,0.021978222,0.));
#808=DIRECTION('',(-0.021978222,-0.99975845,0.));
#809=AXIS2_PLACEMENT_3D('',#806,#807,#808);
#810=PLANE('',#809);
#811=CARTESIAN_POINT('',(11.843552755,-1.016479956,0.2));
#812=VERTEX_POINT('',#811);
#813=CARTESIAN_POINT('',(11.865898657,0.000003711,0.2));
#814=DIRECTION('',(-0.021978222,-0.99975845,0.));
#815=VECTOR('',#814,1.016729258);
#816=LINE('',#813,#815);
#817=EDGE_CURVE('',#774,#812,#816,.T.);
#818=ORIENTED_EDGE('',*,*,#817,.T.);
#819=CARTESIAN_POINT('',(11.843552755,-1.016479956,-0.1));
#820=VERTEX_POINT('',#819);
#821=CARTESIAN_POINT('',(11.843552755,-1.016479956,-0.1));
#822=DIRECTION('',(-0.,-0.,1.));
#823=VECTOR('',#822,0.3);
#824=LINE('',#821,#823);
#825=EDGE_CURVE('',#820,#812,#824,.T.);
#826=ORIENTED_EDGE('',*,*,#825,.F.);
#827=CARTESIAN_POINT('',(11.865898657,0.000003711,-0.1));
#828=DIRECTION('',(-0.021978222,-0.99975845,0.));
#829=VECTOR('',#828,1.016729258);
#830=LINE('',#827,#829);
#831=EDGE_CURVE('',#782,#820,#830,.T.);
#832=ORIENTED_EDGE('',*,*,#831,.F.);
#833=ORIENTED_EDGE('',*,*,#787,.T.);
#834=EDGE_LOOP('',(#818,#826,#832,#833));
#835=FACE_BOUND('',#834,.T.);
#836=ADVANCED_FACE('',(#835),#810,.F.);
#837=CARTESIAN_POINT('',(-20.628139672,-0.30263745,0.1));
#838=DIRECTION('',(0.,0.,1.));
#839=DIRECTION('',(1.,0.,-0.));
#840=AXIS2_PLACEMENT_3D('',#837,#838,#839);
#841=CYLINDRICAL_SURFACE('',#840,32.47953787);
#842=CARTESIAN_POINT('',(11.467773566,-5.279858926,0.2));
#843=VERTEX_POINT('',#842);
#844=CARTESIAN_POINT('',(-20.628139672,-0.30263745,0.2));
#845=DIRECTION('',(0.,0.,-1.));
#846=DIRECTION('',(0.99975845,-0.021978222,0.));
#847=AXIS2_PLACEMENT_3D('',#844,#845,#846);
#848=CIRCLE('',#847,32.47953787);
#849=EDGE_CURVE('',#812,#843,#848,.T.);
#850=ORIENTED_EDGE('',*,*,#849,.T.);
#851=CARTESIAN_POINT('',(11.467772991,-5.279862639,-0.1));
#852=VERTEX_POINT('',#851);
#853=CARTESIAN_POINT('',(11.467772991,-5.279862639,-0.1));
#854=DIRECTION('',(0.,0.,1.));
#855=VECTOR('',#854,0.3);
#856=LINE('',#853,#855);
#857=EDGE_CURVE('',#852,#843,#856,.T.);
#858=ORIENTED_EDGE('',*,*,#857,.F.);
#859=CARTESIAN_POINT('',(-20.628139672,-0.30263745,-0.1));
#860=DIRECTION('',(0.,0.,-1.));
#861=DIRECTION('',(-1.,0.,0.));
#862=AXIS2_PLACEMENT_3D('',#859,#860,#861);
#863=CIRCLE('',#862,32.47953787);
#864=EDGE_CURVE('',#820,#852,#863,.T.);
#865=ORIENTED_EDGE('',*,*,#864,.F.);
#866=ORIENTED_EDGE('',*,*,#825,.T.);
#867=EDGE_LOOP('',(#850,#858,#865,#866));
#868=FACE_BOUND('',#867,.T.);
#869=ADVANCED_FACE('',(#868),#841,.T.);
#870=CARTESIAN_POINT('',(9.985490473,-5.049996289,0.1));
#871=DIRECTION('',(0.,0.,1.));
#872=DIRECTION('',(1.,0.,-0.));
#873=AXIS2_PLACEMENT_3D('',#870,#871,#872);
#874=CYLINDRICAL_SURFACE('',#873,1.5);
#875=CARTESIAN_POINT('',(9.985490473,-6.549996289,0.2));
#876=VERTEX_POINT('',#875);
#877=CARTESIAN_POINT('',(9.985490473,-5.049996289,0.2));
#878=DIRECTION('',(0.,0.,-1.));
#879=DIRECTION('',(0.988188729,-0.153241758,0.));
#880=AXIS2_PLACEMENT_3D('',#877,#878,#879);
#881=CIRCLE('',#880,1.5);
#882=EDGE_CURVE('',#843,#876,#881,.T.);
#883=ORIENTED_EDGE('',*,*,#882,.T.);
#884=CARTESIAN_POINT('',(9.985487189,-6.549996289,-0.1));
#885=VERTEX_POINT('',#884);
#886=CARTESIAN_POINT('',(9.985490473,-6.549996289,-0.1));
#887=DIRECTION('',(0.,0.,1.));
#888=VECTOR('',#887,0.3);
#889=LINE('',#886,#888);
#890=EDGE_CURVE('',#885,#876,#889,.T.);
#891=ORIENTED_EDGE('',*,*,#890,.F.);
#892=CARTESIAN_POINT('',(9.985490473,-5.049996289,-0.1));
#893=DIRECTION('',(0.,0.,-1.));
#894=DIRECTION('',(-1.,0.,0.));
#895=AXIS2_PLACEMENT_3D('',#892,#893,#894);
#896=CIRCLE('',#895,1.5);
#897=EDGE_CURVE('',#852,#885,#896,.T.);
#898=ORIENTED_EDGE('',*,*,#897,.F.);
#899=ORIENTED_EDGE('',*,*,#857,.T.);
#900=EDGE_LOOP('',(#883,#891,#898,#899));
#901=FACE_BOUND('',#900,.T.);
#902=ADVANCED_FACE('',(#901),#874,.T.);
#903=CARTESIAN_POINT('',(7.006468254,-6.549996289,0.1));
#904=DIRECTION('',(-0.,1.,0.));
#905=DIRECTION('',(-1.,-0.,0.));
#906=AXIS2_PLACEMENT_3D('',#903,#904,#905);
#907=PLANE('',#906);
#908=CARTESIAN_POINT('',(4.027446035,-6.549996289,0.2));
#909=VERTEX_POINT('',#908);
#910=CARTESIAN_POINT('',(9.985490473,-6.549996289,0.2));
#911=DIRECTION('',(-1.,-0.,0.));
#912=VECTOR('',#911,5.958044439);
#913=LINE('',#910,#912);
#914=EDGE_CURVE('',#876,#909,#913,.T.);
#915=ORIENTED_EDGE('',*,*,#914,.T.);
#916=CARTESIAN_POINT('',(4.027446035,-6.549996289,-0.1));
#917=VERTEX_POINT('',#916);
#918=CARTESIAN_POINT('',(4.027446035,-6.549996289,-0.1));
#919=DIRECTION('',(0.,0.,1.));
#920=VECTOR('',#919,0.3);
#921=LINE('',#918,#920);
#922=EDGE_CURVE('',#917,#909,#921,.T.);
#923=ORIENTED_EDGE('',*,*,#922,.F.);
#924=CARTESIAN_POINT('',(9.985487189,-6.549996289,-0.1));
#925=DIRECTION('',(-1.,-0.,0.));
#926=VECTOR('',#925,5.958041154);
#927=LINE('',#924,#926);
#928=EDGE_CURVE('',#885,#917,#927,.T.);
#929=ORIENTED_EDGE('',*,*,#928,.F.);
#930=ORIENTED_EDGE('',*,*,#890,.T.);
#931=EDGE_LOOP('',(#915,#923,#929,#930));
#932=FACE_BOUND('',#931,.T.);
#933=ADVANCED_FACE('',(#932),#907,.F.);
#934=CARTESIAN_POINT('',(4.027446035,-2.899996289,0.1));
#935=DIRECTION('',(0.,0.,1.));
#936=DIRECTION('',(1.,0.,-0.));
#937=AXIS2_PLACEMENT_3D('',#934,#935,#936);
#938=CYLINDRICAL_SURFACE('',#937,3.65);
#939=CARTESIAN_POINT('',(0.92705998,-4.826159915,0.2));
#940=VERTEX_POINT('',#939);
#941=CARTESIAN_POINT('',(4.027446035,-2.899996289,0.2));
#942=DIRECTION('',(-0.,0.,-1.));
#943=DIRECTION('',(-0.,-1.,0.));
#944=AXIS2_PLACEMENT_3D('',#941,#942,#943);
#945=CIRCLE('',#944,3.65);
#946=EDGE_CURVE('',#909,#940,#945,.T.);
#947=ORIENTED_EDGE('',*,*,#946,.T.);
#948=CARTESIAN_POINT('',(0.92705998,-4.826159915,-0.1));
#949=VERTEX_POINT('',#948);
#950=CARTESIAN_POINT('',(0.92705998,-4.826159915,0.2));
#951=DIRECTION('',(0.,0.,-1.));
#952=VECTOR('',#951,0.3);
#953=LINE('',#950,#952);
#954=EDGE_CURVE('',#940,#949,#953,.T.);
#955=ORIENTED_EDGE('',*,*,#954,.T.);
#956=CARTESIAN_POINT('',(4.027446035,-2.899996289,-0.1));
#957=DIRECTION('',(0.,0.,-1.));
#958=DIRECTION('',(-1.,0.,0.));
#959=AXIS2_PLACEMENT_3D('',#956,#957,#958);
#960=CIRCLE('',#959,3.65);
#961=EDGE_CURVE('',#917,#949,#960,.T.);
#962=ORIENTED_EDGE('',*,*,#961,.F.);
#963=ORIENTED_EDGE('',*,*,#922,.T.);
#964=EDGE_LOOP('',(#947,#955,#962,#963));
#965=FACE_BOUND('',#964,.T.);
#966=ADVANCED_FACE('',(#965),#938,.T.);
#967=CARTESIAN_POINT('',(-2.885494061,-4.904626495,0.1));
#968=DIRECTION('',(0.,0.,1.));
#969=DIRECTION('',(1.,0.,-0.));
#970=AXIS2_PLACEMENT_3D('',#967,#968,#969);
#971=CYLINDRICAL_SURFACE('',#970,1.5);
#972=CARTESIAN_POINT('',(-1.442088068,-5.312767576,-0.1));
#973=VERTEX_POINT('',#972);
#974=CARTESIAN_POINT('',(-2.569611644,-6.370988762,-0.1));
#975=VERTEX_POINT('',#974);
#976=CARTESIAN_POINT('',(-2.885494061,-4.904626495,-0.1));
#977=DIRECTION('',(0.,0.,-1.));
#978=DIRECTION('',(-1.,0.,0.));
#979=AXIS2_PLACEMENT_3D('',#976,#977,#978);
#980=CIRCLE('',#979,1.5);
#981=EDGE_CURVE('',#973,#975,#980,.T.);
#982=ORIENTED_EDGE('',*,*,#981,.F.);
#983=CARTESIAN_POINT('',(-1.442088068,-5.312767576,0.2));
#984=VERTEX_POINT('',#983);
#985=CARTESIAN_POINT('',(-1.442088068,-5.312767576,-0.1));
#986=DIRECTION('',(-0.,-0.,1.));
#987=VECTOR('',#986,0.3);
#988=LINE('',#985,#987);
#989=EDGE_CURVE('',#973,#984,#988,.T.);
#990=ORIENTED_EDGE('',*,*,#989,.T.);
#991=CARTESIAN_POINT('',(-2.569611644,-6.370988762,0.2));
#992=VERTEX_POINT('',#991);
#993=CARTESIAN_POINT('',(-2.885494061,-4.904626495,0.2));
#994=DIRECTION('',(0.,0.,-1.));
#995=DIRECTION('',(0.992940112,0.118616755,0.));
#996=AXIS2_PLACEMENT_3D('',#993,#994,#995);
#997=CIRCLE('',#996,1.5);
#998=EDGE_CURVE('',#984,#992,#997,.T.);
#999=ORIENTED_EDGE('',*,*,#998,.T.);
#1000=CARTESIAN_POINT('',(-2.569611644,-6.370988762,-0.1));
#1001=DIRECTION('',(0.,0.,1.));
#1002=VECTOR('',#1001,0.3);
#1003=LINE('',#1000,#1002);
#1004=EDGE_CURVE('',#975,#992,#1003,.T.);
#1005=ORIENTED_EDGE('',*,*,#1004,.F.);
#1006=EDGE_LOOP('',(#982,#990,#999,#1005));
#1007=FACE_BOUND('',#1006,.T.);
#1008=ADVANCED_FACE('',(#1007),#971,.T.);
#1009=CARTESIAN_POINT('',(-2.360713104,-7.399879337,0.1));
#1010=DIRECTION('',(0.,0.,1.));
#1011=DIRECTION('',(1.,0.,-0.));
#1012=AXIS2_PLACEMENT_3D('',#1009,#1010,#1011);
#1013=CYLINDRICAL_SURFACE('',#1012,1.049883048);
#1014=CARTESIAN_POINT('',(-2.764382864,-6.430701779,0.2));
#1015=VERTEX_POINT('',#1014);
#1016=CARTESIAN_POINT('',(-2.360713104,-7.399879337,0.2));
#1017=DIRECTION('',(0.,0.,-1.));
#1018=DIRECTION('',(-0.384490216,0.923129067,0.));
#1019=AXIS2_PLACEMENT_3D('',#1016,#1017,#1018);
#1020=CIRCLE('',#1019,1.049883048);
#1021=EDGE_CURVE('',#1015,#992,#1020,.T.);
#1022=ORIENTED_EDGE('',*,*,#1021,.F.);
#1023=CARTESIAN_POINT('',(-2.764378928,-6.430700139,-0.1));
#1024=VERTEX_POINT('',#1023);
#1025=CARTESIAN_POINT('',(-2.764382864,-6.430701779,-0.1));
#1026=DIRECTION('',(0.,0.,1.));
#1027=VECTOR('',#1026,0.3);
#1028=LINE('',#1025,#1027);
#1029=EDGE_CURVE('',#1024,#1015,#1028,.T.);
#1030=ORIENTED_EDGE('',*,*,#1029,.F.);
#1031=CARTESIAN_POINT('',(-2.360713104,-7.399879337,-0.1));
#1032=DIRECTION('',(0.,0.,-1.));
#1033=DIRECTION('',(-1.,0.,0.));
#1034=AXIS2_PLACEMENT_3D('',#1031,#1032,#1033);
#1035=CIRCLE('',#1034,1.049883048);
#1036=EDGE_CURVE('',#1024,#975,#1035,.T.);
#1037=ORIENTED_EDGE('',*,*,#1036,.T.);
#1038=ORIENTED_EDGE('',*,*,#1004,.T.);
#1039=EDGE_LOOP('',(#1022,#1030,#1037,#1038));
#1040=FACE_BOUND('',#1039,.T.);
#1041=ADVANCED_FACE('',(#1040),#1013,.F.);
#1042=CARTESIAN_POINT('',(-3.341118188,-5.046008178,0.1));
#1043=DIRECTION('',(0.,0.,1.));
#1044=DIRECTION('',(1.,0.,-0.));
#1045=AXIS2_PLACEMENT_3D('',#1042,#1043,#1044);
#1046=CYLINDRICAL_SURFACE('',#1045,1.5);
#1047=CARTESIAN_POINT('',(-3.355186249,-6.545942207,0.2));
#1048=VERTEX_POINT('',#1047);
#1049=CARTESIAN_POINT('',(-3.341118188,-5.046008178,0.2));
#1050=DIRECTION('',(0.,0.,-1.));
#1051=DIRECTION('',(0.384490216,-0.923129067,0.));
#1052=AXIS2_PLACEMENT_3D('',#1049,#1050,#1051);
#1053=CIRCLE('',#1052,1.5);
#1054=EDGE_CURVE('',#1015,#1048,#1053,.T.);
#1055=ORIENTED_EDGE('',*,*,#1054,.T.);
#1056=CARTESIAN_POINT('',(-3.355186249,-6.545942207,-0.1));
#1057=VERTEX_POINT('',#1056);
#1058=CARTESIAN_POINT('',(-3.355186249,-6.545942207,-0.1));
#1059=DIRECTION('',(0.,0.,1.));
#1060=VECTOR('',#1059,0.3);
#1061=LINE('',#1058,#1060);
#1062=EDGE_CURVE('',#1057,#1048,#1061,.T.);
#1063=ORIENTED_EDGE('',*,*,#1062,.F.);
#1064=CARTESIAN_POINT('',(-3.341118188,-5.046008178,-0.1));
#1065=DIRECTION('',(0.,0.,-1.));
#1066=DIRECTION('',(-1.,0.,0.));
#1067=AXIS2_PLACEMENT_3D('',#1064,#1065,#1066);
#1068=CIRCLE('',#1067,1.5);
#1069=EDGE_CURVE('',#1024,#1057,#1068,.T.);
#1070=ORIENTED_EDGE('',*,*,#1069,.F.);
#1071=ORIENTED_EDGE('',*,*,#1029,.T.);
#1072=EDGE_LOOP('',(#1055,#1063,#1070,#1071));
#1073=FACE_BOUND('',#1072,.T.);
#1074=ADVANCED_FACE('',(#1073),#1046,.T.);
#1075=CARTESIAN_POINT('',(-6.034685013,-6.520810867,0.1));
#1076=DIRECTION('',(0.009378707,0.999956019,0.));
#1077=DIRECTION('',(-0.999956019,0.009378707,0.));
#1078=AXIS2_PLACEMENT_3D('',#1075,#1076,#1077);
#1079=PLANE('',#1078);
#1080=CARTESIAN_POINT('',(-8.714183778,-6.495679527,0.2));
#1081=VERTEX_POINT('',#1080);
#1082=CARTESIAN_POINT('',(-3.355186249,-6.545942207,0.2));
#1083=DIRECTION('',(-0.999956019,0.009378707,0.));
#1084=VECTOR('',#1083,5.359233234);
#1085=LINE('',#1082,#1084);
#1086=EDGE_CURVE('',#1048,#1081,#1085,.T.);
#1087=ORIENTED_EDGE('',*,*,#1086,.T.);
#1088=CARTESIAN_POINT('',(-8.714183778,-6.495679527,-0.1));
#1089=VERTEX_POINT('',#1088);
#1090=CARTESIAN_POINT('',(-8.714183778,-6.495679527,-0.1));
#1091=DIRECTION('',(0.,0.,1.));
#1092=VECTOR('',#1091,0.3);
#1093=LINE('',#1090,#1092);
#1094=EDGE_CURVE('',#1089,#1081,#1093,.T.);
#1095=ORIENTED_EDGE('',*,*,#1094,.F.);
#1096=CARTESIAN_POINT('',(-3.355186249,-6.545942207,-0.1));
#1097=DIRECTION('',(-0.999956019,0.009378707,0.));
#1098=VECTOR('',#1097,5.359233234);
#1099=LINE('',#1096,#1098);
#1100=EDGE_CURVE('',#1057,#1089,#1099,.T.);
#1101=ORIENTED_EDGE('',*,*,#1100,.F.);
#1102=ORIENTED_EDGE('',*,*,#1062,.T.);
#1103=EDGE_LOOP('',(#1087,#1095,#1101,#1102));
#1104=FACE_BOUND('',#1103,.T.);
#1105=ADVANCED_FACE('',(#1104),#1079,.F.);
#1106=CARTESIAN_POINT('',(-8.702483667,-5.248215833,0.1));
#1107=DIRECTION('',(0.,0.,1.));
#1108=DIRECTION('',(1.,0.,-0.));
#1109=AXIS2_PLACEMENT_3D('',#1106,#1107,#1108);
#1110=CYLINDRICAL_SURFACE('',#1109,1.247518561);
#1111=CARTESIAN_POINT('',(-9.950002227,-5.248215833,0.2));
#1112=VERTEX_POINT('',#1111);
#1113=CARTESIAN_POINT('',(-8.702483667,-5.248215833,0.2));
#1114=DIRECTION('',(-0.,0.,-1.));
#1115=DIRECTION('',(-0.009378707,-0.999956019,0.));
#1116=AXIS2_PLACEMENT_3D('',#1113,#1114,#1115);
#1117=CIRCLE('',#1116,1.247518561);
#1118=EDGE_CURVE('',#1081,#1112,#1117,.T.);
#1119=ORIENTED_EDGE('',*,*,#1118,.T.);
#1120=CARTESIAN_POINT('',(-9.950001053,-5.248215833,-0.1));
#1121=VERTEX_POINT('',#1120);
#1122=CARTESIAN_POINT('',(-9.950002227,-5.248215833,-0.1));
#1123=DIRECTION('',(0.,0.,1.));
#1124=VECTOR('',#1123,0.3);
#1125=LINE('',#1122,#1124);
#1126=EDGE_CURVE('',#1121,#1112,#1125,.T.);
#1127=ORIENTED_EDGE('',*,*,#1126,.F.);
#1128=CARTESIAN_POINT('',(-8.702483667,-5.248215833,-0.1));
#1129=DIRECTION('',(0.,0.,-1.));
#1130=DIRECTION('',(-1.,0.,0.));
#1131=AXIS2_PLACEMENT_3D('',#1128,#1129,#1130);
#1132=CIRCLE('',#1131,1.247518561);
#1133=EDGE_CURVE('',#1089,#1121,#1132,.T.);
#1134=ORIENTED_EDGE('',*,*,#1133,.F.);
#1135=ORIENTED_EDGE('',*,*,#1094,.T.);
#1136=EDGE_LOOP('',(#1119,#1127,#1134,#1135));
#1137=FACE_BOUND('',#1136,.T.);
#1138=ADVANCED_FACE('',(#1137),#1110,.T.);
#1139=CARTESIAN_POINT('',(-9.950001053,0.000003711,0.1));
#1140=DIRECTION('',(1.,-0.,0.));
#1141=DIRECTION('',(0.,1.,0.));
#1142=AXIS2_PLACEMENT_3D('',#1139,#1140,#1141);
#1143=PLANE('',#1142);
#1144=CARTESIAN_POINT('',(-9.950001053,5.248223255,0.2));
#1145=VERTEX_POINT('',#1144);
#1146=CARTESIAN_POINT('',(-9.950001053,-5.248215833,0.2));
#1147=DIRECTION('',(0.,1.,0.));
#1148=VECTOR('',#1147,10.496439089);
#1149=LINE('',#1146,#1148);
#1150=EDGE_CURVE('',#1112,#1145,#1149,.T.);
#1151=ORIENTED_EDGE('',*,*,#1150,.T.);
#1152=CARTESIAN_POINT('',(-9.950001053,5.248223255,-0.1));
#1153=VERTEX_POINT('',#1152);
#1154=CARTESIAN_POINT('',(-9.950001053,5.248223255,-0.1));
#1155=DIRECTION('',(0.,0.,1.));
#1156=VECTOR('',#1155,0.3);
#1157=LINE('',#1154,#1156);
#1158=EDGE_CURVE('',#1153,#1145,#1157,.T.);
#1159=ORIENTED_EDGE('',*,*,#1158,.F.);
#1160=CARTESIAN_POINT('',(-9.950001053,-5.248215833,-0.1));
#1161=DIRECTION('',(0.,1.,0.));
#1162=VECTOR('',#1161,10.496439089);
#1163=LINE('',#1160,#1162);
#1164=EDGE_CURVE('',#1121,#1153,#1163,.T.);
#1165=ORIENTED_EDGE('',*,*,#1164,.F.);
#1166=ORIENTED_EDGE('',*,*,#1126,.T.);
#1167=EDGE_LOOP('',(#1151,#1159,#1165,#1166));
#1168=FACE_BOUND('',#1167,.T.);
#1169=ADVANCED_FACE('',(#1168),#1143,.F.);
#1170=CARTESIAN_POINT('',(-8.702483667,5.248223255,0.1));
#1171=DIRECTION('',(0.,0.,1.));
#1172=DIRECTION('',(1.,0.,-0.));
#1173=AXIS2_PLACEMENT_3D('',#1170,#1171,#1172);
#1174=CYLINDRICAL_SURFACE('',#1173,1.247517386);
#1175=CARTESIAN_POINT('',(-8.714183778,6.495686949,0.2));
#1176=VERTEX_POINT('',#1175);
#1177=CARTESIAN_POINT('',(-8.702483667,5.248223255,0.2));
#1178=DIRECTION('',(0.,0.,-1.));
#1179=DIRECTION('',(-1.,0.,0.));
#1180=AXIS2_PLACEMENT_3D('',#1177,#1178,#1179);
#1181=CIRCLE('',#1180,1.247517386);
#1182=EDGE_CURVE('',#1145,#1176,#1181,.T.);
#1183=ORIENTED_EDGE('',*,*,#1182,.T.);
#1184=CARTESIAN_POINT('',(-8.714183778,6.495686949,-0.1));
#1185=VERTEX_POINT('',#1184);
#1186=CARTESIAN_POINT('',(-8.714183778,6.495686949,-0.1));
#1187=DIRECTION('',(0.,0.,1.));
#1188=VECTOR('',#1187,0.3);
#1189=LINE('',#1186,#1188);
#1190=EDGE_CURVE('',#1185,#1176,#1189,.T.);
#1191=ORIENTED_EDGE('',*,*,#1190,.F.);
#1192=CARTESIAN_POINT('',(-8.702483667,5.248223255,-0.1));
#1193=DIRECTION('',(0.,0.,-1.));
#1194=DIRECTION('',(-1.,0.,0.));
#1195=AXIS2_PLACEMENT_3D('',#1192,#1193,#1194);
#1196=CIRCLE('',#1195,1.247517386);
#1197=EDGE_CURVE('',#1153,#1185,#1196,.T.);
#1198=ORIENTED_EDGE('',*,*,#1197,.F.);
#1199=ORIENTED_EDGE('',*,*,#1158,.T.);
#1200=EDGE_LOOP('',(#1183,#1191,#1198,#1199));
#1201=FACE_BOUND('',#1200,.T.);
#1202=ADVANCED_FACE('',(#1201),#1174,.T.);
#1203=CARTESIAN_POINT('',(-6.034685013,6.520818289,0.1));
#1204=DIRECTION('',(0.009378707,-0.999956019,0.));
#1205=DIRECTION('',(0.999956019,0.009378707,0.));
#1206=AXIS2_PLACEMENT_3D('',#1203,#1204,#1205);
#1207=PLANE('',#1206);
#1208=CARTESIAN_POINT('',(-3.355186249,6.545949629,0.2));
#1209=VERTEX_POINT('',#1208);
#1210=CARTESIAN_POINT('',(-8.714183778,6.495686949,0.2));
#1211=DIRECTION('',(0.999956019,0.009378707,0.));
#1212=VECTOR('',#1211,5.359233234);
#1213=LINE('',#1210,#1212);
#1214=EDGE_CURVE('',#1176,#1209,#1213,.T.);
#1215=ORIENTED_EDGE('',*,*,#1214,.T.);
#1216=CARTESIAN_POINT('',(-3.355186249,6.545949629,-0.1));
#1217=VERTEX_POINT('',#1216);
#1218=CARTESIAN_POINT('',(-3.355186249,6.545949629,-0.1));
#1219=DIRECTION('',(0.,0.,1.));
#1220=VECTOR('',#1219,0.3);
#1221=LINE('',#1218,#1220);
#1222=EDGE_CURVE('',#1217,#1209,#1221,.T.);
#1223=ORIENTED_EDGE('',*,*,#1222,.F.);
#1224=CARTESIAN_POINT('',(-8.714183778,6.495686949,-0.1));
#1225=DIRECTION('',(0.999956019,0.009378707,0.));
#1226=VECTOR('',#1225,5.359233234);
#1227=LINE('',#1224,#1226);
#1228=EDGE_CURVE('',#1185,#1217,#1227,.T.);
#1229=ORIENTED_EDGE('',*,*,#1228,.F.);
#1230=ORIENTED_EDGE('',*,*,#1190,.T.);
#1231=EDGE_LOOP('',(#1215,#1223,#1229,#1230));
#1232=FACE_BOUND('',#1231,.T.);
#1233=ADVANCED_FACE('',(#1232),#1207,.F.);
#1234=CARTESIAN_POINT('',(-3.341118188,5.0460156,0.1));
#1235=DIRECTION('',(0.,0.,1.));
#1236=DIRECTION('',(1.,0.,-0.));
#1237=AXIS2_PLACEMENT_3D('',#1234,#1235,#1236);
#1238=CYLINDRICAL_SURFACE('',#1237,1.5);
#1239=CARTESIAN_POINT('',(-2.764382864,6.430709201,0.2));
#1240=VERTEX_POINT('',#1239);
#1241=CARTESIAN_POINT('',(-3.341118188,5.0460156,0.2));
#1242=DIRECTION('',(0.,0.,-1.));
#1243=DIRECTION('',(-0.009378707,0.999956019,0.));
#1244=AXIS2_PLACEMENT_3D('',#1241,#1242,#1243);
#1245=CIRCLE('',#1244,1.5);
#1246=EDGE_CURVE('',#1209,#1240,#1245,.T.);
#1247=ORIENTED_EDGE('',*,*,#1246,.T.);
#1248=CARTESIAN_POINT('',(-2.764379224,6.430707684,-0.1));
#1249=VERTEX_POINT('',#1248);
#1250=CARTESIAN_POINT('',(-2.764382864,6.430709201,-0.1));
#1251=DIRECTION('',(0.,0.,1.));
#1252=VECTOR('',#1251,0.3);
#1253=LINE('',#1250,#1252);
#1254=EDGE_CURVE('',#1249,#1240,#1253,.T.);
#1255=ORIENTED_EDGE('',*,*,#1254,.F.);
#1256=CARTESIAN_POINT('',(-3.341118188,5.0460156,-0.1));
#1257=DIRECTION('',(0.,0.,-1.));
#1258=DIRECTION('',(-1.,0.,0.));
#1259=AXIS2_PLACEMENT_3D('',#1256,#1257,#1258);
#1260=CIRCLE('',#1259,1.5);
#1261=EDGE_CURVE('',#1217,#1249,#1260,.T.);
#1262=ORIENTED_EDGE('',*,*,#1261,.F.);
#1263=ORIENTED_EDGE('',*,*,#1222,.T.);
#1264=EDGE_LOOP('',(#1247,#1255,#1262,#1263));
#1265=FACE_BOUND('',#1264,.T.);
#1266=ADVANCED_FACE('',(#1265),#1238,.T.);
#1267=CARTESIAN_POINT('',(-2.360713104,7.399886759,0.1));
#1268=DIRECTION('',(0.,0.,1.));
#1269=DIRECTION('',(1.,0.,-0.));
#1270=AXIS2_PLACEMENT_3D('',#1267,#1268,#1269);
#1271=CYLINDRICAL_SURFACE('',#1270,1.049883048);
#1272=CARTESIAN_POINT('',(-2.576787354,6.37247918,0.2));
#1273=VERTEX_POINT('',#1272);
#1274=CARTESIAN_POINT('',(-2.360713104,7.399886759,0.2));
#1275=DIRECTION('',(-0.,0.,-1.));
#1276=DIRECTION('',(-0.198973152,-0.980004941,0.));
#1277=AXIS2_PLACEMENT_3D('',#1274,#1275,#1276);
#1278=CIRCLE('',#1277,1.049883048);
#1279=EDGE_CURVE('',#1273,#1240,#1278,.T.);
#1280=ORIENTED_EDGE('',*,*,#1279,.F.);
#1281=CARTESIAN_POINT('',(-2.576783853,6.372478444,-0.1));
#1282=VERTEX_POINT('',#1281);
#1283=CARTESIAN_POINT('',(-2.576783853,6.372478444,-0.1));
#1284=DIRECTION('',(0.,0.,1.));
#1285=VECTOR('',#1284,0.3);
#1286=LINE('',#1283,#1285);
#1287=EDGE_CURVE('',#1282,#1273,#1286,.T.);
#1288=ORIENTED_EDGE('',*,*,#1287,.F.);
#1289=CARTESIAN_POINT('',(-2.360713104,7.399886759,-0.1));
#1290=DIRECTION('',(0.,0.,-1.));
#1291=DIRECTION('',(-1.,0.,0.));
#1292=AXIS2_PLACEMENT_3D('',#1289,#1290,#1291);
#1293=CIRCLE('',#1292,1.049883048);
#1294=EDGE_CURVE('',#1282,#1249,#1293,.T.);
#1295=ORIENTED_EDGE('',*,*,#1294,.T.);
#1296=ORIENTED_EDGE('',*,*,#1254,.T.);
#1297=EDGE_LOOP('',(#1280,#1288,#1295,#1296));
#1298=FACE_BOUND('',#1297,.T.);
#1299=ADVANCED_FACE('',(#1298),#1271,.F.);
#1300=CARTESIAN_POINT('',(-2.885499239,4.90459057,0.1));
#1301=DIRECTION('',(0.,0.,1.));
#1302=DIRECTION('',(1.,0.,-0.));
#1303=AXIS2_PLACEMENT_3D('',#1300,#1301,#1302);
#1304=CYLINDRICAL_SURFACE('',#1303,1.5);
#1305=CARTESIAN_POINT('',(-1.442098769,5.312751182,0.2));
#1306=VERTEX_POINT('',#1305);
#1307=CARTESIAN_POINT('',(-2.885499239,4.90459057,0.2));
#1308=DIRECTION('',(0.,0.,-1.));
#1309=DIRECTION('',(-1.,0.,0.));
#1310=AXIS2_PLACEMENT_3D('',#1307,#1308,#1309);
#1311=CIRCLE('',#1310,1.5);
#1312=EDGE_CURVE('',#1273,#1306,#1311,.T.);
#1313=ORIENTED_EDGE('',*,*,#1312,.T.);
#1314=CARTESIAN_POINT('',(-1.442098769,5.312751182,-0.1));
#1315=VERTEX_POINT('',#1314);
#1316=CARTESIAN_POINT('',(-1.442098769,5.312751182,0.2));
#1317=DIRECTION('',(0.,0.,-1.));
#1318=VECTOR('',#1317,0.3);
#1319=LINE('',#1316,#1318);
#1320=EDGE_CURVE('',#1306,#1315,#1319,.T.);
#1321=ORIENTED_EDGE('',*,*,#1320,.T.);
#1322=CARTESIAN_POINT('',(-2.885499239,4.90459057,-0.1));
#1323=DIRECTION('',(0.,0.,-1.));
#1324=DIRECTION('',(-1.,0.,0.));
#1325=AXIS2_PLACEMENT_3D('',#1322,#1323,#1324);
#1326=CIRCLE('',#1325,1.5);
#1327=EDGE_CURVE('',#1282,#1315,#1326,.T.);
#1328=ORIENTED_EDGE('',*,*,#1327,.F.);
#1329=ORIENTED_EDGE('',*,*,#1287,.T.);
#1330=EDGE_LOOP('',(#1313,#1321,#1328,#1329));
#1331=FACE_BOUND('',#1330,.T.);
#1332=ADVANCED_FACE('',(#1331),#1304,.T.);
#1333=CARTESIAN_POINT('',(2.15686915,5.050003711,0.1));
#1334=DIRECTION('',(0.,0.,1.));
#1335=DIRECTION('',(1.,0.,-0.));
#1336=AXIS2_PLACEMENT_3D('',#1333,#1334,#1335);
#1337=CYLINDRICAL_SURFACE('',#1336,1.5);
#1338=CARTESIAN_POINT('',(0.692346202,5.374306864,-0.1));
#1339=VERTEX_POINT('',#1338);
#1340=CARTESIAN_POINT('',(2.15686915,6.550003711,-0.1));
#1341=VERTEX_POINT('',#1340);
#1342=CARTESIAN_POINT('',(2.15686915,5.050003711,-0.1));
#1343=DIRECTION('',(0.,0.,-1.));
#1344=DIRECTION('',(-1.,0.,0.));
#1345=AXIS2_PLACEMENT_3D('',#1342,#1343,#1344);
#1346=CIRCLE('',#1345,1.5);
#1347=EDGE_CURVE('',#1339,#1341,#1346,.T.);
#1348=ORIENTED_EDGE('',*,*,#1347,.F.);
#1349=CARTESIAN_POINT('',(0.692346202,5.374306864,0.2));
#1350=VERTEX_POINT('',#1349);
#1351=CARTESIAN_POINT('',(0.692346202,5.374306864,-0.1));
#1352=DIRECTION('',(-0.,-0.,1.));
#1353=VECTOR('',#1352,0.3);
#1354=LINE('',#1351,#1353);
#1355=EDGE_CURVE('',#1339,#1350,#1354,.T.);
#1356=ORIENTED_EDGE('',*,*,#1355,.T.);
#1357=CARTESIAN_POINT('',(2.15686915,6.550003711,0.2));
#1358=VERTEX_POINT('',#1357);
#1359=CARTESIAN_POINT('',(2.15686915,5.050003711,0.2));
#1360=DIRECTION('',(-0.,0.,-1.));
#1361=DIRECTION('',(-0.984457226,-0.175624517,0.));
#1362=AXIS2_PLACEMENT_3D('',#1359,#1360,#1361);
#1363=CIRCLE('',#1362,1.5);
#1364=EDGE_CURVE('',#1350,#1358,#1363,.T.);
#1365=ORIENTED_EDGE('',*,*,#1364,.T.);
#1366=CARTESIAN_POINT('',(2.15686915,6.550003711,-0.1));
#1367=DIRECTION('',(0.,0.,1.));
#1368=VECTOR('',#1367,0.3);
#1369=LINE('',#1366,#1368);
#1370=EDGE_CURVE('',#1341,#1358,#1369,.T.);
#1371=ORIENTED_EDGE('',*,*,#1370,.F.);
#1372=EDGE_LOOP('',(#1348,#1356,#1365,#1371));
#1373=FACE_BOUND('',#1372,.T.);
#1374=ADVANCED_FACE('',(#1373),#1337,.T.);
#1375=CARTESIAN_POINT('',(5.120513081,6.550003711,0.1));
#1376=DIRECTION('',(-0.,-1.,0.));
#1377=DIRECTION('',(1.,-0.,0.));
#1378=AXIS2_PLACEMENT_3D('',#1375,#1376,#1377);
#1379=PLANE('',#1378);
#1380=CARTESIAN_POINT('',(8.084157011,6.550003711,0.2));
#1381=VERTEX_POINT('',#1380);
#1382=CARTESIAN_POINT('',(2.15686915,6.550003711,0.2));
#1383=DIRECTION('',(1.,-0.,0.));
#1384=VECTOR('',#1383,5.927287862);
#1385=LINE('',#1382,#1384);
#1386=EDGE_CURVE('',#1358,#1381,#1385,.T.);
#1387=ORIENTED_EDGE('',*,*,#1386,.T.);
#1388=CARTESIAN_POINT('',(8.084157011,6.550003711,-0.1));
#1389=VERTEX_POINT('',#1388);
#1390=CARTESIAN_POINT('',(8.084157011,6.550003711,-0.1));
#1391=DIRECTION('',(-0.,-0.,1.));
#1392=VECTOR('',#1391,0.3);
#1393=LINE('',#1390,#1392);
#1394=EDGE_CURVE('',#1389,#1381,#1393,.T.);
#1395=ORIENTED_EDGE('',*,*,#1394,.F.);
#1396=CARTESIAN_POINT('',(2.15686915,6.550003711,-0.1));
#1397=DIRECTION('',(1.,-0.,0.));
#1398=VECTOR('',#1397,5.927287862);
#1399=LINE('',#1396,#1398);
#1400=EDGE_CURVE('',#1341,#1389,#1399,.T.);
#1401=ORIENTED_EDGE('',*,*,#1400,.F.);
#1402=ORIENTED_EDGE('',*,*,#1370,.T.);
#1403=EDGE_LOOP('',(#1387,#1395,#1401,#1402));
#1404=FACE_BOUND('',#1403,.T.);
#1405=ADVANCED_FACE('',(#1404),#1379,.F.);
#1406=CARTESIAN_POINT('',(8.084157011,2.900003711,0.1));
#1407=DIRECTION('',(0.,0.,1.));
#1408=DIRECTION('',(1.,0.,-0.));
#1409=AXIS2_PLACEMENT_3D('',#1406,#1407,#1408);
#1410=CYLINDRICAL_SURFACE('',#1409,3.65);
#1411=CARTESIAN_POINT('',(11.719313543,3.228845602,0.2));
#1412=VERTEX_POINT('',#1411);
#1413=CARTESIAN_POINT('',(8.084157011,2.900003711,0.2));
#1414=DIRECTION('',(0.,0.,-1.));
#1415=DIRECTION('',(0.,1.,0.));
#1416=AXIS2_PLACEMENT_3D('',#1413,#1414,#1415);
#1417=CIRCLE('',#1416,3.65);
#1418=EDGE_CURVE('',#1381,#1412,#1417,.T.);
#1419=ORIENTED_EDGE('',*,*,#1418,.T.);
#1420=CARTESIAN_POINT('',(11.719313543,3.228845602,-0.1));
#1421=VERTEX_POINT('',#1420);
#1422=CARTESIAN_POINT('',(11.719313543,3.228845602,-0.1));
#1423=DIRECTION('',(0.,0.,1.));
#1424=VECTOR('',#1423,0.3);
#1425=LINE('',#1422,#1424);
#1426=EDGE_CURVE('',#1421,#1412,#1425,.T.);
#1427=ORIENTED_EDGE('',*,*,#1426,.F.);
#1428=CARTESIAN_POINT('',(8.084157011,2.900003711,-0.1));
#1429=DIRECTION('',(0.,0.,-1.));
#1430=DIRECTION('',(-1.,0.,0.));
#1431=AXIS2_PLACEMENT_3D('',#1428,#1429,#1430);
#1432=CIRCLE('',#1431,3.65);
#1433=EDGE_CURVE('',#1389,#1421,#1432,.T.);
#1434=ORIENTED_EDGE('',*,*,#1433,.F.);
#1435=ORIENTED_EDGE('',*,*,#1394,.T.);
#1436=EDGE_LOOP('',(#1419,#1427,#1434,#1435));
#1437=FACE_BOUND('',#1436,.T.);
#1438=ADVANCED_FACE('',(#1437),#1410,.T.);
#1439=CARTESIAN_POINT('',(-20.628139672,0.302644872,0.1));
#1440=DIRECTION('',(0.,0.,1.));
#1441=DIRECTION('',(1.,0.,-0.));
#1442=AXIS2_PLACEMENT_3D('',#1439,#1440,#1441);
#1443=CYLINDRICAL_SURFACE('',#1442,32.47953787);
#1444=CARTESIAN_POINT('',(-20.628139672,0.302644872,0.2));
#1445=DIRECTION('',(0.,0.,-1.));
#1446=DIRECTION('',(0.995933296,0.090093669,0.));
#1447=AXIS2_PLACEMENT_3D('',#1444,#1445,#1446);
#1448=CIRCLE('',#1447,32.47953787);
#1449=EDGE_CURVE('',#1412,#772,#1448,.T.);
#1450=ORIENTED_EDGE('',*,*,#1449,.T.);
#1451=ORIENTED_EDGE('',*,*,#801,.F.);
#1452=CARTESIAN_POINT('',(-20.628139672,0.302644872,-0.1));
#1453=DIRECTION('',(0.,0.,-1.));
#1454=DIRECTION('',(-1.,0.,0.));
#1455=AXIS2_PLACEMENT_3D('',#1452,#1453,#1454);
#1456=CIRCLE('',#1455,32.47953787);
#1457=EDGE_CURVE('',#1421,#790,#1456,.T.);
#1458=ORIENTED_EDGE('',*,*,#1457,.F.);
#1459=ORIENTED_EDGE('',*,*,#1426,.T.);
#1460=EDGE_LOOP('',(#1450,#1451,#1458,#1459));
#1461=FACE_BOUND('',#1460,.T.);
#1462=ADVANCED_FACE('',(#1461),#1443,.T.);
#1463=CARTESIAN_POINT('',(-8.702483667,5.248223255,0.1));
#1464=DIRECTION('',(0.,0.,1.));
#1465=DIRECTION('',(1.,0.,-0.));
#1466=AXIS2_PLACEMENT_3D('',#1463,#1464,#1465);
#1467=CYLINDRICAL_SURFACE('',#1466,0.747517386);
#1468=CARTESIAN_POINT('',(-8.702483667,5.248223255,0.2));
#1469=DIRECTION('',(0.,0.,-1.));
#1470=DIRECTION('',(-1.,0.,0.));
#1471=AXIS2_PLACEMENT_3D('',#1468,#1469,#1470);
#1472=CIRCLE('',#1471,0.747517386);
#1473=EDGE_CURVE('',#35,#741,#1472,.T.);
#1474=ORIENTED_EDGE('',*,*,#1473,.F.);
#1475=ORIENTED_EDGE('',*,*,#62,.F.);
#1476=CARTESIAN_POINT('',(-8.702483667,5.248223255,-0.1));
#1477=DIRECTION('',(0.,0.,-1.));
#1478=DIRECTION('',(-1.,0.,0.));
#1479=AXIS2_PLACEMENT_3D('',#1476,#1477,#1478);
#1480=CIRCLE('',#1479,0.747517386);
#1481=EDGE_CURVE('',#51,#749,#1480,.T.);
#1482=ORIENTED_EDGE('',*,*,#1481,.T.);
#1483=ORIENTED_EDGE('',*,*,#754,.T.);
#1484=EDGE_LOOP('',(#1474,#1475,#1482,#1483));
#1485=FACE_BOUND('',#1484,.T.);
#1486=ADVANCED_FACE('',(#1485),#1467,.F.);
#1487=CARTESIAN_POINT('',(-40.100001053,0.000003711,-0.1));
#1488=DIRECTION('',(0.,0.,-1.));
#1489=DIRECTION('',(-1.,0.,0.));
#1490=AXIS2_PLACEMENT_3D('',#1487,#1488,#1489);
#1491=PLANE('',#1490);
#1492=CARTESIAN_POINT('',(-1.653495723,-4.602157482,-0.1));
#1493=VERTEX_POINT('',#1492);
#1494=CARTESIAN_POINT('',(-0.353495723,-4.602157482,-0.1));
#1495=DIRECTION('',(0.,0.,-1.));
#1496=DIRECTION('',(-1.,0.,0.));
#1497=AXIS2_PLACEMENT_3D('',#1494,#1495,#1496);
#1498=CIRCLE('',#1497,1.3);
#1499=EDGE_CURVE('',#1493,#949,#1498,.T.);
#1500=ORIENTED_EDGE('',*,*,#1499,.F.);
#1501=CARTESIAN_POINT('',(-0.353495723,-4.602157482,-0.1));
#1502=DIRECTION('',(0.,0.,-1.));
#1503=DIRECTION('',(-1.,0.,0.));
#1504=AXIS2_PLACEMENT_3D('',#1501,#1502,#1503);
#1505=CIRCLE('',#1504,1.3);
#1506=EDGE_CURVE('',#973,#1493,#1505,.T.);
#1507=ORIENTED_EDGE('',*,*,#1506,.F.);
#1508=ORIENTED_EDGE('',*,*,#981,.T.);
#1509=ORIENTED_EDGE('',*,*,#1036,.F.);
#1510=ORIENTED_EDGE('',*,*,#1069,.T.);
#1511=ORIENTED_EDGE('',*,*,#1100,.T.);
#1512=ORIENTED_EDGE('',*,*,#1133,.T.);
#1513=ORIENTED_EDGE('',*,*,#1164,.T.);
#1514=ORIENTED_EDGE('',*,*,#1197,.T.);
#1515=ORIENTED_EDGE('',*,*,#1228,.T.);
#1516=ORIENTED_EDGE('',*,*,#1261,.T.);
#1517=ORIENTED_EDGE('',*,*,#1294,.F.);
#1518=ORIENTED_EDGE('',*,*,#1327,.T.);
#1519=CARTESIAN_POINT('',(-1.653495723,4.602157482,-0.1));
#1520=VERTEX_POINT('',#1519);
#1521=CARTESIAN_POINT('',(-0.353495723,4.602157482,-0.1));
#1522=DIRECTION('',(0.,0.,-1.));
#1523=DIRECTION('',(-1.,0.,0.));
#1524=AXIS2_PLACEMENT_3D('',#1521,#1522,#1523);
#1525=CIRCLE('',#1524,1.3);
#1526=EDGE_CURVE('',#1520,#1315,#1525,.T.);
#1527=ORIENTED_EDGE('',*,*,#1526,.F.);
#1528=CARTESIAN_POINT('',(-0.353495723,4.602157482,-0.1));
#1529=DIRECTION('',(0.,0.,-1.));
#1530=DIRECTION('',(-1.,0.,0.));
#1531=AXIS2_PLACEMENT_3D('',#1528,#1529,#1530);
#1532=CIRCLE('',#1531,1.3);
#1533=EDGE_CURVE('',#1339,#1520,#1532,.T.);
#1534=ORIENTED_EDGE('',*,*,#1533,.F.);
#1535=ORIENTED_EDGE('',*,*,#1347,.T.);
#1536=ORIENTED_EDGE('',*,*,#1400,.T.);
#1537=ORIENTED_EDGE('',*,*,#1433,.T.);
#1538=ORIENTED_EDGE('',*,*,#1457,.T.);
#1539=ORIENTED_EDGE('',*,*,#795,.T.);
#1540=ORIENTED_EDGE('',*,*,#831,.T.);
#1541=ORIENTED_EDGE('',*,*,#864,.T.);
#1542=ORIENTED_EDGE('',*,*,#897,.T.);
#1543=ORIENTED_EDGE('',*,*,#928,.T.);
#1544=ORIENTED_EDGE('',*,*,#961,.T.);
#1545=EDGE_LOOP('',(#1500,#1507,#1508,#1509,#1510,#1511,#1512,#1513,#1514,#1515,#1516,#1517,#1518,#1527,#1534,#1535,#1536,#1537,#1538,#1539,#1540,#1541,#1542,#1543,#1544));
#1546=FACE_BOUND('',#1545,.T.);
#1547=ORIENTED_EDGE('',*,*,#56,.F.);
#1548=ORIENTED_EDGE('',*,*,#94,.F.);
#1549=ORIENTED_EDGE('',*,*,#125,.T.);
#1550=ORIENTED_EDGE('',*,*,#158,.F.);
#1551=ORIENTED_EDGE('',*,*,#191,.T.);
#1552=CARTESIAN_POINT('',(-2.885494061,-4.904626495,-0.1));
#1553=DIRECTION('',(0.,0.,-1.));
#1554=DIRECTION('',(-1.,0.,0.));
#1555=AXIS2_PLACEMENT_3D('',#1552,#1553,#1554);
#1556=CIRCLE('',#1555,1.);
#1557=EDGE_CURVE('',#205,#179,#1556,.T.);
#1558=ORIENTED_EDGE('',*,*,#1557,.F.);
#1559=ORIENTED_EDGE('',*,*,#234,.F.);
#1560=ORIENTED_EDGE('',*,*,#266,.T.);
#1561=ORIENTED_EDGE('',*,*,#299,.F.);
#1562=ORIENTED_EDGE('',*,*,#330,.T.);
#1563=ORIENTED_EDGE('',*,*,#363,.F.);
#1564=ORIENTED_EDGE('',*,*,#396,.F.);
#1565=ORIENTED_EDGE('',*,*,#427,.T.);
#1566=ORIENTED_EDGE('',*,*,#458,.T.);
#1567=ORIENTED_EDGE('',*,*,#491,.F.);
#1568=ORIENTED_EDGE('',*,*,#524,.F.);
#1569=ORIENTED_EDGE('',*,*,#555,.F.);
#1570=ORIENTED_EDGE('',*,*,#588,.F.);
#1571=ORIENTED_EDGE('',*,*,#614,.T.);
#1572=CARTESIAN_POINT('',(-0.353496776,4.602161193,-0.1));
#1573=DIRECTION('',(0.,0.,-1.));
#1574=DIRECTION('',(-1.,0.,0.));
#1575=AXIS2_PLACEMENT_3D('',#1572,#1573,#1574);
#1576=CIRCLE('',#1575,1.55);
#1577=EDGE_CURVE('',#602,#652,#1576,.T.);
#1578=ORIENTED_EDGE('',*,*,#1577,.T.);
#1579=ORIENTED_EDGE('',*,*,#658,.F.);
#1580=ORIENTED_EDGE('',*,*,#696,.T.);
#1581=ORIENTED_EDGE('',*,*,#729,.F.);
#1582=ORIENTED_EDGE('',*,*,#760,.T.);
#1583=ORIENTED_EDGE('',*,*,#1481,.F.);
#1584=EDGE_LOOP('',(#1547,#1548,#1549,#1550,#1551,#1558,#1559,#1560,#1561,#1562,#1563,#1564,#1565,#1566,#1567,#1568,#1569,#1570,#1571,#1578,#1579,#1580,#1581,#1582,#1583));
#1585=FACE_BOUND('',#1584,.T.);
#1586=ADVANCED_FACE('',(#1546,#1585),#1491,.T.);
#1587=CARTESIAN_POINT('',(-40.100001053,0.000003711,0.2));
#1588=DIRECTION('',(0.,0.,-1.));
#1589=DIRECTION('',(-1.,0.,0.));
#1590=AXIS2_PLACEMENT_3D('',#1587,#1588,#1589);
#1591=PLANE('',#1590);
#1592=ORIENTED_EDGE('',*,*,#998,.F.);
#1593=CARTESIAN_POINT('',(-1.653495723,-4.602157482,0.2));
#1594=VERTEX_POINT('',#1593);
#1595=CARTESIAN_POINT('',(-0.353495723,-4.602157482,0.2));
#1596=DIRECTION('',(0.,0.,-1.));
#1597=DIRECTION('',(-1.,0.,0.));
#1598=AXIS2_PLACEMENT_3D('',#1595,#1596,#1597);
#1599=CIRCLE('',#1598,1.3);
#1600=EDGE_CURVE('',#984,#1594,#1599,.T.);
#1601=ORIENTED_EDGE('',*,*,#1600,.T.);
#1602=CARTESIAN_POINT('',(-0.353495723,-4.602157482,0.2));
#1603=DIRECTION('',(0.,0.,-1.));
#1604=DIRECTION('',(-1.,0.,0.));
#1605=AXIS2_PLACEMENT_3D('',#1602,#1603,#1604);
#1606=CIRCLE('',#1605,1.3);
#1607=EDGE_CURVE('',#1594,#940,#1606,.T.);
#1608=ORIENTED_EDGE('',*,*,#1607,.T.);
#1609=ORIENTED_EDGE('',*,*,#946,.F.);
#1610=ORIENTED_EDGE('',*,*,#914,.F.);
#1611=ORIENTED_EDGE('',*,*,#882,.F.);
#1612=ORIENTED_EDGE('',*,*,#849,.F.);
#1613=ORIENTED_EDGE('',*,*,#817,.F.);
#1614=ORIENTED_EDGE('',*,*,#779,.F.);
#1615=ORIENTED_EDGE('',*,*,#1449,.F.);
#1616=ORIENTED_EDGE('',*,*,#1418,.F.);
#1617=ORIENTED_EDGE('',*,*,#1386,.F.);
#1618=ORIENTED_EDGE('',*,*,#1364,.F.);
#1619=CARTESIAN_POINT('',(-1.653495723,4.602157482,0.2));
#1620=VERTEX_POINT('',#1619);
#1621=CARTESIAN_POINT('',(-0.353495723,4.602157482,0.2));
#1622=DIRECTION('',(0.,0.,-1.));
#1623=DIRECTION('',(-1.,0.,0.));
#1624=AXIS2_PLACEMENT_3D('',#1621,#1622,#1623);
#1625=CIRCLE('',#1624,1.3);
#1626=EDGE_CURVE('',#1350,#1620,#1625,.T.);
#1627=ORIENTED_EDGE('',*,*,#1626,.T.);
#1628=CARTESIAN_POINT('',(-0.353495723,4.602157482,0.2));
#1629=DIRECTION('',(0.,0.,-1.));
#1630=DIRECTION('',(-1.,0.,0.));
#1631=AXIS2_PLACEMENT_3D('',#1628,#1629,#1630);
#1632=CIRCLE('',#1631,1.3);
#1633=EDGE_CURVE('',#1620,#1306,#1632,.T.);
#1634=ORIENTED_EDGE('',*,*,#1633,.T.);
#1635=ORIENTED_EDGE('',*,*,#1312,.F.);
#1636=ORIENTED_EDGE('',*,*,#1279,.T.);
#1637=ORIENTED_EDGE('',*,*,#1246,.F.);
#1638=ORIENTED_EDGE('',*,*,#1214,.F.);
#1639=ORIENTED_EDGE('',*,*,#1182,.F.);
#1640=ORIENTED_EDGE('',*,*,#1150,.F.);
#1641=ORIENTED_EDGE('',*,*,#1118,.F.);
#1642=ORIENTED_EDGE('',*,*,#1086,.F.);
#1643=ORIENTED_EDGE('',*,*,#1054,.F.);
#1644=ORIENTED_EDGE('',*,*,#1021,.T.);
#1645=EDGE_LOOP('',(#1592,#1601,#1608,#1609,#1610,#1611,#1612,#1613,#1614,#1615,#1616,#1617,#1618,#1627,#1634,#1635,#1636,#1637,#1638,#1639,#1640,#1641,#1642,#1643,#1644));
#1646=FACE_BOUND('',#1645,.T.);
#1647=ORIENTED_EDGE('',*,*,#40,.T.);
#1648=ORIENTED_EDGE('',*,*,#1473,.T.);
#1649=ORIENTED_EDGE('',*,*,#746,.F.);
#1650=ORIENTED_EDGE('',*,*,#714,.T.);
#1651=ORIENTED_EDGE('',*,*,#681,.F.);
#1652=ORIENTED_EDGE('',*,*,#641,.T.);
#1653=CARTESIAN_POINT('',(-0.353496776,4.602161193,0.2));
#1654=DIRECTION('',(0.,0.,-1.));
#1655=DIRECTION('',(0.984457226,0.175624517,0.));
#1656=AXIS2_PLACEMENT_3D('',#1653,#1654,#1655);
#1657=CIRCLE('',#1656,1.55);
#1658=EDGE_CURVE('',#600,#635,#1657,.T.);
#1659=ORIENTED_EDGE('',*,*,#1658,.F.);
#1660=ORIENTED_EDGE('',*,*,#622,.F.);
#1661=ORIENTED_EDGE('',*,*,#573,.T.);
#1662=ORIENTED_EDGE('',*,*,#541,.T.);
#1663=ORIENTED_EDGE('',*,*,#509,.T.);
#1664=ORIENTED_EDGE('',*,*,#476,.T.);
#1665=ORIENTED_EDGE('',*,*,#444,.F.);
#1666=ORIENTED_EDGE('',*,*,#413,.F.);
#1667=ORIENTED_EDGE('',*,*,#381,.T.);
#1668=ORIENTED_EDGE('',*,*,#348,.T.);
#1669=ORIENTED_EDGE('',*,*,#316,.F.);
#1670=ORIENTED_EDGE('',*,*,#284,.T.);
#1671=ORIENTED_EDGE('',*,*,#251,.F.);
#1672=ORIENTED_EDGE('',*,*,#219,.T.);
#1673=CARTESIAN_POINT('',(-2.885494061,-4.904626495,0.2));
#1674=DIRECTION('',(0.,0.,-1.));
#1675=DIRECTION('',(0.992940112,0.118616755,0.));
#1676=AXIS2_PLACEMENT_3D('',#1673,#1674,#1675);
#1677=CIRCLE('',#1676,1.);
#1678=EDGE_CURVE('',#203,#170,#1677,.T.);
#1679=ORIENTED_EDGE('',*,*,#1678,.T.);
#1680=ORIENTED_EDGE('',*,*,#176,.F.);
#1681=ORIENTED_EDGE('',*,*,#143,.T.);
#1682=ORIENTED_EDGE('',*,*,#111,.F.);
#1683=ORIENTED_EDGE('',*,*,#79,.T.);
#1684=EDGE_LOOP('',(#1647,#1648,#1649,#1650,#1651,#1652,#1659,#1660,#1661,#1662,#1663,#1664,#1665,#1666,#1667,#1668,#1669,#1670,#1671,#1672,#1679,#1680,#1681,#1682,#1683));
#1685=FACE_BOUND('',#1684,.T.);
#1686=ADVANCED_FACE('',(#1646,#1685),#1591,.F.);
#1687=CARTESIAN_POINT('',(-0.353495723,4.602157482,1.2));
#1688=DIRECTION('',(0.,0.,-1.));
#1689=DIRECTION('',(-1.,0.,0.));
#1690=AXIS2_PLACEMENT_3D('',#1687,#1688,#1689);
#1691=CYLINDRICAL_SURFACE('',#1690,1.3);
#1692=CARTESIAN_POINT('',(-1.653495723,4.602157482,-0.1));
#1693=DIRECTION('',(-0.,-0.,1.));
#1694=VECTOR('',#1693,0.3);
#1695=LINE('',#1692,#1694);
#1696=EDGE_CURVE('',#1520,#1620,#1695,.T.);
#1697=ORIENTED_EDGE('',*,*,#1696,.F.);
#1698=ORIENTED_EDGE('',*,*,#1526,.T.);
#1699=ORIENTED_EDGE('',*,*,#1320,.F.);
#1700=ORIENTED_EDGE('',*,*,#1633,.F.);
#1701=EDGE_LOOP('',(#1697,#1698,#1699,#1700));
#1702=FACE_BOUND('',#1701,.T.);
#1703=ADVANCED_FACE('',(#1702),#1691,.F.);
#1704=CARTESIAN_POINT('',(-0.353495723,-4.602157482,1.2));
#1705=DIRECTION('',(0.,0.,-1.));
#1706=DIRECTION('',(-1.,0.,0.));
#1707=AXIS2_PLACEMENT_3D('',#1704,#1705,#1706);
#1708=CYLINDRICAL_SURFACE('',#1707,1.3);
#1709=CARTESIAN_POINT('',(-1.653495723,-4.602157482,-0.1));
#1710=DIRECTION('',(-0.,-0.,1.));
#1711=VECTOR('',#1710,0.3);
#1712=LINE('',#1709,#1711);
#1713=EDGE_CURVE('',#1493,#1594,#1712,.T.);
#1714=ORIENTED_EDGE('',*,*,#1713,.F.);
#1715=ORIENTED_EDGE('',*,*,#1499,.T.);
#1716=ORIENTED_EDGE('',*,*,#954,.F.);
#1717=ORIENTED_EDGE('',*,*,#1607,.F.);
#1718=EDGE_LOOP('',(#1714,#1715,#1716,#1717));
#1719=FACE_BOUND('',#1718,.T.);
#1720=ADVANCED_FACE('',(#1719),#1708,.F.);
#1721=CARTESIAN_POINT('',(-2.885494061,-4.904626495,0.1));
#1722=DIRECTION('',(0.,0.,1.));
#1723=DIRECTION('',(1.,0.,-0.));
#1724=AXIS2_PLACEMENT_3D('',#1721,#1722,#1723);
#1725=CYLINDRICAL_SURFACE('',#1724,1.);
#1726=ORIENTED_EDGE('',*,*,#210,.T.);
#1727=ORIENTED_EDGE('',*,*,#1557,.T.);
#1728=ORIENTED_EDGE('',*,*,#184,.T.);
#1729=ORIENTED_EDGE('',*,*,#1678,.F.);
#1730=EDGE_LOOP('',(#1726,#1727,#1728,#1729));
#1731=FACE_BOUND('',#1730,.T.);
#1732=ADVANCED_FACE('',(#1731),#1725,.F.);
#1733=CARTESIAN_POINT('',(-0.353496776,4.602161193,0.1));
#1734=DIRECTION('',(0.,0.,1.));
#1735=DIRECTION('',(1.,0.,-0.));
#1736=AXIS2_PLACEMENT_3D('',#1733,#1734,#1735);
#1737=CYLINDRICAL_SURFACE('',#1736,1.55);
#1738=ORIENTED_EDGE('',*,*,#607,.F.);
#1739=ORIENTED_EDGE('',*,*,#1658,.T.);
#1740=ORIENTED_EDGE('',*,*,#664,.F.);
#1741=ORIENTED_EDGE('',*,*,#1577,.F.);
#1742=EDGE_LOOP('',(#1738,#1739,#1740,#1741));
#1743=FACE_BOUND('',#1742,.T.);
#1744=ADVANCED_FACE('',(#1743),#1737,.T.);
#1745=CARTESIAN_POINT('',(-0.353495723,4.602157482,1.2));
#1746=DIRECTION('',(0.,0.,-1.));
#1747=DIRECTION('',(-1.,0.,0.));
#1748=AXIS2_PLACEMENT_3D('',#1745,#1746,#1747);
#1749=CYLINDRICAL_SURFACE('',#1748,1.3);
#1750=ORIENTED_EDGE('',*,*,#1696,.T.);
#1751=ORIENTED_EDGE('',*,*,#1626,.F.);
#1752=ORIENTED_EDGE('',*,*,#1355,.F.);
#1753=ORIENTED_EDGE('',*,*,#1533,.T.);
#1754=EDGE_LOOP('',(#1750,#1751,#1752,#1753));
#1755=FACE_BOUND('',#1754,.T.);
#1756=ADVANCED_FACE('',(#1755),#1749,.F.);
#1757=CARTESIAN_POINT('',(-0.353495723,-4.602157482,1.2));
#1758=DIRECTION('',(0.,0.,-1.));
#1759=DIRECTION('',(-1.,0.,0.));
#1760=AXIS2_PLACEMENT_3D('',#1757,#1758,#1759);
#1761=CYLINDRICAL_SURFACE('',#1760,1.3);
#1762=ORIENTED_EDGE('',*,*,#1713,.T.);
#1763=ORIENTED_EDGE('',*,*,#1600,.F.);
#1764=ORIENTED_EDGE('',*,*,#989,.F.);
#1765=ORIENTED_EDGE('',*,*,#1506,.T.);
#1766=EDGE_LOOP('',(#1762,#1763,#1764,#1765));
#1767=FACE_BOUND('',#1766,.T.);
#1768=ADVANCED_FACE('',(#1767),#1761,.F.);
#1769=CLOSED_SHELL('',(#66,#99,#130,#163,#196,#238,#271,#304,#335,#368,#401,#432,#463,#496,#529,#560,#593,#626,#668,#701,#734,#765,#805,#836,#869,#902,
#933,#966,#1008,#1041,#1074,#1105,#1138,#1169,#1202,#1233,#1266,#1299,#1332,#1374,#1405,#1438,#1462,#1486,#1586,#1686,#1703,#1720,#1732,#1744,#1756,
#1768));
#1770=MANIFOLD_SOLID_BREP('\X2\5BC65C015708\X0\',#1769);
#1771=COLOUR_RGB('',0.564705908,0.564705908,0.564705908);
#1772=FILL_AREA_STYLE_COLOUR('',#1771);
#1773=FILL_AREA_STYLE('',(#1772));
#1774=SURFACE_STYLE_FILL_AREA(#1773);
#1775=SURFACE_SIDE_STYLE('',(#1774));
#1776=SURFACE_STYLE_USAGE(.BOTH.,#1775);
#1777=PRESENTATION_STYLE_ASSIGNMENT((#1776));
#26=STYLED_ITEM('',(#1777),#1770);
#16=SHAPE_REPRESENTATION('\X2\5BC65C015708\X0\',(#15),#10);
#17=ADVANCED_BREP_SHAPE_REPRESENTATION('\X2\5BC65C015708\X0\',(#1770),#10);
#1785=SHAPE_REPRESENTATION_RELATIONSHIP('','',#16,#17);
#1786=CARTESIAN_POINT('',(0.,0.,0.));
#1787=DIRECTION('',(0.,0.,1.));
#1788=DIRECTION('',(1.,0.,0.));
#1789=AXIS2_PLACEMENT_3D('',#1786,#1787,#1788);
#1791=MAPPED_ITEM('',#1790,#1789);
#1790=REPRESENTATION_MAP(#1789,#16);
#1792=APPLICATION_CONTEXT('Managed model based 3d engineering');
#1793=APPLICATION_PROTOCOL_DEFINITION('international standard','ap242_managed_model_based_3d_engineering',2014,#1792);
#1794=PRODUCT_CONTEXT('',#1792,'mechanical');
#1795=PRODUCT_DEFINITION_CONTEXT('part definition',#1792,'design');
#24=PRODUCT('\X2\5BC65C015708\X0\','\X2\5BC65C015708\X0\','',(#1794));
#1796=PRODUCT_RELATED_PRODUCT_CATEGORY('part','',(#24));
#1797=PRODUCT_DEFINITION_FORMATION_WITH_SPECIFIED_SOURCE('','',#24,.NOT_KNOWN.);
#25=PRODUCT_DEFINITION('design','',#1797,#1795);
#23=PRODUCT_DEFINITION_SHAPE('','',#25);
#1798=SHAPE_DEFINITION_REPRESENTATION(#23,#16);
#11=DRAUGHTING_MODEL('',(#1791),#10);
#1799=DESCRIPTIVE_REPRESENTATION_ITEM('KEY','C:\\Users\\Nalani\\AppData\\Local\\Packages\\Shapr3D.Shapr3D_j403pzjkqtqbj\\TempState\\11a945fa-1c96-4250-985d-bbf7898cb50c.tmp');
#1800=PROPERTY_DEFINITION('KEY','',#25);
#1801=REPRESENTATION('',(#1799),#10);
#1802=PROPERTY_DEFINITION_REPRESENTATION(#1800,#1801);
#1803=GENERAL_PROPERTY('','KEY','');
#1804=GENERAL_PROPERTY_ASSOCIATION('','',#1803,#1800);
#1=MECHANICAL_DESIGN_GEOMETRIC_PRESENTATION_REPRESENTATION('',(#26),#10);
ENDSEC;
END-ISO-10303-21;
