ISO-10303-21;
HEADER;

/* File generated by Shapr3D Version 26.123.11423.0 */

FILE_DESCRIPTION(('HOOPS Exchange Step'),'2;1');

FILE_NAME('C:\\Users\\Nalani\\AppData\\Local\\Packages\\Shapr3D.Shapr3D_j403pzjkqtqbj\\TempState\\export\\temp_export',
'2026-08-03T16:12:12+08:00',
('Nalani'),
('Shapr3D Limited'),
'HOOPS Exchange 2026.3',
'Shapr3D',
'Authorized');

FILE_SCHEMA( ('AP242_MANAGED_MODEL_BASED_3D_ENGINEERING_MIM_LF {1 0 10303 442 1 1 4}') );

ENDSEC;

DATA;
#3=(NAMED_UNIT(*)PLANE_ANGLE_UNIT()SI_UNIT($,.RADIAN.));
#4=PLANE_ANGLE_MEASURE_WITH_UNIT(PLANE_ANGLE_MEASURE(0.0174532925),#3);
#5=(CONVERSION_BASED_UNIT('DEGREE',#4)NAMED_UNIT(#6)PLANE_ANGLE_UNIT());
#6=DIMENSIONAL_EXPONENTS(0.,0.,0.,0.,0.,0.,0.);
#7=(NAMED_UNIT(*)SI_UNIT($,.STERADIAN.)SOLID_ANGLE_UNIT());
#8=(LENGTH_UNIT()NAMED_UNIT(*)SI_UNIT(.MILLI.,.METRE.));
#9=UNCERTAINTY_MEASURE_WITH_UNIT(LENGTH_MEASURE(1.000000E-05),#8,'DISTANCE_ACCURACY_VALUE','Maximum Tolerance applied to model');
#10=(GEOMETRIC_REPRESENTATION_CONTEXT(3)GLOBAL_UNCERTAINTY_ASSIGNED_CONTEXT((#9))GLOBAL_UNIT_ASSIGNED_CONTEXT((#8,#5,#7))REPRESENTATION_CONTEXT('','\X2\5F9E593E81C2\X0\ (\X2\65E05B9E4F5387BA7EB9\X0\)'));
#12=CARTESIAN_POINT('',(0.,0.,0.));
#13=DIRECTION('',(0.,0.,1.));
#14=DIRECTION('',(1.,0.,0.));
#15=AXIS2_PLACEMENT_3D('',#12,#13,#14);
#27=CARTESIAN_POINT('',(-1.2,-13.,-0.5));
#28=DIRECTION('',(0.,0.,1.));
#29=DIRECTION('',(1.,0.,-0.));
#30=AXIS2_PLACEMENT_3D('',#27,#28,#29);
#31=CYLINDRICAL_SURFACE('',#30,0.625);
#32=CARTESIAN_POINT('',(-0.575,-13.,2.15));
#33=VERTEX_POINT('',#32);
#34=CARTESIAN_POINT('',(-0.575,-13.,1.26));
#35=VERTEX_POINT('',#34);
#36=CARTESIAN_POINT('',(-0.575,-13.,2.15));
#37=DIRECTION('',(-0.,-0.,-1.));
#38=VECTOR('',#37,0.89);
#39=LINE('',#36,#38);
#40=EDGE_CURVE('',#33,#35,#39,.T.);
#41=ORIENTED_EDGE('',*,*,#40,.F.);
#42=CARTESIAN_POINT('',(-0.575481575,-12.975469666,2.15));
#43=VERTEX_POINT('',#42);
#44=CARTESIAN_POINT('',(-1.2,-13.,2.15));
#45=DIRECTION('',(-0.,-0.,-1.));
#46=DIRECTION('',(1.,0.,-0.));
#47=AXIS2_PLACEMENT_3D('',#44,#45,#46);
#48=CIRCLE('',#47,0.625);
#49=EDGE_CURVE('',#43,#33,#48,.T.);
#50=ORIENTED_EDGE('',*,*,#49,.F.);
#51=CARTESIAN_POINT('',(-1.2,-13.,2.15));
#52=DIRECTION('',(-0.,-0.,-1.));
#53=DIRECTION('',(1.,0.,-0.));
#54=AXIS2_PLACEMENT_3D('',#51,#52,#53);
#55=CIRCLE('',#54,0.625);
#56=EDGE_CURVE('',#33,#43,#55,.T.);
#57=ORIENTED_EDGE('',*,*,#56,.F.);
#58=ORIENTED_EDGE('',*,*,#40,.T.);
#59=CARTESIAN_POINT('',(-1.825,-13.,1.26));
#60=VERTEX_POINT('',#59);
#61=CARTESIAN_POINT('',(-1.2,-13.,1.26));
#62=DIRECTION('',(0.,0.,-1.));
#63=DIRECTION('',(-1.,0.,0.));
#64=AXIS2_PLACEMENT_3D('',#61,#62,#63);
#65=CIRCLE('',#64,0.625);
#66=EDGE_CURVE('',#35,#60,#65,.T.);
#67=ORIENTED_EDGE('',*,*,#66,.T.);
#68=CARTESIAN_POINT('',(-1.2,-13.,1.26));
#69=DIRECTION('',(0.,0.,-1.));
#70=DIRECTION('',(-1.,0.,0.));
#71=AXIS2_PLACEMENT_3D('',#68,#69,#70);
#72=CIRCLE('',#71,0.625);
#73=EDGE_CURVE('',#60,#35,#72,.T.);
#74=ORIENTED_EDGE('',*,*,#73,.T.);
#75=EDGE_LOOP('',(#41,#50,#57,#58,#67,#74));
#76=FACE_BOUND('',#75,.T.);
#77=ADVANCED_FACE('',(#76),#31,.F.);
#78=CARTESIAN_POINT('',(110.963256514,-332.373238183,1.26));
#79=DIRECTION('',(0.,0.,-1.));
#80=DIRECTION('',(1.,0.,0.));
#81=AXIS2_PLACEMENT_3D('',#78,#79,#80);
#82=PLANE('',#81);
#83=CARTESIAN_POINT('',(-2.7,-12.3,1.26));
#84=VERTEX_POINT('',#83);
#85=CARTESIAN_POINT('',(-2.7,-13.7,1.26));
#86=VERTEX_POINT('',#85);
#87=CARTESIAN_POINT('',(-2.7,-12.3,1.26));
#88=DIRECTION('',(0.,-1.,0.));
#89=VECTOR('',#88,1.4);
#90=LINE('',#87,#89);
#91=EDGE_CURVE('',#84,#86,#90,.T.);
#92=ORIENTED_EDGE('',*,*,#91,.F.);
#93=CARTESIAN_POINT('',(-1.9,-11.5,1.26));
#94=VERTEX_POINT('',#93);
#95=CARTESIAN_POINT('',(-2.7,-12.3,1.26));
#96=DIRECTION('',(0.707106781,0.707106781,-0.));
#97=VECTOR('',#96,1.13137085);
#98=LINE('',#95,#97);
#99=EDGE_CURVE('',#84,#94,#98,.T.);
#100=ORIENTED_EDGE('',*,*,#99,.T.);
#101=CARTESIAN_POINT('',(-0.016743486,-11.5,1.26));
#102=VERTEX_POINT('',#101);
#103=CARTESIAN_POINT('',(-0.016743486,-11.5,1.26));
#104=DIRECTION('',(-1.,0.,0.));
#105=VECTOR('',#104,1.883256514);
#106=LINE('',#103,#105);
#107=EDGE_CURVE('',#102,#94,#106,.T.);
#108=ORIENTED_EDGE('',*,*,#107,.F.);
#109=CARTESIAN_POINT('',(-0.016743486,-14.5,1.26));
#110=VERTEX_POINT('',#109);
#111=CARTESIAN_POINT('',(-0.016743486,-14.5,1.26));
#112=DIRECTION('',(0.,1.,0.));
#113=VECTOR('',#112,3.);
#114=LINE('',#111,#113);
#115=EDGE_CURVE('',#110,#102,#114,.T.);
#116=ORIENTED_EDGE('',*,*,#115,.F.);
#117=CARTESIAN_POINT('',(-1.9,-14.5,1.26));
#118=VERTEX_POINT('',#117);
#119=CARTESIAN_POINT('',(-1.9,-14.5,1.26));
#120=DIRECTION('',(1.,0.,-0.));
#121=VECTOR('',#120,1.883256514);
#122=LINE('',#119,#121);
#123=EDGE_CURVE('',#118,#110,#122,.T.);
#124=ORIENTED_EDGE('',*,*,#123,.F.);
#125=CARTESIAN_POINT('',(-1.9,-14.5,1.26));
#126=DIRECTION('',(-0.707106781,0.707106781,-0.));
#127=VECTOR('',#126,1.13137085);
#128=LINE('',#125,#127);
#129=EDGE_CURVE('',#118,#86,#128,.T.);
#130=ORIENTED_EDGE('',*,*,#129,.T.);
#131=EDGE_LOOP('',(#92,#100,#108,#116,#124,#130));
#132=FACE_BOUND('',#131,.T.);
#133=ORIENTED_EDGE('',*,*,#66,.F.);
#134=ORIENTED_EDGE('',*,*,#73,.F.);
#135=EDGE_LOOP('',(#133,#134));
#136=FACE_BOUND('',#135,.T.);
#137=ADVANCED_FACE('',(#132,#136),#82,.T.);
#138=CARTESIAN_POINT('',(-0.016743486,-13.009904052,2.91));
#139=DIRECTION('',(-1.,0.,0.));
#140=DIRECTION('',(0.,0.,-1.));
#141=AXIS2_PLACEMENT_3D('',#138,#139,#140);
#142=PLANE('',#141);
#143=CARTESIAN_POINT('',(-0.016743486,-11.5,2.56));
#144=VERTEX_POINT('',#143);
#145=CARTESIAN_POINT('',(-0.016743486,-11.5,2.21));
#146=VERTEX_POINT('',#145);
#147=CARTESIAN_POINT('',(-0.016743486,-11.5,2.56));
#148=DIRECTION('',(0.,0.,-1.));
#149=VECTOR('',#148,0.35);
#150=LINE('',#147,#149);
#151=EDGE_CURVE('',#144,#146,#150,.T.);
#152=ORIENTED_EDGE('',*,*,#151,.F.);
#153=CARTESIAN_POINT('',(-0.016743486,-14.5,2.56));
#154=VERTEX_POINT('',#153);
#155=CARTESIAN_POINT('',(-0.016743486,-14.5,2.56));
#156=DIRECTION('',(0.,1.,0.));
#157=VECTOR('',#156,3.);
#158=LINE('',#155,#157);
#159=EDGE_CURVE('',#154,#144,#158,.T.);
#160=ORIENTED_EDGE('',*,*,#159,.F.);
#161=CARTESIAN_POINT('',(-0.016743486,-14.5,2.21));
#162=VERTEX_POINT('',#161);
#163=CARTESIAN_POINT('',(-0.016743486,-14.5,2.56));
#164=DIRECTION('',(0.,0.,-1.));
#165=VECTOR('',#164,0.35);
#166=LINE('',#163,#165);
#167=EDGE_CURVE('',#154,#162,#166,.T.);
#168=ORIENTED_EDGE('',*,*,#167,.T.);
#169=CARTESIAN_POINT('',(-0.016743486,-11.5,2.21));
#170=DIRECTION('',(-0.,-1.,-0.));
#171=VECTOR('',#170,3.);
#172=LINE('',#169,#171);
#173=EDGE_CURVE('',#146,#162,#172,.T.);
#174=ORIENTED_EDGE('',*,*,#173,.F.);
#175=EDGE_LOOP('',(#152,#160,#168,#174));
#176=FACE_BOUND('',#175,.T.);
#177=ADVANCED_FACE('',(#176),#142,.F.);
#178=CARTESIAN_POINT('',(-0.016743486,-13.009904052,2.91));
#179=DIRECTION('',(-1.,0.,0.));
#180=DIRECTION('',(0.,0.,-1.));
#181=AXIS2_PLACEMENT_3D('',#178,#179,#180);
#182=PLANE('',#181);
#183=CARTESIAN_POINT('',(-0.016743486,-11.5,1.61));
#184=VERTEX_POINT('',#183);
#185=CARTESIAN_POINT('',(-0.016743486,-11.5,1.61));
#186=DIRECTION('',(0.,0.,-1.));
#187=VECTOR('',#186,0.35);
#188=LINE('',#185,#187);
#189=EDGE_CURVE('',#184,#102,#188,.T.);
#190=ORIENTED_EDGE('',*,*,#189,.F.);
#191=CARTESIAN_POINT('',(-0.016743486,-14.5,1.61));
#192=VERTEX_POINT('',#191);
#193=CARTESIAN_POINT('',(-0.016743486,-11.5,1.61));
#194=DIRECTION('',(0.,-1.,0.));
#195=VECTOR('',#194,3.);
#196=LINE('',#193,#195);
#197=EDGE_CURVE('',#184,#192,#196,.T.);
#198=ORIENTED_EDGE('',*,*,#197,.T.);
#199=CARTESIAN_POINT('',(-0.016743486,-14.5,1.61));
#200=DIRECTION('',(0.,0.,-1.));
#201=VECTOR('',#200,0.35);
#202=LINE('',#199,#201);
#203=EDGE_CURVE('',#192,#110,#202,.T.);
#204=ORIENTED_EDGE('',*,*,#203,.T.);
#205=ORIENTED_EDGE('',*,*,#115,.T.);
#206=EDGE_LOOP('',(#190,#198,#204,#205));
#207=FACE_BOUND('',#206,.T.);
#208=ADVANCED_FACE('',(#207),#182,.F.);
#209=CARTESIAN_POINT('',(110.963256514,-332.373238183,2.56));
#210=DIRECTION('',(0.,0.,-1.));
#211=DIRECTION('',(1.,0.,0.));
#212=AXIS2_PLACEMENT_3D('',#209,#210,#211);
#213=PLANE('',#212);
#214=CARTESIAN_POINT('',(-2.01,-13.,2.56));
#215=VERTEX_POINT('',#214);
#216=CARTESIAN_POINT('',(-0.39,-13.,2.56));
#217=VERTEX_POINT('',#216);
#218=CARTESIAN_POINT('',(-1.2,-13.,2.56));
#219=DIRECTION('',(0.,0.,-1.));
#220=DIRECTION('',(-1.,0.,0.));
#221=AXIS2_PLACEMENT_3D('',#218,#219,#220);
#222=CIRCLE('',#221,0.81);
#223=EDGE_CURVE('',#215,#217,#222,.T.);
#224=ORIENTED_EDGE('',*,*,#223,.T.);
#225=CARTESIAN_POINT('',(-1.2,-13.,2.56));
#226=DIRECTION('',(0.,0.,-1.));
#227=DIRECTION('',(-1.,0.,0.));
#228=AXIS2_PLACEMENT_3D('',#225,#226,#227);
#229=CIRCLE('',#228,0.81);
#230=EDGE_CURVE('',#217,#215,#229,.T.);
#231=ORIENTED_EDGE('',*,*,#230,.T.);
#232=EDGE_LOOP('',(#224,#231));
#233=FACE_BOUND('',#232,.T.);
#234=CARTESIAN_POINT('',(-1.9,-11.5,2.56));
#235=VERTEX_POINT('',#234);
#236=CARTESIAN_POINT('',(-0.016743486,-11.5,2.56));
#237=DIRECTION('',(-1.,0.,0.));
#238=VECTOR('',#237,1.883256514);
#239=LINE('',#236,#238);
#240=EDGE_CURVE('',#144,#235,#239,.T.);
#241=ORIENTED_EDGE('',*,*,#240,.T.);
#242=CARTESIAN_POINT('',(-2.7,-12.3,2.56));
#243=VERTEX_POINT('',#242);
#244=CARTESIAN_POINT('',(-1.9,-11.5,2.56));
#245=DIRECTION('',(-0.707106781,-0.707106781,-0.));
#246=VECTOR('',#245,1.13137085);
#247=LINE('',#244,#246);
#248=EDGE_CURVE('',#235,#243,#247,.T.);
#249=ORIENTED_EDGE('',*,*,#248,.T.);
#250=CARTESIAN_POINT('',(-2.7,-13.7,2.56));
#251=VERTEX_POINT('',#250);
#252=CARTESIAN_POINT('',(-2.7,-12.3,2.56));
#253=DIRECTION('',(0.,-1.,0.));
#254=VECTOR('',#253,1.4);
#255=LINE('',#252,#254);
#256=EDGE_CURVE('',#243,#251,#255,.T.);
#257=ORIENTED_EDGE('',*,*,#256,.T.);
#258=CARTESIAN_POINT('',(-1.9,-14.5,2.56));
#259=VERTEX_POINT('',#258);
#260=CARTESIAN_POINT('',(-2.7,-13.7,2.56));
#261=DIRECTION('',(0.707106781,-0.707106781,-0.));
#262=VECTOR('',#261,1.13137085);
#263=LINE('',#260,#262);
#264=EDGE_CURVE('',#251,#259,#263,.T.);
#265=ORIENTED_EDGE('',*,*,#264,.T.);
#266=CARTESIAN_POINT('',(-1.9,-14.5,2.56));
#267=DIRECTION('',(1.,0.,-0.));
#268=VECTOR('',#267,1.883256514);
#269=LINE('',#266,#268);
#270=EDGE_CURVE('',#259,#154,#269,.T.);
#271=ORIENTED_EDGE('',*,*,#270,.T.);
#272=ORIENTED_EDGE('',*,*,#159,.T.);
#273=EDGE_LOOP('',(#241,#249,#257,#265,#271,#272));
#274=FACE_BOUND('',#273,.T.);
#275=ADVANCED_FACE('',(#233,#274),#213,.F.);
#276=CARTESIAN_POINT('',(0.493256514,-13.175,2.21));
#277=DIRECTION('',(0.,0.,-1.));
#278=DIRECTION('',(-1.,0.,0.));
#279=AXIS2_PLACEMENT_3D('',#276,#277,#278);
#280=PLANE('',#279);
#281=CARTESIAN_POINT('',(0.203256514,-14.5,2.21));
#282=VERTEX_POINT('',#281);
#283=CARTESIAN_POINT('',(-0.016743486,-14.5,2.21));
#284=DIRECTION('',(1.,0.,-0.));
#285=VECTOR('',#284,0.22);
#286=LINE('',#283,#285);
#287=EDGE_CURVE('',#162,#282,#286,.T.);
#288=ORIENTED_EDGE('',*,*,#287,.T.);
#289=CARTESIAN_POINT('',(0.203256514,-11.5,2.21));
#290=VERTEX_POINT('',#289);
#291=CARTESIAN_POINT('',(0.203256514,-14.5,2.21));
#292=DIRECTION('',(0.,1.,0.));
#293=VECTOR('',#292,3.);
#294=LINE('',#291,#293);
#295=EDGE_CURVE('',#282,#290,#294,.T.);
#296=ORIENTED_EDGE('',*,*,#295,.T.);
#297=CARTESIAN_POINT('',(-0.016743486,-11.5,2.21));
#298=DIRECTION('',(1.,0.,-0.));
#299=VECTOR('',#298,0.22);
#300=LINE('',#297,#299);
#301=EDGE_CURVE('',#146,#290,#300,.T.);
#302=ORIENTED_EDGE('',*,*,#301,.F.);
#303=ORIENTED_EDGE('',*,*,#173,.T.);
#304=EDGE_LOOP('',(#288,#296,#302,#303));
#305=FACE_BOUND('',#304,.T.);
#306=ADVANCED_FACE('',(#305),#280,.F.);
#307=CARTESIAN_POINT('',(0.493256514,-13.15,1.61));
#308=DIRECTION('',(0.,0.,-1.));
#309=DIRECTION('',(-1.,0.,0.));
#310=AXIS2_PLACEMENT_3D('',#307,#308,#309);
#311=PLANE('',#310);
#312=CARTESIAN_POINT('',(0.203256514,-14.5,1.61));
#313=VERTEX_POINT('',#312);
#314=CARTESIAN_POINT('',(0.203256514,-11.5,1.61));
#315=VERTEX_POINT('',#314);
#316=CARTESIAN_POINT('',(0.203256514,-14.5,1.61));
#317=DIRECTION('',(0.,1.,0.));
#318=VECTOR('',#317,3.);
#319=LINE('',#316,#318);
#320=EDGE_CURVE('',#313,#315,#319,.T.);
#321=ORIENTED_EDGE('',*,*,#320,.F.);
#322=CARTESIAN_POINT('',(-0.016743486,-14.5,1.61));
#323=DIRECTION('',(1.,0.,-0.));
#324=VECTOR('',#323,0.22);
#325=LINE('',#322,#324);
#326=EDGE_CURVE('',#192,#313,#325,.T.);
#327=ORIENTED_EDGE('',*,*,#326,.F.);
#328=ORIENTED_EDGE('',*,*,#197,.F.);
#329=CARTESIAN_POINT('',(-0.016743486,-11.5,1.61));
#330=DIRECTION('',(1.,0.,-0.));
#331=VECTOR('',#330,0.22);
#332=LINE('',#329,#331);
#333=EDGE_CURVE('',#184,#315,#332,.T.);
#334=ORIENTED_EDGE('',*,*,#333,.T.);
#335=EDGE_LOOP('',(#321,#327,#328,#334));
#336=FACE_BOUND('',#335,.T.);
#337=ADVANCED_FACE('',(#336),#311,.T.);
#338=CARTESIAN_POINT('',(0.203256514,306.5,-428.29));
#339=DIRECTION('',(1.,0.,0.));
#340=DIRECTION('',(0.,-1.,0.));
#341=AXIS2_PLACEMENT_3D('',#338,#339,#340);
#342=PLANE('',#341);
#343=ORIENTED_EDGE('',*,*,#295,.F.);
#344=CARTESIAN_POINT('',(0.203256514,-14.5,2.21));
#345=DIRECTION('',(0.,0.,-1.));
#346=VECTOR('',#345,0.6);
#347=LINE('',#344,#346);
#348=EDGE_CURVE('',#282,#313,#347,.T.);
#349=ORIENTED_EDGE('',*,*,#348,.T.);
#350=ORIENTED_EDGE('',*,*,#320,.T.);
#351=CARTESIAN_POINT('',(0.203256514,-11.5,2.21));
#352=DIRECTION('',(0.,0.,-1.));
#353=VECTOR('',#352,0.6);
#354=LINE('',#351,#353);
#355=EDGE_CURVE('',#290,#315,#354,.T.);
#356=ORIENTED_EDGE('',*,*,#355,.F.);
#357=EDGE_LOOP('',(#343,#349,#350,#356));
#358=FACE_BOUND('',#357,.T.);
#359=ADVANCED_FACE('',(#358),#342,.T.);
#360=CARTESIAN_POINT('',(-1.126743486,-14.5,6.76));
#361=DIRECTION('',(0.,1.,0.));
#362=DIRECTION('',(0.,0.,1.));
#363=AXIS2_PLACEMENT_3D('',#360,#361,#362);
#364=PLANE('',#363);
#365=ORIENTED_EDGE('',*,*,#270,.F.);
#366=CARTESIAN_POINT('',(-1.9,-14.5,2.56));
#367=DIRECTION('',(0.,0.,-1.));
#368=VECTOR('',#367,1.3);
#369=LINE('',#366,#368);
#370=EDGE_CURVE('',#259,#118,#369,.T.);
#371=ORIENTED_EDGE('',*,*,#370,.T.);
#372=ORIENTED_EDGE('',*,*,#123,.T.);
#373=ORIENTED_EDGE('',*,*,#203,.F.);
#374=ORIENTED_EDGE('',*,*,#326,.T.);
#375=ORIENTED_EDGE('',*,*,#348,.F.);
#376=ORIENTED_EDGE('',*,*,#287,.F.);
#377=ORIENTED_EDGE('',*,*,#167,.F.);
#378=EDGE_LOOP('',(#365,#371,#372,#373,#374,#375,#376,#377));
#379=FACE_BOUND('',#378,.T.);
#380=ADVANCED_FACE('',(#379),#364,.F.);
#381=CARTESIAN_POINT('',(-1.126743486,-11.5,6.76));
#382=DIRECTION('',(0.,-1.,0.));
#383=DIRECTION('',(0.,0.,-1.));
#384=AXIS2_PLACEMENT_3D('',#381,#382,#383);
#385=PLANE('',#384);
#386=ORIENTED_EDGE('',*,*,#107,.T.);
#387=CARTESIAN_POINT('',(-1.9,-11.5,1.26));
#388=DIRECTION('',(0.,0.,1.));
#389=VECTOR('',#388,1.3);
#390=LINE('',#387,#389);
#391=EDGE_CURVE('',#94,#235,#390,.T.);
#392=ORIENTED_EDGE('',*,*,#391,.T.);
#393=ORIENTED_EDGE('',*,*,#240,.F.);
#394=ORIENTED_EDGE('',*,*,#151,.T.);
#395=ORIENTED_EDGE('',*,*,#301,.T.);
#396=ORIENTED_EDGE('',*,*,#355,.T.);
#397=ORIENTED_EDGE('',*,*,#333,.F.);
#398=ORIENTED_EDGE('',*,*,#189,.T.);
#399=EDGE_LOOP('',(#386,#392,#393,#394,#395,#396,#397,#398));
#400=FACE_BOUND('',#399,.T.);
#401=ADVANCED_FACE('',(#400),#385,.F.);
#402=CARTESIAN_POINT('',(-2.7,-12.71969106,0.6));
#403=DIRECTION('',(1.,0.,0.));
#404=DIRECTION('',(-0.,1.,0.));
#405=AXIS2_PLACEMENT_3D('',#402,#403,#404);
#406=PLANE('',#405);
#407=CARTESIAN_POINT('',(-2.7,-13.7,1.26));
#408=DIRECTION('',(0.,0.,1.));
#409=VECTOR('',#408,1.3);
#410=LINE('',#407,#409);
#411=EDGE_CURVE('',#86,#251,#410,.T.);
#412=ORIENTED_EDGE('',*,*,#411,.T.);
#413=ORIENTED_EDGE('',*,*,#256,.F.);
#414=CARTESIAN_POINT('',(-2.7,-12.3,2.56));
#415=DIRECTION('',(0.,0.,-1.));
#416=VECTOR('',#415,1.3);
#417=LINE('',#414,#416);
#418=EDGE_CURVE('',#243,#84,#417,.T.);
#419=ORIENTED_EDGE('',*,*,#418,.T.);
#420=ORIENTED_EDGE('',*,*,#91,.T.);
#421=EDGE_LOOP('',(#412,#413,#419,#420));
#422=FACE_BOUND('',#421,.T.);
#423=ADVANCED_FACE('',(#422),#406,.F.);
#424=CARTESIAN_POINT('',(-1.9,-11.5,6.76));
#425=DIRECTION('',(0.707106781,-0.707106781,0.));
#426=DIRECTION('',(0.,0.,1.));
#427=AXIS2_PLACEMENT_3D('',#424,#425,#426);
#428=PLANE('',#427);
#429=ORIENTED_EDGE('',*,*,#99,.F.);
#430=ORIENTED_EDGE('',*,*,#418,.F.);
#431=ORIENTED_EDGE('',*,*,#248,.F.);
#432=ORIENTED_EDGE('',*,*,#391,.F.);
#433=EDGE_LOOP('',(#429,#430,#431,#432));
#434=FACE_BOUND('',#433,.T.);
#435=ADVANCED_FACE('',(#434),#428,.F.);
#436=CARTESIAN_POINT('',(-1.9,-14.5,6.76));
#437=DIRECTION('',(0.707106781,0.707106781,0.));
#438=DIRECTION('',(0.,0.,-1.));
#439=AXIS2_PLACEMENT_3D('',#436,#437,#438);
#440=PLANE('',#439);
#441=ORIENTED_EDGE('',*,*,#264,.F.);
#442=ORIENTED_EDGE('',*,*,#411,.F.);
#443=ORIENTED_EDGE('',*,*,#129,.F.);
#444=ORIENTED_EDGE('',*,*,#370,.F.);
#445=EDGE_LOOP('',(#441,#442,#443,#444));
#446=FACE_BOUND('',#445,.T.);
#447=ADVANCED_FACE('',(#446),#440,.F.);
#448=CARTESIAN_POINT('',(-1.2,-13.,2.28));
#449=DIRECTION('',(0.,0.,1.));
#450=DIRECTION('',(1.,0.,-0.));
#451=AXIS2_PLACEMENT_3D('',#448,#449,#450);
#452=CYLINDRICAL_SURFACE('',#451,0.81);
#453=CARTESIAN_POINT('',(-0.39,-13.,2.15));
#454=VERTEX_POINT('',#453);
#455=CARTESIAN_POINT('',(-0.39,-13.,2.56));
#456=DIRECTION('',(-0.,-0.,-1.));
#457=VECTOR('',#456,0.41);
#458=LINE('',#455,#457);
#459=EDGE_CURVE('',#217,#454,#458,.T.);
#460=ORIENTED_EDGE('',*,*,#459,.F.);
#461=ORIENTED_EDGE('',*,*,#223,.F.);
#462=ORIENTED_EDGE('',*,*,#230,.F.);
#463=ORIENTED_EDGE('',*,*,#459,.T.);
#464=CARTESIAN_POINT('',(-0.574309114,-13.514403455,2.15));
#465=VERTEX_POINT('',#464);
#466=CARTESIAN_POINT('',(-1.2,-13.,2.15));
#467=DIRECTION('',(-0.,-0.,-1.));
#468=DIRECTION('',(1.,0.,-0.));
#469=AXIS2_PLACEMENT_3D('',#466,#467,#468);
#470=CIRCLE('',#469,0.81);
#471=EDGE_CURVE('',#454,#465,#470,.T.);
#472=ORIENTED_EDGE('',*,*,#471,.T.);
#473=CARTESIAN_POINT('',(-1.2,-13.,2.15));
#474=DIRECTION('',(-0.,-0.,-1.));
#475=DIRECTION('',(1.,0.,-0.));
#476=AXIS2_PLACEMENT_3D('',#473,#474,#475);
#477=CIRCLE('',#476,0.81);
#478=EDGE_CURVE('',#465,#454,#477,.T.);
#479=ORIENTED_EDGE('',*,*,#478,.T.);
#480=EDGE_LOOP('',(#460,#461,#462,#463,#472,#479));
#481=FACE_BOUND('',#480,.T.);
#482=ADVANCED_FACE('',(#481),#452,.F.);
#483=CARTESIAN_POINT('',(-113.7,326.4,2.15));
#484=DIRECTION('',(0.,0.,1.));
#485=DIRECTION('',(0.,-1.,0.));
#486=AXIS2_PLACEMENT_3D('',#483,#484,#485);
#487=PLANE('',#486);
#488=ORIENTED_EDGE('',*,*,#49,.T.);
#489=ORIENTED_EDGE('',*,*,#56,.T.);
#490=EDGE_LOOP('',(#488,#489));
#491=FACE_BOUND('',#490,.T.);
#492=ORIENTED_EDGE('',*,*,#471,.F.);
#493=ORIENTED_EDGE('',*,*,#478,.F.);
#494=EDGE_LOOP('',(#492,#493));
#495=FACE_BOUND('',#494,.T.);
#496=ADVANCED_FACE('',(#491,#495),#487,.T.);
#497=CLOSED_SHELL('',(#77,#137,#177,#208,#275,#306,#337,#359,#380,#401,#423,#435,#447,#482,#496));
#498=MANIFOLD_SOLID_BREP('\X2\5F9E593E81C2\X0\ (\X2\65E05B9E4F5387BA7EB9\X0\)',#497);
#499=COLOUR_RGB('',0.850980401,0.850980401,0.850980401);
#500=FILL_AREA_STYLE_COLOUR('',#499);
#501=FILL_AREA_STYLE('',(#500));
#502=SURFACE_STYLE_FILL_AREA(#501);
#503=SURFACE_SIDE_STYLE('',(#502));
#504=SURFACE_STYLE_USAGE(.BOTH.,#503);
#505=PRESENTATION_STYLE_ASSIGNMENT((#504));
#26=STYLED_ITEM('',(#505),#498);
#16=SHAPE_REPRESENTATION('\X2\5F9E593E81C2\X0\ (\X2\65E05B9E4F5387BA7EB9\X0\)',(#15),#10);
#17=ADVANCED_BREP_SHAPE_REPRESENTATION('\X2\5F9E593E81C2\X0\ (\X2\65E05B9E4F5387BA7EB9\X0\)',(#498),#10);
#513=SHAPE_REPRESENTATION_RELATIONSHIP('','',#16,#17);
#514=CARTESIAN_POINT('',(0.,0.,0.));
#515=DIRECTION('',(0.,0.,1.));
#516=DIRECTION('',(1.,0.,0.));
#517=AXIS2_PLACEMENT_3D('',#514,#515,#516);
#519=MAPPED_ITEM('',#518,#517);
#518=REPRESENTATION_MAP(#517,#16);
#520=APPLICATION_CONTEXT('Managed model based 3d engineering');
#521=APPLICATION_PROTOCOL_DEFINITION('international standard','ap242_managed_model_based_3d_engineering',2014,#520);
#522=PRODUCT_CONTEXT('',#520,'mechanical');
#523=PRODUCT_DEFINITION_CONTEXT('part definition',#520,'design');
#24=PRODUCT('\X2\5F9E593E81C2\X0\ (\X2\65E05B9E4F5387BA7EB9\X0\)','\X2\5F9E593E81C2\X0\ (\X2\65E05B9E4F5387BA7EB9\X0\)','',(#522));
#524=PRODUCT_RELATED_PRODUCT_CATEGORY('part','',(#24));
#525=PRODUCT_DEFINITION_FORMATION_WITH_SPECIFIED_SOURCE('','',#24,.NOT_KNOWN.);
#25=PRODUCT_DEFINITION('design','',#525,#523);
#23=PRODUCT_DEFINITION_SHAPE('','',#25);
#526=SHAPE_DEFINITION_REPRESENTATION(#23,#16);
#11=DRAUGHTING_MODEL('',(#519),#10);
#527=DESCRIPTIVE_REPRESENTATION_ITEM('KEY','C:\\Users\\Nalani\\AppData\\Local\\Packages\\Shapr3D.Shapr3D_j403pzjkqtqbj\\TempState\\a5bb211a-890a-42d1-8a40-3739dd23f70b.tmp');
#528=PROPERTY_DEFINITION('KEY','',#25);
#529=REPRESENTATION('',(#527),#10);
#530=PROPERTY_DEFINITION_REPRESENTATION(#528,#529);
#531=GENERAL_PROPERTY('','KEY','');
#532=GENERAL_PROPERTY_ASSOCIATION('','',#531,#528);
#1=MECHANICAL_DESIGN_GEOMETRIC_PRESENTATION_REPRESENTATION('',(#26),#10);
ENDSEC;
END-ISO-10303-21;
