ISO-10303-21;
HEADER;

/* File generated by Shapr3D Version 26.123.11423.0 */

FILE_DESCRIPTION(('HOOPS Exchange Step'),'2;1');

FILE_NAME('C:\\Users\\Nalani\\AppData\\Local\\Packages\\Shapr3D.Shapr3D_j403pzjkqtqbj\\TempState\\export\\temp_export',
'2026-08-03T16:12:12+08:00',
('Nalani'),
('Shapr3D Limited'),
'HOOPS Exchange 2026.3',
'Shapr3D',
'Authorized');

FILE_SCHEMA( ('AP242_MANAGED_MODEL_BASED_3D_ENGINEERING_MIM_LF {1 0 10303 442 1 1 4}') );

ENDSEC;

DATA;
#3=(NAMED_UNIT(*)PLANE_ANGLE_UNIT()SI_UNIT($,.RADIAN.));
#4=PLANE_ANGLE_MEASURE_WITH_UNIT(PLANE_ANGLE_MEASURE(0.0174532925),#3);
#5=(CONVERSION_BASED_UNIT('DEGREE',#4)NAMED_UNIT(#6)PLANE_ANGLE_UNIT());
#6=DIMENSIONAL_EXPONENTS(0.,0.,0.,0.,0.,0.,0.);
#7=(NAMED_UNIT(*)SI_UNIT($,.STERADIAN.)SOLID_ANGLE_UNIT());
#8=(LENGTH_UNIT()NAMED_UNIT(*)SI_UNIT(.MILLI.,.METRE.));
#9=UNCERTAINTY_MEASURE_WITH_UNIT(LENGTH_MEASURE(1.000000E-05),#8,'DISTANCE_ACCURACY_VALUE','Maximum Tolerance applied to model');
#10=(GEOMETRIC_REPRESENTATION_CONTEXT(3)GLOBAL_UNCERTAINTY_ASSIGNED_CONTEXT((#9))GLOBAL_UNIT_ASSIGNED_CONTEXT((#8,#5,#7))REPRESENTATION_CONTEXT('','\X2\63217247\X0\'));
#12=CARTESIAN_POINT('',(0.,0.,0.));
#13=DIRECTION('',(0.,0.,1.));
#14=DIRECTION('',(1.,0.,0.));
#15=AXIS2_PLACEMENT_3D('',#12,#13,#14);
#27=CARTESIAN_POINT('',(-4.494543004,0.25,1.251157943));
#28=DIRECTION('',(0.309016994,0.,-0.951056516));
#29=DIRECTION('',(0.951056516,0.,0.309016994));
#30=AXIS2_PLACEMENT_3D('',#27,#28,#29);
#31=PLANE('',#30);
#32=CARTESIAN_POINT('',(-4.466011308,-0.8,1.260428453));
#33=VERTEX_POINT('',#32);
#34=CARTESIAN_POINT('',(-4.466011308,1.3,1.260428453));
#35=VERTEX_POINT('',#34);
#36=CARTESIAN_POINT('',(-4.466011308,-0.8,1.260428453));
#37=DIRECTION('',(-0.,1.,-0.));
#38=VECTOR('',#37,2.1);
#39=LINE('',#36,#38);
#40=EDGE_CURVE('',#33,#35,#39,.T.);
#41=ORIENTED_EDGE('',*,*,#40,.T.);
#42=CARTESIAN_POINT('',(-4.456500743,1.3,1.263518623));
#43=VERTEX_POINT('',#42);
#44=CARTESIAN_POINT('',(-4.466011308,1.3,1.260428453));
#45=DIRECTION('',(0.951056516,0.,0.309016994));
#46=VECTOR('',#45,0.01);
#47=LINE('',#44,#46);
#48=EDGE_CURVE('',#35,#43,#47,.T.);
#49=ORIENTED_EDGE('',*,*,#48,.T.);
#50=CARTESIAN_POINT('',(-4.456500743,-0.8,1.263518623));
#51=VERTEX_POINT('',#50);
#52=CARTESIAN_POINT('',(-4.456500743,-0.8,1.263518623));
#53=DIRECTION('',(-0.,1.,-0.));
#54=VECTOR('',#53,2.1);
#55=LINE('',#52,#54);
#56=EDGE_CURVE('',#51,#43,#55,.T.);
#57=ORIENTED_EDGE('',*,*,#56,.F.);
#58=CARTESIAN_POINT('',(-4.466011308,-0.8,1.260428453));
#59=DIRECTION('',(0.951056516,0.,0.309016994));
#60=VECTOR('',#59,0.01);
#61=LINE('',#58,#60);
#62=EDGE_CURVE('',#33,#51,#61,.T.);
#63=ORIENTED_EDGE('',*,*,#62,.F.);
#64=EDGE_LOOP('',(#41,#49,#57,#63));
#65=FACE_BOUND('',#64,.T.);
#66=ADVANCED_FACE('',(#65),#31,.T.);
#67=CARTESIAN_POINT('',(127.91791974,-305.85,-406.17541672));
#68=DIRECTION('',(-0.951056516,-0.,-0.309016994));
#69=DIRECTION('',(0.,-1.,0.));
#70=AXIS2_PLACEMENT_3D('',#67,#68,#69);
#71=PLANE('',#70);
#72=CARTESIAN_POINT('',(-4.730715266,-0.,2.075103465));
#73=VERTEX_POINT('',#72);
#74=CARTESIAN_POINT('',(-4.746166115,-0.,2.12265629));
#75=DIRECTION('',(-0.951056516,-0.,-0.309016994));
#76=DIRECTION('',(0.309016994,0.,-0.951056516));
#77=AXIS2_PLACEMENT_3D('',#74,#75,#76);
#78=CIRCLE('',#77,0.05);
#79=EDGE_CURVE('',#73,#73,#78,.T.);
#80=ORIENTED_EDGE('',*,*,#79,.F.);
#81=EDGE_LOOP('',(#80));
#82=FACE_BOUND('',#81,.T.);
#83=CARTESIAN_POINT('',(-4.888313933,1.3,2.560142288));
#84=VERTEX_POINT('',#83);
#85=CARTESIAN_POINT('',(-4.466011308,1.3,1.260428453));
#86=DIRECTION('',(-0.309016994,0.,0.951056516));
#87=VECTOR('',#86,1.3666);
#88=LINE('',#85,#87);
#89=EDGE_CURVE('',#35,#84,#88,.T.);
#90=ORIENTED_EDGE('',*,*,#89,.F.);
#91=ORIENTED_EDGE('',*,*,#40,.F.);
#92=CARTESIAN_POINT('',(-4.888313933,-0.8,2.560142288));
#93=VERTEX_POINT('',#92);
#94=CARTESIAN_POINT('',(-4.888313933,-0.8,2.560142288));
#95=DIRECTION('',(0.309016994,0.,-0.951056516));
#96=VECTOR('',#95,1.3666);
#97=LINE('',#94,#96);
#98=EDGE_CURVE('',#93,#33,#97,.T.);
#99=ORIENTED_EDGE('',*,*,#98,.F.);
#100=CARTESIAN_POINT('',(-4.888313933,1.3,2.560142288));
#101=DIRECTION('',(0.,-1.,0.));
#102=VECTOR('',#101,2.1);
#103=LINE('',#100,#102);
#104=EDGE_CURVE('',#84,#93,#103,.T.);
#105=ORIENTED_EDGE('',*,*,#104,.F.);
#106=EDGE_LOOP('',(#90,#91,#99,#105));
#107=FACE_BOUND('',#106,.T.);
#108=ADVANCED_FACE('',(#82,#107),#71,.T.);
#109=CARTESIAN_POINT('',(127.927430305,-305.85,-406.17232655));
#110=DIRECTION('',(-0.951056516,-0.,-0.309016994));
#111=DIRECTION('',(0.,-1.,0.));
#112=AXIS2_PLACEMENT_3D('',#109,#110,#111);
#113=PLANE('',#112);
#114=CARTESIAN_POINT('',(-4.73665555,-0.05,2.12574646));
#115=VERTEX_POINT('',#114);
#116=CARTESIAN_POINT('',(-4.721204701,-0.,2.078193635));
#117=VERTEX_POINT('',#116);
#118=CARTESIAN_POINT('',(-4.73665555,-0.,2.12574646));
#119=DIRECTION('',(-0.951056516,-0.,-0.309016994));
#120=DIRECTION('',(0.,-1.,0.));
#121=AXIS2_PLACEMENT_3D('',#118,#119,#120);
#122=CIRCLE('',#121,0.05);
#123=EDGE_CURVE('',#115,#117,#122,.T.);
#124=ORIENTED_EDGE('',*,*,#123,.T.);
#125=CARTESIAN_POINT('',(-4.73665555,-0.,2.12574646));
#126=DIRECTION('',(-0.951056516,-0.,-0.309016994));
#127=DIRECTION('',(0.,-1.,0.));
#128=AXIS2_PLACEMENT_3D('',#125,#126,#127);
#129=CIRCLE('',#128,0.05);
#130=EDGE_CURVE('',#117,#115,#129,.T.);
#131=ORIENTED_EDGE('',*,*,#130,.T.);
#132=EDGE_LOOP('',(#124,#131));
#133=FACE_BOUND('',#132,.T.);
#134=ORIENTED_EDGE('',*,*,#56,.T.);
#135=CARTESIAN_POINT('',(-4.878803368,1.3,2.563232458));
#136=VERTEX_POINT('',#135);
#137=CARTESIAN_POINT('',(-4.456500743,1.3,1.263518623));
#138=DIRECTION('',(-0.309016994,0.,0.951056516));
#139=VECTOR('',#138,1.3666);
#140=LINE('',#137,#139);
#141=EDGE_CURVE('',#43,#136,#140,.T.);
#142=ORIENTED_EDGE('',*,*,#141,.T.);
#143=CARTESIAN_POINT('',(-4.878803368,-0.8,2.563232458));
#144=VERTEX_POINT('',#143);
#145=CARTESIAN_POINT('',(-4.878803368,1.3,2.563232458));
#146=DIRECTION('',(0.,-1.,0.));
#147=VECTOR('',#146,2.1);
#148=LINE('',#145,#147);
#149=EDGE_CURVE('',#136,#144,#148,.T.);
#150=ORIENTED_EDGE('',*,*,#149,.T.);
#151=CARTESIAN_POINT('',(-4.878803368,-0.8,2.563232458));
#152=DIRECTION('',(0.309016994,0.,-0.951056516));
#153=VECTOR('',#152,1.3666);
#154=LINE('',#151,#153);
#155=EDGE_CURVE('',#144,#51,#154,.T.);
#156=ORIENTED_EDGE('',*,*,#155,.T.);
#157=EDGE_LOOP('',(#134,#142,#150,#156));
#158=FACE_BOUND('',#157,.T.);
#159=ADVANCED_FACE('',(#133,#158),#113,.F.);
#160=CARTESIAN_POINT('',(-4.83341104,-0.8,2.294086519));
#161=DIRECTION('',(0.,-1.,0.));
#162=DIRECTION('',(-0.309016994,-0.,0.951056516));
#163=AXIS2_PLACEMENT_3D('',#160,#161,#162);
#164=PLANE('',#163);
#165=ORIENTED_EDGE('',*,*,#155,.F.);
#166=CARTESIAN_POINT('',(-4.888313933,-0.8,2.560142288));
#167=DIRECTION('',(0.951056516,0.,0.309016994));
#168=VECTOR('',#167,0.01);
#169=LINE('',#166,#168);
#170=EDGE_CURVE('',#93,#144,#169,.T.);
#171=ORIENTED_EDGE('',*,*,#170,.F.);
#172=ORIENTED_EDGE('',*,*,#98,.T.);
#173=ORIENTED_EDGE('',*,*,#62,.T.);
#174=EDGE_LOOP('',(#165,#171,#172,#173));
#175=FACE_BOUND('',#174,.T.);
#176=ADVANCED_FACE('',(#175),#164,.T.);
#177=CARTESIAN_POINT('',(-4.916845628,0.25,2.550871778));
#178=DIRECTION('',(-0.309016994,0.,0.951056516));
#179=DIRECTION('',(-0.951056516,-0.,-0.309016994));
#180=AXIS2_PLACEMENT_3D('',#177,#178,#179);
#181=PLANE('',#180);
#182=ORIENTED_EDGE('',*,*,#149,.F.);
#183=CARTESIAN_POINT('',(-4.888313933,1.3,2.560142288));
#184=DIRECTION('',(0.951056516,0.,0.309016994));
#185=VECTOR('',#184,0.01);
#186=LINE('',#183,#185);
#187=EDGE_CURVE('',#84,#136,#186,.T.);
#188=ORIENTED_EDGE('',*,*,#187,.F.);
#189=ORIENTED_EDGE('',*,*,#104,.T.);
#190=ORIENTED_EDGE('',*,*,#170,.T.);
#191=EDGE_LOOP('',(#182,#188,#189,#190));
#192=FACE_BOUND('',#191,.T.);
#193=ADVANCED_FACE('',(#192),#181,.T.);
#194=CARTESIAN_POINT('',(-4.83341104,1.3,2.294086519));
#195=DIRECTION('',(-0.,1.,-0.));
#196=DIRECTION('',(0.309016994,0.,-0.951056516));
#197=AXIS2_PLACEMENT_3D('',#194,#195,#196);
#198=PLANE('',#197);
#199=ORIENTED_EDGE('',*,*,#141,.F.);
#200=ORIENTED_EDGE('',*,*,#48,.F.);
#201=ORIENTED_EDGE('',*,*,#89,.T.);
#202=ORIENTED_EDGE('',*,*,#187,.T.);
#203=EDGE_LOOP('',(#199,#200,#201,#202));
#204=FACE_BOUND('',#203,.T.);
#205=ADVANCED_FACE('',(#204),#198,.T.);
#206=CARTESIAN_POINT('',(-4.626332994,-0.,2.161592432));
#207=DIRECTION('',(-0.951056516,-0.,-0.309016994));
#208=DIRECTION('',(0.309016994,0.,-0.951056516));
#209=AXIS2_PLACEMENT_3D('',#206,#207,#208);
#210=CYLINDRICAL_SURFACE('',#209,0.05);
#211=CARTESIAN_POINT('',(-4.730715266,-0.,2.075103465));
#212=DIRECTION('',(0.951056516,0.,0.309016994));
#213=VECTOR('',#212,0.01);
#214=LINE('',#211,#213);
#215=EDGE_CURVE('',#73,#117,#214,.T.);
#216=ORIENTED_EDGE('',*,*,#215,.F.);
#217=ORIENTED_EDGE('',*,*,#79,.T.);
#218=ORIENTED_EDGE('',*,*,#215,.T.);
#219=ORIENTED_EDGE('',*,*,#123,.F.);
#220=ORIENTED_EDGE('',*,*,#130,.F.);
#221=EDGE_LOOP('',(#216,#217,#218,#219,#220));
#222=FACE_BOUND('',#221,.T.);
#223=ADVANCED_FACE('',(#222),#210,.F.);
#224=CLOSED_SHELL('',(#66,#108,#159,#176,#193,#205,#223));
#225=MANIFOLD_SOLID_BREP('\X2\63217247\X0\',#224);
#226=DRAUGHTING_PRE_DEFINED_COLOUR('black');
#227=FILL_AREA_STYLE_COLOUR('',#226);
#228=FILL_AREA_STYLE('',(#227));
#229=SURFACE_STYLE_FILL_AREA(#228);
#230=SURFACE_SIDE_STYLE('',(#229));
#231=SURFACE_STYLE_USAGE(.BOTH.,#230);
#232=PRESENTATION_STYLE_ASSIGNMENT((#231));
#26=STYLED_ITEM('',(#232),#225);
#16=SHAPE_REPRESENTATION('\X2\63217247\X0\',(#15),#10);
#17=ADVANCED_BREP_SHAPE_REPRESENTATION('\X2\63217247\X0\',(#225),#10);
#240=SHAPE_REPRESENTATION_RELATIONSHIP('','',#16,#17);
#241=CARTESIAN_POINT('',(0.,0.,0.));
#242=DIRECTION('',(0.,0.,1.));
#243=DIRECTION('',(1.,0.,0.));
#244=AXIS2_PLACEMENT_3D('',#241,#242,#243);
#246=MAPPED_ITEM('',#245,#244);
#245=REPRESENTATION_MAP(#244,#16);
#247=APPLICATION_CONTEXT('Managed model based 3d engineering');
#248=APPLICATION_PROTOCOL_DEFINITION('international standard','ap242_managed_model_based_3d_engineering',2014,#247);
#249=PRODUCT_CONTEXT('',#247,'mechanical');
#250=PRODUCT_DEFINITION_CONTEXT('part definition',#247,'design');
#24=PRODUCT('\X2\63217247\X0\','\X2\63217247\X0\','',(#249));
#251=PRODUCT_RELATED_PRODUCT_CATEGORY('part','',(#24));
#252=PRODUCT_DEFINITION_FORMATION_WITH_SPECIFIED_SOURCE('','',#24,.NOT_KNOWN.);
#25=PRODUCT_DEFINITION('design','',#252,#250);
#23=PRODUCT_DEFINITION_SHAPE('','',#25);
#253=SHAPE_DEFINITION_REPRESENTATION(#23,#16);
#11=DRAUGHTING_MODEL('',(#246),#10);
#254=DESCRIPTIVE_REPRESENTATION_ITEM('KEY','C:\\Users\\Nalani\\AppData\\Local\\Packages\\Shapr3D.Shapr3D_j403pzjkqtqbj\\TempState\\544f214b-d747-4bbc-ab4e-cb8692afc594.tmp');
#255=PROPERTY_DEFINITION('KEY','',#25);
#256=REPRESENTATION('',(#254),#10);
#257=PROPERTY_DEFINITION_REPRESENTATION(#255,#256);
#258=GENERAL_PROPERTY('','KEY','');
#259=GENERAL_PROPERTY_ASSOCIATION('','',#258,#255);
#1=MECHANICAL_DESIGN_GEOMETRIC_PRESENTATION_REPRESENTATION('',(#26),#10);
ENDSEC;
END-ISO-10303-21;
