ISO-10303-21;
HEADER;

/* File generated by Shapr3D Version 26.123.11423.0 */

FILE_DESCRIPTION(('HOOPS Exchange Step'),'2;1');

FILE_NAME('C:\\Users\\Nalani\\AppData\\Local\\Packages\\Shapr3D.Shapr3D_j403pzjkqtqbj\\TempState\\export\\temp_export',
'2026-08-03T16:12:13+08:00',
('Nalani'),
('Shapr3D Limited'),
'HOOPS Exchange 2026.3',
'Shapr3D',
'Authorized');

FILE_SCHEMA( ('AP242_MANAGED_MODEL_BASED_3D_ENGINEERING_MIM_LF {1 0 10303 442 1 1 4}') );

ENDSEC;

DATA;
#3=(NAMED_UNIT(*)PLANE_ANGLE_UNIT()SI_UNIT($,.RADIAN.));
#4=PLANE_ANGLE_MEASURE_WITH_UNIT(PLANE_ANGLE_MEASURE(0.0174532925),#3);
#5=(CONVERSION_BASED_UNIT('DEGREE',#4)NAMED_UNIT(#6)PLANE_ANGLE_UNIT());
#6=DIMENSIONAL_EXPONENTS(0.,0.,0.,0.,0.,0.,0.);
#7=(NAMED_UNIT(*)SI_UNIT($,.STERADIAN.)SOLID_ANGLE_UNIT());
#8=(LENGTH_UNIT()NAMED_UNIT(*)SI_UNIT(.MILLI.,.METRE.));
#9=UNCERTAINTY_MEASURE_WITH_UNIT(LENGTH_MEASURE(1.000000E-05),#8,'DISTANCE_ACCURACY_VALUE','Maximum Tolerance applied to model');
#10=(GEOMETRIC_REPRESENTATION_CONTEXT(3)GLOBAL_UNCERTAINTY_ASSIGNED_CONTEXT((#9))GLOBAL_UNIT_ASSIGNED_CONTEXT((#8,#5,#7))REPRESENTATION_CONTEXT('','\X2\7ED3678476D6677F\X0\'));
#12=CARTESIAN_POINT('',(0.,0.,0.));
#13=DIRECTION('',(0.,0.,1.));
#14=DIRECTION('',(1.,0.,0.));
#15=AXIS2_PLACEMENT_3D('',#12,#13,#14);
#27=CARTESIAN_POINT('',(0.,0.,0.8));
#28=DIRECTION('',(0.,0.,-1.));
#29=DIRECTION('',(1.,0.,0.));
#30=AXIS2_PLACEMENT_3D('',#27,#28,#29);
#31=PLANE('',#30);
#32=CARTESIAN_POINT('',(-8.8,-3.,0.8));
#33=VERTEX_POINT('',#32);
#34=CARTESIAN_POINT('',(-8.2,-3.,0.8));
#35=DIRECTION('',(0.,0.,-1.));
#36=DIRECTION('',(-1.,0.,0.));
#37=AXIS2_PLACEMENT_3D('',#34,#35,#36);
#38=CIRCLE('',#37,0.6);
#39=EDGE_CURVE('',#33,#33,#38,.T.);
#40=ORIENTED_EDGE('',*,*,#39,.T.);
#41=EDGE_LOOP('',(#40));
#42=FACE_BOUND('',#41,.T.);
#43=CARTESIAN_POINT('',(-9.200000755,-1.5,0.8));
#44=VERTEX_POINT('',#43);
#45=CARTESIAN_POINT('',(-6.056554615,-1.5,0.8));
#46=VERTEX_POINT('',#45);
#47=CARTESIAN_POINT('',(-9.200000755,-1.5,0.8));
#48=DIRECTION('',(1.,0.,-0.));
#49=VECTOR('',#48,3.14344614);
#50=LINE('',#47,#49);
#51=EDGE_CURVE('',#44,#46,#50,.T.);
#52=ORIENTED_EDGE('',*,*,#51,.F.);
#53=CARTESIAN_POINT('',(-9.200001175,-5.248219544,0.8));
#54=VERTEX_POINT('',#53);
#55=CARTESIAN_POINT('',(-9.2,-1.5,0.8));
#56=DIRECTION('',(0.,-1.,0.));
#57=VECTOR('',#56,3.748219544);
#58=LINE('',#55,#57);
#59=EDGE_CURVE('',#44,#54,#58,.T.);
#60=ORIENTED_EDGE('',*,*,#59,.T.);
#61=CARTESIAN_POINT('',(-8.707148695,-5.745716224,0.8));
#62=VERTEX_POINT('',#61);
#63=CARTESIAN_POINT('',(-8.702482614,-5.248219544,0.8));
#64=DIRECTION('',(-0.,0.,-1.));
#65=DIRECTION('',(-0.009378707,-0.999956019,0.));
#66=AXIS2_PLACEMENT_3D('',#63,#64,#65);
#67=CIRCLE('',#66,0.497518561);
#68=EDGE_CURVE('',#62,#54,#67,.T.);
#69=ORIENTED_EDGE('',*,*,#68,.F.);
#70=CARTESIAN_POINT('',(-6.818178199,-5.763433104,0.8));
#71=VERTEX_POINT('',#70);
#72=CARTESIAN_POINT('',(-6.818178199,-5.763433104,0.8));
#73=DIRECTION('',(-0.999956019,0.009378707,0.));
#74=VECTOR('',#73,1.889053579);
#75=LINE('',#72,#74);
#76=EDGE_CURVE('',#71,#62,#75,.T.);
#77=ORIENTED_EDGE('',*,*,#76,.F.);
#78=CARTESIAN_POINT('',(-6.808084412,-5.753433544,0.8));
#79=VERTEX_POINT('',#78);
#80=CARTESIAN_POINT('',(-6.818084412,-5.753433544,0.8));
#81=DIRECTION('',(-0.,-0.,1.));
#82=DIRECTION('',(-1.,0.,0.));
#83=AXIS2_PLACEMENT_3D('',#80,#81,#82);
#84=CIRCLE('',#83,0.01);
#85=EDGE_CURVE('',#71,#79,#84,.T.);
#86=ORIENTED_EDGE('',*,*,#85,.T.);
#87=CARTESIAN_POINT('',(-6.808084412,-5.67435817,0.8));
#88=VERTEX_POINT('',#87);
#89=CARTESIAN_POINT('',(-6.808084412,-5.67435817,0.8));
#90=DIRECTION('',(0.,-1.,0.));
#91=VECTOR('',#90,0.079075374);
#92=LINE('',#89,#91);
#93=EDGE_CURVE('',#88,#79,#92,.T.);
#94=ORIENTED_EDGE('',*,*,#93,.F.);
#95=CARTESIAN_POINT('',(-6.058084412,-4.92435817,0.8));
#96=VERTEX_POINT('',#95);
#97=CARTESIAN_POINT('',(-6.058084412,-5.67435817,0.8));
#98=DIRECTION('',(0.,0.,-1.));
#99=DIRECTION('',(-1.,0.,0.));
#100=AXIS2_PLACEMENT_3D('',#97,#98,#99);
#101=CIRCLE('',#100,0.75);
#102=EDGE_CURVE('',#88,#96,#101,.T.);
#103=ORIENTED_EDGE('',*,*,#102,.T.);
#104=CARTESIAN_POINT('',(-5.26929097,-4.92435817,0.8));
#105=VERTEX_POINT('',#104);
#106=CARTESIAN_POINT('',(-5.26929097,-4.92435817,0.8));
#107=DIRECTION('',(-1.,0.,0.));
#108=VECTOR('',#107,0.788793442);
#109=LINE('',#106,#108);
#110=EDGE_CURVE('',#105,#96,#109,.T.);
#111=ORIENTED_EDGE('',*,*,#110,.F.);
#112=CARTESIAN_POINT('',(-4.51929097,-5.67435817,0.8));
#113=VERTEX_POINT('',#112);
#114=CARTESIAN_POINT('',(-5.26929097,-5.67435817,0.8));
#115=DIRECTION('',(0.,0.,-1.));
#116=DIRECTION('',(-1.,0.,0.));
#117=AXIS2_PLACEMENT_3D('',#114,#115,#116);
#118=CIRCLE('',#117,0.75);
#119=EDGE_CURVE('',#105,#113,#118,.T.);
#120=ORIENTED_EDGE('',*,*,#119,.T.);
#121=CARTESIAN_POINT('',(-4.51929097,-5.784994643,0.8));
#122=VERTEX_POINT('',#121);
#123=CARTESIAN_POINT('',(-4.51929097,-5.784994643,0.8));
#124=DIRECTION('',(0.,1.,0.));
#125=VECTOR('',#124,0.110636473);
#126=LINE('',#123,#125);
#127=EDGE_CURVE('',#122,#113,#126,.T.);
#128=ORIENTED_EDGE('',*,*,#127,.F.);
#129=CARTESIAN_POINT('',(-3.348151165,-5.795978904,0.8));
#130=VERTEX_POINT('',#129);
#131=CARTESIAN_POINT('',(-3.348151165,-5.795978904,0.8));
#132=DIRECTION('',(-0.999956019,0.009378707,0.));
#133=VECTOR('',#132,1.171191315);
#134=LINE('',#131,#133);
#135=EDGE_CURVE('',#130,#122,#134,.T.);
#136=ORIENTED_EDGE('',*,*,#135,.F.);
#137=CARTESIAN_POINT('',(-3.052749473,-5.73835869,0.8));
#138=VERTEX_POINT('',#137);
#139=CARTESIAN_POINT('',(-3.341117135,-5.046011889,0.8));
#140=DIRECTION('',(0.,0.,-1.));
#141=DIRECTION('',(0.384490216,-0.923129067,0.));
#142=AXIS2_PLACEMENT_3D('',#139,#140,#141);
#143=CIRCLE('',#142,0.75);
#144=EDGE_CURVE('',#138,#130,#143,.T.);
#145=ORIENTED_EDGE('',*,*,#144,.F.);
#146=CARTESIAN_POINT('',(-2.731142244,-5.638531164,0.8));
#147=VERTEX_POINT('',#146);
#148=CARTESIAN_POINT('',(-2.360712052,-7.399883048,0.8));
#149=DIRECTION('',(0.,0.,-1.));
#150=DIRECTION('',(-0.384490216,0.923129067,0.));
#151=AXIS2_PLACEMENT_3D('',#148,#149,#150);
#152=CIRCLE('',#151,1.799883048);
#153=EDGE_CURVE('',#138,#147,#152,.T.);
#154=ORIENTED_EDGE('',*,*,#153,.T.);
#155=CARTESIAN_POINT('',(-2.135498186,-4.904586859,0.8));
#156=VERTEX_POINT('',#155);
#157=CARTESIAN_POINT('',(-2.885498186,-4.904586859,0.8));
#158=DIRECTION('',(0.,0.,-1.));
#159=DIRECTION('',(-1.,0.,0.));
#160=AXIS2_PLACEMENT_3D('',#157,#158,#159);
#161=CIRCLE('',#160,0.75);
#162=EDGE_CURVE('',#156,#147,#161,.T.);
#163=ORIENTED_EDGE('',*,*,#162,.F.);
#164=CARTESIAN_POINT('',(-2.140791579,-4.815637042,0.8));
#165=VERTEX_POINT('',#164);
#166=CARTESIAN_POINT('',(-2.885498186,-4.904586859,0.8));
#167=DIRECTION('',(0.,0.,-1.));
#168=DIRECTION('',(-1.,0.,0.));
#169=AXIS2_PLACEMENT_3D('',#166,#167,#168);
#170=CIRCLE('',#169,0.75);
#171=EDGE_CURVE('',#165,#156,#170,.T.);
#172=ORIENTED_EDGE('',*,*,#171,.F.);
#173=CARTESIAN_POINT('',(-2.131251774,-4.320052143,0.8));
#174=VERTEX_POINT('',#173);
#175=CARTESIAN_POINT('',(-0.353495723,-4.602157482,0.8));
#176=DIRECTION('',(-0.,0.,-1.));
#177=DIRECTION('',(-0.992940112,-0.118616755,0.));
#178=AXIS2_PLACEMENT_3D('',#175,#176,#177);
#179=CIRCLE('',#178,1.8);
#180=EDGE_CURVE('',#165,#174,#179,.T.);
#181=ORIENTED_EDGE('',*,*,#180,.T.);
#182=CARTESIAN_POINT('',(-2.131251774,-1.66104666,0.8));
#183=VERTEX_POINT('',#182);
#184=CARTESIAN_POINT('',(-2.131251774,-1.66104666,0.8));
#185=DIRECTION('',(0.,-1.,0.));
#186=VECTOR('',#185,2.659005483);
#187=LINE('',#184,#186);
#188=EDGE_CURVE('',#183,#174,#187,.T.);
#189=ORIENTED_EDGE('',*,*,#188,.F.);
#190=CARTESIAN_POINT('',(-4.556554615,-1.66104666,0.8));
#191=VERTEX_POINT('',#190);
#192=CARTESIAN_POINT('',(-2.131251774,-1.66104666,0.8));
#193=DIRECTION('',(-1.,0.,0.));
#194=VECTOR('',#193,2.425302841);
#195=LINE('',#192,#194);
#196=EDGE_CURVE('',#183,#191,#195,.T.);
#197=ORIENTED_EDGE('',*,*,#196,.T.);
#198=CARTESIAN_POINT('',(-4.556554615,-2.040777439,0.8));
#199=VERTEX_POINT('',#198);
#200=CARTESIAN_POINT('',(-4.556554615,-1.66104666,0.8));
#201=DIRECTION('',(0.,-1.,0.));
#202=VECTOR('',#201,0.379730779);
#203=LINE('',#200,#202);
#204=EDGE_CURVE('',#191,#199,#203,.T.);
#205=ORIENTED_EDGE('',*,*,#204,.T.);
#206=CARTESIAN_POINT('',(-5.306554615,-2.790777439,0.8));
#207=VERTEX_POINT('',#206);
#208=CARTESIAN_POINT('',(-5.306554615,-2.040777439,0.8));
#209=DIRECTION('',(0.,0.,-1.));
#210=DIRECTION('',(-1.,0.,0.));
#211=AXIS2_PLACEMENT_3D('',#208,#209,#210);
#212=CIRCLE('',#211,0.75);
#213=EDGE_CURVE('',#199,#207,#212,.T.);
#214=ORIENTED_EDGE('',*,*,#213,.T.);
#215=CARTESIAN_POINT('',(-6.056554615,-2.040777439,0.8));
#216=VERTEX_POINT('',#215);
#217=CARTESIAN_POINT('',(-5.306554615,-2.040777439,0.8));
#218=DIRECTION('',(0.,0.,-1.));
#219=DIRECTION('',(-1.,0.,0.));
#220=AXIS2_PLACEMENT_3D('',#217,#218,#219);
#221=CIRCLE('',#220,0.75);
#222=EDGE_CURVE('',#207,#216,#221,.T.);
#223=ORIENTED_EDGE('',*,*,#222,.T.);
#224=CARTESIAN_POINT('',(-6.056554615,-2.040777439,0.8));
#225=DIRECTION('',(0.,1.,0.));
#226=VECTOR('',#225,0.540777439);
#227=LINE('',#224,#226);
#228=EDGE_CURVE('',#216,#46,#227,.T.);
#229=ORIENTED_EDGE('',*,*,#228,.T.);
#230=EDGE_LOOP('',(#52,#60,#69,#77,#86,#94,#103,#111,#120,#128,#136,#145,#154,#163,#172,#181,#189,#197,#205,#214,#223,#229));
#231=FACE_BOUND('',#230,.T.);
#232=ADVANCED_FACE('',(#42,#231),#31,.F.);
#233=CARTESIAN_POINT('',(-9.2,-2.999109772,0.1));
#234=DIRECTION('',(-1.,-0.,0.));
#235=DIRECTION('',(0.,-1.,0.));
#236=AXIS2_PLACEMENT_3D('',#233,#234,#235);
#237=PLANE('',#236);
#238=CARTESIAN_POINT('',(-9.200000755,1.494747553,0.4));
#239=VERTEX_POINT('',#238);
#240=CARTESIAN_POINT('',(-9.200000755,-1.5,0.4));
#241=VERTEX_POINT('',#240);
#242=CARTESIAN_POINT('',(-9.2,1.494747553,0.4));
#243=DIRECTION('',(0.,-1.,0.));
#244=VECTOR('',#243,2.994747553);
#245=LINE('',#242,#244);
#246=EDGE_CURVE('',#239,#241,#245,.T.);
#247=ORIENTED_EDGE('',*,*,#246,.F.);
#248=CARTESIAN_POINT('',(-9.200000755,1.494747553,0.8));
#249=VERTEX_POINT('',#248);
#250=CARTESIAN_POINT('',(-9.200000755,1.494747553,0.4));
#251=DIRECTION('',(0.,0.,1.));
#252=VECTOR('',#251,0.4);
#253=LINE('',#250,#252);
#254=EDGE_CURVE('',#239,#249,#253,.T.);
#255=ORIENTED_EDGE('',*,*,#254,.T.);
#256=CARTESIAN_POINT('',(-9.2,5.248219544,0.8));
#257=VERTEX_POINT('',#256);
#258=CARTESIAN_POINT('',(-9.2,5.248219544,0.8));
#259=DIRECTION('',(0.,-1.,0.));
#260=VECTOR('',#259,3.753471991);
#261=LINE('',#258,#260);
#262=EDGE_CURVE('',#257,#249,#261,.T.);
#263=ORIENTED_EDGE('',*,*,#262,.F.);
#264=CARTESIAN_POINT('',(-9.2,5.248219544,0.));
#265=VERTEX_POINT('',#264);
#266=CARTESIAN_POINT('',(-9.2,5.248219544,0.));
#267=DIRECTION('',(0.,0.,1.));
#268=VECTOR('',#267,0.8);
#269=LINE('',#266,#268);
#270=EDGE_CURVE('',#265,#257,#269,.T.);
#271=ORIENTED_EDGE('',*,*,#270,.F.);
#272=CARTESIAN_POINT('',(-9.2,4.732050808,0.));
#273=VERTEX_POINT('',#272);
#274=CARTESIAN_POINT('',(-9.2,5.248219544,0.));
#275=DIRECTION('',(0.,-1.,0.));
#276=VECTOR('',#275,0.516168737);
#277=LINE('',#274,#276);
#278=EDGE_CURVE('',#265,#273,#277,.T.);
#279=ORIENTED_EDGE('',*,*,#278,.T.);
#280=CARTESIAN_POINT('',(-9.2,4.732050808,0.4));
#281=VERTEX_POINT('',#280);
#282=CARTESIAN_POINT('',(-9.2,4.732050808,0.));
#283=DIRECTION('',(0.,0.,1.));
#284=VECTOR('',#283,0.4);
#285=LINE('',#282,#284);
#286=EDGE_CURVE('',#273,#281,#285,.T.);
#287=ORIENTED_EDGE('',*,*,#286,.T.);
#288=CARTESIAN_POINT('',(-9.2,1.585786438,0.4));
#289=VERTEX_POINT('',#288);
#290=CARTESIAN_POINT('',(-9.2,4.732050808,0.4));
#291=DIRECTION('',(0.,-1.,0.));
#292=VECTOR('',#291,3.14626437);
#293=LINE('',#290,#292);
#294=EDGE_CURVE('',#281,#289,#293,.T.);
#295=ORIENTED_EDGE('',*,*,#294,.T.);
#296=CARTESIAN_POINT('',(-9.2,1.585786438,0.));
#297=VERTEX_POINT('',#296);
#298=CARTESIAN_POINT('',(-9.2,1.585786438,0.4));
#299=DIRECTION('',(-0.,-0.,-1.));
#300=VECTOR('',#299,0.4);
#301=LINE('',#298,#300);
#302=EDGE_CURVE('',#289,#297,#301,.T.);
#303=ORIENTED_EDGE('',*,*,#302,.T.);
#304=CARTESIAN_POINT('',(-9.2,-1.585786438,0.));
#305=VERTEX_POINT('',#304);
#306=CARTESIAN_POINT('',(-9.2,1.585786438,0.));
#307=DIRECTION('',(0.,-1.,0.));
#308=VECTOR('',#307,3.171572875);
#309=LINE('',#306,#308);
#310=EDGE_CURVE('',#297,#305,#309,.T.);
#311=ORIENTED_EDGE('',*,*,#310,.T.);
#312=CARTESIAN_POINT('',(-9.2,-1.585786438,0.4));
#313=VERTEX_POINT('',#312);
#314=CARTESIAN_POINT('',(-9.2,-1.585786438,0.));
#315=DIRECTION('',(0.,0.,1.));
#316=VECTOR('',#315,0.4);
#317=LINE('',#314,#316);
#318=EDGE_CURVE('',#305,#313,#317,.T.);
#319=ORIENTED_EDGE('',*,*,#318,.T.);
#320=CARTESIAN_POINT('',(-9.2,-4.732050808,0.4));
#321=VERTEX_POINT('',#320);
#322=CARTESIAN_POINT('',(-9.2,-1.585786438,0.4));
#323=DIRECTION('',(0.,-1.,0.));
#324=VECTOR('',#323,3.14626437);
#325=LINE('',#322,#324);
#326=EDGE_CURVE('',#313,#321,#325,.T.);
#327=ORIENTED_EDGE('',*,*,#326,.T.);
#328=CARTESIAN_POINT('',(-9.2,-4.732050808,0.));
#329=VERTEX_POINT('',#328);
#330=CARTESIAN_POINT('',(-9.2,-4.732050808,0.4));
#331=DIRECTION('',(-0.,-0.,-1.));
#332=VECTOR('',#331,0.4);
#333=LINE('',#330,#332);
#334=EDGE_CURVE('',#321,#329,#333,.T.);
#335=ORIENTED_EDGE('',*,*,#334,.T.);
#336=CARTESIAN_POINT('',(-9.2,-5.248219544,0.));
#337=VERTEX_POINT('',#336);
#338=CARTESIAN_POINT('',(-9.2,-4.732050808,0.));
#339=DIRECTION('',(0.,-1.,0.));
#340=VECTOR('',#339,0.516168737);
#341=LINE('',#338,#340);
#342=EDGE_CURVE('',#329,#337,#341,.T.);
#343=ORIENTED_EDGE('',*,*,#342,.T.);
#344=CARTESIAN_POINT('',(-9.200001175,-5.248219544,0.));
#345=DIRECTION('',(0.,0.,1.));
#346=VECTOR('',#345,0.8);
#347=LINE('',#344,#346);
#348=EDGE_CURVE('',#337,#54,#347,.T.);
#349=ORIENTED_EDGE('',*,*,#348,.T.);
#350=ORIENTED_EDGE('',*,*,#59,.F.);
#351=CARTESIAN_POINT('',(-9.200000755,-1.5,0.4));
#352=DIRECTION('',(0.,0.,1.));
#353=VECTOR('',#352,0.4);
#354=LINE('',#351,#353);
#355=EDGE_CURVE('',#241,#44,#354,.T.);
#356=ORIENTED_EDGE('',*,*,#355,.F.);
#357=EDGE_LOOP('',(#247,#255,#263,#271,#279,#287,#295,#303,#311,#319,#327,#335,#343,#349,#350,#356));
#358=FACE_BOUND('',#357,.T.);
#359=ADVANCED_FACE('',(#358),#237,.T.);
#360=CARTESIAN_POINT('',(-7.7,0.,2.9));
#361=DIRECTION('',(0.,0.,-1.));
#362=DIRECTION('',(-1.,0.,0.));
#363=AXIS2_PLACEMENT_3D('',#360,#361,#362);
#364=CYLINDRICAL_SURFACE('',#363,0.825);
#365=CARTESIAN_POINT('',(-8.525,0.,0.));
#366=VERTEX_POINT('',#365);
#367=CARTESIAN_POINT('',(-8.525,0.,0.4));
#368=VERTEX_POINT('',#367);
#369=CARTESIAN_POINT('',(-8.525,0.,0.));
#370=DIRECTION('',(-0.,-0.,1.));
#371=VECTOR('',#370,0.4);
#372=LINE('',#369,#371);
#373=EDGE_CURVE('',#366,#368,#372,.T.);
#374=ORIENTED_EDGE('',*,*,#373,.F.);
#375=CARTESIAN_POINT('',(-7.7,0.,0.));
#376=DIRECTION('',(0.,0.,-1.));
#377=DIRECTION('',(-1.,0.,0.));
#378=AXIS2_PLACEMENT_3D('',#375,#376,#377);
#379=CIRCLE('',#378,0.825);
#380=EDGE_CURVE('',#366,#366,#379,.T.);
#381=ORIENTED_EDGE('',*,*,#380,.T.);
#382=ORIENTED_EDGE('',*,*,#373,.T.);
#383=CARTESIAN_POINT('',(-6.875,0.,0.4));
#384=VERTEX_POINT('',#383);
#385=CARTESIAN_POINT('',(-7.7,0.,0.4));
#386=DIRECTION('',(-0.,-0.,-1.));
#387=DIRECTION('',(1.,0.,-0.));
#388=AXIS2_PLACEMENT_3D('',#385,#386,#387);
#389=CIRCLE('',#388,0.825);
#390=EDGE_CURVE('',#384,#368,#389,.T.);
#391=ORIENTED_EDGE('',*,*,#390,.F.);
#392=CARTESIAN_POINT('',(-7.7,0.,0.4));
#393=DIRECTION('',(-0.,-0.,-1.));
#394=DIRECTION('',(1.,0.,-0.));
#395=AXIS2_PLACEMENT_3D('',#392,#393,#394);
#396=CIRCLE('',#395,0.825);
#397=EDGE_CURVE('',#368,#384,#396,.T.);
#398=ORIENTED_EDGE('',*,*,#397,.F.);
#399=EDGE_LOOP('',(#374,#381,#382,#391,#398));
#400=FACE_BOUND('',#399,.T.);
#401=ADVANCED_FACE('',(#400),#364,.F.);
#402=CARTESIAN_POINT('',(-5.868748226,-1.03052333,3.));
#403=DIRECTION('',(-1.,0.,0.));
#404=DIRECTION('',(-0.,-1.,0.));
#405=AXIS2_PLACEMENT_3D('',#402,#403,#404);
#406=PLANE('',#405);
#407=CARTESIAN_POINT('',(-5.868748226,-0.90104666,0.4));
#408=VERTEX_POINT('',#407);
#409=CARTESIAN_POINT('',(-5.868748226,1.40104666,0.4));
#410=VERTEX_POINT('',#409);
#411=CARTESIAN_POINT('',(-5.868748226,-0.90104666,0.4));
#412=DIRECTION('',(0.,1.,0.));
#413=VECTOR('',#412,2.30209332);
#414=LINE('',#411,#413);
#415=EDGE_CURVE('',#408,#410,#414,.T.);
#416=ORIENTED_EDGE('',*,*,#415,.F.);
#417=CARTESIAN_POINT('',(-5.868748226,-0.90104666,0.));
#418=VERTEX_POINT('',#417);
#419=CARTESIAN_POINT('',(-5.868748226,-0.90104666,0.4));
#420=DIRECTION('',(0.,0.,-1.));
#421=VECTOR('',#420,0.4);
#422=LINE('',#419,#421);
#423=EDGE_CURVE('',#408,#418,#422,.T.);
#424=ORIENTED_EDGE('',*,*,#423,.T.);
#425=CARTESIAN_POINT('',(-5.868748226,1.40104666,0.));
#426=VERTEX_POINT('',#425);
#427=CARTESIAN_POINT('',(-5.868748226,-0.90104666,0.));
#428=DIRECTION('',(0.,1.,0.));
#429=VECTOR('',#428,2.30209332);
#430=LINE('',#427,#429);
#431=EDGE_CURVE('',#418,#426,#430,.T.);
#432=ORIENTED_EDGE('',*,*,#431,.T.);
#433=CARTESIAN_POINT('',(-5.868748226,1.40104666,-0.));
#434=DIRECTION('',(-0.,-0.,1.));
#435=VECTOR('',#434,0.4);
#436=LINE('',#433,#435);
#437=EDGE_CURVE('',#426,#410,#436,.T.);
#438=ORIENTED_EDGE('',*,*,#437,.T.);
#439=EDGE_LOOP('',(#416,#424,#432,#438));
#440=FACE_BOUND('',#439,.T.);
#441=ADVANCED_FACE('',(#440),#406,.F.);
#442=CARTESIAN_POINT('',(-4.,2.16104666,3.));
#443=DIRECTION('',(0.,1.,0.));
#444=DIRECTION('',(-1.,0.,0.));
#445=AXIS2_PLACEMENT_3D('',#442,#443,#444);
#446=PLANE('',#445);
#447=CARTESIAN_POINT('',(-4.556554615,2.16104666,0.4));
#448=VERTEX_POINT('',#447);
#449=CARTESIAN_POINT('',(-4.556554615,2.16104666,0.8));
#450=VERTEX_POINT('',#449);
#451=CARTESIAN_POINT('',(-4.556554615,2.16104666,0.4));
#452=DIRECTION('',(0.,0.,1.));
#453=VECTOR('',#452,0.4);
#454=LINE('',#451,#453);
#455=EDGE_CURVE('',#448,#450,#454,.T.);
#456=ORIENTED_EDGE('',*,*,#455,.F.);
#457=CARTESIAN_POINT('',(-5.108748226,2.16104666,0.4));
#458=VERTEX_POINT('',#457);
#459=CARTESIAN_POINT('',(-5.108748226,2.16104666,0.4));
#460=DIRECTION('',(1.,-0.,0.));
#461=VECTOR('',#460,0.55219361);
#462=LINE('',#459,#461);
#463=EDGE_CURVE('',#458,#448,#462,.T.);
#464=ORIENTED_EDGE('',*,*,#463,.F.);
#465=CARTESIAN_POINT('',(-5.108748226,2.16104666,0.));
#466=VERTEX_POINT('',#465);
#467=CARTESIAN_POINT('',(-5.108748226,2.16104666,0.4));
#468=DIRECTION('',(0.,0.,-1.));
#469=VECTOR('',#468,0.4);
#470=LINE('',#467,#469);
#471=EDGE_CURVE('',#458,#466,#470,.T.);
#472=ORIENTED_EDGE('',*,*,#471,.T.);
#473=CARTESIAN_POINT('',(-4.981251774,2.16104666,0.));
#474=VERTEX_POINT('',#473);
#475=CARTESIAN_POINT('',(-5.108748226,2.16104666,0.));
#476=DIRECTION('',(1.,-0.,0.));
#477=VECTOR('',#476,0.127496451);
#478=LINE('',#475,#477);
#479=EDGE_CURVE('',#466,#474,#478,.T.);
#480=ORIENTED_EDGE('',*,*,#479,.T.);
#481=CARTESIAN_POINT('',(-4.981251774,2.16104666,0.3));
#482=VERTEX_POINT('',#481);
#483=CARTESIAN_POINT('',(-4.981251774,2.16104666,0.));
#484=DIRECTION('',(-0.,-0.,1.));
#485=VECTOR('',#484,0.3);
#486=LINE('',#483,#485);
#487=EDGE_CURVE('',#474,#482,#486,.T.);
#488=ORIENTED_EDGE('',*,*,#487,.T.);
#489=CARTESIAN_POINT('',(-2.131251774,2.16104666,0.3));
#490=VERTEX_POINT('',#489);
#491=CARTESIAN_POINT('',(-4.981251774,2.16104666,0.3));
#492=DIRECTION('',(1.,-0.,0.));
#493=VECTOR('',#492,2.85);
#494=LINE('',#491,#493);
#495=EDGE_CURVE('',#482,#490,#494,.T.);
#496=ORIENTED_EDGE('',*,*,#495,.T.);
#497=CARTESIAN_POINT('',(-2.131251774,2.16104666,0.8));
#498=VERTEX_POINT('',#497);
#499=CARTESIAN_POINT('',(-2.131251774,2.16104666,0.3));
#500=DIRECTION('',(0.,0.,1.));
#501=VECTOR('',#500,0.5);
#502=LINE('',#499,#501);
#503=EDGE_CURVE('',#490,#498,#502,.T.);
#504=ORIENTED_EDGE('',*,*,#503,.T.);
#505=CARTESIAN_POINT('',(-4.556554615,2.16104666,0.8));
#506=DIRECTION('',(1.,-0.,0.));
#507=VECTOR('',#506,2.425302841);
#508=LINE('',#505,#507);
#509=EDGE_CURVE('',#450,#498,#508,.T.);
#510=ORIENTED_EDGE('',*,*,#509,.F.);
#511=EDGE_LOOP('',(#456,#464,#472,#480,#488,#496,#504,#510));
#512=FACE_BOUND('',#511,.T.);
#513=ADVANCED_FACE('',(#512),#446,.F.);
#514=CARTESIAN_POINT('',(-5.108748226,1.40104666,3.));
#515=DIRECTION('',(0.,0.,1.));
#516=DIRECTION('',(1.,0.,-0.));
#517=AXIS2_PLACEMENT_3D('',#514,#515,#516);
#518=CYLINDRICAL_SURFACE('',#517,0.76);
#519=CARTESIAN_POINT('',(-5.108748226,1.40104666,0.4));
#520=DIRECTION('',(-0.,-0.,-1.));
#521=DIRECTION('',(1.,0.,-0.));
#522=AXIS2_PLACEMENT_3D('',#519,#520,#521);
#523=CIRCLE('',#522,0.76);
#524=EDGE_CURVE('',#410,#458,#523,.T.);
#525=ORIENTED_EDGE('',*,*,#524,.F.);
#526=ORIENTED_EDGE('',*,*,#437,.F.);
#527=CARTESIAN_POINT('',(-5.108748226,1.40104666,0.));
#528=DIRECTION('',(-0.,-0.,1.));
#529=DIRECTION('',(-1.,0.,0.));
#530=AXIS2_PLACEMENT_3D('',#527,#528,#529);
#531=CIRCLE('',#530,0.76);
#532=EDGE_CURVE('',#466,#426,#531,.T.);
#533=ORIENTED_EDGE('',*,*,#532,.F.);
#534=ORIENTED_EDGE('',*,*,#471,.F.);
#535=EDGE_LOOP('',(#525,#526,#533,#534));
#536=FACE_BOUND('',#535,.T.);
#537=ADVANCED_FACE('',(#536),#518,.F.);
#538=CARTESIAN_POINT('',(-5.108748226,-0.90104666,3.));
#539=DIRECTION('',(0.,0.,1.));
#540=DIRECTION('',(1.,0.,-0.));
#541=AXIS2_PLACEMENT_3D('',#538,#539,#540);
#542=CYLINDRICAL_SURFACE('',#541,0.76);
#543=CARTESIAN_POINT('',(-5.108748226,-1.66104666,0.4));
#544=VERTEX_POINT('',#543);
#545=CARTESIAN_POINT('',(-5.108748226,-0.90104666,0.4));
#546=DIRECTION('',(-0.,-0.,-1.));
#547=DIRECTION('',(1.,0.,-0.));
#548=AXIS2_PLACEMENT_3D('',#545,#546,#547);
#549=CIRCLE('',#548,0.76);
#550=EDGE_CURVE('',#544,#408,#549,.T.);
#551=ORIENTED_EDGE('',*,*,#550,.F.);
#552=CARTESIAN_POINT('',(-5.108748226,-1.66104666,0.));
#553=VERTEX_POINT('',#552);
#554=CARTESIAN_POINT('',(-5.108748226,-1.66104666,-0.));
#555=DIRECTION('',(-0.,-0.,1.));
#556=VECTOR('',#555,0.4);
#557=LINE('',#554,#556);
#558=EDGE_CURVE('',#553,#544,#557,.T.);
#559=ORIENTED_EDGE('',*,*,#558,.F.);
#560=CARTESIAN_POINT('',(-5.108748226,-0.90104666,0.));
#561=DIRECTION('',(-0.,-0.,1.));
#562=DIRECTION('',(-1.,0.,0.));
#563=AXIS2_PLACEMENT_3D('',#560,#561,#562);
#564=CIRCLE('',#563,0.76);
#565=EDGE_CURVE('',#418,#553,#564,.T.);
#566=ORIENTED_EDGE('',*,*,#565,.F.);
#567=ORIENTED_EDGE('',*,*,#423,.F.);
#568=EDGE_LOOP('',(#551,#559,#566,#567));
#569=FACE_BOUND('',#568,.T.);
#570=ADVANCED_FACE('',(#569),#542,.F.);
#571=CARTESIAN_POINT('',(-4.231251774,0.27395334,0.8));
#572=DIRECTION('',(-1.,0.,0.));
#573=DIRECTION('',(-0.,-1.,0.));
#574=AXIS2_PLACEMENT_3D('',#571,#572,#573);
#575=PLANE('',#574);
#576=CARTESIAN_POINT('',(-4.231251774,-0.91104666,0.3));
#577=VERTEX_POINT('',#576);
#578=CARTESIAN_POINT('',(-4.231251774,1.41104666,0.3));
#579=VERTEX_POINT('',#578);
#580=CARTESIAN_POINT('',(-4.231251774,-0.91104666,0.3));
#581=DIRECTION('',(0.,1.,0.));
#582=VECTOR('',#581,2.32209332);
#583=LINE('',#580,#582);
#584=EDGE_CURVE('',#577,#579,#583,.T.);
#585=ORIENTED_EDGE('',*,*,#584,.T.);
#586=CARTESIAN_POINT('',(-4.231251774,1.41104666,0.));
#587=VERTEX_POINT('',#586);
#588=CARTESIAN_POINT('',(-4.231251774,1.41104666,0.3));
#589=DIRECTION('',(0.,0.,-1.));
#590=VECTOR('',#589,0.3);
#591=LINE('',#588,#590);
#592=EDGE_CURVE('',#579,#587,#591,.T.);
#593=ORIENTED_EDGE('',*,*,#592,.T.);
#594=CARTESIAN_POINT('',(-4.231251774,-0.91104666,0.));
#595=VERTEX_POINT('',#594);
#596=CARTESIAN_POINT('',(-4.231251774,-0.91104666,0.));
#597=DIRECTION('',(0.,1.,0.));
#598=VECTOR('',#597,2.32209332);
#599=LINE('',#596,#598);
#600=EDGE_CURVE('',#595,#587,#599,.T.);
#601=ORIENTED_EDGE('',*,*,#600,.F.);
#602=CARTESIAN_POINT('',(-4.231251774,-0.91104666,0.));
#603=DIRECTION('',(-0.,-0.,1.));
#604=VECTOR('',#603,0.3);
#605=LINE('',#602,#604);
#606=EDGE_CURVE('',#595,#577,#605,.T.);
#607=ORIENTED_EDGE('',*,*,#606,.T.);
#608=EDGE_LOOP('',(#585,#593,#601,#607));
#609=FACE_BOUND('',#608,.T.);
#610=ADVANCED_FACE('',(#609),#575,.T.);
#611=CARTESIAN_POINT('',(-2.131251774,0.27395334,0.8));
#612=DIRECTION('',(1.,0.,0.));
#613=DIRECTION('',(0.,0.,-1.));
#614=AXIS2_PLACEMENT_3D('',#611,#612,#613);
#615=PLANE('',#614);
#616=CARTESIAN_POINT('',(-2.131251774,-1.66104666,0.3));
#617=VERTEX_POINT('',#616);
#618=CARTESIAN_POINT('',(-2.131251774,2.16104666,0.3));
#619=DIRECTION('',(0.,-1.,0.));
#620=VECTOR('',#619,3.82209332);
#621=LINE('',#618,#620);
#622=EDGE_CURVE('',#490,#617,#621,.T.);
#623=ORIENTED_EDGE('',*,*,#622,.T.);
#624=CARTESIAN_POINT('',(-2.131251774,-1.66104666,0.3));
#625=DIRECTION('',(0.,0.,1.));
#626=VECTOR('',#625,0.5);
#627=LINE('',#624,#626);
#628=EDGE_CURVE('',#617,#183,#627,.T.);
#629=ORIENTED_EDGE('',*,*,#628,.T.);
#630=ORIENTED_EDGE('',*,*,#188,.T.);
#631=CARTESIAN_POINT('',(-2.131251774,-4.320052143,0.));
#632=VERTEX_POINT('',#631);
#633=CARTESIAN_POINT('',(-2.131251774,-4.320052143,0.));
#634=DIRECTION('',(0.,0.,1.));
#635=VECTOR('',#634,0.8);
#636=LINE('',#633,#635);
#637=EDGE_CURVE('',#632,#174,#636,.T.);
#638=ORIENTED_EDGE('',*,*,#637,.F.);
#639=CARTESIAN_POINT('',(-2.131251774,4.320052143,0.));
#640=VERTEX_POINT('',#639);
#641=CARTESIAN_POINT('',(-2.131251774,4.320052143,0.));
#642=DIRECTION('',(0.,-1.,0.));
#643=VECTOR('',#642,8.640104286);
#644=LINE('',#641,#643);
#645=EDGE_CURVE('',#640,#632,#644,.T.);
#646=ORIENTED_EDGE('',*,*,#645,.F.);
#647=CARTESIAN_POINT('',(-2.131251774,4.320052143,0.8));
#648=VERTEX_POINT('',#647);
#649=CARTESIAN_POINT('',(-2.131251774,4.320052143,0.));
#650=DIRECTION('',(0.,0.,1.));
#651=VECTOR('',#650,0.8);
#652=LINE('',#649,#651);
#653=EDGE_CURVE('',#640,#648,#652,.T.);
#654=ORIENTED_EDGE('',*,*,#653,.T.);
#655=CARTESIAN_POINT('',(-2.131251774,4.320052143,0.8));
#656=DIRECTION('',(0.,-1.,0.));
#657=VECTOR('',#656,2.159005483);
#658=LINE('',#655,#657);
#659=EDGE_CURVE('',#648,#498,#658,.T.);
#660=ORIENTED_EDGE('',*,*,#659,.T.);
#661=ORIENTED_EDGE('',*,*,#503,.F.);
#662=EDGE_LOOP('',(#623,#629,#630,#638,#646,#654,#660,#661));
#663=FACE_BOUND('',#662,.T.);
#664=ADVANCED_FACE('',(#663),#615,.T.);
#665=CARTESIAN_POINT('',(0.,0.,0.8));
#666=DIRECTION('',(0.,0.,-1.));
#667=DIRECTION('',(1.,0.,0.));
#668=AXIS2_PLACEMENT_3D('',#665,#666,#667);
#669=PLANE('',#668);
#670=CARTESIAN_POINT('',(-6.056554615,1.494747553,0.8));
#671=VERTEX_POINT('',#670);
#672=CARTESIAN_POINT('',(-6.056554615,2.259222561,0.8));
#673=VERTEX_POINT('',#672);
#674=CARTESIAN_POINT('',(-6.056554615,1.494747553,0.8));
#675=DIRECTION('',(0.,1.,0.));
#676=VECTOR('',#675,0.764475008);
#677=LINE('',#674,#676);
#678=EDGE_CURVE('',#671,#673,#677,.T.);
#679=ORIENTED_EDGE('',*,*,#678,.T.);
#680=CARTESIAN_POINT('',(-5.306554615,3.009222561,0.8));
#681=VERTEX_POINT('',#680);
#682=CARTESIAN_POINT('',(-5.306554615,2.259222561,0.8));
#683=DIRECTION('',(0.,0.,-1.));
#684=DIRECTION('',(-1.,0.,0.));
#685=AXIS2_PLACEMENT_3D('',#682,#683,#684);
#686=CIRCLE('',#685,0.75);
#687=EDGE_CURVE('',#673,#681,#686,.T.);
#688=ORIENTED_EDGE('',*,*,#687,.T.);
#689=CARTESIAN_POINT('',(-4.556554615,2.259222561,0.8));
#690=VERTEX_POINT('',#689);
#691=CARTESIAN_POINT('',(-5.306554615,2.259222561,0.8));
#692=DIRECTION('',(0.,0.,-1.));
#693=DIRECTION('',(-1.,0.,0.));
#694=AXIS2_PLACEMENT_3D('',#691,#692,#693);
#695=CIRCLE('',#694,0.75);
#696=EDGE_CURVE('',#681,#690,#695,.T.);
#697=ORIENTED_EDGE('',*,*,#696,.T.);
#698=CARTESIAN_POINT('',(-4.556554615,2.259222561,0.8));
#699=DIRECTION('',(0.,-1.,0.));
#700=VECTOR('',#699,0.098175901);
#701=LINE('',#698,#700);
#702=EDGE_CURVE('',#690,#450,#701,.T.);
#703=ORIENTED_EDGE('',*,*,#702,.T.);
#704=ORIENTED_EDGE('',*,*,#509,.T.);
#705=ORIENTED_EDGE('',*,*,#659,.F.);
#706=CARTESIAN_POINT('',(-2.140791579,4.815637042,0.8));
#707=VERTEX_POINT('',#706);
#708=CARTESIAN_POINT('',(-0.353495723,4.602157482,0.8));
#709=DIRECTION('',(-0.,0.,-1.));
#710=DIRECTION('',(-0.987642251,-0.156725188,0.));
#711=AXIS2_PLACEMENT_3D('',#708,#709,#710);
#712=CIRCLE('',#711,1.8);
#713=EDGE_CURVE('',#648,#707,#712,.T.);
#714=ORIENTED_EDGE('',*,*,#713,.T.);
#715=CARTESIAN_POINT('',(-2.135498186,4.904586859,0.8));
#716=VERTEX_POINT('',#715);
#717=CARTESIAN_POINT('',(-2.885498186,4.904586859,0.8));
#718=DIRECTION('',(0.,0.,-1.));
#719=DIRECTION('',(0.205807923,0.978592407,0.));
#720=AXIS2_PLACEMENT_3D('',#717,#718,#719);
#721=CIRCLE('',#720,0.75);
#722=EDGE_CURVE('',#716,#707,#721,.T.);
#723=ORIENTED_EDGE('',*,*,#722,.F.);
#724=CARTESIAN_POINT('',(-2.731142244,5.638531164,0.8));
#725=VERTEX_POINT('',#724);
#726=CARTESIAN_POINT('',(-2.885498186,4.904586859,0.8));
#727=DIRECTION('',(0.,0.,-1.));
#728=DIRECTION('',(0.205807923,0.978592407,0.));
#729=AXIS2_PLACEMENT_3D('',#726,#727,#728);
#730=CIRCLE('',#729,0.75);
#731=EDGE_CURVE('',#725,#716,#730,.T.);
#732=ORIENTED_EDGE('',*,*,#731,.F.);
#733=CARTESIAN_POINT('',(-3.052749473,5.73835869,0.8));
#734=VERTEX_POINT('',#733);
#735=CARTESIAN_POINT('',(-2.360712052,7.399883048,0.8));
#736=DIRECTION('',(-0.,0.,-1.));
#737=DIRECTION('',(-0.205807923,-0.978592407,0.));
#738=AXIS2_PLACEMENT_3D('',#735,#736,#737);
#739=CIRCLE('',#738,1.799883048);
#740=EDGE_CURVE('',#725,#734,#739,.T.);
#741=ORIENTED_EDGE('',*,*,#740,.T.);
#742=CARTESIAN_POINT('',(-3.348151165,5.795978904,0.8));
#743=VERTEX_POINT('',#742);
#744=CARTESIAN_POINT('',(-3.341117135,5.046011889,0.8));
#745=DIRECTION('',(0.,0.,-1.));
#746=DIRECTION('',(-0.009378707,0.999956019,0.));
#747=AXIS2_PLACEMENT_3D('',#744,#745,#746);
#748=CIRCLE('',#747,0.75);
#749=EDGE_CURVE('',#743,#734,#748,.T.);
#750=ORIENTED_EDGE('',*,*,#749,.F.);
#751=CARTESIAN_POINT('',(-8.707148695,5.745716224,0.8));
#752=VERTEX_POINT('',#751);
#753=CARTESIAN_POINT('',(-8.707148695,5.745716224,0.8));
#754=DIRECTION('',(0.999956019,0.009378707,0.));
#755=VECTOR('',#754,5.359233234);
#756=LINE('',#753,#755);
#757=EDGE_CURVE('',#752,#743,#756,.T.);
#758=ORIENTED_EDGE('',*,*,#757,.F.);
#759=CARTESIAN_POINT('',(-8.702482614,5.248219544,0.8));
#760=DIRECTION('',(0.,0.,-1.));
#761=DIRECTION('',(-1.,0.,0.));
#762=AXIS2_PLACEMENT_3D('',#759,#760,#761);
#763=CIRCLE('',#762,0.497517386);
#764=EDGE_CURVE('',#257,#752,#763,.T.);
#765=ORIENTED_EDGE('',*,*,#764,.F.);
#766=ORIENTED_EDGE('',*,*,#262,.T.);
#767=CARTESIAN_POINT('',(-6.056554615,1.494747553,0.8));
#768=DIRECTION('',(-1.,0.,0.));
#769=VECTOR('',#768,3.14344614);
#770=LINE('',#767,#769);
#771=EDGE_CURVE('',#671,#249,#770,.T.);
#772=ORIENTED_EDGE('',*,*,#771,.F.);
#773=EDGE_LOOP('',(#679,#688,#697,#703,#704,#705,#714,#723,#732,#741,#750,#758,#765,#766,#772));
#774=FACE_BOUND('',#773,.T.);
#775=CARTESIAN_POINT('',(-8.8,3.,0.8));
#776=VERTEX_POINT('',#775);
#777=CARTESIAN_POINT('',(-8.2,3.,0.8));
#778=DIRECTION('',(0.,0.,-1.));
#779=DIRECTION('',(-1.,0.,0.));
#780=AXIS2_PLACEMENT_3D('',#777,#778,#779);
#781=CIRCLE('',#780,0.6);
#782=EDGE_CURVE('',#776,#776,#781,.T.);
#783=ORIENTED_EDGE('',*,*,#782,.T.);
#784=EDGE_LOOP('',(#783));
#785=FACE_BOUND('',#784,.T.);
#786=ADVANCED_FACE('',(#774,#785),#669,.F.);
#787=CARTESIAN_POINT('',(0.,0.,0.));
#788=DIRECTION('',(0.,0.,-1.));
#789=DIRECTION('',(1.,0.,0.));
#790=AXIS2_PLACEMENT_3D('',#787,#788,#789);
#791=PLANE('',#790);
#792=CARTESIAN_POINT('',(-2.140791269,4.815639636,0.));
#793=VERTEX_POINT('',#792);
#794=CARTESIAN_POINT('',(-0.353495723,4.602157482,0.));
#795=DIRECTION('',(0.,0.,-1.));
#796=DIRECTION('',(-1.,0.,0.));
#797=AXIS2_PLACEMENT_3D('',#794,#795,#796);
#798=CIRCLE('',#797,1.8);
#799=EDGE_CURVE('',#640,#793,#798,.T.);
#800=ORIENTED_EDGE('',*,*,#799,.F.);
#801=ORIENTED_EDGE('',*,*,#645,.T.);
#802=CARTESIAN_POINT('',(-2.140791122,-4.815640867,0.));
#803=VERTEX_POINT('',#802);
#804=CARTESIAN_POINT('',(-0.353495723,-4.602157482,0.));
#805=DIRECTION('',(0.,0.,-1.));
#806=DIRECTION('',(-1.,0.,0.));
#807=AXIS2_PLACEMENT_3D('',#804,#805,#806);
#808=CIRCLE('',#807,1.8);
#809=EDGE_CURVE('',#803,#632,#808,.T.);
#810=ORIENTED_EDGE('',*,*,#809,.F.);
#811=CARTESIAN_POINT('',(-2.135498186,-4.904586859,0.));
#812=VERTEX_POINT('',#811);
#813=CARTESIAN_POINT('',(-2.885498186,-4.904586859,0.));
#814=DIRECTION('',(0.,0.,-1.));
#815=DIRECTION('',(-1.,0.,0.));
#816=AXIS2_PLACEMENT_3D('',#813,#814,#815);
#817=CIRCLE('',#816,0.75);
#818=EDGE_CURVE('',#803,#812,#817,.T.);
#819=ORIENTED_EDGE('',*,*,#818,.T.);
#820=CARTESIAN_POINT('',(-2.731139003,-5.638530482,0.));
#821=VERTEX_POINT('',#820);
#822=CARTESIAN_POINT('',(-2.885498186,-4.904586859,0.));
#823=DIRECTION('',(0.,0.,-1.));
#824=DIRECTION('',(-1.,0.,0.));
#825=AXIS2_PLACEMENT_3D('',#822,#823,#824);
#826=CIRCLE('',#825,0.75);
#827=EDGE_CURVE('',#812,#821,#826,.T.);
#828=ORIENTED_EDGE('',*,*,#827,.T.);
#829=CARTESIAN_POINT('',(-3.052752833,-5.738360089,0.));
#830=VERTEX_POINT('',#829);
#831=CARTESIAN_POINT('',(-2.360712052,-7.399883048,0.));
#832=DIRECTION('',(0.,0.,-1.));
#833=DIRECTION('',(-1.,0.,0.));
#834=AXIS2_PLACEMENT_3D('',#831,#832,#833);
#835=CIRCLE('',#834,1.799883048);
#836=EDGE_CURVE('',#830,#821,#835,.T.);
#837=ORIENTED_EDGE('',*,*,#836,.F.);
#838=CARTESIAN_POINT('',(-3.348146485,-5.795978948,0.));
#839=VERTEX_POINT('',#838);
#840=CARTESIAN_POINT('',(-3.341117135,-5.046011889,0.));
#841=DIRECTION('',(0.,0.,-1.));
#842=DIRECTION('',(-1.,0.,0.));
#843=AXIS2_PLACEMENT_3D('',#840,#841,#842);
#844=CIRCLE('',#843,0.75);
#845=EDGE_CURVE('',#830,#839,#844,.T.);
#846=ORIENTED_EDGE('',*,*,#845,.T.);
#847=CARTESIAN_POINT('',(-4.51929097,-5.784994643,0.));
#848=VERTEX_POINT('',#847);
#849=CARTESIAN_POINT('',(-3.348146485,-5.795978948,0.));
#850=DIRECTION('',(-0.999956019,0.009378707,0.));
#851=VECTOR('',#850,1.171195995);
#852=LINE('',#849,#851);
#853=EDGE_CURVE('',#839,#848,#852,.T.);
#854=ORIENTED_EDGE('',*,*,#853,.T.);
#855=CARTESIAN_POINT('',(-4.51929097,-5.67435817,0.));
#856=VERTEX_POINT('',#855);
#857=CARTESIAN_POINT('',(-4.51929097,-5.784994643,0.));
#858=DIRECTION('',(0.,1.,0.));
#859=VECTOR('',#858,0.110636473);
#860=LINE('',#857,#859);
#861=EDGE_CURVE('',#848,#856,#860,.T.);
#862=ORIENTED_EDGE('',*,*,#861,.T.);
#863=CARTESIAN_POINT('',(-5.26929097,-4.92435817,0.));
#864=VERTEX_POINT('',#863);
#865=CARTESIAN_POINT('',(-5.26929097,-5.67435817,0.));
#866=DIRECTION('',(-0.,-0.,1.));
#867=DIRECTION('',(-1.,0.,0.));
#868=AXIS2_PLACEMENT_3D('',#865,#866,#867);
#869=CIRCLE('',#868,0.75);
#870=EDGE_CURVE('',#856,#864,#869,.T.);
#871=ORIENTED_EDGE('',*,*,#870,.T.);
#872=CARTESIAN_POINT('',(-6.058084412,-4.92435817,0.));
#873=VERTEX_POINT('',#872);
#874=CARTESIAN_POINT('',(-5.26929097,-4.92435817,0.));
#875=DIRECTION('',(-1.,0.,0.));
#876=VECTOR('',#875,0.788793442);
#877=LINE('',#874,#876);
#878=EDGE_CURVE('',#864,#873,#877,.T.);
#879=ORIENTED_EDGE('',*,*,#878,.T.);
#880=CARTESIAN_POINT('',(-6.808084412,-5.67435817,0.));
#881=VERTEX_POINT('',#880);
#882=CARTESIAN_POINT('',(-6.058084412,-5.67435817,0.));
#883=DIRECTION('',(-0.,-0.,1.));
#884=DIRECTION('',(-1.,0.,0.));
#885=AXIS2_PLACEMENT_3D('',#882,#883,#884);
#886=CIRCLE('',#885,0.75);
#887=EDGE_CURVE('',#873,#881,#886,.T.);
#888=ORIENTED_EDGE('',*,*,#887,.T.);
#889=CARTESIAN_POINT('',(-6.808084412,-5.753433544,0.));
#890=VERTEX_POINT('',#889);
#891=CARTESIAN_POINT('',(-6.808084412,-5.67435817,0.));
#892=DIRECTION('',(0.,-1.,0.));
#893=VECTOR('',#892,0.079075374);
#894=LINE('',#891,#893);
#895=EDGE_CURVE('',#881,#890,#894,.T.);
#896=ORIENTED_EDGE('',*,*,#895,.T.);
#897=CARTESIAN_POINT('',(-6.818178199,-5.763433104,0.));
#898=VERTEX_POINT('',#897);
#899=CARTESIAN_POINT('',(-6.818084412,-5.753433544,0.));
#900=DIRECTION('',(0.,0.,-1.));
#901=DIRECTION('',(-1.,0.,0.));
#902=AXIS2_PLACEMENT_3D('',#899,#900,#901);
#903=CIRCLE('',#902,0.01);
#904=EDGE_CURVE('',#890,#898,#903,.T.);
#905=ORIENTED_EDGE('',*,*,#904,.T.);
#906=CARTESIAN_POINT('',(-8.707148695,-5.745716224,0.));
#907=VERTEX_POINT('',#906);
#908=CARTESIAN_POINT('',(-6.818178199,-5.763433104,0.));
#909=DIRECTION('',(-0.999956019,0.009378707,0.));
#910=VECTOR('',#909,1.889053579);
#911=LINE('',#908,#910);
#912=EDGE_CURVE('',#898,#907,#911,.T.);
#913=ORIENTED_EDGE('',*,*,#912,.T.);
#914=CARTESIAN_POINT('',(-8.702482614,-5.248219544,0.));
#915=DIRECTION('',(0.,0.,-1.));
#916=DIRECTION('',(-1.,0.,0.));
#917=AXIS2_PLACEMENT_3D('',#914,#915,#916);
#918=CIRCLE('',#917,0.497518561);
#919=EDGE_CURVE('',#907,#337,#918,.T.);
#920=ORIENTED_EDGE('',*,*,#919,.T.);
#921=ORIENTED_EDGE('',*,*,#342,.F.);
#922=CARTESIAN_POINT('',(-8.342857143,-3.989743319,0.));
#923=VERTEX_POINT('',#922);
#924=CARTESIAN_POINT('',(-8.45,-4.732050808,0.));
#925=DIRECTION('',(0.,0.,-1.));
#926=DIRECTION('',(-1.,0.,0.));
#927=AXIS2_PLACEMENT_3D('',#924,#925,#926);
#928=CIRCLE('',#927,0.75);
#929=EDGE_CURVE('',#329,#923,#928,.T.);
#930=ORIENTED_EDGE('',*,*,#929,.T.);
#931=CARTESIAN_POINT('',(-8.533333333,-2.057190958,0.));
#932=VERTEX_POINT('',#931);
#933=CARTESIAN_POINT('',(-8.2,-3.,0.));
#934=DIRECTION('',(0.,0.,-1.));
#935=DIRECTION('',(-1.,0.,0.));
#936=AXIS2_PLACEMENT_3D('',#933,#934,#935);
#937=CIRCLE('',#936,1.);
#938=EDGE_CURVE('',#932,#923,#937,.T.);
#939=ORIENTED_EDGE('',*,*,#938,.F.);
#940=CARTESIAN_POINT('',(-8.7,-1.585786438,0.));
#941=DIRECTION('',(0.,0.,-1.));
#942=DIRECTION('',(-1.,0.,0.));
#943=AXIS2_PLACEMENT_3D('',#940,#941,#942);
#944=CIRCLE('',#943,0.5);
#945=EDGE_CURVE('',#932,#305,#944,.T.);
#946=ORIENTED_EDGE('',*,*,#945,.T.);
#947=ORIENTED_EDGE('',*,*,#310,.F.);
#948=CARTESIAN_POINT('',(-8.533333333,2.057190958,0.));
#949=VERTEX_POINT('',#948);
#950=CARTESIAN_POINT('',(-8.7,1.585786438,0.));
#951=DIRECTION('',(0.,0.,-1.));
#952=DIRECTION('',(-1.,0.,0.));
#953=AXIS2_PLACEMENT_3D('',#950,#951,#952);
#954=CIRCLE('',#953,0.5);
#955=EDGE_CURVE('',#297,#949,#954,.T.);
#956=ORIENTED_EDGE('',*,*,#955,.T.);
#957=CARTESIAN_POINT('',(-8.342857143,3.989743319,0.));
#958=VERTEX_POINT('',#957);
#959=CARTESIAN_POINT('',(-8.2,3.,0.));
#960=DIRECTION('',(0.,0.,-1.));
#961=DIRECTION('',(-1.,0.,0.));
#962=AXIS2_PLACEMENT_3D('',#959,#960,#961);
#963=CIRCLE('',#962,1.);
#964=EDGE_CURVE('',#958,#949,#963,.T.);
#965=ORIENTED_EDGE('',*,*,#964,.F.);
#966=CARTESIAN_POINT('',(-8.45,4.732050808,0.));
#967=DIRECTION('',(0.,0.,-1.));
#968=DIRECTION('',(-1.,0.,0.));
#969=AXIS2_PLACEMENT_3D('',#966,#967,#968);
#970=CIRCLE('',#969,0.75);
#971=EDGE_CURVE('',#958,#273,#970,.T.);
#972=ORIENTED_EDGE('',*,*,#971,.T.);
#973=ORIENTED_EDGE('',*,*,#278,.F.);
#974=CARTESIAN_POINT('',(-8.707148695,5.745716224,0.));
#975=VERTEX_POINT('',#974);
#976=CARTESIAN_POINT('',(-8.702482614,5.248219544,0.));
#977=DIRECTION('',(0.,0.,-1.));
#978=DIRECTION('',(-1.,0.,0.));
#979=AXIS2_PLACEMENT_3D('',#976,#977,#978);
#980=CIRCLE('',#979,0.497517386);
#981=EDGE_CURVE('',#265,#975,#980,.T.);
#982=ORIENTED_EDGE('',*,*,#981,.T.);
#983=CARTESIAN_POINT('',(-3.348151165,5.795978904,0.));
#984=VERTEX_POINT('',#983);
#985=CARTESIAN_POINT('',(-8.707148695,5.745716224,0.));
#986=DIRECTION('',(0.999956019,0.009378707,0.));
#987=VECTOR('',#986,5.359233234);
#988=LINE('',#985,#987);
#989=EDGE_CURVE('',#975,#984,#988,.T.);
#990=ORIENTED_EDGE('',*,*,#989,.T.);
#991=CARTESIAN_POINT('',(-3.052749473,5.73835869,0.));
#992=VERTEX_POINT('',#991);
#993=CARTESIAN_POINT('',(-3.341117135,5.046011889,0.));
#994=DIRECTION('',(0.,0.,-1.));
#995=DIRECTION('',(-1.,0.,0.));
#996=AXIS2_PLACEMENT_3D('',#993,#994,#995);
#997=CIRCLE('',#996,0.75);
#998=EDGE_CURVE('',#984,#992,#997,.T.);
#999=ORIENTED_EDGE('',*,*,#998,.T.);
#1000=CARTESIAN_POINT('',(-2.731142244,5.638531164,0.));
#1001=VERTEX_POINT('',#1000);
#1002=CARTESIAN_POINT('',(-2.360712052,7.399883048,0.));
#1003=DIRECTION('',(0.,0.,-1.));
#1004=DIRECTION('',(-1.,0.,0.));
#1005=AXIS2_PLACEMENT_3D('',#1002,#1003,#1004);
#1006=CIRCLE('',#1005,1.799883048);
#1007=EDGE_CURVE('',#1001,#992,#1006,.T.);
#1008=ORIENTED_EDGE('',*,*,#1007,.F.);
#1009=CARTESIAN_POINT('',(-2.135498186,4.904586859,0.));
#1010=VERTEX_POINT('',#1009);
#1011=CARTESIAN_POINT('',(-2.885498186,4.904586859,0.));
#1012=DIRECTION('',(0.,0.,-1.));
#1013=DIRECTION('',(-1.,0.,0.));
#1014=AXIS2_PLACEMENT_3D('',#1011,#1012,#1013);
#1015=CIRCLE('',#1014,0.75);
#1016=EDGE_CURVE('',#1001,#1010,#1015,.T.);
#1017=ORIENTED_EDGE('',*,*,#1016,.T.);
#1018=CARTESIAN_POINT('',(-2.885498186,4.904586859,0.));
#1019=DIRECTION('',(0.,0.,-1.));
#1020=DIRECTION('',(-1.,0.,0.));
#1021=AXIS2_PLACEMENT_3D('',#1018,#1019,#1020);
#1022=CIRCLE('',#1021,0.75);
#1023=EDGE_CURVE('',#1010,#793,#1022,.T.);
#1024=ORIENTED_EDGE('',*,*,#1023,.T.);
#1025=EDGE_LOOP('',(#800,#801,#810,#819,#828,#837,#846,#854,#862,#871,#879,#888,#896,#905,#913,#920,#921,#930,#939,#946,#947,#956,#965,#972,#973,#982,
#990,#999,#1008,#1017,#1024));
#1026=FACE_BOUND('',#1025,.T.);
#1027=CARTESIAN_POINT('',(-4.981251774,-1.66104666,0.));
#1028=VERTEX_POINT('',#1027);
#1029=CARTESIAN_POINT('',(-4.981251774,-1.66104666,0.));
#1030=DIRECTION('',(-1.,0.,0.));
#1031=VECTOR('',#1030,0.127496451);
#1032=LINE('',#1029,#1031);
#1033=EDGE_CURVE('',#1028,#553,#1032,.T.);
#1034=ORIENTED_EDGE('',*,*,#1033,.F.);
#1035=CARTESIAN_POINT('',(-4.981251774,-0.91104666,0.));
#1036=DIRECTION('',(-0.,-0.,1.));
#1037=DIRECTION('',(-1.,0.,0.));
#1038=AXIS2_PLACEMENT_3D('',#1035,#1036,#1037);
#1039=CIRCLE('',#1038,0.75);
#1040=EDGE_CURVE('',#1028,#595,#1039,.T.);
#1041=ORIENTED_EDGE('',*,*,#1040,.T.);
#1042=ORIENTED_EDGE('',*,*,#600,.T.);
#1043=CARTESIAN_POINT('',(-4.981251774,1.41104666,0.));
#1044=DIRECTION('',(-0.,-0.,1.));
#1045=DIRECTION('',(-1.,0.,0.));
#1046=AXIS2_PLACEMENT_3D('',#1043,#1044,#1045);
#1047=CIRCLE('',#1046,0.75);
#1048=EDGE_CURVE('',#587,#474,#1047,.T.);
#1049=ORIENTED_EDGE('',*,*,#1048,.T.);
#1050=ORIENTED_EDGE('',*,*,#479,.F.);
#1051=ORIENTED_EDGE('',*,*,#532,.T.);
#1052=ORIENTED_EDGE('',*,*,#431,.F.);
#1053=ORIENTED_EDGE('',*,*,#565,.T.);
#1054=EDGE_LOOP('',(#1034,#1041,#1042,#1049,#1050,#1051,#1052,#1053));
#1055=FACE_BOUND('',#1054,.T.);
#1056=ORIENTED_EDGE('',*,*,#380,.F.);
#1057=EDGE_LOOP('',(#1056));
#1058=FACE_BOUND('',#1057,.T.);
#1059=ADVANCED_FACE('',(#1026,#1055,#1058),#791,.T.);
#1060=CARTESIAN_POINT('',(-4.,-1.66104666,3.));
#1061=DIRECTION('',(-0.,-1.,0.));
#1062=DIRECTION('',(1.,-0.,0.));
#1063=AXIS2_PLACEMENT_3D('',#1060,#1061,#1062);
#1064=PLANE('',#1063);
#1065=CARTESIAN_POINT('',(-4.556554615,-1.66104666,0.4));
#1066=VERTEX_POINT('',#1065);
#1067=CARTESIAN_POINT('',(-4.556554615,-1.66104666,0.4));
#1068=DIRECTION('',(-1.,0.,0.));
#1069=VECTOR('',#1068,0.55219361);
#1070=LINE('',#1067,#1069);
#1071=EDGE_CURVE('',#1066,#544,#1070,.T.);
#1072=ORIENTED_EDGE('',*,*,#1071,.F.);
#1073=CARTESIAN_POINT('',(-4.556554615,-1.66104666,0.4));
#1074=DIRECTION('',(0.,0.,1.));
#1075=VECTOR('',#1074,0.4);
#1076=LINE('',#1073,#1075);
#1077=EDGE_CURVE('',#1066,#191,#1076,.T.);
#1078=ORIENTED_EDGE('',*,*,#1077,.T.);
#1079=ORIENTED_EDGE('',*,*,#196,.F.);
#1080=ORIENTED_EDGE('',*,*,#628,.F.);
#1081=CARTESIAN_POINT('',(-4.981251774,-1.66104666,0.3));
#1082=VERTEX_POINT('',#1081);
#1083=CARTESIAN_POINT('',(-2.131251774,-1.66104666,0.3));
#1084=DIRECTION('',(-1.,0.,0.));
#1085=VECTOR('',#1084,2.85);
#1086=LINE('',#1083,#1085);
#1087=EDGE_CURVE('',#617,#1082,#1086,.T.);
#1088=ORIENTED_EDGE('',*,*,#1087,.T.);
#1089=CARTESIAN_POINT('',(-4.981251774,-1.66104666,0.3));
#1090=DIRECTION('',(0.,0.,-1.));
#1091=VECTOR('',#1090,0.3);
#1092=LINE('',#1089,#1091);
#1093=EDGE_CURVE('',#1082,#1028,#1092,.T.);
#1094=ORIENTED_EDGE('',*,*,#1093,.T.);
#1095=ORIENTED_EDGE('',*,*,#1033,.T.);
#1096=ORIENTED_EDGE('',*,*,#558,.T.);
#1097=EDGE_LOOP('',(#1072,#1078,#1079,#1080,#1088,#1094,#1095,#1096));
#1098=FACE_BOUND('',#1097,.T.);
#1099=ADVANCED_FACE('',(#1098),#1064,.F.);
#1100=CARTESIAN_POINT('',(-4.059792915,-5.78930433,0.1));
#1101=DIRECTION('',(0.009378707,0.999956019,0.));
#1102=DIRECTION('',(-0.999956019,0.009378707,0.));
#1103=AXIS2_PLACEMENT_3D('',#1100,#1101,#1102);
#1104=PLANE('',#1103);
#1105=ORIENTED_EDGE('',*,*,#912,.F.);
#1106=CARTESIAN_POINT('',(-6.818178199,-5.763433104,0.));
#1107=DIRECTION('',(-0.,-0.,1.));
#1108=VECTOR('',#1107,0.8);
#1109=LINE('',#1106,#1108);
#1110=EDGE_CURVE('',#898,#71,#1109,.T.);
#1111=ORIENTED_EDGE('',*,*,#1110,.T.);
#1112=ORIENTED_EDGE('',*,*,#76,.T.);
#1113=CARTESIAN_POINT('',(-8.707148695,-5.745716224,0.));
#1114=DIRECTION('',(0.,0.,1.));
#1115=VECTOR('',#1114,0.8);
#1116=LINE('',#1113,#1115);
#1117=EDGE_CURVE('',#907,#62,#1116,.T.);
#1118=ORIENTED_EDGE('',*,*,#1117,.F.);
#1119=EDGE_LOOP('',(#1105,#1111,#1112,#1118));
#1120=FACE_BOUND('',#1119,.T.);
#1121=ADVANCED_FACE('',(#1120),#1104,.F.);
#1122=CARTESIAN_POINT('',(-8.702482614,5.248219544,0.1));
#1123=DIRECTION('',(0.,0.,1.));
#1124=DIRECTION('',(1.,0.,-0.));
#1125=AXIS2_PLACEMENT_3D('',#1122,#1123,#1124);
#1126=CYLINDRICAL_SURFACE('',#1125,0.497517386);
#1127=ORIENTED_EDGE('',*,*,#764,.T.);
#1128=CARTESIAN_POINT('',(-8.707148695,5.745716224,0.));
#1129=DIRECTION('',(0.,0.,1.));
#1130=VECTOR('',#1129,0.8);
#1131=LINE('',#1128,#1130);
#1132=EDGE_CURVE('',#975,#752,#1131,.T.);
#1133=ORIENTED_EDGE('',*,*,#1132,.F.);
#1134=ORIENTED_EDGE('',*,*,#981,.F.);
#1135=ORIENTED_EDGE('',*,*,#270,.T.);
#1136=EDGE_LOOP('',(#1127,#1133,#1134,#1135));
#1137=FACE_BOUND('',#1136,.T.);
#1138=ADVANCED_FACE('',(#1137),#1126,.T.);
#1139=CARTESIAN_POINT('',(-7.880110191,5.753473117,0.1));
#1140=DIRECTION('',(0.009378707,-0.999956019,0.));
#1141=DIRECTION('',(0.999956019,0.009378707,0.));
#1142=AXIS2_PLACEMENT_3D('',#1139,#1140,#1141);
#1143=PLANE('',#1142);
#1144=ORIENTED_EDGE('',*,*,#757,.T.);
#1145=CARTESIAN_POINT('',(-3.348151165,5.795978904,0.));
#1146=DIRECTION('',(0.,0.,1.));
#1147=VECTOR('',#1146,0.8);
#1148=LINE('',#1145,#1147);
#1149=EDGE_CURVE('',#984,#743,#1148,.T.);
#1150=ORIENTED_EDGE('',*,*,#1149,.F.);
#1151=ORIENTED_EDGE('',*,*,#989,.F.);
#1152=ORIENTED_EDGE('',*,*,#1132,.T.);
#1153=EDGE_LOOP('',(#1144,#1150,#1151,#1152));
#1154=FACE_BOUND('',#1153,.T.);
#1155=ADVANCED_FACE('',(#1154),#1143,.F.);
#1156=CARTESIAN_POINT('',(-3.341117135,5.046011889,0.1));
#1157=DIRECTION('',(0.,0.,1.));
#1158=DIRECTION('',(1.,0.,-0.));
#1159=AXIS2_PLACEMENT_3D('',#1156,#1157,#1158);
#1160=CYLINDRICAL_SURFACE('',#1159,0.75);
#1161=ORIENTED_EDGE('',*,*,#749,.T.);
#1162=CARTESIAN_POINT('',(-3.052749473,5.73835869,0.));
#1163=DIRECTION('',(0.,0.,1.));
#1164=VECTOR('',#1163,0.8);
#1165=LINE('',#1162,#1164);
#1166=EDGE_CURVE('',#992,#734,#1165,.T.);
#1167=ORIENTED_EDGE('',*,*,#1166,.F.);
#1168=ORIENTED_EDGE('',*,*,#998,.F.);
#1169=ORIENTED_EDGE('',*,*,#1149,.T.);
#1170=EDGE_LOOP('',(#1161,#1167,#1168,#1169));
#1171=FACE_BOUND('',#1170,.T.);
#1172=ADVANCED_FACE('',(#1171),#1160,.T.);
#1173=CARTESIAN_POINT('',(-2.360712052,7.399883048,0.1));
#1174=DIRECTION('',(0.,0.,1.));
#1175=DIRECTION('',(1.,0.,-0.));
#1176=AXIS2_PLACEMENT_3D('',#1173,#1174,#1175);
#1177=CYLINDRICAL_SURFACE('',#1176,1.799883048);
#1178=ORIENTED_EDGE('',*,*,#740,.F.);
#1179=CARTESIAN_POINT('',(-2.731142244,5.638531164,0.));
#1180=DIRECTION('',(0.,0.,1.));
#1181=VECTOR('',#1180,0.8);
#1182=LINE('',#1179,#1181);
#1183=EDGE_CURVE('',#1001,#725,#1182,.T.);
#1184=ORIENTED_EDGE('',*,*,#1183,.F.);
#1185=ORIENTED_EDGE('',*,*,#1007,.T.);
#1186=ORIENTED_EDGE('',*,*,#1166,.T.);
#1187=EDGE_LOOP('',(#1178,#1184,#1185,#1186));
#1188=FACE_BOUND('',#1187,.T.);
#1189=ADVANCED_FACE('',(#1188),#1177,.F.);
#1190=CARTESIAN_POINT('',(-2.885498186,4.904586859,0.1));
#1191=DIRECTION('',(0.,0.,1.));
#1192=DIRECTION('',(1.,0.,-0.));
#1193=AXIS2_PLACEMENT_3D('',#1190,#1191,#1192);
#1194=CYLINDRICAL_SURFACE('',#1193,0.75);
#1195=CARTESIAN_POINT('',(-2.135498186,4.904586859,0.8));
#1196=DIRECTION('',(-0.,-0.,-1.));
#1197=VECTOR('',#1196,0.8);
#1198=LINE('',#1195,#1197);
#1199=EDGE_CURVE('',#716,#1010,#1198,.T.);
#1200=ORIENTED_EDGE('',*,*,#1199,.T.);
#1201=ORIENTED_EDGE('',*,*,#1016,.F.);
#1202=ORIENTED_EDGE('',*,*,#1183,.T.);
#1203=ORIENTED_EDGE('',*,*,#731,.T.);
#1204=EDGE_LOOP('',(#1200,#1201,#1202,#1203));
#1205=FACE_BOUND('',#1204,.T.);
#1206=ADVANCED_FACE('',(#1205),#1194,.T.);
#1207=CARTESIAN_POINT('',(-0.353495723,4.602157482,0.1));
#1208=DIRECTION('',(0.,0.,1.));
#1209=DIRECTION('',(1.,0.,-0.));
#1210=AXIS2_PLACEMENT_3D('',#1207,#1208,#1209);
#1211=CYLINDRICAL_SURFACE('',#1210,1.8);
#1212=ORIENTED_EDGE('',*,*,#713,.F.);
#1213=ORIENTED_EDGE('',*,*,#653,.F.);
#1214=ORIENTED_EDGE('',*,*,#799,.T.);
#1215=CARTESIAN_POINT('',(-2.140791579,4.815637042,0.));
#1216=DIRECTION('',(0.,0.,1.));
#1217=VECTOR('',#1216,0.8);
#1218=LINE('',#1215,#1217);
#1219=EDGE_CURVE('',#793,#707,#1218,.T.);
#1220=ORIENTED_EDGE('',*,*,#1219,.T.);
#1221=EDGE_LOOP('',(#1212,#1213,#1214,#1220));
#1222=FACE_BOUND('',#1221,.T.);
#1223=ADVANCED_FACE('',(#1222),#1211,.F.);
#1224=CARTESIAN_POINT('',(-0.353495723,-4.602157482,0.1));
#1225=DIRECTION('',(0.,0.,1.));
#1226=DIRECTION('',(1.,0.,-0.));
#1227=AXIS2_PLACEMENT_3D('',#1224,#1225,#1226);
#1228=CYLINDRICAL_SURFACE('',#1227,1.8);
#1229=ORIENTED_EDGE('',*,*,#180,.F.);
#1230=CARTESIAN_POINT('',(-2.140791122,-4.815640867,0.));
#1231=DIRECTION('',(0.,0.,1.));
#1232=VECTOR('',#1231,0.8);
#1233=LINE('',#1230,#1232);
#1234=EDGE_CURVE('',#803,#165,#1233,.T.);
#1235=ORIENTED_EDGE('',*,*,#1234,.F.);
#1236=ORIENTED_EDGE('',*,*,#809,.T.);
#1237=ORIENTED_EDGE('',*,*,#637,.T.);
#1238=EDGE_LOOP('',(#1229,#1235,#1236,#1237));
#1239=FACE_BOUND('',#1238,.T.);
#1240=ADVANCED_FACE('',(#1239),#1228,.F.);
#1241=CARTESIAN_POINT('',(-2.885498186,-4.904586859,0.1));
#1242=DIRECTION('',(0.,0.,1.));
#1243=DIRECTION('',(1.,0.,-0.));
#1244=AXIS2_PLACEMENT_3D('',#1241,#1242,#1243);
#1245=CYLINDRICAL_SURFACE('',#1244,0.75);
#1246=CARTESIAN_POINT('',(-2.135498186,-4.904586859,0.8));
#1247=DIRECTION('',(-0.,-0.,-1.));
#1248=VECTOR('',#1247,0.8);
#1249=LINE('',#1246,#1248);
#1250=EDGE_CURVE('',#156,#812,#1249,.T.);
#1251=ORIENTED_EDGE('',*,*,#1250,.T.);
#1252=ORIENTED_EDGE('',*,*,#818,.F.);
#1253=ORIENTED_EDGE('',*,*,#1234,.T.);
#1254=ORIENTED_EDGE('',*,*,#171,.T.);
#1255=EDGE_LOOP('',(#1251,#1252,#1253,#1254));
#1256=FACE_BOUND('',#1255,.T.);
#1257=ADVANCED_FACE('',(#1256),#1245,.T.);
#1258=CARTESIAN_POINT('',(-2.360712052,-7.399883048,0.1));
#1259=DIRECTION('',(0.,0.,1.));
#1260=DIRECTION('',(1.,0.,-0.));
#1261=AXIS2_PLACEMENT_3D('',#1258,#1259,#1260);
#1262=CYLINDRICAL_SURFACE('',#1261,1.799883048);
#1263=ORIENTED_EDGE('',*,*,#153,.F.);
#1264=CARTESIAN_POINT('',(-3.052749473,-5.73835869,0.));
#1265=DIRECTION('',(0.,0.,1.));
#1266=VECTOR('',#1265,0.8);
#1267=LINE('',#1264,#1266);
#1268=EDGE_CURVE('',#830,#138,#1267,.T.);
#1269=ORIENTED_EDGE('',*,*,#1268,.F.);
#1270=ORIENTED_EDGE('',*,*,#836,.T.);
#1271=CARTESIAN_POINT('',(-2.731139003,-5.638530482,0.));
#1272=DIRECTION('',(0.,0.,1.));
#1273=VECTOR('',#1272,0.8);
#1274=LINE('',#1271,#1273);
#1275=EDGE_CURVE('',#821,#147,#1274,.T.);
#1276=ORIENTED_EDGE('',*,*,#1275,.T.);
#1277=EDGE_LOOP('',(#1263,#1269,#1270,#1276));
#1278=FACE_BOUND('',#1277,.T.);
#1279=ADVANCED_FACE('',(#1278),#1262,.F.);
#1280=CARTESIAN_POINT('',(-3.341117135,-5.046011889,0.1));
#1281=DIRECTION('',(0.,0.,1.));
#1282=DIRECTION('',(1.,0.,-0.));
#1283=AXIS2_PLACEMENT_3D('',#1280,#1281,#1282);
#1284=CYLINDRICAL_SURFACE('',#1283,0.75);
#1285=ORIENTED_EDGE('',*,*,#144,.T.);
#1286=CARTESIAN_POINT('',(-3.348151165,-5.795978904,0.));
#1287=DIRECTION('',(0.,0.,1.));
#1288=VECTOR('',#1287,0.8);
#1289=LINE('',#1286,#1288);
#1290=EDGE_CURVE('',#839,#130,#1289,.T.);
#1291=ORIENTED_EDGE('',*,*,#1290,.F.);
#1292=ORIENTED_EDGE('',*,*,#845,.F.);
#1293=ORIENTED_EDGE('',*,*,#1268,.T.);
#1294=EDGE_LOOP('',(#1285,#1291,#1292,#1293));
#1295=FACE_BOUND('',#1294,.T.);
#1296=ADVANCED_FACE('',(#1295),#1284,.T.);
#1297=CARTESIAN_POINT('',(-4.059792915,-5.78930433,0.1));
#1298=DIRECTION('',(0.009378707,0.999956019,0.));
#1299=DIRECTION('',(-0.999956019,0.009378707,0.));
#1300=AXIS2_PLACEMENT_3D('',#1297,#1298,#1299);
#1301=PLANE('',#1300);
#1302=ORIENTED_EDGE('',*,*,#135,.T.);
#1303=CARTESIAN_POINT('',(-4.51929097,-5.784994643,0.));
#1304=DIRECTION('',(0.,0.,1.));
#1305=VECTOR('',#1304,0.8);
#1306=LINE('',#1303,#1305);
#1307=EDGE_CURVE('',#848,#122,#1306,.T.);
#1308=ORIENTED_EDGE('',*,*,#1307,.F.);
#1309=ORIENTED_EDGE('',*,*,#853,.F.);
#1310=ORIENTED_EDGE('',*,*,#1290,.T.);
#1311=EDGE_LOOP('',(#1302,#1308,#1309,#1310));
#1312=FACE_BOUND('',#1311,.T.);
#1313=ADVANCED_FACE('',(#1312),#1301,.F.);
#1314=CARTESIAN_POINT('',(-8.702482614,-5.248219544,0.1));
#1315=DIRECTION('',(0.,0.,1.));
#1316=DIRECTION('',(1.,0.,-0.));
#1317=AXIS2_PLACEMENT_3D('',#1314,#1315,#1316);
#1318=CYLINDRICAL_SURFACE('',#1317,0.497518561);
#1319=ORIENTED_EDGE('',*,*,#68,.T.);
#1320=ORIENTED_EDGE('',*,*,#348,.F.);
#1321=ORIENTED_EDGE('',*,*,#919,.F.);
#1322=ORIENTED_EDGE('',*,*,#1117,.T.);
#1323=EDGE_LOOP('',(#1319,#1320,#1321,#1322));
#1324=FACE_BOUND('',#1323,.T.);
#1325=ADVANCED_FACE('',(#1324),#1318,.T.);
#1326=CARTESIAN_POINT('',(-6.808084412,-5.341504401,1.3));
#1327=DIRECTION('',(1.,0.,0.));
#1328=DIRECTION('',(0.,0.,-1.));
#1329=AXIS2_PLACEMENT_3D('',#1326,#1327,#1328);
#1330=PLANE('',#1329);
#1331=ORIENTED_EDGE('',*,*,#895,.F.);
#1332=CARTESIAN_POINT('',(-6.808084412,-5.67435817,0.));
#1333=DIRECTION('',(-0.,-0.,1.));
#1334=VECTOR('',#1333,0.8);
#1335=LINE('',#1332,#1334);
#1336=EDGE_CURVE('',#881,#88,#1335,.T.);
#1337=ORIENTED_EDGE('',*,*,#1336,.T.);
#1338=ORIENTED_EDGE('',*,*,#93,.T.);
#1339=CARTESIAN_POINT('',(-6.808084412,-5.753433544,0.8));
#1340=DIRECTION('',(0.,0.,-1.));
#1341=VECTOR('',#1340,0.8);
#1342=LINE('',#1339,#1341);
#1343=EDGE_CURVE('',#79,#890,#1342,.T.);
#1344=ORIENTED_EDGE('',*,*,#1343,.T.);
#1345=EDGE_LOOP('',(#1331,#1337,#1338,#1344));
#1346=FACE_BOUND('',#1345,.T.);
#1347=ADVANCED_FACE('',(#1346),#1330,.T.);
#1348=CARTESIAN_POINT('',(-5.678687691,-4.92435817,1.3));
#1349=DIRECTION('',(0.,-1.,0.));
#1350=DIRECTION('',(0.,0.,-1.));
#1351=AXIS2_PLACEMENT_3D('',#1348,#1349,#1350);
#1352=PLANE('',#1351);
#1353=ORIENTED_EDGE('',*,*,#878,.F.);
#1354=CARTESIAN_POINT('',(-5.26929097,-4.92435817,0.));
#1355=DIRECTION('',(-0.,-0.,1.));
#1356=VECTOR('',#1355,0.8);
#1357=LINE('',#1354,#1356);
#1358=EDGE_CURVE('',#864,#105,#1357,.T.);
#1359=ORIENTED_EDGE('',*,*,#1358,.T.);
#1360=ORIENTED_EDGE('',*,*,#110,.T.);
#1361=CARTESIAN_POINT('',(-6.058084412,-4.92435817,0.8));
#1362=DIRECTION('',(0.,0.,-1.));
#1363=VECTOR('',#1362,0.8);
#1364=LINE('',#1361,#1363);
#1365=EDGE_CURVE('',#96,#873,#1364,.T.);
#1366=ORIENTED_EDGE('',*,*,#1365,.T.);
#1367=EDGE_LOOP('',(#1353,#1359,#1360,#1366));
#1368=FACE_BOUND('',#1367,.T.);
#1369=ADVANCED_FACE('',(#1368),#1352,.T.);
#1370=CARTESIAN_POINT('',(-4.51929097,-5.449775989,1.3));
#1371=DIRECTION('',(-1.,0.,0.));
#1372=DIRECTION('',(0.,0.,1.));
#1373=AXIS2_PLACEMENT_3D('',#1370,#1371,#1372);
#1374=PLANE('',#1373);
#1375=ORIENTED_EDGE('',*,*,#127,.T.);
#1376=CARTESIAN_POINT('',(-4.51929097,-5.67435817,0.8));
#1377=DIRECTION('',(0.,0.,-1.));
#1378=VECTOR('',#1377,0.8);
#1379=LINE('',#1376,#1378);
#1380=EDGE_CURVE('',#113,#856,#1379,.T.);
#1381=ORIENTED_EDGE('',*,*,#1380,.T.);
#1382=ORIENTED_EDGE('',*,*,#861,.F.);
#1383=ORIENTED_EDGE('',*,*,#1307,.T.);
#1384=EDGE_LOOP('',(#1375,#1381,#1382,#1383));
#1385=FACE_BOUND('',#1384,.T.);
#1386=ADVANCED_FACE('',(#1385),#1374,.T.);
#1387=CARTESIAN_POINT('',(-6.818084412,-5.753433544,1.3));
#1388=DIRECTION('',(0.,0.,1.));
#1389=DIRECTION('',(1.,0.,-0.));
#1390=AXIS2_PLACEMENT_3D('',#1387,#1388,#1389);
#1391=CYLINDRICAL_SURFACE('',#1390,0.01);
#1392=ORIENTED_EDGE('',*,*,#85,.F.);
#1393=ORIENTED_EDGE('',*,*,#1110,.F.);
#1394=ORIENTED_EDGE('',*,*,#904,.F.);
#1395=ORIENTED_EDGE('',*,*,#1343,.F.);
#1396=EDGE_LOOP('',(#1392,#1393,#1394,#1395));
#1397=FACE_BOUND('',#1396,.T.);
#1398=ADVANCED_FACE('',(#1397),#1391,.T.);
#1399=CARTESIAN_POINT('',(-8.2,-3.,0.4));
#1400=DIRECTION('',(0.,0.,-1.));
#1401=DIRECTION('',(-1.,0.,0.));
#1402=AXIS2_PLACEMENT_3D('',#1399,#1400,#1401);
#1403=CYLINDRICAL_SURFACE('',#1402,1.);
#1404=CARTESIAN_POINT('',(-8.533333333,-2.057190958,0.4));
#1405=VERTEX_POINT('',#1404);
#1406=CARTESIAN_POINT('',(-8.342857143,-3.989743319,0.4));
#1407=VERTEX_POINT('',#1406);
#1408=CARTESIAN_POINT('',(-8.2,-3.,0.4));
#1409=DIRECTION('',(0.,0.,-1.));
#1410=DIRECTION('',(-1.,0.,0.));
#1411=AXIS2_PLACEMENT_3D('',#1408,#1409,#1410);
#1412=CIRCLE('',#1411,1.);
#1413=EDGE_CURVE('',#1405,#1407,#1412,.T.);
#1414=ORIENTED_EDGE('',*,*,#1413,.F.);
#1415=CARTESIAN_POINT('',(-8.533333333,-2.057190958,0.4));
#1416=DIRECTION('',(0.,0.,-1.));
#1417=VECTOR('',#1416,0.4);
#1418=LINE('',#1415,#1417);
#1419=EDGE_CURVE('',#1405,#932,#1418,.T.);
#1420=ORIENTED_EDGE('',*,*,#1419,.T.);
#1421=ORIENTED_EDGE('',*,*,#938,.T.);
#1422=CARTESIAN_POINT('',(-8.342857143,-3.989743319,0.));
#1423=DIRECTION('',(-0.,-0.,1.));
#1424=VECTOR('',#1423,0.4);
#1425=LINE('',#1422,#1424);
#1426=EDGE_CURVE('',#923,#1407,#1425,.T.);
#1427=ORIENTED_EDGE('',*,*,#1426,.T.);
#1428=EDGE_LOOP('',(#1414,#1420,#1421,#1427));
#1429=FACE_BOUND('',#1428,.T.);
#1430=ADVANCED_FACE('',(#1429),#1403,.F.);
#1431=CARTESIAN_POINT('',(0.,0.,0.4));
#1432=DIRECTION('',(0.,0.,-1.));
#1433=DIRECTION('',(-1.,0.,0.));
#1434=AXIS2_PLACEMENT_3D('',#1431,#1432,#1433);
#1435=PLANE('',#1434);
#1436=CARTESIAN_POINT('',(-8.8,-3.,0.4));
#1437=VERTEX_POINT('',#1436);
#1438=CARTESIAN_POINT('',(-8.2,-3.,0.4));
#1439=DIRECTION('',(0.,0.,-1.));
#1440=DIRECTION('',(-1.,0.,0.));
#1441=AXIS2_PLACEMENT_3D('',#1438,#1439,#1440);
#1442=CIRCLE('',#1441,0.6);
#1443=EDGE_CURVE('',#1437,#1437,#1442,.T.);
#1444=ORIENTED_EDGE('',*,*,#1443,.F.);
#1445=EDGE_LOOP('',(#1444));
#1446=FACE_BOUND('',#1445,.T.);
#1447=ORIENTED_EDGE('',*,*,#1413,.T.);
#1448=CARTESIAN_POINT('',(-8.45,-4.732050808,0.4));
#1449=DIRECTION('',(-0.,-0.,1.));
#1450=DIRECTION('',(-1.,0.,0.));
#1451=AXIS2_PLACEMENT_3D('',#1448,#1449,#1450);
#1452=CIRCLE('',#1451,0.75);
#1453=EDGE_CURVE('',#1407,#321,#1452,.T.);
#1454=ORIENTED_EDGE('',*,*,#1453,.T.);
#1455=ORIENTED_EDGE('',*,*,#326,.F.);
#1456=CARTESIAN_POINT('',(-8.7,-1.585786438,0.4));
#1457=DIRECTION('',(-0.,-0.,1.));
#1458=DIRECTION('',(-1.,0.,0.));
#1459=AXIS2_PLACEMENT_3D('',#1456,#1457,#1458);
#1460=CIRCLE('',#1459,0.5);
#1461=EDGE_CURVE('',#313,#1405,#1460,.T.);
#1462=ORIENTED_EDGE('',*,*,#1461,.T.);
#1463=EDGE_LOOP('',(#1447,#1454,#1455,#1462));
#1464=FACE_BOUND('',#1463,.T.);
#1465=ADVANCED_FACE('',(#1446,#1464),#1435,.T.);
#1466=CARTESIAN_POINT('',(-8.7,-1.585786438,0.4));
#1467=DIRECTION('',(0.,0.,-1.));
#1468=DIRECTION('',(-1.,0.,0.));
#1469=AXIS2_PLACEMENT_3D('',#1466,#1467,#1468);
#1470=CYLINDRICAL_SURFACE('',#1469,0.5);
#1471=ORIENTED_EDGE('',*,*,#1461,.F.);
#1472=ORIENTED_EDGE('',*,*,#318,.F.);
#1473=ORIENTED_EDGE('',*,*,#945,.F.);
#1474=ORIENTED_EDGE('',*,*,#1419,.F.);
#1475=EDGE_LOOP('',(#1471,#1472,#1473,#1474));
#1476=FACE_BOUND('',#1475,.T.);
#1477=ADVANCED_FACE('',(#1476),#1470,.T.);
#1478=CARTESIAN_POINT('',(-8.45,-4.732050808,0.4));
#1479=DIRECTION('',(0.,0.,-1.));
#1480=DIRECTION('',(-1.,0.,0.));
#1481=AXIS2_PLACEMENT_3D('',#1478,#1479,#1480);
#1482=CYLINDRICAL_SURFACE('',#1481,0.75);
#1483=ORIENTED_EDGE('',*,*,#1453,.F.);
#1484=ORIENTED_EDGE('',*,*,#1426,.F.);
#1485=ORIENTED_EDGE('',*,*,#929,.F.);
#1486=ORIENTED_EDGE('',*,*,#334,.F.);
#1487=EDGE_LOOP('',(#1483,#1484,#1485,#1486));
#1488=FACE_BOUND('',#1487,.T.);
#1489=ADVANCED_FACE('',(#1488),#1482,.T.);
#1490=CARTESIAN_POINT('',(-8.2,3.,0.4));
#1491=DIRECTION('',(0.,0.,-1.));
#1492=DIRECTION('',(-1.,0.,0.));
#1493=AXIS2_PLACEMENT_3D('',#1490,#1491,#1492);
#1494=CYLINDRICAL_SURFACE('',#1493,1.);
#1495=CARTESIAN_POINT('',(-8.342857143,3.989743319,0.4));
#1496=VERTEX_POINT('',#1495);
#1497=CARTESIAN_POINT('',(-8.533333333,2.057190958,0.4));
#1498=VERTEX_POINT('',#1497);
#1499=CARTESIAN_POINT('',(-8.2,3.,0.4));
#1500=DIRECTION('',(0.,0.,-1.));
#1501=DIRECTION('',(-1.,0.,0.));
#1502=AXIS2_PLACEMENT_3D('',#1499,#1500,#1501);
#1503=CIRCLE('',#1502,1.);
#1504=EDGE_CURVE('',#1496,#1498,#1503,.T.);
#1505=ORIENTED_EDGE('',*,*,#1504,.F.);
#1506=CARTESIAN_POINT('',(-8.342857143,3.989743319,0.4));
#1507=DIRECTION('',(0.,0.,-1.));
#1508=VECTOR('',#1507,0.4);
#1509=LINE('',#1506,#1508);
#1510=EDGE_CURVE('',#1496,#958,#1509,.T.);
#1511=ORIENTED_EDGE('',*,*,#1510,.T.);
#1512=ORIENTED_EDGE('',*,*,#964,.T.);
#1513=CARTESIAN_POINT('',(-8.533333333,2.057190958,0.));
#1514=DIRECTION('',(-0.,-0.,1.));
#1515=VECTOR('',#1514,0.4);
#1516=LINE('',#1513,#1515);
#1517=EDGE_CURVE('',#949,#1498,#1516,.T.);
#1518=ORIENTED_EDGE('',*,*,#1517,.T.);
#1519=EDGE_LOOP('',(#1505,#1511,#1512,#1518));
#1520=FACE_BOUND('',#1519,.T.);
#1521=ADVANCED_FACE('',(#1520),#1494,.F.);
#1522=CARTESIAN_POINT('',(0.,0.,0.4));
#1523=DIRECTION('',(0.,0.,-1.));
#1524=DIRECTION('',(-1.,0.,0.));
#1525=AXIS2_PLACEMENT_3D('',#1522,#1523,#1524);
#1526=PLANE('',#1525);
#1527=CARTESIAN_POINT('',(-8.8,3.,0.4));
#1528=VERTEX_POINT('',#1527);
#1529=CARTESIAN_POINT('',(-8.2,3.,0.4));
#1530=DIRECTION('',(0.,0.,-1.));
#1531=DIRECTION('',(-1.,0.,0.));
#1532=AXIS2_PLACEMENT_3D('',#1529,#1530,#1531);
#1533=CIRCLE('',#1532,0.6);
#1534=EDGE_CURVE('',#1528,#1528,#1533,.T.);
#1535=ORIENTED_EDGE('',*,*,#1534,.F.);
#1536=EDGE_LOOP('',(#1535));
#1537=FACE_BOUND('',#1536,.T.);
#1538=ORIENTED_EDGE('',*,*,#1504,.T.);
#1539=CARTESIAN_POINT('',(-8.7,1.585786438,0.4));
#1540=DIRECTION('',(-0.,-0.,1.));
#1541=DIRECTION('',(-1.,0.,0.));
#1542=AXIS2_PLACEMENT_3D('',#1539,#1540,#1541);
#1543=CIRCLE('',#1542,0.5);
#1544=EDGE_CURVE('',#1498,#289,#1543,.T.);
#1545=ORIENTED_EDGE('',*,*,#1544,.T.);
#1546=ORIENTED_EDGE('',*,*,#294,.F.);
#1547=CARTESIAN_POINT('',(-8.45,4.732050808,0.4));
#1548=DIRECTION('',(-0.,-0.,1.));
#1549=DIRECTION('',(-1.,0.,0.));
#1550=AXIS2_PLACEMENT_3D('',#1547,#1548,#1549);
#1551=CIRCLE('',#1550,0.75);
#1552=EDGE_CURVE('',#281,#1496,#1551,.T.);
#1553=ORIENTED_EDGE('',*,*,#1552,.T.);
#1554=EDGE_LOOP('',(#1538,#1545,#1546,#1553));
#1555=FACE_BOUND('',#1554,.T.);
#1556=ADVANCED_FACE('',(#1537,#1555),#1526,.T.);
#1557=CARTESIAN_POINT('',(-8.45,4.732050808,0.4));
#1558=DIRECTION('',(0.,0.,-1.));
#1559=DIRECTION('',(-1.,0.,0.));
#1560=AXIS2_PLACEMENT_3D('',#1557,#1558,#1559);
#1561=CYLINDRICAL_SURFACE('',#1560,0.75);
#1562=ORIENTED_EDGE('',*,*,#1552,.F.);
#1563=ORIENTED_EDGE('',*,*,#286,.F.);
#1564=ORIENTED_EDGE('',*,*,#971,.F.);
#1565=ORIENTED_EDGE('',*,*,#1510,.F.);
#1566=EDGE_LOOP('',(#1562,#1563,#1564,#1565));
#1567=FACE_BOUND('',#1566,.T.);
#1568=ADVANCED_FACE('',(#1567),#1561,.T.);
#1569=CARTESIAN_POINT('',(-8.7,1.585786438,0.4));
#1570=DIRECTION('',(0.,0.,-1.));
#1571=DIRECTION('',(-1.,0.,0.));
#1572=AXIS2_PLACEMENT_3D('',#1569,#1570,#1571);
#1573=CYLINDRICAL_SURFACE('',#1572,0.5);
#1574=ORIENTED_EDGE('',*,*,#1544,.F.);
#1575=ORIENTED_EDGE('',*,*,#1517,.F.);
#1576=ORIENTED_EDGE('',*,*,#955,.F.);
#1577=ORIENTED_EDGE('',*,*,#302,.F.);
#1578=EDGE_LOOP('',(#1574,#1575,#1576,#1577));
#1579=FACE_BOUND('',#1578,.T.);
#1580=ADVANCED_FACE('',(#1579),#1573,.T.);
#1581=CARTESIAN_POINT('',(-8.2,-3.,4.2));
#1582=DIRECTION('',(0.,0.,-1.));
#1583=DIRECTION('',(-1.,0.,0.));
#1584=AXIS2_PLACEMENT_3D('',#1581,#1582,#1583);
#1585=CYLINDRICAL_SURFACE('',#1584,0.6);
#1586=CARTESIAN_POINT('',(-8.8,-3.,0.4));
#1587=DIRECTION('',(-0.,-0.,1.));
#1588=VECTOR('',#1587,0.4);
#1589=LINE('',#1586,#1588);
#1590=EDGE_CURVE('',#1437,#33,#1589,.T.);
#1591=ORIENTED_EDGE('',*,*,#1590,.F.);
#1592=ORIENTED_EDGE('',*,*,#1443,.T.);
#1593=ORIENTED_EDGE('',*,*,#1590,.T.);
#1594=ORIENTED_EDGE('',*,*,#39,.F.);
#1595=EDGE_LOOP('',(#1591,#1592,#1593,#1594));
#1596=FACE_BOUND('',#1595,.T.);
#1597=ADVANCED_FACE('',(#1596),#1585,.F.);
#1598=CARTESIAN_POINT('',(-8.2,3.,4.2));
#1599=DIRECTION('',(0.,0.,-1.));
#1600=DIRECTION('',(-1.,0.,0.));
#1601=AXIS2_PLACEMENT_3D('',#1598,#1599,#1600);
#1602=CYLINDRICAL_SURFACE('',#1601,0.6);
#1603=CARTESIAN_POINT('',(-8.8,3.,0.4));
#1604=DIRECTION('',(-0.,-0.,1.));
#1605=VECTOR('',#1604,0.4);
#1606=LINE('',#1603,#1605);
#1607=EDGE_CURVE('',#1528,#776,#1606,.T.);
#1608=ORIENTED_EDGE('',*,*,#1607,.F.);
#1609=ORIENTED_EDGE('',*,*,#1534,.T.);
#1610=ORIENTED_EDGE('',*,*,#1607,.T.);
#1611=ORIENTED_EDGE('',*,*,#782,.F.);
#1612=EDGE_LOOP('',(#1608,#1609,#1610,#1611));
#1613=FACE_BOUND('',#1612,.T.);
#1614=ADVANCED_FACE('',(#1613),#1602,.F.);
#1615=CARTESIAN_POINT('',(-40.,0.,0.3));
#1616=DIRECTION('',(0.,0.,1.));
#1617=DIRECTION('',(0.,1.,0.));
#1618=AXIS2_PLACEMENT_3D('',#1615,#1616,#1617);
#1619=PLANE('',#1618);
#1620=ORIENTED_EDGE('',*,*,#622,.F.);
#1621=ORIENTED_EDGE('',*,*,#495,.F.);
#1622=CARTESIAN_POINT('',(-4.981251774,1.41104666,0.3));
#1623=DIRECTION('',(-0.,-0.,-1.));
#1624=DIRECTION('',(1.,0.,-0.));
#1625=AXIS2_PLACEMENT_3D('',#1622,#1623,#1624);
#1626=CIRCLE('',#1625,0.75);
#1627=EDGE_CURVE('',#482,#579,#1626,.T.);
#1628=ORIENTED_EDGE('',*,*,#1627,.T.);
#1629=ORIENTED_EDGE('',*,*,#584,.F.);
#1630=CARTESIAN_POINT('',(-4.981251774,-0.91104666,0.3));
#1631=DIRECTION('',(-0.,-0.,-1.));
#1632=DIRECTION('',(1.,0.,-0.));
#1633=AXIS2_PLACEMENT_3D('',#1630,#1631,#1632);
#1634=CIRCLE('',#1633,0.75);
#1635=EDGE_CURVE('',#577,#1082,#1634,.T.);
#1636=ORIENTED_EDGE('',*,*,#1635,.T.);
#1637=ORIENTED_EDGE('',*,*,#1087,.F.);
#1638=EDGE_LOOP('',(#1620,#1621,#1628,#1629,#1636,#1637));
#1639=FACE_BOUND('',#1638,.T.);
#1640=ADVANCED_FACE('',(#1639),#1619,.T.);
#1641=CARTESIAN_POINT('',(-4.981251774,1.41104666,0.8));
#1642=DIRECTION('',(0.,0.,-1.));
#1643=DIRECTION('',(-1.,0.,0.));
#1644=AXIS2_PLACEMENT_3D('',#1641,#1642,#1643);
#1645=CYLINDRICAL_SURFACE('',#1644,0.75);
#1646=ORIENTED_EDGE('',*,*,#1627,.F.);
#1647=ORIENTED_EDGE('',*,*,#487,.F.);
#1648=ORIENTED_EDGE('',*,*,#1048,.F.);
#1649=ORIENTED_EDGE('',*,*,#592,.F.);
#1650=EDGE_LOOP('',(#1646,#1647,#1648,#1649));
#1651=FACE_BOUND('',#1650,.T.);
#1652=ADVANCED_FACE('',(#1651),#1645,.F.);
#1653=CARTESIAN_POINT('',(-4.981251774,-0.91104666,3.));
#1654=DIRECTION('',(0.,0.,-1.));
#1655=DIRECTION('',(-1.,0.,0.));
#1656=AXIS2_PLACEMENT_3D('',#1653,#1654,#1655);
#1657=CYLINDRICAL_SURFACE('',#1656,0.75);
#1658=ORIENTED_EDGE('',*,*,#1635,.F.);
#1659=ORIENTED_EDGE('',*,*,#606,.F.);
#1660=ORIENTED_EDGE('',*,*,#1040,.F.);
#1661=ORIENTED_EDGE('',*,*,#1093,.F.);
#1662=EDGE_LOOP('',(#1658,#1659,#1660,#1661));
#1663=FACE_BOUND('',#1662,.T.);
#1664=ADVANCED_FACE('',(#1663),#1657,.F.);
#1665=CARTESIAN_POINT('',(-5.26929097,-5.67435817,1.3));
#1666=DIRECTION('',(0.,0.,1.));
#1667=DIRECTION('',(1.,0.,-0.));
#1668=AXIS2_PLACEMENT_3D('',#1665,#1666,#1667);
#1669=CYLINDRICAL_SURFACE('',#1668,0.75);
#1670=ORIENTED_EDGE('',*,*,#119,.F.);
#1671=ORIENTED_EDGE('',*,*,#1358,.F.);
#1672=ORIENTED_EDGE('',*,*,#870,.F.);
#1673=ORIENTED_EDGE('',*,*,#1380,.F.);
#1674=EDGE_LOOP('',(#1670,#1671,#1672,#1673));
#1675=FACE_BOUND('',#1674,.T.);
#1676=ADVANCED_FACE('',(#1675),#1669,.F.);
#1677=CARTESIAN_POINT('',(-6.058084412,-5.67435817,1.3));
#1678=DIRECTION('',(0.,0.,1.));
#1679=DIRECTION('',(1.,0.,-0.));
#1680=AXIS2_PLACEMENT_3D('',#1677,#1678,#1679);
#1681=CYLINDRICAL_SURFACE('',#1680,0.75);
#1682=ORIENTED_EDGE('',*,*,#102,.F.);
#1683=ORIENTED_EDGE('',*,*,#1336,.F.);
#1684=ORIENTED_EDGE('',*,*,#887,.F.);
#1685=ORIENTED_EDGE('',*,*,#1365,.F.);
#1686=EDGE_LOOP('',(#1682,#1683,#1684,#1685));
#1687=FACE_BOUND('',#1686,.T.);
#1688=ADVANCED_FACE('',(#1687),#1681,.F.);
#1689=CARTESIAN_POINT('',(-4.556554615,0.109222561,0.5));
#1690=DIRECTION('',(-1.,0.,0.));
#1691=DIRECTION('',(0.,0.,1.));
#1692=AXIS2_PLACEMENT_3D('',#1689,#1690,#1691);
#1693=PLANE('',#1692);
#1694=ORIENTED_EDGE('',*,*,#702,.F.);
#1695=CARTESIAN_POINT('',(-4.556554615,2.259222561,0.4));
#1696=VERTEX_POINT('',#1695);
#1697=CARTESIAN_POINT('',(-4.556554615,2.259222561,0.8));
#1698=DIRECTION('',(-0.,-0.,-1.));
#1699=VECTOR('',#1698,0.4);
#1700=LINE('',#1697,#1699);
#1701=EDGE_CURVE('',#690,#1696,#1700,.T.);
#1702=ORIENTED_EDGE('',*,*,#1701,.T.);
#1703=CARTESIAN_POINT('',(-4.556554615,2.259222561,0.4));
#1704=DIRECTION('',(0.,-1.,0.));
#1705=VECTOR('',#1704,0.098175901);
#1706=LINE('',#1703,#1705);
#1707=EDGE_CURVE('',#1696,#448,#1706,.T.);
#1708=ORIENTED_EDGE('',*,*,#1707,.T.);
#1709=ORIENTED_EDGE('',*,*,#455,.T.);
#1710=EDGE_LOOP('',(#1694,#1702,#1708,#1709));
#1711=FACE_BOUND('',#1710,.T.);
#1712=ADVANCED_FACE('',(#1711),#1693,.T.);
#1713=CARTESIAN_POINT('',(-6.056554615,2.251985057,0.5));
#1714=DIRECTION('',(1.,0.,0.));
#1715=DIRECTION('',(0.,0.,-1.));
#1716=AXIS2_PLACEMENT_3D('',#1713,#1714,#1715);
#1717=PLANE('',#1716);
#1718=CARTESIAN_POINT('',(-6.056554615,1.494747553,0.4));
#1719=VERTEX_POINT('',#1718);
#1720=CARTESIAN_POINT('',(-6.056554615,2.259222561,0.4));
#1721=VERTEX_POINT('',#1720);
#1722=CARTESIAN_POINT('',(-6.056554615,1.494747553,0.4));
#1723=DIRECTION('',(0.,1.,0.));
#1724=VECTOR('',#1723,0.764475008);
#1725=LINE('',#1722,#1724);
#1726=EDGE_CURVE('',#1719,#1721,#1725,.T.);
#1727=ORIENTED_EDGE('',*,*,#1726,.T.);
#1728=CARTESIAN_POINT('',(-6.056554615,2.259222561,0.4));
#1729=DIRECTION('',(0.,0.,1.));
#1730=VECTOR('',#1729,0.4);
#1731=LINE('',#1728,#1730);
#1732=EDGE_CURVE('',#1721,#673,#1731,.T.);
#1733=ORIENTED_EDGE('',*,*,#1732,.T.);
#1734=ORIENTED_EDGE('',*,*,#678,.F.);
#1735=CARTESIAN_POINT('',(-6.056554615,1.494747553,0.4));
#1736=DIRECTION('',(0.,0.,1.));
#1737=VECTOR('',#1736,0.4);
#1738=LINE('',#1735,#1737);
#1739=EDGE_CURVE('',#1719,#671,#1738,.T.);
#1740=ORIENTED_EDGE('',*,*,#1739,.F.);
#1741=EDGE_LOOP('',(#1727,#1733,#1734,#1740));
#1742=FACE_BOUND('',#1741,.T.);
#1743=ADVANCED_FACE('',(#1742),#1717,.T.);
#1744=CARTESIAN_POINT('',(-8.257279953,1.494747553,0.5));
#1745=DIRECTION('',(0.,1.,0.));
#1746=DIRECTION('',(0.,0.,1.));
#1747=AXIS2_PLACEMENT_3D('',#1744,#1745,#1746);
#1748=PLANE('',#1747);
#1749=ORIENTED_EDGE('',*,*,#771,.T.);
#1750=ORIENTED_EDGE('',*,*,#254,.F.);
#1751=CARTESIAN_POINT('',(-6.056554615,1.494747553,0.4));
#1752=DIRECTION('',(-1.,0.,0.));
#1753=VECTOR('',#1752,3.14344614);
#1754=LINE('',#1751,#1753);
#1755=EDGE_CURVE('',#1719,#239,#1754,.T.);
#1756=ORIENTED_EDGE('',*,*,#1755,.F.);
#1757=ORIENTED_EDGE('',*,*,#1739,.T.);
#1758=EDGE_LOOP('',(#1749,#1750,#1756,#1757));
#1759=FACE_BOUND('',#1758,.T.);
#1760=ADVANCED_FACE('',(#1759),#1748,.F.);
#1761=CARTESIAN_POINT('',(-8.257279953,-1.5,0.5));
#1762=DIRECTION('',(0.,-1.,0.));
#1763=DIRECTION('',(0.,0.,-1.));
#1764=AXIS2_PLACEMENT_3D('',#1761,#1762,#1763);
#1765=PLANE('',#1764);
#1766=ORIENTED_EDGE('',*,*,#51,.T.);
#1767=CARTESIAN_POINT('',(-6.056554615,-1.5,0.4));
#1768=VERTEX_POINT('',#1767);
#1769=CARTESIAN_POINT('',(-6.056554615,-1.5,0.4));
#1770=DIRECTION('',(0.,0.,1.));
#1771=VECTOR('',#1770,0.4);
#1772=LINE('',#1769,#1771);
#1773=EDGE_CURVE('',#1768,#46,#1772,.T.);
#1774=ORIENTED_EDGE('',*,*,#1773,.F.);
#1775=CARTESIAN_POINT('',(-9.200000755,-1.5,0.4));
#1776=DIRECTION('',(1.,0.,-0.));
#1777=VECTOR('',#1776,3.14344614);
#1778=LINE('',#1775,#1777);
#1779=EDGE_CURVE('',#241,#1768,#1778,.T.);
#1780=ORIENTED_EDGE('',*,*,#1779,.F.);
#1781=ORIENTED_EDGE('',*,*,#355,.T.);
#1782=EDGE_LOOP('',(#1766,#1774,#1780,#1781));
#1783=FACE_BOUND('',#1782,.T.);
#1784=ADVANCED_FACE('',(#1783),#1765,.F.);
#1785=CARTESIAN_POINT('',(-6.056554615,-2.145388719,0.5));
#1786=DIRECTION('',(1.,0.,0.));
#1787=DIRECTION('',(0.,0.,-1.));
#1788=AXIS2_PLACEMENT_3D('',#1785,#1786,#1787);
#1789=PLANE('',#1788);
#1790=ORIENTED_EDGE('',*,*,#228,.F.);
#1791=CARTESIAN_POINT('',(-6.056554615,-2.040777439,0.4));
#1792=VERTEX_POINT('',#1791);
#1793=CARTESIAN_POINT('',(-6.056554615,-2.040777439,0.8));
#1794=DIRECTION('',(-0.,-0.,-1.));
#1795=VECTOR('',#1794,0.4);
#1796=LINE('',#1793,#1795);
#1797=EDGE_CURVE('',#216,#1792,#1796,.T.);
#1798=ORIENTED_EDGE('',*,*,#1797,.T.);
#1799=CARTESIAN_POINT('',(-6.056554615,-2.040777439,0.4));
#1800=DIRECTION('',(0.,1.,0.));
#1801=VECTOR('',#1800,0.540777439);
#1802=LINE('',#1799,#1801);
#1803=EDGE_CURVE('',#1792,#1768,#1802,.T.);
#1804=ORIENTED_EDGE('',*,*,#1803,.T.);
#1805=ORIENTED_EDGE('',*,*,#1773,.T.);
#1806=EDGE_LOOP('',(#1790,#1798,#1804,#1805));
#1807=FACE_BOUND('',#1806,.T.);
#1808=ADVANCED_FACE('',(#1807),#1789,.T.);
#1809=CARTESIAN_POINT('',(-4.556554615,0.109222561,0.5));
#1810=DIRECTION('',(-1.,0.,0.));
#1811=DIRECTION('',(0.,0.,1.));
#1812=AXIS2_PLACEMENT_3D('',#1809,#1810,#1811);
#1813=PLANE('',#1812);
#1814=CARTESIAN_POINT('',(-4.556554615,-2.040777439,0.4));
#1815=VERTEX_POINT('',#1814);
#1816=CARTESIAN_POINT('',(-4.556554615,-1.66104666,0.4));
#1817=DIRECTION('',(0.,-1.,0.));
#1818=VECTOR('',#1817,0.379730779);
#1819=LINE('',#1816,#1818);
#1820=EDGE_CURVE('',#1066,#1815,#1819,.T.);
#1821=ORIENTED_EDGE('',*,*,#1820,.T.);
#1822=CARTESIAN_POINT('',(-4.556554615,-2.040777439,0.4));
#1823=DIRECTION('',(0.,0.,1.));
#1824=VECTOR('',#1823,0.4);
#1825=LINE('',#1822,#1824);
#1826=EDGE_CURVE('',#1815,#199,#1825,.T.);
#1827=ORIENTED_EDGE('',*,*,#1826,.T.);
#1828=ORIENTED_EDGE('',*,*,#204,.F.);
#1829=ORIENTED_EDGE('',*,*,#1077,.F.);
#1830=EDGE_LOOP('',(#1821,#1827,#1828,#1829));
#1831=FACE_BOUND('',#1830,.T.);
#1832=ADVANCED_FACE('',(#1831),#1813,.T.);
#1833=CARTESIAN_POINT('',(-40.,0.,0.4));
#1834=DIRECTION('',(0.,0.,1.));
#1835=DIRECTION('',(1.,0.,0.));
#1836=AXIS2_PLACEMENT_3D('',#1833,#1834,#1835);
#1837=PLANE('',#1836);
#1838=ORIENTED_EDGE('',*,*,#1707,.F.);
#1839=CARTESIAN_POINT('',(-5.306554615,3.009222561,0.4));
#1840=VERTEX_POINT('',#1839);
#1841=CARTESIAN_POINT('',(-5.306554615,2.259222561,0.4));
#1842=DIRECTION('',(0.,0.,1.));
#1843=DIRECTION('',(1.,0.,-0.));
#1844=AXIS2_PLACEMENT_3D('',#1841,#1842,#1843);
#1845=CIRCLE('',#1844,0.75);
#1846=EDGE_CURVE('',#1696,#1840,#1845,.T.);
#1847=ORIENTED_EDGE('',*,*,#1846,.T.);
#1848=CARTESIAN_POINT('',(-5.306554615,2.259222561,0.4));
#1849=DIRECTION('',(0.,0.,1.));
#1850=DIRECTION('',(1.,0.,-0.));
#1851=AXIS2_PLACEMENT_3D('',#1848,#1849,#1850);
#1852=CIRCLE('',#1851,0.75);
#1853=EDGE_CURVE('',#1840,#1721,#1852,.T.);
#1854=ORIENTED_EDGE('',*,*,#1853,.T.);
#1855=ORIENTED_EDGE('',*,*,#1726,.F.);
#1856=ORIENTED_EDGE('',*,*,#1755,.T.);
#1857=ORIENTED_EDGE('',*,*,#246,.T.);
#1858=ORIENTED_EDGE('',*,*,#1779,.T.);
#1859=ORIENTED_EDGE('',*,*,#1803,.F.);
#1860=CARTESIAN_POINT('',(-5.306554615,-2.790777439,0.4));
#1861=VERTEX_POINT('',#1860);
#1862=CARTESIAN_POINT('',(-5.306554615,-2.040777439,0.4));
#1863=DIRECTION('',(0.,0.,1.));
#1864=DIRECTION('',(1.,0.,-0.));
#1865=AXIS2_PLACEMENT_3D('',#1862,#1863,#1864);
#1866=CIRCLE('',#1865,0.75);
#1867=EDGE_CURVE('',#1792,#1861,#1866,.T.);
#1868=ORIENTED_EDGE('',*,*,#1867,.T.);
#1869=CARTESIAN_POINT('',(-5.306554615,-2.040777439,0.4));
#1870=DIRECTION('',(0.,0.,1.));
#1871=DIRECTION('',(1.,0.,-0.));
#1872=AXIS2_PLACEMENT_3D('',#1869,#1870,#1871);
#1873=CIRCLE('',#1872,0.75);
#1874=EDGE_CURVE('',#1861,#1815,#1873,.T.);
#1875=ORIENTED_EDGE('',*,*,#1874,.T.);
#1876=ORIENTED_EDGE('',*,*,#1820,.F.);
#1877=ORIENTED_EDGE('',*,*,#1071,.T.);
#1878=ORIENTED_EDGE('',*,*,#550,.T.);
#1879=ORIENTED_EDGE('',*,*,#415,.T.);
#1880=ORIENTED_EDGE('',*,*,#524,.T.);
#1881=ORIENTED_EDGE('',*,*,#463,.T.);
#1882=EDGE_LOOP('',(#1838,#1847,#1854,#1855,#1856,#1857,#1858,#1859,#1868,#1875,#1876,#1877,#1878,#1879,#1880,#1881));
#1883=FACE_BOUND('',#1882,.T.);
#1884=ORIENTED_EDGE('',*,*,#390,.T.);
#1885=ORIENTED_EDGE('',*,*,#397,.T.);
#1886=EDGE_LOOP('',(#1884,#1885));
#1887=FACE_BOUND('',#1886,.T.);
#1888=ADVANCED_FACE('',(#1883,#1887),#1837,.T.);
#1889=CARTESIAN_POINT('',(-5.306554615,2.259222561,0.5));
#1890=DIRECTION('',(0.,0.,-1.));
#1891=DIRECTION('',(-1.,0.,0.));
#1892=AXIS2_PLACEMENT_3D('',#1889,#1890,#1891);
#1893=CYLINDRICAL_SURFACE('',#1892,0.75);
#1894=ORIENTED_EDGE('',*,*,#1732,.F.);
#1895=ORIENTED_EDGE('',*,*,#1853,.F.);
#1896=CARTESIAN_POINT('',(-5.306554615,3.009222561,0.8));
#1897=DIRECTION('',(-0.,-0.,-1.));
#1898=VECTOR('',#1897,0.4);
#1899=LINE('',#1896,#1898);
#1900=EDGE_CURVE('',#681,#1840,#1899,.T.);
#1901=ORIENTED_EDGE('',*,*,#1900,.F.);
#1902=ORIENTED_EDGE('',*,*,#687,.F.);
#1903=EDGE_LOOP('',(#1894,#1895,#1901,#1902));
#1904=FACE_BOUND('',#1903,.T.);
#1905=ADVANCED_FACE('',(#1904),#1893,.F.);
#1906=CARTESIAN_POINT('',(-5.306554615,2.259222561,0.5));
#1907=DIRECTION('',(0.,0.,-1.));
#1908=DIRECTION('',(-1.,0.,0.));
#1909=AXIS2_PLACEMENT_3D('',#1906,#1907,#1908);
#1910=CYLINDRICAL_SURFACE('',#1909,0.75);
#1911=ORIENTED_EDGE('',*,*,#1846,.F.);
#1912=ORIENTED_EDGE('',*,*,#1701,.F.);
#1913=ORIENTED_EDGE('',*,*,#696,.F.);
#1914=ORIENTED_EDGE('',*,*,#1900,.T.);
#1915=EDGE_LOOP('',(#1911,#1912,#1913,#1914));
#1916=FACE_BOUND('',#1915,.T.);
#1917=ADVANCED_FACE('',(#1916),#1910,.F.);
#1918=CARTESIAN_POINT('',(-5.306554615,-2.040777439,0.5));
#1919=DIRECTION('',(0.,0.,-1.));
#1920=DIRECTION('',(-1.,0.,0.));
#1921=AXIS2_PLACEMENT_3D('',#1918,#1919,#1920);
#1922=CYLINDRICAL_SURFACE('',#1921,0.75);
#1923=CARTESIAN_POINT('',(-5.306554615,-2.790777439,0.4));
#1924=DIRECTION('',(0.,0.,1.));
#1925=VECTOR('',#1924,0.4);
#1926=LINE('',#1923,#1925);
#1927=EDGE_CURVE('',#1861,#207,#1926,.T.);
#1928=ORIENTED_EDGE('',*,*,#1927,.F.);
#1929=ORIENTED_EDGE('',*,*,#1867,.F.);
#1930=ORIENTED_EDGE('',*,*,#1797,.F.);
#1931=ORIENTED_EDGE('',*,*,#222,.F.);
#1932=EDGE_LOOP('',(#1928,#1929,#1930,#1931));
#1933=FACE_BOUND('',#1932,.T.);
#1934=ADVANCED_FACE('',(#1933),#1922,.F.);
#1935=CARTESIAN_POINT('',(-5.306554615,-2.040777439,0.5));
#1936=DIRECTION('',(0.,0.,-1.));
#1937=DIRECTION('',(-1.,0.,0.));
#1938=AXIS2_PLACEMENT_3D('',#1935,#1936,#1937);
#1939=CYLINDRICAL_SURFACE('',#1938,0.75);
#1940=ORIENTED_EDGE('',*,*,#1874,.F.);
#1941=ORIENTED_EDGE('',*,*,#1927,.T.);
#1942=ORIENTED_EDGE('',*,*,#213,.F.);
#1943=ORIENTED_EDGE('',*,*,#1826,.F.);
#1944=EDGE_LOOP('',(#1940,#1941,#1942,#1943));
#1945=FACE_BOUND('',#1944,.T.);
#1946=ADVANCED_FACE('',(#1945),#1939,.F.);
#1947=CARTESIAN_POINT('',(-2.885498186,4.904586859,0.1));
#1948=DIRECTION('',(0.,0.,1.));
#1949=DIRECTION('',(1.,0.,-0.));
#1950=AXIS2_PLACEMENT_3D('',#1947,#1948,#1949);
#1951=CYLINDRICAL_SURFACE('',#1950,0.75);
#1952=ORIENTED_EDGE('',*,*,#1199,.F.);
#1953=ORIENTED_EDGE('',*,*,#722,.T.);
#1954=ORIENTED_EDGE('',*,*,#1219,.F.);
#1955=ORIENTED_EDGE('',*,*,#1023,.F.);
#1956=EDGE_LOOP('',(#1952,#1953,#1954,#1955));
#1957=FACE_BOUND('',#1956,.T.);
#1958=ADVANCED_FACE('',(#1957),#1951,.T.);
#1959=CARTESIAN_POINT('',(-2.885498186,-4.904586859,0.1));
#1960=DIRECTION('',(0.,0.,1.));
#1961=DIRECTION('',(1.,0.,-0.));
#1962=AXIS2_PLACEMENT_3D('',#1959,#1960,#1961);
#1963=CYLINDRICAL_SURFACE('',#1962,0.75);
#1964=ORIENTED_EDGE('',*,*,#1250,.F.);
#1965=ORIENTED_EDGE('',*,*,#162,.T.);
#1966=ORIENTED_EDGE('',*,*,#1275,.F.);
#1967=ORIENTED_EDGE('',*,*,#827,.F.);
#1968=EDGE_LOOP('',(#1964,#1965,#1966,#1967));
#1969=FACE_BOUND('',#1968,.T.);
#1970=ADVANCED_FACE('',(#1969),#1963,.T.);
#1971=CLOSED_SHELL('',(#232,#359,#401,#441,#513,#537,#570,#610,#664,#786,#1059,#1099,#1121,#1138,#1155,#1172,#1189,#1206,#1223,#1240,#1257,#1279,#1296,#1313,#1325,#1347,
#1369,#1386,#1398,#1430,#1465,#1477,#1489,#1521,#1556,#1568,#1580,#1597,#1614,#1640,#1652,#1664,#1676,#1688,#1712,#1743,#1760,#1784,#1808,#1832,#1888,
#1905,#1917,#1934,#1946,#1958,#1970));
#1972=MANIFOLD_SOLID_BREP('\X2\7ED3678476D6677F\X0\',#1971);
#1973=COLOUR_RGB('',0.678431392,0.678431392,0.678431392);
#1974=FILL_AREA_STYLE_COLOUR('',#1973);
#1975=FILL_AREA_STYLE('',(#1974));
#1976=SURFACE_STYLE_FILL_AREA(#1975);
#1977=SURFACE_SIDE_STYLE('',(#1976));
#1978=SURFACE_STYLE_USAGE(.BOTH.,#1977);
#1979=PRESENTATION_STYLE_ASSIGNMENT((#1978));
#26=STYLED_ITEM('',(#1979),#1972);
#16=SHAPE_REPRESENTATION('\X2\7ED3678476D6677F\X0\',(#15),#10);
#17=ADVANCED_BREP_SHAPE_REPRESENTATION('\X2\7ED3678476D6677F\X0\',(#1972),#10);
#1987=SHAPE_REPRESENTATION_RELATIONSHIP('','',#16,#17);
#1988=CARTESIAN_POINT('',(0.,0.,0.));
#1989=DIRECTION('',(0.,0.,1.));
#1990=DIRECTION('',(1.,0.,0.));
#1991=AXIS2_PLACEMENT_3D('',#1988,#1989,#1990);
#1993=MAPPED_ITEM('',#1992,#1991);
#1992=REPRESENTATION_MAP(#1991,#16);
#1994=APPLICATION_CONTEXT('Managed model based 3d engineering');
#1995=APPLICATION_PROTOCOL_DEFINITION('international standard','ap242_managed_model_based_3d_engineering',2014,#1994);
#1996=PRODUCT_CONTEXT('',#1994,'mechanical');
#1997=PRODUCT_DEFINITION_CONTEXT('part definition',#1994,'design');
#24=PRODUCT('\X2\7ED3678476D6677F\X0\','\X2\7ED3678476D6677F\X0\','',(#1996));
#1998=PRODUCT_RELATED_PRODUCT_CATEGORY('part','',(#24));
#1999=PRODUCT_DEFINITION_FORMATION_WITH_SPECIFIED_SOURCE('','',#24,.NOT_KNOWN.);
#25=PRODUCT_DEFINITION('design','',#1999,#1997);
#23=PRODUCT_DEFINITION_SHAPE('','',#25);
#2000=SHAPE_DEFINITION_REPRESENTATION(#23,#16);
#11=DRAUGHTING_MODEL('',(#1993),#10);
#2001=DESCRIPTIVE_REPRESENTATION_ITEM('KEY','C:\\Users\\Nalani\\AppData\\Local\\Packages\\Shapr3D.Shapr3D_j403pzjkqtqbj\\TempState\\d26c7af4-e865-42cb-b33f-b43fc148cef2.tmp');
#2002=PROPERTY_DEFINITION('KEY','',#25);
#2003=REPRESENTATION('',(#2001),#10);
#2004=PROPERTY_DEFINITION_REPRESENTATION(#2002,#2003);
#2005=GENERAL_PROPERTY('','KEY','');
#2006=GENERAL_PROPERTY_ASSOCIATION('','',#2005,#2002);
#1=MECHANICAL_DESIGN_GEOMETRIC_PRESENTATION_REPRESENTATION('',(#26),#10);
ENDSEC;
END-ISO-10303-21;
