ISO-10303-21;
HEADER;

/* File generated by Shapr3D Version 26.123.11423.0 */

FILE_DESCRIPTION(('HOOPS Exchange Step'),'2;1');

FILE_NAME('C:\\Users\\Nalani\\AppData\\Local\\Packages\\Shapr3D.Shapr3D_j403pzjkqtqbj\\TempState\\export\\temp_export',
'2026-08-03T16:12:14+08:00',
('Nalani'),
('Shapr3D Limited'),
'HOOPS Exchange 2026.3',
'Shapr3D',
'Authorized');

FILE_SCHEMA( ('AP242_MANAGED_MODEL_BASED_3D_ENGINEERING_MIM_LF {1 0 10303 442 1 1 4}') );

ENDSEC;

DATA;
#3=(NAMED_UNIT(*)PLANE_ANGLE_UNIT()SI_UNIT($,.RADIAN.));
#4=PLANE_ANGLE_MEASURE_WITH_UNIT(PLANE_ANGLE_MEASURE(0.0174532925),#3);
#5=(CONVERSION_BASED_UNIT('DEGREE',#4)NAMED_UNIT(#6)PLANE_ANGLE_UNIT());
#6=DIMENSIONAL_EXPONENTS(0.,0.,0.,0.,0.,0.,0.);
#7=(NAMED_UNIT(*)SI_UNIT($,.STERADIAN.)SOLID_ANGLE_UNIT());
#8=(LENGTH_UNIT()NAMED_UNIT(*)SI_UNIT(.MILLI.,.METRE.));
#9=UNCERTAINTY_MEASURE_WITH_UNIT(LENGTH_MEASURE(1.000000E-05),#8,'DISTANCE_ACCURACY_VALUE','Maximum Tolerance applied to model');
#10=(GEOMETRIC_REPRESENTATION_CONTEXT(3)GLOBAL_UNCERTAINTY_ASSIGNED_CONTEXT((#9))GLOBAL_UNIT_ASSIGNED_CONTEXT((#8,#5,#7))REPRESENTATION_CONTEXT('','\X2\87BA4E1D53604F4D\X0\'));
#12=CARTESIAN_POINT('',(0.,0.,0.));
#13=DIRECTION('',(0.,0.,1.));
#14=DIRECTION('',(1.,0.,0.));
#15=AXIS2_PLACEMENT_3D('',#12,#13,#14);
#27=CARTESIAN_POINT('',(-0.353495723,-4.604314964,2.545655023));
#28=DIRECTION('',(0.,0.,1.));
#29=DIRECTION('',(1.,0.,-0.));
#30=AXIS2_PLACEMENT_3D('',#27,#28,#29);
#31=CONICAL_SURFACE('',#30,0.8,45.);
#32=CARTESIAN_POINT('',(1.346504277,-4.604314964,3.445655023));
#33=VERTEX_POINT('',#32);
#34=CARTESIAN_POINT('',(0.446504277,-4.604314964,2.545655023));
#35=VERTEX_POINT('',#34);
#36=CARTESIAN_POINT('',(1.346504277,-4.604314964,3.445655023));
#37=DIRECTION('',(-0.707106781,-0.,-0.707106781));
#38=VECTOR('',#37,1.272792206);
#39=LINE('',#36,#38);
#40=EDGE_CURVE('',#33,#35,#39,.T.);
#41=ORIENTED_EDGE('',*,*,#40,.T.);
#42=CARTESIAN_POINT('',(-1.153495723,-4.604314964,2.545655023));
#43=VERTEX_POINT('',#42);
#44=CARTESIAN_POINT('',(-0.353495723,-4.604314964,2.545655023));
#45=DIRECTION('',(0.,0.,-1.));
#46=DIRECTION('',(0.,-1.,0.));
#47=AXIS2_PLACEMENT_3D('',#44,#45,#46);
#48=CIRCLE('',#47,0.8);
#49=EDGE_CURVE('',#43,#35,#48,.T.);
#50=ORIENTED_EDGE('',*,*,#49,.F.);
#51=CARTESIAN_POINT('',(-0.353495723,-5.404314964,2.545655023));
#52=VERTEX_POINT('',#51);
#53=CARTESIAN_POINT('',(-0.353495723,-4.604314964,2.545655023));
#54=DIRECTION('',(0.,0.,-1.));
#55=DIRECTION('',(0.,-1.,0.));
#56=AXIS2_PLACEMENT_3D('',#53,#54,#55);
#57=CIRCLE('',#56,0.8);
#58=EDGE_CURVE('',#52,#43,#57,.T.);
#59=ORIENTED_EDGE('',*,*,#58,.F.);
#60=CARTESIAN_POINT('',(-0.353495723,-4.604314964,2.545655023));
#61=DIRECTION('',(0.,0.,-1.));
#62=DIRECTION('',(0.,-1.,0.));
#63=AXIS2_PLACEMENT_3D('',#60,#61,#62);
#64=CIRCLE('',#63,0.8);
#65=EDGE_CURVE('',#35,#52,#64,.T.);
#66=ORIENTED_EDGE('',*,*,#65,.F.);
#67=ORIENTED_EDGE('',*,*,#40,.F.);
#68=CARTESIAN_POINT('',(-2.053495723,-4.604314964,3.445655023));
#69=VERTEX_POINT('',#68);
#70=CARTESIAN_POINT('',(-0.353495723,-4.604314964,3.445655023));
#71=DIRECTION('',(0.,0.,1.));
#72=DIRECTION('',(1.,0.,-0.));
#73=AXIS2_PLACEMENT_3D('',#70,#71,#72);
#74=CIRCLE('',#73,1.7);
#75=EDGE_CURVE('',#69,#33,#74,.T.);
#76=ORIENTED_EDGE('',*,*,#75,.F.);
#77=CARTESIAN_POINT('',(-0.353495723,-4.604314964,3.445655023));
#78=DIRECTION('',(0.,0.,1.));
#79=DIRECTION('',(1.,0.,-0.));
#80=AXIS2_PLACEMENT_3D('',#77,#78,#79);
#81=CIRCLE('',#80,1.7);
#82=EDGE_CURVE('',#33,#69,#81,.T.);
#83=ORIENTED_EDGE('',*,*,#82,.F.);
#84=EDGE_LOOP('',(#41,#50,#59,#66,#67,#76,#83));
#85=FACE_BOUND('',#84,.T.);
#86=ADVANCED_FACE('',(#85),#31,.T.);
#87=CARTESIAN_POINT('',(-0.353495723,-4.604314964,3.195655023));
#88=DIRECTION('',(0.,0.,-1.));
#89=DIRECTION('',(-1.,0.,0.));
#90=AXIS2_PLACEMENT_3D('',#87,#88,#89);
#91=CYLINDRICAL_SURFACE('',#90,0.8);
#92=CARTESIAN_POINT('',(-1.153495723,-4.604314964,-1.604344977));
#93=VERTEX_POINT('',#92);
#94=CARTESIAN_POINT('',(-1.153495723,-4.604314964,-1.604344977));
#95=DIRECTION('',(-0.,-0.,1.));
#96=VECTOR('',#95,4.15);
#97=LINE('',#94,#96);
#98=EDGE_CURVE('',#93,#43,#97,.T.);
#99=ORIENTED_EDGE('',*,*,#98,.T.);
#100=ORIENTED_EDGE('',*,*,#49,.T.);
#101=ORIENTED_EDGE('',*,*,#65,.T.);
#102=ORIENTED_EDGE('',*,*,#58,.T.);
#103=ORIENTED_EDGE('',*,*,#98,.F.);
#104=CARTESIAN_POINT('',(-0.353495723,-4.604314964,-1.604344977));
#105=DIRECTION('',(0.,0.,-1.));
#106=DIRECTION('',(-1.,0.,0.));
#107=AXIS2_PLACEMENT_3D('',#104,#105,#106);
#108=CIRCLE('',#107,0.8);
#109=EDGE_CURVE('',#93,#93,#108,.T.);
#110=ORIENTED_EDGE('',*,*,#109,.F.);
#111=EDGE_LOOP('',(#99,#100,#101,#102,#103,#110));
#112=FACE_BOUND('',#111,.T.);
#113=ADVANCED_FACE('',(#112),#91,.T.);
#114=CARTESIAN_POINT('',(-0.353495723,-5.004314964,-1.604344977));
#115=DIRECTION('',(0.,0.,-1.));
#116=DIRECTION('',(-1.,0.,0.));
#117=AXIS2_PLACEMENT_3D('',#114,#115,#116);
#118=PLANE('',#117);
#119=ORIENTED_EDGE('',*,*,#109,.T.);
#120=EDGE_LOOP('',(#119));
#121=FACE_BOUND('',#120,.T.);
#122=ADVANCED_FACE('',(#121),#118,.T.);
#123=CARTESIAN_POINT('',(-0.353495723,-4.604314964,3.545655023));
#124=DIRECTION('',(0.,0.,-1.));
#125=DIRECTION('',(-1.,0.,0.));
#126=AXIS2_PLACEMENT_3D('',#123,#124,#125);
#127=CYLINDRICAL_SURFACE('',#126,1.7);
#128=CARTESIAN_POINT('',(-2.053495723,-4.604314964,3.545655023));
#129=VERTEX_POINT('',#128);
#130=CARTESIAN_POINT('',(-2.053495723,-4.604314964,3.445655023));
#131=DIRECTION('',(-0.,-0.,1.));
#132=VECTOR('',#131,0.1);
#133=LINE('',#130,#132);
#134=EDGE_CURVE('',#69,#129,#133,.T.);
#135=ORIENTED_EDGE('',*,*,#134,.T.);
#136=CARTESIAN_POINT('',(-0.353495723,-4.604314964,3.545655023));
#137=DIRECTION('',(0.,0.,1.));
#138=DIRECTION('',(-1.,0.,0.));
#139=AXIS2_PLACEMENT_3D('',#136,#137,#138);
#140=CIRCLE('',#139,1.7);
#141=EDGE_CURVE('',#129,#129,#140,.T.);
#142=ORIENTED_EDGE('',*,*,#141,.F.);
#143=ORIENTED_EDGE('',*,*,#134,.F.);
#144=ORIENTED_EDGE('',*,*,#75,.T.);
#145=ORIENTED_EDGE('',*,*,#82,.T.);
#146=EDGE_LOOP('',(#135,#142,#143,#144,#145));
#147=FACE_BOUND('',#146,.T.);
#148=ADVANCED_FACE('',(#147),#127,.T.);
#149=CARTESIAN_POINT('',(0.,0.,3.545655023));
#150=DIRECTION('',(0.,0.,1.));
#151=DIRECTION('',(-1.,0.,0.));
#152=AXIS2_PLACEMENT_3D('',#149,#150,#151);
#153=PLANE('',#152);
#154=CARTESIAN_POINT('',(-1.053495723,-4.431109883,3.545655023));
#155=VERTEX_POINT('',#154);
#156=CARTESIAN_POINT('',(-1.203495723,-4.517712423,3.545655023));
#157=VERTEX_POINT('',#156);
#158=CARTESIAN_POINT('',(-1.053495723,-4.431109883,3.545655023));
#159=DIRECTION('',(-0.866025404,-0.5,0.));
#160=VECTOR('',#159,0.173205081);
#161=LINE('',#158,#160);
#162=EDGE_CURVE('',#155,#157,#161,.T.);
#163=ORIENTED_EDGE('',*,*,#162,.F.);
#164=CARTESIAN_POINT('',(-0.853495723,-4.084699721,3.545655023));
#165=VERTEX_POINT('',#164);
#166=CARTESIAN_POINT('',(-1.253495723,-4.084699721,3.545655023));
#167=DIRECTION('',(0.,0.,1.));
#168=DIRECTION('',(1.,0.,-0.));
#169=AXIS2_PLACEMENT_3D('',#166,#167,#168);
#170=CIRCLE('',#169,0.4);
#171=EDGE_CURVE('',#155,#165,#170,.T.);
#172=ORIENTED_EDGE('',*,*,#171,.T.);
#173=CARTESIAN_POINT('',(-0.853495723,-3.911494641,3.545655023));
#174=VERTEX_POINT('',#173);
#175=CARTESIAN_POINT('',(-0.853495723,-3.911494641,3.545655023));
#176=DIRECTION('',(-0.,-1.,0.));
#177=VECTOR('',#176,0.173205081);
#178=LINE('',#175,#177);
#179=EDGE_CURVE('',#174,#165,#178,.T.);
#180=ORIENTED_EDGE('',*,*,#179,.F.);
#181=CARTESIAN_POINT('',(-0.703495723,-3.8248921,3.545655023));
#182=VERTEX_POINT('',#181);
#183=CARTESIAN_POINT('',(-0.753495723,-3.911494641,3.545655023));
#184=DIRECTION('',(-0.,-0.,-1.));
#185=DIRECTION('',(1.,0.,-0.));
#186=AXIS2_PLACEMENT_3D('',#183,#184,#185);
#187=CIRCLE('',#186,0.1);
#188=EDGE_CURVE('',#174,#182,#187,.T.);
#189=ORIENTED_EDGE('',*,*,#188,.T.);
#190=CARTESIAN_POINT('',(-0.553495723,-3.911494641,3.545655023));
#191=VERTEX_POINT('',#190);
#192=CARTESIAN_POINT('',(-0.553495723,-3.911494641,3.545655023));
#193=DIRECTION('',(-0.866025404,0.5,0.));
#194=VECTOR('',#193,0.173205081);
#195=LINE('',#192,#194);
#196=EDGE_CURVE('',#191,#182,#195,.T.);
#197=ORIENTED_EDGE('',*,*,#196,.F.);
#198=CARTESIAN_POINT('',(-0.153495723,-3.911494641,3.545655023));
#199=VERTEX_POINT('',#198);
#200=CARTESIAN_POINT('',(-0.353495723,-3.565084479,3.545655023));
#201=DIRECTION('',(0.,0.,1.));
#202=DIRECTION('',(1.,0.,-0.));
#203=AXIS2_PLACEMENT_3D('',#200,#201,#202);
#204=CIRCLE('',#203,0.4);
#205=EDGE_CURVE('',#191,#199,#204,.T.);
#206=ORIENTED_EDGE('',*,*,#205,.T.);
#207=CARTESIAN_POINT('',(-0.003495723,-3.8248921,3.545655023));
#208=VERTEX_POINT('',#207);
#209=CARTESIAN_POINT('',(-0.003495723,-3.8248921,3.545655023));
#210=DIRECTION('',(-0.866025404,-0.5,0.));
#211=VECTOR('',#210,0.173205081);
#212=LINE('',#209,#211);
#213=EDGE_CURVE('',#208,#199,#212,.T.);
#214=ORIENTED_EDGE('',*,*,#213,.F.);
#215=CARTESIAN_POINT('',(0.146504277,-3.911494641,3.545655023));
#216=VERTEX_POINT('',#215);
#217=CARTESIAN_POINT('',(0.046504277,-3.911494641,3.545655023));
#218=DIRECTION('',(-0.,-0.,-1.));
#219=DIRECTION('',(1.,0.,-0.));
#220=AXIS2_PLACEMENT_3D('',#217,#218,#219);
#221=CIRCLE('',#220,0.1);
#222=EDGE_CURVE('',#208,#216,#221,.T.);
#223=ORIENTED_EDGE('',*,*,#222,.T.);
#224=CARTESIAN_POINT('',(0.146504277,-4.084699721,3.545655023));
#225=VERTEX_POINT('',#224);
#226=CARTESIAN_POINT('',(0.146504277,-4.084699721,3.545655023));
#227=DIRECTION('',(0.,1.,0.));
#228=VECTOR('',#227,0.173205081);
#229=LINE('',#226,#228);
#230=EDGE_CURVE('',#225,#216,#229,.T.);
#231=ORIENTED_EDGE('',*,*,#230,.F.);
#232=CARTESIAN_POINT('',(0.346504277,-4.431109883,3.545655023));
#233=VERTEX_POINT('',#232);
#234=CARTESIAN_POINT('',(0.546504277,-4.084699721,3.545655023));
#235=DIRECTION('',(0.,0.,1.));
#236=DIRECTION('',(1.,0.,-0.));
#237=AXIS2_PLACEMENT_3D('',#234,#235,#236);
#238=CIRCLE('',#237,0.4);
#239=EDGE_CURVE('',#225,#233,#238,.T.);
#240=ORIENTED_EDGE('',*,*,#239,.T.);
#241=CARTESIAN_POINT('',(0.496504277,-4.517712423,3.545655023));
#242=VERTEX_POINT('',#241);
#243=CARTESIAN_POINT('',(0.496504277,-4.517712423,3.545655023));
#244=DIRECTION('',(-0.866025404,0.5,0.));
#245=VECTOR('',#244,0.173205081);
#246=LINE('',#243,#245);
#247=EDGE_CURVE('',#242,#233,#246,.T.);
#248=ORIENTED_EDGE('',*,*,#247,.F.);
#249=CARTESIAN_POINT('',(0.496504277,-4.690917504,3.545655023));
#250=VERTEX_POINT('',#249);
#251=CARTESIAN_POINT('',(0.446504277,-4.604314964,3.545655023));
#252=DIRECTION('',(-0.,-0.,-1.));
#253=DIRECTION('',(1.,0.,-0.));
#254=AXIS2_PLACEMENT_3D('',#251,#252,#253);
#255=CIRCLE('',#254,0.1);
#256=EDGE_CURVE('',#242,#250,#255,.T.);
#257=ORIENTED_EDGE('',*,*,#256,.T.);
#258=CARTESIAN_POINT('',(0.346504277,-4.777520044,3.545655023));
#259=VERTEX_POINT('',#258);
#260=CARTESIAN_POINT('',(0.346504277,-4.777520044,3.545655023));
#261=DIRECTION('',(0.866025404,0.5,0.));
#262=VECTOR('',#261,0.173205081);
#263=LINE('',#260,#262);
#264=EDGE_CURVE('',#259,#250,#263,.T.);
#265=ORIENTED_EDGE('',*,*,#264,.F.);
#266=CARTESIAN_POINT('',(0.146504277,-5.123930206,3.545655023));
#267=VERTEX_POINT('',#266);
#268=CARTESIAN_POINT('',(0.546504277,-5.123930206,3.545655023));
#269=DIRECTION('',(0.,0.,1.));
#270=DIRECTION('',(1.,0.,-0.));
#271=AXIS2_PLACEMENT_3D('',#268,#269,#270);
#272=CIRCLE('',#271,0.4);
#273=EDGE_CURVE('',#259,#267,#272,.T.);
#274=ORIENTED_EDGE('',*,*,#273,.T.);
#275=CARTESIAN_POINT('',(0.146504277,-5.297135287,3.545655023));
#276=VERTEX_POINT('',#275);
#277=CARTESIAN_POINT('',(0.146504277,-5.297135287,3.545655023));
#278=DIRECTION('',(0.,1.,0.));
#279=VECTOR('',#278,0.173205081);
#280=LINE('',#277,#279);
#281=EDGE_CURVE('',#276,#267,#280,.T.);
#282=ORIENTED_EDGE('',*,*,#281,.F.);
#283=CARTESIAN_POINT('',(-0.003495723,-5.383737827,3.545655023));
#284=VERTEX_POINT('',#283);
#285=CARTESIAN_POINT('',(0.046504277,-5.297135287,3.545655023));
#286=DIRECTION('',(-0.,-0.,-1.));
#287=DIRECTION('',(1.,0.,-0.));
#288=AXIS2_PLACEMENT_3D('',#285,#286,#287);
#289=CIRCLE('',#288,0.1);
#290=EDGE_CURVE('',#276,#284,#289,.T.);
#291=ORIENTED_EDGE('',*,*,#290,.T.);
#292=CARTESIAN_POINT('',(-0.153495723,-5.297135287,3.545655023));
#293=VERTEX_POINT('',#292);
#294=CARTESIAN_POINT('',(-0.153495723,-5.297135287,3.545655023));
#295=DIRECTION('',(0.866025404,-0.5,0.));
#296=VECTOR('',#295,0.173205081);
#297=LINE('',#294,#296);
#298=EDGE_CURVE('',#293,#284,#297,.T.);
#299=ORIENTED_EDGE('',*,*,#298,.F.);
#300=CARTESIAN_POINT('',(-0.553495723,-5.297135287,3.545655023));
#301=VERTEX_POINT('',#300);
#302=CARTESIAN_POINT('',(-0.353495723,-5.643545448,3.545655023));
#303=DIRECTION('',(0.,0.,1.));
#304=DIRECTION('',(1.,0.,-0.));
#305=AXIS2_PLACEMENT_3D('',#302,#303,#304);
#306=CIRCLE('',#305,0.4);
#307=EDGE_CURVE('',#293,#301,#306,.T.);
#308=ORIENTED_EDGE('',*,*,#307,.T.);
#309=CARTESIAN_POINT('',(-0.703495723,-5.383737827,3.545655023));
#310=VERTEX_POINT('',#309);
#311=CARTESIAN_POINT('',(-0.703495723,-5.383737827,3.545655023));
#312=DIRECTION('',(0.866025404,0.5,0.));
#313=VECTOR('',#312,0.173205081);
#314=LINE('',#311,#313);
#315=EDGE_CURVE('',#310,#301,#314,.T.);
#316=ORIENTED_EDGE('',*,*,#315,.F.);
#317=CARTESIAN_POINT('',(-0.853495723,-5.297135287,3.545655023));
#318=VERTEX_POINT('',#317);
#319=CARTESIAN_POINT('',(-0.753495723,-5.297135287,3.545655023));
#320=DIRECTION('',(-0.,-0.,-1.));
#321=DIRECTION('',(1.,0.,-0.));
#322=AXIS2_PLACEMENT_3D('',#319,#320,#321);
#323=CIRCLE('',#322,0.1);
#324=EDGE_CURVE('',#310,#318,#323,.T.);
#325=ORIENTED_EDGE('',*,*,#324,.T.);
#326=CARTESIAN_POINT('',(-0.853495723,-5.123930206,3.545655023));
#327=VERTEX_POINT('',#326);
#328=CARTESIAN_POINT('',(-0.853495723,-5.123930206,3.545655023));
#329=DIRECTION('',(-0.,-1.,0.));
#330=VECTOR('',#329,0.173205081);
#331=LINE('',#328,#330);
#332=EDGE_CURVE('',#327,#318,#331,.T.);
#333=ORIENTED_EDGE('',*,*,#332,.F.);
#334=CARTESIAN_POINT('',(-1.053495723,-4.777520044,3.545655023));
#335=VERTEX_POINT('',#334);
#336=CARTESIAN_POINT('',(-1.253495723,-5.123930206,3.545655023));
#337=DIRECTION('',(0.,0.,1.));
#338=DIRECTION('',(1.,0.,-0.));
#339=AXIS2_PLACEMENT_3D('',#336,#337,#338);
#340=CIRCLE('',#339,0.4);
#341=EDGE_CURVE('',#327,#335,#340,.T.);
#342=ORIENTED_EDGE('',*,*,#341,.T.);
#343=CARTESIAN_POINT('',(-1.203495723,-4.690917504,3.545655023));
#344=VERTEX_POINT('',#343);
#345=CARTESIAN_POINT('',(-1.203495723,-4.690917504,3.545655023));
#346=DIRECTION('',(0.866025404,-0.5,0.));
#347=VECTOR('',#346,0.173205081);
#348=LINE('',#345,#347);
#349=EDGE_CURVE('',#344,#335,#348,.T.);
#350=ORIENTED_EDGE('',*,*,#349,.F.);
#351=CARTESIAN_POINT('',(-1.253495723,-4.604314964,3.545655023));
#352=VERTEX_POINT('',#351);
#353=CARTESIAN_POINT('',(-1.153495723,-4.604314964,3.545655023));
#354=DIRECTION('',(-0.,-0.,-1.));
#355=DIRECTION('',(1.,0.,-0.));
#356=AXIS2_PLACEMENT_3D('',#353,#354,#355);
#357=CIRCLE('',#356,0.1);
#358=EDGE_CURVE('',#344,#352,#357,.T.);
#359=ORIENTED_EDGE('',*,*,#358,.T.);
#360=CARTESIAN_POINT('',(-1.153495723,-4.604314964,3.545655023));
#361=DIRECTION('',(-0.,-0.,-1.));
#362=DIRECTION('',(1.,0.,-0.));
#363=AXIS2_PLACEMENT_3D('',#360,#361,#362);
#364=CIRCLE('',#363,0.1);
#365=EDGE_CURVE('',#352,#157,#364,.T.);
#366=ORIENTED_EDGE('',*,*,#365,.T.);
#367=EDGE_LOOP('',(#163,#172,#180,#189,#197,#206,#214,#223,#231,#240,#248,#257,#265,#274,#282,#291,#299,#308,#316,#325,#333,#342,#350,#359,#366));
#368=FACE_BOUND('',#367,.T.);
#369=ORIENTED_EDGE('',*,*,#141,.T.);
#370=EDGE_LOOP('',(#369));
#371=FACE_BOUND('',#370,.T.);
#372=ADVANCED_FACE('',(#368,#371),#153,.T.);
#373=CARTESIAN_POINT('',(-1.103495723,-4.459977396,3.145655023));
#374=DIRECTION('',(-0.5,0.866025404,0.));
#375=DIRECTION('',(-0.866025404,-0.5,0.));
#376=AXIS2_PLACEMENT_3D('',#373,#374,#375);
#377=PLANE('',#376);
#378=ORIENTED_EDGE('',*,*,#162,.T.);
#379=CARTESIAN_POINT('',(-1.203495723,-4.517712423,3.145655023));
#380=VERTEX_POINT('',#379);
#381=CARTESIAN_POINT('',(-1.203495723,-4.517712423,3.545655023));
#382=DIRECTION('',(-0.,-0.,-1.));
#383=VECTOR('',#382,0.4);
#384=LINE('',#381,#383);
#385=EDGE_CURVE('',#157,#380,#384,.T.);
#386=ORIENTED_EDGE('',*,*,#385,.T.);
#387=CARTESIAN_POINT('',(-1.053495723,-4.431109883,3.145655023));
#388=VERTEX_POINT('',#387);
#389=CARTESIAN_POINT('',(-1.053495723,-4.431109883,3.145655023));
#390=DIRECTION('',(-0.866025404,-0.5,0.));
#391=VECTOR('',#390,0.173205081);
#392=LINE('',#389,#391);
#393=EDGE_CURVE('',#388,#380,#392,.T.);
#394=ORIENTED_EDGE('',*,*,#393,.F.);
#395=CARTESIAN_POINT('',(-1.053495723,-4.431109883,3.145655023));
#396=DIRECTION('',(0.,0.,1.));
#397=VECTOR('',#396,0.4);
#398=LINE('',#395,#397);
#399=EDGE_CURVE('',#388,#155,#398,.T.);
#400=ORIENTED_EDGE('',*,*,#399,.T.);
#401=EDGE_LOOP('',(#378,#386,#394,#400));
#402=FACE_BOUND('',#401,.T.);
#403=ADVANCED_FACE('',(#402),#377,.F.);
#404=CARTESIAN_POINT('',(-1.103495723,-4.748652531,3.145655023));
#405=DIRECTION('',(-0.5,-0.866025404,0.));
#406=DIRECTION('',(0.866025404,-0.5,0.));
#407=AXIS2_PLACEMENT_3D('',#404,#405,#406);
#408=PLANE('',#407);
#409=CARTESIAN_POINT('',(-1.203495723,-4.690917504,3.145655023));
#410=VERTEX_POINT('',#409);
#411=CARTESIAN_POINT('',(-1.053495723,-4.777520044,3.145655023));
#412=VERTEX_POINT('',#411);
#413=CARTESIAN_POINT('',(-1.203495723,-4.690917504,3.145655023));
#414=DIRECTION('',(0.866025404,-0.5,0.));
#415=VECTOR('',#414,0.173205081);
#416=LINE('',#413,#415);
#417=EDGE_CURVE('',#410,#412,#416,.T.);
#418=ORIENTED_EDGE('',*,*,#417,.F.);
#419=CARTESIAN_POINT('',(-1.203495723,-4.690917504,3.145655023));
#420=DIRECTION('',(0.,0.,1.));
#421=VECTOR('',#420,0.4);
#422=LINE('',#419,#421);
#423=EDGE_CURVE('',#410,#344,#422,.T.);
#424=ORIENTED_EDGE('',*,*,#423,.T.);
#425=ORIENTED_EDGE('',*,*,#349,.T.);
#426=CARTESIAN_POINT('',(-1.053495723,-4.777520044,3.545655023));
#427=DIRECTION('',(-0.,-0.,-1.));
#428=VECTOR('',#427,0.4);
#429=LINE('',#426,#428);
#430=EDGE_CURVE('',#335,#412,#429,.T.);
#431=ORIENTED_EDGE('',*,*,#430,.T.);
#432=EDGE_LOOP('',(#418,#424,#425,#431));
#433=FACE_BOUND('',#432,.T.);
#434=ADVANCED_FACE('',(#433),#408,.F.);
#435=CARTESIAN_POINT('',(-0.853495723,-5.181665233,3.145655023));
#436=DIRECTION('',(-1.,0.,0.));
#437=DIRECTION('',(-0.,-1.,0.));
#438=AXIS2_PLACEMENT_3D('',#435,#436,#437);
#439=PLANE('',#438);
#440=ORIENTED_EDGE('',*,*,#332,.T.);
#441=CARTESIAN_POINT('',(-0.853495723,-5.297135287,3.145655023));
#442=VERTEX_POINT('',#441);
#443=CARTESIAN_POINT('',(-0.853495723,-5.297135287,3.545655023));
#444=DIRECTION('',(-0.,-0.,-1.));
#445=VECTOR('',#444,0.4);
#446=LINE('',#443,#445);
#447=EDGE_CURVE('',#318,#442,#446,.T.);
#448=ORIENTED_EDGE('',*,*,#447,.T.);
#449=CARTESIAN_POINT('',(-0.853495723,-5.123930206,3.145655023));
#450=VERTEX_POINT('',#449);
#451=CARTESIAN_POINT('',(-0.853495723,-5.123930206,3.145655023));
#452=DIRECTION('',(-0.,-1.,0.));
#453=VECTOR('',#452,0.173205081);
#454=LINE('',#451,#453);
#455=EDGE_CURVE('',#450,#442,#454,.T.);
#456=ORIENTED_EDGE('',*,*,#455,.F.);
#457=CARTESIAN_POINT('',(-0.853495723,-5.123930206,3.145655023));
#458=DIRECTION('',(0.,0.,1.));
#459=VECTOR('',#458,0.4);
#460=LINE('',#457,#459);
#461=EDGE_CURVE('',#450,#327,#460,.T.);
#462=ORIENTED_EDGE('',*,*,#461,.T.);
#463=EDGE_LOOP('',(#440,#448,#456,#462));
#464=FACE_BOUND('',#463,.T.);
#465=ADVANCED_FACE('',(#464),#439,.F.);
#466=CARTESIAN_POINT('',(-0.603495723,-5.3260028,3.145655023));
#467=DIRECTION('',(0.5,-0.866025404,0.));
#468=DIRECTION('',(0.866025404,0.5,0.));
#469=AXIS2_PLACEMENT_3D('',#466,#467,#468);
#470=PLANE('',#469);
#471=CARTESIAN_POINT('',(-0.703495723,-5.383737827,3.145655023));
#472=VERTEX_POINT('',#471);
#473=CARTESIAN_POINT('',(-0.553495723,-5.297135287,3.145655023));
#474=VERTEX_POINT('',#473);
#475=CARTESIAN_POINT('',(-0.703495723,-5.383737827,3.145655023));
#476=DIRECTION('',(0.866025404,0.5,0.));
#477=VECTOR('',#476,0.173205081);
#478=LINE('',#475,#477);
#479=EDGE_CURVE('',#472,#474,#478,.T.);
#480=ORIENTED_EDGE('',*,*,#479,.F.);
#481=CARTESIAN_POINT('',(-0.703495723,-5.383737827,3.145655023));
#482=DIRECTION('',(0.,0.,1.));
#483=VECTOR('',#482,0.4);
#484=LINE('',#481,#483);
#485=EDGE_CURVE('',#472,#310,#484,.T.);
#486=ORIENTED_EDGE('',*,*,#485,.T.);
#487=ORIENTED_EDGE('',*,*,#315,.T.);
#488=CARTESIAN_POINT('',(-0.553495723,-5.297135287,3.545655023));
#489=DIRECTION('',(-0.,-0.,-1.));
#490=VECTOR('',#489,0.4);
#491=LINE('',#488,#490);
#492=EDGE_CURVE('',#301,#474,#491,.T.);
#493=ORIENTED_EDGE('',*,*,#492,.T.);
#494=EDGE_LOOP('',(#480,#486,#487,#493));
#495=FACE_BOUND('',#494,.T.);
#496=ADVANCED_FACE('',(#495),#470,.F.);
#497=CARTESIAN_POINT('',(-0.103495723,-5.3260028,3.145655023));
#498=DIRECTION('',(-0.5,-0.866025404,0.));
#499=DIRECTION('',(0.866025404,-0.5,0.));
#500=AXIS2_PLACEMENT_3D('',#497,#498,#499);
#501=PLANE('',#500);
#502=ORIENTED_EDGE('',*,*,#298,.T.);
#503=CARTESIAN_POINT('',(-0.003495723,-5.383737827,3.145655023));
#504=VERTEX_POINT('',#503);
#505=CARTESIAN_POINT('',(-0.003495723,-5.383737827,3.545655023));
#506=DIRECTION('',(-0.,-0.,-1.));
#507=VECTOR('',#506,0.4);
#508=LINE('',#505,#507);
#509=EDGE_CURVE('',#284,#504,#508,.T.);
#510=ORIENTED_EDGE('',*,*,#509,.T.);
#511=CARTESIAN_POINT('',(-0.153495723,-5.297135287,3.145655023));
#512=VERTEX_POINT('',#511);
#513=CARTESIAN_POINT('',(-0.153495723,-5.297135287,3.145655023));
#514=DIRECTION('',(0.866025404,-0.5,0.));
#515=VECTOR('',#514,0.173205081);
#516=LINE('',#513,#515);
#517=EDGE_CURVE('',#512,#504,#516,.T.);
#518=ORIENTED_EDGE('',*,*,#517,.F.);
#519=CARTESIAN_POINT('',(-0.153495723,-5.297135287,3.145655023));
#520=DIRECTION('',(0.,0.,1.));
#521=VECTOR('',#520,0.4);
#522=LINE('',#519,#521);
#523=EDGE_CURVE('',#512,#293,#522,.T.);
#524=ORIENTED_EDGE('',*,*,#523,.T.);
#525=EDGE_LOOP('',(#502,#510,#518,#524));
#526=FACE_BOUND('',#525,.T.);
#527=ADVANCED_FACE('',(#526),#501,.F.);
#528=CARTESIAN_POINT('',(0.146504277,-5.181665233,3.145655023));
#529=DIRECTION('',(1.,-0.,0.));
#530=DIRECTION('',(0.,1.,0.));
#531=AXIS2_PLACEMENT_3D('',#528,#529,#530);
#532=PLANE('',#531);
#533=CARTESIAN_POINT('',(0.146504277,-5.297135287,3.145655023));
#534=VERTEX_POINT('',#533);
#535=CARTESIAN_POINT('',(0.146504277,-5.123930206,3.145655023));
#536=VERTEX_POINT('',#535);
#537=CARTESIAN_POINT('',(0.146504277,-5.297135287,3.145655023));
#538=DIRECTION('',(0.,1.,0.));
#539=VECTOR('',#538,0.173205081);
#540=LINE('',#537,#539);
#541=EDGE_CURVE('',#534,#536,#540,.T.);
#542=ORIENTED_EDGE('',*,*,#541,.F.);
#543=CARTESIAN_POINT('',(0.146504277,-5.297135287,3.145655023));
#544=DIRECTION('',(0.,0.,1.));
#545=VECTOR('',#544,0.4);
#546=LINE('',#543,#545);
#547=EDGE_CURVE('',#534,#276,#546,.T.);
#548=ORIENTED_EDGE('',*,*,#547,.T.);
#549=ORIENTED_EDGE('',*,*,#281,.T.);
#550=CARTESIAN_POINT('',(0.146504277,-5.123930206,3.545655023));
#551=DIRECTION('',(-0.,-0.,-1.));
#552=VECTOR('',#551,0.4);
#553=LINE('',#550,#552);
#554=EDGE_CURVE('',#267,#536,#553,.T.);
#555=ORIENTED_EDGE('',*,*,#554,.T.);
#556=EDGE_LOOP('',(#542,#548,#549,#555));
#557=FACE_BOUND('',#556,.T.);
#558=ADVANCED_FACE('',(#557),#532,.F.);
#559=CARTESIAN_POINT('',(0.396504277,-4.748652531,3.145655023));
#560=DIRECTION('',(0.5,-0.866025404,0.));
#561=DIRECTION('',(0.866025404,0.5,0.));
#562=AXIS2_PLACEMENT_3D('',#559,#560,#561);
#563=PLANE('',#562);
#564=ORIENTED_EDGE('',*,*,#264,.T.);
#565=CARTESIAN_POINT('',(0.496504277,-4.690917504,3.145655023));
#566=VERTEX_POINT('',#565);
#567=CARTESIAN_POINT('',(0.496504277,-4.690917504,3.545655023));
#568=DIRECTION('',(-0.,-0.,-1.));
#569=VECTOR('',#568,0.4);
#570=LINE('',#567,#569);
#571=EDGE_CURVE('',#250,#566,#570,.T.);
#572=ORIENTED_EDGE('',*,*,#571,.T.);
#573=CARTESIAN_POINT('',(0.346504277,-4.777520044,3.145655023));
#574=VERTEX_POINT('',#573);
#575=CARTESIAN_POINT('',(0.346504277,-4.777520044,3.145655023));
#576=DIRECTION('',(0.866025404,0.5,0.));
#577=VECTOR('',#576,0.173205081);
#578=LINE('',#575,#577);
#579=EDGE_CURVE('',#574,#566,#578,.T.);
#580=ORIENTED_EDGE('',*,*,#579,.F.);
#581=CARTESIAN_POINT('',(0.346504277,-4.777520044,3.145655023));
#582=DIRECTION('',(0.,0.,1.));
#583=VECTOR('',#582,0.4);
#584=LINE('',#581,#583);
#585=EDGE_CURVE('',#574,#259,#584,.T.);
#586=ORIENTED_EDGE('',*,*,#585,.T.);
#587=EDGE_LOOP('',(#564,#572,#580,#586));
#588=FACE_BOUND('',#587,.T.);
#589=ADVANCED_FACE('',(#588),#563,.F.);
#590=CARTESIAN_POINT('',(0.396504277,-4.459977396,3.145655023));
#591=DIRECTION('',(0.5,0.866025404,0.));
#592=DIRECTION('',(-0.866025404,0.5,0.));
#593=AXIS2_PLACEMENT_3D('',#590,#591,#592);
#594=PLANE('',#593);
#595=CARTESIAN_POINT('',(0.496504277,-4.517712423,3.145655023));
#596=VERTEX_POINT('',#595);
#597=CARTESIAN_POINT('',(0.346504277,-4.431109883,3.145655023));
#598=VERTEX_POINT('',#597);
#599=CARTESIAN_POINT('',(0.496504277,-4.517712423,3.145655023));
#600=DIRECTION('',(-0.866025404,0.5,0.));
#601=VECTOR('',#600,0.173205081);
#602=LINE('',#599,#601);
#603=EDGE_CURVE('',#596,#598,#602,.T.);
#604=ORIENTED_EDGE('',*,*,#603,.F.);
#605=CARTESIAN_POINT('',(0.496504277,-4.517712423,3.145655023));
#606=DIRECTION('',(0.,0.,1.));
#607=VECTOR('',#606,0.4);
#608=LINE('',#605,#607);
#609=EDGE_CURVE('',#596,#242,#608,.T.);
#610=ORIENTED_EDGE('',*,*,#609,.T.);
#611=ORIENTED_EDGE('',*,*,#247,.T.);
#612=CARTESIAN_POINT('',(0.346504277,-4.431109883,3.545655023));
#613=DIRECTION('',(-0.,-0.,-1.));
#614=VECTOR('',#613,0.4);
#615=LINE('',#612,#614);
#616=EDGE_CURVE('',#233,#598,#615,.T.);
#617=ORIENTED_EDGE('',*,*,#616,.T.);
#618=EDGE_LOOP('',(#604,#610,#611,#617));
#619=FACE_BOUND('',#618,.T.);
#620=ADVANCED_FACE('',(#619),#594,.F.);
#621=CARTESIAN_POINT('',(0.146504277,-4.026964694,3.145655023));
#622=DIRECTION('',(1.,-0.,0.));
#623=DIRECTION('',(0.,1.,0.));
#624=AXIS2_PLACEMENT_3D('',#621,#622,#623);
#625=PLANE('',#624);
#626=ORIENTED_EDGE('',*,*,#230,.T.);
#627=CARTESIAN_POINT('',(0.146504277,-3.911494641,3.145655023));
#628=VERTEX_POINT('',#627);
#629=CARTESIAN_POINT('',(0.146504277,-3.911494641,3.545655023));
#630=DIRECTION('',(-0.,-0.,-1.));
#631=VECTOR('',#630,0.4);
#632=LINE('',#629,#631);
#633=EDGE_CURVE('',#216,#628,#632,.T.);
#634=ORIENTED_EDGE('',*,*,#633,.T.);
#635=CARTESIAN_POINT('',(0.146504277,-4.084699721,3.145655023));
#636=VERTEX_POINT('',#635);
#637=CARTESIAN_POINT('',(0.146504277,-4.084699721,3.145655023));
#638=DIRECTION('',(0.,1.,0.));
#639=VECTOR('',#638,0.173205081);
#640=LINE('',#637,#639);
#641=EDGE_CURVE('',#636,#628,#640,.T.);
#642=ORIENTED_EDGE('',*,*,#641,.F.);
#643=CARTESIAN_POINT('',(0.146504277,-4.084699721,3.145655023));
#644=DIRECTION('',(0.,0.,1.));
#645=VECTOR('',#644,0.4);
#646=LINE('',#643,#645);
#647=EDGE_CURVE('',#636,#225,#646,.T.);
#648=ORIENTED_EDGE('',*,*,#647,.T.);
#649=EDGE_LOOP('',(#626,#634,#642,#648));
#650=FACE_BOUND('',#649,.T.);
#651=ADVANCED_FACE('',(#650),#625,.F.);
#652=CARTESIAN_POINT('',(-0.103495723,-3.882627127,3.145655023));
#653=DIRECTION('',(-0.5,0.866025404,0.));
#654=DIRECTION('',(-0.866025404,-0.5,0.));
#655=AXIS2_PLACEMENT_3D('',#652,#653,#654);
#656=PLANE('',#655);
#657=CARTESIAN_POINT('',(-0.003495723,-3.8248921,3.145655023));
#658=VERTEX_POINT('',#657);
#659=CARTESIAN_POINT('',(-0.153495723,-3.911494641,3.145655023));
#660=VERTEX_POINT('',#659);
#661=CARTESIAN_POINT('',(-0.003495723,-3.8248921,3.145655023));
#662=DIRECTION('',(-0.866025404,-0.5,0.));
#663=VECTOR('',#662,0.173205081);
#664=LINE('',#661,#663);
#665=EDGE_CURVE('',#658,#660,#664,.T.);
#666=ORIENTED_EDGE('',*,*,#665,.F.);
#667=CARTESIAN_POINT('',(-0.003495723,-3.8248921,3.145655023));
#668=DIRECTION('',(0.,0.,1.));
#669=VECTOR('',#668,0.4);
#670=LINE('',#667,#669);
#671=EDGE_CURVE('',#658,#208,#670,.T.);
#672=ORIENTED_EDGE('',*,*,#671,.T.);
#673=ORIENTED_EDGE('',*,*,#213,.T.);
#674=CARTESIAN_POINT('',(-0.153495723,-3.911494641,3.545655023));
#675=DIRECTION('',(-0.,-0.,-1.));
#676=VECTOR('',#675,0.4);
#677=LINE('',#674,#676);
#678=EDGE_CURVE('',#199,#660,#677,.T.);
#679=ORIENTED_EDGE('',*,*,#678,.T.);
#680=EDGE_LOOP('',(#666,#672,#673,#679));
#681=FACE_BOUND('',#680,.T.);
#682=ADVANCED_FACE('',(#681),#656,.F.);
#683=CARTESIAN_POINT('',(-0.603495723,-3.882627127,3.145655023));
#684=DIRECTION('',(0.5,0.866025404,0.));
#685=DIRECTION('',(-0.866025404,0.5,0.));
#686=AXIS2_PLACEMENT_3D('',#683,#684,#685);
#687=PLANE('',#686);
#688=ORIENTED_EDGE('',*,*,#196,.T.);
#689=CARTESIAN_POINT('',(-0.703495723,-3.8248921,3.145655023));
#690=VERTEX_POINT('',#689);
#691=CARTESIAN_POINT('',(-0.703495723,-3.8248921,3.545655023));
#692=DIRECTION('',(-0.,-0.,-1.));
#693=VECTOR('',#692,0.4);
#694=LINE('',#691,#693);
#695=EDGE_CURVE('',#182,#690,#694,.T.);
#696=ORIENTED_EDGE('',*,*,#695,.T.);
#697=CARTESIAN_POINT('',(-0.553495723,-3.911494641,3.145655023));
#698=VERTEX_POINT('',#697);
#699=CARTESIAN_POINT('',(-0.553495723,-3.911494641,3.145655023));
#700=DIRECTION('',(-0.866025404,0.5,0.));
#701=VECTOR('',#700,0.173205081);
#702=LINE('',#699,#701);
#703=EDGE_CURVE('',#698,#690,#702,.T.);
#704=ORIENTED_EDGE('',*,*,#703,.F.);
#705=CARTESIAN_POINT('',(-0.553495723,-3.911494641,3.145655023));
#706=DIRECTION('',(0.,0.,1.));
#707=VECTOR('',#706,0.4);
#708=LINE('',#705,#707);
#709=EDGE_CURVE('',#698,#191,#708,.T.);
#710=ORIENTED_EDGE('',*,*,#709,.T.);
#711=EDGE_LOOP('',(#688,#696,#704,#710));
#712=FACE_BOUND('',#711,.T.);
#713=ADVANCED_FACE('',(#712),#687,.F.);
#714=CARTESIAN_POINT('',(-0.853495723,-4.026964694,3.145655023));
#715=DIRECTION('',(-1.,0.,0.));
#716=DIRECTION('',(-0.,-1.,0.));
#717=AXIS2_PLACEMENT_3D('',#714,#715,#716);
#718=PLANE('',#717);
#719=CARTESIAN_POINT('',(-0.853495723,-3.911494641,3.145655023));
#720=VERTEX_POINT('',#719);
#721=CARTESIAN_POINT('',(-0.853495723,-4.084699721,3.145655023));
#722=VERTEX_POINT('',#721);
#723=CARTESIAN_POINT('',(-0.853495723,-3.911494641,3.145655023));
#724=DIRECTION('',(-0.,-1.,0.));
#725=VECTOR('',#724,0.173205081);
#726=LINE('',#723,#725);
#727=EDGE_CURVE('',#720,#722,#726,.T.);
#728=ORIENTED_EDGE('',*,*,#727,.F.);
#729=CARTESIAN_POINT('',(-0.853495723,-3.911494641,3.145655023));
#730=DIRECTION('',(0.,0.,1.));
#731=VECTOR('',#730,0.4);
#732=LINE('',#729,#731);
#733=EDGE_CURVE('',#720,#174,#732,.T.);
#734=ORIENTED_EDGE('',*,*,#733,.T.);
#735=ORIENTED_EDGE('',*,*,#179,.T.);
#736=CARTESIAN_POINT('',(-0.853495723,-4.084699721,3.545655023));
#737=DIRECTION('',(-0.,-0.,-1.));
#738=VECTOR('',#737,0.4);
#739=LINE('',#736,#738);
#740=EDGE_CURVE('',#165,#722,#739,.T.);
#741=ORIENTED_EDGE('',*,*,#740,.T.);
#742=EDGE_LOOP('',(#728,#734,#735,#741));
#743=FACE_BOUND('',#742,.T.);
#744=ADVANCED_FACE('',(#743),#718,.F.);
#745=CARTESIAN_POINT('',(0.,0.,3.145655023));
#746=DIRECTION('',(0.,0.,1.));
#747=DIRECTION('',(0.,-1.,0.));
#748=AXIS2_PLACEMENT_3D('',#745,#746,#747);
#749=PLANE('',#748);
#750=ORIENTED_EDGE('',*,*,#641,.T.);
#751=CARTESIAN_POINT('',(0.046504277,-3.911494641,3.145655023));
#752=DIRECTION('',(0.,0.,1.));
#753=DIRECTION('',(1.,0.,-0.));
#754=AXIS2_PLACEMENT_3D('',#751,#752,#753);
#755=CIRCLE('',#754,0.1);
#756=EDGE_CURVE('',#628,#658,#755,.T.);
#757=ORIENTED_EDGE('',*,*,#756,.T.);
#758=ORIENTED_EDGE('',*,*,#665,.T.);
#759=CARTESIAN_POINT('',(-0.353495723,-3.565084479,3.145655023));
#760=DIRECTION('',(-0.,-0.,-1.));
#761=DIRECTION('',(1.,0.,-0.));
#762=AXIS2_PLACEMENT_3D('',#759,#760,#761);
#763=CIRCLE('',#762,0.4);
#764=EDGE_CURVE('',#660,#698,#763,.T.);
#765=ORIENTED_EDGE('',*,*,#764,.T.);
#766=ORIENTED_EDGE('',*,*,#703,.T.);
#767=CARTESIAN_POINT('',(-0.753495723,-3.911494641,3.145655023));
#768=DIRECTION('',(0.,0.,1.));
#769=DIRECTION('',(1.,0.,-0.));
#770=AXIS2_PLACEMENT_3D('',#767,#768,#769);
#771=CIRCLE('',#770,0.1);
#772=EDGE_CURVE('',#690,#720,#771,.T.);
#773=ORIENTED_EDGE('',*,*,#772,.T.);
#774=ORIENTED_EDGE('',*,*,#727,.T.);
#775=CARTESIAN_POINT('',(-1.253495723,-4.084699721,3.145655023));
#776=DIRECTION('',(-0.,-0.,-1.));
#777=DIRECTION('',(1.,0.,-0.));
#778=AXIS2_PLACEMENT_3D('',#775,#776,#777);
#779=CIRCLE('',#778,0.4);
#780=EDGE_CURVE('',#722,#388,#779,.T.);
#781=ORIENTED_EDGE('',*,*,#780,.T.);
#782=ORIENTED_EDGE('',*,*,#393,.T.);
#783=CARTESIAN_POINT('',(-1.253495723,-4.604314964,3.145655023));
#784=VERTEX_POINT('',#783);
#785=CARTESIAN_POINT('',(-1.153495723,-4.604314964,3.145655023));
#786=DIRECTION('',(0.,0.,1.));
#787=DIRECTION('',(1.,0.,-0.));
#788=AXIS2_PLACEMENT_3D('',#785,#786,#787);
#789=CIRCLE('',#788,0.1);
#790=EDGE_CURVE('',#380,#784,#789,.T.);
#791=ORIENTED_EDGE('',*,*,#790,.T.);
#792=CARTESIAN_POINT('',(-1.153495723,-4.604314964,3.145655023));
#793=DIRECTION('',(0.,0.,1.));
#794=DIRECTION('',(1.,0.,-0.));
#795=AXIS2_PLACEMENT_3D('',#792,#793,#794);
#796=CIRCLE('',#795,0.1);
#797=EDGE_CURVE('',#784,#410,#796,.T.);
#798=ORIENTED_EDGE('',*,*,#797,.T.);
#799=ORIENTED_EDGE('',*,*,#417,.T.);
#800=CARTESIAN_POINT('',(-1.253495723,-5.123930206,3.145655023));
#801=DIRECTION('',(-0.,-0.,-1.));
#802=DIRECTION('',(1.,0.,-0.));
#803=AXIS2_PLACEMENT_3D('',#800,#801,#802);
#804=CIRCLE('',#803,0.4);
#805=EDGE_CURVE('',#412,#450,#804,.T.);
#806=ORIENTED_EDGE('',*,*,#805,.T.);
#807=ORIENTED_EDGE('',*,*,#455,.T.);
#808=CARTESIAN_POINT('',(-0.753495723,-5.297135287,3.145655023));
#809=DIRECTION('',(0.,0.,1.));
#810=DIRECTION('',(1.,0.,-0.));
#811=AXIS2_PLACEMENT_3D('',#808,#809,#810);
#812=CIRCLE('',#811,0.1);
#813=EDGE_CURVE('',#442,#472,#812,.T.);
#814=ORIENTED_EDGE('',*,*,#813,.T.);
#815=ORIENTED_EDGE('',*,*,#479,.T.);
#816=CARTESIAN_POINT('',(-0.353495723,-5.643545448,3.145655023));
#817=DIRECTION('',(-0.,-0.,-1.));
#818=DIRECTION('',(1.,0.,-0.));
#819=AXIS2_PLACEMENT_3D('',#816,#817,#818);
#820=CIRCLE('',#819,0.4);
#821=EDGE_CURVE('',#474,#512,#820,.T.);
#822=ORIENTED_EDGE('',*,*,#821,.T.);
#823=ORIENTED_EDGE('',*,*,#517,.T.);
#824=CARTESIAN_POINT('',(0.046504277,-5.297135287,3.145655023));
#825=DIRECTION('',(0.,0.,1.));
#826=DIRECTION('',(1.,0.,-0.));
#827=AXIS2_PLACEMENT_3D('',#824,#825,#826);
#828=CIRCLE('',#827,0.1);
#829=EDGE_CURVE('',#504,#534,#828,.T.);
#830=ORIENTED_EDGE('',*,*,#829,.T.);
#831=ORIENTED_EDGE('',*,*,#541,.T.);
#832=CARTESIAN_POINT('',(0.546504277,-5.123930206,3.145655023));
#833=DIRECTION('',(-0.,-0.,-1.));
#834=DIRECTION('',(1.,0.,-0.));
#835=AXIS2_PLACEMENT_3D('',#832,#833,#834);
#836=CIRCLE('',#835,0.4);
#837=EDGE_CURVE('',#536,#574,#836,.T.);
#838=ORIENTED_EDGE('',*,*,#837,.T.);
#839=ORIENTED_EDGE('',*,*,#579,.T.);
#840=CARTESIAN_POINT('',(0.446504277,-4.604314964,3.145655023));
#841=DIRECTION('',(0.,0.,1.));
#842=DIRECTION('',(1.,0.,-0.));
#843=AXIS2_PLACEMENT_3D('',#840,#841,#842);
#844=CIRCLE('',#843,0.1);
#845=EDGE_CURVE('',#566,#596,#844,.T.);
#846=ORIENTED_EDGE('',*,*,#845,.T.);
#847=ORIENTED_EDGE('',*,*,#603,.T.);
#848=CARTESIAN_POINT('',(0.546504277,-4.084699721,3.145655023));
#849=DIRECTION('',(-0.,-0.,-1.));
#850=DIRECTION('',(1.,0.,-0.));
#851=AXIS2_PLACEMENT_3D('',#848,#849,#850);
#852=CIRCLE('',#851,0.4);
#853=EDGE_CURVE('',#598,#636,#852,.T.);
#854=ORIENTED_EDGE('',*,*,#853,.T.);
#855=EDGE_LOOP('',(#750,#757,#758,#765,#766,#773,#774,#781,#782,#791,#798,#799,#806,#807,#814,#815,#822,#823,#830,#831,#838,#839,#846,#847,#854));
#856=FACE_BOUND('',#855,.T.);
#857=ADVANCED_FACE('',(#856),#749,.T.);
#858=CARTESIAN_POINT('',(-1.253495723,-4.084699721,3.145655023));
#859=DIRECTION('',(0.,0.,1.));
#860=DIRECTION('',(1.,0.,-0.));
#861=AXIS2_PLACEMENT_3D('',#858,#859,#860);
#862=CYLINDRICAL_SURFACE('',#861,0.4);
#863=ORIENTED_EDGE('',*,*,#780,.F.);
#864=ORIENTED_EDGE('',*,*,#740,.F.);
#865=ORIENTED_EDGE('',*,*,#171,.F.);
#866=ORIENTED_EDGE('',*,*,#399,.F.);
#867=EDGE_LOOP('',(#863,#864,#865,#866));
#868=FACE_BOUND('',#867,.T.);
#869=ADVANCED_FACE('',(#868),#862,.T.);
#870=CARTESIAN_POINT('',(0.546504277,-5.123930206,3.145655023));
#871=DIRECTION('',(0.,0.,1.));
#872=DIRECTION('',(1.,0.,-0.));
#873=AXIS2_PLACEMENT_3D('',#870,#871,#872);
#874=CYLINDRICAL_SURFACE('',#873,0.4);
#875=ORIENTED_EDGE('',*,*,#837,.F.);
#876=ORIENTED_EDGE('',*,*,#554,.F.);
#877=ORIENTED_EDGE('',*,*,#273,.F.);
#878=ORIENTED_EDGE('',*,*,#585,.F.);
#879=EDGE_LOOP('',(#875,#876,#877,#878));
#880=FACE_BOUND('',#879,.T.);
#881=ADVANCED_FACE('',(#880),#874,.T.);
#882=CARTESIAN_POINT('',(-1.253495723,-5.123930206,3.145655023));
#883=DIRECTION('',(0.,0.,1.));
#884=DIRECTION('',(1.,0.,-0.));
#885=AXIS2_PLACEMENT_3D('',#882,#883,#884);
#886=CYLINDRICAL_SURFACE('',#885,0.4);
#887=ORIENTED_EDGE('',*,*,#805,.F.);
#888=ORIENTED_EDGE('',*,*,#430,.F.);
#889=ORIENTED_EDGE('',*,*,#341,.F.);
#890=ORIENTED_EDGE('',*,*,#461,.F.);
#891=EDGE_LOOP('',(#887,#888,#889,#890));
#892=FACE_BOUND('',#891,.T.);
#893=ADVANCED_FACE('',(#892),#886,.T.);
#894=CARTESIAN_POINT('',(-0.353495723,-5.643545448,3.145655023));
#895=DIRECTION('',(0.,0.,1.));
#896=DIRECTION('',(1.,0.,-0.));
#897=AXIS2_PLACEMENT_3D('',#894,#895,#896);
#898=CYLINDRICAL_SURFACE('',#897,0.4);
#899=ORIENTED_EDGE('',*,*,#821,.F.);
#900=ORIENTED_EDGE('',*,*,#492,.F.);
#901=ORIENTED_EDGE('',*,*,#307,.F.);
#902=ORIENTED_EDGE('',*,*,#523,.F.);
#903=EDGE_LOOP('',(#899,#900,#901,#902));
#904=FACE_BOUND('',#903,.T.);
#905=ADVANCED_FACE('',(#904),#898,.T.);
#906=CARTESIAN_POINT('',(0.546504277,-4.084699721,3.145655023));
#907=DIRECTION('',(0.,0.,1.));
#908=DIRECTION('',(1.,0.,-0.));
#909=AXIS2_PLACEMENT_3D('',#906,#907,#908);
#910=CYLINDRICAL_SURFACE('',#909,0.4);
#911=ORIENTED_EDGE('',*,*,#853,.F.);
#912=ORIENTED_EDGE('',*,*,#616,.F.);
#913=ORIENTED_EDGE('',*,*,#239,.F.);
#914=ORIENTED_EDGE('',*,*,#647,.F.);
#915=EDGE_LOOP('',(#911,#912,#913,#914));
#916=FACE_BOUND('',#915,.T.);
#917=ADVANCED_FACE('',(#916),#910,.T.);
#918=CARTESIAN_POINT('',(-0.353495723,-3.565084479,3.145655023));
#919=DIRECTION('',(0.,0.,1.));
#920=DIRECTION('',(1.,0.,-0.));
#921=AXIS2_PLACEMENT_3D('',#918,#919,#920);
#922=CYLINDRICAL_SURFACE('',#921,0.4);
#923=ORIENTED_EDGE('',*,*,#764,.F.);
#924=ORIENTED_EDGE('',*,*,#678,.F.);
#925=ORIENTED_EDGE('',*,*,#205,.F.);
#926=ORIENTED_EDGE('',*,*,#709,.F.);
#927=EDGE_LOOP('',(#923,#924,#925,#926));
#928=FACE_BOUND('',#927,.T.);
#929=ADVANCED_FACE('',(#928),#922,.T.);
#930=CARTESIAN_POINT('',(0.046504277,-3.911494641,3.145655023));
#931=DIRECTION('',(0.,0.,-1.));
#932=DIRECTION('',(-1.,0.,0.));
#933=AXIS2_PLACEMENT_3D('',#930,#931,#932);
#934=CYLINDRICAL_SURFACE('',#933,0.1);
#935=ORIENTED_EDGE('',*,*,#756,.F.);
#936=ORIENTED_EDGE('',*,*,#633,.F.);
#937=ORIENTED_EDGE('',*,*,#222,.F.);
#938=ORIENTED_EDGE('',*,*,#671,.F.);
#939=EDGE_LOOP('',(#935,#936,#937,#938));
#940=FACE_BOUND('',#939,.T.);
#941=ADVANCED_FACE('',(#940),#934,.F.);
#942=CARTESIAN_POINT('',(-1.153495723,-4.604314964,3.145655023));
#943=DIRECTION('',(0.,0.,-1.));
#944=DIRECTION('',(-1.,0.,0.));
#945=AXIS2_PLACEMENT_3D('',#942,#943,#944);
#946=CYLINDRICAL_SURFACE('',#945,0.1);
#947=CARTESIAN_POINT('',(-1.253495723,-4.604314964,3.145655023));
#948=DIRECTION('',(-0.,-0.,1.));
#949=VECTOR('',#948,0.4);
#950=LINE('',#947,#949);
#951=EDGE_CURVE('',#784,#352,#950,.T.);
#952=ORIENTED_EDGE('',*,*,#951,.F.);
#953=ORIENTED_EDGE('',*,*,#790,.F.);
#954=ORIENTED_EDGE('',*,*,#385,.F.);
#955=ORIENTED_EDGE('',*,*,#365,.F.);
#956=EDGE_LOOP('',(#952,#953,#954,#955));
#957=FACE_BOUND('',#956,.T.);
#958=ADVANCED_FACE('',(#957),#946,.F.);
#959=CARTESIAN_POINT('',(-0.753495723,-3.911494641,3.145655023));
#960=DIRECTION('',(0.,0.,-1.));
#961=DIRECTION('',(-1.,0.,0.));
#962=AXIS2_PLACEMENT_3D('',#959,#960,#961);
#963=CYLINDRICAL_SURFACE('',#962,0.1);
#964=ORIENTED_EDGE('',*,*,#772,.F.);
#965=ORIENTED_EDGE('',*,*,#695,.F.);
#966=ORIENTED_EDGE('',*,*,#188,.F.);
#967=ORIENTED_EDGE('',*,*,#733,.F.);
#968=EDGE_LOOP('',(#964,#965,#966,#967));
#969=FACE_BOUND('',#968,.T.);
#970=ADVANCED_FACE('',(#969),#963,.F.);
#971=CARTESIAN_POINT('',(-0.753495723,-5.297135287,3.145655023));
#972=DIRECTION('',(0.,0.,-1.));
#973=DIRECTION('',(-1.,0.,0.));
#974=AXIS2_PLACEMENT_3D('',#971,#972,#973);
#975=CYLINDRICAL_SURFACE('',#974,0.1);
#976=ORIENTED_EDGE('',*,*,#813,.F.);
#977=ORIENTED_EDGE('',*,*,#447,.F.);
#978=ORIENTED_EDGE('',*,*,#324,.F.);
#979=ORIENTED_EDGE('',*,*,#485,.F.);
#980=EDGE_LOOP('',(#976,#977,#978,#979));
#981=FACE_BOUND('',#980,.T.);
#982=ADVANCED_FACE('',(#981),#975,.F.);
#983=CARTESIAN_POINT('',(0.046504277,-5.297135287,3.145655023));
#984=DIRECTION('',(0.,0.,-1.));
#985=DIRECTION('',(-1.,0.,0.));
#986=AXIS2_PLACEMENT_3D('',#983,#984,#985);
#987=CYLINDRICAL_SURFACE('',#986,0.1);
#988=ORIENTED_EDGE('',*,*,#829,.F.);
#989=ORIENTED_EDGE('',*,*,#509,.F.);
#990=ORIENTED_EDGE('',*,*,#290,.F.);
#991=ORIENTED_EDGE('',*,*,#547,.F.);
#992=EDGE_LOOP('',(#988,#989,#990,#991));
#993=FACE_BOUND('',#992,.T.);
#994=ADVANCED_FACE('',(#993),#987,.F.);
#995=CARTESIAN_POINT('',(0.446504277,-4.604314964,3.145655023));
#996=DIRECTION('',(0.,0.,-1.));
#997=DIRECTION('',(-1.,0.,0.));
#998=AXIS2_PLACEMENT_3D('',#995,#996,#997);
#999=CYLINDRICAL_SURFACE('',#998,0.1);
#1000=ORIENTED_EDGE('',*,*,#845,.F.);
#1001=ORIENTED_EDGE('',*,*,#571,.F.);
#1002=ORIENTED_EDGE('',*,*,#256,.F.);
#1003=ORIENTED_EDGE('',*,*,#609,.F.);
#1004=EDGE_LOOP('',(#1000,#1001,#1002,#1003));
#1005=FACE_BOUND('',#1004,.T.);
#1006=ADVANCED_FACE('',(#1005),#999,.F.);
#1007=CARTESIAN_POINT('',(-1.153495723,-4.604314964,3.145655023));
#1008=DIRECTION('',(0.,0.,-1.));
#1009=DIRECTION('',(-1.,0.,0.));
#1010=AXIS2_PLACEMENT_3D('',#1007,#1008,#1009);
#1011=CYLINDRICAL_SURFACE('',#1010,0.1);
#1012=ORIENTED_EDGE('',*,*,#951,.T.);
#1013=ORIENTED_EDGE('',*,*,#358,.F.);
#1014=ORIENTED_EDGE('',*,*,#423,.F.);
#1015=ORIENTED_EDGE('',*,*,#797,.F.);
#1016=EDGE_LOOP('',(#1012,#1013,#1014,#1015));
#1017=FACE_BOUND('',#1016,.T.);
#1018=ADVANCED_FACE('',(#1017),#1011,.F.);
#1019=CLOSED_SHELL('',(#86,#113,#122,#148,#372,#403,#434,#465,#496,#527,#558,#589,#620,#651,#682,#713,#744,#857,#869,#881,#893,#905,#917,#929,#941,#958,
#970,#982,#994,#1006,#1018));
#1020=MANIFOLD_SOLID_BREP('\X2\87BA4E1D53604F4D\X0\',#1019);
#1021=COLOUR_RGB('',0.749019623,0.737254918,0.725490212);
#1022=FILL_AREA_STYLE_COLOUR('',#1021);
#1023=FILL_AREA_STYLE('',(#1022));
#1024=SURFACE_STYLE_FILL_AREA(#1023);
#1025=SURFACE_SIDE_STYLE('',(#1024));
#1026=SURFACE_STYLE_USAGE(.BOTH.,#1025);
#1027=PRESENTATION_STYLE_ASSIGNMENT((#1026));
#26=STYLED_ITEM('',(#1027),#1020);
#16=SHAPE_REPRESENTATION('\X2\87BA4E1D53604F4D\X0\',(#15),#10);
#17=ADVANCED_BREP_SHAPE_REPRESENTATION('\X2\87BA4E1D53604F4D\X0\',(#1020),#10);
#1035=SHAPE_REPRESENTATION_RELATIONSHIP('','',#16,#17);
#1036=CARTESIAN_POINT('',(0.,0.,0.));
#1037=DIRECTION('',(0.,0.,1.));
#1038=DIRECTION('',(1.,0.,0.));
#1039=AXIS2_PLACEMENT_3D('',#1036,#1037,#1038);
#1041=MAPPED_ITEM('',#1040,#1039);
#1040=REPRESENTATION_MAP(#1039,#16);
#1042=APPLICATION_CONTEXT('Managed model based 3d engineering');
#1043=APPLICATION_PROTOCOL_DEFINITION('international standard','ap242_managed_model_based_3d_engineering',2014,#1042);
#1044=PRODUCT_CONTEXT('',#1042,'mechanical');
#1045=PRODUCT_DEFINITION_CONTEXT('part definition',#1042,'design');
#24=PRODUCT('\X2\87BA4E1D53604F4D\X0\','\X2\87BA4E1D53604F4D\X0\','',(#1044));
#1046=PRODUCT_RELATED_PRODUCT_CATEGORY('part','',(#24));
#1047=PRODUCT_DEFINITION_FORMATION_WITH_SPECIFIED_SOURCE('','',#24,.NOT_KNOWN.);
#25=PRODUCT_DEFINITION('design','',#1047,#1045);
#23=PRODUCT_DEFINITION_SHAPE('','',#25);
#1048=SHAPE_DEFINITION_REPRESENTATION(#23,#16);
#11=DRAUGHTING_MODEL('',(#1041),#10);
#1049=DESCRIPTIVE_REPRESENTATION_ITEM('KEY','C:\\Users\\Nalani\\AppData\\Local\\Packages\\Shapr3D.Shapr3D_j403pzjkqtqbj\\TempState\\809b2146-3290-4620-801f-99d64d0b590f.tmp');
#1050=PROPERTY_DEFINITION('KEY','',#25);
#1051=REPRESENTATION('',(#1049),#10);
#1052=PROPERTY_DEFINITION_REPRESENTATION(#1050,#1051);
#1053=GENERAL_PROPERTY('','KEY','');
#1054=GENERAL_PROPERTY_ASSOCIATION('','',#1053,#1050);
#1=MECHANICAL_DESIGN_GEOMETRIC_PRESENTATION_REPRESENTATION('',(#26),#10);
ENDSEC;
END-ISO-10303-21;
