ISO-10303-21;
HEADER;

/* File generated by Shapr3D Version 26.123.11423.0 */

FILE_DESCRIPTION(('HOOPS Exchange Step'),'2;1');

FILE_NAME('C:\\Users\\Nalani\\AppData\\Local\\Packages\\Shapr3D.Shapr3D_j403pzjkqtqbj\\TempState\\export\\temp_export',
'2026-08-03T16:12:13+08:00',
('Nalani'),
('Shapr3D Limited'),
'HOOPS Exchange 2026.3',
'Shapr3D',
'Authorized');

FILE_SCHEMA( ('AP242_MANAGED_MODEL_BASED_3D_ENGINEERING_MIM_LF {1 0 10303 442 1 1 4}') );

ENDSEC;

DATA;
#3=(NAMED_UNIT(*)PLANE_ANGLE_UNIT()SI_UNIT($,.RADIAN.));
#4=PLANE_ANGLE_MEASURE_WITH_UNIT(PLANE_ANGLE_MEASURE(0.0174532925),#3);
#5=(CONVERSION_BASED_UNIT('DEGREE',#4)NAMED_UNIT(#6)PLANE_ANGLE_UNIT());
#6=DIMENSIONAL_EXPONENTS(0.,0.,0.,0.,0.,0.,0.);
#7=(NAMED_UNIT(*)SI_UNIT($,.STERADIAN.)SOLID_ANGLE_UNIT());
#8=(LENGTH_UNIT()NAMED_UNIT(*)SI_UNIT(.MILLI.,.METRE.));
#9=UNCERTAINTY_MEASURE_WITH_UNIT(LENGTH_MEASURE(1.000000E-05),#8,'DISTANCE_ACCURACY_VALUE','Maximum Tolerance applied to model');
#10=(GEOMETRIC_REPRESENTATION_CONTEXT(3)GLOBAL_UNCERTAINTY_ASSIGNED_CONTEXT((#9))GLOBAL_UNIT_ASSIGNED_CONTEXT((#8,#5,#7))REPRESENTATION_CONTEXT('','\X2\87BA4E1D53604F4D\X0\'));
#12=CARTESIAN_POINT('',(0.,0.,0.));
#13=DIRECTION('',(0.,0.,1.));
#14=DIRECTION('',(1.,0.,0.));
#15=AXIS2_PLACEMENT_3D('',#12,#13,#14);
#27=CARTESIAN_POINT('',(3.852280096,-3.224999879,-3.14093967));
#28=DIRECTION('',(0.,0.,-1.));
#29=DIRECTION('',(-1.,0.,0.));
#30=AXIS2_PLACEMENT_3D('',#27,#28,#29);
#31=PLANE('',#30);
#32=CARTESIAN_POINT('',(4.552280096,-2.874999879,-3.14093967));
#33=VERTEX_POINT('',#32);
#34=CARTESIAN_POINT('',(3.852280096,-3.574999879,-3.14093967));
#35=VERTEX_POINT('',#34);
#36=CARTESIAN_POINT('',(3.852280096,-2.874999879,-3.14093967));
#37=DIRECTION('',(0.,0.,1.));
#38=DIRECTION('',(0.,-1.,0.));
#39=AXIS2_PLACEMENT_3D('',#36,#37,#38);
#40=CIRCLE('',#39,0.7);
#41=EDGE_CURVE('',#33,#35,#40,.T.);
#42=ORIENTED_EDGE('',*,*,#41,.F.);
#43=CARTESIAN_POINT('',(3.852280096,-2.874999879,-3.14093967));
#44=DIRECTION('',(0.,0.,1.));
#45=DIRECTION('',(0.,-1.,0.));
#46=AXIS2_PLACEMENT_3D('',#43,#44,#45);
#47=CIRCLE('',#46,0.7);
#48=EDGE_CURVE('',#35,#33,#47,.T.);
#49=ORIENTED_EDGE('',*,*,#48,.F.);
#50=EDGE_LOOP('',(#42,#49));
#51=FACE_BOUND('',#50,.T.);
#52=ADVANCED_FACE('',(#51),#31,.T.);
#53=CARTESIAN_POINT('',(3.852280096,-2.874999879,-3.14093967));
#54=DIRECTION('',(0.,0.,1.));
#55=DIRECTION('',(1.,0.,-0.));
#56=AXIS2_PLACEMENT_3D('',#53,#54,#55);
#57=CYLINDRICAL_SURFACE('',#56,0.7);
#58=CARTESIAN_POINT('',(4.552280096,-2.874999879,-0.54093967));
#59=VERTEX_POINT('',#58);
#60=CARTESIAN_POINT('',(4.552280096,-2.874999879,-0.54093967));
#61=DIRECTION('',(-0.,-0.,-1.));
#62=VECTOR('',#61,2.6);
#63=LINE('',#60,#62);
#64=EDGE_CURVE('',#59,#33,#63,.T.);
#65=ORIENTED_EDGE('',*,*,#64,.T.);
#66=ORIENTED_EDGE('',*,*,#41,.T.);
#67=ORIENTED_EDGE('',*,*,#48,.T.);
#68=ORIENTED_EDGE('',*,*,#64,.F.);
#69=CARTESIAN_POINT('',(3.852280096,-3.574999879,-0.54093967));
#70=VERTEX_POINT('',#69);
#71=CARTESIAN_POINT('',(3.852280096,-2.874999879,-0.54093967));
#72=DIRECTION('',(0.,0.,1.));
#73=DIRECTION('',(0.,-1.,0.));
#74=AXIS2_PLACEMENT_3D('',#71,#72,#73);
#75=CIRCLE('',#74,0.7);
#76=EDGE_CURVE('',#70,#59,#75,.T.);
#77=ORIENTED_EDGE('',*,*,#76,.F.);
#78=CARTESIAN_POINT('',(3.852280096,-2.874999879,-0.54093967));
#79=DIRECTION('',(0.,0.,1.));
#80=DIRECTION('',(0.,-1.,0.));
#81=AXIS2_PLACEMENT_3D('',#78,#79,#80);
#82=CIRCLE('',#81,0.7);
#83=EDGE_CURVE('',#59,#70,#82,.T.);
#84=ORIENTED_EDGE('',*,*,#83,.F.);
#85=EDGE_LOOP('',(#65,#66,#67,#68,#77,#84));
#86=FACE_BOUND('',#85,.T.);
#87=ADVANCED_FACE('',(#86),#57,.T.);
#88=CARTESIAN_POINT('',(3.852280096,-3.874999879,-0.54093967));
#89=DIRECTION('',(0.,0.,-1.));
#90=DIRECTION('',(-1.,0.,0.));
#91=AXIS2_PLACEMENT_3D('',#88,#89,#90);
#92=PLANE('',#91);
#93=ORIENTED_EDGE('',*,*,#76,.T.);
#94=ORIENTED_EDGE('',*,*,#83,.T.);
#95=EDGE_LOOP('',(#93,#94));
#96=FACE_BOUND('',#95,.T.);
#97=CARTESIAN_POINT('',(5.152280096,-2.874999879,-0.54093967));
#98=VERTEX_POINT('',#97);
#99=CARTESIAN_POINT('',(3.852280096,-4.174999879,-0.54093967));
#100=VERTEX_POINT('',#99);
#101=CARTESIAN_POINT('',(3.852280096,-2.874999879,-0.54093967));
#102=DIRECTION('',(0.,0.,1.));
#103=DIRECTION('',(0.,-1.,0.));
#104=AXIS2_PLACEMENT_3D('',#101,#102,#103);
#105=CIRCLE('',#104,1.3);
#106=EDGE_CURVE('',#98,#100,#105,.T.);
#107=ORIENTED_EDGE('',*,*,#106,.F.);
#108=CARTESIAN_POINT('',(3.852280096,-2.874999879,-0.54093967));
#109=DIRECTION('',(0.,0.,1.));
#110=DIRECTION('',(0.,-1.,0.));
#111=AXIS2_PLACEMENT_3D('',#108,#109,#110);
#112=CIRCLE('',#111,1.3);
#113=EDGE_CURVE('',#100,#98,#112,.T.);
#114=ORIENTED_EDGE('',*,*,#113,.F.);
#115=EDGE_LOOP('',(#107,#114));
#116=FACE_BOUND('',#115,.T.);
#117=ADVANCED_FACE('',(#96,#116),#92,.T.);
#118=CARTESIAN_POINT('',(3.852280096,-2.874999879,-3.14093967));
#119=DIRECTION('',(0.,0.,1.));
#120=DIRECTION('',(1.,0.,-0.));
#121=AXIS2_PLACEMENT_3D('',#118,#119,#120);
#122=CYLINDRICAL_SURFACE('',#121,1.3);
#123=CARTESIAN_POINT('',(5.152280096,-2.874999879,-0.04093967));
#124=VERTEX_POINT('',#123);
#125=CARTESIAN_POINT('',(5.152280096,-2.874999879,-0.04093967));
#126=DIRECTION('',(-0.,-0.,-1.));
#127=VECTOR('',#126,0.5);
#128=LINE('',#125,#127);
#129=EDGE_CURVE('',#124,#98,#128,.T.);
#130=ORIENTED_EDGE('',*,*,#129,.T.);
#131=ORIENTED_EDGE('',*,*,#106,.T.);
#132=ORIENTED_EDGE('',*,*,#113,.T.);
#133=ORIENTED_EDGE('',*,*,#129,.F.);
#134=CARTESIAN_POINT('',(3.852280096,-4.174999879,-0.04093967));
#135=VERTEX_POINT('',#134);
#136=CARTESIAN_POINT('',(3.852280096,-2.874999879,-0.04093967));
#137=DIRECTION('',(0.,0.,1.));
#138=DIRECTION('',(0.,-1.,0.));
#139=AXIS2_PLACEMENT_3D('',#136,#137,#138);
#140=CIRCLE('',#139,1.3);
#141=EDGE_CURVE('',#135,#124,#140,.T.);
#142=ORIENTED_EDGE('',*,*,#141,.F.);
#143=CARTESIAN_POINT('',(3.852280096,-2.874999879,-0.04093967));
#144=DIRECTION('',(0.,0.,1.));
#145=DIRECTION('',(0.,-1.,0.));
#146=AXIS2_PLACEMENT_3D('',#143,#144,#145);
#147=CIRCLE('',#146,1.3);
#148=EDGE_CURVE('',#124,#135,#147,.T.);
#149=ORIENTED_EDGE('',*,*,#148,.F.);
#150=EDGE_LOOP('',(#130,#131,#132,#133,#142,#149));
#151=FACE_BOUND('',#150,.T.);
#152=ADVANCED_FACE('',(#151),#122,.T.);
#153=CARTESIAN_POINT('',(3.852280096,-3.224999879,-0.04093967));
#154=DIRECTION('',(0.,0.,1.));
#155=DIRECTION('',(1.,0.,0.));
#156=AXIS2_PLACEMENT_3D('',#153,#154,#155);
#157=PLANE('',#156);
#158=CARTESIAN_POINT('',(3.452280096,-3.279145067,-0.04093967));
#159=VERTEX_POINT('',#158);
#160=CARTESIAN_POINT('',(3.452280096,-3.394615121,-0.04093967));
#161=VERTEX_POINT('',#160);
#162=CARTESIAN_POINT('',(3.452280096,-3.279145067,-0.04093967));
#163=DIRECTION('',(-0.,-1.,0.));
#164=VECTOR('',#163,0.115470054);
#165=LINE('',#162,#164);
#166=EDGE_CURVE('',#159,#161,#165,.T.);
#167=ORIENTED_EDGE('',*,*,#166,.F.);
#168=CARTESIAN_POINT('',(3.302280096,-3.019337446,-0.04093967));
#169=VERTEX_POINT('',#168);
#170=CARTESIAN_POINT('',(3.152280096,-3.279145067,-0.04093967));
#171=DIRECTION('',(0.,0.,1.));
#172=DIRECTION('',(1.,0.,-0.));
#173=AXIS2_PLACEMENT_3D('',#170,#171,#172);
#174=CIRCLE('',#173,0.3);
#175=EDGE_CURVE('',#159,#169,#174,.T.);
#176=ORIENTED_EDGE('',*,*,#175,.T.);
#177=CARTESIAN_POINT('',(3.202280096,-2.961602419,-0.04093967));
#178=VERTEX_POINT('',#177);
#179=CARTESIAN_POINT('',(3.202280096,-2.961602419,-0.04093967));
#180=DIRECTION('',(0.866025404,-0.5,0.));
#181=VECTOR('',#180,0.115470054);
#182=LINE('',#179,#181);
#183=EDGE_CURVE('',#178,#169,#182,.T.);
#184=ORIENTED_EDGE('',*,*,#183,.F.);
#185=CARTESIAN_POINT('',(3.152280096,-2.874999879,-0.04093967));
#186=VERTEX_POINT('',#185);
#187=CARTESIAN_POINT('',(3.252280096,-2.874999879,-0.04093967));
#188=DIRECTION('',(-0.,-0.,-1.));
#189=DIRECTION('',(1.,0.,-0.));
#190=AXIS2_PLACEMENT_3D('',#187,#188,#189);
#191=CIRCLE('',#190,0.1);
#192=EDGE_CURVE('',#178,#186,#191,.T.);
#193=ORIENTED_EDGE('',*,*,#192,.T.);
#194=CARTESIAN_POINT('',(3.202280096,-2.788397338,-0.04093967));
#195=VERTEX_POINT('',#194);
#196=CARTESIAN_POINT('',(3.252280096,-2.874999879,-0.04093967));
#197=DIRECTION('',(-0.,-0.,-1.));
#198=DIRECTION('',(1.,0.,-0.));
#199=AXIS2_PLACEMENT_3D('',#196,#197,#198);
#200=CIRCLE('',#199,0.1);
#201=EDGE_CURVE('',#186,#195,#200,.T.);
#202=ORIENTED_EDGE('',*,*,#201,.T.);
#203=CARTESIAN_POINT('',(3.302280096,-2.730662311,-0.04093967));
#204=VERTEX_POINT('',#203);
#205=CARTESIAN_POINT('',(3.302280096,-2.730662311,-0.04093967));
#206=DIRECTION('',(-0.866025404,-0.5,0.));
#207=VECTOR('',#206,0.115470054);
#208=LINE('',#205,#207);
#209=EDGE_CURVE('',#204,#195,#208,.T.);
#210=ORIENTED_EDGE('',*,*,#209,.F.);
#211=CARTESIAN_POINT('',(3.452280096,-2.47085469,-0.04093967));
#212=VERTEX_POINT('',#211);
#213=CARTESIAN_POINT('',(3.152280096,-2.47085469,-0.04093967));
#214=DIRECTION('',(0.,0.,1.));
#215=DIRECTION('',(1.,0.,-0.));
#216=AXIS2_PLACEMENT_3D('',#213,#214,#215);
#217=CIRCLE('',#216,0.3);
#218=EDGE_CURVE('',#204,#212,#217,.T.);
#219=ORIENTED_EDGE('',*,*,#218,.T.);
#220=CARTESIAN_POINT('',(3.452280096,-2.355384637,-0.04093967));
#221=VERTEX_POINT('',#220);
#222=CARTESIAN_POINT('',(3.452280096,-2.355384637,-0.04093967));
#223=DIRECTION('',(-0.,-1.,0.));
#224=VECTOR('',#223,0.115470054);
#225=LINE('',#222,#224);
#226=EDGE_CURVE('',#221,#212,#225,.T.);
#227=ORIENTED_EDGE('',*,*,#226,.F.);
#228=CARTESIAN_POINT('',(3.602280096,-2.268782096,-0.04093967));
#229=VERTEX_POINT('',#228);
#230=CARTESIAN_POINT('',(3.552280096,-2.355384637,-0.04093967));
#231=DIRECTION('',(-0.,-0.,-1.));
#232=DIRECTION('',(1.,0.,-0.));
#233=AXIS2_PLACEMENT_3D('',#230,#231,#232);
#234=CIRCLE('',#233,0.1);
#235=EDGE_CURVE('',#221,#229,#234,.T.);
#236=ORIENTED_EDGE('',*,*,#235,.T.);
#237=CARTESIAN_POINT('',(3.702280096,-2.326517123,-0.04093967));
#238=VERTEX_POINT('',#237);
#239=CARTESIAN_POINT('',(3.702280096,-2.326517123,-0.04093967));
#240=DIRECTION('',(-0.866025404,0.5,0.));
#241=VECTOR('',#240,0.115470054);
#242=LINE('',#239,#241);
#243=EDGE_CURVE('',#238,#229,#242,.T.);
#244=ORIENTED_EDGE('',*,*,#243,.F.);
#245=CARTESIAN_POINT('',(4.002280096,-2.326517123,-0.04093967));
#246=VERTEX_POINT('',#245);
#247=CARTESIAN_POINT('',(3.852280096,-2.066709502,-0.04093967));
#248=DIRECTION('',(0.,0.,1.));
#249=DIRECTION('',(1.,0.,-0.));
#250=AXIS2_PLACEMENT_3D('',#247,#248,#249);
#251=CIRCLE('',#250,0.3);
#252=EDGE_CURVE('',#238,#246,#251,.T.);
#253=ORIENTED_EDGE('',*,*,#252,.T.);
#254=CARTESIAN_POINT('',(4.102280096,-2.268782096,-0.04093967));
#255=VERTEX_POINT('',#254);
#256=CARTESIAN_POINT('',(4.102280096,-2.268782096,-0.04093967));
#257=DIRECTION('',(-0.866025404,-0.5,0.));
#258=VECTOR('',#257,0.115470054);
#259=LINE('',#256,#258);
#260=EDGE_CURVE('',#255,#246,#259,.T.);
#261=ORIENTED_EDGE('',*,*,#260,.F.);
#262=CARTESIAN_POINT('',(4.252280096,-2.355384637,-0.04093967));
#263=VERTEX_POINT('',#262);
#264=CARTESIAN_POINT('',(4.152280096,-2.355384637,-0.04093967));
#265=DIRECTION('',(-0.,-0.,-1.));
#266=DIRECTION('',(1.,0.,-0.));
#267=AXIS2_PLACEMENT_3D('',#264,#265,#266);
#268=CIRCLE('',#267,0.1);
#269=EDGE_CURVE('',#255,#263,#268,.T.);
#270=ORIENTED_EDGE('',*,*,#269,.T.);
#271=CARTESIAN_POINT('',(4.252280096,-2.47085469,-0.04093967));
#272=VERTEX_POINT('',#271);
#273=CARTESIAN_POINT('',(4.252280096,-2.47085469,-0.04093967));
#274=DIRECTION('',(-0.,1.,0.));
#275=VECTOR('',#274,0.115470054);
#276=LINE('',#273,#275);
#277=EDGE_CURVE('',#272,#263,#276,.T.);
#278=ORIENTED_EDGE('',*,*,#277,.F.);
#279=CARTESIAN_POINT('',(4.402280096,-2.730662311,-0.04093967));
#280=VERTEX_POINT('',#279);
#281=CARTESIAN_POINT('',(4.552280096,-2.47085469,-0.04093967));
#282=DIRECTION('',(0.,0.,1.));
#283=DIRECTION('',(1.,0.,-0.));
#284=AXIS2_PLACEMENT_3D('',#281,#282,#283);
#285=CIRCLE('',#284,0.3);
#286=EDGE_CURVE('',#272,#280,#285,.T.);
#287=ORIENTED_EDGE('',*,*,#286,.T.);
#288=CARTESIAN_POINT('',(4.502280096,-2.788397338,-0.04093967));
#289=VERTEX_POINT('',#288);
#290=CARTESIAN_POINT('',(4.502280096,-2.788397338,-0.04093967));
#291=DIRECTION('',(-0.866025404,0.5,0.));
#292=VECTOR('',#291,0.115470054);
#293=LINE('',#290,#292);
#294=EDGE_CURVE('',#289,#280,#293,.T.);
#295=ORIENTED_EDGE('',*,*,#294,.F.);
#296=CARTESIAN_POINT('',(4.502280096,-2.961602419,-0.04093967));
#297=VERTEX_POINT('',#296);
#298=CARTESIAN_POINT('',(4.452280096,-2.874999879,-0.04093967));
#299=DIRECTION('',(-0.,-0.,-1.));
#300=DIRECTION('',(1.,0.,-0.));
#301=AXIS2_PLACEMENT_3D('',#298,#299,#300);
#302=CIRCLE('',#301,0.1);
#303=EDGE_CURVE('',#289,#297,#302,.T.);
#304=ORIENTED_EDGE('',*,*,#303,.T.);
#305=CARTESIAN_POINT('',(4.402280096,-3.019337446,-0.04093967));
#306=VERTEX_POINT('',#305);
#307=CARTESIAN_POINT('',(4.402280096,-3.019337446,-0.04093967));
#308=DIRECTION('',(0.866025404,0.5,0.));
#309=VECTOR('',#308,0.115470054);
#310=LINE('',#307,#309);
#311=EDGE_CURVE('',#306,#297,#310,.T.);
#312=ORIENTED_EDGE('',*,*,#311,.F.);
#313=CARTESIAN_POINT('',(4.252280096,-3.279145067,-0.04093967));
#314=VERTEX_POINT('',#313);
#315=CARTESIAN_POINT('',(4.552280096,-3.279145067,-0.04093967));
#316=DIRECTION('',(0.,0.,1.));
#317=DIRECTION('',(1.,0.,-0.));
#318=AXIS2_PLACEMENT_3D('',#315,#316,#317);
#319=CIRCLE('',#318,0.3);
#320=EDGE_CURVE('',#306,#314,#319,.T.);
#321=ORIENTED_EDGE('',*,*,#320,.T.);
#322=CARTESIAN_POINT('',(4.252280096,-3.394615121,-0.04093967));
#323=VERTEX_POINT('',#322);
#324=CARTESIAN_POINT('',(4.252280096,-3.394615121,-0.04093967));
#325=DIRECTION('',(-0.,1.,0.));
#326=VECTOR('',#325,0.115470054);
#327=LINE('',#324,#326);
#328=EDGE_CURVE('',#323,#314,#327,.T.);
#329=ORIENTED_EDGE('',*,*,#328,.F.);
#330=CARTESIAN_POINT('',(4.102280096,-3.481217661,-0.04093967));
#331=VERTEX_POINT('',#330);
#332=CARTESIAN_POINT('',(4.152280096,-3.394615121,-0.04093967));
#333=DIRECTION('',(-0.,-0.,-1.));
#334=DIRECTION('',(1.,0.,-0.));
#335=AXIS2_PLACEMENT_3D('',#332,#333,#334);
#336=CIRCLE('',#335,0.1);
#337=EDGE_CURVE('',#323,#331,#336,.T.);
#338=ORIENTED_EDGE('',*,*,#337,.T.);
#339=CARTESIAN_POINT('',(4.002280096,-3.423482635,-0.04093967));
#340=VERTEX_POINT('',#339);
#341=CARTESIAN_POINT('',(4.002280096,-3.423482635,-0.04093967));
#342=DIRECTION('',(0.866025404,-0.5,0.));
#343=VECTOR('',#342,0.115470054);
#344=LINE('',#341,#343);
#345=EDGE_CURVE('',#340,#331,#344,.T.);
#346=ORIENTED_EDGE('',*,*,#345,.F.);
#347=CARTESIAN_POINT('',(3.702280096,-3.423482635,-0.04093967));
#348=VERTEX_POINT('',#347);
#349=CARTESIAN_POINT('',(3.852280096,-3.683290256,-0.04093967));
#350=DIRECTION('',(0.,0.,1.));
#351=DIRECTION('',(1.,0.,-0.));
#352=AXIS2_PLACEMENT_3D('',#349,#350,#351);
#353=CIRCLE('',#352,0.3);
#354=EDGE_CURVE('',#340,#348,#353,.T.);
#355=ORIENTED_EDGE('',*,*,#354,.T.);
#356=CARTESIAN_POINT('',(3.602280096,-3.481217661,-0.04093967));
#357=VERTEX_POINT('',#356);
#358=CARTESIAN_POINT('',(3.602280096,-3.481217661,-0.04093967));
#359=DIRECTION('',(0.866025404,0.5,0.));
#360=VECTOR('',#359,0.115470054);
#361=LINE('',#358,#360);
#362=EDGE_CURVE('',#357,#348,#361,.T.);
#363=ORIENTED_EDGE('',*,*,#362,.F.);
#364=CARTESIAN_POINT('',(3.552280096,-3.394615121,-0.04093967));
#365=DIRECTION('',(-0.,-0.,-1.));
#366=DIRECTION('',(1.,0.,-0.));
#367=AXIS2_PLACEMENT_3D('',#364,#365,#366);
#368=CIRCLE('',#367,0.1);
#369=EDGE_CURVE('',#357,#161,#368,.T.);
#370=ORIENTED_EDGE('',*,*,#369,.T.);
#371=EDGE_LOOP('',(#167,#176,#184,#193,#202,#210,#219,#227,#236,#244,#253,#261,#270,#278,#287,#295,#304,#312,#321,#329,#338,#346,#355,#363,#370));
#372=FACE_BOUND('',#371,.T.);
#373=ORIENTED_EDGE('',*,*,#141,.T.);
#374=ORIENTED_EDGE('',*,*,#148,.T.);
#375=EDGE_LOOP('',(#373,#374));
#376=FACE_BOUND('',#375,.T.);
#377=ADVANCED_FACE('',(#372,#376),#157,.T.);
#378=CARTESIAN_POINT('',(3.252280096,-2.759529825,-0.34093967));
#379=DIRECTION('',(-0.5,0.866025404,0.));
#380=DIRECTION('',(-0.866025404,-0.5,0.));
#381=AXIS2_PLACEMENT_3D('',#378,#379,#380);
#382=PLANE('',#381);
#383=ORIENTED_EDGE('',*,*,#209,.T.);
#384=CARTESIAN_POINT('',(3.202280096,-2.788397338,-0.34093967));
#385=VERTEX_POINT('',#384);
#386=CARTESIAN_POINT('',(3.202280096,-2.788397338,-0.04093967));
#387=DIRECTION('',(-0.,-0.,-1.));
#388=VECTOR('',#387,0.3);
#389=LINE('',#386,#388);
#390=EDGE_CURVE('',#195,#385,#389,.T.);
#391=ORIENTED_EDGE('',*,*,#390,.T.);
#392=CARTESIAN_POINT('',(3.302280096,-2.730662311,-0.34093967));
#393=VERTEX_POINT('',#392);
#394=CARTESIAN_POINT('',(3.302280096,-2.730662311,-0.34093967));
#395=DIRECTION('',(-0.866025404,-0.5,0.));
#396=VECTOR('',#395,0.115470054);
#397=LINE('',#394,#396);
#398=EDGE_CURVE('',#393,#385,#397,.T.);
#399=ORIENTED_EDGE('',*,*,#398,.F.);
#400=CARTESIAN_POINT('',(3.302280096,-2.730662311,-0.34093967));
#401=DIRECTION('',(0.,0.,1.));
#402=VECTOR('',#401,0.3);
#403=LINE('',#400,#402);
#404=EDGE_CURVE('',#393,#204,#403,.T.);
#405=ORIENTED_EDGE('',*,*,#404,.T.);
#406=EDGE_LOOP('',(#383,#391,#399,#405));
#407=FACE_BOUND('',#406,.T.);
#408=ADVANCED_FACE('',(#407),#382,.F.);
#409=CARTESIAN_POINT('',(3.252280096,-2.990469933,-0.34093967));
#410=DIRECTION('',(-0.5,-0.866025404,0.));
#411=DIRECTION('',(0.866025404,-0.5,0.));
#412=AXIS2_PLACEMENT_3D('',#409,#410,#411);
#413=PLANE('',#412);
#414=CARTESIAN_POINT('',(3.202280096,-2.961602419,-0.34093967));
#415=VERTEX_POINT('',#414);
#416=CARTESIAN_POINT('',(3.302280096,-3.019337446,-0.34093967));
#417=VERTEX_POINT('',#416);
#418=CARTESIAN_POINT('',(3.202280096,-2.961602419,-0.34093967));
#419=DIRECTION('',(0.866025404,-0.5,0.));
#420=VECTOR('',#419,0.115470054);
#421=LINE('',#418,#420);
#422=EDGE_CURVE('',#415,#417,#421,.T.);
#423=ORIENTED_EDGE('',*,*,#422,.F.);
#424=CARTESIAN_POINT('',(3.202280096,-2.961602419,-0.34093967));
#425=DIRECTION('',(0.,0.,1.));
#426=VECTOR('',#425,0.3);
#427=LINE('',#424,#426);
#428=EDGE_CURVE('',#415,#178,#427,.T.);
#429=ORIENTED_EDGE('',*,*,#428,.T.);
#430=ORIENTED_EDGE('',*,*,#183,.T.);
#431=CARTESIAN_POINT('',(3.302280096,-3.019337446,-0.04093967));
#432=DIRECTION('',(-0.,-0.,-1.));
#433=VECTOR('',#432,0.3);
#434=LINE('',#431,#433);
#435=EDGE_CURVE('',#169,#417,#434,.T.);
#436=ORIENTED_EDGE('',*,*,#435,.T.);
#437=EDGE_LOOP('',(#423,#429,#430,#436));
#438=FACE_BOUND('',#437,.T.);
#439=ADVANCED_FACE('',(#438),#413,.F.);
#440=CARTESIAN_POINT('',(3.452280096,-3.336880094,-0.34093967));
#441=DIRECTION('',(-1.,0.,0.));
#442=DIRECTION('',(-0.,-1.,0.));
#443=AXIS2_PLACEMENT_3D('',#440,#441,#442);
#444=PLANE('',#443);
#445=ORIENTED_EDGE('',*,*,#166,.T.);
#446=CARTESIAN_POINT('',(3.452280096,-3.394615121,-0.34093967));
#447=VERTEX_POINT('',#446);
#448=CARTESIAN_POINT('',(3.452280096,-3.394615121,-0.04093967));
#449=DIRECTION('',(-0.,-0.,-1.));
#450=VECTOR('',#449,0.3);
#451=LINE('',#448,#450);
#452=EDGE_CURVE('',#161,#447,#451,.T.);
#453=ORIENTED_EDGE('',*,*,#452,.T.);
#454=CARTESIAN_POINT('',(3.452280096,-3.279145067,-0.34093967));
#455=VERTEX_POINT('',#454);
#456=CARTESIAN_POINT('',(3.452280096,-3.279145067,-0.34093967));
#457=DIRECTION('',(-0.,-1.,0.));
#458=VECTOR('',#457,0.115470054);
#459=LINE('',#456,#458);
#460=EDGE_CURVE('',#455,#447,#459,.T.);
#461=ORIENTED_EDGE('',*,*,#460,.F.);
#462=CARTESIAN_POINT('',(3.452280096,-3.279145067,-0.34093967));
#463=DIRECTION('',(0.,0.,1.));
#464=VECTOR('',#463,0.3);
#465=LINE('',#462,#464);
#466=EDGE_CURVE('',#455,#159,#465,.T.);
#467=ORIENTED_EDGE('',*,*,#466,.T.);
#468=EDGE_LOOP('',(#445,#453,#461,#467));
#469=FACE_BOUND('',#468,.T.);
#470=ADVANCED_FACE('',(#469),#444,.F.);
#471=CARTESIAN_POINT('',(3.652280096,-3.452350148,-0.34093967));
#472=DIRECTION('',(0.5,-0.866025404,0.));
#473=DIRECTION('',(0.866025404,0.5,0.));
#474=AXIS2_PLACEMENT_3D('',#471,#472,#473);
#475=PLANE('',#474);
#476=CARTESIAN_POINT('',(3.602280096,-3.481217661,-0.34093967));
#477=VERTEX_POINT('',#476);
#478=CARTESIAN_POINT('',(3.702280096,-3.423482635,-0.34093967));
#479=VERTEX_POINT('',#478);
#480=CARTESIAN_POINT('',(3.602280096,-3.481217661,-0.34093967));
#481=DIRECTION('',(0.866025404,0.5,0.));
#482=VECTOR('',#481,0.115470054);
#483=LINE('',#480,#482);
#484=EDGE_CURVE('',#477,#479,#483,.T.);
#485=ORIENTED_EDGE('',*,*,#484,.F.);
#486=CARTESIAN_POINT('',(3.602280096,-3.481217661,-0.34093967));
#487=DIRECTION('',(0.,0.,1.));
#488=VECTOR('',#487,0.3);
#489=LINE('',#486,#488);
#490=EDGE_CURVE('',#477,#357,#489,.T.);
#491=ORIENTED_EDGE('',*,*,#490,.T.);
#492=ORIENTED_EDGE('',*,*,#362,.T.);
#493=CARTESIAN_POINT('',(3.702280096,-3.423482635,-0.04093967));
#494=DIRECTION('',(-0.,-0.,-1.));
#495=VECTOR('',#494,0.3);
#496=LINE('',#493,#495);
#497=EDGE_CURVE('',#348,#479,#496,.T.);
#498=ORIENTED_EDGE('',*,*,#497,.T.);
#499=EDGE_LOOP('',(#485,#491,#492,#498));
#500=FACE_BOUND('',#499,.T.);
#501=ADVANCED_FACE('',(#500),#475,.F.);
#502=CARTESIAN_POINT('',(4.052280096,-3.452350148,-0.34093967));
#503=DIRECTION('',(-0.5,-0.866025404,0.));
#504=DIRECTION('',(0.866025404,-0.5,0.));
#505=AXIS2_PLACEMENT_3D('',#502,#503,#504);
#506=PLANE('',#505);
#507=ORIENTED_EDGE('',*,*,#345,.T.);
#508=CARTESIAN_POINT('',(4.102280096,-3.481217661,-0.34093967));
#509=VERTEX_POINT('',#508);
#510=CARTESIAN_POINT('',(4.102280096,-3.481217661,-0.04093967));
#511=DIRECTION('',(-0.,-0.,-1.));
#512=VECTOR('',#511,0.3);
#513=LINE('',#510,#512);
#514=EDGE_CURVE('',#331,#509,#513,.T.);
#515=ORIENTED_EDGE('',*,*,#514,.T.);
#516=CARTESIAN_POINT('',(4.002280096,-3.423482635,-0.34093967));
#517=VERTEX_POINT('',#516);
#518=CARTESIAN_POINT('',(4.002280096,-3.423482635,-0.34093967));
#519=DIRECTION('',(0.866025404,-0.5,0.));
#520=VECTOR('',#519,0.115470054);
#521=LINE('',#518,#520);
#522=EDGE_CURVE('',#517,#509,#521,.T.);
#523=ORIENTED_EDGE('',*,*,#522,.F.);
#524=CARTESIAN_POINT('',(4.002280096,-3.423482635,-0.34093967));
#525=DIRECTION('',(0.,0.,1.));
#526=VECTOR('',#525,0.3);
#527=LINE('',#524,#526);
#528=EDGE_CURVE('',#517,#340,#527,.T.);
#529=ORIENTED_EDGE('',*,*,#528,.T.);
#530=EDGE_LOOP('',(#507,#515,#523,#529));
#531=FACE_BOUND('',#530,.T.);
#532=ADVANCED_FACE('',(#531),#506,.F.);
#533=CARTESIAN_POINT('',(4.252280096,-3.336880094,-0.34093967));
#534=DIRECTION('',(1.,0.,0.));
#535=DIRECTION('',(-0.,1.,0.));
#536=AXIS2_PLACEMENT_3D('',#533,#534,#535);
#537=PLANE('',#536);
#538=CARTESIAN_POINT('',(4.252280096,-3.394615121,-0.34093967));
#539=VERTEX_POINT('',#538);
#540=CARTESIAN_POINT('',(4.252280096,-3.279145067,-0.34093967));
#541=VERTEX_POINT('',#540);
#542=CARTESIAN_POINT('',(4.252280096,-3.394615121,-0.34093967));
#543=DIRECTION('',(-0.,1.,0.));
#544=VECTOR('',#543,0.115470054);
#545=LINE('',#542,#544);
#546=EDGE_CURVE('',#539,#541,#545,.T.);
#547=ORIENTED_EDGE('',*,*,#546,.F.);
#548=CARTESIAN_POINT('',(4.252280096,-3.394615121,-0.34093967));
#549=DIRECTION('',(0.,0.,1.));
#550=VECTOR('',#549,0.3);
#551=LINE('',#548,#550);
#552=EDGE_CURVE('',#539,#323,#551,.T.);
#553=ORIENTED_EDGE('',*,*,#552,.T.);
#554=ORIENTED_EDGE('',*,*,#328,.T.);
#555=CARTESIAN_POINT('',(4.252280096,-3.279145067,-0.04093967));
#556=DIRECTION('',(-0.,-0.,-1.));
#557=VECTOR('',#556,0.3);
#558=LINE('',#555,#557);
#559=EDGE_CURVE('',#314,#541,#558,.T.);
#560=ORIENTED_EDGE('',*,*,#559,.T.);
#561=EDGE_LOOP('',(#547,#553,#554,#560));
#562=FACE_BOUND('',#561,.T.);
#563=ADVANCED_FACE('',(#562),#537,.F.);
#564=CARTESIAN_POINT('',(4.452280096,-2.990469933,-0.34093967));
#565=DIRECTION('',(0.5,-0.866025404,0.));
#566=DIRECTION('',(0.866025404,0.5,0.));
#567=AXIS2_PLACEMENT_3D('',#564,#565,#566);
#568=PLANE('',#567);
#569=ORIENTED_EDGE('',*,*,#311,.T.);
#570=CARTESIAN_POINT('',(4.502280096,-2.961602419,-0.34093967));
#571=VERTEX_POINT('',#570);
#572=CARTESIAN_POINT('',(4.502280096,-2.961602419,-0.04093967));
#573=DIRECTION('',(-0.,-0.,-1.));
#574=VECTOR('',#573,0.3);
#575=LINE('',#572,#574);
#576=EDGE_CURVE('',#297,#571,#575,.T.);
#577=ORIENTED_EDGE('',*,*,#576,.T.);
#578=CARTESIAN_POINT('',(4.402280096,-3.019337446,-0.34093967));
#579=VERTEX_POINT('',#578);
#580=CARTESIAN_POINT('',(4.402280096,-3.019337446,-0.34093967));
#581=DIRECTION('',(0.866025404,0.5,0.));
#582=VECTOR('',#581,0.115470054);
#583=LINE('',#580,#582);
#584=EDGE_CURVE('',#579,#571,#583,.T.);
#585=ORIENTED_EDGE('',*,*,#584,.F.);
#586=CARTESIAN_POINT('',(4.402280096,-3.019337446,-0.34093967));
#587=DIRECTION('',(0.,0.,1.));
#588=VECTOR('',#587,0.3);
#589=LINE('',#586,#588);
#590=EDGE_CURVE('',#579,#306,#589,.T.);
#591=ORIENTED_EDGE('',*,*,#590,.T.);
#592=EDGE_LOOP('',(#569,#577,#585,#591));
#593=FACE_BOUND('',#592,.T.);
#594=ADVANCED_FACE('',(#593),#568,.F.);
#595=CARTESIAN_POINT('',(4.452280096,-2.759529825,-0.34093967));
#596=DIRECTION('',(0.5,0.866025404,0.));
#597=DIRECTION('',(-0.866025404,0.5,0.));
#598=AXIS2_PLACEMENT_3D('',#595,#596,#597);
#599=PLANE('',#598);
#600=CARTESIAN_POINT('',(4.502280096,-2.788397338,-0.34093967));
#601=VERTEX_POINT('',#600);
#602=CARTESIAN_POINT('',(4.402280096,-2.730662311,-0.34093967));
#603=VERTEX_POINT('',#602);
#604=CARTESIAN_POINT('',(4.502280096,-2.788397338,-0.34093967));
#605=DIRECTION('',(-0.866025404,0.5,0.));
#606=VECTOR('',#605,0.115470054);
#607=LINE('',#604,#606);
#608=EDGE_CURVE('',#601,#603,#607,.T.);
#609=ORIENTED_EDGE('',*,*,#608,.F.);
#610=CARTESIAN_POINT('',(4.502280096,-2.788397338,-0.34093967));
#611=DIRECTION('',(0.,0.,1.));
#612=VECTOR('',#611,0.3);
#613=LINE('',#610,#612);
#614=EDGE_CURVE('',#601,#289,#613,.T.);
#615=ORIENTED_EDGE('',*,*,#614,.T.);
#616=ORIENTED_EDGE('',*,*,#294,.T.);
#617=CARTESIAN_POINT('',(4.402280096,-2.730662311,-0.04093967));
#618=DIRECTION('',(-0.,-0.,-1.));
#619=VECTOR('',#618,0.3);
#620=LINE('',#617,#619);
#621=EDGE_CURVE('',#280,#603,#620,.T.);
#622=ORIENTED_EDGE('',*,*,#621,.T.);
#623=EDGE_LOOP('',(#609,#615,#616,#622));
#624=FACE_BOUND('',#623,.T.);
#625=ADVANCED_FACE('',(#624),#599,.F.);
#626=CARTESIAN_POINT('',(4.252280096,-2.413119663,-0.34093967));
#627=DIRECTION('',(1.,0.,0.));
#628=DIRECTION('',(-0.,1.,0.));
#629=AXIS2_PLACEMENT_3D('',#626,#627,#628);
#630=PLANE('',#629);
#631=ORIENTED_EDGE('',*,*,#277,.T.);
#632=CARTESIAN_POINT('',(4.252280096,-2.355384637,-0.34093967));
#633=VERTEX_POINT('',#632);
#634=CARTESIAN_POINT('',(4.252280096,-2.355384637,-0.04093967));
#635=DIRECTION('',(-0.,-0.,-1.));
#636=VECTOR('',#635,0.3);
#637=LINE('',#634,#636);
#638=EDGE_CURVE('',#263,#633,#637,.T.);
#639=ORIENTED_EDGE('',*,*,#638,.T.);
#640=CARTESIAN_POINT('',(4.252280096,-2.47085469,-0.34093967));
#641=VERTEX_POINT('',#640);
#642=CARTESIAN_POINT('',(4.252280096,-2.47085469,-0.34093967));
#643=DIRECTION('',(-0.,1.,0.));
#644=VECTOR('',#643,0.115470054);
#645=LINE('',#642,#644);
#646=EDGE_CURVE('',#641,#633,#645,.T.);
#647=ORIENTED_EDGE('',*,*,#646,.F.);
#648=CARTESIAN_POINT('',(4.252280096,-2.47085469,-0.34093967));
#649=DIRECTION('',(0.,0.,1.));
#650=VECTOR('',#649,0.3);
#651=LINE('',#648,#650);
#652=EDGE_CURVE('',#641,#272,#651,.T.);
#653=ORIENTED_EDGE('',*,*,#652,.T.);
#654=EDGE_LOOP('',(#631,#639,#647,#653));
#655=FACE_BOUND('',#654,.T.);
#656=ADVANCED_FACE('',(#655),#630,.F.);
#657=CARTESIAN_POINT('',(4.052280096,-2.29764961,-0.34093967));
#658=DIRECTION('',(-0.5,0.866025404,0.));
#659=DIRECTION('',(-0.866025404,-0.5,0.));
#660=AXIS2_PLACEMENT_3D('',#657,#658,#659);
#661=PLANE('',#660);
#662=CARTESIAN_POINT('',(4.102280096,-2.268782096,-0.34093967));
#663=VERTEX_POINT('',#662);
#664=CARTESIAN_POINT('',(4.002280096,-2.326517123,-0.34093967));
#665=VERTEX_POINT('',#664);
#666=CARTESIAN_POINT('',(4.102280096,-2.268782096,-0.34093967));
#667=DIRECTION('',(-0.866025404,-0.5,0.));
#668=VECTOR('',#667,0.115470054);
#669=LINE('',#666,#668);
#670=EDGE_CURVE('',#663,#665,#669,.T.);
#671=ORIENTED_EDGE('',*,*,#670,.F.);
#672=CARTESIAN_POINT('',(4.102280096,-2.268782096,-0.34093967));
#673=DIRECTION('',(0.,0.,1.));
#674=VECTOR('',#673,0.3);
#675=LINE('',#672,#674);
#676=EDGE_CURVE('',#663,#255,#675,.T.);
#677=ORIENTED_EDGE('',*,*,#676,.T.);
#678=ORIENTED_EDGE('',*,*,#260,.T.);
#679=CARTESIAN_POINT('',(4.002280096,-2.326517123,-0.04093967));
#680=DIRECTION('',(-0.,-0.,-1.));
#681=VECTOR('',#680,0.3);
#682=LINE('',#679,#681);
#683=EDGE_CURVE('',#246,#665,#682,.T.);
#684=ORIENTED_EDGE('',*,*,#683,.T.);
#685=EDGE_LOOP('',(#671,#677,#678,#684));
#686=FACE_BOUND('',#685,.T.);
#687=ADVANCED_FACE('',(#686),#661,.F.);
#688=CARTESIAN_POINT('',(3.652280096,-2.29764961,-0.34093967));
#689=DIRECTION('',(0.5,0.866025404,0.));
#690=DIRECTION('',(-0.866025404,0.5,0.));
#691=AXIS2_PLACEMENT_3D('',#688,#689,#690);
#692=PLANE('',#691);
#693=ORIENTED_EDGE('',*,*,#243,.T.);
#694=CARTESIAN_POINT('',(3.602280096,-2.268782096,-0.34093967));
#695=VERTEX_POINT('',#694);
#696=CARTESIAN_POINT('',(3.602280096,-2.268782096,-0.04093967));
#697=DIRECTION('',(-0.,-0.,-1.));
#698=VECTOR('',#697,0.3);
#699=LINE('',#696,#698);
#700=EDGE_CURVE('',#229,#695,#699,.T.);
#701=ORIENTED_EDGE('',*,*,#700,.T.);
#702=CARTESIAN_POINT('',(3.702280096,-2.326517123,-0.34093967));
#703=VERTEX_POINT('',#702);
#704=CARTESIAN_POINT('',(3.702280096,-2.326517123,-0.34093967));
#705=DIRECTION('',(-0.866025404,0.5,0.));
#706=VECTOR('',#705,0.115470054);
#707=LINE('',#704,#706);
#708=EDGE_CURVE('',#703,#695,#707,.T.);
#709=ORIENTED_EDGE('',*,*,#708,.F.);
#710=CARTESIAN_POINT('',(3.702280096,-2.326517123,-0.34093967));
#711=DIRECTION('',(0.,0.,1.));
#712=VECTOR('',#711,0.3);
#713=LINE('',#710,#712);
#714=EDGE_CURVE('',#703,#238,#713,.T.);
#715=ORIENTED_EDGE('',*,*,#714,.T.);
#716=EDGE_LOOP('',(#693,#701,#709,#715));
#717=FACE_BOUND('',#716,.T.);
#718=ADVANCED_FACE('',(#717),#692,.F.);
#719=CARTESIAN_POINT('',(3.452280096,-2.413119663,-0.34093967));
#720=DIRECTION('',(-1.,0.,0.));
#721=DIRECTION('',(-0.,-1.,0.));
#722=AXIS2_PLACEMENT_3D('',#719,#720,#721);
#723=PLANE('',#722);
#724=CARTESIAN_POINT('',(3.452280096,-2.355384637,-0.34093967));
#725=VERTEX_POINT('',#724);
#726=CARTESIAN_POINT('',(3.452280096,-2.47085469,-0.34093967));
#727=VERTEX_POINT('',#726);
#728=CARTESIAN_POINT('',(3.452280096,-2.355384637,-0.34093967));
#729=DIRECTION('',(-0.,-1.,0.));
#730=VECTOR('',#729,0.115470054);
#731=LINE('',#728,#730);
#732=EDGE_CURVE('',#725,#727,#731,.T.);
#733=ORIENTED_EDGE('',*,*,#732,.F.);
#734=CARTESIAN_POINT('',(3.452280096,-2.355384637,-0.34093967));
#735=DIRECTION('',(0.,0.,1.));
#736=VECTOR('',#735,0.3);
#737=LINE('',#734,#736);
#738=EDGE_CURVE('',#725,#221,#737,.T.);
#739=ORIENTED_EDGE('',*,*,#738,.T.);
#740=ORIENTED_EDGE('',*,*,#226,.T.);
#741=CARTESIAN_POINT('',(3.452280096,-2.47085469,-0.04093967));
#742=DIRECTION('',(-0.,-0.,-1.));
#743=VECTOR('',#742,0.3);
#744=LINE('',#741,#743);
#745=EDGE_CURVE('',#212,#727,#744,.T.);
#746=ORIENTED_EDGE('',*,*,#745,.T.);
#747=EDGE_LOOP('',(#733,#739,#740,#746));
#748=FACE_BOUND('',#747,.T.);
#749=ADVANCED_FACE('',(#748),#723,.F.);
#750=CARTESIAN_POINT('',(3.852280096,-32.674999879,-0.34093967));
#751=DIRECTION('',(0.,0.,1.));
#752=DIRECTION('',(0.,-1.,0.));
#753=AXIS2_PLACEMENT_3D('',#750,#751,#752);
#754=PLANE('',#753);
#755=ORIENTED_EDGE('',*,*,#708,.T.);
#756=CARTESIAN_POINT('',(3.552280096,-2.355384637,-0.34093967));
#757=DIRECTION('',(0.,0.,1.));
#758=DIRECTION('',(1.,0.,-0.));
#759=AXIS2_PLACEMENT_3D('',#756,#757,#758);
#760=CIRCLE('',#759,0.1);
#761=EDGE_CURVE('',#695,#725,#760,.T.);
#762=ORIENTED_EDGE('',*,*,#761,.T.);
#763=ORIENTED_EDGE('',*,*,#732,.T.);
#764=CARTESIAN_POINT('',(3.152280096,-2.47085469,-0.34093967));
#765=DIRECTION('',(-0.,-0.,-1.));
#766=DIRECTION('',(1.,0.,-0.));
#767=AXIS2_PLACEMENT_3D('',#764,#765,#766);
#768=CIRCLE('',#767,0.3);
#769=EDGE_CURVE('',#727,#393,#768,.T.);
#770=ORIENTED_EDGE('',*,*,#769,.T.);
#771=ORIENTED_EDGE('',*,*,#398,.T.);
#772=CARTESIAN_POINT('',(3.152280096,-2.874999879,-0.34093967));
#773=VERTEX_POINT('',#772);
#774=CARTESIAN_POINT('',(3.252280096,-2.874999879,-0.34093967));
#775=DIRECTION('',(0.,0.,1.));
#776=DIRECTION('',(1.,0.,-0.));
#777=AXIS2_PLACEMENT_3D('',#774,#775,#776);
#778=CIRCLE('',#777,0.1);
#779=EDGE_CURVE('',#385,#773,#778,.T.);
#780=ORIENTED_EDGE('',*,*,#779,.T.);
#781=CARTESIAN_POINT('',(3.252280096,-2.874999879,-0.34093967));
#782=DIRECTION('',(0.,0.,1.));
#783=DIRECTION('',(1.,0.,-0.));
#784=AXIS2_PLACEMENT_3D('',#781,#782,#783);
#785=CIRCLE('',#784,0.1);
#786=EDGE_CURVE('',#773,#415,#785,.T.);
#787=ORIENTED_EDGE('',*,*,#786,.T.);
#788=ORIENTED_EDGE('',*,*,#422,.T.);
#789=CARTESIAN_POINT('',(3.152280096,-3.279145067,-0.34093967));
#790=DIRECTION('',(-0.,-0.,-1.));
#791=DIRECTION('',(1.,0.,-0.));
#792=AXIS2_PLACEMENT_3D('',#789,#790,#791);
#793=CIRCLE('',#792,0.3);
#794=EDGE_CURVE('',#417,#455,#793,.T.);
#795=ORIENTED_EDGE('',*,*,#794,.T.);
#796=ORIENTED_EDGE('',*,*,#460,.T.);
#797=CARTESIAN_POINT('',(3.552280096,-3.394615121,-0.34093967));
#798=DIRECTION('',(0.,0.,1.));
#799=DIRECTION('',(1.,0.,-0.));
#800=AXIS2_PLACEMENT_3D('',#797,#798,#799);
#801=CIRCLE('',#800,0.1);
#802=EDGE_CURVE('',#447,#477,#801,.T.);
#803=ORIENTED_EDGE('',*,*,#802,.T.);
#804=ORIENTED_EDGE('',*,*,#484,.T.);
#805=CARTESIAN_POINT('',(3.852280096,-3.683290256,-0.34093967));
#806=DIRECTION('',(-0.,-0.,-1.));
#807=DIRECTION('',(1.,0.,-0.));
#808=AXIS2_PLACEMENT_3D('',#805,#806,#807);
#809=CIRCLE('',#808,0.3);
#810=EDGE_CURVE('',#479,#517,#809,.T.);
#811=ORIENTED_EDGE('',*,*,#810,.T.);
#812=ORIENTED_EDGE('',*,*,#522,.T.);
#813=CARTESIAN_POINT('',(4.152280096,-3.394615121,-0.34093967));
#814=DIRECTION('',(0.,0.,1.));
#815=DIRECTION('',(1.,0.,-0.));
#816=AXIS2_PLACEMENT_3D('',#813,#814,#815);
#817=CIRCLE('',#816,0.1);
#818=EDGE_CURVE('',#509,#539,#817,.T.);
#819=ORIENTED_EDGE('',*,*,#818,.T.);
#820=ORIENTED_EDGE('',*,*,#546,.T.);
#821=CARTESIAN_POINT('',(4.552280096,-3.279145067,-0.34093967));
#822=DIRECTION('',(-0.,-0.,-1.));
#823=DIRECTION('',(1.,0.,-0.));
#824=AXIS2_PLACEMENT_3D('',#821,#822,#823);
#825=CIRCLE('',#824,0.3);
#826=EDGE_CURVE('',#541,#579,#825,.T.);
#827=ORIENTED_EDGE('',*,*,#826,.T.);
#828=ORIENTED_EDGE('',*,*,#584,.T.);
#829=CARTESIAN_POINT('',(4.452280096,-2.874999879,-0.34093967));
#830=DIRECTION('',(0.,0.,1.));
#831=DIRECTION('',(1.,0.,-0.));
#832=AXIS2_PLACEMENT_3D('',#829,#830,#831);
#833=CIRCLE('',#832,0.1);
#834=EDGE_CURVE('',#571,#601,#833,.T.);
#835=ORIENTED_EDGE('',*,*,#834,.T.);
#836=ORIENTED_EDGE('',*,*,#608,.T.);
#837=CARTESIAN_POINT('',(4.552280096,-2.47085469,-0.34093967));
#838=DIRECTION('',(-0.,-0.,-1.));
#839=DIRECTION('',(1.,0.,-0.));
#840=AXIS2_PLACEMENT_3D('',#837,#838,#839);
#841=CIRCLE('',#840,0.3);
#842=EDGE_CURVE('',#603,#641,#841,.T.);
#843=ORIENTED_EDGE('',*,*,#842,.T.);
#844=ORIENTED_EDGE('',*,*,#646,.T.);
#845=CARTESIAN_POINT('',(4.152280096,-2.355384637,-0.34093967));
#846=DIRECTION('',(0.,0.,1.));
#847=DIRECTION('',(1.,0.,-0.));
#848=AXIS2_PLACEMENT_3D('',#845,#846,#847);
#849=CIRCLE('',#848,0.1);
#850=EDGE_CURVE('',#633,#663,#849,.T.);
#851=ORIENTED_EDGE('',*,*,#850,.T.);
#852=ORIENTED_EDGE('',*,*,#670,.T.);
#853=CARTESIAN_POINT('',(3.852280096,-2.066709502,-0.34093967));
#854=DIRECTION('',(-0.,-0.,-1.));
#855=DIRECTION('',(1.,0.,-0.));
#856=AXIS2_PLACEMENT_3D('',#853,#854,#855);
#857=CIRCLE('',#856,0.3);
#858=EDGE_CURVE('',#665,#703,#857,.T.);
#859=ORIENTED_EDGE('',*,*,#858,.T.);
#860=EDGE_LOOP('',(#755,#762,#763,#770,#771,#780,#787,#788,#795,#796,#803,#804,#811,#812,#819,#820,#827,#828,#835,#836,#843,#844,#851,#852,#859));
#861=FACE_BOUND('',#860,.T.);
#862=ADVANCED_FACE('',(#861),#754,.T.);
#863=CARTESIAN_POINT('',(3.152280096,-3.279145067,-0.34093967));
#864=DIRECTION('',(0.,0.,1.));
#865=DIRECTION('',(1.,0.,-0.));
#866=AXIS2_PLACEMENT_3D('',#863,#864,#865);
#867=CYLINDRICAL_SURFACE('',#866,0.3);
#868=ORIENTED_EDGE('',*,*,#794,.F.);
#869=ORIENTED_EDGE('',*,*,#435,.F.);
#870=ORIENTED_EDGE('',*,*,#175,.F.);
#871=ORIENTED_EDGE('',*,*,#466,.F.);
#872=EDGE_LOOP('',(#868,#869,#870,#871));
#873=FACE_BOUND('',#872,.T.);
#874=ADVANCED_FACE('',(#873),#867,.T.);
#875=CARTESIAN_POINT('',(3.152280096,-2.47085469,-0.34093967));
#876=DIRECTION('',(0.,0.,1.));
#877=DIRECTION('',(1.,0.,-0.));
#878=AXIS2_PLACEMENT_3D('',#875,#876,#877);
#879=CYLINDRICAL_SURFACE('',#878,0.3);
#880=ORIENTED_EDGE('',*,*,#769,.F.);
#881=ORIENTED_EDGE('',*,*,#745,.F.);
#882=ORIENTED_EDGE('',*,*,#218,.F.);
#883=ORIENTED_EDGE('',*,*,#404,.F.);
#884=EDGE_LOOP('',(#880,#881,#882,#883));
#885=FACE_BOUND('',#884,.T.);
#886=ADVANCED_FACE('',(#885),#879,.T.);
#887=CARTESIAN_POINT('',(3.852280096,-2.066709502,-0.34093967));
#888=DIRECTION('',(0.,0.,1.));
#889=DIRECTION('',(1.,0.,-0.));
#890=AXIS2_PLACEMENT_3D('',#887,#888,#889);
#891=CYLINDRICAL_SURFACE('',#890,0.3);
#892=ORIENTED_EDGE('',*,*,#858,.F.);
#893=ORIENTED_EDGE('',*,*,#683,.F.);
#894=ORIENTED_EDGE('',*,*,#252,.F.);
#895=ORIENTED_EDGE('',*,*,#714,.F.);
#896=EDGE_LOOP('',(#892,#893,#894,#895));
#897=FACE_BOUND('',#896,.T.);
#898=ADVANCED_FACE('',(#897),#891,.T.);
#899=CARTESIAN_POINT('',(4.552280096,-3.279145067,-0.34093967));
#900=DIRECTION('',(0.,0.,1.));
#901=DIRECTION('',(1.,0.,-0.));
#902=AXIS2_PLACEMENT_3D('',#899,#900,#901);
#903=CYLINDRICAL_SURFACE('',#902,0.3);
#904=ORIENTED_EDGE('',*,*,#826,.F.);
#905=ORIENTED_EDGE('',*,*,#559,.F.);
#906=ORIENTED_EDGE('',*,*,#320,.F.);
#907=ORIENTED_EDGE('',*,*,#590,.F.);
#908=EDGE_LOOP('',(#904,#905,#906,#907));
#909=FACE_BOUND('',#908,.T.);
#910=ADVANCED_FACE('',(#909),#903,.T.);
#911=CARTESIAN_POINT('',(3.852280096,-3.683290256,-0.34093967));
#912=DIRECTION('',(0.,0.,1.));
#913=DIRECTION('',(1.,0.,-0.));
#914=AXIS2_PLACEMENT_3D('',#911,#912,#913);
#915=CYLINDRICAL_SURFACE('',#914,0.3);
#916=ORIENTED_EDGE('',*,*,#810,.F.);
#917=ORIENTED_EDGE('',*,*,#497,.F.);
#918=ORIENTED_EDGE('',*,*,#354,.F.);
#919=ORIENTED_EDGE('',*,*,#528,.F.);
#920=EDGE_LOOP('',(#916,#917,#918,#919));
#921=FACE_BOUND('',#920,.T.);
#922=ADVANCED_FACE('',(#921),#915,.T.);
#923=CARTESIAN_POINT('',(4.552280096,-2.47085469,-0.34093967));
#924=DIRECTION('',(0.,0.,1.));
#925=DIRECTION('',(1.,0.,-0.));
#926=AXIS2_PLACEMENT_3D('',#923,#924,#925);
#927=CYLINDRICAL_SURFACE('',#926,0.3);
#928=ORIENTED_EDGE('',*,*,#842,.F.);
#929=ORIENTED_EDGE('',*,*,#621,.F.);
#930=ORIENTED_EDGE('',*,*,#286,.F.);
#931=ORIENTED_EDGE('',*,*,#652,.F.);
#932=EDGE_LOOP('',(#928,#929,#930,#931));
#933=FACE_BOUND('',#932,.T.);
#934=ADVANCED_FACE('',(#933),#927,.T.);
#935=CARTESIAN_POINT('',(3.552280096,-2.355384637,-0.34093967));
#936=DIRECTION('',(0.,0.,-1.));
#937=DIRECTION('',(-1.,0.,0.));
#938=AXIS2_PLACEMENT_3D('',#935,#936,#937);
#939=CYLINDRICAL_SURFACE('',#938,0.1);
#940=ORIENTED_EDGE('',*,*,#761,.F.);
#941=ORIENTED_EDGE('',*,*,#700,.F.);
#942=ORIENTED_EDGE('',*,*,#235,.F.);
#943=ORIENTED_EDGE('',*,*,#738,.F.);
#944=EDGE_LOOP('',(#940,#941,#942,#943));
#945=FACE_BOUND('',#944,.T.);
#946=ADVANCED_FACE('',(#945),#939,.F.);
#947=CARTESIAN_POINT('',(4.152280096,-3.394615121,-0.34093967));
#948=DIRECTION('',(0.,0.,-1.));
#949=DIRECTION('',(-1.,0.,0.));
#950=AXIS2_PLACEMENT_3D('',#947,#948,#949);
#951=CYLINDRICAL_SURFACE('',#950,0.1);
#952=ORIENTED_EDGE('',*,*,#818,.F.);
#953=ORIENTED_EDGE('',*,*,#514,.F.);
#954=ORIENTED_EDGE('',*,*,#337,.F.);
#955=ORIENTED_EDGE('',*,*,#552,.F.);
#956=EDGE_LOOP('',(#952,#953,#954,#955));
#957=FACE_BOUND('',#956,.T.);
#958=ADVANCED_FACE('',(#957),#951,.F.);
#959=CARTESIAN_POINT('',(3.552280096,-3.394615121,-0.34093967));
#960=DIRECTION('',(0.,0.,-1.));
#961=DIRECTION('',(-1.,0.,0.));
#962=AXIS2_PLACEMENT_3D('',#959,#960,#961);
#963=CYLINDRICAL_SURFACE('',#962,0.1);
#964=ORIENTED_EDGE('',*,*,#802,.F.);
#965=ORIENTED_EDGE('',*,*,#452,.F.);
#966=ORIENTED_EDGE('',*,*,#369,.F.);
#967=ORIENTED_EDGE('',*,*,#490,.F.);
#968=EDGE_LOOP('',(#964,#965,#966,#967));
#969=FACE_BOUND('',#968,.T.);
#970=ADVANCED_FACE('',(#969),#963,.F.);
#971=CARTESIAN_POINT('',(4.452280096,-2.874999879,-0.34093967));
#972=DIRECTION('',(0.,0.,-1.));
#973=DIRECTION('',(-1.,0.,0.));
#974=AXIS2_PLACEMENT_3D('',#971,#972,#973);
#975=CYLINDRICAL_SURFACE('',#974,0.1);
#976=ORIENTED_EDGE('',*,*,#834,.F.);
#977=ORIENTED_EDGE('',*,*,#576,.F.);
#978=ORIENTED_EDGE('',*,*,#303,.F.);
#979=ORIENTED_EDGE('',*,*,#614,.F.);
#980=EDGE_LOOP('',(#976,#977,#978,#979));
#981=FACE_BOUND('',#980,.T.);
#982=ADVANCED_FACE('',(#981),#975,.F.);
#983=CARTESIAN_POINT('',(4.152280096,-2.355384637,-0.34093967));
#984=DIRECTION('',(0.,0.,-1.));
#985=DIRECTION('',(-1.,0.,0.));
#986=AXIS2_PLACEMENT_3D('',#983,#984,#985);
#987=CYLINDRICAL_SURFACE('',#986,0.1);
#988=ORIENTED_EDGE('',*,*,#850,.F.);
#989=ORIENTED_EDGE('',*,*,#638,.F.);
#990=ORIENTED_EDGE('',*,*,#269,.F.);
#991=ORIENTED_EDGE('',*,*,#676,.F.);
#992=EDGE_LOOP('',(#988,#989,#990,#991));
#993=FACE_BOUND('',#992,.T.);
#994=ADVANCED_FACE('',(#993),#987,.F.);
#995=CARTESIAN_POINT('',(3.252280096,-2.874999879,-0.34093967));
#996=DIRECTION('',(0.,0.,-1.));
#997=DIRECTION('',(-1.,0.,0.));
#998=AXIS2_PLACEMENT_3D('',#995,#996,#997);
#999=CYLINDRICAL_SURFACE('',#998,0.1);
#1000=CARTESIAN_POINT('',(3.152280096,-2.874999879,-0.34093967));
#1001=DIRECTION('',(-0.,-0.,1.));
#1002=VECTOR('',#1001,0.3);
#1003=LINE('',#1000,#1002);
#1004=EDGE_CURVE('',#773,#186,#1003,.T.);
#1005=ORIENTED_EDGE('',*,*,#1004,.F.);
#1006=ORIENTED_EDGE('',*,*,#779,.F.);
#1007=ORIENTED_EDGE('',*,*,#390,.F.);
#1008=ORIENTED_EDGE('',*,*,#201,.F.);
#1009=EDGE_LOOP('',(#1005,#1006,#1007,#1008));
#1010=FACE_BOUND('',#1009,.T.);
#1011=ADVANCED_FACE('',(#1010),#999,.F.);
#1012=CARTESIAN_POINT('',(3.252280096,-2.874999879,-0.34093967));
#1013=DIRECTION('',(0.,0.,-1.));
#1014=DIRECTION('',(-1.,0.,0.));
#1015=AXIS2_PLACEMENT_3D('',#1012,#1013,#1014);
#1016=CYLINDRICAL_SURFACE('',#1015,0.1);
#1017=ORIENTED_EDGE('',*,*,#1004,.T.);
#1018=ORIENTED_EDGE('',*,*,#192,.F.);
#1019=ORIENTED_EDGE('',*,*,#428,.F.);
#1020=ORIENTED_EDGE('',*,*,#786,.F.);
#1021=EDGE_LOOP('',(#1017,#1018,#1019,#1020));
#1022=FACE_BOUND('',#1021,.T.);
#1023=ADVANCED_FACE('',(#1022),#1016,.F.);
#1024=CLOSED_SHELL('',(#52,#87,#117,#152,#377,#408,#439,#470,#501,#532,#563,#594,#625,#656,#687,#718,#749,#862,#874,#886,#898,#910,#922,#934,#946,#958,
#970,#982,#994,#1011,#1023));
#1025=MANIFOLD_SOLID_BREP('\X2\87BA4E1D53604F4D\X0\',#1024);
#1026=COLOUR_RGB('',0.749019623,0.737254918,0.725490212);
#1027=FILL_AREA_STYLE_COLOUR('',#1026);
#1028=FILL_AREA_STYLE('',(#1027));
#1029=SURFACE_STYLE_FILL_AREA(#1028);
#1030=SURFACE_SIDE_STYLE('',(#1029));
#1031=SURFACE_STYLE_USAGE(.BOTH.,#1030);
#1032=PRESENTATION_STYLE_ASSIGNMENT((#1031));
#26=STYLED_ITEM('',(#1032),#1025);
#16=SHAPE_REPRESENTATION('\X2\87BA4E1D53604F4D\X0\',(#15),#10);
#17=ADVANCED_BREP_SHAPE_REPRESENTATION('\X2\87BA4E1D53604F4D\X0\',(#1025),#10);
#1040=SHAPE_REPRESENTATION_RELATIONSHIP('','',#16,#17);
#1041=CARTESIAN_POINT('',(0.,0.,0.));
#1042=DIRECTION('',(0.,0.,1.));
#1043=DIRECTION('',(1.,0.,0.));
#1044=AXIS2_PLACEMENT_3D('',#1041,#1042,#1043);
#1046=MAPPED_ITEM('',#1045,#1044);
#1045=REPRESENTATION_MAP(#1044,#16);
#1047=APPLICATION_CONTEXT('Managed model based 3d engineering');
#1048=APPLICATION_PROTOCOL_DEFINITION('international standard','ap242_managed_model_based_3d_engineering',2014,#1047);
#1049=PRODUCT_CONTEXT('',#1047,'mechanical');
#1050=PRODUCT_DEFINITION_CONTEXT('part definition',#1047,'design');
#24=PRODUCT('\X2\87BA4E1D53604F4D\X0\','\X2\87BA4E1D53604F4D\X0\','',(#1049));
#1051=PRODUCT_RELATED_PRODUCT_CATEGORY('part','',(#24));
#1052=PRODUCT_DEFINITION_FORMATION_WITH_SPECIFIED_SOURCE('','',#24,.NOT_KNOWN.);
#25=PRODUCT_DEFINITION('design','',#1052,#1050);
#23=PRODUCT_DEFINITION_SHAPE('','',#25);
#1053=SHAPE_DEFINITION_REPRESENTATION(#23,#16);
#11=DRAUGHTING_MODEL('',(#1046),#10);
#1054=DESCRIPTIVE_REPRESENTATION_ITEM('KEY','C:\\Users\\Nalani\\AppData\\Local\\Packages\\Shapr3D.Shapr3D_j403pzjkqtqbj\\TempState\\cfc57784-e764-40f9-8a8e-76aa0334ad06.tmp');
#1055=PROPERTY_DEFINITION('KEY','',#25);
#1056=REPRESENTATION('',(#1054),#10);
#1057=PROPERTY_DEFINITION_REPRESENTATION(#1055,#1056);
#1058=GENERAL_PROPERTY('','KEY','');
#1059=GENERAL_PROPERTY_ASSOCIATION('','',#1058,#1055);
#1=MECHANICAL_DESIGN_GEOMETRIC_PRESENTATION_REPRESENTATION('',(#26),#10);
ENDSEC;
END-ISO-10303-21;
