ISO-10303-21;
HEADER;

/* File generated by Shapr3D Version 26.123.11423.0 */

FILE_DESCRIPTION(('HOOPS Exchange Step'),'2;1');

FILE_NAME('C:\\Users\\Nalani\\AppData\\Local\\Packages\\Shapr3D.Shapr3D_j403pzjkqtqbj\\TempState\\export\\temp_export',
'2026-08-03T16:12:13+08:00',
('Nalani'),
('Shapr3D Limited'),
'HOOPS Exchange 2026.3',
'Shapr3D',
'Authorized');

FILE_SCHEMA( ('AP242_MANAGED_MODEL_BASED_3D_ENGINEERING_MIM_LF {1 0 10303 442 1 1 4}') );

ENDSEC;

DATA;
#3=(NAMED_UNIT(*)PLANE_ANGLE_UNIT()SI_UNIT($,.RADIAN.));
#4=PLANE_ANGLE_MEASURE_WITH_UNIT(PLANE_ANGLE_MEASURE(0.0174532925),#3);
#5=(CONVERSION_BASED_UNIT('DEGREE',#4)NAMED_UNIT(#6)PLANE_ANGLE_UNIT());
#6=DIMENSIONAL_EXPONENTS(0.,0.,0.,0.,0.,0.,0.);
#7=(NAMED_UNIT(*)SI_UNIT($,.STERADIAN.)SOLID_ANGLE_UNIT());
#8=(LENGTH_UNIT()NAMED_UNIT(*)SI_UNIT(.MILLI.,.METRE.));
#9=UNCERTAINTY_MEASURE_WITH_UNIT(LENGTH_MEASURE(1.000000E-05),#8,'DISTANCE_ACCURACY_VALUE','Maximum Tolerance applied to model');
#10=(GEOMETRIC_REPRESENTATION_CONTEXT(3)GLOBAL_UNCERTAINTY_ASSIGNED_CONTEXT((#9))GLOBAL_UNIT_ASSIGNED_CONTEXT((#8,#5,#7))REPRESENTATION_CONTEXT('','\X2\8F0953F0\X0\'));
#12=CARTESIAN_POINT('',(0.,0.,0.));
#13=DIRECTION('',(0.,0.,1.));
#14=DIRECTION('',(1.,0.,0.));
#15=AXIS2_PLACEMENT_3D('',#12,#13,#14);
#27=CARTESIAN_POINT('',(-5.709343486,0.,2.56));
#28=DIRECTION('',(0.,0.,-1.));
#29=DIRECTION('',(-1.,0.,0.));
#30=AXIS2_PLACEMENT_3D('',#27,#28,#29);
#31=PLANE('',#30);
#32=CARTESIAN_POINT('',(-6.506043486,-1.053342787,2.56));
#33=VERTEX_POINT('',#32);
#34=CARTESIAN_POINT('',(-6.506043486,1.053342787,2.56));
#35=VERTEX_POINT('',#34);
#36=CARTESIAN_POINT('',(-6.506043486,-1.053342787,2.56));
#37=DIRECTION('',(0.,1.,0.));
#38=VECTOR('',#37,2.106685574);
#39=LINE('',#36,#38);
#40=EDGE_CURVE('',#33,#35,#39,.T.);
#41=ORIENTED_EDGE('',*,*,#40,.F.);
#42=CARTESIAN_POINT('',(-5.688501373,-1.053342787,2.56));
#43=VERTEX_POINT('',#42);
#44=CARTESIAN_POINT('',(-5.688501373,-1.053342787,2.56));
#45=DIRECTION('',(-1.,0.,0.));
#46=VECTOR('',#45,0.817542113);
#47=LINE('',#44,#46);
#48=EDGE_CURVE('',#43,#33,#47,.T.);
#49=ORIENTED_EDGE('',*,*,#48,.F.);
#50=CARTESIAN_POINT('',(-5.688501373,-1.55,2.56));
#51=VERTEX_POINT('',#50);
#52=CARTESIAN_POINT('',(-5.688501373,-1.55,2.56));
#53=DIRECTION('',(0.,1.,0.));
#54=VECTOR('',#53,0.496657213);
#55=LINE('',#52,#54);
#56=EDGE_CURVE('',#51,#43,#55,.T.);
#57=ORIENTED_EDGE('',*,*,#56,.F.);
#58=CARTESIAN_POINT('',(-5.088347732,-1.55,2.56));
#59=VERTEX_POINT('',#58);
#60=CARTESIAN_POINT('',(-5.688501373,-1.55,2.56));
#61=DIRECTION('',(1.,0.,-0.));
#62=VECTOR('',#61,0.600153641);
#63=LINE('',#60,#62);
#64=EDGE_CURVE('',#51,#59,#63,.T.);
#65=ORIENTED_EDGE('',*,*,#64,.T.);
#66=CARTESIAN_POINT('',(-5.088347732,-1.058426767,2.56));
#67=VERTEX_POINT('',#66);
#68=CARTESIAN_POINT('',(-5.088347732,-1.058426767,2.56));
#69=DIRECTION('',(0.,-1.,0.));
#70=VECTOR('',#69,0.491573233);
#71=LINE('',#68,#70);
#72=EDGE_CURVE('',#67,#59,#71,.T.);
#73=ORIENTED_EDGE('',*,*,#72,.F.);
#74=CARTESIAN_POINT('',(-4.887358778,-1.058426767,2.56));
#75=VERTEX_POINT('',#74);
#76=CARTESIAN_POINT('',(-5.088347732,-1.058426767,2.56));
#77=DIRECTION('',(1.,0.,-0.));
#78=VECTOR('',#77,0.200988955);
#79=LINE('',#76,#78);
#80=EDGE_CURVE('',#67,#75,#79,.T.);
#81=ORIENTED_EDGE('',*,*,#80,.T.);
#82=CARTESIAN_POINT('',(-4.887358778,1.053342787,2.56));
#83=VERTEX_POINT('',#82);
#84=CARTESIAN_POINT('',(-4.887358778,1.053342787,2.56));
#85=DIRECTION('',(0.,-1.,0.));
#86=VECTOR('',#85,2.111769554);
#87=LINE('',#84,#86);
#88=EDGE_CURVE('',#83,#75,#87,.T.);
#89=ORIENTED_EDGE('',*,*,#88,.F.);
#90=CARTESIAN_POINT('',(-5.088347732,1.053342787,2.56));
#91=VERTEX_POINT('',#90);
#92=CARTESIAN_POINT('',(-4.887358778,1.053342787,2.56));
#93=DIRECTION('',(-1.,0.,0.));
#94=VECTOR('',#93,0.200988955);
#95=LINE('',#92,#94);
#96=EDGE_CURVE('',#83,#91,#95,.T.);
#97=ORIENTED_EDGE('',*,*,#96,.T.);
#98=CARTESIAN_POINT('',(-5.088347732,1.55,2.56));
#99=VERTEX_POINT('',#98);
#100=CARTESIAN_POINT('',(-5.088347732,1.55,2.56));
#101=DIRECTION('',(0.,-1.,0.));
#102=VECTOR('',#101,0.496657213);
#103=LINE('',#100,#102);
#104=EDGE_CURVE('',#99,#91,#103,.T.);
#105=ORIENTED_EDGE('',*,*,#104,.F.);
#106=CARTESIAN_POINT('',(-5.688501373,1.55,2.56));
#107=VERTEX_POINT('',#106);
#108=CARTESIAN_POINT('',(-5.088347732,1.55,2.56));
#109=DIRECTION('',(-1.,0.,0.));
#110=VECTOR('',#109,0.600153641);
#111=LINE('',#108,#110);
#112=EDGE_CURVE('',#99,#107,#111,.T.);
#113=ORIENTED_EDGE('',*,*,#112,.T.);
#114=CARTESIAN_POINT('',(-5.688501373,1.053342787,2.56));
#115=VERTEX_POINT('',#114);
#116=CARTESIAN_POINT('',(-5.688501373,1.053342787,2.56));
#117=DIRECTION('',(0.,1.,0.));
#118=VECTOR('',#117,0.496657213);
#119=LINE('',#116,#118);
#120=EDGE_CURVE('',#115,#107,#119,.T.);
#121=ORIENTED_EDGE('',*,*,#120,.F.);
#122=CARTESIAN_POINT('',(-5.688501373,1.053342787,2.56));
#123=DIRECTION('',(-1.,0.,0.));
#124=VECTOR('',#123,0.817542113);
#125=LINE('',#122,#124);
#126=EDGE_CURVE('',#115,#35,#125,.T.);
#127=ORIENTED_EDGE('',*,*,#126,.T.);
#128=EDGE_LOOP('',(#41,#49,#57,#65,#73,#81,#89,#97,#105,#113,#121,#127));
#129=FACE_BOUND('',#128,.T.);
#130=ADVANCED_FACE('',(#129),#31,.F.);
#131=CARTESIAN_POINT('',(-6.506043486,319.5,-428.29));
#132=DIRECTION('',(-1.,0.,0.));
#133=DIRECTION('',(0.,1.,0.));
#134=AXIS2_PLACEMENT_3D('',#131,#132,#133);
#135=PLANE('',#134);
#136=CARTESIAN_POINT('',(-6.506043486,1.053342787,1.26));
#137=VERTEX_POINT('',#136);
#138=CARTESIAN_POINT('',(-6.506043486,-1.053342787,1.26));
#139=VERTEX_POINT('',#138);
#140=CARTESIAN_POINT('',(-6.506043486,1.053342787,1.26));
#141=DIRECTION('',(0.,-1.,0.));
#142=VECTOR('',#141,2.106685574);
#143=LINE('',#140,#142);
#144=EDGE_CURVE('',#137,#139,#143,.T.);
#145=ORIENTED_EDGE('',*,*,#144,.T.);
#146=CARTESIAN_POINT('',(-6.506043486,-1.053342787,1.61));
#147=VERTEX_POINT('',#146);
#148=CARTESIAN_POINT('',(-6.506043486,-1.053342787,1.26));
#149=DIRECTION('',(0.,0.,1.));
#150=VECTOR('',#149,0.35);
#151=LINE('',#148,#150);
#152=EDGE_CURVE('',#139,#147,#151,.T.);
#153=ORIENTED_EDGE('',*,*,#152,.T.);
#154=CARTESIAN_POINT('',(-6.506043486,1.053342787,1.61));
#155=VERTEX_POINT('',#154);
#156=CARTESIAN_POINT('',(-6.506043486,-1.053342787,1.61));
#157=DIRECTION('',(0.,1.,0.));
#158=VECTOR('',#157,2.106685574);
#159=LINE('',#156,#158);
#160=EDGE_CURVE('',#147,#155,#159,.T.);
#161=ORIENTED_EDGE('',*,*,#160,.T.);
#162=CARTESIAN_POINT('',(-6.506043486,1.053342787,1.61));
#163=DIRECTION('',(0.,0.,-1.));
#164=VECTOR('',#163,0.35);
#165=LINE('',#162,#164);
#166=EDGE_CURVE('',#155,#137,#165,.T.);
#167=ORIENTED_EDGE('',*,*,#166,.T.);
#168=EDGE_LOOP('',(#145,#153,#161,#167));
#169=FACE_BOUND('',#168,.T.);
#170=ADVANCED_FACE('',(#169),#135,.T.);
#171=CARTESIAN_POINT('',(-6.506043486,319.5,-428.29));
#172=DIRECTION('',(-1.,0.,0.));
#173=DIRECTION('',(0.,1.,0.));
#174=AXIS2_PLACEMENT_3D('',#171,#172,#173);
#175=PLANE('',#174);
#176=CARTESIAN_POINT('',(-6.506043486,-1.053342787,2.21));
#177=VERTEX_POINT('',#176);
#178=CARTESIAN_POINT('',(-6.506043486,1.053342787,2.21));
#179=VERTEX_POINT('',#178);
#180=CARTESIAN_POINT('',(-6.506043486,-1.053342787,2.21));
#181=DIRECTION('',(0.,1.,0.));
#182=VECTOR('',#181,2.106685574);
#183=LINE('',#180,#182);
#184=EDGE_CURVE('',#177,#179,#183,.T.);
#185=ORIENTED_EDGE('',*,*,#184,.F.);
#186=CARTESIAN_POINT('',(-6.506043486,-1.053342787,2.21));
#187=DIRECTION('',(0.,0.,1.));
#188=VECTOR('',#187,0.35);
#189=LINE('',#186,#188);
#190=EDGE_CURVE('',#177,#33,#189,.T.);
#191=ORIENTED_EDGE('',*,*,#190,.T.);
#192=ORIENTED_EDGE('',*,*,#40,.T.);
#193=CARTESIAN_POINT('',(-6.506043486,1.053342787,2.56));
#194=DIRECTION('',(0.,0.,-1.));
#195=VECTOR('',#194,0.35);
#196=LINE('',#193,#195);
#197=EDGE_CURVE('',#35,#179,#196,.T.);
#198=ORIENTED_EDGE('',*,*,#197,.T.);
#199=EDGE_LOOP('',(#185,#191,#192,#198));
#200=FACE_BOUND('',#199,.T.);
#201=ADVANCED_FACE('',(#200),#175,.T.);
#202=CARTESIAN_POINT('',(-5.088347732,1.553342787,0.94));
#203=DIRECTION('',(1.,0.,0.));
#204=DIRECTION('',(0.,0.,-1.));
#205=AXIS2_PLACEMENT_3D('',#202,#203,#204);
#206=PLANE('',#205);
#207=CARTESIAN_POINT('',(-5.088347732,1.053342787,1.26));
#208=VERTEX_POINT('',#207);
#209=CARTESIAN_POINT('',(-5.088347732,1.55,1.26));
#210=VERTEX_POINT('',#209);
#211=CARTESIAN_POINT('',(-5.088347732,1.053342787,1.26));
#212=DIRECTION('',(0.,1.,0.));
#213=VECTOR('',#212,0.496657213);
#214=LINE('',#211,#213);
#215=EDGE_CURVE('',#208,#210,#214,.T.);
#216=ORIENTED_EDGE('',*,*,#215,.T.);
#217=CARTESIAN_POINT('',(-5.088347732,1.55,1.26));
#218=DIRECTION('',(0.,0.,1.));
#219=VECTOR('',#218,1.3);
#220=LINE('',#217,#219);
#221=EDGE_CURVE('',#210,#99,#220,.T.);
#222=ORIENTED_EDGE('',*,*,#221,.T.);
#223=ORIENTED_EDGE('',*,*,#104,.T.);
#224=CARTESIAN_POINT('',(-5.088347732,1.053342787,2.56));
#225=DIRECTION('',(0.,0.,-1.));
#226=VECTOR('',#225,1.3);
#227=LINE('',#224,#226);
#228=EDGE_CURVE('',#91,#208,#227,.T.);
#229=ORIENTED_EDGE('',*,*,#228,.T.);
#230=EDGE_LOOP('',(#216,#222,#223,#229));
#231=FACE_BOUND('',#230,.T.);
#232=ADVANCED_FACE('',(#231),#206,.T.);
#233=CARTESIAN_POINT('',(-5.709343486,0.525,1.26));
#234=DIRECTION('',(0.,0.,1.));
#235=DIRECTION('',(1.,0.,0.));
#236=AXIS2_PLACEMENT_3D('',#233,#234,#235);
#237=PLANE('',#236);
#238=CARTESIAN_POINT('',(-5.688501373,-1.053342787,1.26));
#239=VERTEX_POINT('',#238);
#240=CARTESIAN_POINT('',(-5.688501373,-1.053342787,1.26));
#241=DIRECTION('',(-1.,0.,0.));
#242=VECTOR('',#241,0.817542113);
#243=LINE('',#240,#242);
#244=EDGE_CURVE('',#239,#139,#243,.T.);
#245=ORIENTED_EDGE('',*,*,#244,.T.);
#246=ORIENTED_EDGE('',*,*,#144,.F.);
#247=CARTESIAN_POINT('',(-5.688501373,1.053342787,1.26));
#248=VERTEX_POINT('',#247);
#249=CARTESIAN_POINT('',(-6.506043486,1.053342787,1.26));
#250=DIRECTION('',(1.,0.,-0.));
#251=VECTOR('',#250,0.817542113);
#252=LINE('',#249,#251);
#253=EDGE_CURVE('',#137,#248,#252,.T.);
#254=ORIENTED_EDGE('',*,*,#253,.T.);
#255=CARTESIAN_POINT('',(-5.688501373,1.55,1.26));
#256=VERTEX_POINT('',#255);
#257=CARTESIAN_POINT('',(-5.688501373,1.55,1.26));
#258=DIRECTION('',(0.,-1.,0.));
#259=VECTOR('',#258,0.496657213);
#260=LINE('',#257,#259);
#261=EDGE_CURVE('',#256,#248,#260,.T.);
#262=ORIENTED_EDGE('',*,*,#261,.F.);
#263=CARTESIAN_POINT('',(-5.088347732,1.55,1.26));
#264=DIRECTION('',(-1.,0.,0.));
#265=VECTOR('',#264,0.600153641);
#266=LINE('',#263,#265);
#267=EDGE_CURVE('',#210,#256,#266,.T.);
#268=ORIENTED_EDGE('',*,*,#267,.F.);
#269=ORIENTED_EDGE('',*,*,#215,.F.);
#270=CARTESIAN_POINT('',(-4.464963173,1.053342787,1.26));
#271=VERTEX_POINT('',#270);
#272=CARTESIAN_POINT('',(-5.088347732,1.053342787,1.26));
#273=DIRECTION('',(1.,0.,-0.));
#274=VECTOR('',#273,0.62338456);
#275=LINE('',#272,#274);
#276=EDGE_CURVE('',#208,#271,#275,.T.);
#277=ORIENTED_EDGE('',*,*,#276,.T.);
#278=CARTESIAN_POINT('',(-4.464963173,-1.058426767,1.26));
#279=VERTEX_POINT('',#278);
#280=CARTESIAN_POINT('',(-4.464963173,-1.058426767,1.26));
#281=DIRECTION('',(0.,1.,0.));
#282=VECTOR('',#281,2.111769554);
#283=LINE('',#280,#282);
#284=EDGE_CURVE('',#279,#271,#283,.T.);
#285=ORIENTED_EDGE('',*,*,#284,.F.);
#286=CARTESIAN_POINT('',(-5.088347732,-1.058426767,1.26));
#287=VERTEX_POINT('',#286);
#288=CARTESIAN_POINT('',(-4.464963173,-1.058426767,1.26));
#289=DIRECTION('',(-1.,0.,0.));
#290=VECTOR('',#289,0.62338456);
#291=LINE('',#288,#290);
#292=EDGE_CURVE('',#279,#287,#291,.T.);
#293=ORIENTED_EDGE('',*,*,#292,.T.);
#294=CARTESIAN_POINT('',(-5.088347732,-1.55,1.26));
#295=VERTEX_POINT('',#294);
#296=CARTESIAN_POINT('',(-5.088347732,-1.55,1.26));
#297=DIRECTION('',(0.,1.,0.));
#298=VECTOR('',#297,0.491573233);
#299=LINE('',#296,#298);
#300=EDGE_CURVE('',#295,#287,#299,.T.);
#301=ORIENTED_EDGE('',*,*,#300,.F.);
#302=CARTESIAN_POINT('',(-5.688501373,-1.55,1.26));
#303=VERTEX_POINT('',#302);
#304=CARTESIAN_POINT('',(-5.688501373,-1.55,1.26));
#305=DIRECTION('',(1.,0.,-0.));
#306=VECTOR('',#305,0.600153641);
#307=LINE('',#304,#306);
#308=EDGE_CURVE('',#303,#295,#307,.T.);
#309=ORIENTED_EDGE('',*,*,#308,.F.);
#310=CARTESIAN_POINT('',(-5.688501373,-1.053342787,1.26));
#311=DIRECTION('',(0.,-1.,0.));
#312=VECTOR('',#311,0.496657213);
#313=LINE('',#310,#312);
#314=EDGE_CURVE('',#239,#303,#313,.T.);
#315=ORIENTED_EDGE('',*,*,#314,.F.);
#316=EDGE_LOOP('',(#245,#246,#254,#262,#268,#269,#277,#285,#293,#301,#309,#315));
#317=FACE_BOUND('',#316,.T.);
#318=CARTESIAN_POINT('',(-5.534554548,-0.81,1.26));
#319=VERTEX_POINT('',#318);
#320=CARTESIAN_POINT('',(-5.650772341,-0.81,1.26));
#321=VERTEX_POINT('',#320);
#322=CARTESIAN_POINT('',(-5.534554548,-0.81,1.26));
#323=DIRECTION('',(-1.,0.,0.));
#324=VECTOR('',#323,0.116217793);
#325=LINE('',#322,#324);
#326=EDGE_CURVE('',#319,#321,#325,.T.);
#327=ORIENTED_EDGE('',*,*,#326,.F.);
#328=CARTESIAN_POINT('',(-5.534554548,0.81,1.26));
#329=VERTEX_POINT('',#328);
#330=CARTESIAN_POINT('',(-5.534554548,0.81,1.26));
#331=DIRECTION('',(0.,-1.,0.));
#332=VECTOR('',#331,1.62);
#333=LINE('',#330,#332);
#334=EDGE_CURVE('',#329,#319,#333,.T.);
#335=ORIENTED_EDGE('',*,*,#334,.F.);
#336=CARTESIAN_POINT('',(-5.650772341,0.81,1.26));
#337=VERTEX_POINT('',#336);
#338=CARTESIAN_POINT('',(-5.534554548,0.81,1.26));
#339=DIRECTION('',(-1.,0.,0.));
#340=VECTOR('',#339,0.116217793);
#341=LINE('',#338,#340);
#342=EDGE_CURVE('',#329,#337,#341,.T.);
#343=ORIENTED_EDGE('',*,*,#342,.T.);
#344=CARTESIAN_POINT('',(-5.650772341,0.81,1.26));
#345=DIRECTION('',(0.,-1.,0.));
#346=VECTOR('',#345,1.62);
#347=LINE('',#344,#346);
#348=EDGE_CURVE('',#337,#321,#347,.T.);
#349=ORIENTED_EDGE('',*,*,#348,.T.);
#350=EDGE_LOOP('',(#327,#335,#343,#349));
#351=FACE_BOUND('',#350,.T.);
#352=ADVANCED_FACE('',(#317,#351),#237,.F.);
#353=CARTESIAN_POINT('',(-119.989343486,-1.55,-428.29));
#354=DIRECTION('',(0.,-1.,0.));
#355=DIRECTION('',(1.,0.,0.));
#356=AXIS2_PLACEMENT_3D('',#353,#354,#355);
#357=PLANE('',#356);
#358=ORIENTED_EDGE('',*,*,#64,.F.);
#359=CARTESIAN_POINT('',(-5.688501373,-1.55,2.56));
#360=DIRECTION('',(0.,0.,-1.));
#361=VECTOR('',#360,1.3);
#362=LINE('',#359,#361);
#363=EDGE_CURVE('',#51,#303,#362,.T.);
#364=ORIENTED_EDGE('',*,*,#363,.T.);
#365=ORIENTED_EDGE('',*,*,#308,.T.);
#366=CARTESIAN_POINT('',(-5.088347732,-1.55,1.26));
#367=DIRECTION('',(0.,0.,1.));
#368=VECTOR('',#367,1.3);
#369=LINE('',#366,#368);
#370=EDGE_CURVE('',#295,#59,#369,.T.);
#371=ORIENTED_EDGE('',*,*,#370,.T.);
#372=EDGE_LOOP('',(#358,#364,#365,#371));
#373=FACE_BOUND('',#372,.T.);
#374=ADVANCED_FACE('',(#373),#357,.T.);
#375=CARTESIAN_POINT('',(-5.709343486,0.81,2.125));
#376=DIRECTION('',(0.,1.,0.));
#377=DIRECTION('',(0.,0.,1.));
#378=AXIS2_PLACEMENT_3D('',#375,#376,#377);
#379=PLANE('',#378);
#380=CARTESIAN_POINT('',(-4.832240854,0.81,2.390364474));
#381=VERTEX_POINT('',#380);
#382=CARTESIAN_POINT('',(-4.524783834,0.81,1.444109065));
#383=VERTEX_POINT('',#382);
#384=CARTESIAN_POINT('',(-4.832240854,0.81,2.390364474));
#385=DIRECTION('',(0.309016994,0.,-0.951056516));
#386=VECTOR('',#385,0.994951818);
#387=LINE('',#384,#386);
#388=EDGE_CURVE('',#381,#383,#387,.T.);
#389=ORIENTED_EDGE('',*,*,#388,.F.);
#390=CARTESIAN_POINT('',(-5.850296477,0.81,2.390364474));
#391=VERTEX_POINT('',#390);
#392=CARTESIAN_POINT('',(-4.832240854,0.81,2.390364474));
#393=DIRECTION('',(-1.,0.,0.));
#394=VECTOR('',#393,1.018055622);
#395=LINE('',#392,#394);
#396=EDGE_CURVE('',#381,#391,#395,.T.);
#397=ORIENTED_EDGE('',*,*,#396,.T.);
#398=CARTESIAN_POINT('',(-5.850296477,0.81,2.182568834));
#399=VERTEX_POINT('',#398);
#400=CARTESIAN_POINT('',(-5.850296477,0.81,2.390364474));
#401=DIRECTION('',(0.,0.,-1.));
#402=VECTOR('',#401,0.20779564);
#403=LINE('',#400,#402);
#404=EDGE_CURVE('',#391,#399,#403,.T.);
#405=ORIENTED_EDGE('',*,*,#404,.T.);
#406=CARTESIAN_POINT('',(-5.650772341,0.81,1.574812618));
#407=VERTEX_POINT('',#406);
#408=CARTESIAN_POINT('',(-5.650772341,0.81,1.574812618));
#409=DIRECTION('',(-0.311917375,0.,0.950109231));
#410=VECTOR('',#409,0.639669836);
#411=LINE('',#408,#410);
#412=EDGE_CURVE('',#407,#399,#411,.T.);
#413=ORIENTED_EDGE('',*,*,#412,.F.);
#414=CARTESIAN_POINT('',(-5.650772341,0.81,1.26));
#415=DIRECTION('',(0.,0.,1.));
#416=VECTOR('',#415,0.314812618);
#417=LINE('',#414,#416);
#418=EDGE_CURVE('',#337,#407,#417,.T.);
#419=ORIENTED_EDGE('',*,*,#418,.F.);
#420=ORIENTED_EDGE('',*,*,#342,.F.);
#421=CARTESIAN_POINT('',(-5.534554548,0.81,1.444109065));
#422=VERTEX_POINT('',#421);
#423=CARTESIAN_POINT('',(-5.534554548,0.81,1.26));
#424=DIRECTION('',(0.,0.,1.));
#425=VECTOR('',#424,0.184109065);
#426=LINE('',#423,#425);
#427=EDGE_CURVE('',#329,#422,#426,.T.);
#428=ORIENTED_EDGE('',*,*,#427,.T.);
#429=CARTESIAN_POINT('',(-5.534554548,0.81,1.444109065));
#430=DIRECTION('',(1.,0.,-0.));
#431=VECTOR('',#430,1.009770714);
#432=LINE('',#429,#431);
#433=EDGE_CURVE('',#422,#383,#432,.T.);
#434=ORIENTED_EDGE('',*,*,#433,.T.);
#435=EDGE_LOOP('',(#389,#397,#405,#413,#419,#420,#428,#434));
#436=FACE_BOUND('',#435,.T.);
#437=ADVANCED_FACE('',(#436),#379,.F.);
#438=CARTESIAN_POINT('',(-4.872796604,-1.05,2.515182237));
#439=DIRECTION('',(0.951056516,0.,0.309016994));
#440=DIRECTION('',(0.309016994,0.,-0.951056516));
#441=AXIS2_PLACEMENT_3D('',#438,#439,#440);
#442=PLANE('',#441);
#443=CARTESIAN_POINT('',(-4.832240854,-0.81,2.390364474));
#444=VERTEX_POINT('',#443);
#445=CARTESIAN_POINT('',(-4.832240854,-0.81,2.390364474));
#446=DIRECTION('',(0.,1.,0.));
#447=VECTOR('',#446,1.62);
#448=LINE('',#445,#447);
#449=EDGE_CURVE('',#444,#381,#448,.T.);
#450=ORIENTED_EDGE('',*,*,#449,.T.);
#451=ORIENTED_EDGE('',*,*,#388,.T.);
#452=CARTESIAN_POINT('',(-4.524783834,-0.81,1.444109065));
#453=VERTEX_POINT('',#452);
#454=CARTESIAN_POINT('',(-4.524783834,-0.81,1.444109065));
#455=DIRECTION('',(0.,1.,0.));
#456=VECTOR('',#455,1.62);
#457=LINE('',#454,#456);
#458=EDGE_CURVE('',#453,#383,#457,.T.);
#459=ORIENTED_EDGE('',*,*,#458,.F.);
#460=CARTESIAN_POINT('',(-4.524783834,-0.81,1.444109065));
#461=DIRECTION('',(-0.309016994,0.,0.951056516));
#462=VECTOR('',#461,0.994951818);
#463=LINE('',#460,#462);
#464=EDGE_CURVE('',#453,#444,#463,.T.);
#465=ORIENTED_EDGE('',*,*,#464,.T.);
#466=EDGE_LOOP('',(#450,#451,#459,#465));
#467=FACE_BOUND('',#466,.T.);
#468=CARTESIAN_POINT('',(-4.887358778,1.053342787,2.56));
#469=DIRECTION('',(0.309016994,0.,-0.951056516));
#470=VECTOR('',#469,1.366900892);
#471=LINE('',#468,#470);
#472=EDGE_CURVE('',#83,#271,#471,.T.);
#473=ORIENTED_EDGE('',*,*,#472,.F.);
#474=ORIENTED_EDGE('',*,*,#88,.T.);
#475=CARTESIAN_POINT('',(-4.887358778,-1.058426767,2.56));
#476=DIRECTION('',(0.309016994,0.,-0.951056516));
#477=VECTOR('',#476,1.366900892);
#478=LINE('',#475,#477);
#479=EDGE_CURVE('',#75,#279,#478,.T.);
#480=ORIENTED_EDGE('',*,*,#479,.T.);
#481=ORIENTED_EDGE('',*,*,#284,.T.);
#482=EDGE_LOOP('',(#473,#474,#480,#481));
#483=FACE_BOUND('',#482,.T.);
#484=ADVANCED_FACE('',(#467,#483),#442,.T.);
#485=CARTESIAN_POINT('',(-5.709343486,-0.81,2.125));
#486=DIRECTION('',(0.,-1.,0.));
#487=DIRECTION('',(0.,0.,-1.));
#488=AXIS2_PLACEMENT_3D('',#485,#486,#487);
#489=PLANE('',#488);
#490=ORIENTED_EDGE('',*,*,#464,.F.);
#491=CARTESIAN_POINT('',(-5.534554548,-0.81,1.444109065));
#492=VERTEX_POINT('',#491);
#493=CARTESIAN_POINT('',(-5.534554548,-0.81,1.444109065));
#494=DIRECTION('',(1.,0.,-0.));
#495=VECTOR('',#494,1.009770714);
#496=LINE('',#493,#495);
#497=EDGE_CURVE('',#492,#453,#496,.T.);
#498=ORIENTED_EDGE('',*,*,#497,.F.);
#499=CARTESIAN_POINT('',(-5.534554548,-0.81,1.26));
#500=DIRECTION('',(0.,0.,1.));
#501=VECTOR('',#500,0.184109065);
#502=LINE('',#499,#501);
#503=EDGE_CURVE('',#319,#492,#502,.T.);
#504=ORIENTED_EDGE('',*,*,#503,.F.);
#505=ORIENTED_EDGE('',*,*,#326,.T.);
#506=CARTESIAN_POINT('',(-5.650772341,-0.81,1.574812618));
#507=VERTEX_POINT('',#506);
#508=CARTESIAN_POINT('',(-5.650772341,-0.81,1.26));
#509=DIRECTION('',(0.,0.,1.));
#510=VECTOR('',#509,0.314812618);
#511=LINE('',#508,#510);
#512=EDGE_CURVE('',#321,#507,#511,.T.);
#513=ORIENTED_EDGE('',*,*,#512,.T.);
#514=CARTESIAN_POINT('',(-5.850296477,-0.81,2.182568834));
#515=VERTEX_POINT('',#514);
#516=CARTESIAN_POINT('',(-5.650772341,-0.81,1.574812618));
#517=DIRECTION('',(-0.311917375,0.,0.950109231));
#518=VECTOR('',#517,0.639669836);
#519=LINE('',#516,#518);
#520=EDGE_CURVE('',#507,#515,#519,.T.);
#521=ORIENTED_EDGE('',*,*,#520,.T.);
#522=CARTESIAN_POINT('',(-5.850296477,-0.81,2.390364474));
#523=VERTEX_POINT('',#522);
#524=CARTESIAN_POINT('',(-5.850296477,-0.81,2.390364474));
#525=DIRECTION('',(0.,0.,-1.));
#526=VECTOR('',#525,0.20779564);
#527=LINE('',#524,#526);
#528=EDGE_CURVE('',#523,#515,#527,.T.);
#529=ORIENTED_EDGE('',*,*,#528,.F.);
#530=CARTESIAN_POINT('',(-4.832240854,-0.81,2.390364474));
#531=DIRECTION('',(-1.,0.,0.));
#532=VECTOR('',#531,1.018055622);
#533=LINE('',#530,#532);
#534=EDGE_CURVE('',#444,#523,#533,.T.);
#535=ORIENTED_EDGE('',*,*,#534,.F.);
#536=EDGE_LOOP('',(#490,#498,#504,#505,#513,#521,#529,#535));
#537=FACE_BOUND('',#536,.T.);
#538=ADVANCED_FACE('',(#537),#489,.F.);
#539=CARTESIAN_POINT('',(-6.229343486,-1.25,2.21));
#540=DIRECTION('',(0.,0.,-1.));
#541=DIRECTION('',(-1.,0.,0.));
#542=AXIS2_PLACEMENT_3D('',#539,#540,#541);
#543=PLANE('',#542);
#544=CARTESIAN_POINT('',(-6.282743486,-1.053342787,2.21));
#545=VERTEX_POINT('',#544);
#546=CARTESIAN_POINT('',(-6.506043486,-1.053342787,2.21));
#547=DIRECTION('',(1.,0.,-0.));
#548=VECTOR('',#547,0.2233);
#549=LINE('',#546,#548);
#550=EDGE_CURVE('',#177,#545,#549,.T.);
#551=ORIENTED_EDGE('',*,*,#550,.F.);
#552=ORIENTED_EDGE('',*,*,#184,.T.);
#553=CARTESIAN_POINT('',(-6.282743486,1.053342787,2.21));
#554=VERTEX_POINT('',#553);
#555=CARTESIAN_POINT('',(-6.282743486,1.053342787,2.21));
#556=DIRECTION('',(-1.,0.,0.));
#557=VECTOR('',#556,0.2233);
#558=LINE('',#555,#557);
#559=EDGE_CURVE('',#554,#179,#558,.T.);
#560=ORIENTED_EDGE('',*,*,#559,.F.);
#561=CARTESIAN_POINT('',(-6.282743486,-1.053342787,2.21));
#562=DIRECTION('',(0.,1.,0.));
#563=VECTOR('',#562,2.106685574);
#564=LINE('',#561,#563);
#565=EDGE_CURVE('',#545,#554,#564,.T.);
#566=ORIENTED_EDGE('',*,*,#565,.F.);
#567=EDGE_LOOP('',(#551,#552,#560,#566));
#568=FACE_BOUND('',#567,.T.);
#569=ADVANCED_FACE('',(#568),#543,.T.);
#570=CARTESIAN_POINT('',(-6.282743486,-1.25,1.91));
#571=DIRECTION('',(-1.,0.,0.));
#572=DIRECTION('',(0.,0.,1.));
#573=AXIS2_PLACEMENT_3D('',#570,#571,#572);
#574=PLANE('',#573);
#575=CARTESIAN_POINT('',(-6.282743486,-1.053342787,1.61));
#576=VERTEX_POINT('',#575);
#577=CARTESIAN_POINT('',(-6.282743486,-1.053342787,2.21));
#578=DIRECTION('',(0.,0.,-1.));
#579=VECTOR('',#578,0.6);
#580=LINE('',#577,#579);
#581=EDGE_CURVE('',#545,#576,#580,.T.);
#582=ORIENTED_EDGE('',*,*,#581,.F.);
#583=ORIENTED_EDGE('',*,*,#565,.T.);
#584=CARTESIAN_POINT('',(-6.282743486,1.053342787,1.61));
#585=VERTEX_POINT('',#584);
#586=CARTESIAN_POINT('',(-6.282743486,1.053342787,1.61));
#587=DIRECTION('',(0.,0.,1.));
#588=VECTOR('',#587,0.6);
#589=LINE('',#586,#588);
#590=EDGE_CURVE('',#585,#554,#589,.T.);
#591=ORIENTED_EDGE('',*,*,#590,.F.);
#592=CARTESIAN_POINT('',(-6.282743486,-1.053342787,1.61));
#593=DIRECTION('',(0.,1.,0.));
#594=VECTOR('',#593,2.106685574);
#595=LINE('',#592,#594);
#596=EDGE_CURVE('',#576,#585,#595,.T.);
#597=ORIENTED_EDGE('',*,*,#596,.F.);
#598=EDGE_LOOP('',(#582,#583,#591,#597));
#599=FACE_BOUND('',#598,.T.);
#600=ADVANCED_FACE('',(#599),#574,.T.);
#601=CARTESIAN_POINT('',(-6.229343486,-1.25,1.61));
#602=DIRECTION('',(0.,0.,1.));
#603=DIRECTION('',(1.,0.,0.));
#604=AXIS2_PLACEMENT_3D('',#601,#602,#603);
#605=PLANE('',#604);
#606=CARTESIAN_POINT('',(-6.282743486,-1.053342787,1.61));
#607=DIRECTION('',(-1.,0.,0.));
#608=VECTOR('',#607,0.2233);
#609=LINE('',#606,#608);
#610=EDGE_CURVE('',#576,#147,#609,.T.);
#611=ORIENTED_EDGE('',*,*,#610,.F.);
#612=ORIENTED_EDGE('',*,*,#596,.T.);
#613=CARTESIAN_POINT('',(-6.506043486,1.053342787,1.61));
#614=DIRECTION('',(1.,0.,-0.));
#615=VECTOR('',#614,0.2233);
#616=LINE('',#613,#615);
#617=EDGE_CURVE('',#155,#585,#616,.T.);
#618=ORIENTED_EDGE('',*,*,#617,.F.);
#619=ORIENTED_EDGE('',*,*,#160,.F.);
#620=EDGE_LOOP('',(#611,#612,#618,#619));
#621=FACE_BOUND('',#620,.T.);
#622=ADVANCED_FACE('',(#621),#605,.T.);
#623=CARTESIAN_POINT('',(-5.534554548,-0.81,1.433310128));
#624=DIRECTION('',(-1.,0.,0.));
#625=DIRECTION('',(0.,0.,1.));
#626=AXIS2_PLACEMENT_3D('',#623,#624,#625);
#627=PLANE('',#626);
#628=ORIENTED_EDGE('',*,*,#334,.T.);
#629=ORIENTED_EDGE('',*,*,#503,.T.);
#630=CARTESIAN_POINT('',(-5.534554548,-0.81,1.444109065));
#631=DIRECTION('',(0.,1.,0.));
#632=VECTOR('',#631,1.62);
#633=LINE('',#630,#632);
#634=EDGE_CURVE('',#492,#422,#633,.T.);
#635=ORIENTED_EDGE('',*,*,#634,.T.);
#636=ORIENTED_EDGE('',*,*,#427,.F.);
#637=EDGE_LOOP('',(#628,#629,#635,#636));
#638=FACE_BOUND('',#637,.T.);
#639=ADVANCED_FACE('',(#638),#627,.T.);
#640=CARTESIAN_POINT('',(-5.650772341,-0.81,1.303657292));
#641=DIRECTION('',(-1.,0.,0.));
#642=DIRECTION('',(0.,0.,1.));
#643=AXIS2_PLACEMENT_3D('',#640,#641,#642);
#644=PLANE('',#643);
#645=ORIENTED_EDGE('',*,*,#418,.T.);
#646=CARTESIAN_POINT('',(-5.650772341,-0.81,1.574812618));
#647=DIRECTION('',(0.,1.,0.));
#648=VECTOR('',#647,1.62);
#649=LINE('',#646,#648);
#650=EDGE_CURVE('',#507,#407,#649,.T.);
#651=ORIENTED_EDGE('',*,*,#650,.F.);
#652=ORIENTED_EDGE('',*,*,#512,.F.);
#653=ORIENTED_EDGE('',*,*,#348,.F.);
#654=EDGE_LOOP('',(#645,#651,#652,#653));
#655=FACE_BOUND('',#654,.T.);
#656=ADVANCED_FACE('',(#655),#644,.F.);
#657=CARTESIAN_POINT('',(-5.530531866,-0.81,2.390364474));
#658=DIRECTION('',(0.,0.,-1.));
#659=DIRECTION('',(-1.,0.,0.));
#660=AXIS2_PLACEMENT_3D('',#657,#658,#659);
#661=PLANE('',#660);
#662=ORIENTED_EDGE('',*,*,#396,.F.);
#663=ORIENTED_EDGE('',*,*,#449,.F.);
#664=ORIENTED_EDGE('',*,*,#534,.T.);
#665=CARTESIAN_POINT('',(-5.850296477,-0.81,2.390364474));
#666=DIRECTION('',(0.,1.,0.));
#667=VECTOR('',#666,1.62);
#668=LINE('',#665,#667);
#669=EDGE_CURVE('',#523,#391,#668,.T.);
#670=ORIENTED_EDGE('',*,*,#669,.T.);
#671=EDGE_LOOP('',(#662,#663,#664,#670));
#672=FACE_BOUND('',#671,.T.);
#673=ADVANCED_FACE('',(#672),#661,.T.);
#674=CARTESIAN_POINT('',(-4.856448573,-0.81,1.444109065));
#675=DIRECTION('',(0.,0.,1.));
#676=DIRECTION('',(1.,0.,0.));
#677=AXIS2_PLACEMENT_3D('',#674,#675,#676);
#678=PLANE('',#677);
#679=ORIENTED_EDGE('',*,*,#433,.F.);
#680=ORIENTED_EDGE('',*,*,#634,.F.);
#681=ORIENTED_EDGE('',*,*,#497,.T.);
#682=ORIENTED_EDGE('',*,*,#458,.T.);
#683=EDGE_LOOP('',(#679,#680,#681,#682));
#684=FACE_BOUND('',#683,.T.);
#685=ADVANCED_FACE('',(#684),#678,.T.);
#686=CARTESIAN_POINT('',(-5.620057913,-0.81,1.481255595));
#687=DIRECTION('',(-0.950109231,0.,-0.311917375));
#688=DIRECTION('',(-0.311917375,0.,0.950109231));
#689=AXIS2_PLACEMENT_3D('',#686,#687,#688);
#690=PLANE('',#689);
#691=ORIENTED_EDGE('',*,*,#412,.T.);
#692=CARTESIAN_POINT('',(-5.850296477,-0.81,2.182568834));
#693=DIRECTION('',(0.,1.,0.));
#694=VECTOR('',#693,1.62);
#695=LINE('',#692,#694);
#696=EDGE_CURVE('',#515,#399,#695,.T.);
#697=ORIENTED_EDGE('',*,*,#696,.F.);
#698=ORIENTED_EDGE('',*,*,#520,.F.);
#699=ORIENTED_EDGE('',*,*,#650,.T.);
#700=EDGE_LOOP('',(#691,#697,#698,#699));
#701=FACE_BOUND('',#700,.T.);
#702=ADVANCED_FACE('',(#701),#690,.F.);
#703=CARTESIAN_POINT('',(-5.850296477,-0.81,2.286466654));
#704=DIRECTION('',(1.,0.,0.));
#705=DIRECTION('',(0.,0.,-1.));
#706=AXIS2_PLACEMENT_3D('',#703,#704,#705);
#707=PLANE('',#706);
#708=ORIENTED_EDGE('',*,*,#404,.F.);
#709=ORIENTED_EDGE('',*,*,#669,.F.);
#710=ORIENTED_EDGE('',*,*,#528,.T.);
#711=ORIENTED_EDGE('',*,*,#696,.T.);
#712=EDGE_LOOP('',(#708,#709,#710,#711));
#713=FACE_BOUND('',#712,.T.);
#714=ADVANCED_FACE('',(#713),#707,.T.);
#715=CARTESIAN_POINT('',(-5.688501373,1.553342787,0.94));
#716=DIRECTION('',(-1.,0.,0.));
#717=DIRECTION('',(0.,0.,1.));
#718=AXIS2_PLACEMENT_3D('',#715,#716,#717);
#719=PLANE('',#718);
#720=CARTESIAN_POINT('',(-5.688501373,1.55,1.26));
#721=DIRECTION('',(0.,0.,1.));
#722=VECTOR('',#721,1.3);
#723=LINE('',#720,#722);
#724=EDGE_CURVE('',#256,#107,#723,.T.);
#725=ORIENTED_EDGE('',*,*,#724,.F.);
#726=ORIENTED_EDGE('',*,*,#261,.T.);
#727=CARTESIAN_POINT('',(-5.688501373,1.053342787,2.56));
#728=DIRECTION('',(0.,0.,-1.));
#729=VECTOR('',#728,1.3);
#730=LINE('',#727,#729);
#731=EDGE_CURVE('',#115,#248,#730,.T.);
#732=ORIENTED_EDGE('',*,*,#731,.F.);
#733=ORIENTED_EDGE('',*,*,#120,.T.);
#734=EDGE_LOOP('',(#725,#726,#732,#733));
#735=FACE_BOUND('',#734,.T.);
#736=ADVANCED_FACE('',(#735),#719,.T.);
#737=CARTESIAN_POINT('',(-5.288347732,1.053342787,-0.51));
#738=DIRECTION('',(0.,-1.,0.));
#739=DIRECTION('',(0.,0.,1.));
#740=AXIS2_PLACEMENT_3D('',#737,#738,#739);
#741=PLANE('',#740);
#742=ORIENTED_EDGE('',*,*,#96,.F.);
#743=ORIENTED_EDGE('',*,*,#472,.T.);
#744=ORIENTED_EDGE('',*,*,#276,.F.);
#745=ORIENTED_EDGE('',*,*,#228,.F.);
#746=EDGE_LOOP('',(#742,#743,#744,#745));
#747=FACE_BOUND('',#746,.T.);
#748=ADVANCED_FACE('',(#747),#741,.F.);
#749=CARTESIAN_POINT('',(-5.288347732,1.053342787,-0.51));
#750=DIRECTION('',(0.,-1.,0.));
#751=DIRECTION('',(0.,0.,1.));
#752=AXIS2_PLACEMENT_3D('',#749,#750,#751);
#753=PLANE('',#752);
#754=ORIENTED_EDGE('',*,*,#559,.T.);
#755=ORIENTED_EDGE('',*,*,#197,.F.);
#756=ORIENTED_EDGE('',*,*,#126,.F.);
#757=ORIENTED_EDGE('',*,*,#731,.T.);
#758=ORIENTED_EDGE('',*,*,#253,.F.);
#759=ORIENTED_EDGE('',*,*,#166,.F.);
#760=ORIENTED_EDGE('',*,*,#617,.T.);
#761=ORIENTED_EDGE('',*,*,#590,.T.);
#762=EDGE_LOOP('',(#754,#755,#756,#757,#758,#759,#760,#761));
#763=FACE_BOUND('',#762,.T.);
#764=ADVANCED_FACE('',(#763),#753,.F.);
#765=CARTESIAN_POINT('',(-5.088347732,-1.558426767,0.94));
#766=DIRECTION('',(1.,0.,0.));
#767=DIRECTION('',(0.,0.,-1.));
#768=AXIS2_PLACEMENT_3D('',#765,#766,#767);
#769=PLANE('',#768);
#770=ORIENTED_EDGE('',*,*,#72,.T.);
#771=ORIENTED_EDGE('',*,*,#370,.F.);
#772=ORIENTED_EDGE('',*,*,#300,.T.);
#773=CARTESIAN_POINT('',(-5.088347732,-1.058426767,1.26));
#774=DIRECTION('',(0.,0.,1.));
#775=VECTOR('',#774,1.3);
#776=LINE('',#773,#775);
#777=EDGE_CURVE('',#287,#67,#776,.T.);
#778=ORIENTED_EDGE('',*,*,#777,.T.);
#779=EDGE_LOOP('',(#770,#771,#772,#778));
#780=FACE_BOUND('',#779,.T.);
#781=ADVANCED_FACE('',(#780),#769,.T.);
#782=CARTESIAN_POINT('',(-5.288347732,-1.058426767,-0.51));
#783=DIRECTION('',(0.,1.,0.));
#784=DIRECTION('',(0.,0.,1.));
#785=AXIS2_PLACEMENT_3D('',#782,#783,#784);
#786=PLANE('',#785);
#787=ORIENTED_EDGE('',*,*,#292,.F.);
#788=ORIENTED_EDGE('',*,*,#479,.F.);
#789=ORIENTED_EDGE('',*,*,#80,.F.);
#790=ORIENTED_EDGE('',*,*,#777,.F.);
#791=EDGE_LOOP('',(#787,#788,#789,#790));
#792=FACE_BOUND('',#791,.T.);
#793=ADVANCED_FACE('',(#792),#786,.F.);
#794=CARTESIAN_POINT('',(-5.688501373,-1.558426767,0.94));
#795=DIRECTION('',(-1.,0.,0.));
#796=DIRECTION('',(0.,0.,1.));
#797=AXIS2_PLACEMENT_3D('',#794,#795,#796);
#798=PLANE('',#797);
#799=ORIENTED_EDGE('',*,*,#56,.T.);
#800=CARTESIAN_POINT('',(-5.688501373,-1.053342787,1.26));
#801=DIRECTION('',(0.,0.,1.));
#802=VECTOR('',#801,1.3);
#803=LINE('',#800,#802);
#804=EDGE_CURVE('',#239,#43,#803,.T.);
#805=ORIENTED_EDGE('',*,*,#804,.F.);
#806=ORIENTED_EDGE('',*,*,#314,.T.);
#807=ORIENTED_EDGE('',*,*,#363,.F.);
#808=EDGE_LOOP('',(#799,#805,#806,#807));
#809=FACE_BOUND('',#808,.T.);
#810=ADVANCED_FACE('',(#809),#798,.T.);
#811=CARTESIAN_POINT('',(-5.534554548,1.55,1.03));
#812=DIRECTION('',(0.,1.,0.));
#813=DIRECTION('',(0.,0.,1.));
#814=AXIS2_PLACEMENT_3D('',#811,#812,#813);
#815=PLANE('',#814);
#816=ORIENTED_EDGE('',*,*,#267,.T.);
#817=ORIENTED_EDGE('',*,*,#724,.T.);
#818=ORIENTED_EDGE('',*,*,#112,.F.);
#819=ORIENTED_EDGE('',*,*,#221,.F.);
#820=EDGE_LOOP('',(#816,#817,#818,#819));
#821=FACE_BOUND('',#820,.T.);
#822=ADVANCED_FACE('',(#821),#815,.T.);
#823=CARTESIAN_POINT('',(-5.89392243,-1.053342787,0.8));
#824=DIRECTION('',(0.,1.,0.));
#825=DIRECTION('',(0.,0.,1.));
#826=AXIS2_PLACEMENT_3D('',#823,#824,#825);
#827=PLANE('',#826);
#828=ORIENTED_EDGE('',*,*,#804,.T.);
#829=ORIENTED_EDGE('',*,*,#48,.T.);
#830=ORIENTED_EDGE('',*,*,#190,.F.);
#831=ORIENTED_EDGE('',*,*,#550,.T.);
#832=ORIENTED_EDGE('',*,*,#581,.T.);
#833=ORIENTED_EDGE('',*,*,#610,.T.);
#834=ORIENTED_EDGE('',*,*,#152,.F.);
#835=ORIENTED_EDGE('',*,*,#244,.F.);
#836=EDGE_LOOP('',(#828,#829,#830,#831,#832,#833,#834,#835));
#837=FACE_BOUND('',#836,.T.);
#838=ADVANCED_FACE('',(#837),#827,.F.);
#839=CLOSED_SHELL('',(#130,#170,#201,#232,#352,#374,#437,#484,#538,#569,#600,#622,#639,#656,#673,#685,#702,#714,#736,#748,#764,#781,#793,#810,#822,#838));
#840=MANIFOLD_SOLID_BREP('\X2\8F0953F0\X0\',#839);
#841=COLOUR_RGB('',0.850980401,0.850980401,0.850980401);
#842=FILL_AREA_STYLE_COLOUR('',#841);
#843=FILL_AREA_STYLE('',(#842));
#844=SURFACE_STYLE_FILL_AREA(#843);
#845=SURFACE_SIDE_STYLE('',(#844));
#846=SURFACE_STYLE_USAGE(.BOTH.,#845);
#847=PRESENTATION_STYLE_ASSIGNMENT((#846));
#26=STYLED_ITEM('',(#847),#840);
#16=SHAPE_REPRESENTATION('\X2\8F0953F0\X0\',(#15),#10);
#17=ADVANCED_BREP_SHAPE_REPRESENTATION('\X2\8F0953F0\X0\',(#840),#10);
#855=SHAPE_REPRESENTATION_RELATIONSHIP('','',#16,#17);
#856=CARTESIAN_POINT('',(0.,0.,0.));
#857=DIRECTION('',(0.,0.,1.));
#858=DIRECTION('',(1.,0.,0.));
#859=AXIS2_PLACEMENT_3D('',#856,#857,#858);
#861=MAPPED_ITEM('',#860,#859);
#860=REPRESENTATION_MAP(#859,#16);
#862=APPLICATION_CONTEXT('Managed model based 3d engineering');
#863=APPLICATION_PROTOCOL_DEFINITION('international standard','ap242_managed_model_based_3d_engineering',2014,#862);
#864=PRODUCT_CONTEXT('',#862,'mechanical');
#865=PRODUCT_DEFINITION_CONTEXT('part definition',#862,'design');
#24=PRODUCT('\X2\8F0953F0\X0\','\X2\8F0953F0\X0\','',(#864));
#866=PRODUCT_RELATED_PRODUCT_CATEGORY('part','',(#24));
#867=PRODUCT_DEFINITION_FORMATION_WITH_SPECIFIED_SOURCE('','',#24,.NOT_KNOWN.);
#25=PRODUCT_DEFINITION('design','',#867,#865);
#23=PRODUCT_DEFINITION_SHAPE('','',#25);
#868=SHAPE_DEFINITION_REPRESENTATION(#23,#16);
#11=DRAUGHTING_MODEL('',(#861),#10);
#869=DESCRIPTIVE_REPRESENTATION_ITEM('KEY','C:\\Users\\Nalani\\AppData\\Local\\Packages\\Shapr3D.Shapr3D_j403pzjkqtqbj\\TempState\\48c25845-aa1e-4d7b-a447-052236c7493e.tmp');
#870=PROPERTY_DEFINITION('KEY','',#25);
#871=REPRESENTATION('',(#869),#10);
#872=PROPERTY_DEFINITION_REPRESENTATION(#870,#871);
#873=GENERAL_PROPERTY('','KEY','');
#874=GENERAL_PROPERTY_ASSOCIATION('','',#873,#870);
#1=MECHANICAL_DESIGN_GEOMETRIC_PRESENTATION_REPRESENTATION('',(#26),#10);
ENDSEC;
END-ISO-10303-21;
