ISO-10303-21;
HEADER;

/* File generated by Shapr3D Version 26.123.11423.0 */

FILE_DESCRIPTION(('HOOPS Exchange Step'),'2;1');

FILE_NAME('C:\\Users\\Nalani\\AppData\\Local\\Packages\\Shapr3D.Shapr3D_j403pzjkqtqbj\\TempState\\export\\temp_export',
'2026-08-03T16:12:14+08:00',
('Nalani'),
('Shapr3D Limited'),
'HOOPS Exchange 2026.3',
'Shapr3D',
'Authorized');

FILE_SCHEMA( ('AP242_MANAGED_MODEL_BASED_3D_ENGINEERING_MIM_LF {1 0 10303 442 1 1 4}') );

ENDSEC;

DATA;
#3=(NAMED_UNIT(*)PLANE_ANGLE_UNIT()SI_UNIT($,.RADIAN.));
#4=PLANE_ANGLE_MEASURE_WITH_UNIT(PLANE_ANGLE_MEASURE(0.0174532925),#3);
#5=(CONVERSION_BASED_UNIT('DEGREE',#4)NAMED_UNIT(#6)PLANE_ANGLE_UNIT());
#6=DIMENSIONAL_EXPONENTS(0.,0.,0.,0.,0.,0.,0.);
#7=(NAMED_UNIT(*)SI_UNIT($,.STERADIAN.)SOLID_ANGLE_UNIT());
#8=(LENGTH_UNIT()NAMED_UNIT(*)SI_UNIT(.MILLI.,.METRE.));
#9=UNCERTAINTY_MEASURE_WITH_UNIT(LENGTH_MEASURE(1.000000E-05),#8,'DISTANCE_ACCURACY_VALUE','Maximum Tolerance applied to model');
#10=(GEOMETRIC_REPRESENTATION_CONTEXT(3)GLOBAL_UNCERTAINTY_ASSIGNED_CONTEXT((#9))GLOBAL_UNIT_ASSIGNED_CONTEXT((#8,#5,#7))REPRESENTATION_CONTEXT('','\X2\8F1452A9593E81C2\X0\ (\X2\5C454E2D\X0\)'));
#12=CARTESIAN_POINT('',(0.,0.,0.));
#13=DIRECTION('',(0.,0.,1.));
#14=DIRECTION('',(1.,0.,0.));
#15=AXIS2_PLACEMENT_3D('',#12,#13,#14);
#27=CARTESIAN_POINT('',(-6.779004246,13.603342787,1.2));
#28=DIRECTION('',(1.,0.,0.));
#29=DIRECTION('',(0.,-1.,0.));
#30=AXIS2_PLACEMENT_3D('',#27,#28,#29);
#31=PLANE('',#30);
#32=CARTESIAN_POINT('',(-6.779004246,16.473174826,2.44));
#33=VERTEX_POINT('',#32);
#34=CARTESIAN_POINT('',(-6.779004246,18.203342787,2.44));
#35=VERTEX_POINT('',#34);
#36=CARTESIAN_POINT('',(-6.779004246,16.473174826,2.44));
#37=DIRECTION('',(0.,1.,0.));
#38=VECTOR('',#37,1.730167961);
#39=LINE('',#36,#38);
#40=EDGE_CURVE('',#33,#35,#39,.T.);
#41=ORIENTED_EDGE('',*,*,#40,.T.);
#42=CARTESIAN_POINT('',(-6.779004246,18.203342787,1.64));
#43=VERTEX_POINT('',#42);
#44=CARTESIAN_POINT('',(-6.779004246,18.203342787,2.44));
#45=DIRECTION('',(0.,0.,-1.));
#46=VECTOR('',#45,0.8);
#47=LINE('',#44,#46);
#48=EDGE_CURVE('',#35,#43,#47,.T.);
#49=ORIENTED_EDGE('',*,*,#48,.T.);
#50=CARTESIAN_POINT('',(-6.779004246,16.473174826,1.64));
#51=VERTEX_POINT('',#50);
#52=CARTESIAN_POINT('',(-6.779004246,18.203342787,1.64));
#53=DIRECTION('',(0.,-1.,0.));
#54=VECTOR('',#53,1.730167961);
#55=LINE('',#52,#54);
#56=EDGE_CURVE('',#43,#51,#55,.T.);
#57=ORIENTED_EDGE('',*,*,#56,.T.);
#58=CARTESIAN_POINT('',(-6.779004246,16.473174826,2.44));
#59=DIRECTION('',(0.,0.,-1.));
#60=VECTOR('',#59,0.8);
#61=LINE('',#58,#60);
#62=EDGE_CURVE('',#33,#51,#61,.T.);
#63=ORIENTED_EDGE('',*,*,#62,.F.);
#64=EDGE_LOOP('',(#41,#49,#57,#63));
#65=FACE_BOUND('',#64,.T.);
#66=ADVANCED_FACE('',(#65),#31,.F.);
#67=CARTESIAN_POINT('',(-8.17455915,17.090499161,2.44));
#68=DIRECTION('',(0.,0.,1.));
#69=DIRECTION('',(0.,-1.,0.));
#70=AXIS2_PLACEMENT_3D('',#67,#68,#69);
#71=PLANE('',#70);
#72=CARTESIAN_POINT('',(-7.31455915,18.203342787,2.44));
#73=VERTEX_POINT('',#72);
#74=CARTESIAN_POINT('',(-7.31455915,18.203342787,2.44));
#75=DIRECTION('',(1.,0.,-0.));
#76=VECTOR('',#75,0.535554904);
#77=LINE('',#74,#76);
#78=EDGE_CURVE('',#73,#35,#77,.T.);
#79=ORIENTED_EDGE('',*,*,#78,.T.);
#80=ORIENTED_EDGE('',*,*,#40,.F.);
#81=CARTESIAN_POINT('',(-7.31455915,16.473174826,2.44));
#82=VERTEX_POINT('',#81);
#83=CARTESIAN_POINT('',(-7.31455915,16.473174826,2.44));
#84=DIRECTION('',(1.,0.,-0.));
#85=VECTOR('',#84,0.535554904);
#86=LINE('',#83,#85);
#87=EDGE_CURVE('',#82,#33,#86,.T.);
#88=ORIENTED_EDGE('',*,*,#87,.F.);
#89=CARTESIAN_POINT('',(-7.31455915,18.203342787,2.44));
#90=DIRECTION('',(0.,-1.,0.));
#91=VECTOR('',#90,1.730167961);
#92=LINE('',#89,#91);
#93=EDGE_CURVE('',#73,#82,#92,.T.);
#94=ORIENTED_EDGE('',*,*,#93,.F.);
#95=EDGE_LOOP('',(#79,#80,#88,#94));
#96=FACE_BOUND('',#95,.T.);
#97=ADVANCED_FACE('',(#96),#71,.F.);
#98=CARTESIAN_POINT('',(-5.865955483,18.203342787,-0.11));
#99=DIRECTION('',(0.,1.,0.));
#100=DIRECTION('',(0.,0.,-1.));
#101=AXIS2_PLACEMENT_3D('',#98,#99,#100);
#102=PLANE('',#101);
#103=CARTESIAN_POINT('',(-5.664367374,18.203342787,2.783086479));
#104=VERTEX_POINT('',#103);
#105=CARTESIAN_POINT('',(-5.664367374,18.203342787,1.983086479));
#106=DIRECTION('',(-0.,-1.,-0.));
#107=DIRECTION('',(0.,-0.,1.));
#108=AXIS2_PLACEMENT_3D('',#105,#106,#107);
#109=CIRCLE('',#108,0.8);
#110=EDGE_CURVE('',#104,#104,#109,.T.);
#111=ORIENTED_EDGE('',*,*,#110,.T.);
#112=EDGE_LOOP('',(#111));
#113=FACE_BOUND('',#112,.T.);
#114=ORIENTED_EDGE('',*,*,#48,.F.);
#115=ORIENTED_EDGE('',*,*,#78,.F.);
#116=CARTESIAN_POINT('',(-7.31455915,18.203342787,3.3));
#117=VERTEX_POINT('',#116);
#118=CARTESIAN_POINT('',(-7.31455915,18.203342787,2.44));
#119=DIRECTION('',(0.,0.,1.));
#120=VECTOR('',#119,0.86);
#121=LINE('',#118,#120);
#122=EDGE_CURVE('',#73,#117,#121,.T.);
#123=ORIENTED_EDGE('',*,*,#122,.T.);
#124=CARTESIAN_POINT('',(-4.339004246,18.203342787,3.3));
#125=VERTEX_POINT('',#124);
#126=CARTESIAN_POINT('',(-7.31455915,18.203342787,3.3));
#127=DIRECTION('',(1.,0.,-0.));
#128=VECTOR('',#127,2.975554904);
#129=LINE('',#126,#128);
#130=EDGE_CURVE('',#117,#125,#129,.T.);
#131=ORIENTED_EDGE('',*,*,#130,.T.);
#132=CARTESIAN_POINT('',(-4.339004246,18.203342787,1.272842712));
#133=VERTEX_POINT('',#132);
#134=CARTESIAN_POINT('',(-4.339004246,18.203342787,1.272842712));
#135=DIRECTION('',(0.,0.,1.));
#136=VECTOR('',#135,2.027157288);
#137=LINE('',#134,#136);
#138=EDGE_CURVE('',#133,#125,#137,.T.);
#139=ORIENTED_EDGE('',*,*,#138,.F.);
#140=CARTESIAN_POINT('',(-4.811846958,18.203342787,0.8));
#141=VERTEX_POINT('',#140);
#142=CARTESIAN_POINT('',(-4.811846958,18.203342787,0.8));
#143=DIRECTION('',(0.707106781,0.,0.707106781));
#144=VECTOR('',#143,0.668700576);
#145=LINE('',#142,#144);
#146=EDGE_CURVE('',#141,#133,#145,.T.);
#147=ORIENTED_EDGE('',*,*,#146,.F.);
#148=CARTESIAN_POINT('',(-7.31455915,18.203342787,0.8));
#149=VERTEX_POINT('',#148);
#150=CARTESIAN_POINT('',(-7.31455915,18.203342787,0.8));
#151=DIRECTION('',(1.,0.,-0.));
#152=VECTOR('',#151,2.502712192);
#153=LINE('',#150,#152);
#154=EDGE_CURVE('',#149,#141,#153,.T.);
#155=ORIENTED_EDGE('',*,*,#154,.F.);
#156=CARTESIAN_POINT('',(-7.31455915,18.203342787,1.64));
#157=VERTEX_POINT('',#156);
#158=CARTESIAN_POINT('',(-7.31455915,18.203342787,0.8));
#159=DIRECTION('',(0.,0.,1.));
#160=VECTOR('',#159,0.84);
#161=LINE('',#158,#160);
#162=EDGE_CURVE('',#149,#157,#161,.T.);
#163=ORIENTED_EDGE('',*,*,#162,.T.);
#164=CARTESIAN_POINT('',(-6.779004246,18.203342787,1.64));
#165=DIRECTION('',(-1.,0.,0.));
#166=VECTOR('',#165,0.535554904);
#167=LINE('',#164,#166);
#168=EDGE_CURVE('',#43,#157,#167,.T.);
#169=ORIENTED_EDGE('',*,*,#168,.F.);
#170=EDGE_LOOP('',(#114,#115,#123,#131,#139,#147,#155,#163,#169));
#171=FACE_BOUND('',#170,.T.);
#172=ADVANCED_FACE('',(#113,#171),#102,.T.);
#173=CARTESIAN_POINT('',(-7.215955483,16.473174826,-0.11));
#174=DIRECTION('',(0.,1.,0.));
#175=DIRECTION('',(0.,0.,-1.));
#176=AXIS2_PLACEMENT_3D('',#173,#174,#175);
#177=PLANE('',#176);
#178=CARTESIAN_POINT('',(-7.31455915,16.473174826,1.64));
#179=VERTEX_POINT('',#178);
#180=CARTESIAN_POINT('',(-6.779004246,16.473174826,1.64));
#181=DIRECTION('',(-1.,0.,0.));
#182=VECTOR('',#181,0.535554904);
#183=LINE('',#180,#182);
#184=EDGE_CURVE('',#51,#179,#183,.T.);
#185=ORIENTED_EDGE('',*,*,#184,.T.);
#186=CARTESIAN_POINT('',(-7.31455915,16.473174826,0.8));
#187=VERTEX_POINT('',#186);
#188=CARTESIAN_POINT('',(-7.31455915,16.473174826,0.8));
#189=DIRECTION('',(0.,0.,1.));
#190=VECTOR('',#189,0.84);
#191=LINE('',#188,#190);
#192=EDGE_CURVE('',#187,#179,#191,.T.);
#193=ORIENTED_EDGE('',*,*,#192,.F.);
#194=CARTESIAN_POINT('',(-6.759004246,16.473174826,0.8));
#195=VERTEX_POINT('',#194);
#196=CARTESIAN_POINT('',(-7.31455915,16.473174826,0.8));
#197=DIRECTION('',(1.,0.,-0.));
#198=VECTOR('',#197,0.555554904);
#199=LINE('',#196,#198);
#200=EDGE_CURVE('',#187,#195,#199,.T.);
#201=ORIENTED_EDGE('',*,*,#200,.T.);
#202=CARTESIAN_POINT('',(-6.759004246,16.473174826,3.3));
#203=VERTEX_POINT('',#202);
#204=CARTESIAN_POINT('',(-6.759004246,16.473174826,3.3));
#205=DIRECTION('',(-0.,-0.,-1.));
#206=VECTOR('',#205,2.5);
#207=LINE('',#204,#206);
#208=EDGE_CURVE('',#203,#195,#207,.T.);
#209=ORIENTED_EDGE('',*,*,#208,.F.);
#210=CARTESIAN_POINT('',(-7.31455915,16.473174826,3.3));
#211=VERTEX_POINT('',#210);
#212=CARTESIAN_POINT('',(-7.31455915,16.473174826,3.3));
#213=DIRECTION('',(1.,0.,-0.));
#214=VECTOR('',#213,0.555554904);
#215=LINE('',#212,#214);
#216=EDGE_CURVE('',#211,#203,#215,.T.);
#217=ORIENTED_EDGE('',*,*,#216,.F.);
#218=CARTESIAN_POINT('',(-7.31455915,16.473174826,2.44));
#219=DIRECTION('',(0.,0.,1.));
#220=VECTOR('',#219,0.86);
#221=LINE('',#218,#220);
#222=EDGE_CURVE('',#82,#211,#221,.T.);
#223=ORIENTED_EDGE('',*,*,#222,.F.);
#224=ORIENTED_EDGE('',*,*,#87,.T.);
#225=ORIENTED_EDGE('',*,*,#62,.T.);
#226=EDGE_LOOP('',(#185,#193,#201,#209,#217,#223,#224,#225));
#227=FACE_BOUND('',#226,.T.);
#228=ADVANCED_FACE('',(#227),#177,.F.);
#229=CARTESIAN_POINT('',(20.660995754,20.553342787,3.3));
#230=DIRECTION('',(0.,0.,-1.));
#231=DIRECTION('',(1.,0.,0.));
#232=AXIS2_PLACEMENT_3D('',#229,#230,#231);
#233=PLANE('',#232);
#234=CARTESIAN_POINT('',(-7.31455915,16.473174826,3.3));
#235=DIRECTION('',(0.,1.,0.));
#236=VECTOR('',#235,1.730167961);
#237=LINE('',#234,#236);
#238=EDGE_CURVE('',#211,#117,#237,.T.);
#239=ORIENTED_EDGE('',*,*,#238,.F.);
#240=ORIENTED_EDGE('',*,*,#216,.T.);
#241=CARTESIAN_POINT('',(-6.249004246,15.963174826,3.3));
#242=VERTEX_POINT('',#241);
#243=CARTESIAN_POINT('',(-6.249004246,15.963174826,3.3));
#244=DIRECTION('',(-0.707106781,0.707106781,-0.));
#245=VECTOR('',#244,0.721248917);
#246=LINE('',#243,#245);
#247=EDGE_CURVE('',#242,#203,#246,.T.);
#248=ORIENTED_EDGE('',*,*,#247,.F.);
#249=CARTESIAN_POINT('',(-6.249004246,14.663342787,3.3));
#250=VERTEX_POINT('',#249);
#251=CARTESIAN_POINT('',(-6.249004246,14.663342787,3.3));
#252=DIRECTION('',(0.,1.,0.));
#253=VECTOR('',#252,1.299832039);
#254=LINE('',#251,#253);
#255=EDGE_CURVE('',#250,#242,#254,.T.);
#256=ORIENTED_EDGE('',*,*,#255,.F.);
#257=CARTESIAN_POINT('',(-5.689157887,14.663342787,3.3));
#258=VERTEX_POINT('',#257);
#259=CARTESIAN_POINT('',(-5.689157887,14.663342787,3.3));
#260=DIRECTION('',(-1.,0.,0.));
#261=VECTOR('',#260,0.559846359);
#262=LINE('',#259,#261);
#263=EDGE_CURVE('',#258,#250,#262,.T.);
#264=ORIENTED_EDGE('',*,*,#263,.F.);
#265=CARTESIAN_POINT('',(-5.689157887,15.163342787,3.3));
#266=VERTEX_POINT('',#265);
#267=CARTESIAN_POINT('',(-5.689157887,15.163342787,3.3));
#268=DIRECTION('',(0.,-1.,0.));
#269=VECTOR('',#268,0.5);
#270=LINE('',#267,#269);
#271=EDGE_CURVE('',#266,#258,#270,.T.);
#272=ORIENTED_EDGE('',*,*,#271,.F.);
#273=CARTESIAN_POINT('',(-5.089004246,15.163342787,3.3));
#274=VERTEX_POINT('',#273);
#275=CARTESIAN_POINT('',(-5.689157887,15.163342787,3.3));
#276=DIRECTION('',(1.,0.,-0.));
#277=VECTOR('',#276,0.600153641);
#278=LINE('',#275,#277);
#279=EDGE_CURVE('',#266,#274,#278,.T.);
#280=ORIENTED_EDGE('',*,*,#279,.T.);
#281=CARTESIAN_POINT('',(-5.089004246,14.663342787,3.3));
#282=VERTEX_POINT('',#281);
#283=CARTESIAN_POINT('',(-5.089004246,15.163342787,3.3));
#284=DIRECTION('',(0.,-1.,0.));
#285=VECTOR('',#284,0.5);
#286=LINE('',#283,#285);
#287=EDGE_CURVE('',#274,#282,#286,.T.);
#288=ORIENTED_EDGE('',*,*,#287,.T.);
#289=CARTESIAN_POINT('',(-4.339004246,14.663342787,3.3));
#290=VERTEX_POINT('',#289);
#291=CARTESIAN_POINT('',(-4.339004246,14.663342787,3.3));
#292=DIRECTION('',(-1.,0.,0.));
#293=VECTOR('',#292,0.75);
#294=LINE('',#291,#293);
#295=EDGE_CURVE('',#290,#282,#294,.T.);
#296=ORIENTED_EDGE('',*,*,#295,.F.);
#297=CARTESIAN_POINT('',(-4.339004246,18.203342787,3.3));
#298=DIRECTION('',(-0.,-1.,-0.));
#299=VECTOR('',#298,3.54);
#300=LINE('',#297,#299);
#301=EDGE_CURVE('',#125,#290,#300,.T.);
#302=ORIENTED_EDGE('',*,*,#301,.F.);
#303=ORIENTED_EDGE('',*,*,#130,.F.);
#304=EDGE_LOOP('',(#239,#240,#248,#256,#264,#272,#280,#288,#296,#302,#303));
#305=FACE_BOUND('',#304,.T.);
#306=ADVANCED_FACE('',(#305),#233,.F.);
#307=CARTESIAN_POINT('',(-5.289004246,14.663342787,-0.11));
#308=DIRECTION('',(0.,-1.,0.));
#309=DIRECTION('',(0.,0.,1.));
#310=AXIS2_PLACEMENT_3D('',#307,#308,#309);
#311=PLANE('',#310);
#312=ORIENTED_EDGE('',*,*,#295,.T.);
#313=CARTESIAN_POINT('',(-5.089004246,14.663342787,0.8));
#314=VERTEX_POINT('',#313);
#315=CARTESIAN_POINT('',(-5.089004246,14.663342787,3.3));
#316=DIRECTION('',(0.,0.,-1.));
#317=VECTOR('',#316,2.5);
#318=LINE('',#315,#317);
#319=EDGE_CURVE('',#282,#314,#318,.T.);
#320=ORIENTED_EDGE('',*,*,#319,.T.);
#321=CARTESIAN_POINT('',(-4.811846958,14.663342787,0.8));
#322=VERTEX_POINT('',#321);
#323=CARTESIAN_POINT('',(-4.811846958,14.663342787,0.8));
#324=DIRECTION('',(-1.,0.,0.));
#325=VECTOR('',#324,0.277157288);
#326=LINE('',#323,#325);
#327=EDGE_CURVE('',#322,#314,#326,.T.);
#328=ORIENTED_EDGE('',*,*,#327,.F.);
#329=CARTESIAN_POINT('',(-4.339004246,14.663342787,1.272842712));
#330=VERTEX_POINT('',#329);
#331=CARTESIAN_POINT('',(-4.339004246,14.663342787,1.272842712));
#332=DIRECTION('',(-0.707106781,0.,-0.707106781));
#333=VECTOR('',#332,0.668700576);
#334=LINE('',#331,#333);
#335=EDGE_CURVE('',#330,#322,#334,.T.);
#336=ORIENTED_EDGE('',*,*,#335,.F.);
#337=CARTESIAN_POINT('',(-4.339004246,14.663342787,1.272842712));
#338=DIRECTION('',(0.,0.,1.));
#339=VECTOR('',#338,2.027157288);
#340=LINE('',#337,#339);
#341=EDGE_CURVE('',#330,#290,#340,.T.);
#342=ORIENTED_EDGE('',*,*,#341,.T.);
#343=EDGE_LOOP('',(#312,#320,#328,#336,#342));
#344=FACE_BOUND('',#343,.T.);
#345=ADVANCED_FACE('',(#344),#311,.T.);
#346=CARTESIAN_POINT('',(-4.339004246,17.088776884,-0.11));
#347=DIRECTION('',(1.,0.,0.));
#348=DIRECTION('',(0.,0.,-1.));
#349=AXIS2_PLACEMENT_3D('',#346,#347,#348);
#350=PLANE('',#349);
#351=ORIENTED_EDGE('',*,*,#138,.T.);
#352=ORIENTED_EDGE('',*,*,#301,.T.);
#353=ORIENTED_EDGE('',*,*,#341,.F.);
#354=CARTESIAN_POINT('',(-4.339004246,18.203342787,1.272842712));
#355=DIRECTION('',(0.,-1.,0.));
#356=VECTOR('',#355,3.54);
#357=LINE('',#354,#356);
#358=EDGE_CURVE('',#133,#330,#357,.T.);
#359=ORIENTED_EDGE('',*,*,#358,.F.);
#360=EDGE_LOOP('',(#351,#352,#353,#359));
#361=FACE_BOUND('',#360,.T.);
#362=ADVANCED_FACE('',(#361),#350,.T.);
#363=CARTESIAN_POINT('',(-6.249004246,15.663258806,-0.11));
#364=DIRECTION('',(-1.,0.,0.));
#365=DIRECTION('',(0.,0.,1.));
#366=AXIS2_PLACEMENT_3D('',#363,#364,#365);
#367=PLANE('',#366);
#368=CARTESIAN_POINT('',(-6.249004246,14.663342787,0.8));
#369=VERTEX_POINT('',#368);
#370=CARTESIAN_POINT('',(-6.249004246,15.963174826,0.8));
#371=VERTEX_POINT('',#370);
#372=CARTESIAN_POINT('',(-6.249004246,14.663342787,0.8));
#373=DIRECTION('',(0.,1.,0.));
#374=VECTOR('',#373,1.299832039);
#375=LINE('',#372,#374);
#376=EDGE_CURVE('',#369,#371,#375,.T.);
#377=ORIENTED_EDGE('',*,*,#376,.F.);
#378=CARTESIAN_POINT('',(-6.249004246,14.663342787,0.8));
#379=DIRECTION('',(0.,0.,1.));
#380=VECTOR('',#379,2.5);
#381=LINE('',#378,#380);
#382=EDGE_CURVE('',#369,#250,#381,.T.);
#383=ORIENTED_EDGE('',*,*,#382,.T.);
#384=ORIENTED_EDGE('',*,*,#255,.T.);
#385=CARTESIAN_POINT('',(-6.249004246,15.963174826,0.8));
#386=DIRECTION('',(0.,0.,1.));
#387=VECTOR('',#386,2.5);
#388=LINE('',#385,#387);
#389=EDGE_CURVE('',#371,#242,#388,.T.);
#390=ORIENTED_EDGE('',*,*,#389,.F.);
#391=EDGE_LOOP('',(#377,#383,#384,#390));
#392=FACE_BOUND('',#391,.T.);
#393=ADVANCED_FACE('',(#392),#367,.T.);
#394=CARTESIAN_POINT('',(-5.289004246,14.663342787,-0.11));
#395=DIRECTION('',(0.,-1.,0.));
#396=DIRECTION('',(0.,0.,1.));
#397=AXIS2_PLACEMENT_3D('',#394,#395,#396);
#398=PLANE('',#397);
#399=CARTESIAN_POINT('',(-5.689157887,14.663342787,0.8));
#400=VERTEX_POINT('',#399);
#401=CARTESIAN_POINT('',(-5.689157887,14.663342787,3.3));
#402=DIRECTION('',(0.,0.,-1.));
#403=VECTOR('',#402,2.5);
#404=LINE('',#401,#403);
#405=EDGE_CURVE('',#258,#400,#404,.T.);
#406=ORIENTED_EDGE('',*,*,#405,.F.);
#407=ORIENTED_EDGE('',*,*,#263,.T.);
#408=ORIENTED_EDGE('',*,*,#382,.F.);
#409=CARTESIAN_POINT('',(-5.689157887,14.663342787,0.8));
#410=DIRECTION('',(-1.,0.,0.));
#411=VECTOR('',#410,0.559846359);
#412=LINE('',#409,#411);
#413=EDGE_CURVE('',#400,#369,#412,.T.);
#414=ORIENTED_EDGE('',*,*,#413,.F.);
#415=EDGE_LOOP('',(#406,#407,#408,#414));
#416=FACE_BOUND('',#415,.T.);
#417=ADVANCED_FACE('',(#416),#398,.T.);
#418=CARTESIAN_POINT('',(20.660995754,20.553342787,0.8));
#419=DIRECTION('',(0.,0.,-1.));
#420=DIRECTION('',(1.,0.,0.));
#421=AXIS2_PLACEMENT_3D('',#418,#419,#420);
#422=PLANE('',#421);
#423=CARTESIAN_POINT('',(-7.31455915,18.203342787,0.8));
#424=DIRECTION('',(0.,-1.,0.));
#425=VECTOR('',#424,1.730167961);
#426=LINE('',#423,#425);
#427=EDGE_CURVE('',#149,#187,#426,.T.);
#428=ORIENTED_EDGE('',*,*,#427,.F.);
#429=ORIENTED_EDGE('',*,*,#154,.T.);
#430=CARTESIAN_POINT('',(-4.811846958,14.663342787,0.8));
#431=DIRECTION('',(0.,1.,0.));
#432=VECTOR('',#431,3.54);
#433=LINE('',#430,#432);
#434=EDGE_CURVE('',#322,#141,#433,.T.);
#435=ORIENTED_EDGE('',*,*,#434,.F.);
#436=ORIENTED_EDGE('',*,*,#327,.T.);
#437=CARTESIAN_POINT('',(-5.089004246,15.163342787,0.8));
#438=VERTEX_POINT('',#437);
#439=CARTESIAN_POINT('',(-5.089004246,15.163342787,0.8));
#440=DIRECTION('',(0.,-1.,0.));
#441=VECTOR('',#440,0.5);
#442=LINE('',#439,#441);
#443=EDGE_CURVE('',#438,#314,#442,.T.);
#444=ORIENTED_EDGE('',*,*,#443,.F.);
#445=CARTESIAN_POINT('',(-5.689157887,15.163342787,0.8));
#446=VERTEX_POINT('',#445);
#447=CARTESIAN_POINT('',(-5.689157887,15.163342787,0.8));
#448=DIRECTION('',(1.,0.,-0.));
#449=VECTOR('',#448,0.600153641);
#450=LINE('',#447,#449);
#451=EDGE_CURVE('',#446,#438,#450,.T.);
#452=ORIENTED_EDGE('',*,*,#451,.F.);
#453=CARTESIAN_POINT('',(-5.689157887,15.163342787,0.8));
#454=DIRECTION('',(0.,-1.,0.));
#455=VECTOR('',#454,0.5);
#456=LINE('',#453,#455);
#457=EDGE_CURVE('',#446,#400,#456,.T.);
#458=ORIENTED_EDGE('',*,*,#457,.T.);
#459=ORIENTED_EDGE('',*,*,#413,.T.);
#460=ORIENTED_EDGE('',*,*,#376,.T.);
#461=CARTESIAN_POINT('',(-6.759004246,16.473174826,0.8));
#462=DIRECTION('',(0.707106781,-0.707106781,0.));
#463=VECTOR('',#462,0.721248917);
#464=LINE('',#461,#463);
#465=EDGE_CURVE('',#195,#371,#464,.T.);
#466=ORIENTED_EDGE('',*,*,#465,.F.);
#467=ORIENTED_EDGE('',*,*,#200,.F.);
#468=EDGE_LOOP('',(#428,#429,#435,#436,#444,#452,#458,#459,#460,#466,#467));
#469=FACE_BOUND('',#468,.T.);
#470=ADVANCED_FACE('',(#469),#422,.T.);
#471=CARTESIAN_POINT('',(-5.689157887,15.403342787,1.34));
#472=DIRECTION('',(-1.,0.,0.));
#473=DIRECTION('',(0.,0.,1.));
#474=AXIS2_PLACEMENT_3D('',#471,#472,#473);
#475=PLANE('',#474);
#476=ORIENTED_EDGE('',*,*,#271,.T.);
#477=ORIENTED_EDGE('',*,*,#405,.T.);
#478=ORIENTED_EDGE('',*,*,#457,.F.);
#479=CARTESIAN_POINT('',(-5.689157887,15.163342787,0.8));
#480=DIRECTION('',(0.,0.,1.));
#481=VECTOR('',#480,2.5);
#482=LINE('',#479,#481);
#483=EDGE_CURVE('',#446,#266,#482,.T.);
#484=ORIENTED_EDGE('',*,*,#483,.T.);
#485=EDGE_LOOP('',(#476,#477,#478,#484));
#486=FACE_BOUND('',#485,.T.);
#487=ADVANCED_FACE('',(#486),#475,.F.);
#488=CARTESIAN_POINT('',(-5.089004246,15.403342787,1.34));
#489=DIRECTION('',(1.,0.,0.));
#490=DIRECTION('',(0.,0.,-1.));
#491=AXIS2_PLACEMENT_3D('',#488,#489,#490);
#492=PLANE('',#491);
#493=ORIENTED_EDGE('',*,*,#319,.F.);
#494=ORIENTED_EDGE('',*,*,#287,.F.);
#495=CARTESIAN_POINT('',(-5.089004246,15.163342787,0.8));
#496=DIRECTION('',(0.,0.,1.));
#497=VECTOR('',#496,2.5);
#498=LINE('',#495,#497);
#499=EDGE_CURVE('',#438,#274,#498,.T.);
#500=ORIENTED_EDGE('',*,*,#499,.F.);
#501=ORIENTED_EDGE('',*,*,#443,.T.);
#502=EDGE_LOOP('',(#493,#494,#500,#501));
#503=FACE_BOUND('',#502,.T.);
#504=ADVANCED_FACE('',(#503),#492,.F.);
#505=CARTESIAN_POINT('',(-120.387920994,15.163342787,-428.81));
#506=DIRECTION('',(0.,1.,0.));
#507=DIRECTION('',(1.,0.,0.));
#508=AXIS2_PLACEMENT_3D('',#505,#506,#507);
#509=PLANE('',#508);
#510=ORIENTED_EDGE('',*,*,#499,.T.);
#511=ORIENTED_EDGE('',*,*,#279,.F.);
#512=ORIENTED_EDGE('',*,*,#483,.F.);
#513=ORIENTED_EDGE('',*,*,#451,.T.);
#514=EDGE_LOOP('',(#510,#511,#512,#513));
#515=FACE_BOUND('',#514,.T.);
#516=ADVANCED_FACE('',(#515),#509,.F.);
#517=CARTESIAN_POINT('',(-6.549004246,16.263174826,-0.11));
#518=DIRECTION('',(0.707106781,0.707106781,0.));
#519=DIRECTION('',(0.,0.,1.));
#520=AXIS2_PLACEMENT_3D('',#517,#518,#519);
#521=PLANE('',#520);
#522=ORIENTED_EDGE('',*,*,#465,.T.);
#523=ORIENTED_EDGE('',*,*,#389,.T.);
#524=ORIENTED_EDGE('',*,*,#247,.T.);
#525=ORIENTED_EDGE('',*,*,#208,.T.);
#526=EDGE_LOOP('',(#522,#523,#524,#525));
#527=FACE_BOUND('',#526,.T.);
#528=ADVANCED_FACE('',(#527),#521,.F.);
#529=CARTESIAN_POINT('',(-4.080425602,17.088776884,1.531421356));
#530=DIRECTION('',(-0.707106781,0.,0.707106781));
#531=DIRECTION('',(0.,-1.,0.));
#532=AXIS2_PLACEMENT_3D('',#529,#530,#531);
#533=PLANE('',#532);
#534=ORIENTED_EDGE('',*,*,#146,.T.);
#535=ORIENTED_EDGE('',*,*,#358,.T.);
#536=ORIENTED_EDGE('',*,*,#335,.T.);
#537=ORIENTED_EDGE('',*,*,#434,.T.);
#538=EDGE_LOOP('',(#534,#535,#536,#537));
#539=FACE_BOUND('',#538,.T.);
#540=ADVANCED_FACE('',(#539),#533,.F.);
#541=CARTESIAN_POINT('',(-8.17455915,17.090499161,1.64));
#542=DIRECTION('',(0.,0.,-1.));
#543=DIRECTION('',(0.,1.,0.));
#544=AXIS2_PLACEMENT_3D('',#541,#542,#543);
#545=PLANE('',#544);
#546=ORIENTED_EDGE('',*,*,#168,.T.);
#547=CARTESIAN_POINT('',(-7.31455915,18.203342787,1.64));
#548=DIRECTION('',(0.,-1.,0.));
#549=VECTOR('',#548,1.730167961);
#550=LINE('',#547,#549);
#551=EDGE_CURVE('',#157,#179,#550,.T.);
#552=ORIENTED_EDGE('',*,*,#551,.T.);
#553=ORIENTED_EDGE('',*,*,#184,.F.);
#554=ORIENTED_EDGE('',*,*,#56,.F.);
#555=EDGE_LOOP('',(#546,#552,#553,#554));
#556=FACE_BOUND('',#555,.T.);
#557=ADVANCED_FACE('',(#556),#545,.F.);
#558=CARTESIAN_POINT('',(-7.31455915,17.090499161,3.48));
#559=DIRECTION('',(-1.,0.,0.));
#560=DIRECTION('',(0.,0.,1.));
#561=AXIS2_PLACEMENT_3D('',#558,#559,#560);
#562=PLANE('',#561);
#563=ORIENTED_EDGE('',*,*,#122,.F.);
#564=ORIENTED_EDGE('',*,*,#93,.T.);
#565=ORIENTED_EDGE('',*,*,#222,.T.);
#566=ORIENTED_EDGE('',*,*,#238,.T.);
#567=EDGE_LOOP('',(#563,#564,#565,#566));
#568=FACE_BOUND('',#567,.T.);
#569=ADVANCED_FACE('',(#568),#562,.T.);
#570=CARTESIAN_POINT('',(-7.31455915,17.090499161,3.48));
#571=DIRECTION('',(-1.,0.,0.));
#572=DIRECTION('',(0.,0.,1.));
#573=AXIS2_PLACEMENT_3D('',#570,#571,#572);
#574=PLANE('',#573);
#575=ORIENTED_EDGE('',*,*,#551,.F.);
#576=ORIENTED_EDGE('',*,*,#162,.F.);
#577=ORIENTED_EDGE('',*,*,#427,.T.);
#578=ORIENTED_EDGE('',*,*,#192,.T.);
#579=EDGE_LOOP('',(#575,#576,#577,#578));
#580=FACE_BOUND('',#579,.T.);
#581=ADVANCED_FACE('',(#580),#574,.T.);
#582=CARTESIAN_POINT('',(-5.664367374,16.609222561,1.983086479));
#583=DIRECTION('',(0.,1.,-0.));
#584=DIRECTION('',(0.,0.,1.));
#585=AXIS2_PLACEMENT_3D('',#582,#583,#584);
#586=CYLINDRICAL_SURFACE('',#585,0.8);
#587=CARTESIAN_POINT('',(-5.664367374,16.609222561,2.783086479));
#588=VERTEX_POINT('',#587);
#589=CARTESIAN_POINT('',(-5.664367374,18.203342787,2.783086479));
#590=DIRECTION('',(-0.,-1.,0.));
#591=VECTOR('',#590,1.594120226);
#592=LINE('',#589,#591);
#593=EDGE_CURVE('',#104,#588,#592,.T.);
#594=ORIENTED_EDGE('',*,*,#593,.F.);
#595=ORIENTED_EDGE('',*,*,#110,.F.);
#596=ORIENTED_EDGE('',*,*,#593,.T.);
#597=CARTESIAN_POINT('',(-4.864367374,16.609222561,1.983086479));
#598=VERTEX_POINT('',#597);
#599=CARTESIAN_POINT('',(-5.664367374,16.609222561,1.983086479));
#600=DIRECTION('',(0.,-1.,0.));
#601=DIRECTION('',(1.,0.,0.));
#602=AXIS2_PLACEMENT_3D('',#599,#600,#601);
#603=CIRCLE('',#602,0.8);
#604=EDGE_CURVE('',#588,#598,#603,.T.);
#605=ORIENTED_EDGE('',*,*,#604,.T.);
#606=CARTESIAN_POINT('',(-5.664367374,16.609222561,1.983086479));
#607=DIRECTION('',(0.,-1.,0.));
#608=DIRECTION('',(1.,0.,0.));
#609=AXIS2_PLACEMENT_3D('',#606,#607,#608);
#610=CIRCLE('',#609,0.8);
#611=EDGE_CURVE('',#598,#588,#610,.T.);
#612=ORIENTED_EDGE('',*,*,#611,.T.);
#613=EDGE_LOOP('',(#594,#595,#596,#605,#612));
#614=FACE_BOUND('',#613,.T.);
#615=ADVANCED_FACE('',(#614),#586,.F.);
#616=CARTESIAN_POINT('',(-40.,16.609222561,0.));
#617=DIRECTION('',(0.,-1.,0.));
#618=DIRECTION('',(1.,0.,0.));
#619=AXIS2_PLACEMENT_3D('',#616,#617,#618);
#620=PLANE('',#619);
#621=ORIENTED_EDGE('',*,*,#604,.F.);
#622=ORIENTED_EDGE('',*,*,#611,.F.);
#623=EDGE_LOOP('',(#621,#622));
#624=FACE_BOUND('',#623,.T.);
#625=ADVANCED_FACE('',(#624),#620,.F.);
#626=CLOSED_SHELL('',(#66,#97,#172,#228,#306,#345,#362,#393,#417,#470,#487,#504,#516,#528,#540,#557,#569,#581,#615,#625));
#627=MANIFOLD_SOLID_BREP('\X2\8F1452A9593E81C2\X0\ (\X2\5C454E2D\X0\)',#626);
#628=COLOUR_RGB('',0.850980401,0.850980401,0.850980401);
#629=FILL_AREA_STYLE_COLOUR('',#628);
#630=FILL_AREA_STYLE('',(#629));
#631=SURFACE_STYLE_FILL_AREA(#630);
#632=SURFACE_SIDE_STYLE('',(#631));
#633=SURFACE_STYLE_USAGE(.BOTH.,#632);
#634=PRESENTATION_STYLE_ASSIGNMENT((#633));
#26=STYLED_ITEM('',(#634),#627);
#16=SHAPE_REPRESENTATION('\X2\8F1452A9593E81C2\X0\ (\X2\5C454E2D\X0\)',(#15),#10);
#17=ADVANCED_BREP_SHAPE_REPRESENTATION('\X2\8F1452A9593E81C2\X0\ (\X2\5C454E2D\X0\)',(#627),#10);
#642=SHAPE_REPRESENTATION_RELATIONSHIP('','',#16,#17);
#643=CARTESIAN_POINT('',(0.,0.,0.));
#644=DIRECTION('',(0.,0.,1.));
#645=DIRECTION('',(1.,0.,0.));
#646=AXIS2_PLACEMENT_3D('',#643,#644,#645);
#648=MAPPED_ITEM('',#647,#646);
#647=REPRESENTATION_MAP(#646,#16);
#649=APPLICATION_CONTEXT('Managed model based 3d engineering');
#650=APPLICATION_PROTOCOL_DEFINITION('international standard','ap242_managed_model_based_3d_engineering',2014,#649);
#651=PRODUCT_CONTEXT('',#649,'mechanical');
#652=PRODUCT_DEFINITION_CONTEXT('part definition',#649,'design');
#24=PRODUCT('\X2\8F1452A9593E81C2\X0\ (\X2\5C454E2D\X0\)','\X2\8F1452A9593E81C2\X0\ (\X2\5C454E2D\X0\)','',(#651));
#653=PRODUCT_RELATED_PRODUCT_CATEGORY('part','',(#24));
#654=PRODUCT_DEFINITION_FORMATION_WITH_SPECIFIED_SOURCE('','',#24,.NOT_KNOWN.);
#25=PRODUCT_DEFINITION('design','',#654,#652);
#23=PRODUCT_DEFINITION_SHAPE('','',#25);
#655=SHAPE_DEFINITION_REPRESENTATION(#23,#16);
#11=DRAUGHTING_MODEL('',(#648),#10);
#656=DESCRIPTIVE_REPRESENTATION_ITEM('KEY','C:\\Users\\Nalani\\AppData\\Local\\Packages\\Shapr3D.Shapr3D_j403pzjkqtqbj\\TempState\\87279c91-98b3-4a3c-bd6b-cdd06e97ac3c.tmp');
#657=PROPERTY_DEFINITION('KEY','',#25);
#658=REPRESENTATION('',(#656),#10);
#659=PROPERTY_DEFINITION_REPRESENTATION(#657,#658);
#660=GENERAL_PROPERTY('','KEY','');
#661=GENERAL_PROPERTY_ASSOCIATION('','',#660,#657);
#1=MECHANICAL_DESIGN_GEOMETRIC_PRESENTATION_REPRESENTATION('',(#26),#10);
ENDSEC;
END-ISO-10303-21;
