ISO-10303-21;
HEADER;

/* File generated by Shapr3D Version 26.123.11423.0 */

FILE_DESCRIPTION(('HOOPS Exchange Step'),'2;1');

FILE_NAME('C:\\Users\\Nalani\\AppData\\Local\\Packages\\Shapr3D.Shapr3D_j403pzjkqtqbj\\TempState\\export\\temp_export',
'2026-08-03T16:12:13+08:00',
('Nalani'),
('Shapr3D Limited'),
'HOOPS Exchange 2026.3',
'Shapr3D',
'Authorized');

FILE_SCHEMA( ('AP242_MANAGED_MODEL_BASED_3D_ENGINEERING_MIM_LF {1 0 10303 442 1 1 4}') );

ENDSEC;

DATA;
#3=(NAMED_UNIT(*)PLANE_ANGLE_UNIT()SI_UNIT($,.RADIAN.));
#4=PLANE_ANGLE_MEASURE_WITH_UNIT(PLANE_ANGLE_MEASURE(0.0174532925),#3);
#5=(CONVERSION_BASED_UNIT('DEGREE',#4)NAMED_UNIT(#6)PLANE_ANGLE_UNIT());
#6=DIMENSIONAL_EXPONENTS(0.,0.,0.,0.,0.,0.,0.);
#7=(NAMED_UNIT(*)SI_UNIT($,.STERADIAN.)SOLID_ANGLE_UNIT());
#8=(LENGTH_UNIT()NAMED_UNIT(*)SI_UNIT(.MILLI.,.METRE.));
#9=UNCERTAINTY_MEASURE_WITH_UNIT(LENGTH_MEASURE(1.000000E-05),#8,'DISTANCE_ACCURACY_VALUE','Maximum Tolerance applied to model');
#10=(GEOMETRIC_REPRESENTATION_CONTEXT(3)GLOBAL_UNCERTAINTY_ASSIGNED_CONTEXT((#9))GLOBAL_UNIT_ASSIGNED_CONTEXT((#8,#5,#7))REPRESENTATION_CONTEXT('','\X2\94A2\X0\17\X2\8F6C63A5677F\X0\-\X2\53F3FF0865E05B9E4F5387BA7EB9FF09\X0\'));
#12=CARTESIAN_POINT('',(0.,0.,0.));
#13=DIRECTION('',(0.,0.,1.));
#14=DIRECTION('',(1.,0.,0.));
#15=AXIS2_PLACEMENT_3D('',#12,#13,#14);
#27=CARTESIAN_POINT('',(-0.353495723,-4.604314964,3.395655023));
#28=DIRECTION('',(0.,0.,-1.));
#29=DIRECTION('',(-1.,0.,0.));
#30=AXIS2_PLACEMENT_3D('',#27,#28,#29);
#31=CYLINDRICAL_SURFACE('',#30,0.625);
#32=CARTESIAN_POINT('',(-0.978495723,-4.604314964,-2.375));
#33=VERTEX_POINT('',#32);
#34=CARTESIAN_POINT('',(-0.978495723,-4.604314964,1.2));
#35=VERTEX_POINT('',#34);
#36=CARTESIAN_POINT('',(-0.978495723,-4.604314964,-2.375));
#37=DIRECTION('',(-0.,-0.,1.));
#38=VECTOR('',#37,3.575);
#39=LINE('',#36,#38);
#40=EDGE_CURVE('',#33,#35,#39,.T.);
#41=ORIENTED_EDGE('',*,*,#40,.F.);
#42=CARTESIAN_POINT('',(-0.642221518,-4.050002403,-2.375));
#43=VERTEX_POINT('',#42);
#44=CARTESIAN_POINT('',(-0.353495723,-4.604314964,-2.375));
#45=DIRECTION('',(-0.,-0.,1.));
#46=DIRECTION('',(-1.,0.,-0.));
#47=AXIS2_PLACEMENT_3D('',#44,#45,#46);
#48=CIRCLE('',#47,0.625);
#49=EDGE_CURVE('',#43,#33,#48,.T.);
#50=ORIENTED_EDGE('',*,*,#49,.F.);
#51=CARTESIAN_POINT('',(-0.642221518,-4.050002403,-1.9));
#52=VERTEX_POINT('',#51);
#53=CARTESIAN_POINT('',(-0.642221518,-4.050002403,-2.375));
#54=DIRECTION('',(-0.,-0.,1.));
#55=VECTOR('',#54,0.475);
#56=LINE('',#53,#55);
#57=EDGE_CURVE('',#43,#52,#56,.T.);
#58=ORIENTED_EDGE('',*,*,#57,.T.);
#59=CARTESIAN_POINT('',(-0.064769928,-4.050002403,-1.9));
#60=VERTEX_POINT('',#59);
#61=CARTESIAN_POINT('',(-0.353495723,-4.604314964,-2.454312561));
#62=DIRECTION('',(0.,-0.707106781,0.707106781));
#63=DIRECTION('',(0.,-0.707106781,-0.707106781));
#64=AXIS2_PLACEMENT_3D('',#61,#62,#63);
#65=ELLIPSE('',#64,0.883883476,0.625);
#66=EDGE_CURVE('',#60,#52,#65,.T.);
#67=ORIENTED_EDGE('',*,*,#66,.F.);
#68=CARTESIAN_POINT('',(-0.064769928,-4.050002403,-2.375));
#69=VERTEX_POINT('',#68);
#70=CARTESIAN_POINT('',(-0.064769928,-4.050002403,-1.9));
#71=DIRECTION('',(0.,0.,-1.));
#72=VECTOR('',#71,0.475);
#73=LINE('',#70,#72);
#74=EDGE_CURVE('',#60,#69,#73,.T.);
#75=ORIENTED_EDGE('',*,*,#74,.T.);
#76=CARTESIAN_POINT('',(-0.353495723,-4.604314964,-2.375));
#77=DIRECTION('',(-0.,-0.,1.));
#78=DIRECTION('',(-1.,0.,-0.));
#79=AXIS2_PLACEMENT_3D('',#76,#77,#78);
#80=CIRCLE('',#79,0.625);
#81=EDGE_CURVE('',#33,#69,#80,.T.);
#82=ORIENTED_EDGE('',*,*,#81,.F.);
#83=ORIENTED_EDGE('',*,*,#40,.T.);
#84=CARTESIAN_POINT('',(-0.353495723,-4.604314964,1.2));
#85=DIRECTION('',(-0.,-0.,1.));
#86=DIRECTION('',(-1.,0.,0.));
#87=AXIS2_PLACEMENT_3D('',#84,#85,#86);
#88=CIRCLE('',#87,0.625);
#89=EDGE_CURVE('',#35,#35,#88,.T.);
#90=ORIENTED_EDGE('',*,*,#89,.T.);
#91=EDGE_LOOP('',(#41,#50,#58,#67,#75,#82,#83,#90));
#92=FACE_BOUND('',#91,.T.);
#93=ADVANCED_FACE('',(#92),#31,.F.);
#94=CARTESIAN_POINT('',(3.852280096,-2.874999879,-0.045348774));
#95=DIRECTION('',(0.,0.,-1.));
#96=DIRECTION('',(-1.,-0.,-0.));
#97=AXIS2_PLACEMENT_3D('',#94,#95,#96);
#98=CYLINDRICAL_SURFACE('',#97,0.7);
#99=CARTESIAN_POINT('',(4.54825037,-2.950002403,-0.54093967));
#100=VERTEX_POINT('',#99);
#101=CARTESIAN_POINT('',(3.156309823,-2.950002403,-0.54093967));
#102=VERTEX_POINT('',#101);
#103=CARTESIAN_POINT('',(3.852280096,-2.874999879,-0.54093967));
#104=DIRECTION('',(0.,0.,-1.));
#105=DIRECTION('',(-1.,0.,0.));
#106=AXIS2_PLACEMENT_3D('',#103,#104,#105);
#107=CIRCLE('',#106,0.7);
#108=EDGE_CURVE('',#100,#102,#107,.T.);
#109=ORIENTED_EDGE('',*,*,#108,.F.);
#110=CARTESIAN_POINT('',(4.54825037,-2.950002403,-0.8));
#111=VERTEX_POINT('',#110);
#112=CARTESIAN_POINT('',(4.54825037,-2.950002403,-0.54093967));
#113=DIRECTION('',(0.,0.,-1.));
#114=VECTOR('',#113,0.25906033);
#115=LINE('',#112,#114);
#116=EDGE_CURVE('',#100,#111,#115,.T.);
#117=ORIENTED_EDGE('',*,*,#116,.T.);
#118=CARTESIAN_POINT('',(3.156309823,-2.950002403,-0.8));
#119=VERTEX_POINT('',#118);
#120=CARTESIAN_POINT('',(3.852280096,-2.874999879,-0.724997476));
#121=DIRECTION('',(-0.,0.707106781,-0.707106781));
#122=DIRECTION('',(0.,-0.707106781,-0.707106781));
#123=AXIS2_PLACEMENT_3D('',#120,#121,#122);
#124=ELLIPSE('',#123,0.989949494,0.7);
#125=EDGE_CURVE('',#111,#119,#124,.T.);
#126=ORIENTED_EDGE('',*,*,#125,.T.);
#127=CARTESIAN_POINT('',(3.156309823,-2.950002403,-0.8));
#128=DIRECTION('',(-0.,-0.,1.));
#129=VECTOR('',#128,0.25906033);
#130=LINE('',#127,#129);
#131=EDGE_CURVE('',#119,#102,#130,.T.);
#132=ORIENTED_EDGE('',*,*,#131,.T.);
#133=EDGE_LOOP('',(#109,#117,#126,#132));
#134=FACE_BOUND('',#133,.T.);
#135=ADVANCED_FACE('',(#134),#98,.F.);
#136=CARTESIAN_POINT('',(-4.964009723,-6.225,-0.875));
#137=DIRECTION('',(-0.,-1.,-0.));
#138=DIRECTION('',(1.,-0.,0.));
#139=AXIS2_PLACEMENT_3D('',#136,#137,#138);
#140=PLANE('',#139);
#141=CARTESIAN_POINT('',(13.052310381,-6.225,-0.04));
#142=VERTEX_POINT('',#141);
#143=CARTESIAN_POINT('',(13.052310381,-6.225,-1.8));
#144=VERTEX_POINT('',#143);
#145=CARTESIAN_POINT('',(13.052310381,-6.225,-0.04));
#146=DIRECTION('',(0.,0.,-1.));
#147=VECTOR('',#146,1.76);
#148=LINE('',#145,#147);
#149=EDGE_CURVE('',#142,#144,#148,.T.);
#150=ORIENTED_EDGE('',*,*,#149,.F.);
#151=CARTESIAN_POINT('',(-10.697689619,-6.225,-0.04));
#152=VERTEX_POINT('',#151);
#153=CARTESIAN_POINT('',(13.052310381,-6.225,-0.04));
#154=DIRECTION('',(-1.,0.,-0.));
#155=VECTOR('',#154,23.75);
#156=LINE('',#153,#155);
#157=EDGE_CURVE('',#142,#152,#156,.T.);
#158=ORIENTED_EDGE('',*,*,#157,.T.);
#159=CARTESIAN_POINT('',(-10.697689619,-6.225,-2.375));
#160=VERTEX_POINT('',#159);
#161=CARTESIAN_POINT('',(-10.697689619,-6.225,-0.04));
#162=DIRECTION('',(0.,0.,-1.));
#163=VECTOR('',#162,2.335);
#164=LINE('',#161,#163);
#165=EDGE_CURVE('',#152,#160,#164,.T.);
#166=ORIENTED_EDGE('',*,*,#165,.T.);
#167=CARTESIAN_POINT('',(10.752310381,-6.225,-2.375));
#168=VERTEX_POINT('',#167);
#169=CARTESIAN_POINT('',(10.752310381,-6.225,-2.375));
#170=DIRECTION('',(-1.,0.,-0.));
#171=VECTOR('',#170,21.45);
#172=LINE('',#169,#171);
#173=EDGE_CURVE('',#168,#160,#172,.T.);
#174=ORIENTED_EDGE('',*,*,#173,.F.);
#175=CARTESIAN_POINT('',(10.752310381,-6.225,-1.8));
#176=VERTEX_POINT('',#175);
#177=CARTESIAN_POINT('',(10.752310381,-6.225,-1.8));
#178=DIRECTION('',(0.,0.,-1.));
#179=VECTOR('',#178,0.575);
#180=LINE('',#177,#179);
#181=EDGE_CURVE('',#176,#168,#180,.T.);
#182=ORIENTED_EDGE('',*,*,#181,.F.);
#183=CARTESIAN_POINT('',(10.752310381,-6.225,-1.8));
#184=DIRECTION('',(1.,-0.,0.));
#185=VECTOR('',#184,2.3);
#186=LINE('',#183,#185);
#187=EDGE_CURVE('',#176,#144,#186,.T.);
#188=ORIENTED_EDGE('',*,*,#187,.T.);
#189=EDGE_LOOP('',(#150,#158,#166,#174,#182,#188));
#190=FACE_BOUND('',#189,.T.);
#191=ADVANCED_FACE('',(#190),#140,.T.);
#192=CARTESIAN_POINT('',(4.297424891,-2.950002403,-0.4));
#193=DIRECTION('',(-0.,1.,-0.));
#194=DIRECTION('',(-0.,-0.,1.));
#195=AXIS2_PLACEMENT_3D('',#192,#193,#194);
#196=PLANE('',#195);
#197=CARTESIAN_POINT('',(2.554445507,-2.950002403,-0.54093967));
#198=VERTEX_POINT('',#197);
#199=CARTESIAN_POINT('',(3.156309823,-2.950002403,-0.54093967));
#200=DIRECTION('',(-1.,-0.,0.));
#201=VECTOR('',#200,0.601864316);
#202=LINE('',#199,#201);
#203=EDGE_CURVE('',#102,#198,#202,.T.);
#204=ORIENTED_EDGE('',*,*,#203,.F.);
#205=ORIENTED_EDGE('',*,*,#131,.F.);
#206=CARTESIAN_POINT('',(-8.997689618,-2.950002403,-0.8));
#207=VERTEX_POINT('',#206);
#208=CARTESIAN_POINT('',(3.156309823,-2.950002403,-0.8));
#209=DIRECTION('',(-1.,-0.,-0.));
#210=VECTOR('',#209,12.153999442);
#211=LINE('',#208,#210);
#212=EDGE_CURVE('',#119,#207,#211,.T.);
#213=ORIENTED_EDGE('',*,*,#212,.T.);
#214=CARTESIAN_POINT('',(-9.535090772,-2.950002403,-0.04));
#215=VERTEX_POINT('',#214);
#216=CARTESIAN_POINT('',(-9.535090772,-2.950002403,-0.04));
#217=DIRECTION('',(0.577350269,-0.,-0.816496581));
#218=VECTOR('',#217,0.930806102);
#219=LINE('',#216,#218);
#220=EDGE_CURVE('',#215,#207,#219,.T.);
#221=ORIENTED_EDGE('',*,*,#220,.F.);
#222=CARTESIAN_POINT('',(2.554445507,-2.950002403,-0.04));
#223=VERTEX_POINT('',#222);
#224=CARTESIAN_POINT('',(-9.535090772,-2.950002403,-0.04));
#225=DIRECTION('',(1.,0.,0.));
#226=VECTOR('',#225,12.089536279);
#227=LINE('',#224,#226);
#228=EDGE_CURVE('',#215,#223,#227,.T.);
#229=ORIENTED_EDGE('',*,*,#228,.T.);
#230=CARTESIAN_POINT('',(2.554445507,-2.950002403,-0.54093967));
#231=DIRECTION('',(0.,0.,1.));
#232=VECTOR('',#231,0.50093967);
#233=LINE('',#230,#232);
#234=EDGE_CURVE('',#198,#223,#233,.T.);
#235=ORIENTED_EDGE('',*,*,#234,.F.);
#236=EDGE_LOOP('',(#204,#205,#213,#221,#229,#235));
#237=FACE_BOUND('',#236,.T.);
#238=ADVANCED_FACE('',(#237),#196,.T.);
#239=CARTESIAN_POINT('',(9.437532274,-4.435224296,-1.875));
#240=DIRECTION('',(-0.707106781,-0.707106781,-0.));
#241=DIRECTION('',(0.707106781,-0.707106781,0.));
#242=AXIS2_PLACEMENT_3D('',#239,#240,#241);
#243=PLANE('',#242);
#244=CARTESIAN_POINT('',(10.752310381,-5.750002403,-1.8));
#245=VERTEX_POINT('',#244);
#246=CARTESIAN_POINT('',(8.952310381,-3.950002403,-1.8));
#247=VERTEX_POINT('',#246);
#248=CARTESIAN_POINT('',(10.752310381,-5.750002403,-1.8));
#249=DIRECTION('',(-0.707106781,0.707106781,-0.));
#250=VECTOR('',#249,2.545584412);
#251=LINE('',#248,#250);
#252=EDGE_CURVE('',#245,#247,#251,.T.);
#253=ORIENTED_EDGE('',*,*,#252,.F.);
#254=CARTESIAN_POINT('',(10.752310381,-5.750002403,-2.375));
#255=VERTEX_POINT('',#254);
#256=CARTESIAN_POINT('',(10.752310381,-5.750002403,-1.8));
#257=DIRECTION('',(0.,0.,-1.));
#258=VECTOR('',#257,0.575);
#259=LINE('',#256,#258);
#260=EDGE_CURVE('',#245,#255,#259,.T.);
#261=ORIENTED_EDGE('',*,*,#260,.T.);
#262=CARTESIAN_POINT('',(9.052310381,-4.050002403,-2.375));
#263=VERTEX_POINT('',#262);
#264=CARTESIAN_POINT('',(10.752310381,-5.750002403,-2.375));
#265=DIRECTION('',(-0.707106781,0.707106781,-0.));
#266=VECTOR('',#265,2.404163056);
#267=LINE('',#264,#266);
#268=EDGE_CURVE('',#255,#263,#267,.T.);
#269=ORIENTED_EDGE('',*,*,#268,.T.);
#270=CARTESIAN_POINT('',(9.052310381,-4.050002403,-1.9));
#271=VERTEX_POINT('',#270);
#272=CARTESIAN_POINT('',(9.052310381,-4.050002403,-1.9));
#273=DIRECTION('',(0.,0.,-1.));
#274=VECTOR('',#273,0.475);
#275=LINE('',#272,#274);
#276=EDGE_CURVE('',#271,#263,#275,.T.);
#277=ORIENTED_EDGE('',*,*,#276,.F.);
#278=CARTESIAN_POINT('',(8.952310381,-3.950002403,-1.8));
#279=DIRECTION('',(0.577350269,-0.577350269,-0.577350269));
#280=VECTOR('',#279,0.173205081);
#281=LINE('',#278,#280);
#282=EDGE_CURVE('',#247,#271,#281,.T.);
#283=ORIENTED_EDGE('',*,*,#282,.F.);
#284=EDGE_LOOP('',(#253,#261,#269,#277,#283));
#285=FACE_BOUND('',#284,.T.);
#286=ADVANCED_FACE('',(#285),#243,.F.);
#287=CARTESIAN_POINT('',(-8.997689619,-4.050002403,-2.45));
#288=DIRECTION('',(0.707106781,-0.707106781,0.));
#289=DIRECTION('',(-0.,-0.,1.));
#290=AXIS2_PLACEMENT_3D('',#287,#288,#289);
#291=PLANE('',#290);
#292=CARTESIAN_POINT('',(-10.697689619,-5.750002403,-2.375));
#293=VERTEX_POINT('',#292);
#294=CARTESIAN_POINT('',(-8.997689619,-4.050002403,-2.375));
#295=VERTEX_POINT('',#294);
#296=CARTESIAN_POINT('',(-10.697689619,-5.750002403,-2.375));
#297=DIRECTION('',(0.707106781,0.707106781,0.));
#298=VECTOR('',#297,2.404163056);
#299=LINE('',#296,#298);
#300=EDGE_CURVE('',#293,#295,#299,.T.);
#301=ORIENTED_EDGE('',*,*,#300,.F.);
#302=CARTESIAN_POINT('',(-10.697689619,-5.750002403,-1.195836944));
#303=VERTEX_POINT('',#302);
#304=CARTESIAN_POINT('',(-10.697689619,-5.750002403,-1.195836944));
#305=DIRECTION('',(0.,0.,-1.));
#306=VECTOR('',#305,1.179163056);
#307=LINE('',#304,#306);
#308=EDGE_CURVE('',#303,#293,#307,.T.);
#309=ORIENTED_EDGE('',*,*,#308,.F.);
#310=CARTESIAN_POINT('',(-8.997689619,-4.050002403,-1.9));
#311=VERTEX_POINT('',#310);
#312=CARTESIAN_POINT('',(-10.697689619,-5.750002403,-1.195836944));
#313=DIRECTION('',(0.678598345,0.678598345,-0.281084638));
#314=VECTOR('',#313,2.505163789);
#315=LINE('',#312,#314);
#316=EDGE_CURVE('',#303,#311,#315,.T.);
#317=ORIENTED_EDGE('',*,*,#316,.T.);
#318=CARTESIAN_POINT('',(-8.997689619,-4.050002403,-2.375));
#319=DIRECTION('',(-0.,-0.,1.));
#320=VECTOR('',#319,0.475);
#321=LINE('',#318,#320);
#322=EDGE_CURVE('',#295,#311,#321,.T.);
#323=ORIENTED_EDGE('',*,*,#322,.F.);
#324=EDGE_LOOP('',(#301,#309,#317,#323));
#325=FACE_BOUND('',#324,.T.);
#326=ADVANCED_FACE('',(#325),#291,.F.);
#327=CARTESIAN_POINT('',(11.687868686,7.849982352,-1.8));
#328=DIRECTION('',(0.,0.,-1.));
#329=DIRECTION('',(0.,-1.,0.));
#330=AXIS2_PLACEMENT_3D('',#327,#328,#329);
#331=PLANE('',#330);
#332=CARTESIAN_POINT('',(11.652310381,-3.950002403,-1.8));
#333=VERTEX_POINT('',#332);
#334=CARTESIAN_POINT('',(13.052310381,-5.92990139,-1.8));
#335=VERTEX_POINT('',#334);
#336=CARTESIAN_POINT('',(11.652310381,-3.950002403,-1.8));
#337=DIRECTION('',(0.577350269,-0.816496581,0.));
#338=VECTOR('',#337,2.42487113);
#339=LINE('',#336,#338);
#340=EDGE_CURVE('',#333,#335,#339,.T.);
#341=ORIENTED_EDGE('',*,*,#340,.T.);
#342=CARTESIAN_POINT('',(13.052310381,-5.92990139,-1.8));
#343=DIRECTION('',(0.,-1.,0.));
#344=VECTOR('',#343,0.29509861);
#345=LINE('',#342,#344);
#346=EDGE_CURVE('',#335,#144,#345,.T.);
#347=ORIENTED_EDGE('',*,*,#346,.T.);
#348=ORIENTED_EDGE('',*,*,#187,.F.);
#349=CARTESIAN_POINT('',(10.752310381,-5.750002403,-1.8));
#350=DIRECTION('',(0.,-1.,0.));
#351=VECTOR('',#350,0.474997597);
#352=LINE('',#349,#351);
#353=EDGE_CURVE('',#245,#176,#352,.T.);
#354=ORIENTED_EDGE('',*,*,#353,.F.);
#355=ORIENTED_EDGE('',*,*,#252,.T.);
#356=CARTESIAN_POINT('',(11.652310381,-3.950002403,-1.8));
#357=DIRECTION('',(-1.,-0.,-0.));
#358=VECTOR('',#357,2.7);
#359=LINE('',#356,#358);
#360=EDGE_CURVE('',#333,#247,#359,.T.);
#361=ORIENTED_EDGE('',*,*,#360,.F.);
#362=EDGE_LOOP('',(#341,#347,#348,#354,#355,#361));
#363=FACE_BOUND('',#362,.T.);
#364=ADVANCED_FACE('',(#363),#331,.T.);
#365=CARTESIAN_POINT('',(-10.697689619,-6.000017648,-4.620154541));
#366=DIRECTION('',(1.,0.,0.));
#367=DIRECTION('',(-0.,-0.,1.));
#368=AXIS2_PLACEMENT_3D('',#365,#366,#367);
#369=PLANE('',#368);
#370=CARTESIAN_POINT('',(-10.697689619,-4.594165459,-0.04));
#371=VERTEX_POINT('',#370);
#372=CARTESIAN_POINT('',(-10.697689619,-6.225,-0.04));
#373=DIRECTION('',(-0.,1.,-0.));
#374=VECTOR('',#373,1.630834541);
#375=LINE('',#372,#374);
#376=EDGE_CURVE('',#152,#371,#375,.T.);
#377=ORIENTED_EDGE('',*,*,#376,.T.);
#378=CARTESIAN_POINT('',(-10.697689619,-4.594165459,-0.04));
#379=DIRECTION('',(0.,-0.707106781,-0.707106781));
#380=VECTOR('',#379,1.634600282);
#381=LINE('',#378,#380);
#382=EDGE_CURVE('',#371,#303,#381,.T.);
#383=ORIENTED_EDGE('',*,*,#382,.T.);
#384=ORIENTED_EDGE('',*,*,#308,.T.);
#385=CARTESIAN_POINT('',(-10.697689619,-5.750002403,-2.375));
#386=DIRECTION('',(0.,-1.,0.));
#387=VECTOR('',#386,0.474997597);
#388=LINE('',#385,#387);
#389=EDGE_CURVE('',#293,#160,#388,.T.);
#390=ORIENTED_EDGE('',*,*,#389,.T.);
#391=ORIENTED_EDGE('',*,*,#165,.F.);
#392=EDGE_LOOP('',(#377,#383,#384,#390,#391));
#393=FACE_BOUND('',#392,.T.);
#394=ADVANCED_FACE('',(#393),#369,.F.);
#395=CARTESIAN_POINT('',(11.652310381,-4.050002403,-1.9));
#396=DIRECTION('',(-0.707106781,-0.5,0.5));
#397=DIRECTION('',(0.,-0.707106781,-0.707106781));
#398=AXIS2_PLACEMENT_3D('',#395,#396,#397);
#399=PLANE('',#398);
#400=CARTESIAN_POINT('',(11.652310381,-2.950002403,-0.8));
#401=VERTEX_POINT('',#400);
#402=CARTESIAN_POINT('',(12.189711535,-2.950002403,-0.04));
#403=VERTEX_POINT('',#402);
#404=CARTESIAN_POINT('',(11.652310381,-2.950002403,-0.8));
#405=DIRECTION('',(0.577350269,-0.,0.816496581));
#406=VECTOR('',#405,0.930806102);
#407=LINE('',#404,#406);
#408=EDGE_CURVE('',#401,#403,#407,.T.);
#409=ORIENTED_EDGE('',*,*,#408,.T.);
#410=CARTESIAN_POINT('',(13.052310381,-4.16990139,-0.04));
#411=VERTEX_POINT('',#410);
#412=CARTESIAN_POINT('',(13.052310381,-4.16990139,-0.04));
#413=DIRECTION('',(-0.577350269,0.816496581,-0.));
#414=VECTOR('',#413,1.494065028);
#415=LINE('',#412,#414);
#416=EDGE_CURVE('',#411,#403,#415,.T.);
#417=ORIENTED_EDGE('',*,*,#416,.F.);
#418=CARTESIAN_POINT('',(13.052310381,-5.92990139,-1.8));
#419=DIRECTION('',(-0.,0.707106781,0.707106781));
#420=VECTOR('',#419,2.48901587);
#421=LINE('',#418,#420);
#422=EDGE_CURVE('',#335,#411,#421,.T.);
#423=ORIENTED_EDGE('',*,*,#422,.F.);
#424=ORIENTED_EDGE('',*,*,#340,.F.);
#425=CARTESIAN_POINT('',(11.652310381,-2.950002403,-0.8));
#426=DIRECTION('',(0.,-0.707106781,-0.707106781));
#427=VECTOR('',#426,1.414213562);
#428=LINE('',#425,#427);
#429=EDGE_CURVE('',#401,#333,#428,.T.);
#430=ORIENTED_EDGE('',*,*,#429,.F.);
#431=EDGE_LOOP('',(#409,#417,#423,#424,#430));
#432=FACE_BOUND('',#431,.T.);
#433=ADVANCED_FACE('',(#432),#399,.F.);
#434=CARTESIAN_POINT('',(-10.697689619,-7.587168824,-3.033003365));
#435=DIRECTION('',(-0.707106781,0.5,-0.5));
#436=DIRECTION('',(-0.,0.707106781,0.707106781));
#437=AXIS2_PLACEMENT_3D('',#434,#435,#436);
#438=PLANE('',#437);
#439=CARTESIAN_POINT('',(-8.997689619,-4.050002403,-1.9));
#440=DIRECTION('',(-0.,0.707106781,0.707106781));
#441=VECTOR('',#440,1.555634919);
#442=LINE('',#439,#441);
#443=EDGE_CURVE('',#311,#207,#442,.T.);
#444=ORIENTED_EDGE('',*,*,#443,.F.);
#445=ORIENTED_EDGE('',*,*,#316,.F.);
#446=ORIENTED_EDGE('',*,*,#382,.F.);
#447=CARTESIAN_POINT('',(-9.535090772,-2.950002403,-0.04));
#448=DIRECTION('',(-0.577350269,-0.816496581,-0.));
#449=VECTOR('',#448,2.013680271);
#450=LINE('',#447,#449);
#451=EDGE_CURVE('',#215,#371,#450,.T.);
#452=ORIENTED_EDGE('',*,*,#451,.F.);
#453=ORIENTED_EDGE('',*,*,#220,.T.);
#454=EDGE_LOOP('',(#444,#445,#446,#452,#453));
#455=FACE_BOUND('',#454,.T.);
#456=ADVANCED_FACE('',(#455),#438,.T.);
#457=CARTESIAN_POINT('',(-0.022688438,-4.050002403,-1.9));
#458=DIRECTION('',(-0.,0.707106781,-0.707106781));
#459=DIRECTION('',(-1.,-0.,-0.));
#460=AXIS2_PLACEMENT_3D('',#457,#458,#459);
#461=PLANE('',#460);
#462=ORIENTED_EDGE('',*,*,#125,.F.);
#463=CARTESIAN_POINT('',(11.652310381,-2.950002403,-0.8));
#464=DIRECTION('',(-1.,-0.,-0.));
#465=VECTOR('',#464,7.104060012);
#466=LINE('',#463,#465);
#467=EDGE_CURVE('',#401,#111,#466,.T.);
#468=ORIENTED_EDGE('',*,*,#467,.F.);
#469=ORIENTED_EDGE('',*,*,#429,.T.);
#470=ORIENTED_EDGE('',*,*,#360,.T.);
#471=ORIENTED_EDGE('',*,*,#282,.T.);
#472=CARTESIAN_POINT('',(9.052310381,-4.050002403,-1.9));
#473=DIRECTION('',(-1.,-0.,-0.));
#474=VECTOR('',#473,9.117080309);
#475=LINE('',#472,#474);
#476=EDGE_CURVE('',#271,#60,#475,.T.);
#477=ORIENTED_EDGE('',*,*,#476,.T.);
#478=ORIENTED_EDGE('',*,*,#66,.T.);
#479=CARTESIAN_POINT('',(-0.642221518,-4.050002403,-1.9));
#480=DIRECTION('',(-1.,-0.,-0.));
#481=VECTOR('',#480,8.3554681);
#482=LINE('',#479,#481);
#483=EDGE_CURVE('',#52,#311,#482,.T.);
#484=ORIENTED_EDGE('',*,*,#483,.T.);
#485=ORIENTED_EDGE('',*,*,#443,.T.);
#486=ORIENTED_EDGE('',*,*,#212,.F.);
#487=EDGE_LOOP('',(#462,#468,#469,#470,#471,#477,#478,#484,#485,#486));
#488=FACE_BOUND('',#487,.T.);
#489=ADVANCED_FACE('',(#488),#461,.T.);
#490=CARTESIAN_POINT('',(-0.022688438,-4.050002403,-2.45));
#491=DIRECTION('',(0.,-1.,0.));
#492=DIRECTION('',(-0.,-0.,1.));
#493=AXIS2_PLACEMENT_3D('',#490,#491,#492);
#494=PLANE('',#493);
#495=ORIENTED_EDGE('',*,*,#74,.F.);
#496=ORIENTED_EDGE('',*,*,#476,.F.);
#497=ORIENTED_EDGE('',*,*,#276,.T.);
#498=CARTESIAN_POINT('',(9.052310381,-4.050002403,-2.375));
#499=DIRECTION('',(-1.,-0.,-0.));
#500=VECTOR('',#499,9.117080309);
#501=LINE('',#498,#500);
#502=EDGE_CURVE('',#263,#69,#501,.T.);
#503=ORIENTED_EDGE('',*,*,#502,.T.);
#504=EDGE_LOOP('',(#495,#496,#497,#503));
#505=FACE_BOUND('',#504,.T.);
#506=ADVANCED_FACE('',(#505),#494,.F.);
#507=CARTESIAN_POINT('',(-0.022688438,-4.050002403,-2.45));
#508=DIRECTION('',(0.,-1.,0.));
#509=DIRECTION('',(-0.,-0.,1.));
#510=AXIS2_PLACEMENT_3D('',#507,#508,#509);
#511=PLANE('',#510);
#512=ORIENTED_EDGE('',*,*,#57,.F.);
#513=CARTESIAN_POINT('',(-0.642221518,-4.050002403,-2.375));
#514=DIRECTION('',(-1.,-0.,-0.));
#515=VECTOR('',#514,8.3554681);
#516=LINE('',#513,#515);
#517=EDGE_CURVE('',#43,#295,#516,.T.);
#518=ORIENTED_EDGE('',*,*,#517,.T.);
#519=ORIENTED_EDGE('',*,*,#322,.T.);
#520=ORIENTED_EDGE('',*,*,#483,.F.);
#521=EDGE_LOOP('',(#512,#518,#519,#520));
#522=FACE_BOUND('',#521,.T.);
#523=ADVANCED_FACE('',(#522),#511,.F.);
#524=CARTESIAN_POINT('',(10.752310381,7.849982352,-1.95));
#525=DIRECTION('',(1.,0.,0.));
#526=DIRECTION('',(-0.,-0.,1.));
#527=AXIS2_PLACEMENT_3D('',#524,#525,#526);
#528=PLANE('',#527);
#529=ORIENTED_EDGE('',*,*,#353,.T.);
#530=ORIENTED_EDGE('',*,*,#181,.T.);
#531=CARTESIAN_POINT('',(10.752310381,-5.750002403,-2.375));
#532=DIRECTION('',(0.,-1.,0.));
#533=VECTOR('',#532,0.474997597);
#534=LINE('',#531,#533);
#535=EDGE_CURVE('',#255,#168,#534,.T.);
#536=ORIENTED_EDGE('',*,*,#535,.F.);
#537=ORIENTED_EDGE('',*,*,#260,.F.);
#538=EDGE_LOOP('',(#529,#530,#536,#537));
#539=FACE_BOUND('',#538,.T.);
#540=ADVANCED_FACE('',(#539),#528,.T.);
#541=CARTESIAN_POINT('',(-3.547689619,7.849982352,-2.375));
#542=DIRECTION('',(0.,0.,-1.));
#543=DIRECTION('',(0.,-1.,0.));
#544=AXIS2_PLACEMENT_3D('',#541,#542,#543);
#545=PLANE('',#544);
#546=ORIENTED_EDGE('',*,*,#535,.T.);
#547=ORIENTED_EDGE('',*,*,#173,.T.);
#548=ORIENTED_EDGE('',*,*,#389,.F.);
#549=ORIENTED_EDGE('',*,*,#300,.T.);
#550=ORIENTED_EDGE('',*,*,#517,.F.);
#551=ORIENTED_EDGE('',*,*,#49,.T.);
#552=ORIENTED_EDGE('',*,*,#81,.T.);
#553=ORIENTED_EDGE('',*,*,#502,.F.);
#554=ORIENTED_EDGE('',*,*,#268,.F.);
#555=EDGE_LOOP('',(#546,#547,#548,#549,#550,#551,#552,#553,#554));
#556=FACE_BOUND('',#555,.T.);
#557=ADVANCED_FACE('',(#556),#545,.T.);
#558=CARTESIAN_POINT('',(4.297424891,-2.950002403,-0.4));
#559=DIRECTION('',(-0.,1.,-0.));
#560=DIRECTION('',(-0.,-0.,1.));
#561=AXIS2_PLACEMENT_3D('',#558,#559,#560);
#562=PLANE('',#561);
#563=ORIENTED_EDGE('',*,*,#116,.F.);
#564=CARTESIAN_POINT('',(5.150114686,-2.950002403,-0.54093967));
#565=VERTEX_POINT('',#564);
#566=CARTESIAN_POINT('',(5.150114686,-2.950002403,-0.54093967));
#567=DIRECTION('',(-1.,-0.,0.));
#568=VECTOR('',#567,0.601864316);
#569=LINE('',#566,#568);
#570=EDGE_CURVE('',#565,#100,#569,.T.);
#571=ORIENTED_EDGE('',*,*,#570,.F.);
#572=CARTESIAN_POINT('',(5.150114686,-2.950002403,-0.04));
#573=VERTEX_POINT('',#572);
#574=CARTESIAN_POINT('',(5.150114686,-2.950002403,-0.04));
#575=DIRECTION('',(-0.,-0.,-1.));
#576=VECTOR('',#575,0.50093967);
#577=LINE('',#574,#576);
#578=EDGE_CURVE('',#573,#565,#577,.T.);
#579=ORIENTED_EDGE('',*,*,#578,.F.);
#580=CARTESIAN_POINT('',(5.150114686,-2.950002403,-0.04));
#581=DIRECTION('',(1.,0.,0.));
#582=VECTOR('',#581,7.03959685);
#583=LINE('',#580,#582);
#584=EDGE_CURVE('',#573,#403,#583,.T.);
#585=ORIENTED_EDGE('',*,*,#584,.T.);
#586=ORIENTED_EDGE('',*,*,#408,.F.);
#587=ORIENTED_EDGE('',*,*,#467,.T.);
#588=EDGE_LOOP('',(#563,#571,#579,#585,#586,#587));
#589=FACE_BOUND('',#588,.T.);
#590=ADVANCED_FACE('',(#589),#562,.T.);
#591=CARTESIAN_POINT('',(13.052310381,7.849982352,-0.219638554));
#592=DIRECTION('',(1.,0.,0.));
#593=DIRECTION('',(-0.,-0.,1.));
#594=AXIS2_PLACEMENT_3D('',#591,#592,#593);
#595=PLANE('',#594);
#596=ORIENTED_EDGE('',*,*,#422,.T.);
#597=CARTESIAN_POINT('',(13.052310381,-6.225,-0.04));
#598=DIRECTION('',(-0.,1.,-0.));
#599=VECTOR('',#598,2.05509861);
#600=LINE('',#597,#599);
#601=EDGE_CURVE('',#142,#411,#600,.T.);
#602=ORIENTED_EDGE('',*,*,#601,.F.);
#603=ORIENTED_EDGE('',*,*,#149,.T.);
#604=ORIENTED_EDGE('',*,*,#346,.F.);
#605=EDGE_LOOP('',(#596,#602,#603,#604));
#606=FACE_BOUND('',#605,.T.);
#607=ADVANCED_FACE('',(#606),#595,.T.);
#608=CARTESIAN_POINT('',(71.763032809,6.27701765,-0.04));
#609=DIRECTION('',(-0.,-0.,1.));
#610=DIRECTION('',(-1.,-0.,-0.));
#611=AXIS2_PLACEMENT_3D('',#608,#609,#610);
#612=PLANE('',#611);
#613=CARTESIAN_POINT('',(0.946504277,-4.602157482,-0.04));
#614=VERTEX_POINT('',#613);
#615=CARTESIAN_POINT('',(-0.353495723,-4.602157482,-0.04));
#616=DIRECTION('',(0.,0.,-1.));
#617=DIRECTION('',(1.,0.,0.));
#618=AXIS2_PLACEMENT_3D('',#615,#616,#617);
#619=CIRCLE('',#618,1.3);
#620=EDGE_CURVE('',#614,#614,#619,.T.);
#621=ORIENTED_EDGE('',*,*,#620,.T.);
#622=EDGE_LOOP('',(#621));
#623=FACE_BOUND('',#622,.T.);
#624=ORIENTED_EDGE('',*,*,#584,.F.);
#625=CARTESIAN_POINT('',(3.852280096,-2.874999879,-0.04));
#626=DIRECTION('',(0.,0.,1.));
#627=DIRECTION('',(1.,0.,-0.));
#628=AXIS2_PLACEMENT_3D('',#625,#626,#627);
#629=CIRCLE('',#628,1.3);
#630=EDGE_CURVE('',#223,#573,#629,.T.);
#631=ORIENTED_EDGE('',*,*,#630,.F.);
#632=ORIENTED_EDGE('',*,*,#228,.F.);
#633=ORIENTED_EDGE('',*,*,#451,.T.);
#634=ORIENTED_EDGE('',*,*,#376,.F.);
#635=ORIENTED_EDGE('',*,*,#157,.F.);
#636=ORIENTED_EDGE('',*,*,#601,.T.);
#637=ORIENTED_EDGE('',*,*,#416,.T.);
#638=EDGE_LOOP('',(#624,#631,#632,#633,#634,#635,#636,#637));
#639=FACE_BOUND('',#638,.T.);
#640=ADVANCED_FACE('',(#623,#639),#612,.T.);
#641=CARTESIAN_POINT('',(3.852280096,-3.874999879,-0.54093967));
#642=DIRECTION('',(0.,0.,-1.));
#643=DIRECTION('',(-1.,0.,0.));
#644=AXIS2_PLACEMENT_3D('',#641,#642,#643);
#645=PLANE('',#644);
#646=ORIENTED_EDGE('',*,*,#570,.T.);
#647=ORIENTED_EDGE('',*,*,#108,.T.);
#648=ORIENTED_EDGE('',*,*,#203,.T.);
#649=CARTESIAN_POINT('',(3.852280096,-2.874999879,-0.54093967));
#650=DIRECTION('',(0.,0.,1.));
#651=DIRECTION('',(0.,-1.,0.));
#652=AXIS2_PLACEMENT_3D('',#649,#650,#651);
#653=CIRCLE('',#652,1.3);
#654=EDGE_CURVE('',#198,#565,#653,.T.);
#655=ORIENTED_EDGE('',*,*,#654,.T.);
#656=EDGE_LOOP('',(#646,#647,#648,#655));
#657=FACE_BOUND('',#656,.T.);
#658=ADVANCED_FACE('',(#657),#645,.F.);
#659=CARTESIAN_POINT('',(3.852280096,-2.874999879,-3.14093967));
#660=DIRECTION('',(0.,0.,1.));
#661=DIRECTION('',(1.,0.,-0.));
#662=AXIS2_PLACEMENT_3D('',#659,#660,#661);
#663=CYLINDRICAL_SURFACE('',#662,1.3);
#664=ORIENTED_EDGE('',*,*,#234,.T.);
#665=ORIENTED_EDGE('',*,*,#630,.T.);
#666=ORIENTED_EDGE('',*,*,#578,.T.);
#667=ORIENTED_EDGE('',*,*,#654,.F.);
#668=EDGE_LOOP('',(#664,#665,#666,#667));
#669=FACE_BOUND('',#668,.T.);
#670=ADVANCED_FACE('',(#669),#663,.F.);
#671=CARTESIAN_POINT('',(0.,0.,1.2));
#672=DIRECTION('',(0.,0.,-1.));
#673=DIRECTION('',(-1.,0.,0.));
#674=AXIS2_PLACEMENT_3D('',#671,#672,#673);
#675=PLANE('',#674);
#676=ORIENTED_EDGE('',*,*,#89,.F.);
#677=EDGE_LOOP('',(#676));
#678=FACE_BOUND('',#677,.T.);
#679=CARTESIAN_POINT('',(0.946504277,-4.602157482,1.2));
#680=VERTEX_POINT('',#679);
#681=CARTESIAN_POINT('',(-1.653495723,-4.602157482,1.2));
#682=VERTEX_POINT('',#681);
#683=CARTESIAN_POINT('',(-0.353495723,-4.602157482,1.2));
#684=DIRECTION('',(0.,0.,-1.));
#685=DIRECTION('',(-1.,0.,0.));
#686=AXIS2_PLACEMENT_3D('',#683,#684,#685);
#687=CIRCLE('',#686,1.3);
#688=EDGE_CURVE('',#680,#682,#687,.T.);
#689=ORIENTED_EDGE('',*,*,#688,.F.);
#690=CARTESIAN_POINT('',(-0.353495723,-4.602157482,1.2));
#691=DIRECTION('',(0.,0.,-1.));
#692=DIRECTION('',(-1.,0.,0.));
#693=AXIS2_PLACEMENT_3D('',#690,#691,#692);
#694=CIRCLE('',#693,1.3);
#695=EDGE_CURVE('',#682,#680,#694,.T.);
#696=ORIENTED_EDGE('',*,*,#695,.F.);
#697=EDGE_LOOP('',(#689,#696));
#698=FACE_BOUND('',#697,.T.);
#699=ADVANCED_FACE('',(#678,#698),#675,.F.);
#700=CARTESIAN_POINT('',(-0.353495723,-4.602157482,-4.1));
#701=DIRECTION('',(0.,0.,1.));
#702=DIRECTION('',(1.,0.,-0.));
#703=AXIS2_PLACEMENT_3D('',#700,#701,#702);
#704=CYLINDRICAL_SURFACE('',#703,1.3);
#705=CARTESIAN_POINT('',(0.946504277,-4.602157482,1.2));
#706=DIRECTION('',(-0.,-0.,-1.));
#707=VECTOR('',#706,1.24);
#708=LINE('',#705,#707);
#709=EDGE_CURVE('',#680,#614,#708,.T.);
#710=ORIENTED_EDGE('',*,*,#709,.T.);
#711=ORIENTED_EDGE('',*,*,#620,.F.);
#712=ORIENTED_EDGE('',*,*,#709,.F.);
#713=ORIENTED_EDGE('',*,*,#688,.T.);
#714=ORIENTED_EDGE('',*,*,#695,.T.);
#715=EDGE_LOOP('',(#710,#711,#712,#713,#714));
#716=FACE_BOUND('',#715,.T.);
#717=ADVANCED_FACE('',(#716),#704,.T.);
#718=CLOSED_SHELL('',(#93,#135,#191,#238,#286,#326,#364,#394,#433,#456,#489,#506,#523,#540,#557,#590,#607,#640,#658,#670,#699,#717));
#719=MANIFOLD_SOLID_BREP('\X2\94A2\X0\17\X2\8F6C63A5677F\X0\-\X2\53F3FF0865E05B9E4F5387BA7EB9FF09\X0\',#718);
#720=DRAUGHTING_PRE_DEFINED_COLOUR('black');
#721=FILL_AREA_STYLE_COLOUR('',#720);
#722=FILL_AREA_STYLE('',(#721));
#723=SURFACE_STYLE_FILL_AREA(#722);
#724=SURFACE_SIDE_STYLE('',(#723));
#725=SURFACE_STYLE_USAGE(.BOTH.,#724);
#726=PRESENTATION_STYLE_ASSIGNMENT((#725));
#26=STYLED_ITEM('',(#726),#719);
#16=SHAPE_REPRESENTATION('\X2\94A2\X0\17\X2\8F6C63A5677F\X0\-\X2\53F3FF0865E05B9E4F5387BA7EB9FF09\X0\',(#15),#10);
#17=ADVANCED_BREP_SHAPE_REPRESENTATION('\X2\94A2\X0\17\X2\8F6C63A5677F\X0\-\X2\53F3FF0865E05B9E4F5387BA7EB9FF09\X0\',(#719),#10);
#734=SHAPE_REPRESENTATION_RELATIONSHIP('','',#16,#17);
#735=CARTESIAN_POINT('',(0.,0.,0.));
#736=DIRECTION('',(0.,0.,1.));
#737=DIRECTION('',(1.,0.,0.));
#738=AXIS2_PLACEMENT_3D('',#735,#736,#737);
#740=MAPPED_ITEM('',#739,#738);
#739=REPRESENTATION_MAP(#738,#16);
#741=APPLICATION_CONTEXT('Managed model based 3d engineering');
#742=APPLICATION_PROTOCOL_DEFINITION('international standard','ap242_managed_model_based_3d_engineering',2014,#741);
#743=PRODUCT_CONTEXT('',#741,'mechanical');
#744=PRODUCT_DEFINITION_CONTEXT('part definition',#741,'design');
#24=PRODUCT('\X2\94A2\X0\17\X2\8F6C63A5677F\X0\-\X2\53F3FF0865E05B9E4F5387BA7EB9FF09\X0\','\X2\94A2\X0\17\X2\8F6C63A5677F\X0\-\X2\53F3FF0865E05B9E4F5387BA7EB9FF09\X0\','',(#743));
#745=PRODUCT_RELATED_PRODUCT_CATEGORY('part','',(#24));
#746=PRODUCT_DEFINITION_FORMATION_WITH_SPECIFIED_SOURCE('','',#24,.NOT_KNOWN.);
#25=PRODUCT_DEFINITION('design','',#746,#744);
#23=PRODUCT_DEFINITION_SHAPE('','',#25);
#747=SHAPE_DEFINITION_REPRESENTATION(#23,#16);
#11=DRAUGHTING_MODEL('',(#740),#10);
#748=DESCRIPTIVE_REPRESENTATION_ITEM('KEY','C:\\Users\\Nalani\\AppData\\Local\\Packages\\Shapr3D.Shapr3D_j403pzjkqtqbj\\TempState\\6fb23491-6188-4ac9-8c08-e7f3a4ba40c1.tmp');
#749=PROPERTY_DEFINITION('KEY','',#25);
#750=REPRESENTATION('',(#748),#10);
#751=PROPERTY_DEFINITION_REPRESENTATION(#749,#750);
#752=GENERAL_PROPERTY('','KEY','');
#753=GENERAL_PROPERTY_ASSOCIATION('','',#752,#749);
#1=MECHANICAL_DESIGN_GEOMETRIC_PRESENTATION_REPRESENTATION('',(#26),#10);
ENDSEC;
END-ISO-10303-21;
