ISO-10303-21;
HEADER;

/* File generated by Shapr3D Version 26.123.11423.0 */

FILE_DESCRIPTION(('HOOPS Exchange Step'),'2;1');

FILE_NAME('C:\\Users\\Nalani\\AppData\\Local\\Packages\\Shapr3D.Shapr3D_j403pzjkqtqbj\\TempState\\export\\temp_export',
'2026-08-03T16:12:14+08:00',
('Nalani'),
('Shapr3D Limited'),
'HOOPS Exchange 2026.3',
'Shapr3D',
'Authorized');

FILE_SCHEMA( ('AP242_MANAGED_MODEL_BASED_3D_ENGINEERING_MIM_LF {1 0 10303 442 1 1 4}') );

ENDSEC;

DATA;
#3=(NAMED_UNIT(*)PLANE_ANGLE_UNIT()SI_UNIT($,.RADIAN.));
#4=PLANE_ANGLE_MEASURE_WITH_UNIT(PLANE_ANGLE_MEASURE(0.0174532925),#3);
#5=(CONVERSION_BASED_UNIT('DEGREE',#4)NAMED_UNIT(#6)PLANE_ANGLE_UNIT());
#6=DIMENSIONAL_EXPONENTS(0.,0.,0.,0.,0.,0.,0.);
#7=(NAMED_UNIT(*)SI_UNIT($,.STERADIAN.)SOLID_ANGLE_UNIT());
#8=(LENGTH_UNIT()NAMED_UNIT(*)SI_UNIT(.MILLI.,.METRE.));
#9=UNCERTAINTY_MEASURE_WITH_UNIT(LENGTH_MEASURE(1.000000E-05),#8,'DISTANCE_ACCURACY_VALUE','Maximum Tolerance applied to model');
#10=(GEOMETRIC_REPRESENTATION_CONTEXT(3)GLOBAL_UNCERTAINTY_ASSIGNED_CONTEXT((#9))GLOBAL_UNIT_ASSIGNED_CONTEXT((#8,#5,#7))REPRESENTATION_CONTEXT('','\X2\94A2\X0\17\X2\8F6C63A5677F\X0\-\X2\5DE6FF0865E05B9E4F5387BA7EB9FF09\X0\'));
#12=CARTESIAN_POINT('',(0.,0.,0.));
#13=DIRECTION('',(0.,0.,1.));
#14=DIRECTION('',(1.,0.,0.));
#15=AXIS2_PLACEMENT_3D('',#12,#13,#14);
#27=CARTESIAN_POINT('',(-0.353495723,4.604314964,3.395655023));
#28=DIRECTION('',(0.,0.,-1.));
#29=DIRECTION('',(-1.,0.,0.));
#30=AXIS2_PLACEMENT_3D('',#27,#28,#29);
#31=CYLINDRICAL_SURFACE('',#30,0.625);
#32=CARTESIAN_POINT('',(-0.978495723,4.604314964,-2.375));
#33=VERTEX_POINT('',#32);
#34=CARTESIAN_POINT('',(-0.978495723,4.604314964,1.2));
#35=VERTEX_POINT('',#34);
#36=CARTESIAN_POINT('',(-0.978495723,4.604314964,-2.375));
#37=DIRECTION('',(-0.,-0.,1.));
#38=VECTOR('',#37,3.575);
#39=LINE('',#36,#38);
#40=EDGE_CURVE('',#33,#35,#39,.T.);
#41=ORIENTED_EDGE('',*,*,#40,.F.);
#42=CARTESIAN_POINT('',(-0.064779154,4.049997597,-2.375));
#43=VERTEX_POINT('',#42);
#44=CARTESIAN_POINT('',(-0.353495723,4.604314964,-2.375));
#45=DIRECTION('',(-0.,-0.,1.));
#46=DIRECTION('',(-1.,0.,-0.));
#47=AXIS2_PLACEMENT_3D('',#44,#45,#46);
#48=CIRCLE('',#47,0.625);
#49=EDGE_CURVE('',#43,#33,#48,.T.);
#50=ORIENTED_EDGE('',*,*,#49,.F.);
#51=CARTESIAN_POINT('',(-0.064779154,4.049997597,-1.9));
#52=VERTEX_POINT('',#51);
#53=CARTESIAN_POINT('',(-0.064779154,4.049997597,-1.9));
#54=DIRECTION('',(0.,0.,-1.));
#55=VECTOR('',#54,0.475);
#56=LINE('',#53,#55);
#57=EDGE_CURVE('',#52,#43,#56,.T.);
#58=ORIENTED_EDGE('',*,*,#57,.F.);
#59=CARTESIAN_POINT('',(-0.642212292,4.049997597,-1.9));
#60=VERTEX_POINT('',#59);
#61=CARTESIAN_POINT('',(-0.353495723,4.604314964,-2.454317366));
#62=DIRECTION('',(0.,-0.707106781,-0.707106781));
#63=DIRECTION('',(-0.,0.707106781,-0.707106781));
#64=AXIS2_PLACEMENT_3D('',#61,#62,#63);
#65=ELLIPSE('',#64,0.883883476,0.625);
#66=EDGE_CURVE('',#52,#60,#65,.T.);
#67=ORIENTED_EDGE('',*,*,#66,.T.);
#68=CARTESIAN_POINT('',(-0.642212292,4.049997597,-2.375));
#69=VERTEX_POINT('',#68);
#70=CARTESIAN_POINT('',(-0.642212292,4.049997597,-2.375));
#71=DIRECTION('',(-0.,-0.,1.));
#72=VECTOR('',#71,0.475);
#73=LINE('',#70,#72);
#74=EDGE_CURVE('',#69,#60,#73,.T.);
#75=ORIENTED_EDGE('',*,*,#74,.F.);
#76=CARTESIAN_POINT('',(-0.353495723,4.604314964,-2.375));
#77=DIRECTION('',(-0.,-0.,1.));
#78=DIRECTION('',(-1.,0.,-0.));
#79=AXIS2_PLACEMENT_3D('',#76,#77,#78);
#80=CIRCLE('',#79,0.625);
#81=EDGE_CURVE('',#33,#69,#80,.T.);
#82=ORIENTED_EDGE('',*,*,#81,.F.);
#83=ORIENTED_EDGE('',*,*,#40,.T.);
#84=CARTESIAN_POINT('',(-0.353495723,4.604314964,1.2));
#85=DIRECTION('',(-0.,-0.,1.));
#86=DIRECTION('',(-1.,0.,0.));
#87=AXIS2_PLACEMENT_3D('',#84,#85,#86);
#88=CIRCLE('',#87,0.625);
#89=EDGE_CURVE('',#35,#35,#88,.T.);
#90=ORIENTED_EDGE('',*,*,#89,.T.);
#91=EDGE_LOOP('',(#41,#50,#58,#67,#75,#82,#83,#90));
#92=FACE_BOUND('',#91,.T.);
#93=ADVANCED_FACE('',(#92),#31,.F.);
#94=CARTESIAN_POINT('',(-10.697689619,-6.000017648,-4.620154541));
#95=DIRECTION('',(1.,0.,0.));
#96=DIRECTION('',(-0.,-0.,1.));
#97=AXIS2_PLACEMENT_3D('',#94,#95,#96);
#98=PLANE('',#97);
#99=CARTESIAN_POINT('',(-10.697689619,5.749997597,-1.195836944));
#100=VERTEX_POINT('',#99);
#101=CARTESIAN_POINT('',(-10.697689619,4.594160653,-0.04));
#102=VERTEX_POINT('',#101);
#103=CARTESIAN_POINT('',(-10.697689619,5.749997597,-1.195836944));
#104=DIRECTION('',(0.,-0.707106781,0.707106781));
#105=VECTOR('',#104,1.634600282);
#106=LINE('',#103,#105);
#107=EDGE_CURVE('',#100,#102,#106,.T.);
#108=ORIENTED_EDGE('',*,*,#107,.T.);
#109=CARTESIAN_POINT('',(-10.697689619,6.225,-0.04));
#110=VERTEX_POINT('',#109);
#111=CARTESIAN_POINT('',(-10.697689619,4.594160653,-0.04));
#112=DIRECTION('',(-0.,1.,-0.));
#113=VECTOR('',#112,1.630839347);
#114=LINE('',#111,#113);
#115=EDGE_CURVE('',#102,#110,#114,.T.);
#116=ORIENTED_EDGE('',*,*,#115,.T.);
#117=CARTESIAN_POINT('',(-10.697689619,6.225,-2.375));
#118=VERTEX_POINT('',#117);
#119=CARTESIAN_POINT('',(-10.697689619,6.225,-0.04));
#120=DIRECTION('',(0.,0.,-1.));
#121=VECTOR('',#120,2.335);
#122=LINE('',#119,#121);
#123=EDGE_CURVE('',#110,#118,#122,.T.);
#124=ORIENTED_EDGE('',*,*,#123,.T.);
#125=CARTESIAN_POINT('',(-10.697689619,5.749997597,-2.375));
#126=VERTEX_POINT('',#125);
#127=CARTESIAN_POINT('',(-10.697689619,6.225,-2.375));
#128=DIRECTION('',(0.,-1.,0.));
#129=VECTOR('',#128,0.475002403);
#130=LINE('',#127,#129);
#131=EDGE_CURVE('',#118,#126,#130,.T.);
#132=ORIENTED_EDGE('',*,*,#131,.T.);
#133=CARTESIAN_POINT('',(-10.697689619,5.749997597,-2.375));
#134=DIRECTION('',(-0.,-0.,1.));
#135=VECTOR('',#134,1.179163056);
#136=LINE('',#133,#135);
#137=EDGE_CURVE('',#126,#100,#136,.T.);
#138=ORIENTED_EDGE('',*,*,#137,.T.);
#139=EDGE_LOOP('',(#108,#116,#124,#132,#138));
#140=FACE_BOUND('',#139,.T.);
#141=ADVANCED_FACE('',(#140),#98,.F.);
#142=CARTESIAN_POINT('',(71.763032809,6.27701765,-0.04));
#143=DIRECTION('',(-0.,-0.,1.));
#144=DIRECTION('',(-1.,-0.,-0.));
#145=AXIS2_PLACEMENT_3D('',#142,#143,#144);
#146=PLANE('',#145);
#147=CARTESIAN_POINT('',(0.946504277,4.602157482,-0.04));
#148=VERTEX_POINT('',#147);
#149=CARTESIAN_POINT('',(-0.353495723,4.602157482,-0.04));
#150=DIRECTION('',(0.,0.,-1.));
#151=DIRECTION('',(1.,0.,0.));
#152=AXIS2_PLACEMENT_3D('',#149,#150,#151);
#153=CIRCLE('',#152,1.3);
#154=EDGE_CURVE('',#148,#148,#153,.T.);
#155=ORIENTED_EDGE('',*,*,#154,.T.);
#156=EDGE_LOOP('',(#155));
#157=FACE_BOUND('',#156,.T.);
#158=CARTESIAN_POINT('',(2.554445215,2.949997597,-0.04));
#159=VERTEX_POINT('',#158);
#160=CARTESIAN_POINT('',(-9.535090772,2.949997597,-0.04));
#161=VERTEX_POINT('',#160);
#162=CARTESIAN_POINT('',(2.554445215,2.949997597,-0.04));
#163=DIRECTION('',(-1.,-0.,-0.));
#164=VECTOR('',#163,12.089535987);
#165=LINE('',#162,#164);
#166=EDGE_CURVE('',#159,#161,#165,.T.);
#167=ORIENTED_EDGE('',*,*,#166,.F.);
#168=CARTESIAN_POINT('',(5.150114977,2.949997597,-0.04));
#169=VERTEX_POINT('',#168);
#170=CARTESIAN_POINT('',(3.852280096,2.875000121,-0.04));
#171=DIRECTION('',(0.,0.,1.));
#172=DIRECTION('',(1.,0.,-0.));
#173=AXIS2_PLACEMENT_3D('',#170,#171,#172);
#174=CIRCLE('',#173,1.3);
#175=EDGE_CURVE('',#169,#159,#174,.T.);
#176=ORIENTED_EDGE('',*,*,#175,.F.);
#177=CARTESIAN_POINT('',(11.989711536,2.949997597,-0.04));
#178=VERTEX_POINT('',#177);
#179=CARTESIAN_POINT('',(11.989711536,2.949997597,-0.04));
#180=DIRECTION('',(-1.,-0.,-0.));
#181=VECTOR('',#180,6.839596558);
#182=LINE('',#179,#181);
#183=EDGE_CURVE('',#178,#169,#182,.T.);
#184=ORIENTED_EDGE('',*,*,#183,.F.);
#185=CARTESIAN_POINT('',(13.052310381,4.452739297,-0.04));
#186=VERTEX_POINT('',#185);
#187=CARTESIAN_POINT('',(11.989711536,2.949997597,-0.04));
#188=DIRECTION('',(0.577350269,0.816496581,0.));
#189=VECTOR('',#188,1.84047519);
#190=LINE('',#187,#189);
#191=EDGE_CURVE('',#178,#186,#190,.T.);
#192=ORIENTED_EDGE('',*,*,#191,.T.);
#193=CARTESIAN_POINT('',(13.052310381,6.225,-0.04));
#194=VERTEX_POINT('',#193);
#195=CARTESIAN_POINT('',(13.052310381,4.452739297,-0.04));
#196=DIRECTION('',(-0.,1.,-0.));
#197=VECTOR('',#196,1.772260703);
#198=LINE('',#195,#197);
#199=EDGE_CURVE('',#186,#194,#198,.T.);
#200=ORIENTED_EDGE('',*,*,#199,.T.);
#201=CARTESIAN_POINT('',(13.052310381,6.225,-0.04));
#202=DIRECTION('',(-1.,0.,-0.));
#203=VECTOR('',#202,23.75);
#204=LINE('',#201,#203);
#205=EDGE_CURVE('',#194,#110,#204,.T.);
#206=ORIENTED_EDGE('',*,*,#205,.T.);
#207=ORIENTED_EDGE('',*,*,#115,.F.);
#208=CARTESIAN_POINT('',(-10.697689619,4.594160653,-0.04));
#209=DIRECTION('',(0.577350269,-0.816496581,0.));
#210=VECTOR('',#209,2.013680271);
#211=LINE('',#208,#210);
#212=EDGE_CURVE('',#102,#161,#211,.T.);
#213=ORIENTED_EDGE('',*,*,#212,.T.);
#214=EDGE_LOOP('',(#167,#176,#184,#192,#200,#206,#207,#213));
#215=FACE_BOUND('',#214,.T.);
#216=ADVANCED_FACE('',(#157,#215),#146,.T.);
#217=CARTESIAN_POINT('',(-5.590075109,2.949997597,-0.4));
#218=DIRECTION('',(0.,-1.,0.));
#219=DIRECTION('',(0.,0.,-1.));
#220=AXIS2_PLACEMENT_3D('',#217,#218,#219);
#221=PLANE('',#220);
#222=CARTESIAN_POINT('',(3.156309279,2.949997597,-0.540943106));
#223=VERTEX_POINT('',#222);
#224=CARTESIAN_POINT('',(3.156309279,2.949997597,-0.8));
#225=VERTEX_POINT('',#224);
#226=CARTESIAN_POINT('',(3.156309279,2.949997597,-0.540943106));
#227=DIRECTION('',(0.,0.,-1.));
#228=VECTOR('',#227,0.259056894);
#229=LINE('',#226,#228);
#230=EDGE_CURVE('',#223,#225,#229,.T.);
#231=ORIENTED_EDGE('',*,*,#230,.F.);
#232=CARTESIAN_POINT('',(2.554445215,2.949997597,-0.540943106));
#233=VERTEX_POINT('',#232);
#234=CARTESIAN_POINT('',(2.554445215,2.949997597,-0.540943106));
#235=DIRECTION('',(1.,0.,0.));
#236=VECTOR('',#235,0.601864064);
#237=LINE('',#234,#236);
#238=EDGE_CURVE('',#233,#223,#237,.T.);
#239=ORIENTED_EDGE('',*,*,#238,.F.);
#240=CARTESIAN_POINT('',(2.554445215,2.949997597,-0.04));
#241=DIRECTION('',(-0.,-0.,-1.));
#242=VECTOR('',#241,0.500943106);
#243=LINE('',#240,#242);
#244=EDGE_CURVE('',#159,#233,#243,.T.);
#245=ORIENTED_EDGE('',*,*,#244,.F.);
#246=ORIENTED_EDGE('',*,*,#166,.T.);
#247=CARTESIAN_POINT('',(-8.997689619,2.949997597,-0.8));
#248=VERTEX_POINT('',#247);
#249=CARTESIAN_POINT('',(-8.997689619,2.949997597,-0.8));
#250=DIRECTION('',(-0.577350269,-0.,0.816496581));
#251=VECTOR('',#250,0.930806102);
#252=LINE('',#249,#251);
#253=EDGE_CURVE('',#248,#161,#252,.T.);
#254=ORIENTED_EDGE('',*,*,#253,.F.);
#255=CARTESIAN_POINT('',(-8.997689619,2.949997597,-0.8));
#256=DIRECTION('',(1.,0.,0.));
#257=VECTOR('',#256,12.153998898);
#258=LINE('',#255,#257);
#259=EDGE_CURVE('',#248,#225,#258,.T.);
#260=ORIENTED_EDGE('',*,*,#259,.T.);
#261=EDGE_LOOP('',(#231,#239,#245,#246,#254,#260));
#262=FACE_BOUND('',#261,.T.);
#263=ADVANCED_FACE('',(#262),#221,.T.);
#264=CARTESIAN_POINT('',(-3.547689619,7.849982352,-2.375));
#265=DIRECTION('',(0.,0.,-1.));
#266=DIRECTION('',(0.,-1.,0.));
#267=AXIS2_PLACEMENT_3D('',#264,#265,#266);
#268=PLANE('',#267);
#269=ORIENTED_EDGE('',*,*,#131,.F.);
#270=CARTESIAN_POINT('',(13.052310381,6.225,-2.375));
#271=VERTEX_POINT('',#270);
#272=CARTESIAN_POINT('',(-10.697689619,6.225,-2.375));
#273=DIRECTION('',(1.,-0.,0.));
#274=VECTOR('',#273,23.75);
#275=LINE('',#272,#274);
#276=EDGE_CURVE('',#118,#271,#275,.T.);
#277=ORIENTED_EDGE('',*,*,#276,.T.);
#278=CARTESIAN_POINT('',(13.052310381,5.649997597,-2.375));
#279=VERTEX_POINT('',#278);
#280=CARTESIAN_POINT('',(13.052310381,5.649997597,-2.375));
#281=DIRECTION('',(-0.,1.,-0.));
#282=VECTOR('',#281,0.575002403);
#283=LINE('',#280,#282);
#284=EDGE_CURVE('',#279,#271,#283,.T.);
#285=ORIENTED_EDGE('',*,*,#284,.F.);
#286=CARTESIAN_POINT('',(11.452310381,4.049997597,-2.375));
#287=VERTEX_POINT('',#286);
#288=CARTESIAN_POINT('',(13.052310381,5.649997597,-2.375));
#289=DIRECTION('',(-0.707106781,-0.707106781,-0.));
#290=VECTOR('',#289,2.2627417);
#291=LINE('',#288,#290);
#292=EDGE_CURVE('',#279,#287,#291,.T.);
#293=ORIENTED_EDGE('',*,*,#292,.T.);
#294=CARTESIAN_POINT('',(11.452310381,4.049997597,-2.375));
#295=DIRECTION('',(-1.,-0.,-0.));
#296=VECTOR('',#295,11.517089535);
#297=LINE('',#294,#296);
#298=EDGE_CURVE('',#287,#43,#297,.T.);
#299=ORIENTED_EDGE('',*,*,#298,.T.);
#300=ORIENTED_EDGE('',*,*,#49,.T.);
#301=ORIENTED_EDGE('',*,*,#81,.T.);
#302=CARTESIAN_POINT('',(-8.997689619,4.049997597,-2.375));
#303=VERTEX_POINT('',#302);
#304=CARTESIAN_POINT('',(-0.642212292,4.049997597,-2.375));
#305=DIRECTION('',(-1.,-0.,-0.));
#306=VECTOR('',#305,8.355477327);
#307=LINE('',#304,#306);
#308=EDGE_CURVE('',#69,#303,#307,.T.);
#309=ORIENTED_EDGE('',*,*,#308,.T.);
#310=CARTESIAN_POINT('',(-8.997689619,4.049997597,-2.375));
#311=DIRECTION('',(-0.707106781,0.707106781,-0.));
#312=VECTOR('',#311,2.404163056);
#313=LINE('',#310,#312);
#314=EDGE_CURVE('',#303,#126,#313,.T.);
#315=ORIENTED_EDGE('',*,*,#314,.T.);
#316=EDGE_LOOP('',(#269,#277,#285,#293,#299,#300,#301,#309,#315));
#317=FACE_BOUND('',#316,.T.);
#318=ADVANCED_FACE('',(#317),#268,.T.);
#319=CARTESIAN_POINT('',(13.052310381,7.849982352,-0.219638554));
#320=DIRECTION('',(1.,0.,0.));
#321=DIRECTION('',(-0.,-0.,1.));
#322=AXIS2_PLACEMENT_3D('',#319,#320,#321);
#323=PLANE('',#322);
#324=ORIENTED_EDGE('',*,*,#199,.F.);
#325=CARTESIAN_POINT('',(13.052310381,5.649997597,-1.2372583));
#326=VERTEX_POINT('',#325);
#327=CARTESIAN_POINT('',(13.052310381,4.452739297,-0.04));
#328=DIRECTION('',(-0.,0.707106781,-0.707106781));
#329=VECTOR('',#328,1.693178926);
#330=LINE('',#327,#329);
#331=EDGE_CURVE('',#186,#326,#330,.T.);
#332=ORIENTED_EDGE('',*,*,#331,.T.);
#333=CARTESIAN_POINT('',(13.052310381,5.649997597,-1.2372583));
#334=DIRECTION('',(0.,0.,-1.));
#335=VECTOR('',#334,1.1377417);
#336=LINE('',#333,#335);
#337=EDGE_CURVE('',#326,#279,#336,.T.);
#338=ORIENTED_EDGE('',*,*,#337,.T.);
#339=ORIENTED_EDGE('',*,*,#284,.T.);
#340=CARTESIAN_POINT('',(13.052310381,6.225,-0.04));
#341=DIRECTION('',(0.,0.,-1.));
#342=VECTOR('',#341,2.335);
#343=LINE('',#340,#342);
#344=EDGE_CURVE('',#194,#271,#343,.T.);
#345=ORIENTED_EDGE('',*,*,#344,.F.);
#346=EDGE_LOOP('',(#324,#332,#338,#339,#345));
#347=FACE_BOUND('',#346,.T.);
#348=ADVANCED_FACE('',(#347),#323,.T.);
#349=CARTESIAN_POINT('',(-0.022688438,4.049997597,-2.45));
#350=DIRECTION('',(0.,-1.,0.));
#351=DIRECTION('',(-0.,-0.,1.));
#352=AXIS2_PLACEMENT_3D('',#349,#350,#351);
#353=PLANE('',#352);
#354=ORIENTED_EDGE('',*,*,#308,.F.);
#355=ORIENTED_EDGE('',*,*,#74,.T.);
#356=CARTESIAN_POINT('',(-8.997689619,4.049997597,-1.9));
#357=VERTEX_POINT('',#356);
#358=CARTESIAN_POINT('',(-8.997689619,4.049997597,-1.9));
#359=DIRECTION('',(1.,0.,0.));
#360=VECTOR('',#359,8.355477327);
#361=LINE('',#358,#360);
#362=EDGE_CURVE('',#357,#60,#361,.T.);
#363=ORIENTED_EDGE('',*,*,#362,.F.);
#364=CARTESIAN_POINT('',(-8.997689619,4.049997597,-1.9));
#365=DIRECTION('',(0.,0.,-1.));
#366=VECTOR('',#365,0.475);
#367=LINE('',#364,#366);
#368=EDGE_CURVE('',#357,#303,#367,.T.);
#369=ORIENTED_EDGE('',*,*,#368,.T.);
#370=EDGE_LOOP('',(#354,#355,#363,#369));
#371=FACE_BOUND('',#370,.T.);
#372=ADVANCED_FACE('',(#371),#353,.T.);
#373=CARTESIAN_POINT('',(212.945342694,2.549997597,-0.4));
#374=DIRECTION('',(-0.,0.707106781,0.707106781));
#375=DIRECTION('',(1.,0.,0.));
#376=AXIS2_PLACEMENT_3D('',#373,#374,#375);
#377=PLANE('',#376);
#378=CARTESIAN_POINT('',(4.548250914,2.949997597,-0.8));
#379=VERTEX_POINT('',#378);
#380=CARTESIAN_POINT('',(11.452310381,2.949997597,-0.8));
#381=VERTEX_POINT('',#380);
#382=CARTESIAN_POINT('',(4.548250914,2.949997597,-0.8));
#383=DIRECTION('',(1.,0.,0.));
#384=VECTOR('',#383,6.904059467);
#385=LINE('',#382,#384);
#386=EDGE_CURVE('',#379,#381,#385,.T.);
#387=ORIENTED_EDGE('',*,*,#386,.F.);
#388=CARTESIAN_POINT('',(3.852280096,2.875000121,-0.725002524));
#389=DIRECTION('',(-0.,0.707106781,0.707106781));
#390=DIRECTION('',(-0.,0.707106781,-0.707106781));
#391=AXIS2_PLACEMENT_3D('',#388,#389,#390);
#392=ELLIPSE('',#391,0.989949494,0.7);
#393=EDGE_CURVE('',#379,#225,#392,.T.);
#394=ORIENTED_EDGE('',*,*,#393,.T.);
#395=ORIENTED_EDGE('',*,*,#259,.F.);
#396=CARTESIAN_POINT('',(-8.997689619,2.949997597,-0.8));
#397=DIRECTION('',(-0.,0.707106781,-0.707106781));
#398=VECTOR('',#397,1.555634919);
#399=LINE('',#396,#398);
#400=EDGE_CURVE('',#248,#357,#399,.T.);
#401=ORIENTED_EDGE('',*,*,#400,.T.);
#402=ORIENTED_EDGE('',*,*,#362,.T.);
#403=ORIENTED_EDGE('',*,*,#66,.F.);
#404=CARTESIAN_POINT('',(11.452310381,4.049997597,-1.9));
#405=VERTEX_POINT('',#404);
#406=CARTESIAN_POINT('',(-0.064779154,4.049997597,-1.9));
#407=DIRECTION('',(1.,0.,0.));
#408=VECTOR('',#407,11.517089535);
#409=LINE('',#406,#408);
#410=EDGE_CURVE('',#52,#405,#409,.T.);
#411=ORIENTED_EDGE('',*,*,#410,.T.);
#412=CARTESIAN_POINT('',(11.452310381,4.049997597,-1.9));
#413=DIRECTION('',(0.,-0.707106781,0.707106781));
#414=VECTOR('',#413,1.555634919);
#415=LINE('',#412,#414);
#416=EDGE_CURVE('',#405,#381,#415,.T.);
#417=ORIENTED_EDGE('',*,*,#416,.T.);
#418=EDGE_LOOP('',(#387,#394,#395,#401,#402,#403,#411,#417));
#419=FACE_BOUND('',#418,.T.);
#420=ADVANCED_FACE('',(#419),#377,.F.);
#421=CARTESIAN_POINT('',(-8.997689619,2.549997597,-0.4));
#422=DIRECTION('',(0.707106781,0.5,0.5));
#423=DIRECTION('',(0.,0.707106781,-0.707106781));
#424=AXIS2_PLACEMENT_3D('',#421,#422,#423);
#425=PLANE('',#424);
#426=ORIENTED_EDGE('',*,*,#400,.F.);
#427=ORIENTED_EDGE('',*,*,#253,.T.);
#428=ORIENTED_EDGE('',*,*,#212,.F.);
#429=ORIENTED_EDGE('',*,*,#107,.F.);
#430=CARTESIAN_POINT('',(-8.997689619,4.049997597,-1.9));
#431=DIRECTION('',(-0.678598345,0.678598345,0.281084638));
#432=VECTOR('',#431,2.505163789);
#433=LINE('',#430,#432);
#434=EDGE_CURVE('',#357,#100,#433,.T.);
#435=ORIENTED_EDGE('',*,*,#434,.F.);
#436=EDGE_LOOP('',(#426,#427,#428,#429,#435));
#437=FACE_BOUND('',#436,.T.);
#438=ADVANCED_FACE('',(#437),#425,.F.);
#439=CARTESIAN_POINT('',(13.052310381,6.241180101,-1.828440805));
#440=DIRECTION('',(0.707106781,-0.5,-0.5));
#441=DIRECTION('',(0.,-0.707106781,0.707106781));
#442=AXIS2_PLACEMENT_3D('',#439,#440,#441);
#443=PLANE('',#442);
#444=ORIENTED_EDGE('',*,*,#191,.F.);
#445=CARTESIAN_POINT('',(11.989711536,2.949997597,-0.04));
#446=DIRECTION('',(-0.577350269,-0.,-0.816496581));
#447=VECTOR('',#446,0.930806102);
#448=LINE('',#445,#447);
#449=EDGE_CURVE('',#178,#381,#448,.T.);
#450=ORIENTED_EDGE('',*,*,#449,.T.);
#451=ORIENTED_EDGE('',*,*,#416,.F.);
#452=CARTESIAN_POINT('',(11.452310381,4.049997597,-1.9));
#453=DIRECTION('',(0.678598345,0.678598344,0.281084638));
#454=VECTOR('',#453,2.357801213);
#455=LINE('',#452,#454);
#456=EDGE_CURVE('',#405,#326,#455,.T.);
#457=ORIENTED_EDGE('',*,*,#456,.T.);
#458=ORIENTED_EDGE('',*,*,#331,.F.);
#459=EDGE_LOOP('',(#444,#450,#451,#457,#458));
#460=FACE_BOUND('',#459,.T.);
#461=ADVANCED_FACE('',(#460),#443,.T.);
#462=CARTESIAN_POINT('',(-0.022688438,4.049997597,-2.45));
#463=DIRECTION('',(0.,-1.,0.));
#464=DIRECTION('',(-0.,-0.,1.));
#465=AXIS2_PLACEMENT_3D('',#462,#463,#464);
#466=PLANE('',#465);
#467=ORIENTED_EDGE('',*,*,#410,.F.);
#468=ORIENTED_EDGE('',*,*,#57,.T.);
#469=ORIENTED_EDGE('',*,*,#298,.F.);
#470=CARTESIAN_POINT('',(11.452310381,4.049997597,-2.375));
#471=DIRECTION('',(-0.,-0.,1.));
#472=VECTOR('',#471,0.475);
#473=LINE('',#470,#472);
#474=EDGE_CURVE('',#287,#405,#473,.T.);
#475=ORIENTED_EDGE('',*,*,#474,.T.);
#476=EDGE_LOOP('',(#467,#468,#469,#475));
#477=FACE_BOUND('',#476,.T.);
#478=ADVANCED_FACE('',(#477),#466,.T.);
#479=CARTESIAN_POINT('',(-8.997689619,4.049997597,-2.45));
#480=DIRECTION('',(-0.707106781,-0.707106781,-0.));
#481=DIRECTION('',(-0.,-0.,1.));
#482=AXIS2_PLACEMENT_3D('',#479,#480,#481);
#483=PLANE('',#482);
#484=ORIENTED_EDGE('',*,*,#434,.T.);
#485=ORIENTED_EDGE('',*,*,#137,.F.);
#486=ORIENTED_EDGE('',*,*,#314,.F.);
#487=ORIENTED_EDGE('',*,*,#368,.F.);
#488=EDGE_LOOP('',(#484,#485,#486,#487));
#489=FACE_BOUND('',#488,.T.);
#490=ADVANCED_FACE('',(#489),#483,.T.);
#491=CARTESIAN_POINT('',(11.452310381,4.049997597,-2.45));
#492=DIRECTION('',(-0.707106781,0.707106781,-0.));
#493=DIRECTION('',(-0.,-0.,1.));
#494=AXIS2_PLACEMENT_3D('',#491,#492,#493);
#495=PLANE('',#494);
#496=ORIENTED_EDGE('',*,*,#292,.F.);
#497=ORIENTED_EDGE('',*,*,#337,.F.);
#498=ORIENTED_EDGE('',*,*,#456,.F.);
#499=ORIENTED_EDGE('',*,*,#474,.F.);
#500=EDGE_LOOP('',(#496,#497,#498,#499));
#501=FACE_BOUND('',#500,.T.);
#502=ADVANCED_FACE('',(#501),#495,.F.);
#503=CARTESIAN_POINT('',(-5.590075109,2.949997597,-0.4));
#504=DIRECTION('',(0.,-1.,0.));
#505=DIRECTION('',(0.,0.,-1.));
#506=AXIS2_PLACEMENT_3D('',#503,#504,#505);
#507=PLANE('',#506);
#508=CARTESIAN_POINT('',(4.548250914,2.949997597,-0.540943106));
#509=VERTEX_POINT('',#508);
#510=CARTESIAN_POINT('',(5.150114977,2.949997597,-0.540943106));
#511=VERTEX_POINT('',#510);
#512=CARTESIAN_POINT('',(4.548250914,2.949997597,-0.540943106));
#513=DIRECTION('',(1.,0.,0.));
#514=VECTOR('',#513,0.601864064);
#515=LINE('',#512,#514);
#516=EDGE_CURVE('',#509,#511,#515,.T.);
#517=ORIENTED_EDGE('',*,*,#516,.F.);
#518=CARTESIAN_POINT('',(4.548250914,2.949997597,-0.8));
#519=DIRECTION('',(-0.,-0.,1.));
#520=VECTOR('',#519,0.259056894);
#521=LINE('',#518,#520);
#522=EDGE_CURVE('',#379,#509,#521,.T.);
#523=ORIENTED_EDGE('',*,*,#522,.F.);
#524=ORIENTED_EDGE('',*,*,#386,.T.);
#525=ORIENTED_EDGE('',*,*,#449,.F.);
#526=ORIENTED_EDGE('',*,*,#183,.T.);
#527=CARTESIAN_POINT('',(5.150114977,2.949997597,-0.540943106));
#528=DIRECTION('',(0.,0.,1.));
#529=VECTOR('',#528,0.500943106);
#530=LINE('',#527,#529);
#531=EDGE_CURVE('',#511,#169,#530,.T.);
#532=ORIENTED_EDGE('',*,*,#531,.F.);
#533=EDGE_LOOP('',(#517,#523,#524,#525,#526,#532));
#534=FACE_BOUND('',#533,.T.);
#535=ADVANCED_FACE('',(#534),#507,.T.);
#536=CARTESIAN_POINT('',(-4.964009723,6.225,-0.875));
#537=DIRECTION('',(0.,1.,0.));
#538=DIRECTION('',(-1.,0.,0.));
#539=AXIS2_PLACEMENT_3D('',#536,#537,#538);
#540=PLANE('',#539);
#541=ORIENTED_EDGE('',*,*,#205,.F.);
#542=ORIENTED_EDGE('',*,*,#344,.T.);
#543=ORIENTED_EDGE('',*,*,#276,.F.);
#544=ORIENTED_EDGE('',*,*,#123,.F.);
#545=EDGE_LOOP('',(#541,#542,#543,#544));
#546=FACE_BOUND('',#545,.T.);
#547=ADVANCED_FACE('',(#546),#540,.T.);
#548=CARTESIAN_POINT('',(3.852280096,2.875000121,-0.045351662));
#549=DIRECTION('',(0.,0.,-1.));
#550=DIRECTION('',(-1.,-0.,-0.));
#551=AXIS2_PLACEMENT_3D('',#548,#549,#550);
#552=CYLINDRICAL_SURFACE('',#551,0.7);
#553=CARTESIAN_POINT('',(3.852280096,2.875000121,-0.540943106));
#554=DIRECTION('',(0.,0.,-1.));
#555=DIRECTION('',(-1.,0.,0.));
#556=AXIS2_PLACEMENT_3D('',#553,#554,#555);
#557=CIRCLE('',#556,0.7);
#558=EDGE_CURVE('',#223,#509,#557,.T.);
#559=ORIENTED_EDGE('',*,*,#558,.F.);
#560=ORIENTED_EDGE('',*,*,#230,.T.);
#561=ORIENTED_EDGE('',*,*,#393,.F.);
#562=ORIENTED_EDGE('',*,*,#522,.T.);
#563=EDGE_LOOP('',(#559,#560,#561,#562));
#564=FACE_BOUND('',#563,.T.);
#565=ADVANCED_FACE('',(#564),#552,.F.);
#566=CARTESIAN_POINT('',(3.852280096,1.875000121,-0.540943106));
#567=DIRECTION('',(0.,0.,-1.));
#568=DIRECTION('',(-1.,0.,0.));
#569=AXIS2_PLACEMENT_3D('',#566,#567,#568);
#570=PLANE('',#569);
#571=ORIENTED_EDGE('',*,*,#238,.T.);
#572=ORIENTED_EDGE('',*,*,#558,.T.);
#573=ORIENTED_EDGE('',*,*,#516,.T.);
#574=CARTESIAN_POINT('',(3.852280096,2.875000121,-0.540943106));
#575=DIRECTION('',(0.,0.,1.));
#576=DIRECTION('',(0.,-1.,0.));
#577=AXIS2_PLACEMENT_3D('',#574,#575,#576);
#578=CIRCLE('',#577,1.3);
#579=EDGE_CURVE('',#511,#233,#578,.T.);
#580=ORIENTED_EDGE('',*,*,#579,.T.);
#581=EDGE_LOOP('',(#571,#572,#573,#580));
#582=FACE_BOUND('',#581,.T.);
#583=ADVANCED_FACE('',(#582),#570,.F.);
#584=CARTESIAN_POINT('',(3.852280096,2.875000121,-3.140943106));
#585=DIRECTION('',(0.,0.,1.));
#586=DIRECTION('',(1.,0.,-0.));
#587=AXIS2_PLACEMENT_3D('',#584,#585,#586);
#588=CYLINDRICAL_SURFACE('',#587,1.3);
#589=ORIENTED_EDGE('',*,*,#244,.T.);
#590=ORIENTED_EDGE('',*,*,#579,.F.);
#591=ORIENTED_EDGE('',*,*,#531,.T.);
#592=ORIENTED_EDGE('',*,*,#175,.T.);
#593=EDGE_LOOP('',(#589,#590,#591,#592));
#594=FACE_BOUND('',#593,.T.);
#595=ADVANCED_FACE('',(#594),#588,.F.);
#596=CARTESIAN_POINT('',(-0.353495723,4.602157482,-4.1));
#597=DIRECTION('',(0.,0.,1.));
#598=DIRECTION('',(1.,0.,-0.));
#599=AXIS2_PLACEMENT_3D('',#596,#597,#598);
#600=CYLINDRICAL_SURFACE('',#599,1.3);
#601=CARTESIAN_POINT('',(0.946504277,4.602157482,1.2));
#602=VERTEX_POINT('',#601);
#603=CARTESIAN_POINT('',(0.946504277,4.602157482,1.2));
#604=DIRECTION('',(-0.,-0.,-1.));
#605=VECTOR('',#604,1.24);
#606=LINE('',#603,#605);
#607=EDGE_CURVE('',#602,#148,#606,.T.);
#608=ORIENTED_EDGE('',*,*,#607,.T.);
#609=ORIENTED_EDGE('',*,*,#154,.F.);
#610=ORIENTED_EDGE('',*,*,#607,.F.);
#611=CARTESIAN_POINT('',(-1.653495723,4.602157482,1.2));
#612=VERTEX_POINT('',#611);
#613=CARTESIAN_POINT('',(-0.353495723,4.602157482,1.2));
#614=DIRECTION('',(0.,0.,-1.));
#615=DIRECTION('',(-1.,0.,0.));
#616=AXIS2_PLACEMENT_3D('',#613,#614,#615);
#617=CIRCLE('',#616,1.3);
#618=EDGE_CURVE('',#602,#612,#617,.T.);
#619=ORIENTED_EDGE('',*,*,#618,.T.);
#620=CARTESIAN_POINT('',(-0.353495723,4.602157482,1.2));
#621=DIRECTION('',(0.,0.,-1.));
#622=DIRECTION('',(-1.,0.,0.));
#623=AXIS2_PLACEMENT_3D('',#620,#621,#622);
#624=CIRCLE('',#623,1.3);
#625=EDGE_CURVE('',#612,#602,#624,.T.);
#626=ORIENTED_EDGE('',*,*,#625,.T.);
#627=EDGE_LOOP('',(#608,#609,#610,#619,#626));
#628=FACE_BOUND('',#627,.T.);
#629=ADVANCED_FACE('',(#628),#600,.T.);
#630=CARTESIAN_POINT('',(0.,0.,1.2));
#631=DIRECTION('',(0.,0.,-1.));
#632=DIRECTION('',(-1.,0.,0.));
#633=AXIS2_PLACEMENT_3D('',#630,#631,#632);
#634=PLANE('',#633);
#635=ORIENTED_EDGE('',*,*,#89,.F.);
#636=EDGE_LOOP('',(#635));
#637=FACE_BOUND('',#636,.T.);
#638=ORIENTED_EDGE('',*,*,#618,.F.);
#639=ORIENTED_EDGE('',*,*,#625,.F.);
#640=EDGE_LOOP('',(#638,#639));
#641=FACE_BOUND('',#640,.T.);
#642=ADVANCED_FACE('',(#637,#641),#634,.F.);
#643=CLOSED_SHELL('',(#93,#141,#216,#263,#318,#348,#372,#420,#438,#461,#478,#490,#502,#535,#547,#565,#583,#595,#629,#642));
#644=MANIFOLD_SOLID_BREP('\X2\94A2\X0\17\X2\8F6C63A5677F\X0\-\X2\5DE6FF0865E05B9E4F5387BA7EB9FF09\X0\',#643);
#645=DRAUGHTING_PRE_DEFINED_COLOUR('black');
#646=FILL_AREA_STYLE_COLOUR('',#645);
#647=FILL_AREA_STYLE('',(#646));
#648=SURFACE_STYLE_FILL_AREA(#647);
#649=SURFACE_SIDE_STYLE('',(#648));
#650=SURFACE_STYLE_USAGE(.BOTH.,#649);
#651=PRESENTATION_STYLE_ASSIGNMENT((#650));
#26=STYLED_ITEM('',(#651),#644);
#16=SHAPE_REPRESENTATION('\X2\94A2\X0\17\X2\8F6C63A5677F\X0\-\X2\5DE6FF0865E05B9E4F5387BA7EB9FF09\X0\',(#15),#10);
#17=ADVANCED_BREP_SHAPE_REPRESENTATION('\X2\94A2\X0\17\X2\8F6C63A5677F\X0\-\X2\5DE6FF0865E05B9E4F5387BA7EB9FF09\X0\',(#644),#10);
#659=SHAPE_REPRESENTATION_RELATIONSHIP('','',#16,#17);
#660=CARTESIAN_POINT('',(0.,0.,0.));
#661=DIRECTION('',(0.,0.,1.));
#662=DIRECTION('',(1.,0.,0.));
#663=AXIS2_PLACEMENT_3D('',#660,#661,#662);
#665=MAPPED_ITEM('',#664,#663);
#664=REPRESENTATION_MAP(#663,#16);
#666=APPLICATION_CONTEXT('Managed model based 3d engineering');
#667=APPLICATION_PROTOCOL_DEFINITION('international standard','ap242_managed_model_based_3d_engineering',2014,#666);
#668=PRODUCT_CONTEXT('',#666,'mechanical');
#669=PRODUCT_DEFINITION_CONTEXT('part definition',#666,'design');
#24=PRODUCT('\X2\94A2\X0\17\X2\8F6C63A5677F\X0\-\X2\5DE6FF0865E05B9E4F5387BA7EB9FF09\X0\','\X2\94A2\X0\17\X2\8F6C63A5677F\X0\-\X2\5DE6FF0865E05B9E4F5387BA7EB9FF09\X0\','',(#668));
#670=PRODUCT_RELATED_PRODUCT_CATEGORY('part','',(#24));
#671=PRODUCT_DEFINITION_FORMATION_WITH_SPECIFIED_SOURCE('','',#24,.NOT_KNOWN.);
#25=PRODUCT_DEFINITION('design','',#671,#669);
#23=PRODUCT_DEFINITION_SHAPE('','',#25);
#672=SHAPE_DEFINITION_REPRESENTATION(#23,#16);
#11=DRAUGHTING_MODEL('',(#665),#10);
#673=DESCRIPTIVE_REPRESENTATION_ITEM('KEY','C:\\Users\\Nalani\\AppData\\Local\\Packages\\Shapr3D.Shapr3D_j403pzjkqtqbj\\TempState\\bcb2a190-4332-403c-8b1b-f3e94904557c.tmp');
#674=PROPERTY_DEFINITION('KEY','',#25);
#675=REPRESENTATION('',(#673),#10);
#676=PROPERTY_DEFINITION_REPRESENTATION(#674,#675);
#677=GENERAL_PROPERTY('','KEY','');
#678=GENERAL_PROPERTY_ASSOCIATION('','',#677,#674);
#1=MECHANICAL_DESIGN_GEOMETRIC_PRESENTATION_REPRESENTATION('',(#26),#10);
ENDSEC;
END-ISO-10303-21;
