ISO-10303-21;
HEADER;

/* File generated by Shapr3D Version 26.123.11423.0 */

FILE_DESCRIPTION(('HOOPS Exchange Step'),'2;1');

FILE_NAME('C:\\Users\\Nalani\\AppData\\Local\\Packages\\Shapr3D.Shapr3D_j403pzjkqtqbj\\TempState\\export\\temp_export',
'2026-08-03T16:12:05+08:00',
('Nalani'),
('Shapr3D Limited'),
'HOOPS Exchange 2026.3',
'Shapr3D',
'Authorized');

FILE_SCHEMA( ('AP242_MANAGED_MODEL_BASED_3D_ENGINEERING_MIM_LF {1 0 10303 442 1 1 4}') );

ENDSEC;

DATA;
#3=(NAMED_UNIT(*)PLANE_ANGLE_UNIT()SI_UNIT($,.RADIAN.));
#4=PLANE_ANGLE_MEASURE_WITH_UNIT(PLANE_ANGLE_MEASURE(0.0174532925),#3);
#5=(CONVERSION_BASED_UNIT('DEGREE',#4)NAMED_UNIT(#6)PLANE_ANGLE_UNIT());
#6=DIMENSIONAL_EXPONENTS(0.,0.,0.,0.,0.,0.,0.);
#7=(NAMED_UNIT(*)SI_UNIT($,.STERADIAN.)SOLID_ANGLE_UNIT());
#8=(LENGTH_UNIT()NAMED_UNIT(*)SI_UNIT(.MILLI.,.METRE.));
#9=UNCERTAINTY_MEASURE_WITH_UNIT(LENGTH_MEASURE(1.000000E-05),#8,'DISTANCE_ACCURACY_VALUE','Maximum Tolerance applied to model');
#10=(GEOMETRIC_REPRESENTATION_CONTEXT(3)GLOBAL_UNCERTAINTY_ASSIGNED_CONTEXT((#9))GLOBAL_UNIT_ASSIGNED_CONTEXT((#8,#5,#7))REPRESENTATION_CONTEXT('','\X2\96FB6C604F544F4D\X0\'));
#12=CARTESIAN_POINT('',(0.,0.,0.));
#13=DIRECTION('',(0.,0.,1.));
#14=DIRECTION('',(1.,0.,0.));
#15=AXIS2_PLACEMENT_3D('',#12,#13,#14);
#27=CARTESIAN_POINT('',(4.031766425,-2.872934928,1.66));
#28=DIRECTION('',(-0.,0.,-1.));
#29=DIRECTION('',(-1.,0.,0.));
#30=AXIS2_PLACEMENT_3D('',#27,#28,#29);
#31=CYLINDRICAL_SURFACE('',#30,2.9);
#32=CARTESIAN_POINT('',(1.131766425,-2.872934928,0.01));
#33=VERTEX_POINT('',#32);
#34=CARTESIAN_POINT('',(1.131766425,-2.872934928,1.16));
#35=VERTEX_POINT('',#34);
#36=CARTESIAN_POINT('',(1.131766425,-2.872934928,0.01));
#37=DIRECTION('',(0.,-0.,1.));
#38=VECTOR('',#37,1.15);
#39=LINE('',#36,#38);
#40=EDGE_CURVE('',#33,#35,#39,.T.);
#41=ORIENTED_EDGE('',*,*,#40,.T.);
#42=CARTESIAN_POINT('',(6.931766425,-2.872934928,1.16));
#43=VERTEX_POINT('',#42);
#44=CARTESIAN_POINT('',(4.031766425,-2.872934928,1.16));
#45=DIRECTION('',(-0.,0.,-1.));
#46=DIRECTION('',(1.,0.,-0.));
#47=AXIS2_PLACEMENT_3D('',#44,#45,#46);
#48=CIRCLE('',#47,2.9);
#49=EDGE_CURVE('',#35,#43,#48,.T.);
#50=ORIENTED_EDGE('',*,*,#49,.T.);
#51=CARTESIAN_POINT('',(4.031766425,-2.872934928,1.16));
#52=DIRECTION('',(-0.,0.,-1.));
#53=DIRECTION('',(1.,0.,-0.));
#54=AXIS2_PLACEMENT_3D('',#51,#52,#53);
#55=CIRCLE('',#54,2.9);
#56=EDGE_CURVE('',#43,#35,#55,.T.);
#57=ORIENTED_EDGE('',*,*,#56,.T.);
#58=ORIENTED_EDGE('',*,*,#40,.F.);
#59=CARTESIAN_POINT('',(4.031766425,-2.872934928,0.01));
#60=DIRECTION('',(0.,0.,1.));
#61=DIRECTION('',(-1.,0.,0.));
#62=AXIS2_PLACEMENT_3D('',#59,#60,#61);
#63=CIRCLE('',#62,2.9);
#64=EDGE_CURVE('',#33,#33,#63,.T.);
#65=ORIENTED_EDGE('',*,*,#64,.T.);
#66=EDGE_LOOP('',(#41,#50,#57,#58,#65));
#67=FACE_BOUND('',#66,.T.);
#68=ADVANCED_FACE('',(#67),#31,.T.);
#69=CARTESIAN_POINT('',(-125.968233575,319.127065072,1.66));
#70=DIRECTION('',(0.,0.,1.));
#71=DIRECTION('',(1.,0.,-0.));
#72=AXIS2_PLACEMENT_3D('',#69,#70,#71);
#73=PLANE('',#72);
#74=CARTESIAN_POINT('',(1.631766425,-2.872934928,1.66));
#75=VERTEX_POINT('',#74);
#76=CARTESIAN_POINT('',(6.431766425,-2.872934928,1.66));
#77=VERTEX_POINT('',#76);
#78=CARTESIAN_POINT('',(4.031766425,-2.872934928,1.66));
#79=DIRECTION('',(0.,0.,1.));
#80=DIRECTION('',(-1.,0.,0.));
#81=AXIS2_PLACEMENT_3D('',#78,#79,#80);
#82=CIRCLE('',#81,2.4);
#83=EDGE_CURVE('',#75,#77,#82,.T.);
#84=ORIENTED_EDGE('',*,*,#83,.T.);
#85=CARTESIAN_POINT('',(4.031766425,-2.872934928,1.66));
#86=DIRECTION('',(0.,0.,1.));
#87=DIRECTION('',(-1.,0.,0.));
#88=AXIS2_PLACEMENT_3D('',#85,#86,#87);
#89=CIRCLE('',#88,2.4);
#90=EDGE_CURVE('',#77,#75,#89,.T.);
#91=ORIENTED_EDGE('',*,*,#90,.T.);
#92=EDGE_LOOP('',(#84,#91));
#93=FACE_BOUND('',#92,.T.);
#94=ADVANCED_FACE('',(#93),#73,.T.);
#95=CARTESIAN_POINT('',(-125.968233575,319.127065072,0.01));
#96=DIRECTION('',(0.,0.,1.));
#97=DIRECTION('',(1.,0.,-0.));
#98=AXIS2_PLACEMENT_3D('',#95,#96,#97);
#99=PLANE('',#98);
#100=ORIENTED_EDGE('',*,*,#64,.F.);
#101=EDGE_LOOP('',(#100));
#102=FACE_BOUND('',#101,.T.);
#103=ADVANCED_FACE('',(#102),#99,.F.);
#104=CARTESIAN_POINT('',(4.031766425,-2.872934928,1.16));
#105=DIRECTION('',(0.,0.,1.));
#106=DIRECTION('',(1.,0.,-0.));
#107=AXIS2_PLACEMENT_3D('',#104,#105,#106);
#108=TOROIDAL_SURFACE('',#107,2.4,0.5);
#109=CARTESIAN_POINT('',(6.431766425,-2.872934928,1.16));
#110=DIRECTION('',(-0.,1.,-0.));
#111=DIRECTION('',(1.,0.,-0.));
#112=AXIS2_PLACEMENT_3D('',#109,#110,#111);
#113=CIRCLE('',#112,0.5);
#114=EDGE_CURVE('',#77,#43,#113,.T.);
#115=ORIENTED_EDGE('',*,*,#114,.T.);
#116=ORIENTED_EDGE('',*,*,#49,.F.);
#117=ORIENTED_EDGE('',*,*,#56,.F.);
#118=ORIENTED_EDGE('',*,*,#114,.F.);
#119=ORIENTED_EDGE('',*,*,#83,.F.);
#120=ORIENTED_EDGE('',*,*,#90,.F.);
#121=EDGE_LOOP('',(#115,#116,#117,#118,#119,#120));
#122=FACE_BOUND('',#121,.T.);
#123=ADVANCED_FACE('',(#122),#108,.T.);
#124=CLOSED_SHELL('',(#68,#94,#103,#123));
#125=MANIFOLD_SOLID_BREP('\X2\96FB6C604F544F4D\X0\',#124);
#126=COLOUR_RGB('',0.678431392,0.678431392,0.678431392);
#127=FILL_AREA_STYLE_COLOUR('',#126);
#128=FILL_AREA_STYLE('',(#127));
#129=SURFACE_STYLE_FILL_AREA(#128);
#130=SURFACE_SIDE_STYLE('',(#129));
#131=SURFACE_STYLE_USAGE(.BOTH.,#130);
#132=PRESENTATION_STYLE_ASSIGNMENT((#131));
#26=STYLED_ITEM('',(#132),#125);
#16=SHAPE_REPRESENTATION('\X2\96FB6C604F544F4D\X0\',(#15),#10);
#17=ADVANCED_BREP_SHAPE_REPRESENTATION('\X2\96FB6C604F544F4D\X0\',(#125),#10);
#140=SHAPE_REPRESENTATION_RELATIONSHIP('','',#16,#17);
#141=CARTESIAN_POINT('',(0.,0.,0.));
#142=DIRECTION('',(0.,0.,1.));
#143=DIRECTION('',(1.,0.,0.));
#144=AXIS2_PLACEMENT_3D('',#141,#142,#143);
#146=MAPPED_ITEM('',#145,#144);
#145=REPRESENTATION_MAP(#144,#16);
#147=APPLICATION_CONTEXT('Managed model based 3d engineering');
#148=APPLICATION_PROTOCOL_DEFINITION('international standard','ap242_managed_model_based_3d_engineering',2014,#147);
#149=PRODUCT_CONTEXT('',#147,'mechanical');
#150=PRODUCT_DEFINITION_CONTEXT('part definition',#147,'design');
#24=PRODUCT('\X2\96FB6C604F544F4D\X0\','\X2\96FB6C604F544F4D\X0\','',(#149));
#151=PRODUCT_RELATED_PRODUCT_CATEGORY('part','',(#24));
#152=PRODUCT_DEFINITION_FORMATION_WITH_SPECIFIED_SOURCE('','',#24,.NOT_KNOWN.);
#25=PRODUCT_DEFINITION('design','',#152,#150);
#23=PRODUCT_DEFINITION_SHAPE('','',#25);
#153=SHAPE_DEFINITION_REPRESENTATION(#23,#16);
#11=DRAUGHTING_MODEL('',(#146),#10);
#154=DESCRIPTIVE_REPRESENTATION_ITEM('KEY','C:\\Users\\Nalani\\AppData\\Local\\Packages\\Shapr3D.Shapr3D_j403pzjkqtqbj\\TempState\\8d54c5bc-7a06-43bb-8c05-87ec639a25a5.tmp');
#155=PROPERTY_DEFINITION('KEY','',#25);
#156=REPRESENTATION('',(#154),#10);
#157=PROPERTY_DEFINITION_REPRESENTATION(#155,#156);
#158=GENERAL_PROPERTY('','KEY','');
#159=GENERAL_PROPERTY_ASSOCIATION('','',#158,#155);
#1=MECHANICAL_DESIGN_GEOMETRIC_PRESENTATION_REPRESENTATION('',(#26),#10);
ENDSEC;
END-ISO-10303-21;
