ISO-10303-21;
HEADER;

/* File generated by Shapr3D Version 26.123.11423.0 */

FILE_DESCRIPTION(('HOOPS Exchange Step'),'2;1');

FILE_NAME('C:\\Users\\Nalani\\AppData\\Local\\Packages\\Shapr3D.Shapr3D_j403pzjkqtqbj\\TempState\\export\\temp_export',
'2026-08-03T16:12:13+08:00',
('Nalani'),
('Shapr3D Limited'),
'HOOPS Exchange 2026.3',
'Shapr3D',
'Authorized');

FILE_SCHEMA( ('AP242_MANAGED_MODEL_BASED_3D_ENGINEERING_MIM_LF {1 0 10303 442 1 1 4}') );

ENDSEC;

DATA;
#3=(NAMED_UNIT(*)PLANE_ANGLE_UNIT()SI_UNIT($,.RADIAN.));
#4=PLANE_ANGLE_MEASURE_WITH_UNIT(PLANE_ANGLE_MEASURE(0.0174532925),#3);
#5=(CONVERSION_BASED_UNIT('DEGREE',#4)NAMED_UNIT(#6)PLANE_ANGLE_UNIT());
#6=DIMENSIONAL_EXPONENTS(0.,0.,0.,0.,0.,0.,0.);
#7=(NAMED_UNIT(*)SI_UNIT($,.STERADIAN.)SOLID_ANGLE_UNIT());
#8=(LENGTH_UNIT()NAMED_UNIT(*)SI_UNIT(.MILLI.,.METRE.));
#9=UNCERTAINTY_MEASURE_WITH_UNIT(LENGTH_MEASURE(1.000000E-05),#8,'DISTANCE_ACCURACY_VALUE','Maximum Tolerance applied to model');
#10=(GEOMETRIC_REPRESENTATION_CONTEXT(3)GLOBAL_UNCERTAINTY_ASSIGNED_CONTEXT((#9))GLOBAL_UNIT_ASSIGNED_CONTEXT((#8,#5,#7))REPRESENTATION_CONTEXT('','\X2\96FB6C604F544F4D\X0\'));
#12=CARTESIAN_POINT('',(0.,0.,0.));
#13=DIRECTION('',(0.,0.,1.));
#14=DIRECTION('',(1.,0.,0.));
#15=AXIS2_PLACEMENT_3D('',#12,#13,#14);
#27=CARTESIAN_POINT('',(8.09648402,2.92203228,0.01));
#28=DIRECTION('',(0.,-0.,1.));
#29=DIRECTION('',(-1.,-0.,0.));
#30=AXIS2_PLACEMENT_3D('',#27,#28,#29);
#31=CYLINDRICAL_SURFACE('',#30,2.9);
#32=CARTESIAN_POINT('',(5.19648402,2.92203228,1.66));
#33=VERTEX_POINT('',#32);
#34=CARTESIAN_POINT('',(5.19648402,2.92203228,0.51));
#35=VERTEX_POINT('',#34);
#36=CARTESIAN_POINT('',(5.19648402,2.92203228,1.66));
#37=DIRECTION('',(-0.,0.,-1.));
#38=VECTOR('',#37,1.15);
#39=LINE('',#36,#38);
#40=EDGE_CURVE('',#33,#35,#39,.T.);
#41=ORIENTED_EDGE('',*,*,#40,.T.);
#42=CARTESIAN_POINT('',(10.99648402,2.92203228,0.51));
#43=VERTEX_POINT('',#42);
#44=CARTESIAN_POINT('',(8.09648402,2.92203228,0.51));
#45=DIRECTION('',(0.,-0.,1.));
#46=DIRECTION('',(1.,0.,-0.));
#47=AXIS2_PLACEMENT_3D('',#44,#45,#46);
#48=CIRCLE('',#47,2.9);
#49=EDGE_CURVE('',#35,#43,#48,.T.);
#50=ORIENTED_EDGE('',*,*,#49,.T.);
#51=CARTESIAN_POINT('',(8.09648402,2.92203228,0.51));
#52=DIRECTION('',(0.,-0.,1.));
#53=DIRECTION('',(1.,0.,-0.));
#54=AXIS2_PLACEMENT_3D('',#51,#52,#53);
#55=CIRCLE('',#54,2.9);
#56=EDGE_CURVE('',#43,#35,#55,.T.);
#57=ORIENTED_EDGE('',*,*,#56,.T.);
#58=ORIENTED_EDGE('',*,*,#40,.F.);
#59=CARTESIAN_POINT('',(8.09648402,0.02203228,1.66));
#60=VERTEX_POINT('',#59);
#61=CARTESIAN_POINT('',(8.09648402,2.92203228,1.66));
#62=DIRECTION('',(-0.,0.,-1.));
#63=DIRECTION('',(0.,-1.,-0.));
#64=AXIS2_PLACEMENT_3D('',#61,#62,#63);
#65=CIRCLE('',#64,2.9);
#66=EDGE_CURVE('',#33,#60,#65,.T.);
#67=ORIENTED_EDGE('',*,*,#66,.T.);
#68=CARTESIAN_POINT('',(8.09648402,2.92203228,1.66));
#69=DIRECTION('',(-0.,0.,-1.));
#70=DIRECTION('',(0.,-1.,-0.));
#71=AXIS2_PLACEMENT_3D('',#68,#69,#70);
#72=CIRCLE('',#71,2.9);
#73=EDGE_CURVE('',#60,#33,#72,.T.);
#74=ORIENTED_EDGE('',*,*,#73,.T.);
#75=EDGE_LOOP('',(#41,#50,#57,#58,#67,#74));
#76=FACE_BOUND('',#75,.T.);
#77=ADVANCED_FACE('',(#76),#31,.T.);
#78=CARTESIAN_POINT('',(-121.90351598,-319.07796772,0.01));
#79=DIRECTION('',(-0.,0.,-1.));
#80=DIRECTION('',(1.,0.,-0.));
#81=AXIS2_PLACEMENT_3D('',#78,#79,#80);
#82=PLANE('',#81);
#83=CARTESIAN_POINT('',(5.69648402,2.92203228,0.01));
#84=VERTEX_POINT('',#83);
#85=CARTESIAN_POINT('',(10.49648402,2.92203228,0.01));
#86=VERTEX_POINT('',#85);
#87=CARTESIAN_POINT('',(8.09648402,2.92203228,0.01));
#88=DIRECTION('',(-0.,0.,-1.));
#89=DIRECTION('',(-1.,-0.,0.));
#90=AXIS2_PLACEMENT_3D('',#87,#88,#89);
#91=CIRCLE('',#90,2.4);
#92=EDGE_CURVE('',#84,#86,#91,.T.);
#93=ORIENTED_EDGE('',*,*,#92,.T.);
#94=CARTESIAN_POINT('',(8.09648402,2.92203228,0.01));
#95=DIRECTION('',(-0.,0.,-1.));
#96=DIRECTION('',(-1.,-0.,0.));
#97=AXIS2_PLACEMENT_3D('',#94,#95,#96);
#98=CIRCLE('',#97,2.4);
#99=EDGE_CURVE('',#86,#84,#98,.T.);
#100=ORIENTED_EDGE('',*,*,#99,.T.);
#101=EDGE_LOOP('',(#93,#100));
#102=FACE_BOUND('',#101,.T.);
#103=ADVANCED_FACE('',(#102),#82,.T.);
#104=CARTESIAN_POINT('',(-121.90351598,-319.07796772,1.66));
#105=DIRECTION('',(-0.,0.,-1.));
#106=DIRECTION('',(1.,0.,-0.));
#107=AXIS2_PLACEMENT_3D('',#104,#105,#106);
#108=PLANE('',#107);
#109=ORIENTED_EDGE('',*,*,#66,.F.);
#110=ORIENTED_EDGE('',*,*,#73,.F.);
#111=EDGE_LOOP('',(#109,#110));
#112=FACE_BOUND('',#111,.T.);
#113=ADVANCED_FACE('',(#112),#108,.F.);
#114=CARTESIAN_POINT('',(8.09648402,2.92203228,0.51));
#115=DIRECTION('',(-0.,0.,-1.));
#116=DIRECTION('',(1.,0.,-0.));
#117=AXIS2_PLACEMENT_3D('',#114,#115,#116);
#118=TOROIDAL_SURFACE('',#117,2.4,0.5);
#119=CARTESIAN_POINT('',(10.49648402,2.92203228,0.51));
#120=DIRECTION('',(-0.,-1.,-0.));
#121=DIRECTION('',(1.,0.,-0.));
#122=AXIS2_PLACEMENT_3D('',#119,#120,#121);
#123=CIRCLE('',#122,0.5);
#124=EDGE_CURVE('',#86,#43,#123,.T.);
#125=ORIENTED_EDGE('',*,*,#124,.T.);
#126=ORIENTED_EDGE('',*,*,#49,.F.);
#127=ORIENTED_EDGE('',*,*,#56,.F.);
#128=ORIENTED_EDGE('',*,*,#124,.F.);
#129=ORIENTED_EDGE('',*,*,#92,.F.);
#130=ORIENTED_EDGE('',*,*,#99,.F.);
#131=EDGE_LOOP('',(#125,#126,#127,#128,#129,#130));
#132=FACE_BOUND('',#131,.T.);
#133=ADVANCED_FACE('',(#132),#118,.T.);
#134=CLOSED_SHELL('',(#77,#103,#113,#133));
#135=MANIFOLD_SOLID_BREP('\X2\96FB6C604F544F4D\X0\',#134);
#136=COLOUR_RGB('',0.678431392,0.678431392,0.678431392);
#137=FILL_AREA_STYLE_COLOUR('',#136);
#138=FILL_AREA_STYLE('',(#137));
#139=SURFACE_STYLE_FILL_AREA(#138);
#140=SURFACE_SIDE_STYLE('',(#139));
#141=SURFACE_STYLE_USAGE(.BOTH.,#140);
#142=PRESENTATION_STYLE_ASSIGNMENT((#141));
#26=STYLED_ITEM('',(#142),#135);
#16=SHAPE_REPRESENTATION('\X2\96FB6C604F544F4D\X0\',(#15),#10);
#17=ADVANCED_BREP_SHAPE_REPRESENTATION('\X2\96FB6C604F544F4D\X0\',(#135),#10);
#150=SHAPE_REPRESENTATION_RELATIONSHIP('','',#16,#17);
#151=CARTESIAN_POINT('',(0.,0.,0.));
#152=DIRECTION('',(0.,0.,1.));
#153=DIRECTION('',(1.,0.,0.));
#154=AXIS2_PLACEMENT_3D('',#151,#152,#153);
#156=MAPPED_ITEM('',#155,#154);
#155=REPRESENTATION_MAP(#154,#16);
#157=APPLICATION_CONTEXT('Managed model based 3d engineering');
#158=APPLICATION_PROTOCOL_DEFINITION('international standard','ap242_managed_model_based_3d_engineering',2014,#157);
#159=PRODUCT_CONTEXT('',#157,'mechanical');
#160=PRODUCT_DEFINITION_CONTEXT('part definition',#157,'design');
#24=PRODUCT('\X2\96FB6C604F544F4D\X0\','\X2\96FB6C604F544F4D\X0\','',(#159));
#161=PRODUCT_RELATED_PRODUCT_CATEGORY('part','',(#24));
#162=PRODUCT_DEFINITION_FORMATION_WITH_SPECIFIED_SOURCE('','',#24,.NOT_KNOWN.);
#25=PRODUCT_DEFINITION('design','',#162,#160);
#23=PRODUCT_DEFINITION_SHAPE('','',#25);
#163=SHAPE_DEFINITION_REPRESENTATION(#23,#16);
#11=DRAUGHTING_MODEL('',(#156),#10);
#164=DESCRIPTIVE_REPRESENTATION_ITEM('KEY','C:\\Users\\Nalani\\AppData\\Local\\Packages\\Shapr3D.Shapr3D_j403pzjkqtqbj\\TempState\\783ca697-99ed-486d-a48f-75596776e154.tmp');
#165=PROPERTY_DEFINITION('KEY','',#25);
#166=REPRESENTATION('',(#164),#10);
#167=PROPERTY_DEFINITION_REPRESENTATION(#165,#166);
#168=GENERAL_PROPERTY('','KEY','');
#169=GENERAL_PROPERTY_ASSOCIATION('','',#168,#165);
#1=MECHANICAL_DESIGN_GEOMETRIC_PRESENTATION_REPRESENTATION('',(#26),#10);
ENDSEC;
END-ISO-10303-21;
